<?xml version="1.0" encoding="utf-8"?>
<!-- Generator: Adobe Illustrator 22.0.1, SVG Export Plug-In . SVG Version: 6.00 Build 0)  -->
<svg version="1.1" id="Layer_1" xmlns="http://www.w3.org/2000/svg" xmlns:xlink="http://www.w3.org/1999/xlink" x="0px" y="0px"
	 viewBox="0 0 256 256" style="enable-background:new 0 0 256 256;" xml:space="preserve">
<style type="text/css">
	.st0{fill:#3A312A;}
	.st1{fill:#8AC6DD;}
	.st2{fill:#F16C7A;}
	.st3{fill:#D7E057;}
	.st4{fill:#87796F;}
	.st5{fill:#FCE8CB;}
	.st6{fill:#DECAAD;}
	.st7{fill:#D6DF58;}
	.st8{fill:#FAE6CA;}
	.st9{fill:#DDC9AC;}
	.st10{fill:#D5DE58;}
	.st11{fill:#ED6E7A;}
	.st12{fill:#8AC5DC;}
	.st13{fill:#6CA8BF;}
	.st14{fill:#695B51;}
	.st15{fill:#F8E4C8;}
	.st16{fill:#EF6D7A;}
	.st17{fill-rule:evenodd;clip-rule:evenodd;fill:#F8E4C8;}
	.st18{fill:#89C4DB;}
	.st19{fill:#F59689;}
	.st20{fill:#D34E5C;}
	.st21{fill:#F7E3C7;}
	.st22{fill:#8AC3DA;}
	.st23{fill-rule:evenodd;clip-rule:evenodd;fill:#F7E3C7;}
	.st24{fill-rule:evenodd;clip-rule:evenodd;fill:#87796F;}
	.st25{fill:#B9C239;}
	.st26{fill:#D4DB56;}
	.st27{fill-rule:evenodd;clip-rule:evenodd;fill:#F16C7A;}
	.st28{fill-rule:evenodd;clip-rule:evenodd;fill:#F6E2C6;}
	.st29{fill:#F6E2C6;}
	.st30{fill-rule:evenodd;clip-rule:evenodd;fill:#FAE6CA;}
	.st31{fill:#B8C136;}
</style>
<g>
	<g>
		<g>
			<path class="st3" d="M225.536,26.425c-0.974,11.564-13.025,13.389-13.025,13.389c10.346,0.487,12.925,14.059,12.925,14.059
				c0.221-9.677,13.321-14.202,13.321-14.202C228.944,39.084,225.536,26.425,225.536,26.425z"/>
		</g>
	</g>
	<g>
		<g>
			<path class="st0" d="M238.848,38.173c-8.604-0.514-11.832-12.024-11.863-12.14c-0.19-0.702-0.848-1.166-1.584-1.102
				c-0.725,0.066-1.298,0.642-1.359,1.367c-0.859,10.215-11.313,11.963-11.754,12.032c-0.763,0.115-1.314,0.79-1.273,1.561
				c0.04,0.77,0.657,1.384,1.428,1.421c9.027,0.425,11.498,12.718,11.521,12.842c0.138,0.711,0.76,1.217,1.473,1.217
				c0.042,0,0.084-0.001,0.126-0.005c0.764-0.064,1.357-0.693,1.375-1.46c0.194-8.508,12.191-12.777,12.313-12.819
				c0.676-0.235,1.092-0.915,0.994-1.623C240.144,38.757,239.561,38.216,238.848,38.173z M225.281,48.519
				c-1.356-3.13-3.709-6.907-7.587-8.876c2.932-1.405,6.409-3.913,8.202-8.273c1.551,3.071,4.2,6.88,8.334,8.722
				C231.224,41.732,227.308,44.498,225.281,48.519z"/>
		</g>
	</g>
	<g>
		<g>
			<path class="st3" d="M203.837,43.405c-0.689,8.179-9.212,9.471-9.212,9.471c7.318,0.344,9.142,9.944,9.142,9.944
				c0.156-6.845,9.422-10.045,9.422-10.045C206.248,52.359,203.837,43.405,203.837,43.405z"/>
		</g>
	</g>
	<g>
		<g>
			<path class="st0" d="M213.279,51.277c-5.767-0.345-7.973-8.186-7.995-8.265c-0.19-0.702-0.863-1.159-1.581-1.102
				c-0.726,0.065-1.3,0.643-1.361,1.368c-0.578,6.871-7.646,8.067-7.941,8.114c-0.763,0.115-1.314,0.79-1.273,1.561
				c0.04,0.77,0.657,1.384,1.428,1.421c6.035,0.284,7.724,8.644,7.739,8.726c0.136,0.712,0.759,1.22,1.473,1.22
				c0.041,0,0.083-0.001,0.125-0.005c0.765-0.063,1.358-0.694,1.376-1.461c0.13-5.71,8.331-8.634,8.412-8.662
				c0.676-0.234,1.093-0.913,0.996-1.622C214.578,51.861,213.993,51.32,213.279,51.277z M203.694,58.072
				c-0.924-1.886-2.34-3.947-4.447-5.28c1.855-1.041,3.697-2.63,4.87-4.917c1.058,1.874,2.655,3.955,4.941,5.224
				C207.21,54.2,205.07,55.84,203.694,58.072z"/>
		</g>
	</g>
	<g>
		<g>
			<path class="st3" d="M203.837,16.748c-0.689,8.179-9.212,9.471-9.212,9.471c7.318,0.345,9.142,9.944,9.142,9.944
				c0.156-6.845,9.422-10.045,9.422-10.045C206.248,25.702,203.837,16.748,203.837,16.748z"/>
		</g>
	</g>
	<g>
		<g>
			<path class="st0" d="M213.279,24.62c-5.767-0.345-7.973-8.185-7.995-8.265c-0.19-0.702-0.863-1.159-1.581-1.102
				c-0.726,0.065-1.3,0.643-1.361,1.368c-0.578,6.871-7.646,8.067-7.941,8.114c-0.763,0.115-1.314,0.79-1.273,1.56
				c0.04,0.77,0.657,1.384,1.428,1.421c6.035,0.284,7.724,8.644,7.739,8.726c0.136,0.713,0.759,1.22,1.473,1.22
				c0.041,0,0.083-0.002,0.125-0.005c0.765-0.064,1.358-0.694,1.376-1.461c0.13-5.709,8.331-8.634,8.412-8.662
				c0.676-0.234,1.093-0.913,0.996-1.622C214.578,25.204,213.993,24.663,213.279,24.62z M203.694,31.415
				c-0.924-1.885-2.34-3.947-4.447-5.28c1.855-1.041,3.697-2.63,4.87-4.916c1.058,1.873,2.655,3.954,4.942,5.224
				C207.21,27.543,205.07,29.182,203.694,31.415z"/>
		</g>
	</g>
	<g>
		<g>
			<path class="st4" d="M147.461,16.929H28.912c-7.022,0-12.714,5.692-12.714,12.714v196.895c0,7.022,5.692,12.714,12.714,12.714
				h118.549c7.022,0,12.714-5.693,12.714-12.714V29.643C160.175,22.621,154.483,16.929,147.461,16.929z"/>
		</g>
	</g>
	<g>
		<g>
			<path class="st0" d="M147.461,15.429H28.912c-7.838,0-14.214,6.376-14.214,14.214v87.49c0,0.829,0.671,1.5,1.5,1.5
				c0.829,0,1.5-0.671,1.5-1.5v-87.49c0-6.184,5.031-11.214,11.214-11.214h118.549c6.184,0,11.215,5.031,11.215,11.214v196.895
				c0,6.184-5.031,11.214-11.215,11.214H28.912c-6.184,0-11.214-5.031-11.214-11.214v-96.157c0-0.829-0.671-1.5-1.5-1.5
				c-0.829,0-1.5,0.671-1.5,1.5v96.157c0,7.838,6.376,14.214,14.214,14.214h118.549c7.838,0,14.215-6.376,14.215-14.214V29.643
				C161.676,21.805,155.299,15.429,147.461,15.429z"/>
		</g>
	</g>
	<g>
		<g>
			<path class="st15" d="M138.291,31.659H38.082c-3.763,0-6.813,3.05-6.813,6.813v163.924c0,3.763,3.05,6.813,6.813,6.813h100.209
				c3.763,0,6.813-3.051,6.813-6.813V38.473C145.104,34.71,142.053,31.659,138.291,31.659z"/>
		</g>
	</g>
	<g>
		<g>
			<path class="st0" d="M138.291,30.16h-19.45c-0.829,0-1.5,0.671-1.5,1.5s0.671,1.5,1.5,1.5h19.45c2.93,0,5.313,2.383,5.313,5.313
				v163.925c0,2.93-2.384,5.313-5.313,5.313H38.082c-2.93,0-5.313-2.384-5.313-5.313V38.473c0-2.93,2.383-5.313,5.313-5.313h67.95
				c0.829,0,1.5-0.671,1.5-1.5s-0.671-1.5-1.5-1.5h-67.95c-4.584,0-8.313,3.729-8.313,8.313v163.925
				c0,4.584,3.729,8.313,8.313,8.313h100.209c4.584,0,8.313-3.729,8.313-8.313V38.473C146.604,33.889,142.875,30.16,138.291,30.16z"
				/>
		</g>
	</g>
	<g>
		<g>
			<path class="st0" d="M88.187,217.651c-3.75,0-6.791,3.04-6.791,6.791c0,3.751,3.041,6.791,6.791,6.791s6.791-3.04,6.791-6.791
				C94.977,220.691,91.937,217.651,88.187,217.651z"/>
		</g>
	</g>
	<g>
		<g>
			<path class="st3" d="M65.524,160.412c1.223,11.625,11.063,20.684,23.011,20.684c11.949,0,21.788-9.059,23.011-20.684H65.524z"/>
		</g>
	</g>
	<g>
		<g>
			<path class="st0" d="M112.661,159.408c-0.285-0.316-0.689-0.497-1.115-0.497H65.524c-0.425,0-0.83,0.18-1.115,0.497
				c-0.285,0.316-0.421,0.738-0.377,1.16c1.321,12.558,11.855,22.027,24.503,22.027s23.182-9.47,24.503-22.027
				C113.082,160.146,112.946,159.724,112.661,159.408z M88.535,179.596c-10.544,0-19.416-7.492-21.281-17.684h42.563
				C107.951,172.104,99.08,179.596,88.535,179.596z"/>
		</g>
	</g>
	<g>
		<g>
			<path class="st4" d="M88.535,59.096c-6.097,0-11.036,4.94-11.036,11.036v6.546c3.445-1.27,7.161-1.957,11.036-1.957
				c3.875,0,7.591,0.688,11.036,1.957v-6.546C99.571,64.035,94.632,59.096,88.535,59.096z"/>
		</g>
	</g>
	<g>
		<g>
			<path class="st0" d="M88.535,57.596c-6.913,0-12.536,5.623-12.536,12.536v6.546c0,0.49,0.24,0.95,0.642,1.231
				c0.255,0.178,0.555,0.269,0.858,0.269c0.175,0,0.351-0.03,0.519-0.093c6.715-2.475,14.318-2.475,21.035,0
				c0.46,0.169,0.975,0.103,1.377-0.177c0.402-0.281,0.642-0.74,0.642-1.231v-6.546C101.071,63.219,95.448,57.596,88.535,57.596z
				 M98.071,74.6c-3.08-0.916-6.279-1.379-9.536-1.379c-3.258,0-6.457,0.463-9.536,1.379v-4.468c0-5.258,4.278-9.536,9.536-9.536
				s9.536,4.278,9.536,9.536V74.6z"/>
		</g>
	</g>
	<g>
		<g>
			<path class="st1" d="M132.252,145.255l-7.038-3.175c-2.842-1.282-4.669-4.11-4.669-7.228v-28.121
				c0-17.679-14.332-32.011-32.011-32.011s-32.011,14.332-32.011,32.011v28.121c0,3.117-1.827,5.946-4.669,7.228l-7.038,3.175
				c-2.842,1.282-4.669,4.11-4.669,7.228c0,4.379,3.55,7.929,7.929,7.929h80.914c4.379,0,7.929-3.55,7.929-7.929
				C136.921,149.365,135.094,146.537,132.252,145.255z"/>
		</g>
	</g>
	<g>
		<g>
			<path class="st0" d="M132.869,143.888l-7.038-3.175c-2.3-1.038-3.786-3.338-3.786-5.86v-28.121
				c0-18.478-15.033-33.511-33.511-33.511c-18.478,0-33.511,15.033-33.511,33.511v28.121c0,2.523-1.486,4.823-3.785,5.86
				l-7.038,3.175c-3.373,1.521-5.552,4.894-5.552,8.595c0,5.199,4.229,9.429,9.429,9.429h80.914c5.2,0,9.429-4.23,9.429-9.429
				C138.421,148.783,136.241,145.409,132.869,143.888z M128.992,158.912H48.078c-3.545,0-6.429-2.884-6.429-6.429
				c0-2.523,1.486-4.823,3.785-5.86l7.038-3.175c3.372-1.521,5.552-4.895,5.552-8.595v-28.121c0-16.824,13.688-30.511,30.511-30.511
				c16.824,0,30.511,13.687,30.511,30.511v28.121c0,3.699,2.179,7.073,5.552,8.595l7.037,3.175c2.3,1.038,3.786,3.338,3.786,5.86
				C135.421,156.027,132.537,158.912,128.992,158.912z"/>
		</g>
	</g>
	<g>
		<g>
			<path class="st2" d="M238.673,226.419l-29.015-50.256l-7.15-12.384l-9.947-17.229c-3.208-5.556-11.227-5.556-14.435,0
				l-46.112,79.868c-3.208,5.556,0.802,12.501,7.218,12.501h92.224C237.871,238.92,241.881,231.975,238.673,226.419z"/>
		</g>
	</g>
	<g>
		<g>
			<path class="st0" d="M239.972,225.668l-29.015-50.256c-0.414-0.719-1.333-0.963-2.049-0.549
				c-0.718,0.414-0.963,1.332-0.549,2.049l29.015,50.256c1.235,2.14,1.235,4.695,0,6.834c-1.235,2.14-3.447,3.417-5.918,3.417
				h-92.225c-2.471,0-4.683-1.277-5.919-3.417c-1.235-2.139-1.235-4.694,0-6.834l46.112-79.869c1.235-2.14,3.448-3.417,5.919-3.417
				c2.471,0,4.683,1.277,5.919,3.417l9.946,17.229c0.414,0.719,1.333,0.963,2.049,0.549c0.718-0.414,0.963-1.331,0.549-2.049
				L193.86,145.8c-1.777-3.079-4.961-4.917-8.517-4.917c-3.556,0-6.739,1.838-8.517,4.917l-46.112,79.869
				c-1.778,3.079-1.778,6.755,0,9.834c1.777,3.079,4.961,4.917,8.517,4.917h92.225c3.555,0,6.738-1.838,8.516-4.917
				C241.75,232.424,241.75,228.748,239.972,225.668z"/>
		</g>
	</g>
	<g>
		<g>
			<path class="st4" d="M185.341,162.963c-7.733,0-10.92,7.189-10.92,13.927c0,3.887,0.995,12.732,2.446,19.494
				c0.854,3.977,4.407,6.795,8.475,6.795c4.067,0,7.62-2.816,8.475-6.792c1.454-6.762,2.449-15.609,2.449-19.497
				C196.266,170.152,193.079,162.963,185.341,162.963z"/>
		</g>
	</g>
	<g>
		<g>
			<path class="st0" d="M185.341,161.463c-8.579,0-12.42,7.748-12.42,15.427c0,3.986,0.996,12.898,2.479,19.81
				c0.994,4.623,5.175,7.979,9.942,7.979c4.767,0,8.948-3.355,9.941-7.977c1.484-6.907,2.482-15.82,2.482-19.813
				C197.767,169.211,193.925,161.463,185.341,161.463z M192.351,196.072c-0.698,3.249-3.646,5.607-7.008,5.607
				c-3.363,0-6.311-2.359-7.009-5.609c-1.422-6.626-2.413-15.426-2.413-19.18c0-5.733,2.467-12.427,9.42-12.427
				c6.957,0,9.426,6.694,9.426,12.427C194.767,180.649,193.774,189.452,192.351,196.072z"/>
		</g>
	</g>
	<g>
		<g>
			<path class="st4" d="M185.342,210.263c-5.551,0-10.102,4.55-10.102,10.102c0,5.552,4.551,10.102,10.102,10.102
				c5.551,0,10.102-4.55,10.102-10.102C195.444,214.813,190.893,210.263,185.342,210.263z"/>
		</g>
	</g>
	<g>
		<g>
			<path class="st0" d="M185.342,208.763c-6.398,0-11.603,5.205-11.603,11.602c0,6.398,5.205,11.602,11.603,11.602
				c6.397,0,11.602-5.205,11.602-11.602C196.944,213.968,191.739,208.763,185.342,208.763z M185.342,228.967
				c-4.743,0-8.603-3.859-8.603-8.602c0-4.743,3.859-8.602,8.603-8.602s8.602,3.858,8.602,8.602
				C193.944,225.108,190.085,228.967,185.342,228.967z"/>
		</g>
	</g>
	<g>
		<g>
			<path class="st9" d="M138.295,33.156h-16c2.93,0,5.31,2.39,5.31,5.32v103.04l5.26,2.37c3.38,1.52,5.56,4.9,5.56,8.6
				c0,5.2-4.23,9.43-9.43,9.43h-1.39v40.48c0,0.42-0.06,0.82-0.15,1.21l-1.53,2.65c-0.95,0.9-2.23,1.46-3.63,1.46h16
				c1.4,0,2.68-0.56,3.63-1.46l1.53-2.65c0.09-0.39,0.15-0.79,0.15-1.21V38.476C143.605,35.546,141.225,33.156,138.295,33.156z"/>
		</g>
	</g>
</g>
</svg>
