<?xml version="1.0" encoding="utf-8"?>
<!-- Generator: Adobe Illustrator 22.0.1, SVG Export Plug-In . SVG Version: 6.00 Build 0)  -->
<svg version="1.1" id="Layer_1" xmlns="http://www.w3.org/2000/svg" xmlns:xlink="http://www.w3.org/1999/xlink" x="0px" y="0px"
	 viewBox="0 0 256 256" style="enable-background:new 0 0 256 256;" xml:space="preserve">
<style type="text/css">
	.st0{fill:#3A312A;}
	.st1{fill:#8AC6DD;}
	.st2{fill:#F16C7A;}
	.st3{fill:#D7E057;}
	.st4{fill:#87796F;}
	.st5{fill:#FCE8CB;}
	.st6{fill:#DECAAD;}
	.st7{fill:#D6DF58;}
	.st8{fill:#FAE6CA;}
	.st9{fill:#DDC9AC;}
	.st10{fill:#D5DE58;}
	.st11{fill:#ED6E7A;}
	.st12{fill:#8AC5DC;}
	.st13{fill:#6CA8BF;}
	.st14{fill:#695B51;}
	.st15{fill:#F8E4C8;}
	.st16{fill:#EF6D7A;}
	.st17{fill-rule:evenodd;clip-rule:evenodd;fill:#F8E4C8;}
	.st18{fill:#89C4DB;}
	.st19{fill:#F59689;}
	.st20{fill:#D34E5C;}
	.st21{fill:#F7E3C7;}
	.st22{fill:#8AC3DA;}
	.st23{fill-rule:evenodd;clip-rule:evenodd;fill:#F7E3C7;}
	.st24{fill-rule:evenodd;clip-rule:evenodd;fill:#87796F;}
	.st25{fill:#B9C239;}
	.st26{fill:#D4DB56;}
	.st27{fill-rule:evenodd;clip-rule:evenodd;fill:#F16C7A;}
	.st28{fill-rule:evenodd;clip-rule:evenodd;fill:#F6E2C6;}
	.st29{fill:#F6E2C6;}
	.st30{fill-rule:evenodd;clip-rule:evenodd;fill:#FAE6CA;}
	.st31{fill:#B8C136;}
</style>
<g>
	<g>
		<g>
			<path class="st4" d="M222.395,16.135H33.605c-9.447,0-17.105,7.658-17.105,17.106V163.53c0,9.447,7.658,17.105,17.105,17.105
				h188.789c9.447,0,17.105-7.658,17.105-17.105V33.241C239.5,23.794,231.842,16.135,222.395,16.135z"/>
		</g>
	</g>
	<g>
		<g>
			<path class="st0" d="M222.395,14.636H33.605C23.347,14.636,15,22.982,15,33.241V163.53c0,10.259,8.347,18.605,18.605,18.605
				h188.789c10.259,0,18.605-8.347,18.605-18.605V33.241C241,22.982,232.653,14.636,222.395,14.636z M238,163.53
				c0,8.604-7.001,15.605-15.605,15.605H33.605c-8.604,0-15.605-7.001-15.605-15.605V33.241c0-8.604,7.001-15.605,15.605-15.605
				h188.789c8.604,0,15.605,7.001,15.605,15.605V163.53z"/>
		</g>
	</g>
	<g>
		<g>
			<path class="st8" d="M214.97,28.64H41.03c-6.58,0-11.92,5.33-11.92,11.92v115.66c0,6.58,5.34,11.92,11.92,11.92h173.94
				c6.58,0,11.92-5.34,11.92-11.92V40.56C226.89,33.97,221.55,28.64,214.97,28.64z"/>
		</g>
	</g>
	<g>
		<g>
			<path class="st0" d="M214.97,27.14H86.333c-0.828,0-1.5,0.672-1.5,1.5s0.672,1.5,1.5,1.5H214.97
				c5.745,0,10.42,4.675,10.42,10.421V156.22c0,5.745-4.675,10.42-10.42,10.42H41.03c-5.745,0-10.42-4.675-10.42-10.42V40.561
				c0-5.746,4.675-10.421,10.42-10.421h32.638c0.828,0,1.5-0.672,1.5-1.5s-0.672-1.5-1.5-1.5H41.03
				c-7.399,0-13.42,6.021-13.42,13.421V156.22c0,7.399,6.021,13.42,13.42,13.42H214.97c7.399,0,13.42-6.021,13.42-13.42V40.561
				C228.39,33.16,222.369,27.14,214.97,27.14z"/>
		</g>
	</g>
	<g>
		<g>
			<path class="st9" d="M214.97,30.135h-15c5.74,0,10.42,4.67,10.42,10.42v115.66c0,5.75-4.68,10.42-10.42,10.42h15
				c5.74,0,10.42-4.67,10.42-10.42V40.555C225.39,34.805,220.71,30.135,214.97,30.135z"/>
		</g>
	</g>
	<g>
		<g>
			<path class="st0" d="M199.297,50.223c-0.56-0.611-1.509-0.651-2.119-0.094l-36.006,32.966l-33.131-18.2
				c-0.599-0.329-1.342-0.213-1.812,0.283l-33.91,35.796L58.604,79.911c-0.702-0.438-1.627-0.225-2.067,0.478
				c-0.438,0.703-0.225,1.628,0.478,2.067l34.755,21.712c0.245,0.153,0.521,0.228,0.794,0.228c0.401,0,0.798-0.16,1.09-0.469
				l33.958-35.846l33.058,18.16c0.565,0.311,1.262,0.226,1.735-0.208l36.799-33.691C199.814,51.782,199.856,50.833,199.297,50.223z"
				/>
		</g>
	</g>
	<g>
		<g>
			<path class="st16" d="M92.999,93.085c-5.418,0-9.81,4.392-9.81,9.81c0,5.418,4.392,9.81,9.81,9.81c5.418,0,9.81-4.392,9.81-9.81
				C102.808,97.478,98.416,93.085,92.999,93.085z"/>
		</g>
	</g>
	<g>
		<g>
			<path class="st0" d="M92.999,91.586c-6.236,0-11.311,5.073-11.311,11.31s5.074,11.31,11.311,11.31s11.31-5.073,11.31-11.31
				S99.235,91.586,92.999,91.586z M92.999,111.205c-4.582,0-8.311-3.728-8.311-8.31s3.729-8.31,8.311-8.31s8.31,3.728,8.31,8.31
				S97.581,111.205,92.999,111.205z"/>
		</g>
	</g>
	<g>
		<g>
			<path class="st7" d="M127.459,56.518c-5.418,0-9.81,4.392-9.81,9.81c0,5.418,4.392,9.81,9.81,9.81c5.418,0,9.81-4.392,9.81-9.81
				C137.269,60.91,132.877,56.518,127.459,56.518z"/>
		</g>
	</g>
	<g>
		<g>
			<path class="st0" d="M127.459,55.018c-6.236,0-11.31,5.073-11.31,11.31s5.073,11.311,11.31,11.311
				c6.236,0,11.31-5.074,11.31-11.311S133.695,55.018,127.459,55.018z M127.459,74.638c-4.582,0-8.31-3.729-8.31-8.311
				s3.728-8.31,8.31-8.31c4.582,0,8.31,3.728,8.31,8.31S132.041,74.638,127.459,74.638z"/>
		</g>
	</g>
	<g>
		<g>
			<path class="st1" d="M161.39,75.042c-5.418,0-9.81,4.392-9.81,9.81c0,5.418,4.392,9.81,9.81,9.81c5.418,0,9.81-4.392,9.81-9.81
				C171.2,79.435,166.808,75.042,161.39,75.042z"/>
		</g>
	</g>
	<g>
		<g>
			<path class="st0" d="M161.391,73.543c-6.236,0-11.311,5.073-11.311,11.31s5.074,11.31,11.311,11.31s11.31-5.073,11.31-11.31
				S167.627,73.543,161.391,73.543z M161.391,93.162c-4.582,0-8.311-3.728-8.311-8.31s3.729-8.31,8.311-8.31s8.31,3.728,8.31,8.31
				S165.973,93.162,161.391,93.162z"/>
		</g>
	</g>
	<g>
		<g>
			<path class="st4" d="M198.19,41.426c-5.418,0-9.81,4.392-9.81,9.81c0,5.418,4.392,9.81,9.81,9.81c5.418,0,9.81-4.392,9.81-9.81
				C208,45.818,203.608,41.426,198.19,41.426z"/>
		</g>
	</g>
	<g>
		<g>
			<path class="st0" d="M198.19,39.926c-6.236,0-11.311,5.073-11.311,11.31s5.074,11.311,11.311,11.311s11.31-5.074,11.31-11.311
				S204.427,39.926,198.19,39.926z M198.19,59.546c-4.582,0-8.311-3.729-8.311-8.311s3.729-8.31,8.311-8.31s8.31,3.728,8.31,8.31
				S202.772,59.546,198.19,59.546z"/>
		</g>
	</g>
	<g>
		<g>
			
				<ellipse transform="matrix(0.1602 -0.9871 0.9871 0.1602 -31.673 125.3173)" class="st4" cx="57.81" cy="81.272" rx="9.81" ry="9.81"/>
		</g>
	</g>
	<g>
		<g>
			<path class="st0" d="M57.81,69.962c-6.236,0-11.31,5.074-11.31,11.311s5.073,11.31,11.31,11.31c6.236,0,11.31-5.073,11.31-11.31
				S64.046,69.962,57.81,69.962z M57.81,89.582c-4.582,0-8.31-3.728-8.31-8.31s3.727-8.311,8.31-8.311
				c4.582,0,8.31,3.729,8.31,8.311S62.392,89.582,57.81,89.582z"/>
		</g>
	</g>
	<g>
		<g>
			<rect x="113.688" y="180.635" class="st4" width="28.625" height="35.593"/>
		</g>
	</g>
	<g>
		<g>
			<path class="st0" d="M142.313,179.136h-28.625c-0.828,0-1.5,0.672-1.5,1.5v35.593c0,0.828,0.672,1.5,1.5,1.5h28.625
				c0.828,0,1.5-0.672,1.5-1.5v-35.593C143.813,179.808,143.141,179.136,142.313,179.136z M140.813,214.729h-25.625v-32.593h25.625
				V214.729z"/>
		</g>
	</g>
	<g>
		<g>
			<path class="st4" d="M148.296,216.229h-40.593c-12.927,0-23.407,10.479-23.407,23.406h87.406
				C171.703,226.708,161.224,216.229,148.296,216.229z"/>
		</g>
	</g>
	<g>
		<g>
			<path class="st0" d="M148.297,214.729h-40.594c-13.733,0-24.906,11.173-24.906,24.907c0,0.828,0.672,1.5,1.5,1.5h37.584
				c0.828,0,1.5-0.672,1.5-1.5s-0.672-1.5-1.5-1.5H85.848c0.773-11.383,10.28-20.407,21.855-20.407h40.594
				c11.575,0,21.082,9.024,21.855,20.407h-34.701c-0.828,0-1.5,0.672-1.5,1.5s0.672,1.5,1.5,1.5h36.252c0.828,0,1.5-0.672,1.5-1.5
				C173.203,225.901,162.03,214.729,148.297,214.729z"/>
		</g>
	</g>
	<g>
		<g>
			<path class="st10" d="M47.671,203.469c-0.974,11.564-13.025,13.39-13.025,13.39c10.346,0.487,12.925,14.059,12.925,14.059
				c0.221-9.677,13.321-14.202,13.321-14.202C51.079,216.129,47.671,203.469,47.671,203.469z"/>
		</g>
	</g>
	<g>
		<g>
			<path class="st0" d="M60.982,215.219c-8.604-0.515-11.832-12.024-11.863-12.141c-0.19-0.702-0.849-1.155-1.584-1.102
				c-0.725,0.066-1.298,0.642-1.359,1.367c-0.859,10.215-11.313,11.963-11.754,12.031c-0.763,0.116-1.313,0.791-1.273,1.561
				c0.04,0.771,0.657,1.385,1.428,1.421c9.028,0.426,11.499,12.719,11.522,12.844c0.138,0.711,0.76,1.217,1.473,1.217
				c0.042,0,0.084-0.002,0.126-0.005c0.765-0.064,1.357-0.693,1.375-1.46c0.193-8.509,12.19-12.777,12.312-12.819
				c0.676-0.234,1.092-0.914,0.994-1.622C62.279,215.802,61.696,215.261,60.982,215.219z M47.417,225.564
				c-1.357-3.131-3.709-6.908-7.587-8.877c2.931-1.404,6.408-3.913,8.201-8.272c1.551,3.071,4.2,6.88,8.334,8.723
				C53.358,218.777,49.443,221.543,47.417,225.564z"/>
		</g>
	</g>
	<g>
		<g>
			<path class="st10" d="M25.972,220.45c-0.689,8.179-9.212,9.471-9.212,9.471c7.318,0.344,9.142,9.944,9.142,9.944
				c0.156-6.845,9.422-10.045,9.422-10.045C28.383,229.404,25.972,220.45,25.972,220.45z"/>
		</g>
	</g>
	<g>
		<g>
			<path class="st0" d="M35.414,228.322c-5.767-0.345-7.972-8.186-7.993-8.265c-0.19-0.702-0.866-1.157-1.582-1.102
				c-0.726,0.065-1.3,0.643-1.361,1.368c-0.579,6.87-7.646,8.066-7.942,8.113c-0.763,0.116-1.313,0.791-1.273,1.561
				c0.04,0.771,0.657,1.385,1.428,1.421c6.035,0.284,7.724,8.644,7.739,8.726c0.136,0.713,0.759,1.22,1.473,1.22
				c0.041,0,0.083-0.002,0.125-0.005c0.765-0.063,1.358-0.693,1.376-1.461c0.13-5.708,8.331-8.633,8.412-8.661
				c0.676-0.234,1.093-0.913,0.996-1.622C36.713,228.906,36.128,228.364,35.414,228.322z M25.829,235.117
				c-0.924-1.886-2.34-3.947-4.447-5.28c1.856-1.041,3.697-2.63,4.871-4.916c1.057,1.874,2.654,3.955,4.941,5.224
				C29.344,231.245,27.205,232.885,25.829,235.117z"/>
		</g>
	</g>
	<g>
		<g>
			<path class="st10" d="M25.972,193.792c-0.689,8.179-9.212,9.471-9.212,9.471c7.318,0.344,9.142,9.944,9.142,9.944
				c0.156-6.845,9.422-10.045,9.422-10.045C28.383,202.747,25.972,193.792,25.972,193.792z"/>
		</g>
	</g>
	<g>
		<g>
			<path class="st0" d="M35.414,201.665c-5.767-0.345-7.972-8.187-7.993-8.266c-0.19-0.702-0.866-1.155-1.582-1.102
				c-0.726,0.065-1.3,0.643-1.361,1.368c-0.579,6.871-7.646,8.066-7.942,8.113c-0.763,0.116-1.313,0.791-1.273,1.561
				c0.04,0.771,0.657,1.385,1.428,1.421c6.035,0.284,7.724,8.645,7.739,8.727c0.136,0.713,0.759,1.22,1.473,1.22
				c0.041,0,0.083-0.002,0.125-0.005c0.765-0.063,1.358-0.693,1.376-1.461c0.13-5.709,8.331-8.633,8.411-8.661
				c0.677-0.233,1.094-0.913,0.997-1.622C36.713,202.249,36.128,201.707,35.414,201.665z M25.829,208.459
				c-0.924-1.885-2.34-3.947-4.447-5.279c1.856-1.041,3.697-2.63,4.871-4.916c1.057,1.873,2.654,3.954,4.94,5.224
				C29.344,204.588,27.205,206.228,25.829,208.459z"/>
		</g>
	</g>
	<g>
		<g>
			<rect x="47" y="133.759" class="st2" width="19.638" height="13.613"/>
		</g>
	</g>
	<g>
		<g>
			<path class="st0" d="M66.638,132.259H47c-0.828,0-1.5,0.672-1.5,1.5v13.612c0,0.828,0.672,1.5,1.5,1.5h19.638
				c0.828,0,1.5-0.672,1.5-1.5v-13.612C68.138,132.931,67.466,132.259,66.638,132.259z M65.138,145.871H48.5v-10.612h16.638V145.871
				z"/>
		</g>
	</g>
	<g>
		<g>
			<rect x="94.454" y="120.834" class="st3" width="19.638" height="26.537"/>
		</g>
	</g>
	<g>
		<g>
			<path class="st0" d="M114.092,119.334H94.454c-0.828,0-1.5,0.672-1.5,1.5v26.537c0,0.828,0.672,1.5,1.5,1.5h19.638
				c0.828,0,1.5-0.672,1.5-1.5v-26.537C115.592,120.006,114.92,119.334,114.092,119.334z M112.592,145.871H95.954v-23.537h16.638
				V145.871z"/>
		</g>
	</g>
	<g>
		<g>
			<rect x="141.908" y="107.91" class="st2" width="19.638" height="39.462"/>
		</g>
	</g>
	<g>
		<g>
			<path class="st0" d="M161.546,106.41h-19.638c-0.828,0-1.5,0.672-1.5,1.5v39.461c0,0.828,0.672,1.5,1.5,1.5h19.638
				c0.828,0,1.5-0.672,1.5-1.5V107.91C163.046,107.082,162.374,106.41,161.546,106.41z M160.046,145.871h-16.638V109.41h16.638
				V145.871z"/>
		</g>
	</g>
	<g>
		<g>
			<rect x="189.362" y="94.985" class="st3" width="19.638" height="52.386"/>
		</g>
	</g>
	<g>
		<g>
			<path class="st0" d="M209,93.485h-19.638c-0.828,0-1.5,0.672-1.5,1.5v52.386c0,0.828,0.672,1.5,1.5,1.5H209
				c0.828,0,1.5-0.672,1.5-1.5V94.985C210.5,94.157,209.828,93.485,209,93.485z M207.5,145.871h-16.638V96.485H207.5V145.871z"/>
		</g>
	</g>
	<g>
		<g>
			<path class="st4" d="M211.879,200.444l-8.721-8.721l-9.369-9.369l-4.935-4.935l-23.031-23.031
				c-1.518,2.167-3.246,4.23-5.178,6.162c-1.932,1.932-3.995,3.66-6.162,5.178l46.056,46.056c3.131,3.132,8.208,3.132,11.34,0
				C215.011,208.653,215.011,203.576,211.879,200.444z"/>
		</g>
	</g>
	<g>
		<g>
			<path class="st0" d="M212.939,199.384l-8.721-8.721c-0.586-0.586-1.535-0.586-2.121,0s-0.586,1.535,0,2.121l8.721,8.721
				c1.231,1.231,1.909,2.868,1.909,4.609s-0.678,3.378-1.909,4.609s-2.868,1.909-4.609,1.909s-3.378-0.678-4.609-1.909
				l-44.816-44.816c1.727-1.311,3.377-2.75,4.923-4.296s2.985-3.196,4.296-4.923l26.727,26.727c0.586,0.586,1.535,0.586,2.121,0
				s0.586-1.535,0-2.121l-27.966-27.966c-0.313-0.313-0.742-0.474-1.191-0.434c-0.441,0.038-0.843,0.271-1.098,0.634
				c-1.478,2.108-3.163,4.114-5.01,5.962c-1.848,1.847-3.854,3.532-5.962,5.01c-0.363,0.255-0.596,0.656-0.634,1.098
				c-0.039,0.442,0.12,0.878,0.434,1.191l46.056,46.056c1.798,1.798,4.188,2.788,6.73,2.788c2.543,0,4.934-0.99,6.73-2.788
				c1.798-1.797,2.788-4.188,2.788-6.73C215.728,203.572,214.737,201.182,212.939,199.384z"/>
		</g>
	</g>
	<g>
		<g>
			<path class="st3" d="M174.2,149.498l-3.644-3.644c-2.251,5.34-5.56,10.345-9.911,14.696c-4.351,4.351-9.356,7.659-14.696,9.911
				l3.644,3.644c2.592,2.592,6.801,2.592,9.392,0l15.214-15.214C176.791,156.299,176.791,152.09,174.2,149.498z"/>
		</g>
	</g>
	<g>
		<g>
			<path class="st0" d="M175.26,148.438l-3.644-3.644c-0.354-0.354-0.858-0.511-1.349-0.411c-0.49,0.096-0.9,0.429-1.094,0.889
				c-2.238,5.31-5.465,10.093-9.589,14.219c-4.124,4.124-8.907,7.35-14.219,9.589c-0.46,0.193-0.793,0.604-0.889,1.094
				c-0.097,0.49,0.058,0.996,0.411,1.349l3.644,3.644c1.537,1.537,3.581,2.384,5.757,2.384s4.22-0.847,5.757-2.384l15.214-15.214
				c1.537-1.537,2.384-3.581,2.384-5.757S176.797,149.975,175.26,148.438z M173.139,157.83l-15.214,15.214
				c-2.006,2.004-5.266,2.004-7.271,0l-2.105-2.106c4.868-2.324,9.287-5.454,13.158-9.326c3.872-3.873,7.003-8.291,9.326-13.158
				l2.106,2.105C175.144,152.563,175.144,155.825,173.139,157.83z"/>
		</g>
	</g>
	<g>
		<g>
			
				<ellipse transform="matrix(0.4472 -0.8944 0.8944 0.4472 -43.6063 185.0258)" class="st2" cx="127.886" cy="127.791" rx="46.326" ry="46.326"/>
		</g>
	</g>
	<g>
		<g>
			<path class="st0" d="M161.704,93.974c-9.033-9.033-21.044-14.008-33.818-14.008c-12.774,0-24.785,4.975-33.817,14.008
				c-9.033,9.032-14.008,21.043-14.008,33.817s4.975,24.785,14.008,33.818c9.323,9.323,21.57,13.985,33.817,13.985
				c12.247,0,24.494-4.662,33.818-13.985C180.351,142.962,180.351,112.62,161.704,93.974z M159.583,159.488
				c-17.479,17.476-45.918,17.477-63.394,0c-8.467-8.467-13.129-19.724-13.129-31.697s4.662-23.229,13.129-31.696
				s19.723-13.129,31.696-13.129c11.974,0,23.231,4.662,31.697,13.129C177.06,113.572,177.06,142.01,159.583,159.488z"/>
		</g>
	</g>
	<g>
		<g>
			<path class="st1" d="M152.28,103.397c-11.986-11.986-30.593-13.299-44.041-3.957l-9.25,9.502
				c-8.745,13.378-7.246,31.493,4.504,43.243c13.472,13.472,35.315,13.472,48.788,0C165.752,138.713,165.752,116.87,152.28,103.397z
				"/>
		</g>
	</g>
	<g>
		<g>
			<path class="st0" d="M153.341,102.337c-12.328-12.329-31.656-14.062-45.958-4.129c-0.681,0.473-0.849,1.408-0.377,2.088
				c0.474,0.682,1.409,0.848,2.088,0.377c13.111-9.109,30.825-7.514,42.126,3.785c12.865,12.866,12.865,33.801,0,46.666
				c-12.867,12.865-33.8,12.865-46.667,0c-10.983-10.983-12.796-28.378-4.309-41.361c0.453-0.693,0.258-1.623-0.435-2.076
				c-0.69-0.45-1.622-0.259-2.076,0.436c-9.26,14.165-7.283,33.142,4.699,45.123c7.018,7.018,16.236,10.527,25.455,10.527
				c9.218,0,18.437-3.51,25.454-10.527C167.376,139.21,167.376,116.373,153.341,102.337z"/>
		</g>
	</g>
	<g>
		<g>
			<path class="st13" d="M151.215,104.458c-6.23-6.23-14.52-9.66-23.33-9.66c-2.56,0-5.07,0.29-7.5,0.86
				c5.95,1.37,11.41,4.38,15.83,8.8c12.87,12.87,12.87,33.8,0,46.67c-4.51,4.51-10.02,7.45-15.83,8.79
				c10.73,2.49,22.48-0.44,30.83-8.79C164.085,138.258,164.085,117.328,151.215,104.458z"/>
		</g>
	</g>
</g>
</svg>
