<?xml version="1.0" encoding="utf-8"?>
<!-- Generator: Adobe Illustrator 22.0.1, SVG Export Plug-In . SVG Version: 6.00 Build 0)  -->
<svg version="1.1" id="Layer_1" xmlns="http://www.w3.org/2000/svg" xmlns:xlink="http://www.w3.org/1999/xlink" x="0px" y="0px"
	 viewBox="0 0 256 256" style="enable-background:new 0 0 256 256;" xml:space="preserve">
<style type="text/css">
	.st0{fill:#3A312A;}
	.st1{fill:#8AC6DD;}
	.st2{fill:#F16C7A;}
	.st3{fill:#D7E057;}
	.st4{fill:#87796F;}
	.st5{fill:#FCE8CB;}
	.st6{fill:#DECAAD;}
	.st7{fill:#D6DF58;}
	.st8{fill:#FAE6CA;}
	.st9{fill:#DDC9AC;}
	.st10{fill:#D5DE58;}
	.st11{fill:#ED6E7A;}
	.st12{fill:#8AC5DC;}
	.st13{fill:#6CA8BF;}
	.st14{fill:#695B51;}
	.st15{fill:#F8E4C8;}
	.st16{fill:#EF6D7A;}
	.st17{fill-rule:evenodd;clip-rule:evenodd;fill:#F8E4C8;}
	.st18{fill:#89C4DB;}
	.st19{fill:#F59689;}
	.st20{fill:#D34E5C;}
	.st21{fill:#F7E3C7;}
	.st22{fill:#8AC3DA;}
	.st23{fill-rule:evenodd;clip-rule:evenodd;fill:#F7E3C7;}
	.st24{fill-rule:evenodd;clip-rule:evenodd;fill:#87796F;}
	.st25{fill:#B9C239;}
	.st26{fill:#D4DB56;}
	.st27{fill-rule:evenodd;clip-rule:evenodd;fill:#F16C7A;}
	.st28{fill-rule:evenodd;clip-rule:evenodd;fill:#F6E2C6;}
	.st29{fill:#F6E2C6;}
	.st30{fill-rule:evenodd;clip-rule:evenodd;fill:#FAE6CA;}
	.st31{fill:#B8C136;}
</style>
<g>
	<g>
		<g>
			<path class="st1" d="M227.71,16.55H28.29c-6.479,0-11.731,5.252-11.731,11.73c0,6.479,5.252,11.731,11.731,11.731H227.71
				c6.478,0,11.73-5.252,11.73-11.731C239.44,21.802,234.188,16.55,227.71,16.55z"/>
		</g>
	</g>
	<g>
		<g>
			<path class="st0" d="M227.709,15.05h-59.96c-0.829,0-1.5,0.671-1.5,1.5s0.671,1.5,1.5,1.5h59.96c5.641,0,10.23,4.589,10.23,10.23
				s-4.589,10.23-10.23,10.23H28.29c-5.641,0-10.23-4.589-10.23-10.23s4.589-10.23,10.23-10.23h125.294c0.829,0,1.5-0.671,1.5-1.5
				s-0.671-1.5-1.5-1.5H28.29c-7.295,0-13.23,5.935-13.23,13.23s5.935,13.23,13.23,13.23h199.419c7.295,0,13.23-5.935,13.23-13.23
				S235.005,15.05,227.709,15.05z"/>
		</g>
	</g>
	<g>
		<g>
			<path class="st4" d="M122.13,180.78v52.78c0,3.24,2.63,5.87,5.87,5.87c3.24,0,5.87-2.63,5.87-5.87v-52.78H122.13z"/>
		</g>
	</g>
	<g>
		<g>
			<path class="st0" d="M133.87,179.28h-11.74c-0.829,0-1.5,0.671-1.5,1.5v52.78c0,4.063,3.306,7.37,7.37,7.37s7.37-3.306,7.37-7.37
				v-52.78C135.37,179.951,134.699,179.28,133.87,179.28z M132.37,233.56c0,2.409-1.96,4.37-4.37,4.37c-2.41,0-4.37-1.96-4.37-4.37
				v-51.28h8.74V233.56z"/>
		</g>
	</g>
	<g>
		<g>
			<path class="st4" d="M99.27,180.78l-8.547,17.985l-6.71,14.118L75.38,231.05c-1.39,2.92-0.15,6.42,2.78,7.81
				c2.92,1.39,6.42,0.15,7.81-2.78l26.28-55.3H99.27z"/>
		</g>
	</g>
	<g>
		<g>
			<path class="st0" d="M113.518,179.979c-0.275-0.435-0.753-0.699-1.268-0.699H99.27c-0.579,0-1.106,0.333-1.355,0.856
				l-8.547,17.985c-0.355,0.749-0.037,1.643,0.711,1.999c0.748,0.354,1.643,0.037,1.999-0.711l8.14-17.129h9.659l-25.261,53.157
				c-0.5,1.054-1.38,1.849-2.478,2.24c-1.098,0.39-2.282,0.329-3.334-0.171c-1.054-0.5-1.849-1.38-2.239-2.478
				c-0.391-1.098-0.33-2.281,0.171-3.333l8.633-18.167c0.355-0.749,0.037-1.643-0.711-1.999c-0.749-0.355-1.643-0.037-1.999,0.711
				l-8.633,18.166c-0.845,1.776-0.947,3.774-0.288,5.628c0.66,1.853,2.002,3.338,3.778,4.181c1.004,0.478,2.077,0.718,3.156,0.718
				c0.831,0,1.665-0.143,2.471-0.429c1.854-0.66,3.339-2.002,4.183-3.779l26.28-55.3
				C113.826,180.959,113.793,180.414,113.518,179.979z"/>
		</g>
	</g>
	<g>
		<g>
			<path class="st4" d="M181.31,231.05l-23.89-50.27h-12.98l26.28,55.3c1.39,2.93,4.89,4.17,7.81,2.78
				C181.46,237.47,182.7,233.97,181.31,231.05z"/>
		</g>
	</g>
	<g>
		<g>
			<path class="st0" d="M182.665,230.406l-23.89-50.27c-0.249-0.523-0.776-0.856-1.355-0.856h-12.98
				c-0.515,0-0.993,0.264-1.268,0.699s-0.308,0.98-0.087,1.445l26.28,55.299c0.844,1.778,2.329,3.12,4.182,3.779
				c0.807,0.287,1.641,0.43,2.472,0.43c1.078,0,2.152-0.24,3.154-0.717c1.778-0.843,3.121-2.329,3.78-4.183
				C183.612,234.179,183.51,232.181,182.665,230.406z M180.126,235.027c-0.391,1.098-1.186,1.978-2.24,2.478
				c-0.001,0-0.001,0-0.002,0c-1.052,0.5-2.234,0.561-3.333,0.171c-1.098-0.391-1.977-1.186-2.477-2.24l-25.262-53.156h9.659
				l23.483,49.415C180.456,232.746,180.517,233.929,180.126,235.027z"/>
		</g>
	</g>
	<g>
		<g>
			<polygon class="st5" points="35.578,40.011 35.578,85.66 35.578,100.319 35.578,157.316 220.422,157.316 220.422,40.011 			"/>
		</g>
	</g>
	<g>
		<g>
			<path class="st0" d="M220.422,38.511H35.578c-0.829,0-1.5,0.671-1.5,1.5v117.306c0,0.829,0.671,1.5,1.5,1.5h184.844
				c0.829,0,1.5-0.671,1.5-1.5V40.011C221.922,39.182,221.25,38.511,220.422,38.511z M218.922,155.816H37.078V41.511h181.844
				V155.816z"/>
		</g>
	</g>
	<g>
		<g>
			<path class="st1" d="M227.71,157.316H28.981c-6.479,0-11.731,5.251-11.731,11.73c0,6.479,5.252,11.73,11.731,11.73h151.711
				h15.115h31.902c6.478,0,11.73-5.252,11.73-11.73C239.44,162.568,234.188,157.316,227.71,157.316z"/>
		</g>
	</g>
	<g>
		<g>
			<path class="st0" d="M227.709,155.816H28.981c-7.296,0-13.231,5.935-13.231,13.23s5.935,13.23,13.231,13.23h151.711
				c0.829,0,1.5-0.671,1.5-1.5s-0.671-1.5-1.5-1.5H28.981c-5.641,0-10.231-4.589-10.231-10.23s4.589-10.23,10.231-10.23h198.728
				c5.641,0,10.23,4.589,10.23,10.23s-4.589,10.23-10.23,10.23h-31.902c-0.829,0-1.5,0.671-1.5,1.5s0.671,1.5,1.5,1.5h31.902
				c7.295,0,13.23-5.935,13.23-13.23S235.005,155.816,227.709,155.816z"/>
		</g>
	</g>
	<g>
		<g>
			<rect x="203.92" y="41.51" class="st6" width="15" height="114.31"/>
		</g>
	</g>
	<g>
		<g>
			<path class="st0" d="M190.144,75.028c-0.56-0.611-1.508-0.653-2.119-0.094l-31.283,28.641l-28.757-15.797
				c-0.597-0.328-1.342-0.212-1.811,0.283l-29.451,31.087L67.47,100.873c-0.703-0.439-1.628-0.225-2.067,0.477
				c-0.439,0.703-0.226,1.628,0.477,2.067l30.293,18.925c0.246,0.153,0.521,0.228,0.794,0.228c0.401,0,0.798-0.161,1.089-0.468
				l29.498-31.137l28.685,15.757c0.564,0.31,1.261,0.226,1.735-0.208l32.076-29.367C190.662,76.587,190.703,75.639,190.144,75.028z"
				/>
		</g>
	</g>
	<g>
		<g>
			<circle class="st3" cx="97.348" cy="121.07" r="8.551"/>
		</g>
	</g>
	<g>
		<g>
			<path class="st0" d="M97.348,111.019c-5.542,0-10.051,4.509-10.051,10.051s4.509,10.051,10.051,10.051
				c5.542,0,10.051-4.509,10.051-10.051S102.89,111.019,97.348,111.019z M97.348,128.121c-3.888,0-7.051-3.163-7.051-7.051
				s3.163-7.051,7.051-7.051s7.051,3.163,7.051,7.051S101.235,128.121,97.348,128.121z"/>
		</g>
	</g>
	<g>
		<g>
			
				<ellipse transform="matrix(0.9871 -0.1602 0.1602 0.9871 -12.6426 21.5565)" class="st16" cx="127.385" cy="89.195" rx="8.551" ry="8.551"/>
		</g>
	</g>
	<g>
		<g>
			<path class="st0" d="M127.385,79.145c-5.542,0-10.051,4.509-10.051,10.051s4.509,10.051,10.051,10.051
				c5.542,0,10.051-4.509,10.051-10.051S132.927,79.145,127.385,79.145z M127.385,96.246c-3.888,0-7.051-3.163-7.051-7.051
				s3.163-7.051,7.051-7.051s7.051,3.163,7.051,7.051S131.272,96.246,127.385,96.246z"/>
		</g>
	</g>
	<g>
		<g>
			<path class="st3" d="M156.961,96.792c-4.723,0-8.551,3.828-8.551,8.551c0,4.723,3.828,8.551,8.551,8.551
				c4.722,0,8.551-3.828,8.551-8.551C165.512,100.62,161.684,96.792,156.961,96.792z"/>
		</g>
	</g>
	<g>
		<g>
			<path class="st0" d="M156.961,95.292c-5.542,0-10.051,4.509-10.051,10.051s4.509,10.051,10.051,10.051
				c5.542,0,10.051-4.509,10.051-10.051S162.503,95.292,156.961,95.292z M156.961,112.394c-3.888,0-7.051-3.163-7.051-7.051
				s3.163-7.051,7.051-7.051s7.051,3.163,7.051,7.051S160.849,112.394,156.961,112.394z"/>
		</g>
	</g>
	<g>
		<g>
			<circle class="st16" cx="189.038" cy="76.041" r="8.551"/>
		</g>
	</g>
	<g>
		<g>
			<path class="st0" d="M189.038,65.99c-5.542,0-10.051,4.509-10.051,10.051s4.509,10.051,10.051,10.051s10.051-4.509,10.051-10.051
				S194.58,65.99,189.038,65.99z M189.038,83.091c-3.888,0-7.051-3.163-7.051-7.051s3.163-7.051,7.051-7.051
				s7.051,3.163,7.051,7.051S192.925,83.091,189.038,83.091z"/>
		</g>
	</g>
	<g>
		<g>
			
				<ellipse transform="matrix(0.0985 -0.9951 0.9951 0.0985 -41.619 158.5002)" class="st16" cx="66.675" cy="102.222" rx="8.551" ry="8.551"/>
		</g>
	</g>
	<g>
		<g>
			<path class="st0" d="M66.675,92.171c-5.542,0-10.051,4.509-10.051,10.051s4.509,10.051,10.051,10.051s10.051-4.509,10.051-10.051
				S72.217,92.171,66.675,92.171z M66.675,109.273c-3.888,0-7.051-3.163-7.051-7.051s3.163-7.051,7.051-7.051
				s7.051,3.163,7.051,7.051S70.563,109.273,66.675,109.273z"/>
		</g>
	</g>
	<g>
		<g>
			<path class="st13" d="M227.71,18.05h-15c5.64,0,10.23,4.59,10.23,10.23s-4.59,10.23-10.23,10.23h15
				c5.64,0,10.23-4.59,10.23-10.23S233.35,18.05,227.71,18.05z"/>
		</g>
	</g>
	<g>
		<g>
			<path class="st13" d="M227.71,158.82h-15c5.64,0,10.23,4.59,10.23,10.23s-4.59,10.23-10.23,10.23h15
				c5.64,0,10.23-4.59,10.23-10.23S233.35,158.82,227.71,158.82z"/>
		</g>
	</g>
	<g>
		<g>
			<path class="st23" d="M27.42,94.665c-0.315-2.055-1.994-3.734-4.049-4.049c-3.298-0.505-6.097,2.294-5.592,5.592
				c0.315,2.055,1.994,3.735,4.049,4.049C25.126,100.762,27.925,97.962,27.42,94.665z"/>
		</g>
	</g>
	<g>
		<g>
			<path class="st0" d="M28.903,94.438c-0.414-2.708-2.596-4.89-5.305-5.305c-2.052-0.313-4.058,0.34-5.51,1.792
				c-1.452,1.453-2.105,3.46-1.792,5.509c0.414,2.709,2.596,4.891,5.305,5.305c0.337,0.051,0.673,0.077,1.006,0.077
				c1.689,0,3.29-0.656,4.504-1.869C28.563,98.495,29.216,96.486,28.903,94.438z M24.989,97.826
				c-0.771,0.771-1.842,1.114-2.935,0.948c-1.404-0.215-2.578-1.39-2.793-2.793c-0.168-1.095,0.178-2.164,0.948-2.934
				c0.643-0.643,1.494-0.989,2.394-0.989c0.179,0,0.36,0.014,0.541,0.042c1.404,0.215,2.578,1.389,2.793,2.793
				C26.105,95.986,25.759,97.056,24.989,97.826z"/>
		</g>
	</g>
	<g>
		<g>
			<path class="st23" d="M70.013,94.665c-0.315-2.055-1.994-3.734-4.049-4.049c-3.298-0.505-6.097,2.294-5.592,5.592
				c0.315,2.055,1.994,3.735,4.049,4.049C67.718,100.762,70.518,97.962,70.013,94.665z"/>
		</g>
	</g>
	<g>
		<g>
			<path class="st0" d="M71.496,94.438c-0.414-2.708-2.596-4.89-5.305-5.305c-2.048-0.312-4.057,0.34-5.51,1.792
				c-1.453,1.453-2.106,3.461-1.793,5.51c0.415,2.709,2.596,4.891,5.305,5.305c0.337,0.051,0.673,0.077,1.006,0.077
				c1.688,0,3.29-0.656,4.503-1.869C71.156,98.495,71.809,96.487,71.496,94.438z M67.581,97.827
				c-0.769,0.769-1.838,1.115-2.934,0.947c-1.404-0.215-2.578-1.39-2.793-2.793c-0.168-1.095,0.178-2.165,0.948-2.935
				c0.643-0.642,1.493-0.989,2.393-0.989c0.179,0,0.36,0.014,0.542,0.042c1.404,0.215,2.579,1.39,2.793,2.793
				C68.698,95.987,68.352,97.056,67.581,97.827z"/>
		</g>
	</g>
	<g>
		<g>
			<path class="st4" d="M66.535,81.586c0-5.752-2.374-10.973-6.237-14.824c0.234,0.671,0.358,1.349,0.358,2.02
				c0,2.271-1.564,4.345-4.139,5.917c0.535,0.889,1.201,1.703,1.983,2.419c3.917,3.58,6.505,8.583,6.957,14.187
				c0.058-0.078,0.185-0.119,0.284-0.156C66.667,90.81,66.535,82.326,66.535,81.586z"/>
		</g>
	</g>
	<g>
		<g>
			<path class="st0" d="M68.037,81.841l-0.001-0.255c0-5.952-2.372-11.594-6.679-15.887c-0.496-0.493-1.267-0.581-1.858-0.207
				c-0.592,0.373-0.848,1.105-0.616,1.765c0.182,0.518,0.273,1.031,0.273,1.524c0,1.644-1.215,3.29-3.42,4.636
				c-0.704,0.43-0.929,1.347-0.504,2.054c0.611,1.016,1.37,1.941,2.256,2.753c3.765,3.441,6.064,8.129,6.474,13.2
				c0.05,0.624,0.482,1.151,1.084,1.322c0.136,0.039,0.274,0.057,0.411,0.057c0.308,0,0.608-0.095,0.859-0.271
				C67.429,92.108,68.104,91.222,68.037,81.841z M65.039,83.666c-1.28-2.875-3.149-5.481-5.526-7.654
				c-0.321-0.294-0.621-0.608-0.896-0.939c1.571-1.219,2.65-2.632,3.174-4.146c2.111,3.164,3.244,6.84,3.244,10.66l0.001,0.277
				C65.042,82.512,65.042,83.111,65.039,83.666z"/>
		</g>
	</g>
	<g>
		<g>
			<path class="st21" d="M58.5,77.113c-0.782-0.712-1.448-1.526-1.983-2.411c-3.012,1.844-7.414,3.008-12.319,3.008
				c-1.164,0-2.3-0.066-3.398-0.193c-7.883-0.897-15.441,3.806-17.939,11.339c-0.243,0.724-0.411,1.419-0.49,2.065
				c-0.012,0.091-0.021,0.181-0.029,0.271c-0.049,0.617-0.078,1.242-0.078,1.876c0,11.944,11.965,30.286,21.634,30.286
				c10.126,0,21.629-18.342,21.629-30.286C65.527,86.749,62.82,81.067,58.5,77.113z"/>
		</g>
	</g>
	<g>
		<g>
			<path class="st0" d="M59.509,76.004c-0.668-0.608-1.243-1.307-1.709-2.078c-0.206-0.342-0.541-0.587-0.929-0.682
				c-0.387-0.094-0.797-0.031-1.138,0.178c-2.894,1.771-7.099,2.787-11.536,2.787c-1.091,0-2.177-0.062-3.229-0.184
				c-8.62-0.978-16.833,4.217-19.531,12.353c-0.281,0.838-0.468,1.633-0.552,2.333c-0.017,0.117-0.028,0.234-0.039,0.36
				c-0.056,0.696-0.083,1.349-0.083,1.997c0,12.551,12.408,31.786,23.134,31.786c10.946,0,23.129-18.946,23.129-31.786
				C67.027,86.597,64.288,80.377,59.509,76.004z M43.898,121.855c-8.279,0-20.134-16.949-20.134-28.786
				c0-0.566,0.024-1.141,0.073-1.747c0.005-0.064,0.011-0.128,0.023-0.221c0.064-0.528,0.206-1.123,0.424-1.773
				c2.072-6.25,8.043-10.421,14.593-10.421c0.579,0,1.164,0.033,1.749,0.1c1.163,0.135,2.365,0.203,3.571,0.203
				c4.386,0,8.618-0.915,11.856-2.538c0.432,0.555,0.912,1.073,1.433,1.548c4.156,3.804,6.54,9.216,6.54,14.85
				C64.027,104.175,53.036,121.855,43.898,121.855z"/>
		</g>
	</g>
	<g>
		<g>
			<path class="st0" d="M38.306,92.298c-0.178-0.739-0.784-1.345-1.523-1.523c-1.572-0.379-2.953,1.002-2.573,2.574
				c0.178,0.739,0.784,1.344,1.523,1.522C37.305,95.25,38.685,93.87,38.306,92.298z"/>
		</g>
	</g>
	<g>
		<g>
			<path class="st0" d="M53.582,92.298c-0.178-0.739-0.784-1.344-1.523-1.523c-1.572-0.379-2.953,1.002-2.573,2.574
				c0.178,0.739,0.784,1.344,1.523,1.522C52.581,95.25,53.961,93.87,53.582,92.298z"/>
		</g>
	</g>
	<g>
		<g>
			<path class="st19" d="M32.038,96.382c-2.009,0-3.637,1.217-3.637,2.719s1.629,2.719,3.637,2.719c2.009,0,3.637-1.218,3.637-2.719
				S34.047,96.382,32.038,96.382z"/>
		</g>
	</g>
	<g>
		<g>
			<path class="st19" d="M55.753,96.382c-2.009,0-3.637,1.217-3.637,2.719s1.628,2.719,3.637,2.719c2.009,0,3.637-1.218,3.637-2.719
				S57.762,96.382,55.753,96.382z"/>
		</g>
	</g>
	<g>
		<g>
			<path class="st0" d="M50.398,105.489c-0.777-0.292-1.641,0.103-1.931,0.879c-0.413,1.104-1.972,2.747-4.573,2.747
				c-2.224,0-3.692-0.911-4.623-2.866c-0.357-0.747-1.25-1.064-1.999-0.709c-0.748,0.356-1.066,1.251-0.71,2
				c1.425,2.993,3.961,4.576,7.332,4.576c3.865,0,6.536-2.434,7.382-4.695C51.568,106.644,51.174,105.78,50.398,105.489z"/>
		</g>
	</g>
	<g>
		<g>
			<path class="st0" d="M43.544,90.919c-0.695-3.667-3.625-6.598-7.292-7.292c-3.057-0.579-6.177,0.371-8.348,2.542
				s-3.122,5.292-2.542,8.348c0.695,3.667,3.626,6.598,7.293,7.293c0.59,0.112,1.183,0.167,1.771,0.167
				c2.455,0,4.825-0.957,6.577-2.708C43.173,97.096,44.123,93.975,43.544,90.919z M38.88,97.146
				c-1.491,1.491-3.555,2.116-5.668,1.716c-2.466-0.467-4.437-2.438-4.904-4.904c-0.4-2.111,0.225-4.177,1.716-5.667
				c1.196-1.196,2.761-1.834,4.422-1.834c0.411,0,0.828,0.039,1.246,0.118c2.466,0.467,4.437,2.438,4.904,4.904
				C40.997,93.589,40.371,95.655,38.88,97.146z"/>
		</g>
	</g>
	<g>
		<g>
			<path class="st0" d="M62.928,90.919c-0.695-3.667-3.626-6.598-7.293-7.292c-3.056-0.58-6.176,0.371-8.348,2.542
				c-2.171,2.171-3.122,5.292-2.542,8.348c0.695,3.667,3.625,6.598,7.292,7.292c0.59,0.112,1.183,0.167,1.771,0.167
				c2.456,0,4.826-0.958,6.578-2.709C62.557,97.096,63.507,93.975,62.928,90.919z M58.264,97.146
				c-1.49,1.491-3.554,2.116-5.668,1.716c-2.466-0.467-4.437-2.438-4.904-4.904c-0.4-2.111,0.226-4.178,1.716-5.668
				c1.195-1.195,2.76-1.834,4.422-1.834c0.411,0,0.827,0.039,1.246,0.118c2.466,0.467,4.437,2.438,4.904,4.904
				C60.38,93.589,59.755,95.655,58.264,97.146z"/>
		</g>
	</g>
	<g>
		<g>
			<path class="st0" d="M46.074,91.202h-3.859c-0.829,0-1.5,0.671-1.5,1.5s0.671,1.5,1.5,1.5h3.859c0.829,0,1.5-0.671,1.5-1.5
				S46.903,91.202,46.074,91.202z"/>
		</g>
	</g>
	<g>
		<g>
			<path class="st0" d="M27.047,89.483l-4.481-0.452c-0.818-0.084-1.56,0.517-1.643,1.342c-0.083,0.824,0.518,1.56,1.342,1.643
				l4.48,0.452c0.051,0.005,0.102,0.008,0.152,0.008c0.761,0,1.413-0.576,1.49-1.35C28.473,90.301,27.872,89.566,27.047,89.483z"/>
		</g>
	</g>
	<g>
		<g>
			<path class="st0" d="M66.87,90.323c-0.098-0.823-0.848-1.414-1.667-1.312l-3.984,0.475c-0.823,0.098-1.41,0.844-1.312,1.667
				c0.091,0.763,0.738,1.323,1.487,1.323c0.059,0,0.119-0.003,0.179-0.011l3.984-0.475C66.381,91.892,66.968,91.146,66.87,90.323z"
				/>
		</g>
	</g>
	<g>
		<g>
			<path class="st4" d="M45.943,58.074c-7.317-0.458-13.79,2.926-16.955,5.984c-4.778,3.925-7.234,11.032-7.234,17.527
				c0,1.187,0.209,7.939,0.589,9.61c0.07-0.815,0.295-1.716,0.632-2.664c2.608-7.347,10.09-11.892,17.837-11.011
				c1.093,0.125,2.226,0.19,3.387,0.19c9.089,0,16.457-3.996,16.457-8.926S53.922,58.572,45.943,58.074z"/>
		</g>
	</g>
	<g>
		<g>
			<path class="st0" d="M46.037,56.577c-7.413-0.468-14.391,2.854-18.047,6.36c-4.773,3.952-7.736,11.09-7.736,18.647
				c0,0.984,0.189,8.014,0.626,9.942c0.156,0.687,0.767,1.168,1.462,1.168c0.035,0,0.07-0.001,0.104-0.003
				c0.738-0.051,1.329-0.632,1.391-1.37c0.055-0.646,0.24-1.416,0.55-2.289c2.348-6.611,9.186-10.82,16.253-10.023
				c1.16,0.132,2.357,0.199,3.557,0.199c10.069,0,17.957-4.579,17.957-10.425C62.154,62.817,54.623,57.113,46.037,56.577z
				 M44.197,76.208c-1.087,0-2.17-0.061-3.218-0.18c-7.071-0.805-13.954,2.607-17.651,8.388c-0.049-1.283-0.076-2.371-0.076-2.832
				c0-6.605,2.625-13.03,6.687-16.368c0.031-0.026,0.061-0.053,0.09-0.081c2.97-2.87,8.528-5.604,14.583-5.604
				c0.41,0,0.823,0.013,1.236,0.039c7.493,0.468,13.305,5.336,13.305,9.212C59.154,72.808,52.305,76.208,44.197,76.208z"/>
		</g>
	</g>
	<g>
		<g>
			<path class="st0" d="M146.713,99.254c-0.475-0.678-1.409-0.843-2.089-0.368l-42.941,30.085c-0.678,0.476-0.843,1.411-0.368,2.089
				c0.292,0.417,0.757,0.639,1.23,0.639c0.297,0,0.597-0.088,0.859-0.271l42.941-30.085
				C147.024,100.868,147.188,99.933,146.713,99.254z"/>
		</g>
	</g>
	<g>
		<g>
			<path class="st4" d="M43.976,227.425l-13.751,0.027l0.011,5.777c0.007,3.442,2.803,6.227,6.245,6.22l1.277-0.002
				c3.45-0.007,6.235-2.803,6.229-6.245L43.976,227.425z"/>
		</g>
	</g>
	<g>
		<g>
			<path class="st0" d="M45.477,227.422c-0.001-0.398-0.16-0.779-0.441-1.06c-0.281-0.28-0.662-0.437-1.059-0.437h-0.003
				l-13.751,0.027c-0.829,0.001-1.499,0.674-1.497,1.503l0.011,5.777c0.004,2.065,0.813,4.005,2.276,5.463
				c1.46,1.454,3.397,2.254,5.457,2.254h0.016l1.278-0.002c2.068-0.004,4.011-0.812,5.47-2.275c1.459-1.463,2.26-3.407,2.256-5.473
				L45.477,227.422z M41.107,236.554c-0.894,0.896-2.084,1.391-3.351,1.394l-1.278,0.002h-0.01c-2.605,0-4.727-2.117-4.733-4.723
				l-0.008-4.277l10.751-0.021l0.008,4.277C42.49,234.47,42,235.659,41.107,236.554z"/>
		</g>
	</g>
	<g>
		<g>
			<path class="st4" d="M57.72,227.398l-13.743,0.027l0.011,5.777c0.007,3.442,2.803,6.227,6.245,6.22l1.277-0.002
				c3.442-0.007,6.227-2.803,6.221-6.245L57.72,227.398z"/>
		</g>
	</g>
	<g>
		<g>
			<path class="st0" d="M59.22,227.396c-0.001-0.398-0.16-0.779-0.441-1.06c-0.281-0.28-0.662-0.438-1.059-0.438h-0.003
				l-13.743,0.027c-0.829,0.001-1.498,0.674-1.497,1.503l0.011,5.777c0.004,2.065,0.813,4.006,2.276,5.463
				c1.46,1.454,3.397,2.254,5.457,2.254h0.016l1.277-0.003c2.065-0.004,4.005-0.812,5.463-2.276
				c1.458-1.463,2.258-3.407,2.254-5.472L59.22,227.396z M54.851,236.528c-0.892,0.896-2.08,1.39-3.344,1.393l-1.277,0.003h-0.01
				c-2.605,0-4.727-2.117-4.732-4.724l-0.008-4.277l10.743-0.021l0.008,4.277C56.233,234.442,55.744,235.632,54.851,236.528z"/>
		</g>
	</g>
	<g>
		<g>
			<rect x="26.661" y="173.676" transform="matrix(1 -0.002 0.002 1 -0.3948 0.0872)" class="st7" width="34.846" height="53.752"/>
		</g>
	</g>
	<g>
		<g>
			<path class="st0" d="M62.953,173.639c-0.001-0.828-0.673-1.497-1.5-1.497H61.45l-34.845,0.068
				c-0.398,0.001-0.779,0.16-1.06,0.441c-0.28,0.282-0.438,0.664-0.437,1.062l0.106,53.752c0.001,0.398,0.16,0.779,0.441,1.06
				c0.281,0.28,0.662,0.437,1.059,0.437h0.003l34.845-0.069c0.829-0.001,1.498-0.674,1.497-1.503L62.953,173.639z M28.211,225.96
				l-0.1-50.752l31.845-0.063l0.1,50.752L28.211,225.96z"/>
		</g>
	</g>
	<g>
		<g>
			<path class="st0" d="M45.365,173.674c-0.001-0.828-0.673-1.497-1.5-1.497h-0.003c-0.829,0.001-1.499,0.674-1.497,1.503
				l0.106,53.752c0.001,0.828,0.673,1.497,1.5,1.497h0.003c0.829-0.001,1.499-0.674,1.497-1.503L45.365,173.674z"/>
		</g>
	</g>
	<g>
		<g>
			<path class="st8" d="M61.36,126.06c-0.767-0.147-1.567-0.228-2.383-0.226l-8.17,0.016l-0.01-4.979
				c-2.256,1.563-4.579,2.482-6.846,2.487c-2.234,0.004-4.594-0.972-6.897-2.625l0.01,5.144l-8.162,0.016
				c-1.278,0.003-2.514,0.203-3.676,0.568c-1.549,0.481-2.965,1.259-4.184,2.275c-2.741,2.281-4.49,5.714-4.483,9.556l0.07,35.442
				l44.824-0.088L61.36,126.06z"/>
		</g>
	</g>
	<g>
		<g>
			<path class="st0" d="M62.859,126.057c-0.001-0.718-0.512-1.335-1.218-1.47c-0.884-0.169-1.782-0.274-2.668-0.253l-6.67,0.013
				l-0.007-3.479c-0.001-0.558-0.311-1.068-0.805-1.327c-0.494-0.257-1.091-0.221-1.549,0.097c-2.122,1.469-4.139,2.216-5.995,2.22
				c-1.807,0.042-3.878-0.807-6.021-2.343c-0.458-0.329-1.061-0.372-1.56-0.115c-0.5,0.258-0.815,0.774-0.813,1.337l0.007,3.644
				l-6.662,0.013c-1.399,0.002-2.786,0.217-4.118,0.636c-1.729,0.537-3.31,1.396-4.698,2.555c-3.201,2.664-5.031,6.568-5.023,10.712
				l0.07,35.441c0.001,0.398,0.16,0.779,0.441,1.06c0.281,0.28,0.662,0.437,1.059,0.437h0.003l44.824-0.088
				c0.398-0.001,0.779-0.16,1.06-0.441c0.28-0.282,0.438-0.664,0.437-1.062L62.859,126.057z M18.127,172.231L18.06,138.29
				c-0.007-3.248,1.43-6.31,3.943-8.401c1.084-0.904,2.318-1.575,3.672-1.996c1.047-0.33,2.134-0.498,3.229-0.5l8.162-0.016
				c0.398-0.001,0.779-0.16,1.06-0.441c0.281-0.282,0.438-0.664,0.437-1.062l-0.005-2.453c1.85,0.954,3.65,1.436,5.377,1.436h0.018
				c1.735-0.003,3.526-0.459,5.349-1.359l0.004,2.354c0.001,0.398,0.16,0.779,0.441,1.06c0.281,0.28,0.662,0.437,1.059,0.437h0.003
				l8.17-0.016c0.293-0.003,0.587,0.011,0.882,0.035l0.089,44.78L18.127,172.231z"/>
		</g>
	</g>
	<g>
		<g>
			
				<rect x="43.96" y="133.827" transform="matrix(0.5566 -0.8308 0.8308 0.5566 -91.6957 95.875)" class="st4" width="0.026" height="0.032"/>
		</g>
	</g>
	<g>
		<g>
			<path class="st0" d="M45.019,132.749c-0.318-0.311-0.764-0.454-1.207-0.409c-0.442,0.044-0.851,0.294-1.1,0.662
				c-0.225,0.331-0.296,0.746-0.22,1.139c0.077,0.393,0.32,0.747,0.653,0.969c0.254,0.169,0.543,0.252,0.832,0.252
				c0.387,0,0.771-0.149,1.061-0.439l0.017-0.017c0.283-0.283,0.429-0.68,0.427-1.08C45.479,133.425,45.305,133.029,45.019,132.749z
				"/>
		</g>
	</g>
	<g>
		<g>
			
				<rect x="43.96" y="133.827" transform="matrix(0.5566 -0.8308 0.8308 0.5566 -91.6957 95.875)" class="st7" width="0.026" height="0.032"/>
		</g>
	</g>
	<g>
		<g>
			<path class="st0" d="M45.019,132.749c-0.318-0.311-0.764-0.454-1.207-0.409c-0.442,0.044-0.851,0.294-1.1,0.662
				c-0.225,0.331-0.296,0.746-0.22,1.139c0.077,0.393,0.32,0.747,0.653,0.969c0.254,0.169,0.543,0.252,0.832,0.252
				c0.387,0,0.771-0.149,1.061-0.439l0.017-0.017c0.283-0.283,0.429-0.68,0.427-1.08C45.479,133.425,45.305,133.029,45.019,132.749z
				"/>
		</g>
	</g>
	<g>
		<g>
			
				<rect x="43.96" y="133.827" transform="matrix(0.5566 -0.8308 0.8308 0.5566 -91.6957 95.875)" class="st7" width="0.026" height="0.032"/>
		</g>
	</g>
	<g>
		<g>
			<path class="st0" d="M45.044,132.773l-0.025-0.024c-0.318-0.311-0.764-0.454-1.207-0.409c-0.442,0.044-0.851,0.294-1.1,0.662
				c-0.225,0.331-0.296,0.746-0.22,1.139c0.077,0.393,0.32,0.747,0.653,0.969c0.249,0.166,0.534,0.246,0.82,0.246
				c0.398,0,0.795-0.155,1.089-0.45c0.283-0.283,0.441-0.667,0.44-1.068C45.492,133.437,45.33,133.054,45.044,132.773z"/>
		</g>
	</g>
	<g>
		<g>
			<path class="st8" d="M26.608,173.71l-9.976,0.02l0.01,4.988c0.005,2.755,2.243,4.984,4.998,4.979
				c2.755-0.006,4.984-2.243,4.978-4.998L26.608,173.71z"/>
		</g>
	</g>
	<g>
		<g>
			<path class="st0" d="M28.108,173.707c-0.001-0.398-0.16-0.779-0.441-1.06c-0.281-0.28-0.662-0.437-1.059-0.437h-0.003
				l-9.977,0.02c-0.398,0.001-0.779,0.16-1.06,0.441c-0.281,0.282-0.438,0.664-0.437,1.062l0.01,4.988
				c0.003,1.733,0.682,3.361,1.909,4.584c1.225,1.22,2.851,1.892,4.579,1.892h0.013c3.577-0.007,6.482-2.923,6.475-6.501
				L28.108,173.707z M21.637,182.196c-0.954,0.032-1.808-0.359-2.469-1.017c-0.66-0.657-1.024-1.533-1.026-2.464l-0.007-3.488
				l6.977-0.014l0.007,3.488C25.122,180.625,23.56,182.192,21.637,182.196z"/>
		</g>
	</g>
	<g>
		<g>
			<path class="st4" d="M97.958,135.766l-0.019-9.901l-41.13-0.018l0.025,0.016l-8.469,11.286l-4.384-3.289l-4.388,3.306
				l-8.514-11.253l0.025-0.017l-2.201,0.004c-1.278,0.002-2.514,0.203-3.676,0.56c-1.549,0.489-2.965,1.267-4.184,2.275
				c-2.741,2.281-4.49,5.714-4.483,9.556l0.07,35.442l44.824-0.088l-0.075-37.808L97.958,135.766z"/>
		</g>
	</g>
	<g>
		<g>
			<path class="st0" d="M99.438,125.861c-0.001-0.827-0.672-1.497-1.499-1.497l-41.13-0.018h0c-0.558,0-1.051,0.314-1.307,0.792
				l-7.437,9.911l-3.184-2.389c-0.535-0.401-1.27-0.401-1.803,0.002l-3.192,2.405l-7.429-9.819c-0.247-0.514-0.77-0.851-1.353-0.851
				c-0.001,0-0.002,0-0.003,0l-2.201,0.004c-1.387,0.002-2.771,0.213-4.124,0.629c-1.724,0.544-3.301,1.402-4.691,2.552
				c-3.201,2.664-5.031,6.568-5.023,10.712l0.07,35.441c0.001,0.398,0.16,0.779,0.441,1.06c0.281,0.28,0.662,0.437,1.059,0.437
				c0.001,0,0.002,0,0.003,0l44.824-0.088c0.398-0.001,0.779-0.16,1.06-0.441c0.28-0.282,0.438-0.664,0.437-1.062l-0.072-36.308
				l35.079-0.069c0.829-0.001,1.499-0.674,1.497-1.503L99.438,125.861z M61.376,134.338c-0.398,0.001-0.779,0.16-1.06,0.441
				c-0.281,0.282-0.438,0.664-0.437,1.062l0.072,36.308l-41.824,0.083L18.06,138.29c-0.007-3.248,1.43-6.31,3.938-8.397
				c1.087-0.899,2.326-1.573,3.668-1.997c1.059-0.326,2.148-0.492,3.238-0.494l1.416-0.003l8.075,10.673
				c0.5,0.661,1.438,0.792,2.099,0.293l3.487-2.627l3.482,2.612c0.661,0.498,1.603,0.363,2.1-0.299l8.031-10.703l38.847,0.017
				l0.014,6.905L61.376,134.338z"/>
		</g>
	</g>
	<g>
		<g>
			<path class="st8" d="M102.828,125.863l-4.889,0.001l0.019,9.901l4.889-0.01c2.729-0.005,4.942-2.227,4.937-4.956
				C107.778,128.071,105.556,125.857,102.828,125.863z"/>
		</g>
	</g>
	<g>
		<g>
			<path class="st0" d="M107.385,126.243c-1.217-1.213-2.832-1.88-4.545-1.88h-0.013l-4.889,0.001c-0.398,0-0.78,0.159-1.062,0.44
				c-0.281,0.282-0.439,0.664-0.438,1.063l0.02,9.901c0.001,0.398,0.16,0.779,0.441,1.06c0.281,0.28,0.662,0.437,1.059,0.437h0.003
				l4.889-0.01c1.72-0.003,3.337-0.678,4.553-1.898c1.216-1.221,1.884-2.84,1.88-4.561
				C109.28,129.076,108.606,127.459,107.385,126.243z M105.278,133.24c-0.65,0.653-1.515,1.014-2.434,1.016l-3.389,0.007
				l-0.014-6.899l3.389-0.001h0.007c0.917,0,1.78,0.357,2.431,1.006c0.653,0.65,1.014,1.515,1.016,2.434
				C106.286,131.722,105.928,132.587,105.278,133.24z"/>
		</g>
	</g>
	<g>
		<g>
			<path class="st0" d="M28.042,140.618c-0.001-0.828-0.673-1.497-1.5-1.497H26.54c-0.829,0.001-1.499,0.674-1.497,1.503
				l0.065,33.09c0.001,0.828,0.673,1.497,1.5,1.497h0.003c0.829-0.001,1.499-0.674,1.497-1.503L28.042,140.618z"/>
		</g>
	</g>
	<g>
		<g>
			<polygon class="st12" points="46.492,142.643 41.406,142.653 38.294,163.094 44.002,169.556 49.676,163.072 			"/>
		</g>
	</g>
	<g>
		<g>
			<path class="st0" d="M51.158,162.841l-3.185-20.429c-0.114-0.73-0.743-1.269-1.482-1.269h-0.003l-5.085,0.01
				c-0.74,0.001-1.369,0.542-1.48,1.274l-3.112,20.441c-0.067,0.439,0.065,0.886,0.359,1.219l5.708,6.462
				c0.285,0.322,0.694,0.507,1.124,0.507h0.003c0.432-0.001,0.841-0.188,1.126-0.512l5.674-6.485
				C51.097,163.726,51.227,163.279,51.158,162.841z M43.997,167.285l-4.114-4.658l2.813-18.476l2.513-0.005l2.878,18.465
				L43.997,167.285z"/>
		</g>
	</g>
	<g>
		<g>
			<polygon class="st12" points="39.674,133.85 41.41,142.653 46.485,142.643 48.227,133.833 			"/>
		</g>
	</g>
	<g>
		<g>
			<path class="st0" d="M49.386,132.879c-0.285-0.346-0.71-0.546-1.158-0.546h-0.003l-8.554,0.017
				c-0.448,0.001-0.873,0.202-1.157,0.549c-0.284,0.346-0.399,0.802-0.312,1.241l1.736,8.803c0.139,0.703,0.755,1.21,1.472,1.21
				h0.003l5.075-0.01c0.715-0.001,1.33-0.507,1.469-1.209l1.743-8.811C49.786,133.683,49.671,133.227,49.386,132.879z
				 M45.252,141.146l-2.609,0.005l-1.145-5.804l4.903-0.01L45.252,141.146z"/>
		</g>
	</g>
	<g>
		<g>
			
				<rect x="34.776" y="122.821" transform="matrix(0.7974 -0.6034 0.6034 0.7974 -70.7668 48.9574)" class="st7" width="5.513" height="14.113"/>
		</g>
	</g>
	<g>
		<g>
			<path class="st0" d="M45.185,132.936l-8.516-11.254c-0.24-0.317-0.597-0.526-0.991-0.581c-0.392-0.053-0.793,0.05-1.111,0.29
				l-4.396,3.327c-0.661,0.5-0.79,1.441-0.291,2.102l8.516,11.254c0.24,0.317,0.597,0.526,0.991,0.581
				c0.068,0.009,0.137,0.014,0.206,0.014c0.325,0,0.643-0.105,0.905-0.304l4.396-3.327
				C45.555,134.538,45.685,133.597,45.185,132.936z M39.884,135.067l-6.706-8.862l2.004-1.517l6.706,8.862L39.884,135.067z"/>
		</g>
	</g>
	<g>
		<g>
			
				<rect x="43.338" y="127.096" transform="matrix(0.6003 -0.7998 0.7998 0.6003 -83.7106 92.2088)" class="st7" width="14.113" height="5.513"/>
		</g>
	</g>
	<g>
		<g>
			<path class="st0" d="M58.32,125.652c-0.056-0.394-0.266-0.75-0.585-0.988l-4.41-3.31c-0.663-0.497-1.602-0.363-2.1,0.299
				l-8.472,11.288c-0.239,0.318-0.341,0.718-0.285,1.112c0.056,0.394,0.266,0.75,0.584,0.988l4.41,3.31
				c0.27,0.203,0.586,0.3,0.899,0.3c0.456,0,0.906-0.207,1.201-0.6l8.472-11.288C58.274,126.445,58.376,126.045,58.32,125.652z
				 M48.064,135.051l-2.01-1.509l6.671-8.888l2.01,1.509L48.064,135.051z"/>
		</g>
	</g>
</g>
</svg>
