<?xml version="1.0" encoding="utf-8"?>
<!-- Generator: Adobe Illustrator 22.0.1, SVG Export Plug-In . SVG Version: 6.00 Build 0)  -->
<svg version="1.1" id="Layer_1" xmlns="http://www.w3.org/2000/svg" xmlns:xlink="http://www.w3.org/1999/xlink" x="0px" y="0px"
	 viewBox="0 0 256 256" style="enable-background:new 0 0 256 256;" xml:space="preserve">
<style type="text/css">
	.st0{fill:#3A312A;}
	.st1{fill:#8AC6DD;}
	.st2{fill:#F16C7A;}
	.st3{fill:#D7E057;}
	.st4{fill:#87796F;}
	.st5{fill:#FCE8CB;}
	.st6{fill:#DECAAD;}
	.st7{fill:#D6DF58;}
	.st8{fill:#FAE6CA;}
	.st9{fill:#DDC9AC;}
	.st10{fill:#D5DE58;}
	.st11{fill:#ED6E7A;}
	.st12{fill:#8AC5DC;}
	.st13{fill:#6CA8BF;}
	.st14{fill:#695B51;}
	.st15{fill:#F8E4C8;}
	.st16{fill:#EF6D7A;}
	.st17{fill-rule:evenodd;clip-rule:evenodd;fill:#F8E4C8;}
	.st18{fill:#89C4DB;}
	.st19{fill:#F59689;}
	.st20{fill:#D34E5C;}
	.st21{fill:#F7E3C7;}
	.st22{fill:#8AC3DA;}
	.st23{fill-rule:evenodd;clip-rule:evenodd;fill:#F7E3C7;}
	.st24{fill-rule:evenodd;clip-rule:evenodd;fill:#87796F;}
	.st25{fill:#B9C239;}
	.st26{fill:#D4DB56;}
	.st27{fill-rule:evenodd;clip-rule:evenodd;fill:#F16C7A;}
	.st28{fill-rule:evenodd;clip-rule:evenodd;fill:#F6E2C6;}
	.st29{fill:#F6E2C6;}
	.st30{fill-rule:evenodd;clip-rule:evenodd;fill:#FAE6CA;}
	.st31{fill:#B8C136;}
</style>
<g>
	<g>
		<g>
			<path class="st15" d="M119.952,182.085h-19.915v-12.943c-5.509,3.819-11.208,6.072-16.738,6.072
				c-5.306,0-10.904-2.275-16.389-6.139h-0.338v13.01H46.646c-16.648,0-30.142,13.494-30.142,30.142v27.315h133.591v-27.315
				C150.094,195.579,136.6,182.085,119.952,182.085z"/>
		</g>
	</g>
	<g>
		<g>
			<path class="st0" d="M119.952,180.585h-18.415v-11.443c0-0.558-0.31-1.07-0.805-1.329c-0.494-0.258-1.091-0.222-1.55,0.096
				c-5.556,3.852-10.899,5.805-15.884,5.805c-4.776,0-10-1.974-15.524-5.866c-0.253-0.178-0.555-0.274-0.864-0.274h-0.338
				c-0.828,0-1.5,0.671-1.5,1.5v11.511H46.646c-17.448,0-31.643,14.194-31.643,31.642v27.315c0,0.829,0.672,1.5,1.5,1.5H50.07
				c0.828,0,1.5-0.671,1.5-1.5s-0.672-1.5-1.5-1.5H18.003v-25.815c0-15.793,12.849-28.642,28.643-28.642h19.927
				c0.828,0,1.5-0.671,1.5-1.5v-10.43c5.313,3.359,10.427,5.059,15.227,5.059c4.879,0,9.995-1.615,15.238-4.806v10.177
				c0,0.829,0.672,1.5,1.5,1.5h19.915c15.794,0,28.643,12.849,28.643,28.642v25.815H63.804c-0.828,0-1.5,0.671-1.5,1.5
				s0.672,1.5,1.5,1.5h86.291c0.828,0,1.5-0.671,1.5-1.5v-27.315C151.595,194.779,137.4,180.585,119.952,180.585z"/>
		</g>
	</g>
	<g>
		<g>
			<path class="st3" d="M119.951,182.072h-4.763l0.121,0.097l-20.714,27.465l-10.69-8.048l-10.69,8.048l-20.714-27.465l0.121-0.097
				h-5.975c-16.653,0-30.144,13.502-30.144,30.143v27.332h133.591v-27.332C150.095,195.574,136.605,182.072,119.951,182.072z"/>
		</g>
	</g>
	<g>
		<g>
			<path class="st0" d="M119.951,180.572h-4.763c-0.636,0-1.203,0.401-1.415,1.001c-0.025,0.071-0.044,0.144-0.059,0.217
				l-19.414,25.744l-9.493-7.147c-0.535-0.402-1.27-0.402-1.805,0l-9.493,7.147l-19.414-25.742
				c-0.014-0.073-0.033-0.145-0.058-0.216c-0.211-0.602-0.778-1.004-1.416-1.004h-5.975c-17.449,0-31.645,14.195-31.645,31.644
				v27.332c0,0.829,0.672,1.5,1.5,1.5H50.07c0.828,0,1.5-0.671,1.5-1.5s-0.672-1.5-1.5-1.5H18.003v-25.832
				c0-15.794,12.85-28.644,28.645-28.644h5.033l20.337,26.965c0.499,0.661,1.438,0.792,2.1,0.295l9.788-7.369l9.788,7.369
				c0.662,0.499,1.601,0.367,2.1-0.295l20.336-26.965h3.822c15.794,0,28.644,12.85,28.644,28.644v25.832H63.804
				c-0.828,0-1.5,0.671-1.5,1.5s0.672,1.5,1.5,1.5h86.291c0.828,0,1.5-0.671,1.5-1.5v-27.332
				C151.595,194.768,137.399,180.572,119.951,180.572z"/>
		</g>
	</g>
	<g>
		<g>
			<path class="st4" d="M52.504,182.17l0.12-0.1h-5.98c-16.65,0-30.14,13.5-30.14,30.15v27.33h56.4L52.504,182.17z"/>
		</g>
	</g>
	<g>
		<g>
			<path class="st0" d="M74.316,239.047l-20.2-56.821c0.022-0.221-0.003-0.449-0.082-0.667c-0.215-0.594-0.778-0.989-1.41-0.989
				h-5.98c-17.446,0-31.64,14.198-31.64,31.65v27.33c0,0.829,0.672,1.5,1.5,1.5H50.07c0.828,0,1.5-0.671,1.5-1.5s-0.672-1.5-1.5-1.5
				H18.004v-25.83c0-15.798,12.848-28.65,28.64-28.65h4.766l19.369,54.48h-6.975c-0.828,0-1.5,0.671-1.5,1.5s0.672,1.5,1.5,1.5h9.1
				c0.487,0,0.944-0.237,1.226-0.635C74.41,240.017,74.479,239.507,74.316,239.047z"/>
		</g>
	</g>
	<g>
		<g>
			<path class="st4" d="M119.954,182.07h-4.77l0.13,0.1l-20.4,57.38h55.18v-27.33C150.094,195.57,136.604,182.07,119.954,182.07z"/>
		</g>
	</g>
	<g>
		<g>
			<path class="st0" d="M119.953,180.57h-4.77c-0.642,0-1.213,0.409-1.42,1.016c-0.074,0.218-0.096,0.443-0.069,0.661l-20.193,56.8
				c-0.163,0.459-0.094,0.969,0.188,1.367c0.281,0.398,0.738,0.635,1.226,0.635h55.18c0.828,0,1.5-0.671,1.5-1.5v-27.33
				C151.594,194.768,137.399,180.57,119.953,180.57z M148.594,238.05H97.039l19.369-54.48h3.545
				c15.793,0,28.641,12.853,28.641,28.65V238.05z"/>
		</g>
	</g>
	<g>
		<g>
			<path class="st17" d="M31.541,95.503c-6.55,0-11.861,5.31-11.861,11.86c0,6.55,5.31,11.86,11.861,11.86
				c6.55,0,11.86-5.31,11.86-11.86C43.401,100.813,38.091,95.503,31.541,95.503z"/>
		</g>
	</g>
	<g>
		<g>
			<path class="st0" d="M31.541,94.003c-7.367,0-13.361,5.994-13.361,13.36s5.994,13.36,13.361,13.36s13.36-5.994,13.36-13.36
				S38.908,94.003,31.541,94.003z M31.541,117.724c-5.713,0-10.361-4.647-10.361-10.36s4.648-10.36,10.361-10.36
				s10.36,4.647,10.36,10.36S37.254,117.724,31.541,117.724z"/>
		</g>
	</g>
	<g>
		<g>
			<path class="st17" d="M135.061,95.503c-6.55,0-11.861,5.31-11.861,11.86c0,6.55,5.31,11.86,11.861,11.86
				c6.551,0,11.86-5.31,11.86-11.86C146.921,100.813,141.612,95.503,135.061,95.503z"/>
		</g>
	</g>
	<g>
		<g>
			<path class="st0" d="M135.062,94.003c-7.367,0-13.361,5.994-13.361,13.36s5.994,13.36,13.361,13.36s13.36-5.994,13.36-13.36
				S142.429,94.003,135.062,94.003z M135.062,117.724c-5.713,0-10.361-4.647-10.361-10.36s4.648-10.36,10.361-10.36
				s10.36,4.647,10.36,10.36S140.774,117.724,135.062,117.724z"/>
		</g>
	</g>
	<g>
		<g>
			<path class="st4" d="M138.325,73.7c0-13.98-5.77-26.67-15.16-36.03c0.57,1.63,0.87,3.28,0.87,4.91c0,5.52-3.8,10.56-10.06,14.38
				c1.3,2.16,2.92,4.14,4.82,5.88c9.52,8.7,15.81,20.86,16.91,34.48c0.14-0.19,0.45-0.29,0.69-0.38
				C138.645,96.12,138.325,75.5,138.325,73.7z"/>
		</g>
	</g>
	<g>
		<g>
			<path class="st0" d="M139.829,74.336l-0.004-0.636c0-13.891-5.541-27.064-15.602-37.093c-0.494-0.492-1.264-0.58-1.857-0.207
				c-0.592,0.372-0.848,1.104-0.617,1.764c0.521,1.494,0.786,2.979,0.786,4.416c0,4.771-3.317,9.423-9.342,13.1
				c-0.704,0.43-0.93,1.347-0.504,2.054c1.378,2.291,3.092,4.381,5.094,6.214c9.553,8.731,15.387,20.626,16.427,33.493
				c0.051,0.624,0.483,1.151,1.085,1.322c0.136,0.039,0.273,0.057,0.41,0.057c0.379,0,0.747-0.144,1.026-0.406
				c0.037-0.015,0.076-0.027,0.112-0.041c0.002,0,0.046-0.017,0.066-0.024C138.212,97.874,139.993,97.211,139.829,74.336z
				 M136.373,91.181c-2.203-11.289-7.959-21.582-16.565-29.447c-1.424-1.304-2.684-2.752-3.76-4.321
				c6.133-4.125,9.487-9.349,9.487-14.833v-0.079c7.314,8.879,11.29,19.784,11.29,31.199l0.004,0.658
				C136.891,82.921,136.661,88.078,136.373,91.181z"/>
		</g>
	</g>
	<g>
		<g>
			<path class="st0" d="M41.526,216.456c-0.828,0-1.5,0.671-1.5,1.5v21.589c0,0.829,0.672,1.5,1.5,1.5s1.5-0.671,1.5-1.5v-21.589
				C43.026,217.127,42.354,216.456,41.526,216.456z"/>
		</g>
	</g>
	<g>
		<g>
			<path class="st0" d="M126.288,216.456c-0.828,0-1.5,0.671-1.5,1.5v21.589c0,0.829,0.672,1.5,1.5,1.5s1.5-0.671,1.5-1.5v-21.589
				C127.788,217.127,127.116,216.456,126.288,216.456z"/>
		</g>
	</g>
	<g>
		<g>
			<polygon class="st18" points="89.02,219.355 78.754,219.355 75.639,239.547 92.135,239.547 			"/>
		</g>
	</g>
	<g>
		<g>
			<path class="st0" d="M93.617,239.319l-3.115-20.193c-0.113-0.731-0.742-1.271-1.482-1.271H78.754c-0.74,0-1.369,0.54-1.482,1.271
				l-3.115,20.193c-0.066,0.433,0.059,0.873,0.344,1.205c0.285,0.332,0.701,0.523,1.139,0.523h16.496
				c0.438,0,0.854-0.191,1.139-0.523C93.559,240.191,93.684,239.751,93.617,239.319z M77.388,238.047l2.652-17.193h7.693
				l2.652,17.193H77.388z"/>
		</g>
	</g>
	<g>
		<g>
			<polygon class="st18" points="75.292,201.57 78.762,219.35 89.008,219.35 92.56,201.57 			"/>
		</g>
	</g>
	<g>
		<g>
			<path class="st0" d="M93.721,200.619c-0.285-0.347-0.711-0.549-1.16-0.549H75.292c-0.448,0-0.873,0.2-1.158,0.546
				c-0.284,0.346-0.399,0.801-0.314,1.241l3.47,17.78c0.138,0.705,0.755,1.213,1.473,1.213h10.246c0.715,0,1.331-0.505,1.471-1.206
				l3.553-17.78C94.119,201.423,94.006,200.966,93.721,200.619z M87.778,217.85h-7.781l-2.884-14.78h13.618L87.778,217.85z"/>
		</g>
	</g>
	<g>
		<g>
			
				<rect x="61.51" y="174.652" transform="matrix(0.7986 -0.6019 0.6019 0.7986 -101.728 79.7034)" class="st3" width="13.441" height="34.407"/>
		</g>
	</g>
	<g>
		<g>
			<path class="st0" d="M85.149,200.646l-20.708-27.478c-0.24-0.318-0.596-0.527-0.989-0.583c-0.4-0.055-0.795,0.048-1.111,0.288
				l-10.734,8.09c-0.318,0.239-0.527,0.595-0.583,0.989c-0.056,0.394,0.048,0.793,0.287,1.111l20.708,27.477
				c0.295,0.391,0.744,0.597,1.199,0.597c0.314,0,0.632-0.098,0.901-0.302l10.734-8.089c0.318-0.239,0.527-0.595,0.583-0.989
				C85.492,201.364,85.389,200.964,85.149,200.646z M73.512,207.538l-18.902-25.082l8.339-6.284l18.902,25.082L73.512,207.538z"/>
		</g>
	</g>
	<g>
		<g>
			
				<rect x="82.382" y="185.135" transform="matrix(0.6019 -0.7986 0.7986 0.6019 -113.5673 155.9143)" class="st3" width="34.407" height="13.441"/>
		</g>
	</g>
	<g>
		<g>
			<path class="st0" d="M116.209,180.964l-10.733-8.09c-0.317-0.24-0.714-0.344-1.112-0.288c-0.394,0.055-0.749,0.265-0.989,0.583
				l-20.708,27.478c-0.498,0.662-0.366,1.602,0.296,2.101l10.733,8.089c0.261,0.197,0.578,0.302,0.902,0.302
				c0.069,0,0.139-0.005,0.209-0.015c0.394-0.055,0.749-0.265,0.989-0.583l20.708-27.477
				C117.002,182.403,116.87,181.462,116.209,180.964z M94.303,207.538l-8.338-6.284l18.902-25.082l8.338,6.284L94.303,207.538z"/>
		</g>
	</g>
	<g>
		<g>
			<path class="st15" d="M118.795,62.83c-1.9-1.73-3.52-3.71-4.82-5.86c-7.32,4.48-18.02,7.31-29.94,7.31
				c-2.83,0-5.59-0.16-8.26-0.47c-19.16-2.18-37.53,9.25-43.6,27.56c-0.59,1.76-1,3.45-1.19,5.02c-0.03,0.22-0.05,0.44-0.07,0.66
				c-0.12,1.5-0.19,3.02-0.19,4.56c0,29.03,29.08,73.61,52.58,73.61c24.61,0,52.57-44.58,52.57-73.61
				C135.875,86.25,129.295,72.44,118.795,62.83z"/>
		</g>
	</g>
	<g>
		<g>
			<path class="st0" d="M119.805,61.721c-1.778-1.619-3.308-3.478-4.547-5.526c-0.206-0.342-0.54-0.587-0.929-0.682
				c-0.388-0.094-0.798-0.029-1.138,0.178c-7.36,4.505-17.987,7.089-29.156,7.089c-2.739,0-5.46-0.155-8.091-0.46
				c-19.954-2.276-38.952,9.75-45.191,28.574c-0.638,1.9-1.061,3.689-1.256,5.298c-0.032,0.242-0.055,0.483-0.077,0.738
				c-0.132,1.64-0.195,3.171-0.195,4.68c0,14.103,6.799,32.704,17.743,48.544c11.494,16.635,25.077,26.566,36.337,26.566
				c11.851,0,25.247-9.686,36.754-26.574c10.681-15.676,17.316-34.274,17.316-48.536C137.375,86.479,130.972,71.941,119.805,61.721z
				 M117.579,148.457c-10.778,15.819-23.592,25.264-34.274,25.264c-10.274,0-22.936-9.447-33.868-25.271
				c-10.617-15.366-17.212-33.313-17.212-46.839c0-1.428,0.061-2.88,0.185-4.427c0.018-0.198,0.035-0.396,0.064-0.612
				c0.173-1.426,0.551-3.016,1.125-4.729c5.327-16.07,20.673-26.797,37.51-26.797c1.487,0,2.988,0.084,4.493,0.255
				c2.742,0.318,5.579,0.479,8.434,0.479c11.087,0,21.719-2.462,29.455-6.789c1.229,1.808,2.669,3.468,4.292,4.945
				c10.545,9.651,16.593,23.382,16.593,37.673C134.375,115.301,127.939,133.252,117.579,148.457z"/>
		</g>
	</g>
	<g>
		<g>
			<path class="st0" d="M64.738,95.88c-2.834,0-5.132,2.298-5.132,5.132s2.298,5.132,5.132,5.132c2.834,0,5.132-2.298,5.132-5.132
				S67.572,95.88,64.738,95.88z"/>
		</g>
	</g>
	<g>
		<g>
			<path class="st0" d="M101.864,95.88c-2.834,0-5.132,2.298-5.132,5.132s2.298,5.132,5.132,5.132c2.834,0,5.132-2.298,5.132-5.132
				S104.698,95.88,101.864,95.88z"/>
		</g>
	</g>
	<g>
		<g>
			<path class="st19" d="M54.481,109.661c-4.882,0-8.84,2.959-8.84,6.609c0,3.65,3.958,6.609,8.84,6.609s8.84-2.959,8.84-6.609
				C63.321,112.62,59.363,109.661,54.481,109.661z"/>
		</g>
	</g>
	<g>
		<g>
			<path class="st19" d="M112.12,109.661c-4.882,0-8.84,2.959-8.84,6.609c0,3.65,3.958,6.609,8.84,6.609s8.84-2.959,8.84-6.609
				C120.961,112.62,117.003,109.661,112.12,109.661z"/>
		</g>
	</g>
	<g>
		<g>
			<path class="st0" d="M98.354,133.807c-0.778-0.292-1.64,0.103-1.931,0.878c-1.046,2.791-5.135,8.069-13.124,8.069
				c-6.241,0-10.551-2.678-13.174-8.188c-0.355-0.747-1.251-1.067-1.999-0.709c-0.748,0.356-1.066,1.251-0.71,2
				c3.128,6.568,8.472,9.898,15.883,9.898c8.368,0,14.125-5.192,15.933-10.017C99.522,134.962,99.129,134.098,98.354,133.807z"/>
		</g>
	</g>
	<g>
		<g>
			<path class="st0" d="M60.35,80.391c-11.229,0-20.366,9.136-20.366,20.366s9.137,20.365,20.366,20.365s20.365-9.136,20.365-20.365
				S71.579,80.391,60.35,80.391z M60.35,118.122c-9.576,0-17.366-7.79-17.366-17.365c0-9.576,7.79-17.366,17.366-17.366
				c9.575,0,17.365,7.79,17.365,17.366C77.715,110.332,69.925,118.122,60.35,118.122z"/>
		</g>
	</g>
	<g>
		<g>
			<path class="st0" d="M107.461,80.391c-11.229,0-20.365,9.136-20.365,20.366s9.136,20.365,20.365,20.365
				s20.365-9.136,20.365-20.365S118.69,80.391,107.461,80.391z M107.461,118.122c-9.575,0-17.365-7.79-17.365-17.365
				c0-9.576,7.79-17.366,17.365-17.366s17.365,7.79,17.365,17.366C124.826,110.332,117.036,118.122,107.461,118.122z"/>
		</g>
	</g>
	<g>
		<g>
			<path class="st0" d="M88.596,99.218h-9.381c-0.828,0-1.5,0.671-1.5,1.5s0.672,1.5,1.5,1.5h9.381c0.828,0,1.5-0.671,1.5-1.5
				S89.424,99.218,88.596,99.218z"/>
		</g>
	</g>
	<g>
		<g>
			<path class="st0" d="M42.136,95.028l-10.89-1.099c-0.811-0.081-1.56,0.518-1.643,1.342c-0.083,0.824,0.518,1.56,1.342,1.643
				l10.89,1.099c0.051,0.005,0.102,0.007,0.152,0.007c0.761,0,1.412-0.577,1.49-1.35C43.561,95.846,42.96,95.111,42.136,95.028z"/>
		</g>
	</g>
	<g>
		<g>
			<path class="st0" d="M137.01,95.19c-0.098-0.823-0.849-1.41-1.667-1.312l-9.683,1.152c-0.822,0.098-1.409,0.844-1.312,1.667
				c0.091,0.763,0.738,1.323,1.487,1.323c0.06,0,0.119-0.003,0.18-0.011l9.683-1.152C136.521,96.759,137.107,96.013,137.01,95.19z"
				/>
		</g>
	</g>
	<g>
		<g>
			<path class="st4" d="M88.276,16.554c-17.783-1.111-33.516,7.112-41.21,14.544c-11.612,9.539-17.583,26.813-17.583,42.599
				c0,2.885,0.509,19.296,1.43,23.356c0.15-1.753,0.596-3.669,1.264-5.685c6.065-18.305,24.44-29.74,43.6-27.556
				c2.664,0.304,5.426,0.463,8.257,0.463c22.09,0,39.997-9.713,39.997-21.693S107.669,17.766,88.276,16.554z"/>
		</g>
	</g>
	<g>
		<g>
			<path class="st0" d="M88.37,15.057c-17.382-1.087-33.768,6.704-42.303,14.921c-11.155,9.196-18.084,25.941-18.084,43.719
				c0,2.908,0.492,19.391,1.467,23.688c0.156,0.688,0.767,1.168,1.462,1.168c0.034,0,0.069-0.001,0.104-0.003
				c0.738-0.051,1.329-0.632,1.392-1.368c0.134-1.556,0.535-3.353,1.194-5.341C39.396,74.35,57.06,63.188,75.607,65.303
				c2.753,0.314,5.589,0.473,8.427,0.473c23.27,0,41.497-10.188,41.497-23.193C125.531,29.392,107.818,16.272,88.37,15.057z
				 M84.034,62.776c-2.726,0-5.446-0.153-8.087-0.454c-19.156-2.186-37.437,8.808-44.387,26.354
				c-0.366-5.869-0.577-12.867-0.577-14.979c0-16.671,6.687-32.938,17.035-41.439c0.031-0.026,0.062-0.052,0.09-0.081
				c7.54-7.284,21.629-14.223,36.956-14.223c1.034,0,2.075,0.032,3.118,0.097c19.659,1.229,34.349,13.965,34.349,24.531
				C122.531,53.717,105.262,62.776,84.034,62.776z"/>
		</g>
	</g>
	<g>
		<g>
			<path class="st14" d="M119.954,183.57h-3.55l-0.87,2.45c10.04,4.46,17.06,14.52,17.06,26.2v25.83h16v-25.83
				C148.594,196.42,135.744,183.57,119.954,183.57z"/>
		</g>
	</g>
	<g>
		<g>
			<path class="st2" d="M239.497,52.371c0-19.734-18.064-35.731-40.348-35.731c-22.283,0-40.348,15.997-40.348,35.731
				c0,9.041,3.8,17.292,10.052,23.585l-6.355,16.015c-0.611,1.539,0.852,3.091,2.424,2.574l23.49-7.733
				c3.42,0.834,7.017,1.289,10.736,1.289c10.278,0,19.654-3.409,26.778-9.013c0.058-0.045,0.118-0.089,0.175-0.135
				c0.394-0.313,0.776-0.636,1.156-0.962c1.189-1.017,2.315-2.091,3.355-3.229c-0.008-0.002-0.017-0.005-0.025-0.007
				C236.157,68.629,239.497,60.847,239.497,52.371z"/>
		</g>
	</g>
	<g>
		<g>
			<path class="st0" d="M199.149,15.14c-23.075,0-41.848,16.702-41.848,37.23c0,8.771,3.473,17.232,9.8,23.933l-5.998,15.115
				c-0.499,1.259-0.232,2.654,0.696,3.64c0.668,0.709,1.567,1.089,2.498,1.089c0.364,0,0.732-0.058,1.094-0.177l23.087-7.6
				c3.489,0.817,7.077,1.231,10.671,1.231c10.213,0,20.053-3.315,27.772-9.385l0.114-0.088c0.408-0.325,0.806-0.66,1.198-0.997
				c1.277-1.094,2.451-2.223,3.486-3.357c0.062-0.067,0.116-0.14,0.163-0.216c5.879-6.563,9.113-14.786,9.113-23.188
				C240.997,31.842,222.225,15.14,199.149,15.14z M229.478,73.746c-0.057,0.063-0.107,0.13-0.151,0.2
				c-0.909,0.979-1.932,1.955-3.045,2.907c-0.365,0.314-0.733,0.625-1.173,0.973L225,77.909c-7.126,5.605-16.307,8.692-25.851,8.692
				c-3.499,0-6.991-0.419-10.381-1.246c-0.273-0.067-0.559-0.055-0.824,0.032l-23.49,7.733c-0.224,0.073-0.38-0.023-0.471-0.12
				c-0.09-0.095-0.179-0.255-0.091-0.476l6.355-16.015c0.22-0.555,0.09-1.187-0.33-1.61c-6.201-6.242-9.616-14.242-9.616-22.528
				c0-18.875,17.427-34.23,38.848-34.23s38.848,15.356,38.848,34.23C237.997,60.224,235.051,67.616,229.478,73.746z"/>
		</g>
	</g>
	<g>
		<g>
			<path class="st20" d="M199.147,18.14c-2.56,0-5.07,0.22-7.5,0.65c17.84,3.08,31.35,16.97,31.35,33.58
				c0,7.85-2.95,15.24-8.52,21.38c-0.06,0.06-0.11,0.13-0.15,0.2c-0.92,0.98-1.94,1.96-3.05,2.9c-0.36,0.32-0.73,0.63-1.18,0.98
				c-0.01,0.01-0.09,0.07-0.1,0.08c-5.23,4.11-11.57,6.87-18.36,8.04c2.48,0.43,4.99,0.65,7.51,0.65c9.55,0,18.73-3.09,25.85-8.69
				c0.01-0.01,0.09-0.07,0.1-0.08c0.45-0.35,0.82-0.66,1.18-0.98c1.11-0.94,2.13-1.92,3.05-2.9c0.04-0.07,0.09-0.14,0.15-0.2
				c5.57-6.14,8.52-13.53,8.52-21.38C237.998,33.5,220.568,18.14,199.147,18.14z"/>
		</g>
	</g>
	<g>
		<g>
			<path class="st3" d="M206.055,136.16c-0.974,11.564-13.024,13.39-13.024,13.39c10.347,0.487,12.925,14.059,12.925,14.059
				c0.221-9.677,13.321-14.202,13.321-14.202C209.463,148.819,206.055,136.16,206.055,136.16z"/>
		</g>
	</g>
	<g>
		<g>
			<path class="st0" d="M219.367,147.909c-8.604-0.515-11.833-12.024-11.864-12.141c-0.192-0.702-0.85-1.17-1.584-1.101
				c-0.725,0.066-1.298,0.642-1.359,1.367c-0.859,10.215-11.313,11.964-11.754,12.033c-0.763,0.115-1.313,0.79-1.273,1.561
				c0.04,0.77,0.657,1.384,1.428,1.421c9.028,0.425,11.499,12.718,11.522,12.842c0.138,0.711,0.76,1.217,1.473,1.217
				c0.042,0,0.084-0.001,0.126-0.005c0.765-0.064,1.357-0.693,1.375-1.459c0.193-8.509,12.191-12.777,12.313-12.819
				c0.676-0.235,1.092-0.914,0.994-1.623S220.081,147.952,219.367,147.909z M205.801,158.254c-1.356-3.13-3.709-6.907-7.587-8.876
				c2.931-1.405,6.408-3.913,8.201-8.273c1.552,3.071,4.2,6.88,8.335,8.723C211.742,151.467,207.827,154.233,205.801,158.254z"/>
		</g>
	</g>
	<g>
		<g>
			<path class="st3" d="M184.357,153.14c-0.689,8.179-9.213,9.47-9.213,9.47c7.318,0.344,9.142,9.944,9.142,9.944
				c0.156-6.844,9.422-10.045,9.422-10.045C186.767,162.094,184.357,153.14,184.357,153.14z"/>
		</g>
	</g>
	<g>
		<g>
			<path class="st0" d="M193.798,161.012c-5.766-0.345-7.972-8.186-7.994-8.265c-0.189-0.702-0.858-1.165-1.581-1.102
				c-0.726,0.065-1.3,0.643-1.361,1.368c-0.578,6.871-7.646,8.067-7.941,8.114c-0.763,0.115-1.313,0.79-1.273,1.561
				c0.04,0.77,0.657,1.384,1.428,1.421c6.034,0.284,7.723,8.644,7.738,8.726c0.136,0.712,0.759,1.22,1.473,1.22
				c0.041,0,0.083-0.001,0.125-0.005c0.765-0.063,1.358-0.694,1.376-1.461c0.13-5.709,8.331-8.633,8.412-8.661
				c0.676-0.234,1.093-0.913,0.996-1.622C195.097,161.597,194.512,161.055,193.798,161.012z M184.213,167.807
				c-0.924-1.886-2.34-3.947-4.446-5.28c1.855-1.041,3.697-2.629,4.87-4.916c1.058,1.874,2.654,3.954,4.941,5.223
				C187.729,163.936,185.59,165.575,184.213,167.807z"/>
		</g>
	</g>
	<g>
		<g>
			<path class="st3" d="M184.357,126.483c-0.689,8.179-9.213,9.471-9.213,9.471c7.318,0.344,9.142,9.944,9.142,9.944
				c0.156-6.845,9.422-10.045,9.422-10.045C186.767,135.437,184.357,126.483,184.357,126.483z"/>
		</g>
	</g>
	<g>
		<g>
			<path class="st0" d="M193.798,134.354c-5.766-0.345-7.972-8.186-7.994-8.265c-0.189-0.702-0.858-1.163-1.581-1.102
				c-0.726,0.065-1.3,0.643-1.361,1.368c-0.578,6.871-7.646,8.067-7.941,8.114c-0.763,0.115-1.313,0.79-1.273,1.561
				c0.04,0.77,0.657,1.384,1.428,1.421c6.034,0.284,7.723,8.644,7.738,8.726c0.136,0.712,0.759,1.22,1.473,1.22
				c0.041,0,0.083-0.001,0.125-0.005c0.765-0.063,1.358-0.694,1.376-1.461c0.13-5.709,8.331-8.634,8.412-8.662
				c0.676-0.234,1.093-0.913,0.996-1.622C195.097,134.939,194.512,134.397,193.798,134.354z M184.213,141.15
				c-0.924-1.886-2.34-3.947-4.446-5.28c1.855-1.041,3.697-2.63,4.87-4.917c1.058,1.874,2.654,3.954,4.941,5.224
				C187.729,137.278,185.589,138.917,184.213,141.15z"/>
		</g>
	</g>
	<g>
		<g>
			<path class="st4" d="M210.416,31.053c-2.795-1.898-6.466-2.847-11.013-2.847c-5.839,0-10.173,1.361-12.999,4.083
				c-2.826,2.722-4.448,6.315-4.865,10.778l12.139,1.501c0.27-2.44,0.891-4.15,1.861-5.131c0.969-0.98,2.194-1.47,3.676-1.47
				c1.377,0,2.403,0.319,3.082,0.954c0.677,0.636,1.016,1.528,1.016,2.675c0,1.147-0.844,2.409-2.534,3.785
				c-3.171,2.628-5.209,4.464-6.116,5.506c-0.907,1.043-1.59,2.196-2.049,3.457c-0.459,1.262-0.688,2.905-0.688,4.927v1.189h11.888
				c0-1.626,0.276-2.946,0.828-3.957c0.553-1.011,1.883-2.351,3.989-4.02c3.024-2.378,5.026-4.39,6.007-6.038
				c0.98-1.647,1.47-3.358,1.47-5.131C216.109,37.039,214.211,33.618,210.416,31.053z"/>
		</g>
	</g>
	<g>
		<g>
			<path class="st0" d="M211.259,29.812c-3.036-2.061-7.025-3.106-11.855-3.106c-6.214,0-10.938,1.515-14.041,4.502
				c-3.078,2.966-4.867,6.909-5.316,11.719c-0.076,0.808,0.504,1.529,1.309,1.628l12.14,1.501c0.4,0.05,0.8-0.063,1.114-0.312
				c0.315-0.249,0.518-0.613,0.562-1.012c0.286-2.595,0.939-3.738,1.437-4.241c0.683-0.69,1.535-1.025,2.608-1.025
				c0.671,0,1.572,0.095,2.055,0.547c0.135,0.126,0.544,0.511,0.544,1.582c0,0.303-0.193,1.166-1.991,2.63
				c-3.262,2.704-5.319,4.56-6.291,5.677c-1.023,1.178-1.807,2.5-2.326,3.929c-0.524,1.44-0.779,3.22-0.779,5.439v1.189
				c0,0.829,0.672,1.5,1.5,1.5h11.889c0.828,0,1.5-0.671,1.5-1.5c0-1.366,0.217-2.456,0.645-3.238c0.312-0.57,1.189-1.65,3.6-3.561
				c3.2-2.516,5.284-4.626,6.369-6.45c1.116-1.875,1.682-3.859,1.682-5.898C217.609,36.53,215.472,32.66,211.259,29.812z
				 M213.35,45.678c-0.881,1.481-2.78,3.374-5.649,5.629c-2.287,1.813-3.719,3.277-4.374,4.477
				c-0.483,0.885-0.796,1.949-0.933,3.176h-8.966c0.021-1.695,0.222-3.074,0.596-4.103c0.395-1.083,0.99-2.087,1.771-2.985
				c0.852-0.979,2.851-2.774,5.932-5.328c2.077-1.691,3.087-3.31,3.087-4.948c0-1.572-0.501-2.84-1.491-3.77
				c-0.962-0.902-2.344-1.36-4.107-1.36c-1.89,0-3.484,0.645-4.741,1.916c-0.995,1.006-1.676,2.492-2.063,4.518l-9.194-1.137
				c0.563-3.447,1.954-6.204,4.227-8.394c2.524-2.431,6.549-3.663,11.96-3.663c4.219,0,7.641,0.871,10.173,2.59
				c3.387,2.289,5.033,5.239,5.033,9.019C214.609,42.827,214.197,44.254,213.35,45.678z"/>
		</g>
	</g>
	<g>
		<g>
			<path class="st4" d="M197.901,65.525c-3.31,0-5.993,2.683-5.993,5.993s2.683,5.993,5.993,5.993s5.993-2.683,5.993-5.993
				S201.211,65.525,197.901,65.525z"/>
		</g>
	</g>
	<g>
		<g>
			<path class="st0" d="M197.901,64.025c-4.132,0-7.493,3.361-7.493,7.493s3.361,7.493,7.493,7.493s7.493-3.361,7.493-7.493
				S202.033,64.025,197.901,64.025z M197.901,76.011c-2.478,0-4.493-2.016-4.493-4.493s2.016-4.493,4.493-4.493
				s4.493,2.016,4.493,4.493S200.379,76.011,197.901,76.011z"/>
		</g>
	</g>
</g>
</svg>
