<?xml version="1.0" encoding="utf-8"?>
<!-- Generator: Adobe Illustrator 22.0.1, SVG Export Plug-In . SVG Version: 6.00 Build 0)  -->
<svg version="1.1" id="Layer_1" xmlns="http://www.w3.org/2000/svg" xmlns:xlink="http://www.w3.org/1999/xlink" x="0px" y="0px"
	 viewBox="0 0 256 256" style="enable-background:new 0 0 256 256;" xml:space="preserve">
<style type="text/css">
	.st0{fill:#3A312A;}
	.st1{fill:#8AC6DD;}
	.st2{fill:#F16C7A;}
	.st3{fill:#D7E057;}
	.st4{fill:#87796F;}
	.st5{fill:#FCE8CB;}
	.st6{fill:#DECAAD;}
	.st7{fill:#D6DF58;}
	.st8{fill:#FAE6CA;}
	.st9{fill:#DDC9AC;}
	.st10{fill:#D5DE58;}
	.st11{fill:#ED6E7A;}
	.st12{fill:#8AC5DC;}
	.st13{fill:#6CA8BF;}
	.st14{fill:#695B51;}
	.st15{fill:#F8E4C8;}
	.st16{fill:#EF6D7A;}
	.st17{fill-rule:evenodd;clip-rule:evenodd;fill:#F8E4C8;}
	.st18{fill:#89C4DB;}
	.st19{fill:#F59689;}
	.st20{fill:#D34E5C;}
	.st21{fill:#F7E3C7;}
	.st22{fill:#8AC3DA;}
	.st23{fill-rule:evenodd;clip-rule:evenodd;fill:#F7E3C7;}
	.st24{fill-rule:evenodd;clip-rule:evenodd;fill:#87796F;}
	.st25{fill:#B9C239;}
	.st26{fill:#D4DB56;}
	.st27{fill-rule:evenodd;clip-rule:evenodd;fill:#F16C7A;}
	.st28{fill-rule:evenodd;clip-rule:evenodd;fill:#F6E2C6;}
	.st29{fill:#F6E2C6;}
	.st30{fill-rule:evenodd;clip-rule:evenodd;fill:#FAE6CA;}
	.st31{fill:#B8C136;}
</style>
<g>
	<g>
		<g>
			<path class="st15" d="M224.34,210.686h-10.003v-6.501c-2.767,1.918-5.63,3.05-8.407,3.05c-2.665,0-5.477-1.143-8.232-3.084h-0.17
				v6.535H187.52c-8.362,0-15.14,6.778-15.14,15.14v13.72h67.1v-13.72C239.48,217.464,232.702,210.686,224.34,210.686z"/>
		</g>
	</g>
	<g>
		<g>
			<path class="st0" d="M224.34,209.187h-8.502v-5.001c0-0.558-0.31-1.07-0.804-1.329c-0.494-0.258-1.091-0.222-1.55,0.096
				c-2.664,1.847-5.205,2.783-7.553,2.783c-2.242,0-4.721-0.945-7.368-2.81c-0.253-0.178-0.555-0.274-0.864-0.274h-0.17
				c-0.829,0-1.5,0.671-1.5,1.5v5.035h-8.509c-9.175,0-16.64,7.464-16.64,16.64v13.72c0,0.829,0.671,1.5,1.5,1.5h67.1
				c0.829,0,1.5-0.671,1.5-1.5v-13.72C240.98,216.651,233.515,209.187,224.34,209.187z M237.98,238.046h-64.1v-12.22
				c0-7.521,6.119-13.64,13.64-13.64h10.009c0.829,0,1.5-0.671,1.5-1.5v-3.93c2.385,1.315,4.699,1.979,6.901,1.979
				c2.232,0,4.547-0.63,6.908-1.878v3.829c0,0.829,0.671,1.5,1.5,1.5h10.002c7.521,0,13.64,6.119,13.64,13.64V238.046z"/>
		</g>
	</g>
	<g>
		<g>
			<path class="st18" d="M224.34,210.68h-2.393l0.061,0.049l-10.404,13.795l-5.37-4.042l-5.369,4.042l-10.404-13.795l0.061-0.049
				h-3.001c-8.365,0-15.141,6.782-15.141,15.14v13.728h67.1V225.82C239.48,217.462,232.704,210.68,224.34,210.68z"/>
		</g>
	</g>
	<g>
		<g>
			<path class="st0" d="M224.339,209.18h-2.392c-0.597,0-1.107,0.375-1.341,0.917l-9.297,12.328l-4.172-3.141
				c-0.534-0.402-1.271-0.402-1.805,0l-4.172,3.141l-9.216-12.221c-0.002-0.006-0.004-0.013-0.007-0.019
				c-0.21-0.602-0.778-1.004-1.416-1.004h-3.001c-9.176,0-16.641,7.465-16.641,16.64v13.729c0,0.829,0.671,1.5,1.5,1.5h67.1
				c0.829,0,1.5-0.671,1.5-1.5V225.82C240.98,216.645,233.515,209.18,224.339,209.18z M237.98,238.049h-64.1V225.82
				c0-7.521,6.119-13.64,13.641-13.64h2.156l9.99,13.247c0.499,0.661,1.439,0.793,2.1,0.295l4.467-3.363l4.467,3.363
				c0.661,0.498,1.601,0.366,2.1-0.295l9.99-13.247h1.547c7.521,0,13.641,6.119,13.641,13.64V238.049z"/>
		</g>
	</g>
	<g>
		<g>
			<path class="st4" d="M190.462,210.729l0.06-0.05h-3.004c-8.363,0-15.139,6.781-15.139,15.144v13.727h28.329L190.462,210.729z"/>
		</g>
	</g>
	<g>
		<g>
			<path class="st0" d="M202.122,239.047l-10.1-28.408c-0.004-0.156-0.033-0.314-0.087-0.466c-0.214-0.596-0.779-0.994-1.412-0.994
				h-3.004c-9.175,0-16.639,7.466-16.639,16.644v13.727c0,0.829,0.671,1.5,1.5,1.5h28.329c0.487,0,0.944-0.237,1.226-0.635
				C202.215,240.017,202.285,239.506,202.122,239.047z M173.88,238.05v-12.227c0-7.523,6.118-13.644,13.639-13.644h1.867
				l9.197,25.871H173.88z"/>
		</g>
	</g>
	<g>
		<g>
			<path class="st4" d="M224.341,210.679h-2.396l0.065,0.05l-10.247,28.821h27.716v-13.727
				C239.479,217.46,232.704,210.679,224.341,210.679z"/>
		</g>
	</g>
	<g>
		<g>
			<path class="st0" d="M224.341,209.179h-2.396c-0.643,0-1.183,0.435-1.389,1.045c-0.033,0.099-0.055,0.2-0.066,0.301
				l-10.14,28.522c-0.164,0.459-0.093,0.969,0.188,1.367c0.281,0.398,0.738,0.635,1.226,0.635h27.716c0.829,0,1.5-0.671,1.5-1.5
				v-13.727C240.979,216.646,233.516,209.179,224.341,209.179z M237.979,238.05h-24.09l9.197-25.871h1.254
				c7.521,0,13.639,6.121,13.639,13.644V238.05z"/>
		</g>
	</g>
	<g>
		<g>
			<path class="st17" d="M179.933,167.198c-3.29,0-5.957,2.667-5.957,5.957c0,3.29,2.667,5.957,5.957,5.957
				c3.29,0,5.957-2.667,5.957-5.957C185.89,169.865,183.223,167.198,179.933,167.198z"/>
		</g>
	</g>
	<g>
		<g>
			<path class="st0" d="M179.933,165.698c-4.112,0-7.458,3.345-7.458,7.457c0,4.112,3.345,7.457,7.458,7.457
				c4.112,0,7.457-3.345,7.457-7.457C187.39,169.044,184.045,165.698,179.933,165.698z M179.933,177.613
				c-2.458,0-4.458-2-4.458-4.457c0-2.458,2-4.457,4.458-4.457c2.458,0,4.457,2,4.457,4.457
				C184.39,175.613,182.391,177.613,179.933,177.613z"/>
		</g>
	</g>
	<g>
		<g>
			<path class="st17" d="M231.929,167.198c-3.29,0-5.957,2.667-5.957,5.957c0,3.29,2.667,5.957,5.957,5.957s5.957-2.667,5.957-5.957
				C237.886,169.865,235.219,167.198,231.929,167.198z"/>
		</g>
	</g>
	<g>
		<g>
			<path class="st0" d="M231.929,165.698c-4.112,0-7.458,3.345-7.458,7.457c0,4.112,3.345,7.457,7.458,7.457
				c4.112,0,7.457-3.345,7.457-7.457C239.386,169.044,236.041,165.698,231.929,165.698z M231.929,177.613
				c-2.458,0-4.458-2-4.458-4.457c0-2.458,2-4.457,4.458-4.457c2.458,0,4.457,2,4.457,4.457
				C236.386,175.613,234.387,177.613,231.929,177.613z"/>
		</g>
	</g>
	<g>
		<g>
			<path class="st0" d="M184.949,227.204c-0.829,0-1.5,0.671-1.5,1.5v10.844c0,0.829,0.671,1.5,1.5,1.5c0.829,0,1.5-0.671,1.5-1.5
				v-10.844C186.449,227.875,185.777,227.204,184.949,227.204z"/>
		</g>
	</g>
	<g>
		<g>
			<path class="st0" d="M227.522,227.204c-0.829,0-1.5,0.671-1.5,1.5v10.844c0,0.829,0.671,1.5,1.5,1.5c0.829,0,1.5-0.671,1.5-1.5
				v-10.844C229.022,227.875,228.351,227.204,227.522,227.204z"/>
		</g>
	</g>
	<g>
		<g>
			<polygon class="st16" points="208.803,229.406 203.647,229.406 202.082,239.549 210.368,239.549 			"/>
		</g>
	</g>
	<g>
		<g>
			<path class="st0" d="M211.851,239.32l-1.565-10.143c-0.113-0.731-0.742-1.272-1.482-1.272h-5.156c-0.74,0-1.37,0.54-1.482,1.272
				L200.6,239.32c-0.067,0.433,0.059,0.873,0.344,1.205c0.285,0.332,0.701,0.523,1.139,0.523h8.286c0.438,0,0.854-0.191,1.139-0.523
				C211.792,240.193,211.917,239.753,211.851,239.32z M203.831,238.049l1.102-7.143h2.584l1.102,7.143H203.831z"/>
		</g>
	</g>
	<g>
		<g>
			<polygon class="st16" points="201.908,220.473 203.651,229.404 208.797,229.404 210.582,220.473 			"/>
		</g>
	</g>
	<g>
		<g>
			<path class="st0" d="M211.742,219.522c-0.285-0.347-0.711-0.549-1.16-0.549h-8.674c-0.448,0-0.873,0.2-1.158,0.546
				c-0.285,0.346-0.4,0.801-0.315,1.241l1.743,8.931c0.137,0.704,0.754,1.212,1.472,1.212h5.146c0.715,0,1.331-0.505,1.471-1.206
				l1.785-8.931C212.141,220.327,212.027,219.87,211.742,219.522z M207.567,227.904h-2.681l-1.157-5.931h5.023L207.567,227.904z"/>
		</g>
	</g>
	<g>
		<g>
			
				<rect x="194.986" y="206.953" transform="matrix(0.7986 -0.6019 0.6019 0.7986 -89.8077 162.8054)" class="st18" width="6.751" height="17.282"/>
		</g>
	</g>
	<g>
		<g>
			<path class="st0" d="M207.455,219.56l-10.401-13.801c-0.239-0.318-0.595-0.527-0.989-0.582c-0.393-0.056-0.793,0.048-1.111,0.288
				l-5.392,4.063c-0.662,0.499-0.793,1.439-0.295,2.101l10.401,13.801c0.239,0.318,0.595,0.527,0.989,0.583
				c0.069,0.01,0.139,0.015,0.208,0.015c0.324,0,0.641-0.105,0.903-0.302l5.391-4.064
				C207.822,221.162,207.954,220.222,207.455,219.56z M201.161,222.426l-8.596-11.406l2.996-2.258l8.595,11.406L201.161,222.426z"/>
		</g>
	</g>
	<g>
		<g>
			
				<rect x="205.469" y="212.218" transform="matrix(0.6019 -0.7986 0.7986 0.6019 -86.9277 256.8272)" class="st18" width="17.282" height="6.751"/>
		</g>
	</g>
	<g>
		<g>
			<path class="st0" d="M222.909,209.527l-5.392-4.063c-0.318-0.24-0.718-0.344-1.111-0.288c-0.394,0.055-0.75,0.265-0.989,0.582
				l-10.401,13.801c-0.499,0.662-0.367,1.602,0.295,2.1l5.391,4.064c0.262,0.197,0.579,0.302,0.903,0.302
				c0.069,0,0.139-0.005,0.208-0.015c0.394-0.055,0.75-0.265,0.989-0.583l10.401-13.801
				C223.703,210.966,223.571,210.026,222.909,209.527z M211.31,222.426l-2.996-2.258l8.595-11.406l2.996,2.258L211.31,222.426z"/>
		</g>
	</g>
	<g>
		<g>
			<path class="st15" d="M223.759,150.787c-0.954-0.869-1.768-1.864-2.421-2.943c-3.677,2.25-9.051,3.672-15.038,3.672
				c-1.421,0-2.808-0.08-4.149-0.236c-9.624-1.095-18.85,4.646-21.899,13.843c-0.296,0.884-0.502,1.733-0.598,2.521
				c-0.015,0.11-0.025,0.221-0.035,0.331c-0.06,0.753-0.095,1.517-0.095,2.29c0,14.581,14.606,36.973,26.41,36.973
				c12.361,0,26.405-22.392,26.405-36.973C232.338,162.55,229.033,155.614,223.759,150.787z"/>
		</g>
	</g>
	<g>
		<g>
			<path class="st0" d="M224.769,149.678c-0.84-0.765-1.563-1.643-2.147-2.61c-0.207-0.342-0.54-0.587-0.929-0.682
				c-0.387-0.093-0.797-0.03-1.138,0.178c-3.583,2.193-8.779,3.451-14.255,3.451c-1.345,0-2.683-0.076-3.98-0.227
				c-10.366-1.178-20.247,5.071-23.491,14.856c-0.336,1.003-0.56,1.952-0.662,2.794c-0.018,0.131-0.03,0.262-0.044,0.416
				c-0.067,0.844-0.1,1.632-0.1,2.41c0,15.191,14.97,38.473,27.91,38.473c13.206,0,27.905-22.932,27.905-38.473
				C233.838,162.456,230.533,154.954,224.769,149.678z M205.933,205.738c-10.994,0-24.91-21.994-24.91-35.473
				c0-0.697,0.03-1.408,0.089-2.155c0.008-0.088,0.016-0.176,0.031-0.288c0.08-0.665,0.259-1.413,0.532-2.229
				c2.574-7.765,9.992-12.948,18.13-12.948c0.719,0,1.444,0.041,2.172,0.123c1.407,0.164,2.861,0.247,4.322,0.247
				c5.417,0,10.634-1.151,14.569-3.188c0.558,0.745,1.186,1.437,1.877,2.066c5.143,4.706,8.092,11.403,8.092,18.372
				C230.838,183.951,217.239,205.738,205.933,205.738z"/>
		</g>
	</g>
	<g>
		<g>
			<path class="st0" d="M196.607,167.388c-1.424,0-2.578,1.154-2.578,2.578s1.154,2.578,2.578,2.578
				c1.424,0,2.578-1.154,2.578-2.578S198.031,167.388,196.607,167.388z"/>
		</g>
	</g>
	<g>
		<g>
			<path class="st0" d="M215.255,167.388c-1.424,0-2.578,1.154-2.578,2.578s1.154,2.578,2.578,2.578
				c1.424,0,2.578-1.154,2.578-2.578S216.678,167.388,215.255,167.388z"/>
		</g>
	</g>
	<g>
		<g>
			<path class="st19" d="M191.455,174.309c-2.452,0-4.44,1.486-4.44,3.319c0,1.833,1.988,3.319,4.44,3.319
				c2.452,0,4.44-1.486,4.44-3.319C195.896,175.796,193.907,174.309,191.455,174.309z"/>
		</g>
	</g>
	<g>
		<g>
			<path class="st19" d="M220.406,174.309c-2.452,0-4.44,1.486-4.44,3.319c0,1.833,1.988,3.319,4.44,3.319
				c2.452,0,4.44-1.486,4.44-3.319C224.847,175.796,222.859,174.309,220.406,174.309z"/>
		</g>
	</g>
	<g>
		<g>
			<path class="st0" d="M213.753,185.738c-0.777-0.292-1.64,0.103-1.931,0.879c-0.537,1.434-2.549,3.568-5.892,3.568
				c-2.857,0-4.746-1.171-5.943-3.687c-0.356-0.748-1.252-1.065-1.999-0.71c-0.748,0.356-1.066,1.251-0.71,1.999
				c1.705,3.581,4.616,5.398,8.652,5.398c4.56,0,7.707-2.859,8.702-5.516C214.922,186.893,214.529,186.029,213.753,185.738z"/>
		</g>
	</g>
	<g>
		<g>
			<path class="st7" d="M47.431,26.214c-0.974,11.564-13.025,13.39-13.025,13.39c10.347,0.487,12.925,14.059,12.925,14.059
				c0.221-9.677,13.321-14.202,13.321-14.202C50.839,38.873,47.431,26.214,47.431,26.214z"/>
		</g>
	</g>
	<g>
		<g>
			<path class="st0" d="M60.743,37.963c-8.605-0.515-11.832-12.024-11.864-12.141c-0.191-0.703-0.866-1.169-1.583-1.102
				c-0.725,0.066-1.298,0.642-1.359,1.367c-0.86,10.215-11.314,11.964-11.755,12.033c-0.763,0.115-1.313,0.79-1.273,1.56
				c0.04,0.77,0.657,1.384,1.428,1.421c9.028,0.425,11.499,12.718,11.523,12.842c0.137,0.711,0.759,1.217,1.472,1.217
				c0.042,0,0.085-0.002,0.126-0.005c0.764-0.064,1.357-0.693,1.375-1.459c0.195-8.509,12.192-12.777,12.313-12.819
				c0.675-0.235,1.092-0.914,0.994-1.622C62.04,38.547,61.456,38.006,60.743,37.963z M47.176,48.309
				c-1.357-3.13-3.709-6.907-7.587-8.876c2.931-1.404,6.409-3.913,8.202-8.273c1.551,3.071,4.199,6.88,8.334,8.723
				C53.118,41.522,49.203,44.288,47.176,48.309z"/>
		</g>
	</g>
	<g>
		<g>
			<path class="st7" d="M25.732,43.195c-0.689,8.179-9.212,9.47-9.212,9.47c7.318,0.344,9.142,9.944,9.142,9.944
				c0.156-6.844,9.422-10.045,9.422-10.045C28.143,52.149,25.732,43.195,25.732,43.195z"/>
		</g>
	</g>
	<g>
		<g>
			<path class="st0" d="M35.173,51.066c-5.766-0.345-7.972-8.185-7.993-8.264c-0.19-0.702-0.855-1.169-1.582-1.102
				c-0.725,0.065-1.299,0.642-1.36,1.368c-0.579,6.871-7.646,8.067-7.942,8.114c-0.763,0.115-1.313,0.79-1.273,1.561
				c0.04,0.77,0.657,1.384,1.428,1.421c6.035,0.284,7.723,8.643,7.739,8.725c0.135,0.713,0.759,1.22,1.472,1.22
				c0.042,0,0.083-0.002,0.125-0.005c0.765-0.063,1.358-0.694,1.376-1.461c0.13-5.709,8.332-8.634,8.412-8.662
				c0.677-0.234,1.094-0.913,0.996-1.622C36.473,51.651,35.888,51.109,35.173,51.066z M25.589,57.862
				c-0.924-1.886-2.34-3.947-4.447-5.28c1.856-1.041,3.697-2.63,4.871-4.916c1.057,1.874,2.654,3.954,4.941,5.223
				C29.104,53.99,26.965,55.629,25.589,57.862z"/>
		</g>
	</g>
	<g>
		<g>
			<path class="st7" d="M25.732,16.537c-0.689,8.179-9.212,9.471-9.212,9.471c7.318,0.344,9.142,9.944,9.142,9.944
				c0.156-6.845,9.422-10.045,9.422-10.045C28.143,25.491,25.732,16.537,25.732,16.537z"/>
		</g>
	</g>
	<g>
		<g>
			<path class="st0" d="M35.174,24.409c-5.766-0.345-7.972-8.186-7.994-8.265c-0.19-0.702-0.855-1.17-1.582-1.102
				c-0.725,0.065-1.299,0.642-1.36,1.368c-0.579,6.871-7.646,8.067-7.942,8.114c-0.763,0.115-1.313,0.79-1.273,1.56
				c0.04,0.77,0.657,1.384,1.427,1.421c6.035,0.284,7.724,8.644,7.739,8.726c0.135,0.712,0.759,1.22,1.472,1.22
				c0.042,0,0.083-0.001,0.125-0.005c0.765-0.064,1.358-0.694,1.376-1.461c0.13-5.709,8.331-8.634,8.412-8.662
				c0.676-0.234,1.094-0.913,0.996-1.622C36.473,24.994,35.888,24.452,35.174,24.409z M25.589,31.205
				c-0.924-1.886-2.34-3.947-4.447-5.28c1.856-1.042,3.697-2.63,4.871-4.917c1.057,1.874,2.654,3.954,4.941,5.224
				C29.104,27.333,26.965,28.972,25.589,31.205z"/>
		</g>
	</g>
	<g>
		<g>
			<path class="st0" d="M128.054,71.776c-0.829,0-1.5,0.671-1.5,1.5v71.12c0,0.829,0.671,1.5,1.5,1.5c0.829,0,1.5-0.671,1.5-1.5
				v-71.12C129.554,72.448,128.882,71.776,128.054,71.776z"/>
		</g>
	</g>
	<g>
		<g>
			<path class="st0" d="M210.554,112.276h-165c-0.829,0-1.5,0.671-1.5,1.5v30.814c0,0.829,0.671,1.5,1.5,1.5
				c0.829,0,1.5-0.671,1.5-1.5v-29.314h162v29.314c0,0.829,0.671,1.5,1.5,1.5c0.829,0,1.5-0.671,1.5-1.5v-30.814
				C212.054,112.948,211.382,112.276,210.554,112.276z"/>
		</g>
	</g>
	<g>
		<g>
			<path class="st4" d="M233.574,164.133c0-14.422-12.229-26.113-27.313-26.113c-15.085,0-27.313,11.691-27.313,26.114
				c0,1.526,0.276,2.663,0.789,4.085c0.242,0.67,4.153-1.47,4.486-1.704c1.665-1.172,3.026-2.762,4.043-4.519
				c0.42-0.73,0.771-1.474,1.054-2.217c0.9-2.372,3.346-8.973,5.83-8.455c3.331,0.694,7.106,1.087,11.111,1.087
				c4.005,0,7.78-0.392,11.111-1.087c2.484-0.518,4.93,6.083,5.83,8.455c0.282,0.744,0.633,1.487,1.054,2.218
				c1.68,2.906,4.518,5.673,7.971,6.177c0.009-0.167,0.219-0.224,0.376-0.281C233.733,167.481,233.574,165.039,233.574,164.133z"/>
		</g>
	</g>
	<g>
		<g>
			<path class="st0" d="M235.077,164.416l-0.003-0.284c0-15.226-12.926-27.613-28.814-27.613s-28.813,12.388-28.813,27.614
				c0,1.794,0.351,3.134,0.878,4.594c0.178,0.494,0.574,0.869,1.086,1.031c0.158,0.05,0.337,0.072,0.532,0.072
				c1.857,0,5.109-2.066,5.143-2.09c1.751-1.233,3.3-2.96,4.48-4.997c0.452-0.785,0.84-1.604,1.155-2.434l0.058-0.151
				c2.509-6.62,3.775-7.311,4.064-7.368c3.56,0.742,7.401,1.119,11.417,1.119c4.016,0,7.857-0.376,11.378-1.116
				c0.328,0.054,1.594,0.746,4.104,7.365l0.058,0.151c0.315,0.831,0.705,1.65,1.157,2.436c2.21,3.823,5.594,6.406,9.053,6.911
				c0.419,0.061,0.843-0.057,1.169-0.326c0.039-0.032,0.075-0.065,0.11-0.1C235.136,168.407,235.098,165.823,235.077,164.416z
				 M231.909,166.55c-0.019,0.007-0.037,0.015-0.054,0.023c-2.361-0.576-4.681-2.525-6.299-5.327
				c-0.373-0.646-0.692-1.319-0.951-2.001l-0.057-0.15c-1.971-5.199-4.238-9.914-7.483-9.241c-3.359,0.7-6.994,1.055-10.805,1.055
				c-3.81,0-7.445-0.355-10.804-1.055c-3.246-0.682-5.511,4.042-7.482,9.241l-0.057,0.15c-0.259,0.681-0.579,1.354-0.949,1.998
				c-0.962,1.66-2.21,3.059-3.589,4.03c-0.41,0.265-1.693,0.929-2.6,1.306c-0.214-0.769-0.332-1.518-0.332-2.447
				c0-13.572,11.579-24.614,25.813-24.614s25.814,11.042,25.814,24.613l0.003,0.328C232.093,165.542,232.037,166.243,231.909,166.55
				z M233.012,169.338l-0.541-1.399l0.639,1.352C233.075,169.31,233.042,169.326,233.012,169.338z"/>
		</g>
	</g>
	<g>
		<g>
			<path class="st0" d="M227.532,227.127c-0.829,0-1.5,0.671-1.5,1.5v10.836c0,0.829,0.671,1.5,1.5,1.5c0.829,0,1.5-0.671,1.5-1.5
				v-10.836C229.032,227.799,228.36,227.127,227.532,227.127z"/>
		</g>
	</g>
	<g>
		<g>
			<path class="st0" d="M184.99,227.127c-0.829,0-1.5,0.671-1.5,1.5v10.836c0,0.829,0.671,1.5,1.5,1.5s1.5-0.671,1.5-1.5v-10.836
				C186.49,227.799,185.819,227.127,184.99,227.127z"/>
		</g>
	</g>
	<g>
		<g>
			<path class="st24" d="M206.728,128.946c-15.735,0-21.401,5.996-21.401,13.392c0,7.396,5.666,13.392,21.401,13.392
				s28.491-13.392,28.491-13.392S222.463,128.946,206.728,128.946z"/>
		</g>
	</g>
	<g>
		<g>
			<path class="st0" d="M236.305,141.303c-0.539-0.566-13.386-13.857-29.578-13.857c-19.926,0-22.901,9.331-22.901,14.892
				c0,5.562,2.975,14.893,22.901,14.893c16.192,0,29.039-13.292,29.578-13.858C236.857,142.793,236.857,141.883,236.305,141.303z
				 M206.727,154.231c-9.079,0-19.901-2.064-19.901-11.893s10.822-11.892,19.901-11.892c12.363,0,23.006,8.824,26.332,11.892
				C229.733,145.406,219.09,154.231,206.727,154.231z"/>
		</g>
	</g>
	<g>
		<g>
			<rect x="99.353" y="165.397" class="st4" width="56.636" height="64.825"/>
		</g>
	</g>
	<g>
		<g>
			<path class="st0" d="M155.99,163.897H99.354c-0.829,0-1.5,0.671-1.5,1.5v64.825c0,0.829,0.671,1.5,1.5,1.5h56.636
				c0.829,0,1.5-0.671,1.5-1.5v-64.825C157.49,164.568,156.818,163.897,155.99,163.897z M154.49,228.722h-53.636v-61.825h53.636
				V228.722z"/>
		</g>
	</g>
	<g>
		<g>
			<path class="st8" d="M146.442,217.473h-9.995v-6.496c-2.764,1.917-5.625,3.047-8.401,3.047c-2.663,0-5.473-1.142-8.226-3.082
				h-0.169v6.53H109.65c-8.355,0-15.128,6.773-15.128,15.128v6.862h67.048v-6.862C161.571,224.246,154.798,217.473,146.442,217.473z
				"/>
		</g>
	</g>
	<g>
		<g>
			<path class="st0" d="M146.442,215.973h-8.495v-4.996c0-0.558-0.31-1.07-0.804-1.329c-0.494-0.258-1.091-0.222-1.55,0.096
				c-2.661,1.845-5.2,2.78-7.546,2.78c-2.24,0-4.717-0.945-7.362-2.808c-0.253-0.178-0.555-0.274-0.864-0.274h-0.169
				c-0.829,0-1.5,0.671-1.5,1.5v5.03h-8.501c-9.169,0-16.628,7.46-16.628,16.628v6.862c0,0.829,0.671,1.5,1.5,1.5h67.049
				c0.829,0,1.5-0.671,1.5-1.5v-6.862C163.071,223.433,155.611,215.973,146.442,215.973z M160.071,237.963H96.022v-5.362
				c0-7.515,6.114-13.628,13.628-13.628h10.001c0.829,0,1.5-0.671,1.5-1.5v-3.925c2.383,1.313,4.694,1.977,6.895,1.977
				c2.231,0,4.543-0.629,6.901-1.875v3.824c0,0.829,0.671,1.5,1.5,1.5h9.995c7.515,0,13.628,6.113,13.628,13.628V237.963z"/>
		</g>
	</g>
	<g>
		<g>
			<path class="st16" d="M146.443,217.469h-2.391l0.062,0.045l-10.396,13.789l-5.365-4.042l-5.365,4.042l-10.396-13.789l0.062-0.045
				h-3.002c-8.356,0-15.128,6.773-15.128,15.128v6.866h67.049v-6.866C161.571,224.242,154.798,217.469,146.443,217.469z"/>
		</g>
	</g>
	<g>
		<g>
			<path class="st0" d="M146.442,215.968h-2.391c-0.598,0-1.107,0.373-1.341,0.914l-9.289,12.319l-4.167-3.14
				c-0.535-0.402-1.271-0.402-1.805,0l-4.168,3.14l-9.207-12.211c-0.205-0.611-0.777-1.023-1.422-1.023h-3.002
				c-9.169,0-16.628,7.459-16.628,16.629v6.866c0,0.829,0.671,1.5,1.5,1.5h67.048c0.829,0,1.5-0.671,1.5-1.5v-6.866
				C163.071,223.428,155.611,215.968,146.442,215.968z M160.071,237.963H96.023v-5.366c0-7.515,6.113-13.629,13.628-13.629h2.158
				l9.98,13.237c0.5,0.662,1.439,0.793,2.1,0.295l4.463-3.362l4.462,3.362c0.662,0.498,1.601,0.366,2.101-0.295l9.98-13.237h1.547
				c7.515,0,13.628,6.114,13.628,13.629V237.963z"/>
		</g>
	</g>
	<g>
		<g>
			<path class="st4" d="M112.59,217.51l0.06-0.04h-3c-8.35,0-15.13,6.77-15.13,15.13v6.86h26.94L112.59,217.51z"/>
		</g>
	</g>
	<g>
		<g>
			<path class="st0" d="M122.851,238.898l-8.705-21.542c-0.008-0.106-0.027-0.212-0.059-0.317c-0.19-0.635-0.774-1.069-1.437-1.069
				h-3c-9.17,0-16.63,7.46-16.63,16.63v6.86c0,0.829,0.671,1.5,1.5,1.5h26.94c0.498,0,0.965-0.248,1.244-0.661
				C122.982,239.885,123.038,239.36,122.851,238.898z M96.02,237.96v-5.36c0-7.516,6.114-13.63,13.63-13.63h1.912l7.674,18.99H96.02
				z"/>
		</g>
	</g>
	<g>
		<g>
			<path class="st4" d="M146.44,217.47h-2.39l0.06,0.04l-8.87,21.95h26.33v-6.86C161.57,224.24,154.8,217.47,146.44,217.47z"/>
		</g>
	</g>
	<g>
		<g>
			<path class="st0" d="M146.44,215.97h-2.39c-0.663,0-1.217,0.455-1.407,1.089c-0.018,0.059-0.031,0.118-0.041,0.178l-8.753,21.66
				c-0.187,0.463-0.132,0.987,0.147,1.401c0.279,0.413,0.745,0.661,1.244,0.661h26.33c0.829,0,1.5-0.671,1.5-1.5v-6.86
				C163.07,223.43,155.61,215.97,146.44,215.97z M160.07,237.96h-22.605l7.673-18.99h1.302c7.516,0,13.63,6.114,13.63,13.63V237.96z
				"/>
		</g>
	</g>
	<g>
		<g>
			
				<ellipse transform="matrix(0.7071 -0.7071 0.7071 0.7071 -97.3632 124.8861)" class="st30" cx="102.069" cy="179.971" rx="5.953" ry="5.953"/>
		</g>
	</g>
	<g>
		<g>
			<path class="st0" d="M102.069,172.518c-4.109,0-7.453,3.343-7.453,7.453s3.343,7.453,7.453,7.453
				c4.109,0,7.453-3.343,7.453-7.453S106.179,172.518,102.069,172.518z M102.069,184.423c-2.455,0-4.453-1.997-4.453-4.453
				s1.998-4.453,4.453-4.453c2.455,0,4.453,1.997,4.453,4.453S104.524,184.423,102.069,184.423z"/>
		</g>
	</g>
	<g>
		<g>
			
				<rect x="117.11" y="213.743" transform="matrix(0.7986 -0.6019 0.6019 0.7986 -109.574 117.2993)" class="st16" width="6.746" height="17.269"/>
		</g>
	</g>
	<g>
		<g>
			<path class="st0" d="M129.572,226.339l-10.394-13.791c-0.499-0.662-1.439-0.794-2.101-0.295l-5.387,4.06
				c-0.662,0.498-0.793,1.439-0.295,2.101l10.393,13.79c0.295,0.391,0.744,0.597,1.199,0.597c0.315,0,0.631-0.098,0.902-0.302
				l5.388-4.06c0.318-0.239,0.527-0.595,0.582-0.989C129.915,227.057,129.811,226.657,129.572,226.339z M123.281,229.202
				l-8.588-11.395l2.992-2.254l8.588,11.395L123.281,229.202z"/>
		</g>
	</g>
	<g>
		<g>
			
				<rect x="127.586" y="219.004" transform="matrix(0.6019 -0.7986 0.7986 0.6019 -123.3559 197.3238)" class="st16" width="17.269" height="6.746"/>
		</g>
	</g>
	<g>
		<g>
			<path class="st0" d="M145.596,217.303c-0.055-0.394-0.265-0.75-0.583-0.989l-5.388-4.06c-0.662-0.5-1.603-0.367-2.101,0.295
				l-10.393,13.791c-0.498,0.662-0.367,1.602,0.295,2.1l5.387,4.06c0.271,0.204,0.587,0.302,0.902,0.302
				c0.455,0,0.904-0.206,1.199-0.597l10.394-13.79C145.548,218.097,145.651,217.697,145.596,217.303z M133.422,229.202l-2.992-2.254
				l8.587-11.395l2.992,2.254L133.422,229.202z"/>
		</g>
	</g>
	<g>
		<g>
			
				<ellipse transform="matrix(0.9966 -0.0825 0.0825 0.9966 -14.3084 13.3155)" class="st30" cx="154.011" cy="179.84" rx="5.953" ry="5.953"/>
		</g>
	</g>
	<g>
		<g>
			<path class="st0" d="M154.011,172.388c-4.109,0-7.453,3.343-7.453,7.453c0,4.109,3.343,7.453,7.453,7.453
				c4.109,0,7.453-3.343,7.453-7.453C161.463,175.731,158.12,172.388,154.011,172.388z M154.011,184.293
				c-2.455,0-4.453-1.998-4.453-4.453c0-2.455,1.998-4.453,4.453-4.453c2.455,0,4.453,1.998,4.453,4.453
				C158.463,182.295,156.466,184.293,154.011,184.293z"/>
		</g>
	</g>
	<g>
		<g>
			<path class="st8" d="M128.047,150.693c-14.574,0-26.389,11.815-26.389,26.389c0,14.574,14.598,36.944,26.389,36.944
				c12.353,0,26.389-22.37,26.389-36.944C154.436,162.507,142.622,150.693,128.047,150.693z"/>
		</g>
	</g>
	<g>
		<g>
			<path class="st0" d="M128.047,149.192c-15.378,0-27.889,12.511-27.889,27.889c0,15.179,14.958,38.444,27.889,38.444
				c13.198,0,27.889-22.915,27.889-38.444C155.936,161.704,143.425,149.192,128.047,149.192z M128.047,212.525
				c-10.984,0-24.889-21.976-24.889-35.444c0-13.724,11.165-24.889,24.889-24.889c13.724,0,24.889,11.165,24.889,24.889
				C152.936,190.755,139.346,212.525,128.047,212.525z"/>
		</g>
	</g>
	<g>
		<g>
			<path class="st0" d="M118.731,174.208c-1.422,0-2.576,1.153-2.576,2.576c0,1.423,1.153,2.576,2.576,2.576
				s2.576-1.153,2.576-2.576C121.306,175.361,120.153,174.208,118.731,174.208z"/>
		</g>
	</g>
	<g>
		<g>
			<path class="st0" d="M137.364,174.208c-1.423,0-2.576,1.153-2.576,2.576c0,1.423,1.153,2.576,2.576,2.576
				c1.423,0,2.576-1.153,2.576-2.576C139.94,175.361,138.787,174.208,137.364,174.208z"/>
		</g>
	</g>
	<g>
		<g>
			<path class="st19" d="M113.583,181.124c-2.45,0-4.437,1.485-4.437,3.317s1.987,3.317,4.437,3.317
				c2.451,0,4.437-1.485,4.437-3.317S116.033,181.124,113.583,181.124z"/>
		</g>
	</g>
	<g>
		<g>
			<path class="st19" d="M142.512,181.124c-2.45,0-4.437,1.485-4.437,3.317s1.986,3.317,4.437,3.317
				c2.451,0,4.437-1.485,4.437-3.317S144.962,181.124,142.512,181.124z"/>
		</g>
	</g>
	<g>
		<g>
			<path class="st0" d="M135.865,192.543c-0.773-0.291-1.64,0.102-1.931,0.878c-0.537,1.433-2.548,3.565-5.887,3.565
				c-2.854,0-4.741-1.17-5.937-3.683c-0.355-0.748-1.252-1.065-1.999-0.71c-0.748,0.356-1.066,1.251-0.71,1.999
				c1.704,3.579,4.612,5.394,8.646,5.394c4.556,0,7.702-2.857,8.697-5.512C137.034,193.698,136.641,192.834,135.865,192.543z"/>
		</g>
	</g>
	<g>
		<g>
			<path class="st4" d="M149.76,146.517c-5.544-5.858-13.392-9.512-22.09-9.512c-3.253,0-6.385,0.511-9.32,1.462
				c2.324,5.391,5.072,10.567,8.814,15.073c1.72,2.066,3.627,3.973,5.644,5.742c1.643,1.462,3.363,2.841,5.11,4.165
				c5.957,4.522,12.386,8.523,19.145,11.781c0.665-2.495,1.017-5.116,1.017-7.819C158.079,159.315,154.92,151.963,149.76,146.517z"
				/>
		</g>
	</g>
	<g>
		<g>
			<path class="st0" d="M150.849,145.486c-6.092-6.436-14.324-9.98-23.179-9.98c-3.349,0-6.64,0.516-9.782,1.535
				c-0.402,0.13-0.73,0.423-0.904,0.808c-0.174,0.385-0.178,0.825-0.011,1.212c2.787,6.463,5.658,11.369,9.038,15.44
				c1.67,2.006,3.625,3.995,5.799,5.903c1.517,1.35,3.218,2.736,5.2,4.24c6.189,4.699,12.716,8.715,19.401,11.938
				c0.206,0.099,0.428,0.149,0.651,0.149c0.213,0,0.427-0.045,0.626-0.137c0.406-0.186,0.708-0.545,0.823-0.977
				c0.708-2.656,1.067-5.417,1.067-8.206C159.58,159.213,156.479,151.427,150.849,145.486z M156.03,173.047
				c-5.917-2.986-11.697-6.612-17.206-10.795c-1.92-1.456-3.562-2.794-5.027-4.098c-2.065-1.813-3.909-3.688-5.479-5.573
				c-2.918-3.514-5.451-7.724-7.905-13.155c2.354-0.612,4.787-0.921,7.257-0.921c8.023,0,15.481,3.211,21.001,9.043
				c5.1,5.382,7.909,12.436,7.909,19.861C156.58,169.314,156.395,171.203,156.03,173.047z"/>
		</g>
	</g>
	<g>
		<g>
			<path class="st4" d="M127.67,137.005c-3.253,0-6.385,0.511-9.32,1.462c-12.232,3.929-21.085,15.403-21.085,28.943
				c0,2.863,0.396,5.632,1.137,8.259c11.996-4.402,23.717-9.688,34.405-16.386c6.028-3.775,11.721-7.995,16.952-12.765
				C144.215,140.659,136.368,137.005,127.67,137.005z"/>
		</g>
	</g>
	<g>
		<g>
			<path class="st0" d="M150.849,145.486c-6.092-6.436-14.324-9.98-23.179-9.98c-3.349,0-6.64,0.516-9.779,1.533
				c-13.234,4.251-22.126,16.456-22.126,30.371c0,2.944,0.402,5.86,1.194,8.667c0.113,0.402,0.389,0.738,0.761,0.928
				c0.213,0.109,0.447,0.164,0.682,0.164c0.174,0,0.35-0.03,0.517-0.092c13.507-4.956,24.853-10.361,34.684-16.523
				c6.332-3.965,12.107-8.314,17.167-12.928c0.297-0.271,0.474-0.651,0.488-1.053C151.273,146.17,151.126,145.778,150.849,145.486z
				 M132.011,158.011c-9.274,5.813-19.939,10.946-32.563,15.67c-0.454-2.049-0.684-4.152-0.684-6.272
				c0-12.607,8.055-23.664,20.047-27.516c2.843-0.921,5.823-1.388,8.857-1.388c7.507,0,14.52,2.811,19.913,7.951
				C142.94,150.561,137.708,154.443,132.011,158.011z"/>
		</g>
	</g>
	<g>
		<g>
			<path class="st7" d="M128.047,16.537c-7.469,0-14.429,2.164-20.304,5.886L97.455,32c-4.654,6.306-7.408,14.099-7.408,22.538
				c0,20.987,17.013,38,38,38c20.987,0,38-17.013,38-38C166.047,33.55,149.033,16.537,128.047,16.537z"/>
		</g>
	</g>
	<g>
		<g>
			<path class="st0" d="M128.046,15.037c-7.491,0-14.79,2.116-21.107,6.119c-0.7,0.443-0.908,1.37-0.464,2.07
				c0.443,0.699,1.37,0.908,2.07,0.464c5.837-3.698,12.58-5.653,19.501-5.653c20.126,0,36.5,16.374,36.5,36.5
				s-16.374,36.5-36.5,36.5s-36.5-16.374-36.5-36.5c0-7.854,2.46-15.339,7.115-21.647c0.492-0.667,0.35-1.606-0.316-2.098
				c-0.667-0.491-1.606-0.35-2.098,0.316c-5.038,6.828-7.701,14.929-7.701,23.428c0,21.78,17.72,39.5,39.5,39.5
				c21.78,0,39.5-17.72,39.5-39.5S149.827,15.037,128.046,15.037z"/>
		</g>
	</g>
	<g>
		<g>
			<path class="st4" d="M132.565,50.24c-5.534-2.083-7.814-3.45-7.814-5.599c0-1.822,1.367-3.646,5.6-3.646
				c4.687,0,7.683,1.497,9.375,2.214l1.888-7.357c-2.149-1.042-5.079-1.955-9.441-2.149v-5.73h-6.381v6.185
				c-6.967,1.367-11.003,5.86-11.003,11.59c0,6.316,4.753,9.572,11.719,11.915c4.818,1.628,6.902,3.191,6.902,5.664
				c0,2.605-2.54,4.037-6.25,4.037c-4.232,0-8.073-1.367-10.808-2.864l-1.953,7.617c2.474,1.432,6.706,2.604,11.068,2.8v6.185h6.381
				V74.46c7.488-1.301,11.59-6.25,11.59-12.045C143.438,56.556,140.312,52.975,132.565,50.24z"/>
		</g>
	</g>
	<g>
		<g>
			<path class="st0" d="M133.093,48.836c-4.923-1.853-6.842-3.03-6.842-4.196c0-1.867,2.568-2.146,4.1-2.146
				c3.966,0,6.576,1.134,8.303,1.885l0.487,0.21c0.403,0.17,0.858,0.157,1.25-0.037c0.392-0.193,0.679-0.548,0.788-0.971
				l1.888-7.356c0.178-0.691-0.156-1.412-0.798-1.723c-2.477-1.201-5.3-1.927-8.595-2.206v-4.323c0-0.829-0.671-1.5-1.5-1.5h-6.381
				c-0.829,0-1.5,0.671-1.5,1.5v4.987c-6.821,1.757-11.003,6.57-11.003,12.788c0,8.023,6.809,11.342,12.74,13.336
				c5.169,1.746,5.881,3.071,5.881,4.243c0,2.415-3.957,2.538-4.75,2.538c-4.518,0-8.259-1.679-10.088-2.68
				c-0.407-0.223-0.893-0.245-1.317-0.06c-0.425,0.185-0.741,0.555-0.856,1.003l-1.953,7.617c-0.167,0.651,0.12,1.334,0.702,1.671
				c2.545,1.473,6.4,2.547,10.319,2.902v4.784c0,0.829,0.671,1.5,1.5,1.5h6.381c0.829,0,1.5-0.671,1.5-1.5v-5.418
				c7.084-1.68,11.59-6.78,11.59-13.268C144.938,55.827,141.386,51.763,133.093,48.836z M131.591,72.982
				c-0.719,0.125-1.243,0.749-1.243,1.478v5.141h-3.381v-4.685c0-0.802-0.631-1.462-1.433-1.498
				c-3.39-0.152-6.928-0.949-9.386-2.085l1.196-4.666c2.324,1.047,5.793,2.197,9.816,2.197c4.708,0,7.75-2.174,7.75-5.538
				c0-3.875-3.807-5.695-7.923-7.086c-7.499-2.522-10.698-5.66-10.698-10.494c0-5.132,3.661-8.914,9.792-10.118
				c0.704-0.138,1.211-0.755,1.211-1.472v-4.685h3.381v4.23c0,0.802,0.631,1.463,1.433,1.499c2.987,0.133,5.533,0.628,7.739,1.509
				l-1.138,4.434c-1.878-0.761-4.613-1.649-8.357-1.649c-5.234,0-7.1,2.658-7.1,5.146c0,3.425,3.808,5.13,8.814,7.014
				c8.193,2.892,9.872,6.393,9.872,10.761C141.938,67.824,137.973,71.874,131.591,72.982z"/>
		</g>
	</g>
	<g>
		<g>
			<path class="st31" d="M128.047,18.036c-2.75,0-5.43,0.31-8,0.89c16.3,3.65,28.5,18.23,28.5,35.61c0,17.38-12.2,31.96-28.5,35.61
				c2.57,0.58,5.25,0.89,8,0.89c20.13,0,36.5-16.37,36.5-36.5C164.547,34.406,148.177,18.036,128.047,18.036z"/>
		</g>
	</g>
	<g>
		<g>
			<path class="st0" d="M107.081,227.085c-0.829,0-1.5,0.671-1.5,1.5v10.878c0,0.829,0.671,1.5,1.5,1.5c0.829,0,1.5-0.671,1.5-1.5
				v-10.878C108.581,227.756,107.91,227.085,107.081,227.085z"/>
		</g>
	</g>
	<g>
		<g>
			<path class="st0" d="M149.012,227.127c-0.829,0-1.5,0.671-1.5,1.5v10.836c0,0.829,0.671,1.5,1.5,1.5s1.5-0.671,1.5-1.5v-10.836
				C150.512,227.799,149.841,227.127,149.012,227.127z"/>
		</g>
	</g>
	<g>
		<g>
			<path class="st15" d="M68.48,210.686H58.477v-6.501c-2.767,1.918-5.63,3.05-8.407,3.05c-2.665,0-5.477-1.143-8.232-3.084h-0.17
				v6.535H31.66c-8.362,0-15.14,6.778-15.14,15.14v13.72h67.1v-13.72C83.62,217.464,76.842,210.686,68.48,210.686z"/>
		</g>
	</g>
	<g>
		<g>
			<path class="st0" d="M68.48,209.187h-8.503v-5.001c0-0.558-0.31-1.07-0.804-1.329c-0.494-0.258-1.092-0.222-1.55,0.096
				c-2.664,1.847-5.205,2.783-7.553,2.783c-2.242,0-4.721-0.945-7.368-2.81c-0.253-0.178-0.555-0.274-0.864-0.274h-0.169
				c-0.829,0-1.5,0.671-1.5,1.5v5.035H31.66c-9.175,0-16.64,7.464-16.64,16.64v13.72c0,0.829,0.671,1.5,1.5,1.5h67.1
				c0.829,0,1.5-0.671,1.5-1.5v-13.72C85.12,216.651,77.655,209.187,68.48,209.187z M82.12,238.046h-64.1v-12.22
				c0-7.521,6.119-13.64,13.64-13.64h10.009c0.829,0,1.5-0.671,1.5-1.5v-3.93c2.385,1.315,4.699,1.979,6.901,1.979
				c2.232,0,4.547-0.63,6.908-1.878v3.829c0,0.829,0.671,1.5,1.5,1.5H68.48c7.521,0,13.64,6.119,13.64,13.64V238.046z"/>
		</g>
	</g>
	<g>
		<g>
			<path class="st3" d="M68.48,210.68h-2.392l0.061,0.049l-10.404,13.795l-5.37-4.042l-5.37,4.042l-10.404-13.795l0.061-0.049
				h-3.001c-8.365,0-15.141,6.782-15.141,15.14v13.728h67.1V225.82C83.62,217.462,76.844,210.68,68.48,210.68z"/>
		</g>
	</g>
	<g>
		<g>
			<path class="st0" d="M68.479,209.18h-2.392c-0.597,0-1.106,0.375-1.341,0.917l-9.297,12.328l-4.172-3.141
				c-0.534-0.402-1.271-0.402-1.805,0l-4.172,3.141l-9.216-12.221c-0.003-0.006-0.004-0.013-0.007-0.019
				c-0.21-0.602-0.778-1.004-1.415-1.004h-3.001c-9.176,0-16.641,7.465-16.641,16.64v13.729c0,0.829,0.671,1.5,1.5,1.5h67.1
				c0.829,0,1.5-0.671,1.5-1.5V225.82C85.12,216.645,77.655,209.18,68.479,209.18z M82.12,238.049h-64.1V225.82
				c0-7.521,6.119-13.64,13.641-13.64h2.156l9.99,13.247c0.499,0.661,1.439,0.793,2.1,0.295l4.467-3.363l4.467,3.363
				c0.662,0.498,1.602,0.366,2.1-0.295l9.99-13.247h1.547c7.521,0,13.641,6.119,13.641,13.64V238.049z"/>
		</g>
	</g>
	<g>
		<g>
			<path class="st4" d="M34.602,210.729l0.06-0.05h-3.004c-8.363,0-15.139,6.781-15.139,15.144v13.727h28.329L34.602,210.729z"/>
		</g>
	</g>
	<g>
		<g>
			<path class="st0" d="M46.262,239.047l-10.1-28.408c-0.004-0.156-0.033-0.314-0.087-0.466c-0.214-0.596-0.779-0.994-1.412-0.994
				h-3.004c-9.175,0-16.639,7.466-16.639,16.644v13.727c0,0.829,0.671,1.5,1.5,1.5h28.329c0.487,0,0.944-0.237,1.226-0.635
				C46.355,240.017,46.425,239.506,46.262,239.047z M18.02,238.05v-12.227c0-7.523,6.118-13.644,13.639-13.644h1.867l9.197,25.871
				H18.02z"/>
		</g>
	</g>
	<g>
		<g>
			<path class="st4" d="M68.481,210.679h-2.396l0.065,0.05L55.904,239.55H83.62v-13.727C83.62,217.46,76.844,210.679,68.481,210.679
				z"/>
		</g>
	</g>
	<g>
		<g>
			<path class="st0" d="M68.481,209.179h-2.396c-0.644,0-1.183,0.435-1.389,1.045c-0.033,0.099-0.055,0.2-0.065,0.301l-10.14,28.522
				c-0.164,0.459-0.093,0.969,0.188,1.367c0.281,0.398,0.738,0.635,1.226,0.635H83.62c0.829,0,1.5-0.671,1.5-1.5v-13.727
				C85.12,216.646,77.656,209.179,68.481,209.179z M82.12,238.05h-24.09l9.197-25.871h1.254c7.52,0,13.639,6.121,13.639,13.644
				V238.05z"/>
		</g>
	</g>
	<g>
		<g>
			
				<ellipse transform="matrix(0.9732 -0.2298 0.2298 0.9732 -39.1388 10.1628)" class="st17" cx="24.073" cy="173.155" rx="5.957" ry="5.957"/>
		</g>
	</g>
	<g>
		<g>
			<path class="st0" d="M24.073,165.698c-4.112,0-7.457,3.345-7.457,7.457c0,4.112,3.345,7.457,7.457,7.457
				c4.112,0,7.457-3.345,7.457-7.457C31.53,169.044,28.185,165.698,24.073,165.698z M24.073,177.613c-2.458,0-4.457-2-4.457-4.457
				c0-2.458,1.999-4.457,4.457-4.457c2.458,0,4.457,2,4.457,4.457C28.53,175.613,26.531,177.613,24.073,177.613z"/>
		</g>
	</g>
	<g>
		<g>
			
				<ellipse transform="matrix(0.2298 -0.9732 0.9732 0.2298 -109.9312 207.4067)" class="st17" cx="76.069" cy="173.155" rx="5.957" ry="5.957"/>
		</g>
	</g>
	<g>
		<g>
			<path class="st0" d="M76.069,165.698c-4.112,0-7.457,3.345-7.457,7.457c0,4.112,3.345,7.457,7.457,7.457
				c4.112,0,7.457-3.345,7.457-7.457C83.526,169.044,80.181,165.698,76.069,165.698z M76.069,177.613c-2.458,0-4.457-2-4.457-4.457
				c0-2.458,1.999-4.457,4.457-4.457c2.458,0,4.457,2,4.457,4.457C80.526,175.613,78.527,177.613,76.069,177.613z"/>
		</g>
	</g>
	<g>
		<g>
			<path class="st4" d="M77.708,156.247c0-7.022-2.898-13.396-7.615-18.097c0.286,0.819,0.437,1.647,0.437,2.466
				c0,2.773-1.909,5.304-5.053,7.223c0.653,1.085,1.467,2.08,2.421,2.953c4.782,4.37,7.941,10.478,8.494,17.319
				c0.07-0.095,0.226-0.146,0.346-0.191C77.869,167.508,77.708,157.151,77.708,156.247z"/>
		</g>
	</g>
	<g>
		<g>
			<path class="st0" d="M79.21,156.562l-0.002-0.314c0-7.177-2.861-13.982-8.056-19.16c-0.496-0.494-1.267-0.579-1.858-0.207
				c-0.592,0.372-0.848,1.105-0.617,1.765c0.234,0.669,0.353,1.332,0.353,1.97c0,2.126-1.539,4.237-4.334,5.943
				c-0.704,0.43-0.929,1.347-0.504,2.054c0.729,1.211,1.634,2.316,2.694,3.287c4.659,4.257,7.503,10.058,8.01,16.332
				c0.05,0.625,0.483,1.151,1.085,1.322c0.136,0.039,0.273,0.057,0.41,0.057c0.32,0,0.633-0.103,0.891-0.293
				C78.367,168.922,79.296,168.472,79.21,156.562z M76.194,160.419c-1.53-4.062-4.006-7.739-7.282-10.733
				c-0.49-0.449-0.938-0.933-1.342-1.449c2.243-1.664,3.692-3.644,4.228-5.761c2.867,4.043,4.411,8.809,4.411,13.771l0.002,0.336
				C76.221,158.059,76.214,159.328,76.194,160.419z"/>
		</g>
	</g>
	<g>
		<g>
			<path class="st0" d="M29.088,227.204c-0.829,0-1.5,0.671-1.5,1.5v10.844c0,0.829,0.671,1.5,1.5,1.5s1.5-0.671,1.5-1.5v-10.844
				C30.588,227.875,29.917,227.204,29.088,227.204z"/>
		</g>
	</g>
	<g>
		<g>
			<path class="st0" d="M71.663,227.204c-0.829,0-1.5,0.671-1.5,1.5v10.844c0,0.829,0.671,1.5,1.5,1.5s1.5-0.671,1.5-1.5v-10.844
				C73.163,227.875,72.491,227.204,71.663,227.204z"/>
		</g>
	</g>
	<g>
		<g>
			<polygon class="st18" points="52.944,229.406 47.787,229.406 46.223,239.549 54.508,239.549 			"/>
		</g>
	</g>
	<g>
		<g>
			<path class="st0" d="M55.991,239.32l-1.565-10.143c-0.113-0.731-0.742-1.272-1.482-1.272h-5.156c-0.74,0-1.37,0.54-1.482,1.272
				L44.74,239.32c-0.067,0.433,0.059,0.873,0.344,1.205c0.285,0.332,0.701,0.523,1.139,0.523h8.286c0.438,0,0.854-0.191,1.139-0.523
				C55.932,240.193,56.058,239.753,55.991,239.32z M47.972,238.049l1.102-7.143h2.584l1.102,7.143H47.972z"/>
		</g>
	</g>
	<g>
		<g>
			<polygon class="st18" points="46.048,220.473 47.791,229.404 52.937,229.404 54.722,220.473 			"/>
		</g>
	</g>
	<g>
		<g>
			<path class="st0" d="M55.882,219.522c-0.285-0.347-0.711-0.549-1.16-0.549h-8.673c-0.448,0-0.873,0.2-1.158,0.546
				c-0.285,0.346-0.4,0.801-0.314,1.241l1.743,8.931c0.137,0.704,0.754,1.212,1.472,1.212h5.146c0.715,0,1.331-0.505,1.471-1.206
				l1.784-8.931C56.281,220.326,56.167,219.87,55.882,219.522z M51.708,227.904h-2.681l-1.157-5.931h5.023L51.708,227.904z"/>
		</g>
	</g>
	<g>
		<g>
			
				<rect x="39.126" y="206.953" transform="matrix(0.7986 -0.6018 0.6018 0.7986 -121.1958 68.9981)" class="st3" width="6.751" height="17.282"/>
		</g>
	</g>
	<g>
		<g>
			<path class="st0" d="M51.595,219.56l-10.401-13.801c-0.239-0.318-0.595-0.527-0.989-0.582c-0.392-0.056-0.793,0.048-1.111,0.288
				l-5.392,4.063c-0.662,0.499-0.793,1.439-0.295,2.101l10.401,13.801c0.239,0.318,0.595,0.527,0.989,0.583
				c0.069,0.01,0.139,0.015,0.208,0.015c0.324,0,0.641-0.105,0.903-0.302l5.391-4.064C51.962,221.162,52.094,220.222,51.595,219.56z
				 M45.301,222.426l-8.596-11.406l2.996-2.258l8.595,11.406L45.301,222.426z"/>
		</g>
	</g>
	<g>
		<g>
			
				<rect x="49.609" y="212.218" transform="matrix(0.6019 -0.7986 0.7986 0.6019 -148.9823 132.3561)" class="st3" width="17.282" height="6.751"/>
		</g>
	</g>
	<g>
		<g>
			<path class="st0" d="M67.049,209.527l-5.392-4.063c-0.318-0.24-0.72-0.344-1.111-0.288c-0.394,0.055-0.75,0.265-0.989,0.582
				L49.156,219.56c-0.499,0.662-0.367,1.602,0.295,2.1l5.392,4.064c0.262,0.197,0.579,0.302,0.903,0.302
				c0.069,0,0.139-0.005,0.208-0.015c0.394-0.055,0.75-0.265,0.989-0.583l10.401-13.801
				C67.843,210.966,67.711,210.026,67.049,209.527z M55.451,222.426l-2.996-2.258l8.595-11.406l2.996,2.258L55.451,222.426z"/>
		</g>
	</g>
	<g>
		<g>
			<path class="st15" d="M67.899,150.787c-0.954-0.869-1.768-1.864-2.421-2.943c-3.677,2.25-9.051,3.672-15.038,3.672
				c-1.421,0-2.808-0.08-4.149-0.236c-9.624-1.095-18.85,4.646-21.899,13.843c-0.296,0.884-0.502,1.733-0.598,2.521
				c-0.015,0.11-0.025,0.221-0.035,0.331c-0.06,0.753-0.096,1.517-0.096,2.29c0,14.581,14.606,36.973,26.41,36.973
				c12.361,0,26.405-22.392,26.405-36.973C76.478,162.55,73.173,155.614,67.899,150.787z"/>
		</g>
	</g>
	<g>
		<g>
			<path class="st0" d="M68.909,149.678c-0.841-0.766-1.563-1.644-2.147-2.61c-0.207-0.342-0.541-0.587-0.929-0.682
				c-0.387-0.093-0.797-0.03-1.138,0.178c-3.583,2.193-8.779,3.451-14.255,3.451c-1.345,0-2.683-0.076-3.979-0.227
				c-10.369-1.176-20.247,5.071-23.491,14.856c-0.336,1.003-0.56,1.952-0.662,2.794c-0.018,0.134-0.031,0.269-0.044,0.415
				c-0.068,0.842-0.101,1.63-0.101,2.411c0,15.191,14.97,38.473,27.91,38.473c13.206,0,27.905-22.932,27.905-38.473
				C77.978,162.456,74.673,154.954,68.909,149.678z M50.073,205.738c-10.994,0-24.91-21.994-24.91-35.473
				c0-0.699,0.03-1.409,0.09-2.158c0.008-0.086,0.015-0.173,0.03-0.284c0.08-0.665,0.259-1.413,0.532-2.229
				c2.574-7.765,9.992-12.948,18.131-12.948c0.719,0,1.444,0.041,2.172,0.123c1.407,0.164,2.861,0.247,4.321,0.247
				c5.417,0,10.634-1.151,14.569-3.188c0.558,0.745,1.187,1.437,1.877,2.066c5.143,4.706,8.092,11.403,8.092,18.372
				C74.978,183.951,61.379,205.738,50.073,205.738z"/>
		</g>
	</g>
	<g>
		<g>
			<path class="st0" d="M40.747,167.388c-1.424,0-2.578,1.154-2.578,2.578s1.154,2.578,2.578,2.578c1.424,0,2.578-1.154,2.578-2.578
				S42.171,167.388,40.747,167.388z"/>
		</g>
	</g>
	<g>
		<g>
			<path class="st0" d="M59.395,167.388c-1.424,0-2.578,1.154-2.578,2.578s1.154,2.578,2.578,2.578c1.424,0,2.578-1.154,2.578-2.578
				S60.818,167.388,59.395,167.388z"/>
		</g>
	</g>
	<g>
		<g>
			<path class="st19" d="M35.595,174.309c-2.452,0-4.44,1.486-4.44,3.319c0,1.833,1.988,3.319,4.44,3.319
				c2.452,0,4.44-1.486,4.44-3.319C40.036,175.796,38.048,174.309,35.595,174.309z"/>
		</g>
	</g>
	<g>
		<g>
			<path class="st19" d="M64.547,174.309c-2.452,0-4.44,1.486-4.44,3.319c0,1.833,1.988,3.319,4.44,3.319
				c2.452,0,4.44-1.486,4.44-3.319C68.987,175.796,66.999,174.309,64.547,174.309z"/>
		</g>
	</g>
	<g>
		<g>
			<path class="st0" d="M57.893,185.738c-0.777-0.292-1.641,0.103-1.931,0.879c-0.537,1.434-2.549,3.568-5.892,3.568
				c-2.857,0-4.746-1.171-5.943-3.687c-0.356-0.748-1.252-1.065-1.999-0.71c-0.748,0.356-1.066,1.251-0.71,1.999
				c1.705,3.581,4.616,5.398,8.652,5.398c4.56,0,7.707-2.859,8.702-5.516C59.063,186.893,58.669,186.029,57.893,185.738z"/>
		</g>
	</g>
	<g>
		<g>
			<path class="st0" d="M38.543,158.861c-6.052,0-10.976,4.924-10.976,10.976c0,6.052,4.924,10.976,10.976,10.976
				c6.052,0,10.976-4.924,10.976-10.976C49.519,163.785,44.595,158.861,38.543,158.861z M38.543,177.813
				c-4.398,0-7.976-3.578-7.976-7.976c0-4.398,3.578-7.976,7.976-7.976c4.398,0,7.976,3.578,7.976,7.976
				C46.519,174.235,42.941,177.813,38.543,177.813z"/>
		</g>
	</g>
	<g>
		<g>
			<path class="st0" d="M62.206,158.861c-6.052,0-10.976,4.924-10.976,10.976c0,6.052,4.924,10.976,10.976,10.976
				c6.052,0,10.976-4.924,10.976-10.976C73.182,163.785,68.258,158.861,62.206,158.861z M62.206,177.813
				c-4.398,0-7.976-3.578-7.976-7.976c0-4.398,3.578-7.976,7.976-7.976c4.398,0,7.976,3.578,7.976,7.976
				C70.182,174.235,66.604,177.813,62.206,177.813z"/>
		</g>
	</g>
	<g>
		<g>
			<path class="st0" d="M52.73,168.317h-4.712c-0.829,0-1.5,0.671-1.5,1.5c0,0.829,0.671,1.5,1.5,1.5h4.712
				c0.829,0,1.5-0.671,1.5-1.5C54.23,168.989,53.559,168.317,52.73,168.317z"/>
		</g>
	</g>
	<g>
		<g>
			<path class="st0" d="M29.47,166.217L24,165.665c-0.826-0.086-1.56,0.518-1.643,1.342c-0.084,0.824,0.518,1.56,1.342,1.643
				l5.47,0.552c0.051,0.005,0.102,0.008,0.152,0.008c0.761,0,1.413-0.577,1.49-1.35C30.895,167.035,30.294,166.3,29.47,166.217z"/>
		</g>
	</g>
	<g>
		<g>
			<path class="st0" d="M77.789,166.953c-0.098-0.823-0.848-1.413-1.666-1.312l-4.863,0.579c-0.823,0.098-1.41,0.844-1.312,1.667
				c0.09,0.763,0.738,1.323,1.487,1.323c0.059,0,0.119-0.003,0.179-0.011l4.863-0.579C77.3,168.521,77.887,167.775,77.789,166.953z"
				/>
		</g>
	</g>
	<g>
		<g>
			<path class="st4" d="M52.57,127.544c-8.932-0.558-16.834,3.572-20.699,7.305c-5.832,4.792-8.832,13.468-8.832,21.396
				c0,1.449,0.256,9.692,0.718,11.731c0.075-0.88,0.299-1.843,0.635-2.855c3.047-9.194,12.276-14.938,21.899-13.841
				c1.338,0.153,2.725,0.233,4.147,0.233c11.095,0,20.09-4.878,20.09-10.896C70.529,134.599,62.31,128.153,52.57,127.544z"/>
		</g>
	</g>
	<g>
		<g>
			<path class="st0" d="M52.664,126.047c-8.956-0.558-17.38,3.448-21.791,7.682c-5.758,4.761-9.333,13.382-9.333,22.517
				c0,1.054,0.232,9.755,0.755,12.063c0.156,0.688,0.767,1.169,1.462,1.169c0.034,0,0.069-0.001,0.104-0.004
				c0.737-0.051,1.328-0.631,1.392-1.368c0.062-0.725,0.252-1.57,0.564-2.512c2.801-8.452,11.351-13.841,20.306-12.822
				c1.411,0.161,2.863,0.242,4.317,0.242c12.107,0,21.59-5.445,21.59-12.396C72.029,133.5,62.98,126.691,52.664,126.047z
				 M50.439,150.013c-1.341,0-2.679-0.075-3.977-0.223c-8.939-1.023-17.51,3.482-21.785,11.014
				c-0.088-2.026-0.137-3.868-0.137-4.559c0-8.16,3.251-16.103,8.284-20.237c0.031-0.026,0.061-0.052,0.09-0.081
				c3.676-3.551,10.551-6.934,18.036-6.934c0.506,0,1.016,0.016,1.527,0.047c0,0,0,0,0.001,0
				c9.322,0.582,16.553,6.701,16.553,11.576C69.029,145.71,60.516,150.013,50.439,150.013z"/>
		</g>
	</g>
</g>
</svg>
