<?xml version="1.0" encoding="utf-8"?>
<!-- Generator: Adobe Illustrator 22.0.1, SVG Export Plug-In . SVG Version: 6.00 Build 0)  -->
<svg version="1.1" id="Layer_1" xmlns="http://www.w3.org/2000/svg" xmlns:xlink="http://www.w3.org/1999/xlink" x="0px" y="0px"
	 viewBox="0 0 256 256" style="enable-background:new 0 0 256 256;" xml:space="preserve">
<style type="text/css">
	.st0{fill:#3A312A;}
	.st1{fill:#8AC6DD;}
	.st2{fill:#F16C7A;}
	.st3{fill:#D7E057;}
	.st4{fill:#87796F;}
	.st5{fill:#FCE8CB;}
	.st6{fill:#DECAAD;}
	.st7{fill:#D6DF58;}
	.st8{fill:#FAE6CA;}
	.st9{fill:#DDC9AC;}
	.st10{fill:#D5DE58;}
	.st11{fill:#ED6E7A;}
	.st12{fill:#8AC5DC;}
	.st13{fill:#6CA8BF;}
	.st14{fill:#695B51;}
	.st15{fill:#F8E4C8;}
	.st16{fill:#EF6D7A;}
	.st17{fill-rule:evenodd;clip-rule:evenodd;fill:#F8E4C8;}
	.st18{fill:#89C4DB;}
	.st19{fill:#F59689;}
	.st20{fill:#D34E5C;}
	.st21{fill:#F7E3C7;}
	.st22{fill:#8AC3DA;}
	.st23{fill-rule:evenodd;clip-rule:evenodd;fill:#F7E3C7;}
	.st24{fill-rule:evenodd;clip-rule:evenodd;fill:#87796F;}
	.st25{fill:#B9C239;}
	.st26{fill:#D4DB56;}
	.st27{fill-rule:evenodd;clip-rule:evenodd;fill:#F16C7A;}
	.st28{fill-rule:evenodd;clip-rule:evenodd;fill:#F6E2C6;}
	.st29{fill:#F6E2C6;}
	.st30{fill-rule:evenodd;clip-rule:evenodd;fill:#FAE6CA;}
	.st31{fill:#B8C136;}
</style>
<g>
	<g>
		<g>
			<path class="st3" d="M226.278,26.131c-0.974,11.564-13.025,13.39-13.025,13.39c10.347,0.487,12.925,14.059,12.925,14.059
				C226.4,43.903,239.5,39.377,239.5,39.377C229.686,38.79,226.278,26.131,226.278,26.131z"/>
		</g>
	</g>
	<g>
		<g>
			<path class="st0" d="M239.59,37.88c-8.605-0.515-11.832-12.024-11.864-12.141c-0.191-0.703-0.861-1.164-1.583-1.102
				c-0.725,0.066-1.298,0.642-1.359,1.367c-0.86,10.215-11.313,11.964-11.754,12.033c-0.763,0.115-1.313,0.79-1.273,1.561
				c0.04,0.77,0.657,1.384,1.428,1.421c9.028,0.425,11.498,12.718,11.523,12.842c0.137,0.711,0.759,1.217,1.472,1.217
				c0.042,0,0.084-0.001,0.126-0.005c0.764-0.064,1.357-0.693,1.375-1.459c0.195-8.508,12.192-12.777,12.313-12.819
				c0.675-0.235,1.092-0.914,0.994-1.623C240.887,38.464,240.304,37.923,239.59,37.88z M226.023,48.226
				c-1.356-3.131-3.709-6.908-7.587-8.877c2.931-1.405,6.409-3.913,8.202-8.273c1.551,3.071,4.199,6.88,8.334,8.723
				C231.965,41.439,228.05,44.205,226.023,48.226z"/>
		</g>
	</g>
	<g>
		<g>
			<path class="st3" d="M204.579,43.112c-0.689,8.179-9.212,9.47-9.212,9.47c7.318,0.344,9.142,9.944,9.142,9.944
				c0.156-6.844,9.422-10.045,9.422-10.045C206.99,52.066,204.579,43.112,204.579,43.112z"/>
		</g>
	</g>
	<g>
		<g>
			<path class="st0" d="M214.021,50.983c-5.766-0.345-7.972-8.186-7.994-8.265c-0.19-0.702-0.852-1.166-1.582-1.102
				c-0.726,0.065-1.299,0.642-1.36,1.368c-0.579,6.871-7.647,8.067-7.942,8.114c-0.763,0.115-1.313,0.79-1.273,1.561
				c0.04,0.77,0.657,1.384,1.428,1.421c6.035,0.284,7.723,8.644,7.739,8.726c0.135,0.713,0.759,1.22,1.472,1.22
				c0.042,0,0.083-0.001,0.125-0.005c0.765-0.063,1.358-0.694,1.376-1.461c0.13-5.709,8.331-8.634,8.412-8.662
				c0.676-0.234,1.094-0.913,0.996-1.622C215.32,51.568,214.735,51.026,214.021,50.983z M204.437,57.778
				c-0.924-1.885-2.34-3.947-4.447-5.28c1.855-1.041,3.697-2.63,4.871-4.916c1.057,1.874,2.654,3.954,4.941,5.224
				C207.951,53.907,205.813,55.546,204.437,57.778z"/>
		</g>
	</g>
	<g>
		<g>
			<path class="st3" d="M204.579,16.454c-0.689,8.179-9.212,9.471-9.212,9.471c7.318,0.344,9.142,9.944,9.142,9.944
				c0.156-6.845,9.422-10.045,9.422-10.045C206.99,25.408,204.579,16.454,204.579,16.454z"/>
		</g>
	</g>
	<g>
		<g>
			<path class="st0" d="M214.021,24.326c-5.766-0.345-7.972-8.186-7.994-8.265c-0.19-0.702-0.852-1.167-1.582-1.102
				c-0.726,0.065-1.299,0.642-1.36,1.368c-0.579,6.871-7.647,8.067-7.942,8.114c-0.763,0.115-1.313,0.79-1.273,1.561
				c0.04,0.77,0.657,1.384,1.428,1.421c6.035,0.284,7.723,8.644,7.739,8.726c0.135,0.713,0.759,1.22,1.472,1.22
				c0.042,0,0.083-0.001,0.125-0.005c0.765-0.063,1.358-0.694,1.376-1.461c0.13-5.709,8.331-8.634,8.412-8.662
				c0.676-0.234,1.094-0.913,0.996-1.622C215.32,24.911,214.735,24.369,214.021,24.326z M204.437,31.121
				c-0.924-1.885-2.34-3.947-4.447-5.28c1.855-1.041,3.697-2.63,4.871-4.916c1.057,1.874,2.654,3.954,4.941,5.224
				C207.951,27.25,205.813,28.889,204.437,31.121z"/>
		</g>
	</g>
	<g>
		<g>
			<path class="st2" d="M176.696,36.88c-0.109-11.326-9.318-20.453-20.645-20.459L37.168,16.36
				C25.755,16.354,16.5,25.604,16.5,37.017v158.966c0,11.409,9.248,20.657,20.657,20.657h119.186
				c11.408,0,20.657-9.249,20.657-20.657V68.485L176.696,36.88z"/>
		</g>
	</g>
	<g>
		<g>
			<path class="st0" d="M178.196,36.866c-0.116-12.094-10.05-21.938-22.144-21.944L37.169,14.86h-0.012
				c-5.916,0-11.478,2.303-15.662,6.485C17.306,25.531,15,31.096,15,37.017v38.958c0,0.829,0.671,1.5,1.5,1.5s1.5-0.671,1.5-1.5
				V37.017c0-5.119,1.994-9.931,5.614-13.55c3.619-3.616,8.427-5.607,13.542-5.607h0.01l118.883,0.062
				c10.457,0.005,19.046,8.517,19.146,18.973l0.304,31.59v127.498c0,10.563-8.594,19.157-19.157,19.157H37.157
				C26.594,215.14,18,206.546,18,195.983V89.224c0-0.829-0.671-1.5-1.5-1.5s-1.5,0.671-1.5,1.5v106.759
				c0,12.218,9.94,22.157,22.157,22.157h119.186c12.218,0,22.157-9.939,22.157-22.157V68.471L178.196,36.866z"/>
		</g>
	</g>
	<g>
		<g>
			<path class="st21" d="M147.864,39.349h-87.51c-11.526,0-20.854,9.328-20.854,20.854v158.583c0,11.526,9.328,20.854,20.854,20.854
				h118.792c11.526,0,20.854-9.328,20.854-20.854V91.485L147.864,39.349z"/>
		</g>
	</g>
	<g>
		<g>
			<path class="st0" d="M201.06,90.424l-52.136-52.136c-0.281-0.281-0.663-0.439-1.06-0.439h-87.51
				C48.028,37.849,38,47.877,38,60.204v158.583c0,12.326,10.028,22.354,22.354,22.354h55.774c0.829,0,1.5-0.671,1.5-1.5
				s-0.671-1.5-1.5-1.5H60.354C49.682,238.14,41,229.458,41,218.786V60.204c0-10.672,8.682-19.354,19.354-19.354h86.889
				L198.5,92.106v126.68c0,10.672-8.682,19.354-19.354,19.354h-50.275c-0.829,0-1.5,0.671-1.5,1.5s0.671,1.5,1.5,1.5h50.275
				c12.326,0,22.354-10.028,22.354-22.354V91.485C201.5,91.087,201.342,90.706,201.06,90.424z"/>
		</g>
	</g>
	<g>
		<g>
			<path class="st21" d="M147.972,39.457v33.797c0,10.14,8.22,18.36,18.36,18.36H200v-0.129L147.972,39.457z"/>
		</g>
	</g>
	<g>
		<g>
			<path class="st0" d="M201.06,90.424l-52.028-52.028c-0.428-0.429-1.074-0.559-1.635-0.325c-0.56,0.232-0.926,0.779-0.926,1.386
				v33.797c0,10.951,8.909,19.86,19.86,19.86H200c0.829,0,1.5-0.671,1.5-1.5v-0.129C201.5,91.087,201.342,90.706,201.06,90.424z
				 M166.333,90.114c-9.297,0-16.86-7.563-16.86-16.86V43.078l47.036,47.036H166.333z"/>
		</g>
	</g>
	<g>
		<g>
			<path class="st20" d="M175.2,36.892c-0.1-10.45-8.69-18.96-19.15-18.97h-15c10.46,0.01,19.05,8.52,19.15,18.97l0.12,12.79
				l15.14,15.15L175.2,36.892z"/>
		</g>
	</g>
	<g>
		<g>
			<path class="st4" d="M156.646,106.128c-0.51-0.967-0.804-2.065-0.804-3.235c0-1.118,0.268-2.176,0.745-3.111H83.926
				c0.471,0.934,0.739,1.993,0.739,3.111c0,1.17-0.294,2.268-0.804,3.235H156.646z"/>
		</g>
	</g>
	<g>
		<g>
			<path class="st0" d="M157.974,105.429c-0.418-0.794-0.631-1.647-0.631-2.536c0-0.857,0.195-1.674,0.581-2.429
				c0.237-0.465,0.216-1.02-0.057-1.465s-0.757-0.717-1.279-0.717H83.926c-0.521,0-1.004,0.27-1.277,0.713
				c-0.273,0.443-0.297,0.996-0.063,1.461c0.384,0.763,0.578,1.582,0.578,2.437c0,0.889-0.212,1.742-0.631,2.536
				c-0.245,0.465-0.229,1.024,0.043,1.474c0.271,0.45,0.759,0.725,1.284,0.725h72.786c0.525,0,1.013-0.275,1.284-0.725
				C158.202,106.453,158.219,105.894,157.974,105.429z M85.985,104.628c0.119-0.566,0.179-1.146,0.179-1.735
				c0-0.54-0.053-1.081-0.157-1.611H154.5c-0.104,0.529-0.157,1.07-0.157,1.611c0,0.59,0.06,1.169,0.179,1.735H85.985z"/>
		</g>
	</g>
	<g>
		<g>
			<rect x="114.545" y="106.128" class="st4" width="11.11" height="81.367"/>
		</g>
	</g>
	<g>
		<g>
			<path class="st0" d="M125.655,104.628h-11.11c-0.829,0-1.5,0.671-1.5,1.5v81.367c0,0.829,0.671,1.5,1.5,1.5h11.11
				c0.829,0,1.5-0.671,1.5-1.5v-81.367C127.155,105.3,126.483,104.628,125.655,104.628z M124.155,185.996h-8.11v-78.367h8.11
				V185.996z"/>
		</g>
	</g>
	<g>
		<g>
			<path class="st4" d="M132.835,187.495h-25.471c-7.765,0-14.06,6.295-14.06,14.06v0.461c0,1.365,1.107,2.472,2.472,2.472h48.648
				c1.365,0,2.472-1.107,2.472-2.472v-0.461C146.895,193.79,140.601,187.495,132.835,187.495z"/>
		</g>
	</g>
	<g>
		<g>
			<path class="st0" d="M132.835,185.996h-25.471c-8.58,0-15.56,6.98-15.56,15.56v0.46c0,2.19,1.782,3.972,3.972,3.972h48.648
				c2.19,0,3.972-1.782,3.972-3.972v-0.46C148.396,192.976,141.416,185.996,132.835,185.996z M145.396,202.016
				c0,0.536-0.436,0.972-0.972,0.972H95.776c-0.536,0-0.972-0.436-0.972-0.972v-0.46c0-6.926,5.634-12.56,12.56-12.56h25.471
				c6.926,0,12.56,5.634,12.56,12.56V202.016z"/>
		</g>
	</g>
	<g>
		<g>
			<path class="st10" d="M106.133,152.36H49.104c0,0.061-0.005,0.121-0.005,0.183c0,15.75,12.768,28.519,28.519,28.519
				c15.751,0,28.519-12.769,28.519-28.519C106.138,152.482,106.134,152.422,106.133,152.36z"/>
		</g>
	</g>
	<g>
		<g>
			<path class="st0" d="M107.633,152.348c-0.007-0.824-0.676-1.488-1.5-1.488H49.104c-0.806,0-1.471,0.723-1.501,1.529
				c0,0.019-0.003,0.135-0.003,0.154c0,16.553,13.467,30.02,30.02,30.02c16.553,0,30.019-13.467,30.019-30.02L107.633,152.348z
				 M77.619,179.563c-14.445,0-26.279-11.394-26.985-25.702h53.972C103.917,168.149,92.076,179.563,77.619,179.563z"/>
		</g>
	</g>
	<g>
		<g>
			<path class="st0" d="M107.438,151.611l-28.519-49.469c-0.268-0.465-0.763-0.751-1.299-0.751c-0.536,0-1.032,0.286-1.299,0.751
				L47.8,151.611c-0.268,0.464-0.268,1.036,0.001,1.5c0.268,0.464,0.763,0.75,1.299,0.75h57.039c0.536,0,1.031-0.286,1.299-0.75
				C107.705,152.647,107.705,152.075,107.438,151.611z M51.696,150.86l25.923-44.966l25.923,44.966H51.696z"/>
		</g>
	</g>
	<g>
		<g>
			<path class="st4" d="M77.773,95.998c-3.807,0-6.893,3.086-6.893,6.893s3.086,6.893,6.893,6.893c3.807,0,6.893-3.086,6.893-6.893
				S81.58,95.998,77.773,95.998z"/>
		</g>
	</g>
	<g>
		<g>
			<path class="st0" d="M77.773,94.498c-4.628,0-8.393,3.765-8.393,8.393s3.765,8.393,8.393,8.393c4.628,0,8.393-3.765,8.393-8.393
				S82.401,94.498,77.773,94.498z M77.773,108.284c-2.974,0-5.393-2.419-5.393-5.393s2.419-5.393,5.393-5.393
				c2.974,0,5.393,2.419,5.393,5.393S80.747,108.284,77.773,108.284z"/>
		</g>
	</g>
	<g>
		<g>
			<path class="st1" d="M191.095,152.36h-57.029c0,0.061-0.005,0.121-0.005,0.183c0,15.75,12.768,28.519,28.519,28.519
				c15.751,0,28.519-12.769,28.519-28.519C191.1,152.482,191.096,152.422,191.095,152.36z"/>
		</g>
	</g>
	<g>
		<g>
			<path class="st0" d="M192.595,152.348c-0.007-0.824-0.676-1.488-1.5-1.488h-57.029c-0.806,0-1.471,0.723-1.502,1.529
				c0,0.019-0.003,0.135-0.003,0.154c0,16.553,13.466,30.02,30.019,30.02c16.553,0,30.019-13.467,30.019-30.02L192.595,152.348z
				 M162.581,179.563c-14.445,0-26.278-11.394-26.984-25.702h53.972C188.878,168.149,177.037,179.563,162.581,179.563z"/>
		</g>
	</g>
	<g>
		<g>
			<path class="st0" d="M192.399,151.611l-28.519-49.469c-0.268-0.465-0.763-0.751-1.299-0.751c-0.536,0-1.032,0.286-1.299,0.751
				l-28.519,49.469c-0.268,0.464-0.268,1.036,0,1.5c0.268,0.464,0.763,0.75,1.299,0.75H191.1c0.536,0,1.031-0.286,1.299-0.75
				C192.667,152.647,192.667,152.075,192.399,151.611z M136.658,150.86l25.923-44.966l25.923,44.966H136.658z"/>
		</g>
	</g>
	<g>
		<g>
			<path class="st4" d="M162.735,95.998c-3.807,0-6.893,3.086-6.893,6.893s3.086,6.893,6.893,6.893c3.807,0,6.893-3.086,6.893-6.893
				S166.542,95.998,162.735,95.998z"/>
		</g>
	</g>
	<g>
		<g>
			<path class="st0" d="M162.735,94.498c-4.628,0-8.393,3.765-8.393,8.393s3.765,8.393,8.393,8.393c4.628,0,8.393-3.765,8.393-8.393
				S167.363,94.498,162.735,94.498z M162.735,108.284c-2.974,0-5.393-2.419-5.393-5.393s2.419-5.393,5.393-5.393
				c2.974,0,5.393,2.419,5.393,5.393S165.708,108.284,162.735,108.284z"/>
		</g>
	</g>
	<g>
		<g>
			<circle class="st4" cx="120.1" cy="102.86" r="11.437"/>
		</g>
	</g>
	<g>
		<g>
			<path class="st0" d="M120.1,89.923c-7.133,0-12.937,5.804-12.937,12.937s5.804,12.937,12.937,12.937
				c7.134,0,12.938-5.804,12.938-12.937S127.233,89.923,120.1,89.923z M120.1,112.797c-5.479,0-9.937-4.458-9.937-9.937
				s4.458-9.937,9.937-9.937s9.938,4.458,9.938,9.937S125.579,112.797,120.1,112.797z"/>
		</g>
	</g>
	<g>
		<g>
			<path class="st6" d="M182.5,93.115v41.33l9.9,17.17c0.02,0.02,0.02,0.05,0.03,0.08c0.03,0.06,0.06,0.12,0.08,0.18
				c0.02,0.05,0.04,0.1,0.05,0.16c0.01,0.06,0.02,0.12,0.02,0.18c0.01,0.06,0.02,0.12,0.02,0.17v0.16c0,8.92-3.91,16.94-10.1,22.44
				v43.8c0,10.67-8.68,19.35-19.35,19.35h16c10.67,0,19.35-8.68,19.35-19.35V93.115H182.5z"/>
		</g>
	</g>
	<g>
		<g>
			<polygon class="st6" points="182.35,140.186 182.35,150.86 188.504,150.86 			"/>
		</g>
	</g>
</g>
</svg>
