<?xml version="1.0" encoding="utf-8"?>
<!-- Generator: Adobe Illustrator 22.0.1, SVG Export Plug-In . SVG Version: 6.00 Build 0)  -->
<svg version="1.1" id="Layer_1" xmlns="http://www.w3.org/2000/svg" xmlns:xlink="http://www.w3.org/1999/xlink" x="0px" y="0px"
	 viewBox="0 0 256 256" style="enable-background:new 0 0 256 256;" xml:space="preserve">
<style type="text/css">
	.st0{fill:#3A312A;}
	.st1{fill:#8AC6DD;}
	.st2{fill:#F16C7A;}
	.st3{fill:#D7E057;}
	.st4{fill:#87796F;}
	.st5{fill:#FCE8CB;}
	.st6{fill:#DECAAD;}
	.st7{fill:#D6DF58;}
	.st8{fill:#FAE6CA;}
	.st9{fill:#DDC9AC;}
	.st10{fill:#D5DE58;}
	.st11{fill:#ED6E7A;}
	.st12{fill:#8AC5DC;}
	.st13{fill:#6CA8BF;}
	.st14{fill:#695B51;}
	.st15{fill:#F8E4C8;}
	.st16{fill:#EF6D7A;}
	.st17{fill-rule:evenodd;clip-rule:evenodd;fill:#F8E4C8;}
	.st18{fill:#89C4DB;}
	.st19{fill:#F59689;}
	.st20{fill:#D34E5C;}
	.st21{fill:#F7E3C7;}
	.st22{fill:#8AC3DA;}
	.st23{fill-rule:evenodd;clip-rule:evenodd;fill:#F7E3C7;}
	.st24{fill-rule:evenodd;clip-rule:evenodd;fill:#87796F;}
	.st25{fill:#B9C239;}
	.st26{fill:#D4DB56;}
	.st27{fill-rule:evenodd;clip-rule:evenodd;fill:#F16C7A;}
	.st28{fill-rule:evenodd;clip-rule:evenodd;fill:#F6E2C6;}
	.st29{fill:#F6E2C6;}
	.st30{fill-rule:evenodd;clip-rule:evenodd;fill:#FAE6CA;}
	.st31{fill:#B8C136;}
</style>
<g>
	<g>
		<g>
			<rect x="139.557" y="162.081" class="st2" width="38.415" height="77.193"/>
		</g>
	</g>
	<g>
		<g>
			<path class="st0" d="M177.972,192.358c0.828,0,1.5-0.671,1.5-1.5v-28.777c0-0.829-0.672-1.5-1.5-1.5h-38.415
				c-0.828,0-1.5,0.671-1.5,1.5v77.193c0,0.829,0.672,1.5,1.5,1.5h38.415c0.828,0,1.5-0.671,1.5-1.5v-34.191
				c0-0.829-0.672-1.5-1.5-1.5s-1.5,0.671-1.5,1.5v32.691h-35.415v-74.193h35.415v27.277
				C176.472,191.687,177.144,192.358,177.972,192.358z"/>
		</g>
	</g>
	<g>
		<g>
			<path class="st1" d="M238.568,68.586c-1.153-2.252-3.436-3.547-5.803-3.547c-0.999,0-2.014,0.231-2.965,0.718L34.169,165.934
				l6.893-21.22c1.111-3.422-0.762-7.097-4.184-8.208c-0.669-0.218-1.348-0.321-2.014-0.321c-2.746,0-5.301,1.751-6.196,4.504
				L16.939,176.8c-1.111,3.422,0.762,7.097,4.184,8.208l36.11,11.729c3.424,1.114,7.097-0.762,8.21-4.184
				c1.11-3.422-0.762-7.097-4.184-8.209l-21.084-6.848l157.558-80.681l12.269-6.283l25.738-13.179
				C238.943,75.714,240.209,71.788,238.568,68.586z"/>
		</g>
	</g>
	<g>
		<g>
			<path class="st0" d="M239.903,67.902c-1.377-2.692-4.112-4.364-7.139-4.364c-1.259,0-2.521,0.305-3.648,0.883L36.717,162.944
				l5.771-17.766c1.364-4.204-0.944-8.733-5.146-10.098c-0.804-0.262-1.638-0.395-2.479-0.395c-3.482,0-6.545,2.227-7.622,5.541
				l-11.729,36.11c-1.364,4.204,0.945,8.733,5.147,10.099l36.109,11.729c0.816,0.266,1.653,0.397,2.487,0.397
				c1.247,0,2.486-0.295,3.63-0.878c1.907-0.972,3.321-2.629,3.984-4.666c1.364-4.203-0.945-8.733-5.147-10.099l-17.649-5.732
				l154.344-79.035c0.737-0.377,1.029-1.281,0.651-2.019c-0.378-0.738-1.282-1.029-2.019-0.651L39.491,176.162
				c-0.54,0.276-0.86,0.85-0.812,1.454c0.048,0.604,0.455,1.12,1.032,1.308l21.084,6.848c2.629,0.854,4.074,3.689,3.221,6.318
				c-0.414,1.275-1.3,2.312-2.494,2.92c-1.193,0.608-2.553,0.714-3.827,0.3l-36.11-11.729c-2.63-0.854-4.075-3.688-3.221-6.318
				l11.729-36.11c0.674-2.074,2.591-3.468,4.769-3.468c0.525,0,1.046,0.083,1.551,0.248c2.629,0.854,4.074,3.688,3.22,6.318
				l-6.893,21.22c-0.188,0.578-0.008,1.211,0.454,1.605c0.462,0.394,1.117,0.47,1.657,0.193L230.483,67.092
				c0.717-0.367,1.484-0.553,2.281-0.553c1.895,0,3.607,1.046,4.469,2.731c0.61,1.192,0.721,2.55,0.31,3.825
				c-0.411,1.275-1.295,2.313-2.486,2.924l-25.738,13.179c-0.737,0.377-1.029,1.281-0.651,2.019
				c0.378,0.738,1.282,1.029,2.018,0.651l25.738-13.179C240.357,76.674,241.918,71.834,239.903,67.902z"/>
		</g>
	</g>
	<g>
		<g>
			<path class="st3" d="M179.317,26.403c-0.974,11.564-13.024,13.39-13.024,13.39c10.347,0.487,12.925,14.059,12.925,14.059
				c0.221-9.677,13.321-14.202,13.321-14.202C182.725,39.062,179.317,26.403,179.317,26.403z"/>
		</g>
	</g>
	<g>
		<g>
			<path class="st0" d="M192.629,38.152c-8.605-0.514-11.832-12.024-11.863-12.14c-0.19-0.702-0.846-1.16-1.584-1.102
				c-0.725,0.066-1.298,0.642-1.359,1.367c-0.859,10.215-11.313,11.963-11.754,12.032c-0.763,0.115-1.313,0.79-1.273,1.561
				c0.04,0.77,0.657,1.384,1.428,1.421c9.027,0.425,11.498,12.718,11.521,12.842c0.138,0.711,0.76,1.217,1.473,1.217
				c0.042,0,0.084-0.001,0.126-0.005c0.764-0.064,1.357-0.693,1.375-1.459c0.194-8.508,12.191-12.777,12.313-12.819
				c0.676-0.235,1.092-0.915,0.994-1.623C193.926,38.736,193.343,38.195,192.629,38.152z M179.063,48.498
				c-1.356-3.13-3.709-6.907-7.587-8.876c2.932-1.405,6.409-3.913,8.202-8.273c1.551,3.071,4.2,6.88,8.334,8.722
				C185.005,41.711,181.089,44.477,179.063,48.498z"/>
		</g>
	</g>
	<g>
		<g>
			<path class="st3" d="M157.619,43.384c-0.689,8.179-9.212,9.471-9.212,9.471c7.318,0.344,9.142,9.944,9.142,9.944
				c0.156-6.844,9.422-10.045,9.422-10.045C160.029,52.338,157.619,43.384,157.619,43.384z"/>
		</g>
	</g>
	<g>
		<g>
			<path class="st0" d="M167.06,51.255c-5.767-0.345-7.973-8.185-7.995-8.264c-0.189-0.702-0.861-1.162-1.581-1.102
				c-0.726,0.065-1.3,0.643-1.361,1.368c-0.578,6.871-7.646,8.066-7.941,8.113c-0.763,0.115-1.313,0.79-1.273,1.561
				c0.04,0.77,0.657,1.384,1.428,1.421c6.035,0.284,7.723,8.644,7.738,8.726c0.136,0.713,0.759,1.22,1.473,1.22
				c0.041,0,0.083-0.001,0.124-0.005c0.766-0.063,1.359-0.694,1.377-1.461c0.13-5.709,8.332-8.634,8.413-8.662
				c0.676-0.234,1.093-0.913,0.996-1.622C168.359,51.84,167.774,51.298,167.06,51.255z M157.476,58.05
				c-0.924-1.885-2.34-3.947-4.447-5.279c1.856-1.042,3.697-2.63,4.87-4.917c1.058,1.874,2.655,3.955,4.941,5.224
				C160.99,54.179,158.852,55.818,157.476,58.05z"/>
		</g>
	</g>
	<g>
		<g>
			<path class="st3" d="M157.619,16.726c-0.689,8.179-9.212,9.471-9.212,9.471c7.318,0.345,9.142,9.944,9.142,9.944
				c0.156-6.845,9.422-10.045,9.422-10.045C160.029,25.68,157.619,16.726,157.619,16.726z"/>
		</g>
	</g>
	<g>
		<g>
			<path class="st0" d="M167.06,24.598c-5.767-0.345-7.973-8.186-7.995-8.265c-0.189-0.702-0.861-1.161-1.581-1.102
				c-0.726,0.065-1.3,0.643-1.361,1.368c-0.578,6.871-7.646,8.067-7.941,8.114c-0.763,0.115-1.313,0.79-1.273,1.561
				c0.04,0.77,0.657,1.384,1.428,1.421c6.035,0.284,7.723,8.644,7.738,8.726c0.136,0.713,0.759,1.22,1.473,1.22
				c0.041,0,0.083-0.001,0.124-0.005c0.766-0.063,1.359-0.694,1.377-1.461c0.13-5.709,8.332-8.634,8.412-8.662
				c0.677-0.234,1.094-0.913,0.997-1.622C168.359,25.183,167.774,24.641,167.06,24.598z M157.476,31.393
				c-0.924-1.886-2.34-3.947-4.447-5.28c1.856-1.041,3.697-2.63,4.87-4.916c1.058,1.874,2.655,3.954,4.941,5.224
				C160.99,27.521,158.852,29.161,157.476,31.393z"/>
		</g>
	</g>
	<g>
		<g>
			<rect x="16.5" y="212.646" class="st2" width="38.414" height="26.628"/>
		</g>
	</g>
	<g>
		<g>
			<path class="st0" d="M54.915,211.146H16.5c-0.829,0-1.5,0.671-1.5,1.5v26.628c0,0.829,0.671,1.5,1.5,1.5h38.415
				c0.829,0,1.5-0.671,1.5-1.5v-26.628C56.415,211.817,55.743,211.146,54.915,211.146z M53.415,237.774H18v-23.628h35.415V237.774z"
				/>
		</g>
	</g>
	<g>
		<g>
			<rect x="78.028" y="187.364" class="st4" width="38.415" height="51.91"/>
		</g>
	</g>
	<g>
		<g>
			<path class="st0" d="M116.443,185.864H78.028c-0.829,0-1.5,0.671-1.5,1.5v51.91c0,0.829,0.671,1.5,1.5,1.5h38.415
				c0.829,0,1.5-0.671,1.5-1.5v-51.91C117.943,186.535,117.271,185.864,116.443,185.864z M114.943,237.774H79.528v-48.91h35.415
				V237.774z"/>
		</g>
	</g>
	<g>
		<g>
			<rect x="201.085" y="136.799" class="st4" width="38.415" height="102.475"/>
		</g>
	</g>
	<g>
		<g>
			<path class="st0" d="M239.5,135.299h-38.415c-0.828,0-1.5,0.671-1.5,1.5v102.475c0,0.829,0.672,1.5,1.5,1.5H239.5
				c0.828,0,1.5-0.671,1.5-1.5V136.799C241,135.97,240.328,135.299,239.5,135.299z M238,237.774h-35.415v-99.475H238V237.774z"/>
		</g>
	</g>
	<g>
		<g>
			<circle class="st5" cx="32.916" cy="33.194" r="16.416"/>
		</g>
	</g>
	<g>
		<g>
			<path class="st0" d="M32.916,15.278C23.037,15.278,15,23.315,15,33.194S23.037,51.11,32.916,51.11
				c9.878,0,17.915-8.037,17.915-17.916S42.794,15.278,32.916,15.278z M32.916,48.11C24.691,48.11,18,41.419,18,33.194
				s6.691-14.916,14.916-14.916c8.225,0,14.915,6.691,14.915,14.916S41.141,48.11,32.916,48.11z"/>
		</g>
	</g>
	<g>
		<g>
			<path class="st4" d="M32.916,24.986c-4.533,0-8.208,3.675-8.208,8.208c0,4.533,3.675,8.208,8.208,8.208s8.208-3.675,8.208-8.208
				C41.124,28.661,37.449,24.986,32.916,24.986z"/>
		</g>
	</g>
	<g>
		<g>
			<path class="st0" d="M32.916,23.486c-5.353,0-9.708,4.355-9.708,9.708s4.355,9.708,9.708,9.708c5.353,0,9.708-4.355,9.708-9.708
				S38.269,23.486,32.916,23.486z M32.916,39.902c-3.699,0-6.708-3.009-6.708-6.708s3.009-6.708,6.708-6.708
				c3.699,0,6.708,3.009,6.708,6.708S36.615,39.902,32.916,39.902z"/>
		</g>
	</g>
	<g>
		<g>
			<circle class="st5" cx="111.233" cy="33.142" r="16.416"/>
		</g>
	</g>
	<g>
		<g>
			<path class="st0" d="M111.233,15.226c-9.879,0-17.916,8.037-17.916,17.916s8.037,17.916,17.916,17.916
				c9.878,0,17.916-8.037,17.916-17.916S121.112,15.226,111.233,15.226z M111.233,48.058c-8.225,0-14.916-6.691-14.916-14.916
				s6.691-14.916,14.916-14.916s14.915,6.691,14.915,14.916S119.458,48.058,111.233,48.058z"/>
		</g>
	</g>
	<g>
		<g>
			<circle class="st4" cx="111.233" cy="33.142" r="8.208"/>
		</g>
	</g>
	<g>
		<g>
			<path class="st0" d="M111.233,23.434c-5.353,0-9.708,4.355-9.708,9.708s4.355,9.708,9.708,9.708c5.352,0,9.707-4.355,9.707-9.708
				S116.586,23.434,111.233,23.434z M111.233,39.85c-3.699,0-6.708-3.009-6.708-6.708s3.009-6.708,6.708-6.708
				c3.699,0,6.707,3.009,6.707,6.708S114.932,39.85,111.233,39.85z"/>
		</g>
	</g>
	<g>
		<g>
			
				<ellipse transform="matrix(0.2298 -0.9732 0.9732 0.2298 -10.1836 122.1417)" class="st5" cx="72.074" cy="67.505" rx="47.526" ry="47.526"/>
		</g>
	</g>
	<g>
		<g>
			<path class="st0" d="M72.075,18.478c-27.033,0-49.026,21.993-49.026,49.026s21.993,49.026,49.026,49.026
				s49.026-21.993,49.026-49.026S99.108,18.478,72.075,18.478z M72.075,113.531c-25.379,0-46.026-20.647-46.026-46.026
				s20.648-46.026,46.026-46.026s46.026,20.647,46.026,46.026S97.454,113.531,72.075,113.531z"/>
		</g>
	</g>
	<g>
		<g>
			<path class="st0" d="M59.38,55.798c-1.938,0-3.509,1.571-3.509,3.51s1.571,3.509,3.509,3.509c1.938,0,3.509-1.571,3.509-3.509
				S61.319,55.798,59.38,55.798z"/>
		</g>
	</g>
	<g>
		<g>
			<path class="st0" d="M84.768,55.798c-1.938,0-3.509,1.571-3.509,3.51s1.571,3.509,3.509,3.509c1.938,0,3.51-1.571,3.51-3.509
				S86.707,55.798,84.768,55.798z"/>
		</g>
	</g>
	<g>
		<g>
			<path class="st19" d="M52.367,65.221c-3.339,0-6.045,2.023-6.045,4.519c0,2.496,2.707,4.519,6.045,4.519
				c3.339,0,6.046-2.023,6.046-4.519C58.412,67.245,55.705,65.221,52.367,65.221z"/>
		</g>
	</g>
	<g>
		<g>
			<path class="st19" d="M91.782,65.221c-3.339,0-6.045,2.023-6.045,4.519c0,2.496,2.707,4.519,6.045,4.519
				c3.339,0,6.045-2.023,6.045-4.519C97.828,67.245,95.121,65.221,91.782,65.221z"/>
		</g>
	</g>
	<g>
		<g>
			
				<ellipse transform="matrix(0.9732 -0.2298 0.2298 0.9732 -19.7873 19.0878)" class="st5" cx="72.074" cy="94.516" rx="20.515" ry="20.515"/>
		</g>
	</g>
	<g>
		<g>
			<path class="st0" d="M72.075,72.501c-12.139,0-22.015,9.876-22.015,22.015s9.876,22.015,22.015,22.015
				c12.139,0,22.015-9.875,22.015-22.015S84.214,72.501,72.075,72.501z M72.075,113.531c-10.485,0-19.015-8.53-19.015-19.015
				s8.53-19.015,19.015-19.015c10.485,0,19.015,8.53,19.015,19.015S82.56,113.531,72.075,113.531z"/>
		</g>
	</g>
	<g>
		<g>
			<path class="st4" d="M72.074,81.865c-4.648,0-8.416,0.612-8.416,5.26s3.768,8.417,8.416,8.417c4.648,0,8.416-3.768,8.416-8.417
				S76.723,81.865,72.074,81.865z"/>
		</g>
	</g>
	<g>
		<g>
			<path class="st0" d="M72.075,80.365c-3.219,0-9.917,0-9.917,6.76c0,5.468,4.449,9.916,9.917,9.916
				c5.468,0,9.916-4.448,9.916-9.916C81.991,80.365,75.293,80.365,72.075,80.365z M72.075,94.042c-3.814,0-6.917-3.103-6.917-6.916
				c0-2.548,1.035-3.76,6.917-3.76s6.916,1.212,6.916,3.76C78.991,90.939,75.888,94.042,72.075,94.042z"/>
		</g>
	</g>
	<g>
		<g>
			<path class="st0" d="M72.075,94.042c-0.829,0-1.5,0.671-1.5,1.5v8.206c0,0.829,0.671,1.5,1.5,1.5c0.829,0,1.5-0.671,1.5-1.5
				v-8.206C73.575,94.713,72.903,94.042,72.075,94.042z"/>
		</g>
	</g>
	<g>
		<g>
			<path class="st0" d="M82.67,97.017c-0.774-0.289-1.64,0.102-1.931,0.878c-0.675,1.802-3.327,5.21-8.53,5.21
				c-4.123,0-6.85-1.693-8.581-5.329c-0.356-0.748-1.249-1.064-2-0.709c-0.748,0.356-1.065,1.251-0.709,2
				c2.224,4.67,6.023,7.039,11.29,7.039c5.948,0,10.048-3.71,11.34-7.157C83.839,98.172,83.446,97.308,82.67,97.017z"/>
		</g>
	</g>
	<g>
		<g>
			<rect x="222" y="138.301" class="st14" width="16" height="99.47"/>
		</g>
	</g>
</g>
</svg>
