<?xml version="1.0" encoding="utf-8"?>
<!-- Generator: Adobe Illustrator 22.0.1, SVG Export Plug-In . SVG Version: 6.00 Build 0)  -->
<svg version="1.1" id="Layer_1" xmlns="http://www.w3.org/2000/svg" xmlns:xlink="http://www.w3.org/1999/xlink" x="0px" y="0px"
	 viewBox="0 0 256 256" style="enable-background:new 0 0 256 256;" xml:space="preserve">
<style type="text/css">
	.st0{fill:#3A312A;}
	.st1{fill:#8AC6DD;}
	.st2{fill:#F16C7A;}
	.st3{fill:#D7E057;}
	.st4{fill:#87796F;}
	.st5{fill:#FCE8CB;}
	.st6{fill:#DECAAD;}
	.st7{fill:#D6DF58;}
	.st8{fill:#FAE6CA;}
	.st9{fill:#DDC9AC;}
	.st10{fill:#D5DE58;}
	.st11{fill:#ED6E7A;}
	.st12{fill:#8AC5DC;}
	.st13{fill:#6CA8BF;}
	.st14{fill:#695B51;}
	.st15{fill:#F8E4C8;}
	.st16{fill:#EF6D7A;}
	.st17{fill-rule:evenodd;clip-rule:evenodd;fill:#F8E4C8;}
	.st18{fill:#89C4DB;}
	.st19{fill:#F59689;}
	.st20{fill:#D34E5C;}
	.st21{fill:#F7E3C7;}
	.st22{fill:#8AC3DA;}
	.st23{fill-rule:evenodd;clip-rule:evenodd;fill:#F7E3C7;}
	.st24{fill-rule:evenodd;clip-rule:evenodd;fill:#87796F;}
	.st25{fill:#B9C239;}
	.st26{fill:#D4DB56;}
	.st27{fill-rule:evenodd;clip-rule:evenodd;fill:#F16C7A;}
	.st28{fill-rule:evenodd;clip-rule:evenodd;fill:#F6E2C6;}
	.st29{fill:#F6E2C6;}
	.st30{fill-rule:evenodd;clip-rule:evenodd;fill:#FAE6CA;}
	.st31{fill:#B8C136;}
</style>
<g>
	<g>
		<g>
			<path class="st3" d="M143.035,26.162c-0.974,11.564-13.024,13.39-13.024,13.39c10.347,0.487,12.925,14.059,12.925,14.059
				c0.221-9.677,13.321-14.202,13.321-14.202C146.443,38.821,143.035,26.162,143.035,26.162z"/>
		</g>
	</g>
	<g>
		<g>
			<path class="st0" d="M156.346,37.911c-8.604-0.514-11.832-12.024-11.863-12.14c-0.191-0.703-0.864-1.162-1.583-1.102
				c-0.725,0.066-1.298,0.642-1.359,1.367C140.68,36.251,130.227,38,129.786,38.068c-0.763,0.115-1.313,0.79-1.273,1.561
				c0.04,0.77,0.657,1.384,1.427,1.421c9.028,0.425,11.499,12.719,11.522,12.843c0.137,0.711,0.759,1.217,1.472,1.217
				c0.042,0,0.084-0.001,0.126-0.005c0.764-0.064,1.357-0.693,1.375-1.459c0.195-8.509,12.192-12.777,12.313-12.819
				c0.675-0.235,1.092-0.915,0.994-1.623C157.644,38.495,157.06,37.954,156.346,37.911z M142.78,48.257
				c-1.356-3.13-3.708-6.907-7.586-8.876c2.931-1.405,6.409-3.913,8.202-8.273c1.551,3.071,4.199,6.88,8.334,8.722
				C148.722,41.47,144.807,44.236,142.78,48.257z"/>
		</g>
	</g>
	<g>
		<g>
			<path class="st3" d="M121.336,43.142c-0.689,8.179-9.212,9.471-9.212,9.471c7.318,0.344,9.142,9.944,9.142,9.944
				c0.156-6.844,9.422-10.045,9.422-10.045C123.747,52.097,121.336,43.142,121.336,43.142z"/>
		</g>
	</g>
	<g>
		<g>
			<path class="st0" d="M130.778,51.014c-5.766-0.345-7.972-8.185-7.994-8.264c-0.19-0.702-0.857-1.17-1.582-1.102
				c-0.726,0.065-1.299,0.642-1.36,1.368c-0.579,6.871-7.646,8.066-7.942,8.113c-0.763,0.115-1.313,0.79-1.273,1.561
				c0.04,0.77,0.657,1.384,1.427,1.421c6.035,0.284,7.724,8.644,7.739,8.726c0.135,0.712,0.759,1.22,1.473,1.22
				c0.041,0,0.083-0.001,0.125-0.005c0.765-0.063,1.358-0.694,1.376-1.461c0.13-5.709,8.332-8.634,8.413-8.662
				c0.677-0.234,1.094-0.913,0.996-1.622C132.077,51.599,131.493,51.057,130.778,51.014z M121.193,57.81
				c-0.924-1.886-2.34-3.947-4.447-5.28c1.855-1.041,3.697-2.63,4.871-4.917c1.057,1.874,2.654,3.955,4.941,5.224
				C124.708,53.938,122.569,55.577,121.193,57.81z"/>
		</g>
	</g>
	<g>
		<g>
			<path class="st3" d="M121.336,16.485c-0.689,8.179-9.212,9.471-9.212,9.471c7.318,0.344,9.142,9.944,9.142,9.944
				c0.156-6.845,9.422-10.045,9.422-10.045C123.747,25.439,121.336,16.485,121.336,16.485z"/>
		</g>
	</g>
	<g>
		<g>
			<path class="st0" d="M130.778,24.357c-5.767-0.345-7.973-8.186-7.994-8.265c-0.19-0.702-0.857-1.163-1.582-1.102
				c-0.726,0.065-1.299,0.642-1.36,1.368c-0.579,6.871-7.646,8.067-7.942,8.114c-0.763,0.115-1.313,0.79-1.273,1.561
				c0.04,0.77,0.657,1.384,1.428,1.421c6.035,0.284,7.723,8.644,7.739,8.726c0.135,0.713,0.759,1.22,1.472,1.22
				c0.042,0,0.083-0.001,0.125-0.005c0.765-0.063,1.358-0.694,1.376-1.461c0.13-5.709,8.332-8.634,8.413-8.662
				c0.676-0.234,1.094-0.913,0.996-1.622C132.077,24.941,131.493,24.4,130.778,24.357z M121.193,31.152
				c-0.924-1.886-2.34-3.947-4.447-5.28c1.855-1.041,3.697-2.63,4.871-4.916c1.057,1.874,2.655,3.954,4.941,5.224
				C124.708,27.28,122.569,28.919,121.193,31.152z"/>
		</g>
	</g>
	<g>
		<g>
			<path class="st4" d="M238.927,54.226c-1.45-4.37-6.17-6.73-10.54-5.27l-77.015,25.662l-13.137,4.378L97.417,92.596l5.27,15.82
				l130.97-43.64c3.49-1.16,5.7-4.41,5.7-7.91C239.357,55.996,239.217,55.106,238.927,54.226z"/>
		</g>
	</g>
	<g>
		<g>
			<path class="st0" d="M240.351,53.754c-0.827-2.493-2.576-4.514-4.924-5.689c-2.35-1.176-5.019-1.366-7.514-0.532l-77.014,25.662
				c-0.786,0.262-1.211,1.111-0.949,1.897c0.262,0.786,1.11,1.213,1.897,0.949l77.015-25.662c1.734-0.582,3.588-0.449,5.222,0.369
				c1.631,0.816,2.845,2.219,3.419,3.948c0.236,0.714,0.355,1.444,0.355,2.17c0,2.951-1.878,5.558-4.674,6.487l-129.546,43.166
				l-4.322-12.974l39.395-13.126c0.786-0.262,1.211-1.111,0.949-1.897c-0.261-0.786-1.109-1.213-1.897-0.949L96.943,91.173
				c-0.786,0.262-1.211,1.111-0.949,1.897l5.27,15.82c0.126,0.377,0.396,0.689,0.752,0.867c0.211,0.105,0.44,0.159,0.671,0.159
				c0.16,0,0.32-0.025,0.474-0.077L234.13,66.2c4.023-1.337,6.727-5.087,6.727-9.333C240.857,55.821,240.687,54.775,240.351,53.754z
				"/>
		</g>
	</g>
	<g>
		<g>
			<path class="st16" d="M94.211,52.979c-1.589-4.767-6.741-7.345-11.509-5.756L22.868,67.16c-4.768,1.589-7.345,6.741-5.756,11.509
				h0c1.589,4.768,6.741,7.345,11.509,5.756l59.833-19.937C93.222,62.9,95.799,57.747,94.211,52.979z"/>
		</g>
	</g>
	<g>
		<g>
			<path class="st0" d="M95.634,52.505c-0.895-2.686-2.782-4.863-5.314-6.129c-2.532-1.267-5.405-1.471-8.092-0.576L22.394,65.737
				c-5.545,1.848-8.553,7.862-6.705,13.406c0.895,2.686,2.782,4.863,5.314,6.129c1.495,0.748,3.107,1.125,4.731,1.125
				c1.127,0,2.26-0.182,3.361-0.549l59.833-19.937C94.473,64.063,97.481,58.049,95.634,52.505z M87.981,63.065L28.147,83.002
				c-1.927,0.641-3.988,0.495-5.801-0.413c-1.815-0.908-3.169-2.469-3.81-4.395s-0.495-3.986,0.413-5.801
				c0.908-1.815,2.468-3.168,4.394-3.811l59.834-19.937c0.789-0.263,1.602-0.394,2.41-0.394c1.164,0,2.321,0.271,3.392,0.807
				c1.815,0.908,3.168,2.468,3.81,4.394C94.112,57.428,91.956,61.74,87.981,63.065z"/>
		</g>
	</g>
	<g>
		<g>
			<path class="st16" d="M124.028,142.467c-1.589-4.768-6.741-7.345-11.509-5.756l-59.833,19.937
				c-4.768,1.589-7.345,6.741-5.756,11.509c1.589,4.768,6.741,7.345,11.509,5.756l59.833-19.937
				C123.04,152.387,125.617,147.234,124.028,142.467z"/>
		</g>
	</g>
	<g>
		<g>
			<path class="st0" d="M125.451,141.993c-1.848-5.544-7.862-8.554-13.406-6.705l-59.833,19.937
				c-5.544,1.848-8.553,7.862-6.705,13.406c1.479,4.438,5.624,7.25,10.064,7.25c1.108,0,2.234-0.175,3.342-0.544l59.833-19.937v0
				C124.291,153.551,127.299,147.538,125.451,141.993z M122.192,148.742c-0.908,1.815-2.468,3.169-4.394,3.81c0,0,0,0,0,0
				l-59.833,19.937c-3.976,1.326-8.287-0.832-9.611-4.807c-1.325-3.975,0.832-8.287,4.807-9.612l59.833-19.936
				c0.794-0.265,1.602-0.391,2.396-0.391c3.183,0,6.156,2.017,7.216,5.198C123.247,144.867,123.1,146.927,122.192,148.742z"/>
		</g>
	</g>
	<g>
		<g>
			
				<rect x="39.417" y="72.505" transform="matrix(0.9487 -0.3161 0.3161 0.9487 -31.3332 27.978)" class="st1" width="62.306" height="76.126"/>
		</g>
	</g>
	<g>
		<g>
			<path class="st0" d="M113.581,136.357L89.516,64.134c-0.262-0.786-1.11-1.213-1.897-0.949L28.508,82.881
				c-0.786,0.262-1.211,1.111-0.949,1.897l24.064,72.223c0.125,0.377,0.396,0.689,0.752,0.868c0.21,0.105,0.44,0.158,0.671,0.158
				c0.16,0,0.32-0.025,0.474-0.077l59.111-19.696c0.377-0.125,0.689-0.396,0.868-0.752
				C113.678,137.146,113.707,136.734,113.581,136.357z M53.996,154.629L30.88,85.253l56.265-18.747l23.116,69.376L53.996,154.629z"
				/>
		</g>
	</g>
	<g>
		<g>
			<path class="st4" d="M206.556,213.591H49.158c-13.125,0-23.764,10.64-23.764,23.764v2.16H230.32v-2.16
				C230.32,224.231,219.68,213.591,206.556,213.591z"/>
		</g>
	</g>
	<g>
		<g>
			<path class="st0" d="M206.556,212.091H49.158c-13.931,0-25.264,11.333-25.264,25.264v2.16c0,0.829,0.671,1.5,1.5,1.5H230.32
				c0.829,0,1.5-0.671,1.5-1.5v-2.16C231.82,223.424,220.486,212.091,206.556,212.091z M228.82,238.015H26.894v-0.66
				c0-12.276,9.988-22.264,22.264-22.264h157.398c12.276,0,22.264,9.988,22.264,22.264V238.015z"/>
		</g>
	</g>
	<g>
		<g>
			<path class="st4" d="M180.764,187.667H74.95c-13.125,0-23.764,10.64-23.764,23.764v2.16h153.343v-2.16
				C204.528,198.306,193.888,187.667,180.764,187.667z"/>
		</g>
	</g>
	<g>
		<g>
			<path class="st0" d="M180.764,186.167h-61.703c-0.829,0-1.5,0.671-1.5,1.5s0.671,1.5,1.5,1.5h61.703
				c12.276,0,22.264,9.988,22.264,22.264v0.66H52.685v-0.66c0-12.276,9.988-22.264,22.264-22.264h30.369c0.829,0,1.5-0.671,1.5-1.5
				s-0.671-1.5-1.5-1.5H74.95c-13.931,0-25.264,11.333-25.264,25.264v2.16c0,0.829,0.671,1.5,1.5,1.5h153.343
				c0.829,0,1.5-0.671,1.5-1.5v-2.16C206.028,197.5,194.695,186.167,180.764,186.167z"/>
		</g>
	</g>
	<g>
		<g>
			<path class="st14" d="M206.557,215.086h-16c12.28,0,22.26,9.99,22.26,22.27v0.66h16v-0.66
				C228.817,225.076,218.837,215.086,206.557,215.086z"/>
		</g>
	</g>
	<g>
		<g>
			<path class="st14" d="M180.767,189.166h-16c12.27,0,22.26,9.99,22.26,22.26v0.66h16v-0.66
				C203.027,199.156,193.037,189.166,180.767,189.166z"/>
		</g>
	</g>
</g>
</svg>
