<?xml version="1.0" encoding="utf-8"?>
<!-- Generator: Adobe Illustrator 22.0.1, SVG Export Plug-In . SVG Version: 6.00 Build 0)  -->
<svg version="1.1" id="Layer_1" xmlns="http://www.w3.org/2000/svg" xmlns:xlink="http://www.w3.org/1999/xlink" x="0px" y="0px"
	 viewBox="0 0 256 256" style="enable-background:new 0 0 256 256;" xml:space="preserve">
<style type="text/css">
	.st0{fill:#3A312A;}
	.st1{fill:#8AC6DD;}
	.st2{fill:#F16C7A;}
	.st3{fill:#D7E057;}
	.st4{fill:#87796F;}
	.st5{fill:#FCE8CB;}
	.st6{fill:#DECAAD;}
	.st7{fill:#D6DF58;}
	.st8{fill:#FAE6CA;}
	.st9{fill:#DDC9AC;}
	.st10{fill:#D5DE58;}
	.st11{fill:#ED6E7A;}
	.st12{fill:#8AC5DC;}
	.st13{fill:#6CA8BF;}
	.st14{fill:#695B51;}
	.st15{fill:#F8E4C8;}
	.st16{fill:#EF6D7A;}
	.st17{fill-rule:evenodd;clip-rule:evenodd;fill:#F8E4C8;}
	.st18{fill:#89C4DB;}
	.st19{fill:#F59689;}
	.st20{fill:#D34E5C;}
	.st21{fill:#F7E3C7;}
	.st22{fill:#8AC3DA;}
	.st23{fill-rule:evenodd;clip-rule:evenodd;fill:#F7E3C7;}
	.st24{fill-rule:evenodd;clip-rule:evenodd;fill:#87796F;}
	.st25{fill:#B9C239;}
	.st26{fill:#D4DB56;}
	.st27{fill-rule:evenodd;clip-rule:evenodd;fill:#F16C7A;}
	.st28{fill-rule:evenodd;clip-rule:evenodd;fill:#F6E2C6;}
	.st29{fill:#F6E2C6;}
	.st30{fill-rule:evenodd;clip-rule:evenodd;fill:#FAE6CA;}
	.st31{fill:#B8C136;}
</style>
<g>
	<g>
		<g>
			<path class="st5" d="M43.831,45.242l-12.74-12.74c-8.976,9.347-14.503,22.031-14.503,36.014c0,0.503,0.024,1,0.038,1.5h18.017
				c-0.022-0.498-0.038-0.997-0.038-1.5C34.605,59.508,38.114,51.325,43.831,45.242z"/>
		</g>
	</g>
	<g>
		<g>
			<path class="st0" d="M44.892,44.182l-12.74-12.741c-0.285-0.285-0.68-0.438-1.076-0.439c-0.403,0.004-0.788,0.17-1.067,0.461
				c-9.622,10.021-14.921,23.18-14.921,37.053c0,0.378,0.012,0.752,0.025,1.126l0.013,0.417c0.023,0.811,0.688,1.457,1.5,1.457
				h18.018c0.409,0,0.8-0.167,1.083-0.462c0.283-0.295,0.433-0.693,0.415-1.102c-0.021-0.477-0.037-0.954-0.037-1.436
				c0-8.294,3.132-16.195,8.819-22.246C45.479,45.679,45.465,44.754,44.892,44.182z M33.105,68.516H18.088
				c0-12.584,4.62-24.546,13.041-33.855l10.634,10.635C36.169,51.751,33.105,59.941,33.105,68.516z"/>
		</g>
	</g>
	<g>
		<g>
			<path class="st5" d="M68.605,16.498v18.017c9.77,0,18.572,4.127,24.774,10.726l12.74-12.74
				C96.653,22.644,83.351,16.498,68.605,16.498z"/>
		</g>
	</g>
	<g>
		<g>
			<path class="st0" d="M107.201,31.462C97.006,20.846,83.299,14.998,68.605,14.998c-0.829,0-1.5,0.671-1.5,1.5v18.017
				c0,0.829,0.671,1.5,1.5,1.5c9.057,0,17.467,3.642,23.681,10.254c0.278,0.296,0.664,0.466,1.07,0.473h0.023
				c0.397,0,0.779-0.158,1.061-0.44l12.74-12.741C107.757,32.985,107.767,32.051,107.201,31.462z M93.39,43.11
				c-6.31-6.173-14.477-9.704-23.285-10.064V18.02c12.813,0.369,24.748,5.465,33.899,14.475L93.39,43.11z"/>
		</g>
	</g>
	<g>
		<g>
			<path class="st1" d="M106.119,32.502l-12.74,12.74c5.717,6.083,9.226,14.266,9.226,23.274c0,0.503-0.016,1.002-0.038,1.5h18.017
				c0.014-0.5,0.038-0.997,0.038-1.5C120.622,54.533,115.095,41.849,106.119,32.502z"/>
		</g>
	</g>
	<g>
		<g>
			<path class="st0" d="M107.201,31.462c-0.279-0.291-0.664-0.457-1.067-0.461c-0.389,0.002-0.791,0.154-1.076,0.439l-12.74,12.741
				c-0.573,0.573-0.587,1.498-0.032,2.088c5.687,6.051,8.819,13.951,8.819,22.246c0,0.482-0.016,0.959-0.037,1.436
				c-0.018,0.409,0.132,0.807,0.415,1.102c0.283,0.295,0.674,0.462,1.083,0.462h18.018c0.812,0,1.477-0.646,1.5-1.457l0.013-0.417
				c0.013-0.375,0.025-0.749,0.025-1.126C122.122,54.643,116.823,41.483,107.201,31.462z M104.105,68.516
				c0-8.575-3.065-16.765-8.658-23.22l10.634-10.635c8.421,9.309,13.041,21.271,13.041,33.855H104.105z"/>
		</g>
	</g>
	<g>
		<g>
			<path class="st1" d="M31.091,32.502l12.74,12.74c6.202-6.599,15.003-10.726,24.774-10.726V16.498
				C53.859,16.498,40.557,22.644,31.091,32.502z"/>
		</g>
	</g>
	<g>
		<g>
			<path class="st0" d="M68.605,14.998c-14.693,0-28.4,5.847-38.596,16.464c-0.565,0.589-0.556,1.522,0.021,2.1l12.74,12.741
				c0.281,0.282,0.663,0.44,1.06,0.44h0.023c0.406-0.006,0.792-0.177,1.07-0.473c6.214-6.612,14.623-10.254,23.68-10.254
				c0.829,0,1.5-0.671,1.5-1.5V16.498C70.105,15.67,69.434,14.998,68.605,14.998z M67.105,33.046
				c-8.807,0.36-16.975,3.891-23.284,10.064L33.206,32.495c9.151-9.009,21.086-14.105,33.899-14.475V33.046z"/>
		</g>
	</g>
	<g>
		<g>
			<path class="st1" d="M34.643,70.016H16.626c0.402,14.146,6.444,26.871,15.965,36.014l12.74-12.74
				C39.072,87.407,35.042,79.185,34.643,70.016z"/>
		</g>
	</g>
	<g>
		<g>
			<path class="st0" d="M46.359,92.196c-6.219-5.844-9.848-13.745-10.217-22.245c-0.035-0.803-0.695-1.435-1.499-1.435H16.625
				c-0.405,0-0.793,0.164-1.076,0.455c-0.282,0.29-0.435,0.683-0.424,1.088c0.401,14.107,6.234,27.267,16.426,37.054
				c0.291,0.279,0.665,0.418,1.039,0.418c0.384,0,0.768-0.147,1.061-0.439l12.74-12.741c0.287-0.287,0.446-0.678,0.439-1.084
				C46.825,92.86,46.655,92.474,46.359,92.196z M32.585,103.915c-8.613-8.754-13.678-20.156-14.393-32.399h15.044
				c0.688,8.228,4.182,15.866,9.965,21.784L32.585,103.915z"/>
		</g>
	</g>
	<g>
		<g>
			<path class="st1" d="M91.879,93.289c-6.083,5.718-14.266,9.226-23.274,9.226v18.017c13.982,0,26.666-5.528,36.014-14.503
				L91.879,93.289z"/>
		</g>
	</g>
	<g>
		<g>
			<path class="st0" d="M105.68,104.969L92.94,92.229c-0.574-0.574-1.498-0.587-2.088-0.032c-6.051,5.687-13.952,8.819-22.247,8.819
				c-0.829,0-1.5,0.671-1.5,1.5v18.018c0,0.829,0.671,1.5,1.5,1.5c13.873,0,27.032-5.299,37.053-14.921
				c0.29-0.279,0.456-0.664,0.461-1.067C106.123,105.642,105.965,105.254,105.68,104.969z M70.105,119.011v-15.027
				c8.027-0.336,15.643-3.36,21.721-8.627l10.634,10.634C93.521,114.078,82.137,118.659,70.105,119.011z"/>
		</g>
	</g>
	<g>
		<g>
			<path class="st5" d="M102.567,70.016c-0.398,9.169-4.429,17.391-10.688,23.274l12.74,12.74
				c9.521-9.143,15.564-21.868,15.966-36.014H102.567z"/>
		</g>
	</g>
	<g>
		<g>
			<path class="st0" d="M121.66,68.97c-0.283-0.291-0.67-0.455-1.076-0.455h-18.018c-0.803,0-1.464,0.632-1.499,1.435
				c-0.37,8.501-3.998,16.401-10.217,22.245c-0.295,0.278-0.466,0.664-0.473,1.07s0.152,0.797,0.439,1.084l12.74,12.741
				c0.292,0.292,0.676,0.439,1.06,0.439c0.374,0,0.749-0.139,1.039-0.418c10.191-9.787,16.025-22.946,16.426-37.054
				C122.095,69.653,121.942,69.261,121.66,68.97z M104.625,103.915L94.01,93.299c5.782-5.917,9.277-13.556,9.964-21.784h15.043
				C118.303,83.759,113.238,95.16,104.625,103.915z"/>
		</g>
	</g>
	<g>
		<g>
			<path class="st5" d="M45.331,93.289l-12.74,12.74c9.347,8.976,22.031,14.503,36.014,14.503v-18.017
				C59.598,102.516,51.415,99.007,45.331,93.289z"/>
		</g>
	</g>
	<g>
		<g>
			<path class="st0" d="M68.605,101.016c-8.294,0-16.195-3.132-22.246-8.819c-0.59-0.555-1.515-0.542-2.088,0.032l-12.74,12.741
				c-0.285,0.285-0.443,0.673-0.439,1.076c0.004,0.403,0.17,0.788,0.461,1.067c10.021,9.622,23.18,14.921,37.053,14.921
				c0.829,0,1.5-0.671,1.5-1.5v-18.018C70.105,101.687,69.434,101.016,68.605,101.016z M67.105,119.011
				c-12.032-0.352-23.417-4.933-32.354-13.019l10.634-10.635c6.078,5.267,13.694,8.291,21.72,8.627V119.011z"/>
		</g>
	</g>
	<g>
		<g>
			
				<ellipse transform="matrix(0.1891 -0.982 0.982 0.1891 -11.648 122.9259)" class="st1" cx="68.605" cy="68.516" rx="34" ry="34"/>
		</g>
	</g>
	<g>
		<g>
			<path class="st0" d="M68.605,33.016c-19.575,0-35.5,15.925-35.5,35.5c0,19.575,15.925,35.5,35.5,35.5s35.5-15.925,35.5-35.5
				C104.105,48.941,88.18,33.016,68.605,33.016z M68.605,101.016c-17.92,0-32.5-14.58-32.5-32.5c0-17.92,14.58-32.5,32.5-32.5
				s32.5,14.58,32.5,32.5C101.105,86.436,86.525,101.016,68.605,101.016z"/>
		</g>
	</g>
	<g>
		<g>
			<path class="st5" d="M162.621,104.873l-12.74-12.74c-8.976,9.348-14.503,22.031-14.503,36.014c0,0.503,0.024,1,0.038,1.5h18.017
				c-0.022-0.498-0.038-0.997-0.038-1.5C153.395,119.14,156.904,110.957,162.621,104.873z"/>
		</g>
	</g>
	<g>
		<g>
			<path class="st0" d="M163.682,103.813l-12.74-12.74c-0.281-0.282-0.663-0.439-1.061-0.439h-0.016
				c-0.402,0.004-0.787,0.17-1.066,0.461c-9.622,10.021-14.921,23.179-14.921,37.053c0,0.372,0.012,0.741,0.024,1.109l0.014,0.432
				c0.021,0.812,0.686,1.459,1.499,1.459h18.018c0.409,0,0.801-0.167,1.083-0.462c0.283-0.295,0.434-0.694,0.416-1.103
				c-0.021-0.476-0.037-0.954-0.037-1.435c0-8.293,3.132-16.194,8.819-22.246C164.269,105.31,164.255,104.386,163.682,103.813z
				 M151.894,128.147h-15.017c0-12.584,4.619-24.546,13.041-33.854l10.634,10.634C154.958,111.384,151.894,119.573,151.894,128.147z
				"/>
		</g>
	</g>
	<g>
		<g>
			<path class="st5" d="M187.395,76.13v18.017c9.771,0,18.572,4.127,24.774,10.726l12.74-12.74
				C215.443,82.276,202.141,76.13,187.395,76.13z"/>
		</g>
	</g>
	<g>
		<g>
			<path class="st0" d="M225.991,91.094c-10.195-10.617-23.902-16.464-38.597-16.464c-0.828,0-1.5,0.671-1.5,1.5v18.017
				c0,0.829,0.672,1.5,1.5,1.5c9.057,0,17.467,3.642,23.682,10.254c0.277,0.296,0.664,0.466,1.069,0.473h0.023
				c0.398,0,0.779-0.158,1.061-0.439l12.74-12.74C226.547,92.617,226.557,91.684,225.991,91.094z M212.18,102.742
				c-6.31-6.173-14.479-9.704-23.285-10.064V77.651c12.814,0.369,24.749,5.466,33.9,14.475L212.18,102.742z"/>
		</g>
	</g>
	<g>
		<g>
			<path class="st1" d="M224.909,92.133l-12.74,12.74c5.717,6.083,9.226,14.266,9.226,23.274c0,0.503-0.016,1.002-0.038,1.5h18.017
				c0.014-0.5,0.038-0.997,0.038-1.5C239.412,114.164,233.885,101.481,224.909,92.133z"/>
		</g>
	</g>
	<g>
		<g>
			<path class="st0" d="M225.991,91.094c-0.279-0.291-0.664-0.457-1.066-0.461h-0.016c-0.398,0-0.779,0.158-1.061,0.439
				l-12.74,12.74c-0.573,0.573-0.588,1.497-0.032,2.088c5.687,6.051,8.818,13.952,8.818,22.246c0,0.48-0.015,0.957-0.036,1.432
				c-0.019,0.409,0.131,0.808,0.414,1.104c0.282,0.296,0.675,0.463,1.084,0.463h18.018c0.811,0,1.476-0.645,1.499-1.456l0.014-0.401
				c0.013-0.38,0.025-0.76,0.025-1.143C240.912,114.273,235.613,101.115,225.991,91.094z M222.894,128.147
				c0-8.575-3.063-16.764-8.657-23.22l10.634-10.634c8.422,9.309,13.041,21.27,13.041,33.854H222.894z"/>
		</g>
	</g>
	<g>
		<g>
			<path class="st1" d="M149.881,92.133l12.74,12.74c6.202-6.599,15.003-10.726,24.774-10.726V76.13
				C172.649,76.13,159.347,82.276,149.881,92.133z"/>
		</g>
	</g>
	<g>
		<g>
			<path class="st0" d="M187.394,74.63c-14.693,0-28.4,5.847-38.596,16.464c-0.565,0.589-0.556,1.522,0.022,2.1l12.74,12.74
				c0.281,0.282,0.663,0.439,1.061,0.439h0.023c0.405-0.006,0.792-0.177,1.069-0.473c6.215-6.612,14.625-10.254,23.681-10.254
				c0.828,0,1.5-0.671,1.5-1.5V76.13C188.894,75.301,188.223,74.63,187.394,74.63z M185.894,92.678
				c-8.807,0.36-16.975,3.891-23.284,10.064l-10.615-10.615c9.151-9.009,21.087-14.106,33.899-14.475V92.678z"/>
		</g>
	</g>
	<g>
		<g>
			<path class="st1" d="M153.433,129.647h-18.017c0.402,14.146,6.444,26.871,15.966,36.014l12.74-12.74
				C157.862,147.038,153.831,138.816,153.433,129.647z"/>
		</g>
	</g>
	<g>
		<g>
			<path class="st0" d="M165.148,151.828c-6.22-5.846-9.848-13.747-10.217-22.246c-0.035-0.803-0.696-1.435-1.499-1.435h-18.018
				c-0.405,0-0.793,0.164-1.075,0.455c-0.283,0.291-0.435,0.683-0.424,1.088c0.401,14.108,6.234,27.267,16.426,37.054
				c0.291,0.279,0.665,0.418,1.039,0.418c0.384,0,0.768-0.147,1.061-0.439l12.74-12.74c0.287-0.287,0.445-0.678,0.44-1.084
				C165.614,152.492,165.444,152.106,165.148,151.828z M151.374,163.546c-8.612-8.754-13.677-20.156-14.393-32.399h15.044
				c0.686,8.227,4.182,15.865,9.964,21.784L151.374,163.546z"/>
		</g>
	</g>
	<g>
		<g>
			<path class="st1" d="M210.669,152.921c-6.083,5.718-14.266,9.226-23.274,9.226v18.017c13.983,0,26.666-5.528,36.014-14.503
				L210.669,152.921z"/>
		</g>
	</g>
	<g>
		<g>
			<path class="st0" d="M224.47,164.601l-12.74-12.74c-0.573-0.574-1.499-0.587-2.088-0.033c-6.052,5.688-13.952,8.819-22.247,8.819
				c-0.828,0-1.5,0.671-1.5,1.5v18.018c0,0.829,0.672,1.5,1.5,1.5c13.873,0,27.032-5.299,37.054-14.921
				c0.291-0.279,0.457-0.664,0.461-1.067C224.913,165.273,224.755,164.886,224.47,164.601z M188.894,178.643v-15.027
				c8.026-0.336,15.643-3.36,21.721-8.627l10.635,10.634C212.311,173.709,200.927,178.291,188.894,178.643z"/>
		</g>
	</g>
	<g>
		<g>
			<path class="st5" d="M221.357,129.647c-0.398,9.169-4.429,17.391-10.688,23.274l12.74,12.74
				c9.521-9.143,15.564-21.868,15.966-36.014H221.357z"/>
		</g>
	</g>
	<g>
		<g>
			<path class="st0" d="M240.449,128.602c-0.282-0.291-0.67-0.455-1.075-0.455h-18.018c-0.803,0-1.464,0.632-1.499,1.435
				c-0.369,8.501-3.997,16.401-10.216,22.246c-0.296,0.278-0.466,0.664-0.473,1.07c-0.006,0.406,0.152,0.797,0.44,1.084l12.74,12.74
				c0.292,0.292,0.677,0.439,1.061,0.439c0.374,0,0.748-0.139,1.039-0.418c10.191-9.788,16.025-22.947,16.425-37.054
				C240.885,129.285,240.732,128.892,240.449,128.602z M223.416,163.546l-10.615-10.615c5.781-5.918,9.276-13.557,9.963-21.784
				h15.044C237.093,143.39,232.028,154.791,223.416,163.546z"/>
		</g>
	</g>
	<g>
		<g>
			<path class="st5" d="M164.121,152.921l-12.74,12.74c9.347,8.976,22.031,14.503,36.014,14.503v-18.017
				C178.388,162.147,170.205,158.638,164.121,152.921z"/>
		</g>
	</g>
	<g>
		<g>
			<path class="st0" d="M187.394,160.647c-8.294,0-16.194-3.132-22.246-8.819c-0.589-0.553-1.515-0.541-2.088,0.033l-12.74,12.74
				c-0.285,0.285-0.443,0.673-0.439,1.076c0.004,0.403,0.17,0.788,0.461,1.067c10.021,9.622,23.18,14.921,37.053,14.921
				c0.828,0,1.5-0.671,1.5-1.5v-18.018C188.894,161.318,188.223,160.647,187.394,160.647z M185.894,178.643
				c-12.032-0.352-23.416-4.933-32.354-13.019l10.635-10.635c6.078,5.267,13.693,8.291,21.72,8.627V178.643z"/>
		</g>
	</g>
	<g>
		<g>
			<circle class="st1" cx="187.395" cy="128.147" r="34"/>
		</g>
	</g>
	<g>
		<g>
			<path class="st0" d="M187.394,92.647c-19.575,0-35.5,15.925-35.5,35.5s15.925,35.5,35.5,35.5s35.5-15.925,35.5-35.5
				S206.97,92.647,187.394,92.647z M187.394,160.647c-17.921,0-32.5-14.58-32.5-32.5s14.579-32.5,32.5-32.5s32.5,14.58,32.5,32.5
				S205.315,160.647,187.394,160.647z"/>
		</g>
	</g>
	<g>
		<g>
			<path class="st7" d="M226.19,26.25c-0.974,11.564-13.025,13.39-13.025,13.39c10.347,0.487,12.925,14.059,12.925,14.059
				c0.221-9.677,13.321-14.202,13.321-14.202C229.599,38.909,226.19,26.25,226.19,26.25z"/>
		</g>
	</g>
	<g>
		<g>
			<path class="st0" d="M239.502,37.998c-8.605-0.514-11.832-12.024-11.863-12.14c-0.19-0.702-0.849-1.162-1.584-1.102
				c-0.725,0.066-1.298,0.642-1.359,1.367c-0.859,10.215-11.313,11.963-11.754,12.032c-0.763,0.115-1.314,0.79-1.273,1.56
				c0.04,0.77,0.657,1.384,1.428,1.421c9.027,0.425,11.498,12.719,11.521,12.843c0.138,0.711,0.76,1.217,1.473,1.217
				c0.042,0,0.084-0.002,0.126-0.005c0.764-0.064,1.357-0.693,1.375-1.459c0.194-8.509,12.191-12.777,12.313-12.819
				c0.676-0.235,1.092-0.915,0.994-1.623C240.799,38.582,240.216,38.042,239.502,37.998z M225.935,48.345
				c-1.356-3.13-3.709-6.907-7.587-8.876c2.931-1.405,6.409-3.913,8.202-8.273c1.551,3.071,4.2,6.88,8.334,8.722
				C231.878,41.558,227.962,44.324,225.935,48.345z"/>
		</g>
	</g>
	<g>
		<g>
			<path class="st7" d="M204.492,43.23c-0.689,8.179-9.212,9.47-9.212,9.47c7.318,0.344,9.142,9.944,9.142,9.944
				c0.156-6.844,9.422-10.045,9.422-10.045C206.902,52.185,204.492,43.23,204.492,43.23z"/>
		</g>
	</g>
	<g>
		<g>
			<path class="st0" d="M213.934,51.102c-5.767-0.345-7.973-8.185-7.995-8.264c-0.189-0.702-0.864-1.164-1.581-1.102
				c-0.726,0.065-1.3,0.643-1.361,1.368c-0.578,6.871-7.646,8.066-7.941,8.113c-0.763,0.115-1.313,0.79-1.273,1.56
				c0.04,0.77,0.657,1.384,1.428,1.421c6.035,0.284,7.724,8.644,7.739,8.726c0.136,0.712,0.759,1.22,1.473,1.22
				c0.041,0,0.083-0.001,0.125-0.005c0.765-0.063,1.358-0.694,1.376-1.461c0.129-5.709,8.331-8.634,8.412-8.662
				c0.676-0.234,1.093-0.913,0.996-1.622C215.232,51.686,214.647,51.145,213.934,51.102z M204.349,57.897
				c-0.924-1.885-2.34-3.947-4.447-5.279c1.855-1.042,3.697-2.63,4.87-4.917c1.058,1.874,2.655,3.955,4.941,5.224
				C207.863,54.025,205.725,55.665,204.349,57.897z"/>
		</g>
	</g>
	<g>
		<g>
			<path class="st7" d="M204.454,16.573c-0.657,8.182-9.175,9.507-9.175,9.507c7.319,0.316,9.181,9.909,9.181,9.909
				c0.129-6.845,9.383-10.082,9.383-10.082C206.899,25.518,204.454,16.573,204.454,16.573z"/>
		</g>
	</g>
	<g>
		<g>
			<path class="st0" d="M213.926,24.409c-5.741-0.321-7.983-8.084-8.025-8.232c-0.192-0.703-0.87-1.168-1.586-1.097
				c-0.726,0.068-1.297,0.648-1.355,1.373c-0.552,6.873-7.615,8.096-7.911,8.144c-0.762,0.119-1.31,0.796-1.268,1.566
				c0.043,0.77,0.663,1.382,1.434,1.415c6.036,0.261,7.757,8.614,7.772,8.696c0.138,0.711,0.76,1.214,1.472,1.214
				c0.043,0,0.087-0.002,0.13-0.005c0.765-0.066,1.356-0.699,1.371-1.466c0.108-5.71,8.298-8.666,8.378-8.694
				c0.676-0.236,1.09-0.917,0.99-1.626C215.227,24.988,214.641,24.449,213.926,24.409z M204.368,31.241
				c-0.932-1.882-2.357-3.938-4.468-5.262c1.852-1.049,3.686-2.644,4.852-4.935c1.064,1.87,2.67,3.944,4.961,5.204
				C207.868,27.355,205.735,29.003,204.368,31.241z"/>
		</g>
	</g>
	<g>
		<g>
			<path class="st1" d="M112.798,219.723h-87.66c-4.573,0-8.28,3.707-8.28,8.28v3.219c0,4.573,3.707,8.28,8.28,8.28h87.66
				c4.573,0,8.28-3.707,8.28-8.28v-3.219C121.078,223.43,117.371,219.723,112.798,219.723z"/>
		</g>
	</g>
	<g>
		<g>
			<path class="st0" d="M112.798,218.223h-87.66c-5.393,0-9.78,4.387-9.78,9.78v3.218c0,5.393,4.387,9.78,9.78,9.78h14.254
				c0.829,0,1.5-0.671,1.5-1.5s-0.671-1.5-1.5-1.5H25.138c-3.739,0-6.78-3.042-6.78-6.78v-3.218c0-3.739,3.042-6.78,6.78-6.78h87.66
				c3.739,0,6.78,3.042,6.78,6.78v3.218c0,3.739-3.042,6.78-6.78,6.78H53.095c-0.829,0-1.5,0.671-1.5,1.5s0.671,1.5,1.5,1.5h59.703
				c5.393,0,9.78-4.387,9.78-9.78v-3.218C122.578,222.61,118.191,218.223,112.798,218.223z"/>
		</g>
	</g>
	<g>
		<g>
			<path class="st1" d="M112.798,199.943h-87.66c-4.573,0-8.28,3.707-8.28,8.28v3.219c0,4.573,3.707,8.28,8.28,8.28h87.66
				c4.573,0,8.28-3.707,8.28-8.28v-3.219C121.078,203.651,117.371,199.943,112.798,199.943z"/>
		</g>
	</g>
	<g>
		<g>
			<path class="st0" d="M112.798,198.443h-87.66c-5.393,0-9.78,4.387-9.78,9.78v3.219c0,5.393,4.387,9.78,9.78,9.78h87.66
				c5.393,0,9.78-4.387,9.78-9.78v-3.219C122.578,202.831,118.191,198.443,112.798,198.443z M119.578,211.442
				c0,3.739-3.042,6.78-6.78,6.78h-87.66c-3.739,0-6.78-3.042-6.78-6.78v-3.219c0-3.739,3.042-6.78,6.78-6.78h87.66
				c3.739,0,6.78,3.042,6.78,6.78V211.442z"/>
		</g>
	</g>
	<g>
		<g>
			<path class="st1" d="M112.798,180.164h-87.66c-4.573,0-8.28,3.707-8.28,8.28v3.219c0,4.573,3.707,8.28,8.28,8.28h87.66
				c4.573,0,8.28-3.707,8.28-8.28v-3.219C121.078,183.872,117.371,180.164,112.798,180.164z"/>
		</g>
	</g>
	<g>
		<g>
			<path class="st0" d="M112.798,178.665h-87.66c-5.393,0-9.78,4.387-9.78,9.78v3.218c0,5.393,4.387,9.78,9.78,9.78h87.66
				c5.393,0,9.78-4.387,9.78-9.78v-3.218C122.578,183.052,118.191,178.665,112.798,178.665z M119.578,191.663
				c0,3.739-3.042,6.78-6.78,6.78h-87.66c-3.739,0-6.78-3.042-6.78-6.78v-3.218c0-3.739,3.042-6.78,6.78-6.78h87.66
				c3.739,0,6.78,3.042,6.78,6.78V191.663z"/>
		</g>
	</g>
	<g>
		<g>
			<path class="st1" d="M231.132,219.723h-87.66c-4.573,0-8.28,3.707-8.28,8.28v3.219c0,4.573,3.707,8.28,8.28,8.28h87.66
				c4.573,0,8.28-3.707,8.28-8.28v-3.219C239.412,223.43,235.705,219.723,231.132,219.723z"/>
		</g>
	</g>
	<g>
		<g>
			<path class="st0" d="M231.132,218.223h-87.66c-5.393,0-9.78,4.387-9.78,9.78v3.218c0,5.393,4.388,9.78,9.78,9.78h87.66
				c5.393,0,9.78-4.387,9.78-9.78v-3.218C240.912,222.61,236.524,218.223,231.132,218.223z M237.912,231.221
				c0,3.739-3.042,6.78-6.78,6.78h-87.66c-3.738,0-6.78-3.042-6.78-6.78v-3.218c0-3.739,3.042-6.78,6.78-6.78h87.66
				c3.738,0,6.78,3.042,6.78,6.78V231.221z"/>
		</g>
	</g>
	<g>
		<g>
			<path class="st1" d="M231.132,199.943h-87.66c-4.573,0-8.28,3.707-8.28,8.28v3.219c0,4.573,3.707,8.28,8.28,8.28h87.66
				c4.573,0,8.28-3.707,8.28-8.28v-3.219C239.412,203.651,235.705,199.943,231.132,199.943z"/>
		</g>
	</g>
	<g>
		<g>
			<path class="st0" d="M231.132,198.443h-87.66c-5.393,0-9.78,4.387-9.78,9.78v3.219c0,5.393,4.388,9.78,9.78,9.78h87.66
				c5.393,0,9.78-4.387,9.78-9.78v-3.219C240.912,202.831,236.524,198.443,231.132,198.443z M237.912,211.442
				c0,3.739-3.042,6.78-6.78,6.78h-87.66c-3.738,0-6.78-3.042-6.78-6.78v-3.219c0-3.739,3.042-6.78,6.78-6.78h87.66
				c3.738,0,6.78,3.042,6.78,6.78V211.442z"/>
		</g>
	</g>
	<g>
		<g>
			<path class="st1" d="M231.132,180.164h-87.66c-4.573,0-8.28,3.707-8.28,8.28v3.219c0,4.573,3.707,8.28,8.28,8.28h87.66
				c4.573,0,8.28-3.707,8.28-8.28v-3.219C239.412,183.872,235.705,180.164,231.132,180.164z"/>
		</g>
	</g>
	<g>
		<g>
			<path class="st0" d="M231.132,178.664h-67.689c-0.828,0-1.5,0.671-1.5,1.5s0.672,1.5,1.5,1.5h67.689
				c3.738,0,6.78,3.042,6.78,6.781v3.218c0,3.739-3.042,6.78-6.78,6.78h-87.66c-3.738,0-6.78-3.042-6.78-6.78v-3.218
				c0-3.739,3.042-6.781,6.78-6.781h6.241c0.828,0,1.5-0.671,1.5-1.5s-0.672-1.5-1.5-1.5h-6.241c-5.393,0-9.78,4.388-9.78,9.781
				v3.218c0,5.393,4.388,9.78,9.78,9.78h87.66c5.393,0,9.78-4.387,9.78-9.78v-3.218
				C240.912,183.052,236.524,178.664,231.132,178.664z"/>
		</g>
	</g>
	<g>
		<g>
			<path class="st1" d="M112.798,160.385h-87.66c-4.573,0-8.28,3.707-8.28,8.28v3.219c0,4.573,3.707,8.28,8.28,8.28h87.66
				c4.573,0,8.28-3.707,8.28-8.28v-3.219C121.078,164.093,117.371,160.385,112.798,160.385z"/>
		</g>
	</g>
	<g>
		<g>
			<path class="st0" d="M112.798,158.885h-87.66c-5.393,0-9.78,4.387-9.78,9.78v3.219c0,5.393,4.387,9.78,9.78,9.78h87.66
				c5.393,0,9.78-4.387,9.78-9.78v-3.219C122.578,163.272,118.191,158.885,112.798,158.885z M119.578,171.884
				c0,3.739-3.042,6.78-6.78,6.78h-87.66c-3.739,0-6.78-3.042-6.78-6.78v-3.219c0-3.739,3.042-6.78,6.78-6.78h87.66
				c3.739,0,6.78,3.042,6.78,6.78V171.884z"/>
		</g>
	</g>
	<g>
		<g>
			<path class="st1" d="M112.798,140.606h-87.66c-4.573,0-8.28,3.707-8.28,8.28v3.219c0,4.573,3.707,8.28,8.28,8.28h87.66
				c4.573,0,8.28-3.707,8.28-8.28v-3.219C121.078,144.313,117.371,140.606,112.798,140.606z"/>
		</g>
	</g>
	<g>
		<g>
			<path class="st0" d="M112.798,139.106h-87.66c-5.393,0-9.78,4.388-9.78,9.781v3.218c0,5.393,4.387,9.78,9.78,9.78h87.66
				c5.393,0,9.78-4.387,9.78-9.78v-3.218C122.578,143.494,118.191,139.106,112.798,139.106z M119.578,152.105
				c0,3.739-3.042,6.78-6.78,6.78h-87.66c-3.739,0-6.78-3.042-6.78-6.78v-3.218c0-3.739,3.042-6.781,6.78-6.781h87.66
				c3.739,0,6.78,3.042,6.78,6.781V152.105z"/>
		</g>
	</g>
	<g>
		<g>
			<path class="st1" d="M112.674,120.827h-87.66c-4.573,0-8.28,3.707-8.28,8.28v3.219c0,4.573,3.707,8.28,8.28,8.28h87.66
				c4.573,0,8.28-3.707,8.28-8.28v-3.219C120.954,124.534,117.247,120.827,112.674,120.827z"/>
		</g>
	</g>
	<g>
		<g>
			<path class="st0" d="M112.674,119.327h-87.66c-5.393,0-9.78,4.387-9.78,9.78v3.218c0,5.393,4.387,9.78,9.78,9.78h87.66
				c5.393,0,9.78-4.387,9.78-9.78v-3.218C122.455,123.714,118.067,119.327,112.674,119.327z M119.455,132.326
				c0,3.739-3.042,6.78-6.78,6.78h-87.66c-3.739,0-6.78-3.042-6.78-6.78v-3.218c0-3.739,3.042-6.78,6.78-6.78h87.66
				c3.739,0,6.78,3.042,6.78,6.78V132.326z"/>
		</g>
	</g>
	<g>
		<g>
			<path class="st13" d="M231.134,221.222h-16c3.74,0,6.78,3.04,6.78,6.78v3.22c0,3.74-3.04,6.78-6.78,6.78h16
				c3.74,0,6.78-3.04,6.78-6.78v-3.22C237.914,224.262,234.874,221.222,231.134,221.222z"/>
		</g>
	</g>
	<g>
		<g>
			<path class="st13" d="M231.134,201.442h-16c3.74,0,6.78,3.04,6.78,6.78v3.22c0,3.74-3.04,6.78-6.78,6.78h16
				c3.74,0,6.78-3.04,6.78-6.78v-3.22C237.914,204.482,234.874,201.442,231.134,201.442z"/>
		</g>
	</g>
	<g>
		<g>
			<path class="st13" d="M231.134,181.662h-16c3.74,0,6.78,3.04,6.78,6.78v3.22c0,3.74-3.04,6.78-6.78,6.78h16
				c3.74,0,6.78-3.04,6.78-6.78v-3.22C237.914,184.702,234.874,181.662,231.134,181.662z"/>
		</g>
	</g>
</g>
</svg>
