<?xml version="1.0" encoding="utf-8"?>
<!-- Generator: Adobe Illustrator 22.0.1, SVG Export Plug-In . SVG Version: 6.00 Build 0)  -->
<svg version="1.1" id="Layer_1" xmlns="http://www.w3.org/2000/svg" xmlns:xlink="http://www.w3.org/1999/xlink" x="0px" y="0px"
	 viewBox="0 0 256 256" style="enable-background:new 0 0 256 256;" xml:space="preserve">
<style type="text/css">
	.st0{fill:#3A312A;}
	.st1{fill:#8AC6DD;}
	.st2{fill:#F16C7A;}
	.st3{fill:#D7E057;}
	.st4{fill:#87796F;}
	.st5{fill:#FCE8CB;}
	.st6{fill:#DECAAD;}
	.st7{fill:#D6DF58;}
	.st8{fill:#FAE6CA;}
	.st9{fill:#DDC9AC;}
	.st10{fill:#D5DE58;}
	.st11{fill:#ED6E7A;}
	.st12{fill:#8AC5DC;}
	.st13{fill:#6CA8BF;}
	.st14{fill:#695B51;}
	.st15{fill:#F8E4C8;}
	.st16{fill:#EF6D7A;}
	.st17{fill-rule:evenodd;clip-rule:evenodd;fill:#F8E4C8;}
	.st18{fill:#89C4DB;}
	.st19{fill:#F59689;}
	.st20{fill:#D34E5C;}
	.st21{fill:#F7E3C7;}
	.st22{fill:#8AC3DA;}
	.st23{fill-rule:evenodd;clip-rule:evenodd;fill:#F7E3C7;}
	.st24{fill-rule:evenodd;clip-rule:evenodd;fill:#87796F;}
	.st25{fill:#B9C239;}
	.st26{fill:#D4DB56;}
	.st27{fill-rule:evenodd;clip-rule:evenodd;fill:#F16C7A;}
	.st28{fill-rule:evenodd;clip-rule:evenodd;fill:#F6E2C6;}
	.st29{fill:#F6E2C6;}
	.st30{fill-rule:evenodd;clip-rule:evenodd;fill:#FAE6CA;}
	.st31{fill:#B8C136;}
</style>
<g>
	<g>
		<g>
			<path class="st21" d="M224.34,143.109h-10.003v-6.501c-2.767,1.918-5.63,3.05-8.407,3.05c-2.665,0-5.477-1.143-8.232-3.084h-0.17
				v6.535H187.52c-8.362,0-15.14,6.778-15.14,15.14v13.72h67.1v-13.72C239.48,149.887,232.702,143.109,224.34,143.109z"/>
		</g>
	</g>
	<g>
		<g>
			<path class="st0" d="M224.34,141.609h-8.503v-5c0-0.558-0.31-1.07-0.805-1.329c-0.494-0.258-1.091-0.222-1.55,0.096
				c-2.663,1.847-5.204,2.783-7.553,2.783c-2.242,0-4.721-0.945-7.367-2.81c-0.253-0.178-0.555-0.274-0.864-0.274h-0.17
				c-0.828,0-1.5,0.671-1.5,1.5v5.035h-8.509c-9.175,0-16.64,7.465-16.64,16.64v13.72c0,0.829,0.672,1.5,1.5,1.5h67.1
				c0.828,0,1.5-0.671,1.5-1.5v-13.72C240.979,149.074,233.515,141.609,224.34,141.609z M237.979,170.469h-64.1v-12.22
				c0-7.521,6.119-13.64,13.64-13.64h10.009c0.828,0,1.5-0.671,1.5-1.5v-3.93c2.385,1.314,4.698,1.979,6.901,1.979
				c2.232,0,4.547-0.63,6.907-1.878v3.829c0,0.829,0.672,1.5,1.5,1.5h10.003c7.521,0,13.64,6.119,13.64,13.64V170.469z"/>
		</g>
	</g>
	<g>
		<g>
			<path class="st22" d="M224.34,143.103h-2.393l0.061,0.049l-10.404,13.795l-5.37-4.042l-5.369,4.042l-10.404-13.795l0.061-0.049
				h-3.001c-8.365,0-15.141,6.782-15.141,15.14v13.728h67.1v-13.728C239.48,149.885,232.704,143.103,224.34,143.103z"/>
		</g>
	</g>
	<g>
		<g>
			<path class="st0" d="M224.34,141.603h-2.393c-0.597,0-1.106,0.375-1.342,0.916l-9.297,12.328l-4.172-3.141
				c-0.535-0.402-1.27-0.402-1.805,0l-4.172,3.141l-9.217-12.221c-0.002-0.006-0.004-0.013-0.006-0.019
				c-0.211-0.602-0.778-1.004-1.416-1.004h-3.001c-9.176,0-16.641,7.465-16.641,16.64v13.728c0,0.829,0.672,1.5,1.5,1.5h67.101
				c0.828,0,1.5-0.671,1.5-1.5v-13.728C240.98,149.068,233.516,141.603,224.34,141.603z M237.98,170.471H173.88v-12.228
				c0-7.521,6.119-13.64,13.641-13.64h2.156l9.991,13.247c0.498,0.661,1.438,0.792,2.1,0.295l4.467-3.363l4.467,3.363
				c0.662,0.499,1.601,0.366,2.1-0.295l9.991-13.247h1.548c7.521,0,13.641,6.119,13.641,13.64V170.471z"/>
		</g>
	</g>
	<g>
		<g>
			<path class="st4" d="M190.462,143.152l0.06-0.05h-3.004c-8.363,0-15.139,6.781-15.139,15.144v13.727h28.329L190.462,143.152z"/>
		</g>
	</g>
	<g>
		<g>
			<path class="st0" d="M202.122,171.47l-10.1-28.408c-0.005-0.157-0.033-0.316-0.089-0.47c-0.215-0.595-0.779-0.991-1.411-0.991
				h-3.004c-9.175,0-16.639,7.466-16.639,16.644v13.727c0,0.829,0.672,1.5,1.5,1.5h28.329c0.487,0,0.944-0.237,1.226-0.635
				C202.216,172.439,202.285,171.929,202.122,171.47z M173.88,170.473v-12.227c0-7.523,6.118-13.644,13.639-13.644h1.867
				l9.198,25.871H173.88z"/>
		</g>
	</g>
	<g>
		<g>
			<path class="st4" d="M224.341,143.102h-2.396l0.065,0.05l-10.247,28.821h27.716v-13.727
				C239.479,149.882,232.704,143.102,224.341,143.102z"/>
		</g>
	</g>
	<g>
		<g>
			<path class="st0" d="M224.341,141.602h-2.396c-0.641,0-1.178,0.432-1.386,1.037c-0.035,0.101-0.058,0.204-0.068,0.307
				l-10.141,28.524c-0.163,0.459-0.094,0.969,0.188,1.367c0.281,0.398,0.738,0.635,1.226,0.635h27.716c0.828,0,1.5-0.671,1.5-1.5
				v-13.727C240.979,149.068,233.516,141.602,224.341,141.602z M237.979,170.473h-24.091l9.197-25.871h1.255
				c7.521,0,13.639,6.121,13.639,13.644V170.473z"/>
		</g>
	</g>
	<g>
		<g>
			<path class="st23" d="M179.933,99.621c-3.29,0-5.957,2.667-5.957,5.957s2.667,5.957,5.957,5.957c3.29,0,5.957-2.667,5.957-5.957
				S183.223,99.621,179.933,99.621z"/>
		</g>
	</g>
	<g>
		<g>
			<path class="st0" d="M179.933,98.121c-4.112,0-7.457,3.345-7.457,7.458c0,4.112,3.345,7.457,7.457,7.457s7.457-3.345,7.457-7.457
				C187.39,101.466,184.045,98.121,179.933,98.121z M179.933,110.035c-2.458,0-4.457-2-4.457-4.457c0-2.458,1.999-4.458,4.457-4.458
				s4.457,2,4.457,4.458C184.39,108.036,182.391,110.035,179.933,110.035z"/>
		</g>
	</g>
	<g>
		<g>
			<path class="st23" d="M231.929,99.621c-3.29,0-5.957,2.667-5.957,5.957s2.667,5.957,5.957,5.957c3.29,0,5.957-2.667,5.957-5.957
				S235.219,99.621,231.929,99.621z"/>
		</g>
	</g>
	<g>
		<g>
			<path class="st0" d="M231.929,98.121c-4.112,0-7.457,3.345-7.457,7.458c0,4.112,3.345,7.457,7.457,7.457s7.457-3.345,7.457-7.457
				C239.386,101.466,236.041,98.121,231.929,98.121z M231.929,110.035c-2.458,0-4.457-2-4.457-4.457
				c0-2.458,1.999-4.458,4.457-4.458s4.457,2,4.457,4.458C236.386,108.036,234.387,110.035,231.929,110.035z"/>
		</g>
	</g>
	<g>
		<g>
			<path class="st0" d="M184.948,159.626c-0.828,0-1.5,0.671-1.5,1.5v10.844c0,0.829,0.672,1.5,1.5,1.5s1.5-0.671,1.5-1.5v-10.844
				C186.448,160.298,185.776,159.626,184.948,159.626z"/>
		</g>
	</g>
	<g>
		<g>
			<path class="st0" d="M227.522,159.626c-0.828,0-1.5,0.671-1.5,1.5v10.844c0,0.829,0.672,1.5,1.5,1.5s1.5-0.671,1.5-1.5v-10.844
				C229.022,160.298,228.351,159.626,227.522,159.626z"/>
		</g>
	</g>
	<g>
		<g>
			<polygon class="st11" points="208.803,161.829 203.647,161.829 202.082,171.971 210.368,171.971 			"/>
		</g>
	</g>
	<g>
		<g>
			<path class="st0" d="M211.851,171.743l-1.564-10.142c-0.113-0.731-0.742-1.271-1.482-1.271h-5.156
				c-0.74,0-1.369,0.54-1.482,1.271l-1.565,10.142c-0.066,0.433,0.059,0.873,0.344,1.206c0.285,0.332,0.701,0.523,1.139,0.523h8.286
				c0.438,0,0.854-0.191,1.139-0.523C211.792,172.615,211.917,172.175,211.851,171.743z M203.831,170.471l1.103-7.142h2.584
				l1.102,7.142H203.831z"/>
		</g>
	</g>
	<g>
		<g>
			<polygon class="st11" points="201.908,152.896 203.651,161.826 208.797,161.826 210.582,152.896 			"/>
		</g>
	</g>
	<g>
		<g>
			<path class="st0" d="M211.742,151.945c-0.285-0.347-0.711-0.549-1.16-0.549h-8.674c-0.448,0-0.873,0.2-1.158,0.546
				c-0.284,0.346-0.399,0.801-0.314,1.241l1.743,8.931c0.138,0.704,0.755,1.212,1.473,1.212h5.146c0.715,0,1.331-0.505,1.471-1.206
				l1.785-8.931C212.141,152.75,212.027,152.292,211.742,151.945z M207.567,160.327h-2.681l-1.157-5.931h5.023L207.567,160.327z"/>
		</g>
	</g>
	<g>
		<g>
			
				<rect x="194.986" y="139.376" transform="matrix(0.7986 -0.6018 0.6018 0.7986 -49.1357 149.192)" class="st22" width="6.751" height="17.282"/>
		</g>
	</g>
	<g>
		<g>
			<path class="st0" d="M207.456,151.983l-10.401-13.801c-0.499-0.662-1.441-0.795-2.101-0.295l-5.392,4.063
				c-0.318,0.239-0.527,0.595-0.583,0.989c-0.056,0.394,0.048,0.793,0.287,1.111l10.401,13.802c0.24,0.318,0.596,0.527,0.989,0.583
				c0.07,0.01,0.14,0.015,0.209,0.015c0.324,0,0.642-0.105,0.902-0.302l5.392-4.063
				C207.822,153.585,207.954,152.645,207.456,151.983z M201.161,154.849l-8.596-11.406l2.996-2.258l8.596,11.406L201.161,154.849z"
				/>
		</g>
	</g>
	<g>
		<g>
			
				<rect x="205.469" y="144.641" transform="matrix(0.6019 -0.7986 0.7986 0.6019 -32.9603 229.9211)" class="st22" width="17.282" height="6.751"/>
		</g>
	</g>
	<g>
		<g>
			<path class="st0" d="M223.492,142.939c-0.056-0.394-0.265-0.75-0.583-0.989l-5.392-4.063c-0.66-0.5-1.603-0.367-2.101,0.295
				l-10.401,13.801c-0.498,0.662-0.366,1.602,0.296,2.101l5.392,4.063c0.261,0.197,0.578,0.302,0.902,0.302
				c0.069,0,0.139-0.005,0.209-0.015c0.394-0.055,0.749-0.265,0.989-0.583l10.401-13.802
				C223.444,143.732,223.548,143.333,223.492,142.939z M211.311,154.849l-2.996-2.258l8.596-11.406l2.996,2.258L211.311,154.849z"/>
		</g>
	</g>
	<g>
		<g>
			<path class="st21" d="M223.759,83.21c-0.954-0.869-1.768-1.863-2.421-2.943c-3.677,2.25-9.051,3.672-15.038,3.672
				c-1.421,0-2.808-0.08-4.149-0.236c-9.624-1.095-18.851,4.646-21.899,13.843c-0.296,0.884-0.502,1.733-0.598,2.521
				c-0.015,0.11-0.025,0.221-0.035,0.331c-0.06,0.754-0.095,1.517-0.095,2.291c0,14.581,14.606,36.973,26.41,36.973
				c12.361,0,26.405-22.392,26.405-36.973C232.338,94.973,229.033,88.037,223.759,83.21z"/>
		</g>
	</g>
	<g>
		<g>
			<path class="st0" d="M224.769,82.101c-0.841-0.767-1.563-1.645-2.146-2.61c-0.207-0.342-0.541-0.587-0.929-0.682
				c-0.386-0.092-0.797-0.03-1.139,0.178c-3.583,2.193-8.779,3.451-14.255,3.451c-1.348,0-2.686-0.076-3.979-0.226
				c-10.371-1.179-20.247,5.069-23.492,14.857c-0.335,1.002-0.559,1.95-0.662,2.8c-0.015,0.111-0.025,0.222-0.043,0.411
				c-0.067,0.846-0.1,1.634-0.1,2.408c0,15.191,14.97,38.473,27.909,38.473c13.206,0,27.905-22.933,27.905-38.473
				C233.838,94.88,230.533,87.377,224.769,82.101z M205.933,138.161c-10.993,0-24.909-21.994-24.909-35.473
				c0-0.695,0.029-1.405,0.093-2.201l0.026-0.24c0.081-0.666,0.26-1.415,0.532-2.23c2.574-7.765,9.992-12.948,18.13-12.948
				c0.72,0,1.444,0.041,2.173,0.124c1.405,0.163,2.859,0.246,4.322,0.246c5.416,0,10.633-1.151,14.569-3.188
				c0.558,0.745,1.186,1.436,1.877,2.066c5.143,4.707,8.092,11.403,8.092,18.372C230.838,116.374,217.239,138.161,205.933,138.161z"
				/>
		</g>
	</g>
	<g>
		<g>
			<circle class="st0" cx="196.607" cy="102.388" r="2.578"/>
		</g>
	</g>
	<g>
		<g>
			<path class="st0" d="M215.255,99.81c-1.424,0-2.578,1.154-2.578,2.578c0,1.424,1.154,2.578,2.578,2.578s2.578-1.154,2.578-2.578
				C217.832,100.965,216.678,99.81,215.255,99.81z"/>
		</g>
	</g>
	<g>
		<g>
			<path class="st19" d="M191.455,106.732c-2.452,0-4.44,1.486-4.44,3.319s1.988,3.319,4.44,3.319c2.452,0,4.441-1.486,4.441-3.319
				S193.907,106.732,191.455,106.732z"/>
		</g>
	</g>
	<g>
		<g>
			<path class="st19" d="M220.406,106.732c-2.452,0-4.44,1.486-4.44,3.319s1.988,3.319,4.44,3.319s4.44-1.486,4.44-3.319
				S222.859,106.732,220.406,106.732z"/>
		</g>
	</g>
	<g>
		<g>
			<path class="st0" d="M213.754,118.161c-0.773-0.292-1.641,0.103-1.931,0.878c-0.538,1.434-2.551,3.568-5.894,3.568
				c-2.857,0-4.746-1.171-5.942-3.687c-0.355-0.748-1.251-1.066-1.999-0.71c-0.748,0.356-1.065,1.251-0.71,1.999
				c1.704,3.582,4.615,5.397,8.651,5.397c4.559,0,7.707-2.859,8.702-5.516C214.923,119.316,214.53,118.452,213.754,118.161z"/>
		</g>
	</g>
	<g>
		<g>
			<path class="st4" d="M233.574,96.555c0-14.422-12.229-26.113-27.313-26.113s-27.313,11.691-27.313,26.114
				c0,1.526,0.276,2.663,0.789,4.084c0.242,0.67,4.153-1.469,4.486-1.704c1.665-1.172,3.026-2.762,4.043-4.519
				c0.421-0.73,0.771-1.474,1.054-2.218c0.9-2.372,3.346-8.973,5.83-8.455c3.331,0.694,7.106,1.087,11.111,1.087
				c4.005,0,7.78-0.392,11.111-1.087c2.484-0.518,4.93,6.083,5.83,8.455c0.282,0.744,0.633,1.487,1.054,2.218
				c1.68,2.906,4.518,5.673,7.971,6.177c0.009-0.167,0.219-0.224,0.376-0.281C233.733,99.903,233.574,97.461,233.574,96.555z"/>
		</g>
	</g>
	<g>
		<g>
			<path class="st0" d="M235.077,96.839l-0.003-0.284c0-15.226-12.926-27.613-28.813-27.613s-28.813,12.388-28.813,27.614
				c0,1.794,0.352,3.134,0.879,4.593c0.178,0.494,0.573,0.87,1.085,1.032c0.159,0.05,0.338,0.073,0.532,0.073
				c1.856,0,5.108-2.066,5.143-2.09c1.753-1.234,3.302-2.96,4.481-4.998c0.453-0.79,0.843-1.608,1.155-2.433l0.055-0.145
				c2.51-6.626,3.777-7.317,4.067-7.374c3.561,0.742,7.401,1.119,11.416,1.119c4.016,0,7.856-0.376,11.379-1.116
				c0.328,0.054,1.594,0.746,4.103,7.365l0.058,0.151c0.314,0.83,0.704,1.648,1.157,2.436c2.209,3.823,5.594,6.406,9.053,6.911
				c0.419,0.06,0.841-0.057,1.168-0.324c0.039-0.032,0.076-0.066,0.111-0.102C235.136,100.83,235.098,98.247,235.077,96.839z
				 M231.909,98.973c-0.019,0.007-0.036,0.015-0.055,0.023c-2.36-0.576-4.68-2.525-6.299-5.326
				c-0.373-0.647-0.693-1.321-0.951-2.001l-0.057-0.15c-1.971-5.199-4.261-9.92-7.481-9.241c-3.36,0.7-6.995,1.055-10.806,1.055
				c-3.81,0-7.444-0.355-10.805-1.055c-3.245-0.682-5.514,4.045-7.484,9.248l-0.054,0.143c-0.257,0.676-0.577,1.35-0.949,1.998
				c-0.962,1.66-2.21,3.059-3.59,4.03c-0.409,0.265-1.692,0.929-2.599,1.306c-0.215-0.769-0.333-1.518-0.333-2.446
				c0-13.572,11.58-24.614,25.813-24.614s25.813,11.042,25.813,24.613l0.003,0.329C232.094,97.965,232.037,98.666,231.909,98.973z
				 M233.012,101.761l-0.541-1.399l0.639,1.352C233.075,101.733,233.042,101.749,233.012,101.761z"/>
		</g>
	</g>
	<g>
		<g>
			<path class="st0" d="M227.531,159.55c-0.828,0-1.5,0.671-1.5,1.5v10.836c0,0.829,0.672,1.5,1.5,1.5s1.5-0.671,1.5-1.5V161.05
				C229.031,160.221,228.359,159.55,227.531,159.55z"/>
		</g>
	</g>
	<g>
		<g>
			<path class="st0" d="M184.99,159.55c-0.828,0-1.5,0.671-1.5,1.5v10.836c0,0.829,0.672,1.5,1.5,1.5s1.5-0.671,1.5-1.5V161.05
				C186.49,160.221,185.818,159.55,184.99,159.55z"/>
		</g>
	</g>
	<g>
		<g>
			<path class="st24" d="M206.728,61.368c-15.735,0-21.401,5.996-21.401,13.392c0,7.396,5.666,13.392,21.401,13.392
				c15.735,0,28.491-13.392,28.491-13.392S222.463,61.368,206.728,61.368z"/>
		</g>
	</g>
	<g>
		<g>
			<path class="st0" d="M236.305,73.726c-0.539-0.566-13.385-13.857-29.577-13.857c-19.926,0-22.901,9.33-22.901,14.892
				c0,5.562,2.976,14.892,22.901,14.892c16.192,0,29.038-13.292,29.577-13.857C236.856,75.216,236.856,74.306,236.305,73.726z
				 M206.728,86.653c-9.079,0-19.901-2.063-19.901-11.892c0-9.829,10.822-11.892,19.901-11.892c12.363,0,23.006,8.824,26.331,11.892
				C229.733,77.829,219.091,86.653,206.728,86.653z"/>
		</g>
	</g>
	<g>
		<g>
			<g>
				<polygon class="st4" points="99.353,97.907 99.353,128.221 99.353,142.446 99.353,162.732 155.99,162.732 155.99,97.907 				"/>
			</g>
		</g>
		<g>
			<g>
				<path class="st0" d="M155.99,96.407H99.353c-0.828,0-1.5,0.671-1.5,1.5v30.314c0,0.829,0.672,1.5,1.5,1.5
					c0.828,0,1.5-0.671,1.5-1.5V99.407h53.637v61.825h-53.637v-18.785c0-0.829-0.672-1.5-1.5-1.5c-0.828,0-1.5,0.671-1.5,1.5v20.285
					c0,0.829,0.672,1.5,1.5,1.5h56.637c0.828,0,1.5-0.671,1.5-1.5V97.907C157.49,97.078,156.818,96.407,155.99,96.407z"/>
			</g>
		</g>
	</g>
	<g>
		<g>
			<g>
				<path class="st15" d="M146.442,149.983h-9.995v-6.496c-2.764,1.917-5.625,3.047-8.401,3.047c-2.663,0-5.473-1.142-8.226-3.082
					h-0.169v6.53H109.65c-8.356,0-15.128,6.773-15.128,15.128v6.861h67.049v-6.861C161.571,156.756,154.798,149.983,146.442,149.983
					z"/>
			</g>
		</g>
		<g>
			<g>
				<path class="st0" d="M146.442,148.483h-8.495v-4.996c0-0.558-0.31-1.07-0.805-1.329c-0.494-0.258-1.09-0.222-1.55,0.096
					c-2.661,1.845-5.2,2.78-7.546,2.78c-2.24,0-4.717-0.945-7.363-2.808c-0.252-0.178-0.554-0.273-0.863-0.273h-0.169
					c-0.828,0-1.5,0.671-1.5,1.5v5.03h-8.501c-9.169,0-16.628,7.459-16.628,16.628v6.861c0,0.829,0.672,1.5,1.5,1.5h67.048
					c0.828,0,1.5-0.671,1.5-1.5v-6.861C163.07,155.942,155.611,148.483,146.442,148.483z M160.07,170.473H96.022v-5.361
					c0-7.515,6.113-13.628,13.628-13.628h10.001c0.828,0,1.5-0.671,1.5-1.5v-3.925c2.383,1.313,4.694,1.977,6.895,1.977
					c2.23,0,4.543-0.629,6.9-1.875v3.824c0,0.829,0.672,1.5,1.5,1.5h9.995c7.515,0,13.628,6.114,13.628,13.628V170.473z"/>
			</g>
		</g>
	</g>
	<g>
		<g>
			<g>
				<path class="st11" d="M146.443,149.978h-2.391l0.062,0.045l-10.397,13.788l-5.365-4.042l-5.365,4.042l-10.396-13.788
					l0.062-0.045h-3.002c-8.356,0-15.128,6.773-15.128,15.129v6.866h67.049v-6.866C161.571,156.751,154.798,149.978,146.443,149.978
					z"/>
			</g>
		</g>
		<g>
			<g>
				<path class="st0" d="M146.442,148.479h-2.392c-0.599,0-1.107,0.374-1.341,0.916l-9.288,12.318l-4.168-3.14
					c-0.533-0.402-1.271-0.403-1.805,0l-4.167,3.14l-9.209-12.213c-0.205-0.609-0.776-1.021-1.421-1.021h-3.002
					c-9.169,0-16.628,7.459-16.628,16.628v6.866c0,0.829,0.672,1.5,1.5,1.5h67.049c0.828,0,1.5-0.671,1.5-1.5v-6.866
					C163.071,155.938,155.611,148.479,146.442,148.479z M160.071,170.473H96.022v-5.366c0-7.515,6.113-13.628,13.628-13.628h2.158
					l9.981,13.237c0.498,0.662,1.44,0.793,2.1,0.295l4.462-3.362l4.463,3.362c0.662,0.499,1.602,0.367,2.1-0.295l9.981-13.237h1.547
					c7.515,0,13.629,6.114,13.629,13.628V170.473z"/>
			</g>
		</g>
	</g>
	<g>
		<g>
			<g>
				<path class="st4" d="M112.59,150.02l0.06-0.04h-3c-8.35,0-15.13,6.77-15.13,15.13v6.86h26.94L112.59,150.02z"/>
			</g>
		</g>
		<g>
			<g>
				<path class="st0" d="M122.851,171.408l-8.704-21.54c-0.008-0.107-0.027-0.214-0.06-0.32c-0.19-0.634-0.774-1.068-1.437-1.068h-3
					c-9.17,0-16.631,7.46-16.631,16.63v6.86c0,0.829,0.672,1.5,1.5,1.5h26.941c0.499,0,0.965-0.248,1.243-0.661
					C122.982,172.395,123.037,171.87,122.851,171.408z M96.019,170.47v-5.36c0-7.516,6.115-13.63,13.631-13.63h1.911l7.675,18.99
					H96.019z"/>
			</g>
		</g>
	</g>
	<g>
		<g>
			<g>
				<path class="st4" d="M146.44,149.98h-2.39l0.06,0.04l-8.87,21.95h26.33v-6.86C161.57,156.75,154.8,149.98,146.44,149.98z"/>
			</g>
		</g>
		<g>
			<g>
				<path class="st0" d="M146.44,148.48h-2.391c-0.662,0-1.216,0.454-1.406,1.088c-0.018,0.06-0.032,0.121-0.042,0.181
					l-8.752,21.659c-0.187,0.462-0.132,0.987,0.147,1.401c0.278,0.413,0.744,0.661,1.243,0.661h26.33c0.828,0,1.5-0.671,1.5-1.5
					v-6.86C163.07,155.94,155.61,148.48,146.44,148.48z M160.07,170.47h-22.606l7.675-18.99h1.302c7.516,0,13.63,6.114,13.63,13.63
					V170.47z"/>
			</g>
		</g>
	</g>
	<g id="XMLID_65_">
		<g>
			<g>
				<path class="st17" d="M102.069,106.528c-3.288,0-5.953,2.665-5.953,5.953s2.665,5.953,5.953,5.953
					c3.288,0,5.953-2.665,5.953-5.953S105.357,106.528,102.069,106.528z"/>
			</g>
		</g>
		<g>
			<g>
				<path class="st0" d="M102.069,105.028c-4.109,0-7.453,3.343-7.453,7.453s3.344,7.453,7.453,7.453
					c4.109,0,7.452-3.343,7.452-7.453S106.179,105.028,102.069,105.028z M102.069,116.934c-2.455,0-4.453-1.998-4.453-4.453
					s1.998-4.453,4.453-4.453c2.455,0,4.452,1.998,4.452,4.453S104.524,116.934,102.069,116.934z"/>
			</g>
		</g>
	</g>
	<g>
		<g>
			<g>
				
					<rect x="117.11" y="146.253" transform="matrix(0.7986 -0.6018 0.6018 0.7986 -68.9543 103.7058)" class="st11" width="6.746" height="17.269"/>
			</g>
		</g>
		<g>
			<g>
				<path class="st0" d="M129.572,158.849l-10.394-13.791c-0.499-0.662-1.442-0.795-2.101-0.295l-5.388,4.06
					c-0.318,0.239-0.527,0.595-0.583,0.989c-0.056,0.394,0.048,0.793,0.287,1.111l10.394,13.791
					c0.295,0.391,0.744,0.597,1.199,0.597c0.315,0,0.632-0.098,0.901-0.302l5.388-4.06c0.318-0.239,0.527-0.595,0.583-0.989
					C129.915,159.567,129.812,159.167,129.572,158.849z M123.281,161.711l-8.588-11.395l2.992-2.254l8.588,11.395L123.281,161.711z"
					/>
			</g>
		</g>
	</g>
	<g>
		<g>
			<g>
				
					<rect x="127.586" y="151.514" transform="matrix(0.6019 -0.7986 0.7986 0.6019 -69.4581 170.4516)" class="st11" width="17.269" height="6.746"/>
			</g>
		</g>
		<g>
			<g>
				<path class="st0" d="M145.014,148.824l-5.387-4.06c-0.317-0.24-0.716-0.343-1.112-0.288c-0.394,0.055-0.749,0.265-0.989,0.583
					l-10.394,13.791c-0.239,0.318-0.343,0.718-0.287,1.111c0.056,0.394,0.265,0.75,0.583,0.989l5.388,4.06
					c0.27,0.204,0.587,0.302,0.901,0.302c0.455,0,0.904-0.206,1.199-0.597l10.393-13.791
					C145.807,150.263,145.675,149.322,145.014,148.824z M133.423,161.711l-2.992-2.254l8.588-11.395l2.991,2.254L133.423,161.711z"
					/>
			</g>
		</g>
	</g>
	<g id="XMLID_64_">
		<g>
			<g>
				<path class="st17" d="M154.011,106.398c-3.288,0-5.953,2.665-5.953,5.953s2.665,5.953,5.953,5.953
					c3.287,0,5.953-2.665,5.953-5.953S157.298,106.398,154.011,106.398z"/>
			</g>
		</g>
		<g>
			<g>
				<path class="st0" d="M154.011,104.897c-4.109,0-7.453,3.343-7.453,7.453s3.344,7.453,7.453,7.453s7.452-3.343,7.452-7.453
					S158.12,104.897,154.011,104.897z M154.011,116.803c-2.455,0-4.453-1.998-4.453-4.453s1.998-4.453,4.453-4.453
					s4.452,1.998,4.452,4.453S156.466,116.803,154.011,116.803z"/>
			</g>
		</g>
	</g>
	<g id="XMLID_63_">
		<g>
			<g>
				<path class="st15" d="M128.047,83.203c-14.574,0-26.389,11.815-26.389,26.389c0,14.574,14.598,36.944,26.389,36.944
					c12.353,0,26.389-22.37,26.389-36.944C154.436,95.017,142.622,83.203,128.047,83.203z"/>
			</g>
		</g>
		<g>
			<g>
				<path class="st0" d="M128.047,81.703c-15.378,0-27.889,12.511-27.889,27.889c0,15.179,14.959,38.444,27.889,38.444
					c13.198,0,27.89-22.915,27.89-38.444C155.937,94.213,143.425,81.703,128.047,81.703z M128.047,145.035
					c-10.984,0-24.889-21.976-24.889-35.444c0-13.724,11.165-24.889,24.889-24.889c13.725,0,24.89,11.165,24.89,24.889
					C152.937,123.265,139.347,145.035,128.047,145.035z"/>
			</g>
		</g>
	</g>
	<g>
		<g>
			<path class="st0" d="M118.731,106.718c-1.422,0-2.576,1.153-2.576,2.576c0,1.423,1.153,2.576,2.576,2.576
				s2.576-1.153,2.576-2.576C121.306,107.871,120.153,106.718,118.731,106.718z"/>
		</g>
	</g>
	<g>
		<g>
			<path class="st0" d="M137.364,106.718c-1.422,0-2.576,1.153-2.576,2.576c0,1.423,1.153,2.576,2.576,2.576
				c1.423,0,2.576-1.153,2.576-2.576C139.94,107.871,138.787,106.718,137.364,106.718z"/>
		</g>
	</g>
	<g>
		<g>
			<path class="st19" d="M113.583,113.634c-2.45,0-4.437,1.485-4.437,3.317s1.986,3.317,4.437,3.317
				c2.451,0,4.437-1.485,4.437-3.317S116.033,113.634,113.583,113.634z"/>
		</g>
	</g>
	<g>
		<g>
			<path class="st19" d="M142.512,113.634c-2.45,0-4.437,1.485-4.437,3.317s1.987,3.317,4.437,3.317
				c2.451,0,4.437-1.485,4.437-3.317S144.962,113.634,142.512,113.634z"/>
		</g>
	</g>
	<g>
		<g>
			<path class="st0" d="M135.863,125.053c-0.775-0.292-1.641,0.103-1.931,0.879c-0.536,1.433-2.546,3.564-5.886,3.564
				c-2.854,0-4.741-1.17-5.938-3.684c-0.355-0.748-1.251-1.065-1.999-0.709c-0.748,0.356-1.067,1.251-0.71,2
				c1.704,3.579,4.613,5.394,8.646,5.394c4.557,0,7.702-2.858,8.696-5.513C137.033,126.208,136.64,125.343,135.863,125.053z"/>
		</g>
	</g>
	<g>
		<g>
			<g>
				<path class="st4" d="M149.76,79.027c-5.545-5.858-13.392-9.512-22.09-9.512c-3.253,0-6.385,0.511-9.32,1.462
					c2.324,5.391,5.072,10.567,8.814,15.073c1.72,2.066,3.627,3.973,5.643,5.742c1.643,1.462,3.363,2.841,5.11,4.165
					c5.957,4.522,12.386,8.523,19.145,11.781c0.665-2.495,1.016-5.116,1.016-7.819C158.079,91.825,154.92,84.473,149.76,79.027z"/>
			</g>
		</g>
		<g>
			<g>
				<path class="st0" d="M150.85,77.996c-6.092-6.436-14.324-9.981-23.18-9.981c-3.349,0-6.64,0.516-9.782,1.535
					c-0.402,0.13-0.73,0.423-0.904,0.808c-0.175,0.385-0.179,0.825-0.011,1.213c2.789,6.466,5.66,11.371,9.038,15.438
					c1.669,2.005,3.623,3.994,5.8,5.903c1.518,1.351,3.219,2.738,5.2,4.24c6.191,4.7,12.718,8.716,19.4,11.938
					c0.206,0.099,0.429,0.149,0.651,0.149c0.214,0,0.427-0.045,0.626-0.137c0.406-0.187,0.708-0.545,0.823-0.977
					c0.708-2.656,1.067-5.417,1.067-8.206C159.579,91.723,156.479,83.937,150.85,77.996z M156.029,105.557
					c-5.915-2.985-11.695-6.611-17.205-10.794c-1.919-1.455-3.561-2.792-5.027-4.098c-2.067-1.813-3.911-3.689-5.478-5.573
					c-2.917-3.512-5.449-7.721-7.905-13.155c2.354-0.612,4.787-0.921,7.257-0.921c8.023,0,15.481,3.211,21.001,9.044
					c5.1,5.381,7.908,12.435,7.908,19.86C156.579,101.824,156.395,103.712,156.029,105.557z"/>
			</g>
		</g>
	</g>
	<g>
		<g>
			<g>
				<path class="st4" d="M127.67,69.515c-3.253,0-6.385,0.511-9.32,1.462c-12.232,3.929-21.085,15.403-21.085,28.943
					c0,2.863,0.396,5.632,1.138,8.259c11.996-4.402,23.717-9.688,34.405-16.386c6.028-3.775,11.721-7.995,16.952-12.765
					C144.215,73.169,136.368,69.515,127.67,69.515z"/>
			</g>
		</g>
		<g>
			<g>
				<path class="st0" d="M150.85,77.996c-6.092-6.436-14.324-9.981-23.18-9.981c-3.349,0-6.64,0.516-9.779,1.533
					C104.657,73.8,95.766,86.005,95.766,99.919c0,2.945,0.401,5.861,1.193,8.667c0.113,0.402,0.39,0.739,0.762,0.929
					c0.213,0.109,0.447,0.164,0.682,0.164c0.175,0,0.35-0.03,0.517-0.092c13.506-4.956,24.852-10.361,34.685-16.523
					c6.33-3.964,12.105-8.313,17.167-12.928c0.298-0.271,0.474-0.651,0.488-1.053C151.273,78.68,151.126,78.289,150.85,77.996z
					 M132.011,90.521c-9.274,5.813-19.939,10.946-32.563,15.67c-0.453-2.049-0.683-4.151-0.683-6.272
					c0-12.606,8.055-23.664,20.046-27.516c2.844-0.921,5.824-1.388,8.858-1.388c7.508,0,14.521,2.812,19.912,7.951
					C142.938,83.072,137.707,86.955,132.011,90.521z"/>
			</g>
		</g>
	</g>
	<g>
		<g>
			<path class="st0" d="M107.081,159.595c-0.828,0-1.5,0.671-1.5,1.5v10.877c0,0.829,0.672,1.5,1.5,1.5c0.828,0,1.5-0.671,1.5-1.5
				v-10.877C108.581,160.267,107.909,159.595,107.081,159.595z"/>
		</g>
	</g>
	<g>
		<g>
			<path class="st0" d="M149.012,159.637c-0.828,0-1.5,0.671-1.5,1.5v10.835c0,0.829,0.672,1.5,1.5,1.5s1.5-0.671,1.5-1.5v-10.835
				C150.512,160.309,149.84,159.637,149.012,159.637z"/>
		</g>
	</g>
	<g>
		<g>
			<path class="st21" d="M68.48,143.109H58.477v-6.501c-2.767,1.918-5.629,3.05-8.407,3.05c-2.665,0-5.477-1.143-8.232-3.084h-0.17
				v6.535H31.66c-8.362,0-15.14,6.778-15.14,15.14v13.72h67.1v-13.72C83.62,149.887,76.842,143.109,68.48,143.109z"/>
		</g>
	</g>
	<g>
		<g>
			<path class="st0" d="M68.48,141.609h-8.503v-5c0-0.558-0.309-1.07-0.805-1.329c-0.494-0.258-1.09-0.222-1.55,0.096
				c-2.663,1.847-5.204,2.783-7.553,2.783c-2.242,0-4.721-0.945-7.369-2.811c-0.252-0.178-0.554-0.273-0.863-0.273h-0.17
				c-0.828,0-1.5,0.671-1.5,1.5v5.035H31.66c-9.176,0-16.641,7.465-16.641,16.64v13.72c0,0.829,0.672,1.5,1.5,1.5H83.62
				c0.828,0,1.5-0.671,1.5-1.5v-13.72C85.12,149.074,77.655,141.609,68.48,141.609z M82.12,170.469H18.019v-12.22
				c0-7.521,6.119-13.64,13.641-13.64h10.008c0.828,0,1.5-0.671,1.5-1.5v-3.93c2.386,1.315,4.699,1.979,6.902,1.979
				c2.232,0,4.547-0.63,6.907-1.878v3.829c0,0.829,0.672,1.5,1.5,1.5H68.48c7.521,0,13.64,6.119,13.64,13.64V170.469z"/>
		</g>
	</g>
	<g>
		<g>
			<path class="st7" d="M68.48,143.103h-2.392l0.061,0.049l-10.404,13.795l-5.37-4.042l-5.369,4.042l-10.404-13.795l0.061-0.049
				H31.66c-8.365,0-15.14,6.782-15.14,15.14v13.728h67.1v-13.728C83.62,149.885,76.844,143.103,68.48,143.103z"/>
		</g>
	</g>
	<g>
		<g>
			<path class="st0" d="M68.479,141.603h-2.393c-0.598,0-1.107,0.375-1.342,0.918l-9.296,12.326l-4.173-3.141
				c-0.535-0.402-1.27-0.402-1.805,0l-4.172,3.141l-9.215-12.219c-0.002-0.005-0.003-0.01-0.005-0.016
				c-0.209-0.604-0.778-1.01-1.418-1.01H31.66c-9.176,0-16.641,7.465-16.641,16.64v13.728c0,0.829,0.672,1.5,1.5,1.5H83.62
				c0.828,0,1.5-0.671,1.5-1.5v-13.728C85.12,149.068,77.655,141.603,68.479,141.603z M82.12,170.471H18.019v-12.228
				c0-7.521,6.119-13.64,13.641-13.64h2.156l9.991,13.247c0.499,0.661,1.438,0.792,2.1,0.295l4.467-3.363l4.468,3.363
				c0.662,0.499,1.601,0.366,2.1-0.295l9.991-13.247h1.547c7.521,0,13.641,6.119,13.641,13.64V170.471z"/>
		</g>
	</g>
	<g>
		<g>
			<path class="st4" d="M34.602,143.152l0.06-0.05h-3.004c-8.363,0-15.139,6.781-15.139,15.144v13.727h28.329L34.602,143.152z"/>
		</g>
	</g>
	<g>
		<g>
			<path class="st0" d="M46.262,171.47l-10.101-28.411c-0.004-0.158-0.034-0.318-0.09-0.473c-0.217-0.591-0.779-0.985-1.409-0.985
				h-3.003c-9.175,0-16.639,7.466-16.639,16.644v13.727c0,0.829,0.672,1.5,1.5,1.5h28.328c0.487,0,0.944-0.237,1.226-0.635
				C46.355,172.439,46.425,171.93,46.262,171.47z M18.02,170.473v-12.227c0-7.523,6.118-13.644,13.639-13.644h1.867l9.197,25.871
				H18.02z"/>
		</g>
	</g>
	<g>
		<g>
			<path class="st4" d="M68.481,143.102h-2.396l0.065,0.05l-10.246,28.821H83.62v-13.727
				C83.62,149.882,76.844,143.102,68.481,143.102z"/>
		</g>
	</g>
	<g>
		<g>
			<path class="st0" d="M68.48,141.602h-2.395c-0.643,0-1.181,0.434-1.388,1.042c-0.033,0.1-0.056,0.202-0.066,0.304l-10.14,28.522
				c-0.163,0.459-0.094,0.969,0.188,1.367c0.281,0.398,0.738,0.635,1.226,0.635h27.715c0.828,0,1.5-0.671,1.5-1.5v-13.727
				C85.119,149.068,77.655,141.602,68.48,141.602z M82.119,170.473h-24.09l9.197-25.871h1.254c7.521,0,13.639,6.121,13.639,13.644
				V170.473z"/>
		</g>
	</g>
	<g>
		<g>
			<path class="st23" d="M24.073,99.621c-3.29,0-5.957,2.667-5.957,5.957s2.667,5.957,5.957,5.957c3.29,0,5.957-2.667,5.957-5.957
				S27.363,99.621,24.073,99.621z"/>
		</g>
	</g>
	<g>
		<g>
			<path class="st0" d="M24.073,98.121c-4.112,0-7.458,3.345-7.458,7.458c0,4.112,3.346,7.457,7.458,7.457s7.457-3.345,7.457-7.457
				C31.53,101.466,28.185,98.121,24.073,98.121z M24.073,110.035c-2.458,0-4.458-2-4.458-4.457c0-2.458,2-4.458,4.458-4.458
				c2.458,0,4.457,2,4.457,4.458C28.53,108.036,26.531,110.035,24.073,110.035z"/>
		</g>
	</g>
	<g>
		<g>
			<path class="st23" d="M76.069,99.621c-3.29,0-5.957,2.667-5.957,5.957s2.667,5.957,5.957,5.957s5.957-2.667,5.957-5.957
				S79.359,99.621,76.069,99.621z"/>
		</g>
	</g>
	<g>
		<g>
			<path class="st0" d="M76.069,98.121c-4.112,0-7.458,3.345-7.458,7.458c0,4.112,3.346,7.457,7.458,7.457s7.457-3.345,7.457-7.457
				C83.526,101.466,80.182,98.121,76.069,98.121z M76.069,110.035c-2.458,0-4.458-2-4.458-4.457c0-2.458,2-4.458,4.458-4.458
				s4.457,2,4.457,4.458C80.526,108.036,78.527,110.035,76.069,110.035z"/>
		</g>
	</g>
	<g>
		<g>
			<path class="st4" d="M77.708,88.67c0-7.022-2.898-13.396-7.615-18.097c0.286,0.819,0.437,1.647,0.437,2.466
				c0,2.773-1.909,5.304-5.053,7.223c0.653,1.085,1.467,2.079,2.421,2.953c4.782,4.37,7.941,10.478,8.494,17.319
				c0.07-0.095,0.226-0.146,0.347-0.191C77.869,99.931,77.708,89.574,77.708,88.67z"/>
		</g>
	</g>
	<g>
		<g>
			<path class="st0" d="M79.21,88.985l-0.002-0.315c0-7.177-2.86-13.981-8.056-19.16c-0.494-0.493-1.267-0.579-1.857-0.207
				c-0.592,0.372-0.848,1.104-0.617,1.764c0.234,0.671,0.354,1.335,0.354,1.972c0,2.126-1.539,4.237-4.335,5.942
				c-0.704,0.43-0.93,1.347-0.504,2.054c0.73,1.212,1.636,2.318,2.694,3.287c4.659,4.257,7.504,10.057,8.011,16.332
				c0.051,0.624,0.482,1.15,1.084,1.322c0.136,0.039,0.274,0.058,0.411,0.058c0.319,0,0.632-0.103,0.889-0.292
				C78.366,101.345,79.296,100.905,79.21,88.985z M76.194,92.841c-1.53-4.062-4.006-7.738-7.282-10.732
				c-0.489-0.448-0.938-0.933-1.342-1.449c2.243-1.665,3.692-3.643,4.228-5.761c2.866,4.043,4.41,8.808,4.41,13.77l0.002,0.337
				C76.221,90.482,76.214,91.75,76.194,92.841z"/>
		</g>
	</g>
	<g>
		<g>
			<path class="st0" d="M29.089,159.626c-0.828,0-1.5,0.671-1.5,1.5v10.844c0,0.829,0.672,1.5,1.5,1.5c0.828,0,1.5-0.671,1.5-1.5
				v-10.844C30.589,160.298,29.917,159.626,29.089,159.626z"/>
		</g>
	</g>
	<g>
		<g>
			<path class="st0" d="M71.663,159.626c-0.828,0-1.5,0.671-1.5,1.5v10.844c0,0.829,0.672,1.5,1.5,1.5s1.5-0.671,1.5-1.5v-10.844
				C73.163,160.298,72.491,159.626,71.663,159.626z"/>
		</g>
	</g>
	<g>
		<g>
			<polygon class="st22" points="52.944,161.829 47.787,161.829 46.223,171.971 54.508,171.971 			"/>
		</g>
	</g>
	<g>
		<g>
			<path class="st0" d="M55.99,171.743l-1.564-10.142c-0.112-0.731-0.742-1.271-1.482-1.271h-5.156c-0.74,0-1.37,0.54-1.482,1.271
				l-1.565,10.142c-0.066,0.433,0.059,0.873,0.344,1.205c0.285,0.332,0.701,0.523,1.139,0.523h8.285
				c0.438,0,0.854-0.191,1.139-0.523C55.932,172.615,56.057,172.175,55.99,171.743z M47.972,170.471l1.102-7.142h2.584l1.102,7.142
				H47.972z"/>
		</g>
	</g>
	<g>
		<g>
			<polygon class="st22" points="46.048,152.896 47.791,161.826 52.937,161.826 54.722,152.896 			"/>
		</g>
	</g>
	<g>
		<g>
			<path class="st0" d="M55.882,151.945c-0.285-0.347-0.711-0.549-1.16-0.549h-8.674c-0.448,0-0.873,0.2-1.158,0.546
				c-0.284,0.346-0.399,0.801-0.314,1.241l1.743,8.931c0.138,0.704,0.755,1.212,1.473,1.212h5.146c0.715,0,1.331-0.505,1.471-1.206
				l1.784-8.931C56.28,152.749,56.167,152.292,55.882,151.945z M51.708,160.327h-2.682l-1.157-5.931h5.023L51.708,160.327z"/>
		</g>
	</g>
	<g>
		<g>
			
				<rect x="39.126" y="139.376" transform="matrix(0.7986 -0.6018 0.6018 0.7986 -80.5231 55.3868)" class="st7" width="6.751" height="17.282"/>
		</g>
	</g>
	<g>
		<g>
			<path class="st0" d="M51.596,151.983l-10.401-13.801c-0.499-0.662-1.441-0.795-2.101-0.295l-5.392,4.063
				c-0.318,0.239-0.527,0.595-0.583,0.989c-0.056,0.394,0.048,0.793,0.287,1.111l10.401,13.802c0.24,0.318,0.596,0.527,0.989,0.583
				c0.07,0.01,0.14,0.015,0.209,0.015c0.324,0,0.642-0.105,0.902-0.302l5.392-4.063C51.962,153.585,52.094,152.645,51.596,151.983z
				 M45.301,154.849l-8.596-11.406l2.996-2.258l8.596,11.406L45.301,154.849z"/>
		</g>
	</g>
	<g>
		<g>
			
				<rect x="49.609" y="144.641" transform="matrix(0.6019 -0.7986 0.7986 0.6019 -95.0146 105.4499)" class="st7" width="17.282" height="6.751"/>
		</g>
	</g>
	<g>
		<g>
			<path class="st0" d="M67.632,142.939c-0.056-0.394-0.265-0.75-0.583-0.989l-5.392-4.063c-0.66-0.5-1.602-0.367-2.101,0.295
				l-10.401,13.801c-0.498,0.662-0.366,1.602,0.296,2.101l5.392,4.063c0.261,0.197,0.578,0.302,0.902,0.302
				c0.069,0,0.139-0.005,0.209-0.015c0.394-0.055,0.749-0.265,0.989-0.583l10.401-13.802
				C67.584,143.732,67.688,143.333,67.632,142.939z M55.45,154.849l-2.996-2.258l8.596-11.406l2.996,2.258L55.45,154.849z"/>
		</g>
	</g>
	<g>
		<g>
			<path class="st21" d="M67.899,83.21c-0.954-0.869-1.768-1.863-2.421-2.943c-3.677,2.25-9.051,3.672-15.038,3.672
				c-1.421,0-2.808-0.08-4.149-0.236c-9.624-1.095-18.851,4.646-21.899,13.843c-0.296,0.884-0.502,1.733-0.598,2.521
				c-0.015,0.11-0.025,0.221-0.035,0.331c-0.06,0.754-0.096,1.517-0.096,2.291c0,14.581,14.606,36.973,26.41,36.973
				c12.361,0,26.405-22.392,26.405-36.973C76.478,94.973,73.173,88.037,67.899,83.21z"/>
		</g>
	</g>
	<g>
		<g>
			<path class="st0" d="M68.908,82.101c-0.839-0.765-1.562-1.643-2.148-2.611c-0.206-0.342-0.541-0.587-0.929-0.681
				c-0.389-0.093-0.798-0.029-1.138,0.178c-3.583,2.193-8.778,3.451-14.255,3.451c-1.348,0-2.686-0.076-3.979-0.226
				c-10.37-1.179-20.247,5.069-23.491,14.855c-0.335,0.998-0.559,1.946-0.661,2.789c-0.02,0.137-0.032,0.273-0.045,0.422
				c-0.067,0.842-0.101,1.63-0.101,2.41c0,15.191,14.97,38.473,27.91,38.473c13.205,0,27.904-22.933,27.904-38.473
				C77.977,94.879,74.673,87.376,68.908,82.101z M50.073,138.161c-10.994,0-24.91-21.994-24.91-35.473
				c0-0.699,0.029-1.409,0.09-2.158c0.008-0.084,0.015-0.169,0.03-0.283c0.081-0.67,0.26-1.419,0.532-2.23
				c2.574-7.765,9.991-12.948,18.13-12.948c0.719,0,1.445,0.041,2.173,0.123c1.404,0.164,2.858,0.246,4.321,0.246
				c5.417,0,10.634-1.151,14.569-3.188c0.559,0.745,1.186,1.437,1.877,2.066c5.143,4.706,8.092,11.402,8.092,18.372
				C74.977,116.374,61.379,138.161,50.073,138.161z"/>
		</g>
	</g>
	<g>
		<g>
			<circle class="st0" cx="40.747" cy="102.388" r="2.578"/>
		</g>
	</g>
	<g>
		<g>
			<path class="st0" d="M59.395,99.81c-1.424,0-2.578,1.154-2.578,2.578c0,1.424,1.154,2.578,2.578,2.578
				c1.424,0,2.578-1.154,2.578-2.578C61.972,100.965,60.818,99.81,59.395,99.81z"/>
		</g>
	</g>
	<g>
		<g>
			<path class="st19" d="M35.595,106.732c-2.452,0-4.44,1.486-4.44,3.319s1.988,3.319,4.44,3.319c2.452,0,4.44-1.486,4.44-3.319
				S38.048,106.732,35.595,106.732z"/>
		</g>
	</g>
	<g>
		<g>
			<path class="st19" d="M64.546,106.732c-2.452,0-4.44,1.486-4.44,3.319s1.988,3.319,4.44,3.319c2.452,0,4.44-1.486,4.44-3.319
				S66.999,106.732,64.546,106.732z"/>
		</g>
	</g>
	<g>
		<g>
			<path class="st0" d="M57.894,118.161c-0.779-0.292-1.642,0.103-1.931,0.879c-0.537,1.434-2.55,3.568-5.893,3.568
				c-2.857,0-4.746-1.171-5.943-3.687c-0.356-0.748-1.251-1.066-1.999-0.709c-0.748,0.356-1.066,1.251-0.71,2
				c1.705,3.581,4.616,5.397,8.652,5.397c4.56,0,7.707-2.859,8.701-5.516C59.063,119.315,58.669,118.451,57.894,118.161z"/>
		</g>
	</g>
	<g>
		<g>
			<path class="st0" d="M38.543,91.284c-6.052,0-10.976,4.924-10.976,10.976c0,6.052,4.924,10.976,10.976,10.976
				c6.052,0,10.976-4.924,10.976-10.976C49.519,96.208,44.595,91.284,38.543,91.284z M38.543,110.235
				c-4.398,0-7.976-3.578-7.976-7.976s3.578-7.976,7.976-7.976c4.397,0,7.976,3.578,7.976,7.976S42.94,110.235,38.543,110.235z"/>
		</g>
	</g>
	<g>
		<g>
			<path class="st0" d="M62.206,91.284c-6.052,0-10.976,4.924-10.976,10.976c0,6.052,4.924,10.976,10.976,10.976
				c6.052,0,10.976-4.924,10.976-10.976C73.182,96.208,68.258,91.284,62.206,91.284z M62.206,110.235
				c-4.397,0-7.976-3.578-7.976-7.976s3.578-7.976,7.976-7.976c4.397,0,7.976,3.578,7.976,7.976S66.603,110.235,62.206,110.235z"/>
		</g>
	</g>
	<g>
		<g>
			<path class="st0" d="M52.73,100.74h-4.712c-0.828,0-1.5,0.671-1.5,1.5s0.672,1.5,1.5,1.5h4.712c0.828,0,1.5-0.671,1.5-1.5
				S53.559,100.74,52.73,100.74z"/>
		</g>
	</g>
	<g>
		<g>
			<path class="st0" d="M29.47,98.64L24,98.088c-0.808-0.083-1.56,0.517-1.643,1.342c-0.083,0.824,0.518,1.56,1.342,1.643
				l5.47,0.552c0.051,0.005,0.102,0.008,0.152,0.008c0.761,0,1.412-0.577,1.49-1.35C30.894,99.458,30.294,98.723,29.47,98.64z"/>
		</g>
	</g>
	<g>
		<g>
			<path class="st0" d="M77.789,99.375c-0.098-0.823-0.845-1.411-1.667-1.312l-4.863,0.579c-0.822,0.098-1.41,0.844-1.312,1.667
				c0.091,0.763,0.738,1.323,1.487,1.323c0.06,0,0.119-0.003,0.18-0.011l4.863-0.579C77.3,100.944,77.888,100.198,77.789,99.375z"/>
		</g>
	</g>
	<g>
		<g>
			<path class="st4" d="M52.57,59.966c-8.932-0.558-16.834,3.572-20.699,7.305c-5.832,4.792-8.832,13.468-8.832,21.396
				c0,1.449,0.256,9.692,0.718,11.731c0.075-0.88,0.299-1.843,0.635-2.855c3.047-9.194,12.276-14.938,21.899-13.841
				c1.338,0.153,2.725,0.233,4.147,0.233c11.095,0,20.09-4.878,20.09-10.896C70.529,67.022,62.31,60.575,52.57,59.966z"/>
		</g>
	</g>
	<g>
		<g>
			<path class="st0" d="M52.664,58.469c-8.97-0.56-17.383,3.449-21.792,7.682c-5.758,4.761-9.332,13.382-9.332,22.517
				c0,1.054,0.232,9.759,0.755,12.063c0.156,0.687,0.767,1.168,1.462,1.168c0.034,0,0.069-0.001,0.104-0.003
				c0.737-0.051,1.328-0.632,1.391-1.369c0.062-0.721,0.252-1.566,0.564-2.511c2.802-8.452,11.348-13.842,20.306-12.823
				c1.409,0.161,2.861,0.243,4.317,0.243c12.106,0,21.59-5.445,21.59-12.396C72.029,65.923,62.98,59.114,52.664,58.469z
				 M50.439,82.436c-1.343,0-2.681-0.075-3.978-0.223c-8.933-1.016-17.509,3.482-21.784,11.015c-0.089-2.026-0.138-3.868-0.138-4.56
				c0-8.159,3.251-16.103,8.283-20.237c0.031-0.026,0.062-0.052,0.09-0.081c3.676-3.551,10.551-6.935,18.038-6.935
				c0.506,0,1.015,0.016,1.525,0.047c9.322,0.583,16.553,6.702,16.553,11.577C69.029,78.133,60.517,82.436,50.439,82.436z"/>
		</g>
	</g>
	<g>
		<g>
			<path class="st2" d="M239.23,190.294H16.77c-0.09,0-0.18,0-0.27-0.01v49.18h223v-49.18
				C239.41,190.294,239.32,190.294,239.23,190.294z"/>
		</g>
	</g>
	<g>
		<g>
			<path class="st0" d="M240.494,189.189c-0.305-0.284-0.735-0.421-1.157-0.396l-222.567,0.001l-0.1,0
				c-0.422-0.047-0.85,0.086-1.169,0.371C15.183,189.45,15,189.857,15,190.284v49.18c0,0.829,0.672,1.5,1.5,1.5h36.634
				c0.828,0,1.5-0.671,1.5-1.5s-0.672-1.5-1.5-1.5H18v-46.17h220v46.17H66.866c-0.828,0-1.5,0.671-1.5,1.5s0.672,1.5,1.5,1.5H239.5
				c0.828,0,1.5-0.671,1.5-1.5v-49.18C241,189.868,240.799,189.473,240.494,189.189z"/>
		</g>
	</g>
	<g>
		<g>
			<path class="st2" d="M239.231,171.964H16.769c-3.324,0-6.019,2.695-6.019,6.019v6.291c0,3.324,2.695,6.019,6.019,6.019h222.463
				c3.324,0,6.019-2.695,6.019-6.019v-6.291C245.25,174.659,242.555,171.964,239.231,171.964z"/>
		</g>
	</g>
	<g>
		<g>
			<path class="st0" d="M239.231,170.464H16.769c-4.146,0-7.519,3.373-7.519,7.519v6.291c0,4.146,3.373,7.519,7.519,7.519h222.463
				c4.146,0,7.519-3.373,7.519-7.519v-6.291C246.75,173.837,243.377,170.464,239.231,170.464z M243.75,184.274
				c0,2.492-2.027,4.519-4.519,4.519H16.769c-2.491,0-4.519-2.027-4.519-4.519v-6.291c0-2.492,2.027-4.519,4.519-4.519h222.463
				c2.491,0,4.519,2.027,4.519,4.519V184.274z"/>
		</g>
	</g>
	<g>
		<g>
			<path class="st10" d="M47.946,26.212c-0.974,11.564-13.025,13.39-13.025,13.39c10.347,0.487,12.925,14.059,12.925,14.059
				c0.221-9.677,13.321-14.202,13.321-14.202C51.355,38.872,47.946,26.212,47.946,26.212z"/>
		</g>
	</g>
	<g>
		<g>
			<path class="st0" d="M61.258,37.961c-8.604-0.515-11.832-12.024-11.863-12.141c-0.19-0.702-0.851-1.163-1.584-1.102
				c-0.725,0.066-1.298,0.642-1.359,1.367C45.592,36.302,35.139,38.05,34.697,38.119c-0.763,0.115-1.313,0.79-1.273,1.561
				c0.04,0.77,0.657,1.384,1.428,1.421c9.027,0.425,11.498,12.718,11.521,12.842c0.138,0.711,0.76,1.217,1.473,1.217
				c0.042,0,0.084-0.001,0.126-0.005c0.764-0.064,1.357-0.693,1.375-1.459c0.194-8.509,12.191-12.777,12.313-12.819
				c0.676-0.235,1.092-0.914,0.994-1.623C62.556,38.545,61.972,38.004,61.258,37.961z M47.691,48.307
				c-1.356-3.13-3.708-6.907-7.586-8.876c2.931-1.405,6.408-3.913,8.201-8.272c1.551,3.071,4.2,6.88,8.334,8.722
				C53.634,41.521,49.718,44.286,47.691,48.307z"/>
		</g>
	</g>
	<g>
		<g>
			<path class="st10" d="M26.248,43.193c-0.689,8.179-9.212,9.471-9.212,9.471c7.318,0.344,9.142,9.944,9.142,9.944
				c0.156-6.844,9.422-10.045,9.422-10.045C28.658,52.147,26.248,43.193,26.248,43.193z"/>
		</g>
	</g>
	<g>
		<g>
			<path class="st0" d="M35.689,51.065c-5.767-0.345-7.972-8.185-7.993-8.265c-0.19-0.702-0.861-1.158-1.582-1.102
				c-0.726,0.065-1.3,0.642-1.361,1.368c-0.579,6.871-7.646,8.067-7.942,8.114c-0.763,0.115-1.313,0.79-1.273,1.561
				c0.04,0.77,0.657,1.384,1.428,1.421c6.035,0.284,7.724,8.644,7.739,8.726c0.136,0.713,0.759,1.22,1.473,1.22
				c0.041,0,0.083-0.002,0.125-0.005c0.765-0.063,1.358-0.694,1.376-1.461c0.13-5.71,8.331-8.634,8.412-8.662
				c0.676-0.234,1.093-0.913,0.996-1.622C36.988,51.649,36.403,51.108,35.689,51.065z M26.104,57.86
				c-0.924-1.885-2.34-3.947-4.447-5.28c1.856-1.041,3.697-2.63,4.871-4.917c1.057,1.874,2.654,3.955,4.941,5.224
				C29.62,53.988,27.48,55.627,26.104,57.86z"/>
		</g>
	</g>
	<g>
		<g>
			<path class="st10" d="M26.21,16.536c-0.657,8.182-9.175,9.507-9.175,9.507c7.319,0.316,9.181,9.909,9.181,9.909
				c0.129-6.845,9.383-10.082,9.383-10.082C28.655,25.48,26.21,16.536,26.21,16.536z"/>
		</g>
	</g>
	<g>
		<g>
			<path class="st0" d="M35.682,24.371c-5.767-0.323-8.004-8.154-8.025-8.233c-0.193-0.702-0.878-1.166-1.586-1.096
				c-0.726,0.068-1.297,0.648-1.355,1.373c-0.552,6.873-7.615,8.097-7.911,8.145c-0.762,0.119-1.31,0.796-1.268,1.566
				c0.043,0.77,0.663,1.382,1.434,1.415c6.036,0.261,7.758,8.614,7.773,8.695c0.138,0.711,0.76,1.214,1.472,1.214
				c0.043,0,0.087-0.002,0.131-0.005c0.765-0.066,1.355-0.699,1.37-1.466c0.107-5.71,8.297-8.666,8.377-8.694
				c0.676-0.236,1.09-0.917,0.99-1.626C36.982,24.95,36.395,24.411,35.682,24.371z M26.124,31.203
				c-0.932-1.882-2.355-3.938-4.468-5.262c1.852-1.048,3.687-2.644,4.852-4.935c1.065,1.87,2.669,3.944,4.961,5.205
				C29.623,27.318,27.491,28.965,26.124,31.203z"/>
		</g>
	</g>
	<g>
		<g>
			<rect x="222" y="191.794" class="st20" width="16" height="46.17"/>
		</g>
	</g>
	<g>
		<g>
			<path class="st20" d="M239.23,173.464h-16c2.49,0,4.52,2.03,4.52,4.52v6.29c0,2.49-2.03,4.52-4.52,4.52h16
				c2.49,0,4.52-2.03,4.52-4.52v-6.29C243.75,175.494,241.72,173.464,239.23,173.464z"/>
		</g>
	</g>
</g>
</svg>
