<?xml version="1.0" encoding="utf-8"?>
<!-- Generator: Adobe Illustrator 22.0.1, SVG Export Plug-In . SVG Version: 6.00 Build 0)  -->
<svg version="1.1" id="Layer_1" xmlns="http://www.w3.org/2000/svg" xmlns:xlink="http://www.w3.org/1999/xlink" x="0px" y="0px"
	 viewBox="0 0 256 256" style="enable-background:new 0 0 256 256;" xml:space="preserve">
<style type="text/css">
	.st0{fill:#3A312A;}
	.st1{fill:#8AC6DD;}
	.st2{fill:#F16C7A;}
	.st3{fill:#D7E057;}
	.st4{fill:#87796F;}
	.st5{fill:#FCE8CB;}
	.st6{fill:#DECAAD;}
	.st7{fill:#D6DF58;}
	.st8{fill:#FAE6CA;}
	.st9{fill:#DDC9AC;}
	.st10{fill:#D5DE58;}
	.st11{fill:#ED6E7A;}
	.st12{fill:#8AC5DC;}
	.st13{fill:#6CA8BF;}
	.st14{fill:#695B51;}
	.st15{fill:#F8E4C8;}
	.st16{fill:#EF6D7A;}
	.st17{fill-rule:evenodd;clip-rule:evenodd;fill:#F8E4C8;}
	.st18{fill:#89C4DB;}
	.st19{fill:#F59689;}
	.st20{fill:#D34E5C;}
	.st21{fill:#F7E3C7;}
	.st22{fill:#8AC3DA;}
	.st23{fill-rule:evenodd;clip-rule:evenodd;fill:#F7E3C7;}
	.st24{fill-rule:evenodd;clip-rule:evenodd;fill:#87796F;}
	.st25{fill:#B9C239;}
	.st26{fill:#D4DB56;}
	.st27{fill-rule:evenodd;clip-rule:evenodd;fill:#F16C7A;}
	.st28{fill-rule:evenodd;clip-rule:evenodd;fill:#F6E2C6;}
	.st29{fill:#F6E2C6;}
	.st30{fill-rule:evenodd;clip-rule:evenodd;fill:#FAE6CA;}
	.st31{fill:#B8C136;}
</style>
<g>
	<g>
		<g>
			<path class="st3" d="M48.116,26.073c-0.974,11.564-13.025,13.39-13.025,13.39c10.347,0.487,12.925,14.059,12.925,14.059
				c0.221-9.677,13.321-14.202,13.321-14.202C51.524,38.733,48.116,26.073,48.116,26.073z"/>
		</g>
	</g>
	<g>
		<g>
			<path class="st0" d="M61.427,37.822c-8.605-0.514-11.832-12.024-11.864-12.14c-0.191-0.703-0.865-1.164-1.583-1.102
				c-0.725,0.066-1.298,0.642-1.359,1.367c-0.86,10.215-11.313,11.963-11.754,12.032c-0.763,0.115-1.313,0.79-1.273,1.561
				c0.04,0.77,0.657,1.384,1.428,1.421c9.028,0.425,11.498,12.718,11.523,12.842c0.137,0.711,0.759,1.217,1.472,1.217
				c0.042,0,0.084-0.001,0.126-0.005c0.764-0.064,1.357-0.693,1.375-1.459c0.194-8.508,12.192-12.777,12.313-12.819
				c0.675-0.235,1.092-0.914,0.994-1.623C62.725,38.406,62.141,37.865,61.427,37.822z M47.861,48.168
				c-1.356-3.13-3.709-6.907-7.587-8.876c2.931-1.404,6.409-3.913,8.202-8.272c1.551,3.071,4.2,6.88,8.334,8.722
				C53.803,41.381,49.888,44.147,47.861,48.168z"/>
		</g>
	</g>
	<g>
		<g>
			<path class="st3" d="M26.417,43.054c-0.689,8.179-9.212,9.47-9.212,9.47c7.318,0.344,9.142,9.944,9.142,9.944
				c0.156-6.844,9.422-10.045,9.422-10.045C28.828,52.008,26.417,43.054,26.417,43.054z"/>
		</g>
	</g>
	<g>
		<g>
			<path class="st0" d="M35.858,50.926c-5.766-0.345-7.972-8.185-7.994-8.264c-0.19-0.702-0.855-1.166-1.582-1.102
				c-0.726,0.065-1.299,0.642-1.36,1.368c-0.579,6.87-7.647,8.066-7.942,8.113c-0.763,0.115-1.313,0.79-1.273,1.561
				c0.04,0.77,0.657,1.384,1.427,1.421c6.036,0.284,7.724,8.644,7.739,8.726c0.135,0.713,0.759,1.22,1.472,1.22
				c0.042,0,0.083-0.001,0.125-0.005c0.765-0.063,1.358-0.694,1.376-1.461c0.13-5.709,8.332-8.634,8.413-8.662
				c0.677-0.234,1.094-0.913,0.996-1.622C37.158,51.51,36.573,50.969,35.858,50.926z M26.274,57.721
				c-0.924-1.886-2.34-3.947-4.447-5.28c1.855-1.041,3.697-2.629,4.871-4.916c1.057,1.874,2.654,3.955,4.941,5.224
				C29.789,53.849,27.65,55.489,26.274,57.721z"/>
		</g>
	</g>
	<g>
		<g>
			<path class="st3" d="M26.417,16.396c-0.689,8.179-9.212,9.471-9.212,9.471c7.318,0.344,9.142,9.944,9.142,9.944
				c0.156-6.845,9.422-10.045,9.422-10.045C28.828,25.35,26.417,16.396,26.417,16.396z"/>
		</g>
	</g>
	<g>
		<g>
			<path class="st0" d="M35.859,24.269c-5.767-0.345-7.973-8.186-7.994-8.265c-0.19-0.702-0.855-1.167-1.582-1.102
				c-0.726,0.065-1.299,0.642-1.36,1.368c-0.579,6.871-7.647,8.067-7.942,8.114c-0.763,0.115-1.313,0.79-1.273,1.561
				c0.04,0.77,0.657,1.384,1.428,1.421c6.035,0.284,7.723,8.644,7.739,8.726c0.135,0.713,0.759,1.22,1.472,1.22
				c0.042,0,0.083-0.001,0.125-0.005c0.765-0.063,1.358-0.694,1.376-1.461c0.13-5.709,8.331-8.634,8.413-8.662
				c0.676-0.234,1.094-0.913,0.996-1.622C37.158,24.853,36.573,24.312,35.859,24.269z M26.274,31.063
				c-0.924-1.885-2.34-3.947-4.447-5.28c1.856-1.041,3.697-2.63,4.871-4.916c1.057,1.874,2.655,3.954,4.941,5.224
				C29.789,27.192,27.65,28.831,26.274,31.063z"/>
		</g>
	</g>
	<g>
		<g>
			<path class="st1" d="M211.172,31.854H89.276c-9.833,0-17.805,7.971-17.805,17.805v172.141c0,9.833,7.971,17.805,17.805,17.805
				h121.895c9.833,0,17.805-7.971,17.805-17.805V49.658C228.976,39.825,221.005,31.854,211.172,31.854z"/>
		</g>
	</g>
	<g>
		<g>
			<path class="st0" d="M211.172,30.354H89.276c-10.645,0-19.305,8.66-19.305,19.305v172.141c0,10.645,8.66,19.305,19.305,19.305
				h34.211c0.829,0,1.5-0.671,1.5-1.5s-0.671-1.5-1.5-1.5H89.276c-8.99,0-16.305-7.314-16.305-16.305V49.658
				c0-8.99,7.314-16.305,16.305-16.305h121.896c8.99,0,16.304,7.314,16.304,16.305v172.141c0,8.99-7.314,16.305-16.304,16.305
				h-74.917c-0.829,0-1.5,0.671-1.5,1.5s0.671,1.5,1.5,1.5h74.917c10.645,0,19.304-8.66,19.304-19.305V49.658
				C230.476,39.014,221.816,30.354,211.172,30.354z"/>
		</g>
	</g>
	<g>
		<g>
			<path class="st4" d="M81.722,204.979H60.44c-3.037,0-5.5,2.462-5.5,5.5v0.455c0,3.038,2.463,5.5,5.5,5.5h21.282
				c3.038,0,5.5-2.462,5.5-5.5v-0.455C87.222,207.441,84.76,204.979,81.722,204.979z"/>
		</g>
	</g>
	<g>
		<g>
			<path class="st0" d="M81.722,203.479H60.44c-3.86,0-7,3.14-7,7v0.455c0,3.86,3.14,7,7,7h21.282c3.86,0,7-3.14,7-7v-0.455
				C88.722,206.619,85.582,203.479,81.722,203.479z M85.722,210.934c0,2.206-1.794,4-4,4H60.44c-2.206,0-4-1.794-4-4v-0.455
				c0-2.206,1.794-4,4-4h21.282c2.206,0,4,1.794,4,4V210.934z"/>
		</g>
	</g>
	<g>
		<g>
			<path class="st4" d="M81.722,179.986H60.44c-3.037,0-5.5,2.463-5.5,5.5v0.455c0,3.038,2.463,5.5,5.5,5.5h21.282
				c3.038,0,5.5-2.462,5.5-5.5v-0.455C87.222,182.449,84.76,179.986,81.722,179.986z"/>
		</g>
	</g>
	<g>
		<g>
			<path class="st0" d="M81.722,178.486H60.44c-3.86,0-7,3.14-7,7v0.455c0,3.86,3.14,7,7,7h21.282c3.86,0,7-3.14,7-7v-0.455
				C88.722,181.626,85.582,178.486,81.722,178.486z M85.722,185.941c0,2.206-1.794,4-4,4H60.44c-2.206,0-4-1.794-4-4v-0.455
				c0-2.206,1.794-4,4-4h21.282c2.206,0,4,1.794,4,4V185.941z"/>
		</g>
	</g>
	<g>
		<g>
			<path class="st4" d="M81.722,154.994H60.44c-3.037,0-5.5,2.462-5.5,5.5v0.455c0,3.038,2.463,5.5,5.5,5.5h21.282
				c3.038,0,5.5-2.462,5.5-5.5v-0.455C87.222,157.456,84.76,154.994,81.722,154.994z"/>
		</g>
	</g>
	<g>
		<g>
			<path class="st0" d="M81.722,153.494H60.44c-3.86,0-7,3.14-7,7v0.455c0,3.86,3.14,7,7,7h21.282c3.86,0,7-3.14,7-7v-0.455
				C88.722,156.634,85.582,153.494,81.722,153.494z M85.722,160.949c0,2.206-1.794,4-4,4H60.44c-2.206,0-4-1.794-4-4v-0.455
				c0-2.206,1.794-4,4-4h21.282c2.206,0,4,1.794,4,4V160.949z"/>
		</g>
	</g>
	<g>
		<g>
			<path class="st4" d="M81.722,130.001H60.44c-3.037,0-5.5,2.462-5.5,5.5v0.455c0,3.038,2.463,5.5,5.5,5.5h21.282
				c3.038,0,5.5-2.462,5.5-5.5v-0.455C87.222,132.464,84.76,130.001,81.722,130.001z"/>
		</g>
	</g>
	<g>
		<g>
			<path class="st0" d="M81.722,128.501H60.44c-3.86,0-7,3.14-7,7v0.455c0,3.86,3.14,7,7,7h21.282c3.86,0,7-3.14,7-7v-0.455
				C88.722,131.641,85.582,128.501,81.722,128.501z M85.722,135.956c0,2.206-1.794,4-4,4H60.44c-2.206,0-4-1.794-4-4v-0.455
				c0-2.206,1.794-4,4-4h21.282c2.206,0,4,1.794,4,4V135.956z"/>
		</g>
	</g>
	<g>
		<g>
			<path class="st4" d="M81.722,105.009H60.44c-3.037,0-5.5,2.462-5.5,5.5v0.455c0,3.037,2.463,5.5,5.5,5.5h21.282
				c3.038,0,5.5-2.463,5.5-5.5v-0.455C87.222,107.471,84.76,105.009,81.722,105.009z"/>
		</g>
	</g>
	<g>
		<g>
			<path class="st0" d="M81.722,103.509H60.44c-3.86,0-7,3.14-7,7v0.455c0,3.86,3.14,7,7,7h21.282c3.86,0,7-3.14,7-7v-0.455
				C88.722,106.649,85.582,103.509,81.722,103.509z M85.722,110.963c0,2.206-1.794,4-4,4H60.44c-2.206,0-4-1.794-4-4v-0.455
				c0-2.206,1.794-4,4-4h21.282c2.206,0,4,1.794,4,4V110.963z"/>
		</g>
	</g>
	<g>
		<g>
			<path class="st4" d="M81.722,80.016H60.44c-3.037,0-5.5,2.462-5.5,5.5v0.455c0,3.037,2.463,5.5,5.5,5.5h21.282
				c3.038,0,5.5-2.463,5.5-5.5v-0.455C87.222,82.479,84.76,80.016,81.722,80.016z"/>
		</g>
	</g>
	<g>
		<g>
			<path class="st0" d="M81.722,78.516H60.44c-3.86,0-7,3.14-7,7v0.455c0,3.86,3.14,7,7,7h21.282c3.86,0,7-3.14,7-7v-0.455
				C88.722,81.656,85.582,78.516,81.722,78.516z M85.722,85.971c0,2.206-1.794,4-4,4H60.44c-2.206,0-4-1.794-4-4v-0.455
				c0-2.206,1.794-4,4-4h21.282c2.206,0,4,1.794,4,4V85.971z"/>
		</g>
	</g>
	<g>
		<g>
			<path class="st4" d="M81.722,55.024H60.44c-3.037,0-5.5,2.462-5.5,5.5v0.455c0,3.038,2.463,5.5,5.5,5.5h21.282
				c3.038,0,5.5-2.462,5.5-5.5v-0.455C87.222,57.486,84.76,55.024,81.722,55.024z"/>
		</g>
	</g>
	<g>
		<g>
			<path class="st0" d="M81.722,53.524H60.44c-3.86,0-7,3.14-7,7v0.455c0,3.86,3.14,7,7,7h21.282c3.86,0,7-3.14,7-7v-0.455
				C88.722,56.664,85.582,53.524,81.722,53.524z M85.722,60.979c0,2.206-1.794,4-4,4H60.44c-2.206,0-4-1.794-4-4v-0.455
				c0-2.206,1.794-4,4-4h21.282c2.206,0,4,1.794,4,4V60.979z"/>
		</g>
	</g>
	<g>
		<g>
			<path class="st1" d="M232.96,121.67h-31.472c-3.387,0-6.132,2.746-6.132,6.132v16.893c0,3.387,2.746,6.132,6.132,6.132h31.472
				c3.387,0,6.133-2.745,6.133-6.132v-16.893C239.093,124.416,236.347,121.67,232.96,121.67z"/>
		</g>
	</g>
	<g>
		<g>
			<path class="st0" d="M232.96,120.17h-31.472c-4.208,0-7.632,3.424-7.632,7.632v16.893c0,4.208,3.424,7.632,7.632,7.632h31.472
				c4.209,0,7.633-3.424,7.633-7.632v-16.893C240.593,123.594,237.169,120.17,232.96,120.17z M237.593,144.696
				c0,2.554-2.078,4.632-4.633,4.632h-31.472c-2.554,0-4.632-2.078-4.632-4.632v-16.893c0-2.554,2.078-4.632,4.632-4.632h31.472
				c2.555,0,4.633,2.078,4.633,4.632V144.696z"/>
		</g>
	</g>
	<g>
		<g>
			<path class="st3" d="M209.935,131.042c-2.876,0-5.207,2.331-5.207,5.207s2.331,5.207,5.207,5.207
				c2.876,0,5.207-2.331,5.207-5.207S212.81,131.042,209.935,131.042z"/>
		</g>
	</g>
	<g>
		<g>
			<path class="st0" d="M209.935,129.542c-3.698,0-6.707,3.009-6.707,6.707s3.008,6.707,6.707,6.707
				c3.698,0,6.707-3.008,6.707-6.707S213.633,129.542,209.935,129.542z M209.935,139.956c-2.044,0-3.707-1.663-3.707-3.707
				s1.663-3.707,3.707-3.707c2.044,0,3.707,1.663,3.707,3.707S211.979,139.956,209.935,139.956z"/>
		</g>
	</g>
	<g>
		<g>
			
				<ellipse transform="matrix(0.3827 -0.9239 0.9239 0.3827 0.8485 200.5809)" class="st3" cx="150.519" cy="99.656" rx="39.629" ry="39.629"/>
		</g>
	</g>
	<g>
		<g>
			<path class="st0" d="M150.519,58.526c-22.679,0-41.129,18.45-41.129,41.129s18.451,41.129,41.129,41.129
				c22.679,0,41.129-18.451,41.129-41.129S173.198,58.526,150.519,58.526z M150.519,137.785c-21.024,0-38.129-17.105-38.129-38.129
				s17.105-38.129,38.129-38.129c21.024,0,38.129,17.104,38.129,38.129S171.544,137.785,150.519,137.785z"/>
		</g>
	</g>
	<g>
		<g>
			<path class="st4" d="M154.298,95.202c-5.736-2.159-8.097-3.575-8.097-5.803c0-1.888,1.417-3.778,5.803-3.778
				c4.858,0,7.962,1.551,9.716,2.294l1.957-7.624c-2.227-1.08-5.263-2.026-9.784-2.227v-5.938h-6.612v6.41
				c-7.22,1.417-11.403,6.073-11.403,12.011c0,6.545,4.925,9.92,12.145,12.348c4.993,1.687,7.152,3.307,7.152,5.87
				c0,2.7-2.632,4.184-6.477,4.184c-4.386,0-8.367-1.417-11.201-2.968l-2.024,7.894c2.564,1.484,6.95,2.698,11.47,2.902v6.409h6.612
				v-6.882c5.59-0.971,9.359-3.904,11.03-7.713c0.649-1.479,0.981-3.089,0.981-4.769C165.566,101.748,162.327,98.036,154.298,95.202
				z"/>
		</g>
	</g>
	<g>
		<g>
			<path class="st0" d="M154.827,93.798c-5.195-1.955-7.126-3.147-7.126-4.399c0-1.982,2.696-2.278,4.303-2.278
				c4.122,0,6.833,1.179,8.627,1.958l0.504,0.217c0.401,0.17,0.858,0.157,1.25-0.037c0.392-0.193,0.679-0.548,0.788-0.971
				l1.957-7.624c0.177-0.691-0.157-1.412-0.799-1.723c-2.573-1.248-5.509-2-8.938-2.285v-4.531c0-0.829-0.671-1.5-1.5-1.5h-6.612
				c-0.829,0-1.5,0.671-1.5,1.5v5.211c-7.067,1.806-11.403,6.78-11.403,13.209c0,8.28,7.037,11.708,13.165,13.769
				c5.389,1.821,6.132,3.214,6.132,4.449c0,2.491-3.81,2.684-4.977,2.684c-4.693,0-8.581-1.744-10.481-2.784
				c-0.406-0.222-0.893-0.245-1.317-0.06c-0.425,0.185-0.741,0.555-0.856,1.003l-2.024,7.894c-0.167,0.651,0.12,1.334,0.702,1.671
				c2.643,1.53,6.651,2.643,10.722,3.005v5.007c0,0.829,0.671,1.5,1.5,1.5h6.612c0.829,0,1.5-0.671,1.5-1.5v-5.656
				c5.217-1.213,9.063-4.142,10.903-8.337c0.735-1.674,1.107-3.482,1.107-5.371C167.066,101.02,163.397,96.823,154.827,93.798z
				 M163.211,111.986c-1.566,3.571-5.087,6-9.913,6.838c-0.719,0.125-1.243,0.749-1.243,1.478v5.382h-3.612v-4.91
				c0-0.802-0.631-1.462-1.433-1.499c-3.538-0.159-7.232-0.995-9.789-2.185l1.267-4.942c2.404,1.09,6.015,2.299,10.209,2.299
				c4.846,0,7.977-2.231,7.977-5.684c0-3.981-3.928-5.856-8.174-7.292c-7.796-2.622-11.123-5.89-11.123-10.926
				c0-5.347,3.81-9.286,10.192-10.539c0.704-0.138,1.211-0.754,1.211-1.472v-4.91h3.612v4.438c0,0.803,0.632,1.463,1.433,1.499
				c3.122,0.139,5.78,0.659,8.083,1.585l-1.207,4.702c-1.943-0.792-4.789-1.729-8.698-1.729c-5.385,0-7.303,2.727-7.303,5.278
				c0,3.514,3.931,5.272,9.098,7.217c8.521,3.008,10.267,6.654,10.267,11.204C164.066,109.292,163.778,110.694,163.211,111.986z"/>
		</g>
	</g>
	<g>
		<g>
			<path class="st4" d="M94.657,157.412l7.986-21.829h-0.017c0.308-0.997,0.475-2.056,0.475-3.154
				c0-5.882-4.768-10.651-10.651-10.651c-5.882,0-10.651,4.769-10.651,10.651c0-5.882-4.769-10.651-10.651-10.651
				c-5.882,0-10.651,4.769-10.651,10.651c0-5.882-4.769-10.651-10.651-10.651c-5.882,0-10.651,4.769-10.651,10.651
				c0,1.098,0.167,2.157,0.475,3.154h-0.017l7.986,21.829c-18.184,8.759-30.733,27.362-30.733,48.896
				c0,29.957,24.285,33.296,54.241,33.296c29.956,0,54.241-3.339,54.241-33.296C125.39,184.773,112.841,166.17,94.657,157.412z"/>
		</g>
	</g>
	<g>
		<g>
			<path class="st0" d="M96.527,156.667l7.525-20.567c0.036-0.097,0.06-0.197,0.074-0.297c0.315-1.093,0.475-2.227,0.475-3.373
				c0-6.7-5.451-12.151-12.151-12.151c-4.583,0-8.581,2.551-10.651,6.307c-2.069-3.756-6.067-6.307-10.65-6.307
				c-4.583,0-8.582,2.551-10.651,6.307c-2.069-3.756-6.068-6.307-10.651-6.307c-6.7,0-12.151,5.451-12.151,12.151
				c0,1.143,0.159,2.274,0.474,3.366c0.015,0.103,0.04,0.204,0.076,0.303l7.524,20.568c-18.489,9.478-30.363,28.813-30.363,49.642
				c0,32.109,27.537,34.795,55.742,34.795c28.205,0,55.741-2.687,55.741-34.795C126.89,185.479,115.016,166.144,96.527,156.667z
				 M71.149,238.104c-33.403,0-52.742-5.203-52.742-31.795c0-20.138,11.73-38.801,29.884-47.544
				c0.695-0.335,1.023-1.143,0.758-1.867l-7.909-21.618c-0.01-0.047-0.021-0.093-0.036-0.139c-0.271-0.876-0.409-1.788-0.409-2.711
				c0-5.046,4.105-9.151,9.151-9.151s9.151,4.105,9.151,9.151c0,0.829,0.671,1.5,1.5,1.5c0.829,0,1.5-0.671,1.5-1.5
				c0-5.046,4.105-9.151,9.151-9.151c5.045,0,9.15,4.105,9.15,9.151c0,0.829,0.671,1.5,1.5,1.5c0.829,0,1.5-0.671,1.5-1.5
				c0-5.046,4.105-9.151,9.151-9.151s9.151,4.105,9.151,9.151c0,0.924-0.137,1.836-0.408,2.711
				c-0.014,0.045-0.026,0.091-0.035,0.138l-7.91,21.619c-0.265,0.725,0.063,1.532,0.758,1.867
				c18.154,8.744,29.884,27.406,29.884,47.544C123.89,232.901,104.552,238.104,71.149,238.104z"/>
		</g>
	</g>
	<g>
		<g>
			
				<ellipse transform="matrix(0.9871 -0.1602 0.1602 0.9871 -30.7306 13.948)" class="st3" cx="71.149" cy="197.584" rx="25.296" ry="25.296"/>
		</g>
	</g>
	<g>
		<g>
			<path class="st0" d="M71.149,170.789c-14.775,0-26.796,12.021-26.796,26.796s12.021,26.796,26.796,26.796
				c14.775,0,26.795-12.021,26.795-26.796S85.924,170.789,71.149,170.789z M71.149,221.38c-13.122,0-23.796-10.675-23.796-23.796
				s10.675-23.796,23.796-23.796c13.121,0,23.795,10.675,23.795,23.796S84.269,221.38,71.149,221.38z"/>
		</g>
	</g>
	<g>
		<g>
			<path class="st4" d="M74.156,194.724c-3.684-1.386-5.201-2.297-5.201-3.727c0-1.213,0.91-2.427,3.728-2.427
				c3.12,0,5.114,0.997,6.241,1.474l1.257-4.897c-1.43-0.694-3.381-1.301-6.285-1.431v-3.814h-4.247v4.117
				c-4.638,0.91-7.325,3.901-7.325,7.715c0,4.204,3.164,6.372,7.801,7.932c3.207,1.083,4.594,2.124,4.594,3.77
				c0,1.734-1.691,2.688-4.161,2.688c-2.818,0-5.374-0.91-7.195-1.907l-1.3,5.071c1.647,0.953,4.464,1.733,7.368,1.864v4.117h4.248
				v-4.421c4.984-0.866,7.715-4.16,7.715-8.018C81.394,198.928,79.313,196.544,74.156,194.724z"/>
		</g>
	</g>
	<g>
		<g>
			<path class="st0" d="M74.685,193.32c-2.807-1.056-4.23-1.838-4.23-2.323c0-0.837,1.558-0.927,2.228-0.927
				c2.535,0,4.215,0.73,5.327,1.213l0.329,0.142c0.403,0.17,0.859,0.157,1.25-0.037c0.392-0.193,0.679-0.548,0.788-0.971
				l1.257-4.897c0.178-0.691-0.156-1.412-0.798-1.723c-1.588-0.77-3.378-1.256-5.439-1.474v-2.422c0-0.829-0.671-1.5-1.5-1.5h-4.248
				c-0.829,0-1.5,0.671-1.5,1.5v2.937c-4.551,1.306-7.325,4.629-7.325,8.896c0,5.659,4.715,7.971,8.821,9.353
				c3.574,1.208,3.574,2.008,3.574,2.35c0,1.154-2.388,1.188-2.661,1.188c-2.896,0-5.299-1.079-6.475-1.723
				c-0.406-0.222-0.893-0.245-1.317-0.06c-0.425,0.185-0.741,0.555-0.856,1.003l-1.3,5.071c-0.167,0.651,0.12,1.334,0.702,1.671
				c1.654,0.957,4.099,1.668,6.619,1.951v2.731c0,0.829,0.671,1.5,1.5,1.5h4.247c0.829,0,1.5-0.671,1.5-1.5v-3.216
				c4.728-1.264,7.715-4.778,7.715-9.223C82.894,198.257,80.353,195.321,74.685,193.32z M73.422,209.369
				c-0.719,0.125-1.243,0.749-1.243,1.478v2.921h-1.247v-2.617c0-0.802-0.631-1.462-1.433-1.499
				c-2.026-0.091-4.128-0.534-5.679-1.175l0.545-2.126c1.569,0.645,3.729,1.272,6.194,1.272c3.438,0,5.661-1.644,5.661-4.188
				c0-2.896-2.698-4.207-5.616-5.192c-4.815-1.62-6.78-3.506-6.78-6.51c0-3.158,2.286-5.492,6.114-6.244
				c0.704-0.138,1.211-0.754,1.211-1.472v-2.617h1.248v2.314c0,0.802,0.631,1.463,1.433,1.499c1.747,0.078,3.256,0.346,4.577,0.814
				l-0.506,1.969c-1.255-0.464-2.97-0.927-5.217-0.927c-3.855,0-5.228,2.029-5.228,3.927c0,2.602,2.676,3.815,6.202,5.142
				c5.177,1.828,6.237,3.997,6.237,6.691C79.894,206.169,77.414,208.675,73.422,209.369z"/>
		</g>
	</g>
	<g>
		<g>
			<path class="st2" d="M98.442,149.737h-53.92c-2.757,0-4.992,2.235-4.992,4.993c0,2.757,2.235,4.992,4.992,4.992h53.92
				c2.757,0,4.992-2.235,4.992-4.992C103.434,151.972,101.199,149.737,98.442,149.737z"/>
		</g>
	</g>
	<g>
		<g>
			<path class="st0" d="M98.441,148.237H76.588c-0.829,0-1.5,0.671-1.5,1.5s0.671,1.5,1.5,1.5h21.854
				c1.926,0,3.493,1.567,3.493,3.493s-1.567,3.492-3.493,3.492h-53.92c-1.926,0-3.493-1.566-3.493-3.492s1.567-3.493,3.493-3.493
				h18.522c0.829,0,1.5-0.671,1.5-1.5s-0.671-1.5-1.5-1.5H44.521c-3.58,0-6.493,2.913-6.493,6.493c0,3.58,2.913,6.492,6.493,6.492
				h53.92c3.58,0,6.493-2.913,6.493-6.492C104.934,151.149,102.021,148.237,98.441,148.237z"/>
		</g>
	</g>
	<g>
		<g>
			<path class="st13" d="M211.479,221.8c0,8.99-7.32,16.3-16.31,16.3h16c8.99,0,16.31-7.31,16.31-16.3v-69.47h-16V221.8z
				 M211.169,33.35h-16c8.99,0,16.31,7.32,16.31,16.31v70.51h16V49.66C227.479,40.67,220.159,33.35,211.169,33.35z"/>
		</g>
	</g>
	<g>
		<g>
			<path class="st13" d="M232.959,123.17h-16c2.56,0,4.63,2.08,4.63,4.63v16.9c0,2.55-2.07,4.63-4.63,4.63h16
				c2.56,0,4.63-2.08,4.63-4.63v-16.9C237.589,125.25,235.519,123.17,232.959,123.17z"/>
		</g>
	</g>
</g>
</svg>
