<?xml version="1.0" encoding="utf-8"?>
<!-- Generator: Adobe Illustrator 22.0.1, SVG Export Plug-In . SVG Version: 6.00 Build 0)  -->
<svg version="1.1" id="Layer_1" xmlns="http://www.w3.org/2000/svg" xmlns:xlink="http://www.w3.org/1999/xlink" x="0px" y="0px"
	 viewBox="0 0 256 256" style="enable-background:new 0 0 256 256;" xml:space="preserve">
<style type="text/css">
	.st0{fill:#3A312A;}
	.st1{fill:#8AC6DD;}
	.st2{fill:#F16C7A;}
	.st3{fill:#D7E057;}
	.st4{fill:#87796F;}
	.st5{fill:#FCE8CB;}
	.st6{fill:#DECAAD;}
	.st7{fill:#D6DF58;}
	.st8{fill:#FAE6CA;}
	.st9{fill:#DDC9AC;}
	.st10{fill:#D5DE58;}
	.st11{fill:#ED6E7A;}
	.st12{fill:#8AC5DC;}
	.st13{fill:#6CA8BF;}
	.st14{fill:#695B51;}
	.st15{fill:#F8E4C8;}
	.st16{fill:#EF6D7A;}
	.st17{fill-rule:evenodd;clip-rule:evenodd;fill:#F8E4C8;}
	.st18{fill:#89C4DB;}
	.st19{fill:#F59689;}
	.st20{fill:#D34E5C;}
	.st21{fill:#F7E3C7;}
	.st22{fill:#8AC3DA;}
	.st23{fill-rule:evenodd;clip-rule:evenodd;fill:#F7E3C7;}
	.st24{fill-rule:evenodd;clip-rule:evenodd;fill:#87796F;}
	.st25{fill:#B9C239;}
	.st26{fill:#D4DB56;}
	.st27{fill-rule:evenodd;clip-rule:evenodd;fill:#F16C7A;}
	.st28{fill-rule:evenodd;clip-rule:evenodd;fill:#F6E2C6;}
	.st29{fill:#F6E2C6;}
	.st30{fill-rule:evenodd;clip-rule:evenodd;fill:#FAE6CA;}
	.st31{fill:#B8C136;}
</style>
<g>
	<g>
		<g>
			<path class="st4" d="M40.59,231.172c0.32,4.61,4.16,8.25,8.86,8.25h157.1c4.7,0,8.54-3.64,8.86-8.25H40.59z"/>
		</g>
	</g>
	<g>
		<g>
			<path class="st0" d="M216.507,230.148c-0.283-0.304-0.681-0.477-1.097-0.477H40.59c-0.416,0-0.813,0.173-1.097,0.477
				c-0.284,0.304-0.429,0.713-0.399,1.128c0.376,5.409,4.925,9.646,10.356,9.646h157.1c5.432,0,9.98-4.237,10.356-9.646
				C216.936,230.86,216.791,230.452,216.507,230.148z M206.55,237.921H49.45c-3.306,0-6.151-2.205-7.07-5.25h171.24
				C212.701,235.716,209.855,237.921,206.55,237.921z"/>
		</g>
	</g>
	<g>
		<g>
			<path class="st0" d="M187.382,16.182c-0.586-0.586-1.535-0.586-2.121,0l-56.439,56.44L72.561,16.361
				c-0.586-0.586-1.535-0.586-2.121,0c-0.586,0.586-0.586,1.536,0,2.121l57.321,57.321c0.293,0.293,0.677,0.44,1.061,0.44
				s0.768-0.146,1.061-0.44l57.5-57.5C187.968,17.718,187.968,16.768,187.382,16.182z"/>
		</g>
	</g>
	<g>
		<g>
			<path class="st3" d="M47.671,26.255c-0.974,11.564-13.024,13.389-13.024,13.389c10.346,0.487,12.925,14.059,12.925,14.059
				c0.221-9.677,13.321-14.202,13.321-14.202C51.08,38.915,47.671,26.255,47.671,26.255z"/>
		</g>
	</g>
	<g>
		<g>
			<path class="st0" d="M60.982,38.004C52.378,37.49,49.15,25.98,49.119,25.864c-0.191-0.702-0.849-1.16-1.584-1.102
				c-0.725,0.066-1.298,0.642-1.359,1.367c-0.859,10.215-11.313,11.964-11.754,12.033c-0.763,0.115-1.313,0.79-1.273,1.561
				c0.04,0.77,0.657,1.384,1.428,1.421c9.028,0.425,11.499,12.718,11.522,12.842c0.138,0.711,0.76,1.217,1.473,1.217
				c0.042,0,0.084-0.001,0.126-0.005c0.765-0.064,1.357-0.693,1.375-1.46c0.193-8.508,12.19-12.777,12.312-12.819
				c0.676-0.235,1.092-0.914,0.994-1.622C62.279,38.588,61.696,38.047,60.982,38.004z M47.417,48.351
				c-1.357-3.13-3.709-6.908-7.588-8.877c2.931-1.405,6.409-3.913,8.202-8.273c1.551,3.071,4.2,6.88,8.334,8.722
				C53.358,41.563,49.443,44.33,47.417,48.351z"/>
		</g>
	</g>
	<g>
		<g>
			<path class="st3" d="M25.972,43.236c-0.689,8.179-9.212,9.471-9.212,9.471c7.318,0.344,9.142,9.944,9.142,9.944
				c0.156-6.845,9.422-10.045,9.422-10.045C28.383,52.19,25.972,43.236,25.972,43.236z"/>
		</g>
	</g>
	<g>
		<g>
			<path class="st0" d="M35.414,51.108c-5.767-0.345-7.972-8.186-7.993-8.265c-0.19-0.702-0.858-1.162-1.582-1.102
				c-0.726,0.065-1.3,0.643-1.361,1.368c-0.578,6.871-7.646,8.067-7.942,8.114c-0.763,0.115-1.313,0.79-1.273,1.561
				c0.04,0.77,0.657,1.384,1.428,1.421c6.035,0.284,7.724,8.644,7.739,8.726c0.136,0.713,0.759,1.22,1.473,1.22
				c0.041,0,0.083-0.001,0.125-0.005c0.765-0.064,1.358-0.694,1.376-1.461c0.13-5.709,8.331-8.634,8.412-8.662
				c0.676-0.234,1.093-0.913,0.996-1.622C36.713,51.692,36.128,51.151,35.414,51.108z M25.829,57.903
				c-0.924-1.885-2.34-3.947-4.447-5.28c1.856-1.041,3.697-2.629,4.871-4.916c1.057,1.874,2.654,3.954,4.941,5.224
				C29.345,54.031,27.205,55.67,25.829,57.903z"/>
		</g>
	</g>
	<g>
		<g>
			<path class="st3" d="M25.972,16.578c-0.689,8.179-9.212,9.471-9.212,9.471c7.318,0.345,9.142,9.944,9.142,9.944
				c0.156-6.845,9.422-10.046,9.422-10.046C28.383,25.533,25.972,16.578,25.972,16.578z"/>
		</g>
	</g>
	<g>
		<g>
			<path class="st0" d="M35.414,24.45c-5.767-0.345-7.972-8.185-7.993-8.264c-0.19-0.702-0.858-1.161-1.582-1.102
				c-0.726,0.065-1.3,0.643-1.361,1.368c-0.578,6.871-7.646,8.066-7.942,8.113c-0.763,0.115-1.313,0.79-1.273,1.561
				c0.04,0.77,0.657,1.384,1.428,1.421c6.035,0.284,7.724,8.644,7.739,8.726c0.136,0.712,0.759,1.22,1.473,1.22
				c0.041,0,0.083-0.001,0.125-0.005c0.765-0.063,1.358-0.694,1.376-1.461c0.13-5.709,8.331-8.634,8.412-8.662
				c0.676-0.234,1.093-0.913,0.996-1.622C36.713,25.035,36.128,24.493,35.414,24.45z M25.829,31.246
				c-0.924-1.886-2.34-3.947-4.447-5.28c1.856-1.041,3.697-2.629,4.871-4.916c1.057,1.873,2.654,3.954,4.941,5.223
				C29.344,27.374,27.205,29.013,25.829,31.246z"/>
		</g>
	</g>
	<g>
		<g>
			<path class="st4" d="M128,53.422c-16.15,0-29.25,5.93-29.25,13.25h58.5C157.25,59.352,144.15,53.422,128,53.422z"/>
		</g>
	</g>
	<g>
		<g>
			<path class="st0" d="M128,51.921c-17.243,0-30.75,6.479-30.75,14.75c0,0.829,0.672,1.5,1.5,1.5h58.5c0.828,0,1.5-0.671,1.5-1.5
				C158.75,58.4,145.243,51.921,128,51.921z M100.504,65.171c1.747-5.195,12.354-10.25,27.496-10.25s25.749,5.055,27.496,10.25
				H100.504z"/>
		</g>
	</g>
	<g>
		<g>
			<path class="st4" d="M222.395,66.672H33.605c-9.447,0-17.105,7.658-17.105,17.105v130.289c0,9.447,7.658,17.106,17.105,17.106
				h188.789c9.447,0,17.105-7.658,17.105-17.106V83.777C239.5,74.33,231.842,66.672,222.395,66.672z"/>
		</g>
	</g>
	<g>
		<g>
			<path class="st0" d="M222.395,65.171H33.605C23.347,65.171,15,73.518,15,83.777v34.774c0,0.829,0.672,1.5,1.5,1.5
				s1.5-0.671,1.5-1.5V83.777c0-8.605,7.001-15.605,15.605-15.605h188.789c8.604,0,15.605,7,15.605,15.605v130.289
				c0,8.605-7.001,15.606-15.605,15.606H33.605c-8.604,0-15.605-7-15.605-15.606v-81.441c0-0.829-0.672-1.5-1.5-1.5
				s-1.5,0.671-1.5,1.5v81.441c0,10.259,8.347,18.606,18.605,18.606h188.789c10.259,0,18.605-8.346,18.605-18.606V83.777
				C241,73.518,232.653,65.171,222.395,65.171z"/>
		</g>
	</g>
	<g>
		<g>
			<path class="st5" d="M181.99,81.088H38.01c-4.424,0-8.01,3.586-8.01,8.01v119.646c0,4.424,3.586,8.01,8.01,8.01H181.99
				c4.424,0,8.01-3.586,8.01-8.01V89.099C190,84.675,186.414,81.088,181.99,81.088z"/>
		</g>
	</g>
	<g>
		<g>
			<path class="st0" d="M181.989,79.588H38.011c-5.244,0-9.511,4.266-9.511,9.51v119.646c0,5.244,4.267,9.51,9.511,9.51h85.87
				c0.828,0,1.5-0.671,1.5-1.5s-0.672-1.5-1.5-1.5h-85.87c-3.59,0-6.511-2.92-6.511-6.51V89.099c0-3.59,2.921-6.51,6.511-6.51
				h143.979c3.59,0,6.511,2.92,6.511,6.51v119.646c0,3.59-2.921,6.51-6.511,6.51h-44.538c-0.828,0-1.5,0.671-1.5,1.5
				s0.672,1.5,1.5,1.5h44.538c5.244,0,9.511-4.266,9.511-9.51V89.099C191.5,83.854,187.233,79.588,181.989,79.588z"/>
		</g>
	</g>
	<g>
		<g>
			<circle class="st3" cx="214.5" cy="112.359" r="15.438"/>
		</g>
	</g>
	<g>
		<g>
			<path class="st0" d="M214.5,95.421c-9.34,0-16.938,7.598-16.938,16.938c0,9.339,7.598,16.938,16.938,16.938
				s16.938-7.598,16.938-16.938C231.438,103.019,223.84,95.421,214.5,95.421z M214.5,126.296c-7.686,0-13.938-6.253-13.938-13.938
				c0-7.685,6.252-13.938,13.938-13.938s13.938,6.252,13.938,13.938C228.438,120.044,222.186,126.296,214.5,126.296z"/>
		</g>
	</g>
	<g>
		<g>
			<circle class="st2" cx="214.5" cy="149.328" r="9.75"/>
		</g>
	</g>
	<g>
		<g>
			<path class="st0" d="M214.5,138.078c-6.203,0-11.25,5.047-11.25,11.25c0,6.203,5.047,11.25,11.25,11.25s11.25-5.047,11.25-11.25
				C225.75,143.125,220.703,138.078,214.5,138.078z M214.5,157.578c-4.549,0-8.25-3.701-8.25-8.25c0-4.549,3.701-8.25,8.25-8.25
				s8.25,3.701,8.25,8.25C222.75,153.876,219.049,157.578,214.5,157.578z"/>
		</g>
	</g>
	<g>
		<g>
			<path class="st1" d="M223.031,170.047h-16.25c-2.917,0-5.281,2.365-5.281,5.281c0,2.917,2.365,5.281,5.281,5.281h16.25
				c2.917,0,5.281-2.364,5.281-5.281C228.313,172.411,225.948,170.047,223.031,170.047z"/>
		</g>
	</g>
	<g>
		<g>
			<path class="st0" d="M223.031,168.546h-16.25c-3.739,0-6.781,3.042-6.781,6.781c0,3.739,3.042,6.781,6.781,6.781h16.25
				c3.739,0,6.781-3.042,6.781-6.781C229.813,171.588,226.771,168.546,223.031,168.546z M223.031,179.109h-16.25
				c-2.085,0-3.781-1.696-3.781-3.781c0-2.085,1.696-3.781,3.781-3.781h16.25c2.085,0,3.781,1.696,3.781,3.781
				C226.813,177.413,225.116,179.109,223.031,179.109z"/>
		</g>
	</g>
	<g>
		<g>
			<path class="st1" d="M223.031,190.359h-16.25c-2.917,0-5.281,2.365-5.281,5.281c0,2.917,2.365,5.281,5.281,5.281h16.25
				c2.917,0,5.281-2.364,5.281-5.281C228.313,192.724,225.948,190.359,223.031,190.359z"/>
		</g>
	</g>
	<g>
		<g>
			<path class="st0" d="M223.031,188.859h-16.25c-3.739,0-6.781,3.042-6.781,6.781c0,3.739,3.042,6.781,6.781,6.781h16.25
				c3.739,0,6.781-3.042,6.781-6.781C229.813,191.901,226.771,188.859,223.031,188.859z M223.031,199.421h-16.25
				c-2.085,0-3.781-1.696-3.781-3.781c0-2.085,1.696-3.781,3.781-3.781h16.25c2.085,0,3.781,1.696,3.781,3.781
				C226.813,197.725,225.116,199.421,223.031,199.421z"/>
		</g>
	</g>
	<g>
		<g>
			<path class="st6" d="M181.99,82.591h-15c3.59,0,6.51,2.92,6.51,6.51v119.64c0,3.59-2.92,6.51-6.51,6.51h15
				c3.59,0,6.51-2.92,6.51-6.51V89.102C188.5,85.511,185.58,82.591,181.99,82.591z"/>
		</g>
	</g>
	<g>
		<g>
			<circle class="st1" cx="110.75" cy="148.932" r="56"/>
		</g>
	</g>
	<g>
		<g>
			<path class="st0" d="M110.75,91.432c-31.706,0-57.5,25.794-57.5,57.5c0,31.706,25.794,57.5,57.5,57.5s57.5-25.794,57.5-57.5
				C168.25,117.227,142.456,91.432,110.75,91.432z M110.75,203.432c-30.052,0-54.5-24.449-54.5-54.5c0-30.051,24.448-54.5,54.5-54.5
				s54.5,24.449,54.5,54.5C165.25,178.983,140.802,203.432,110.75,203.432z"/>
		</g>
	</g>
	<g>
		<g>
			<path class="st0" d="M110.75,91.432c-21.474,0-38.943,25.794-38.943,57.5c0,31.706,17.47,57.5,38.943,57.5
				s38.943-25.794,38.943-57.5C149.693,117.227,132.224,91.432,110.75,91.432z M110.75,203.432c-19.819,0-35.943-24.449-35.943-54.5
				c0-30.051,16.124-54.5,35.943-54.5s35.943,24.449,35.943,54.5C146.693,178.983,130.569,203.432,110.75,203.432z"/>
		</g>
	</g>
	<g>
		<g>
			<path class="st0" d="M110.75,91.432c-10.405,0-16.021,29.625-16.021,57.5s5.615,57.5,16.021,57.5s16.021-29.625,16.021-57.5
				S121.155,91.432,110.75,91.432z M110.75,203.432c-6.158,0-13.021-22.382-13.021-54.5c0-32.118,6.862-54.5,13.021-54.5
				s13.021,22.382,13.021,54.5C123.771,181.05,116.908,203.432,110.75,203.432z"/>
		</g>
	</g>
	<g>
		<g>
			<path class="st0" d="M110.75,109.989c-31.706,0-57.5,17.47-57.5,38.943c0,21.474,25.794,38.944,57.5,38.944
				s57.5-17.47,57.5-38.944C168.25,127.458,142.456,109.989,110.75,109.989z M110.75,184.876c-30.052,0-54.5-16.125-54.5-35.944
				c0-19.819,24.448-35.943,54.5-35.943s54.5,16.124,54.5,35.943C165.25,168.751,140.802,184.876,110.75,184.876z"/>
		</g>
	</g>
	<g>
		<g>
			<path class="st0" d="M110.75,132.912c-27.875,0-57.5,5.615-57.5,16.02c0,10.406,29.625,16.021,57.5,16.021
				s57.5-5.615,57.5-16.021C168.25,138.527,138.625,132.912,110.75,132.912z M110.75,161.953c-32.117,0-54.5-6.862-54.5-13.021
				c0-6.158,22.383-13.02,54.5-13.02s54.5,6.862,54.5,13.02C165.25,155.091,142.867,161.953,110.75,161.953z"/>
		</g>
	</g>
</g>
</svg>
