<?xml version="1.0" encoding="utf-8"?>
<!-- Generator: Adobe Illustrator 22.0.1, SVG Export Plug-In . SVG Version: 6.00 Build 0)  -->
<svg version="1.1" id="Layer_1" xmlns="http://www.w3.org/2000/svg" xmlns:xlink="http://www.w3.org/1999/xlink" x="0px" y="0px"
	 viewBox="0 0 256 256" style="enable-background:new 0 0 256 256;" xml:space="preserve">
<style type="text/css">
	.st0{fill:#3A312A;}
	.st1{fill:#8AC6DD;}
	.st2{fill:#F16C7A;}
	.st3{fill:#D7E057;}
	.st4{fill:#87796F;}
	.st5{fill:#FCE8CB;}
	.st6{fill:#DECAAD;}
	.st7{fill:#D6DF58;}
	.st8{fill:#FAE6CA;}
	.st9{fill:#DDC9AC;}
	.st10{fill:#D5DE58;}
	.st11{fill:#ED6E7A;}
	.st12{fill:#8AC5DC;}
	.st13{fill:#6CA8BF;}
	.st14{fill:#695B51;}
	.st15{fill:#F8E4C8;}
	.st16{fill:#EF6D7A;}
	.st17{fill-rule:evenodd;clip-rule:evenodd;fill:#F8E4C8;}
	.st18{fill:#89C4DB;}
	.st19{fill:#F59689;}
	.st20{fill:#D34E5C;}
	.st21{fill:#F7E3C7;}
	.st22{fill:#8AC3DA;}
	.st23{fill-rule:evenodd;clip-rule:evenodd;fill:#F7E3C7;}
	.st24{fill-rule:evenodd;clip-rule:evenodd;fill:#87796F;}
	.st25{fill:#B9C239;}
	.st26{fill:#D4DB56;}
	.st27{fill-rule:evenodd;clip-rule:evenodd;fill:#F16C7A;}
	.st28{fill-rule:evenodd;clip-rule:evenodd;fill:#F6E2C6;}
	.st29{fill:#F6E2C6;}
	.st30{fill-rule:evenodd;clip-rule:evenodd;fill:#FAE6CA;}
	.st31{fill:#B8C136;}
</style>
<g>
	<g>
		<g>
			<path class="st15" d="M209.219,182.085h-19.915v-12.943c-5.509,3.819-11.208,6.072-16.739,6.072
				c-5.305,0-10.904-2.275-16.389-6.14h-0.338v13.01h-19.926c-16.648,0-30.142,13.494-30.142,30.142v27.315h133.591v-27.315
				C239.362,195.579,225.867,182.085,209.219,182.085z"/>
		</g>
	</g>
	<g>
		<g>
			<path class="st0" d="M209.219,180.585h-18.414v-11.443c0-0.558-0.31-1.07-0.805-1.329c-0.494-0.258-1.09-0.222-1.55,0.096
				c-5.556,3.852-10.9,5.805-15.884,5.805c-4.777,0-10.001-1.974-15.525-5.866c-0.253-0.178-0.555-0.274-0.864-0.274h-0.338
				c-0.828,0-1.5,0.671-1.5,1.5v11.511h-18.426c-17.448,0-31.643,14.194-31.643,31.642v27.315c0,0.829,0.672,1.5,1.5,1.5h33.567
				c0.828,0,1.5-0.671,1.5-1.5c0-0.829-0.672-1.5-1.5-1.5h-32.067v-25.815c0-15.794,12.849-28.642,28.643-28.642h19.926
				c0.828,0,1.5-0.671,1.5-1.5v-10.43c5.313,3.359,10.427,5.059,15.228,5.059c4.879,0,9.994-1.615,15.238-4.806v10.177
				c0,0.829,0.672,1.5,1.5,1.5h19.914c15.794,0,28.643,12.849,28.643,28.642v25.815h-84.79c-0.828,0-1.5,0.671-1.5,1.5
				c0,0.829,0.672,1.5,1.5,1.5h86.29c0.828,0,1.5-0.671,1.5-1.5v-27.315C240.861,194.779,226.667,180.585,209.219,180.585z"/>
		</g>
	</g>
	<g>
		<g>
			<path class="st3" d="M209.219,182.072h-4.763l0.121,0.097l-20.714,27.465l-10.69-8.048l-10.69,8.048l-20.714-27.465l0.121-0.097
				h-5.975c-16.654,0-30.144,13.502-30.144,30.143v27.332h133.591v-27.332C239.362,195.574,225.872,182.072,209.219,182.072z"/>
		</g>
	</g>
	<g>
		<g>
			<path class="st0" d="M209.219,180.572h-4.764c-0.638,0-1.205,0.403-1.416,1.004c-0.024,0.071-0.044,0.143-0.058,0.216
				l-19.414,25.742l-9.493-7.147c-0.535-0.402-1.27-0.402-1.805,0l-9.492,7.147l-19.414-25.742
				c-0.014-0.073-0.033-0.145-0.058-0.216c-0.211-0.602-0.778-1.004-1.416-1.004h-5.976c-17.448,0-31.644,14.195-31.644,31.643
				v27.332c0,0.829,0.672,1.5,1.5,1.5h33.566c0.828,0,1.5-0.671,1.5-1.5c0-0.829-0.672-1.5-1.5-1.5h-32.066v-25.832
				c0-15.794,12.85-28.643,28.644-28.643h5.034l20.337,26.965c0.498,0.661,1.438,0.792,2.1,0.295l9.787-7.369l9.788,7.369
				c0.661,0.498,1.601,0.366,2.1-0.295l20.337-26.965h3.822c15.794,0,28.644,12.85,28.644,28.643v25.832h-84.791
				c-0.828,0-1.5,0.671-1.5,1.5c0,0.829,0.672,1.5,1.5,1.5h86.291c0.828,0,1.5-0.671,1.5-1.5v-27.332
				C240.862,194.768,226.667,180.572,209.219,180.572z"/>
		</g>
	</g>
	<g>
		<g>
			<path class="st4" d="M141.771,182.17l0.12-0.1h-5.98c-16.65,0-30.14,13.5-30.14,30.15v27.33h56.4L141.771,182.17z"/>
		</g>
	</g>
	<g>
		<g>
			<path class="st0" d="M163.584,239.047l-20.201-56.821c0.022-0.221-0.003-0.449-0.082-0.667c-0.215-0.594-0.778-0.989-1.41-0.989
				h-5.979c-17.446,0-31.641,14.198-31.641,31.65v27.33c0,0.829,0.672,1.5,1.5,1.5h33.566c0.828,0,1.5-0.671,1.5-1.5
				s-0.672-1.5-1.5-1.5h-32.066v-25.83c0-15.798,12.848-28.65,28.641-28.65h4.765l19.37,54.48h-6.975c-0.828,0-1.5,0.671-1.5,1.5
				s0.672,1.5,1.5,1.5h9.1c0.487,0,0.944-0.237,1.226-0.635C163.678,240.017,163.747,239.506,163.584,239.047z"/>
		</g>
	</g>
	<g>
		<g>
			<path class="st4" d="M209.221,182.07h-4.77l0.13,0.1l-20.4,57.38h55.18v-27.33C239.361,195.57,225.871,182.07,209.221,182.07z"/>
		</g>
	</g>
	<g>
		<g>
			<path class="st0" d="M209.221,180.57h-4.77c-0.642,0-1.213,0.409-1.42,1.016c-0.074,0.218-0.096,0.443-0.069,0.661l-20.194,56.8
				c-0.163,0.459-0.094,0.969,0.188,1.367c0.281,0.398,0.738,0.635,1.226,0.635h55.18c0.828,0,1.5-0.671,1.5-1.5v-27.33
				C240.86,194.768,226.667,180.57,209.221,180.57z M237.86,238.05h-51.555l19.37-54.48h3.545c15.792,0,28.64,12.853,28.64,28.65
				V238.05z"/>
		</g>
	</g>
	<g>
		<g>
			<path class="st17" d="M120.808,95.503c-6.551,0-11.861,5.31-11.861,11.86c0,6.55,5.31,11.86,11.861,11.86
				c6.55,0,11.86-5.31,11.86-11.86C132.668,100.813,127.358,95.503,120.808,95.503z"/>
		</g>
	</g>
	<g>
		<g>
			<path class="st0" d="M120.808,94.003c-7.367,0-13.36,5.994-13.36,13.36s5.993,13.36,13.36,13.36s13.36-5.994,13.36-13.36
				S128.175,94.003,120.808,94.003z M120.808,117.724c-5.713,0-10.36-4.647-10.36-10.36c0-5.713,4.647-10.36,10.36-10.36
				s10.36,4.647,10.36,10.36C131.168,113.076,126.521,117.724,120.808,117.724z"/>
		</g>
	</g>
	<g>
		<g>
			<path class="st17" d="M224.328,95.503c-6.55,0-11.861,5.31-11.861,11.86c0,6.55,5.31,11.86,11.861,11.86s11.86-5.31,11.86-11.86
				C236.189,100.813,230.879,95.503,224.328,95.503z"/>
		</g>
	</g>
	<g>
		<g>
			<path class="st0" d="M224.328,94.003c-7.367,0-13.36,5.994-13.36,13.36s5.993,13.36,13.36,13.36s13.36-5.994,13.36-13.36
				S231.695,94.003,224.328,94.003z M224.328,117.724c-5.713,0-10.36-4.647-10.36-10.36c0-5.713,4.647-10.36,10.36-10.36
				s10.36,4.647,10.36,10.36C234.688,113.076,230.041,117.724,224.328,117.724z"/>
		</g>
	</g>
	<g>
		<g>
			<path class="st4" d="M227.592,73.7c0-13.98-5.77-26.67-15.16-36.03c0.57,1.63,0.87,3.28,0.87,4.91c0,5.52-3.8,10.56-10.06,14.38
				c1.3,2.16,2.92,4.14,4.82,5.88c9.52,8.7,15.81,20.86,16.91,34.48c0.14-0.19,0.45-0.29,0.69-0.38
				C227.912,96.12,227.592,75.5,227.592,73.7z"/>
		</g>
	</g>
	<g>
		<g>
			<path class="st0" d="M229.096,74.338l-0.004-0.638c0-13.892-5.54-27.065-15.601-37.093c-0.493-0.492-1.264-0.581-1.857-0.207
				c-0.592,0.372-0.848,1.104-0.617,1.764c0.521,1.492,0.785,2.977,0.785,4.416c0,4.771-3.317,9.424-9.341,13.1
				c-0.704,0.43-0.93,1.347-0.504,2.054c1.378,2.291,3.092,4.381,5.094,6.214c9.554,8.731,15.387,20.626,16.426,33.493
				c0.051,0.623,0.481,1.15,1.083,1.322c0.137,0.039,0.274,0.058,0.412,0.058c0.379,0,0.747-0.144,1.025-0.405
				c0.039-0.015,0.079-0.028,0.116-0.042c0.002-0.001,0.043-0.016,0.063-0.024C227.479,97.875,229.261,97.218,229.096,74.338z
				 M225.641,91.182c-2.203-11.289-7.958-21.582-16.565-29.448c-1.424-1.304-2.684-2.752-3.76-4.321
				c6.132-4.125,9.486-9.349,9.486-14.832V42.5c7.313,8.879,11.29,19.785,11.29,31.201l0.004,0.66
				C226.157,82.922,225.928,88.08,225.641,91.182z"/>
		</g>
	</g>
	<g>
		<g>
			<path class="st0" d="M130.794,216.456c-0.828,0-1.5,0.671-1.5,1.5v21.589c0,0.829,0.672,1.5,1.5,1.5s1.5-0.671,1.5-1.5v-21.589
				C132.294,217.127,131.622,216.456,130.794,216.456z"/>
		</g>
	</g>
	<g>
		<g>
			<path class="st0" d="M215.556,216.456c-0.828,0-1.5,0.671-1.5,1.5v21.589c0,0.829,0.672,1.5,1.5,1.5s1.5-0.671,1.5-1.5v-21.589
				C217.056,217.127,216.384,216.456,215.556,216.456z"/>
		</g>
	</g>
	<g>
		<g>
			<polygon class="st18" points="178.287,219.355 168.021,219.355 164.906,239.547 181.402,239.547 			"/>
		</g>
	</g>
	<g>
		<g>
			<path class="st0" d="M182.885,239.319l-3.115-20.193c-0.113-0.731-0.742-1.271-1.482-1.271h-10.266
				c-0.74,0-1.369,0.54-1.482,1.271l-3.115,20.193c-0.066,0.433,0.059,0.873,0.344,1.205c0.285,0.332,0.701,0.523,1.139,0.523
				h16.496c0.438,0,0.854-0.191,1.139-0.523C182.826,240.191,182.951,239.752,182.885,239.319z M166.655,238.047l2.652-17.193h7.693
				l2.652,17.193H166.655z"/>
		</g>
	</g>
	<g>
		<g>
			<polygon class="st18" points="164.559,201.57 168.029,219.35 178.275,219.35 181.828,201.57 			"/>
		</g>
	</g>
	<g>
		<g>
			<path class="st0" d="M182.988,200.619c-0.285-0.347-0.711-0.549-1.16-0.549H164.56c-0.448,0-0.873,0.2-1.158,0.546
				c-0.284,0.346-0.399,0.801-0.314,1.241l3.47,17.78c0.138,0.705,0.755,1.213,1.473,1.213h10.245c0.715,0,1.331-0.505,1.471-1.206
				l3.554-17.78C183.387,201.423,183.273,200.966,182.988,200.619z M177.045,217.85h-7.78l-2.884-14.78h13.618L177.045,217.85z"/>
		</g>
	</g>
	<g>
		<g>
			
				<rect x="150.777" y="174.652" transform="matrix(0.7986 -0.6019 0.6019 0.7986 -83.75 133.4294)" class="st3" width="13.441" height="34.407"/>
		</g>
	</g>
	<g>
		<g>
			<path class="st0" d="M174.417,200.646l-20.708-27.478c-0.24-0.318-0.596-0.527-0.989-0.582c-0.4-0.055-0.795,0.048-1.111,0.288
				l-10.734,8.09c-0.318,0.239-0.527,0.595-0.583,0.989c-0.056,0.394,0.048,0.793,0.287,1.111l20.708,27.477
				c0.295,0.391,0.744,0.597,1.199,0.597c0.314,0,0.632-0.098,0.901-0.302l10.734-8.089c0.318-0.239,0.527-0.595,0.583-0.989
				C174.76,201.364,174.656,200.964,174.417,200.646z M162.779,207.538l-18.902-25.082l8.339-6.284l18.902,25.082L162.779,207.538z"
				/>
		</g>
	</g>
	<g>
		<g>
			
				<rect x="171.649" y="185.135" transform="matrix(0.6019 -0.7986 0.7986 0.6019 -78.0263 227.204)" class="st3" width="34.407" height="13.441"/>
		</g>
	</g>
	<g>
		<g>
			<path class="st0" d="M206.059,181.953c-0.056-0.394-0.265-0.75-0.583-0.989l-10.734-8.09c-0.317-0.24-0.715-0.343-1.111-0.288
				c-0.394,0.055-0.749,0.265-0.989,0.582l-20.708,27.478c-0.239,0.318-0.343,0.718-0.287,1.111c0.056,0.394,0.265,0.75,0.583,0.989
				l10.734,8.089c0.27,0.204,0.587,0.302,0.901,0.302c0.455,0,0.904-0.206,1.199-0.597l20.708-27.477
				C206.011,182.747,206.114,182.347,206.059,181.953z M183.57,207.538l-8.339-6.284l18.902-25.082l8.339,6.284L183.57,207.538z"/>
		</g>
	</g>
	<g>
		<g>
			<path class="st15" d="M208.062,62.83c-1.9-1.73-3.52-3.71-4.82-5.86c-7.32,4.48-18.02,7.31-29.94,7.31
				c-2.83,0-5.59-0.16-8.26-0.47c-19.16-2.18-37.53,9.25-43.6,27.56c-0.59,1.76-1,3.45-1.19,5.02c-0.03,0.22-0.05,0.44-0.07,0.66
				c-0.12,1.5-0.19,3.02-0.19,4.56c0,29.03,29.08,73.61,52.58,73.61c24.61,0,52.57-44.58,52.57-73.61
				C225.142,86.25,218.562,72.44,208.062,62.83z"/>
		</g>
	</g>
	<g>
		<g>
			<path class="st0" d="M209.072,61.721c-1.778-1.619-3.308-3.478-4.547-5.526c-0.206-0.342-0.54-0.587-0.929-0.682
				c-0.382-0.093-0.796-0.03-1.138,0.178c-7.361,4.505-17.988,7.089-29.157,7.089c-2.739,0-5.46-0.155-8.09-0.46
				c-19.941-2.271-38.952,9.749-45.191,28.574c-0.638,1.9-1.061,3.689-1.255,5.292c-0.03,0.223-0.052,0.446-0.079,0.746
				c-0.131,1.645-0.194,3.175-0.194,4.679c0,14.102,6.799,32.704,17.743,48.544c11.494,16.635,25.077,26.566,36.337,26.566
				c11.851,0,25.246-9.686,36.753-26.574c10.682-15.676,17.316-34.274,17.316-48.536C226.642,86.479,220.239,71.941,209.072,61.721z
				 M206.847,148.457c-10.778,15.819-23.592,25.263-34.274,25.263c-10.274,0-22.936-9.447-33.868-25.271
				c-10.617-15.366-17.212-33.313-17.212-46.839c0-1.423,0.061-2.876,0.188-4.479c0.017-0.179,0.032-0.358,0.061-0.56
				c0.173-1.426,0.551-3.016,1.125-4.729c5.326-16.07,20.672-26.797,37.51-26.797c1.487,0,2.988,0.084,4.493,0.255
				c2.741,0.318,5.578,0.479,8.433,0.479c11.087,0,21.719-2.462,29.455-6.789c1.229,1.808,2.67,3.468,4.293,4.945
				c10.544,9.65,16.592,23.382,16.592,37.673C223.642,115.301,217.206,133.252,206.847,148.457z"/>
		</g>
	</g>
	<g>
		<g>
			<path class="st0" d="M154.005,95.88c-2.834,0-5.132,2.298-5.132,5.132c0,2.834,2.298,5.132,5.132,5.132s5.132-2.298,5.132-5.132
				C159.137,98.178,156.839,95.88,154.005,95.88z"/>
		</g>
	</g>
	<g>
		<g>
			<path class="st0" d="M191.131,95.88c-2.834,0-5.132,2.298-5.132,5.132c0,2.834,2.297,5.132,5.132,5.132
				c2.835,0,5.132-2.298,5.132-5.132C196.263,98.178,193.966,95.88,191.131,95.88z"/>
		</g>
	</g>
	<g>
		<g>
			<path class="st19" d="M143.748,109.661c-4.882,0-8.84,2.959-8.84,6.609c0,3.65,3.958,6.609,8.84,6.609
				c4.883,0,8.841-2.959,8.841-6.609C152.589,112.62,148.631,109.661,143.748,109.661z"/>
		</g>
	</g>
	<g>
		<g>
			<path class="st19" d="M201.388,109.661c-4.882,0-8.84,2.959-8.84,6.609c0,3.65,3.958,6.609,8.84,6.609
				c4.882,0,8.84-2.959,8.84-6.609C210.228,112.62,206.27,109.661,201.388,109.661z"/>
		</g>
	</g>
	<g>
		<g>
			<path class="st0" d="M187.621,133.807c-0.778-0.29-1.641,0.103-1.931,0.879c-1.046,2.791-5.135,8.069-13.124,8.069
				c-6.242,0-10.552-2.678-13.174-8.188c-0.355-0.748-1.25-1.066-1.999-0.71c-0.748,0.356-1.065,1.251-0.71,1.999
				c3.126,6.568,8.47,9.898,15.883,9.898c8.368,0,14.125-5.192,15.933-10.017C188.79,134.962,188.396,134.098,187.621,133.807z"/>
		</g>
	</g>
	<g>
		<g>
			<path class="st0" d="M149.616,80.391c-11.229,0-20.365,9.136-20.365,20.366c0,11.229,9.136,20.365,20.365,20.365
				s20.366-9.136,20.366-20.365C169.982,89.527,160.846,80.391,149.616,80.391z M149.616,118.122
				c-9.575,0-17.365-7.79-17.365-17.365c0-9.576,7.79-17.366,17.365-17.366c9.576,0,17.366,7.79,17.366,17.366
				C166.982,110.331,159.192,118.122,149.616,118.122z"/>
		</g>
	</g>
	<g>
		<g>
			<path class="st0" d="M196.729,80.391c-11.229,0-20.366,9.136-20.366,20.366c0,11.229,9.137,20.365,20.366,20.365
				s20.365-9.136,20.365-20.365C217.094,89.527,207.958,80.391,196.729,80.391z M196.729,118.122
				c-9.576,0-17.366-7.79-17.366-17.365c0-9.576,7.79-17.366,17.366-17.366c9.575,0,17.365,7.79,17.365,17.366
				C214.094,110.331,206.304,118.122,196.729,118.122z"/>
		</g>
	</g>
	<g>
		<g>
			<path class="st0" d="M177.862,99.218h-9.38c-0.828,0-1.5,0.671-1.5,1.5c0,0.829,0.672,1.5,1.5,1.5h9.38
				c0.828,0,1.5-0.671,1.5-1.5C179.362,99.89,178.69,99.218,177.862,99.218z"/>
		</g>
	</g>
	<g>
		<g>
			<path class="st0" d="M131.403,95.028l-10.89-1.099c-0.811-0.075-1.56,0.517-1.643,1.342c-0.083,0.824,0.518,1.56,1.342,1.643
				l10.89,1.099c0.051,0.005,0.102,0.007,0.152,0.007c0.761,0,1.412-0.577,1.49-1.35C132.828,95.846,132.228,95.111,131.403,95.028z
				"/>
		</g>
	</g>
	<g>
		<g>
			<path class="st0" d="M226.276,95.19c-0.098-0.823-0.838-1.41-1.667-1.312l-9.683,1.152c-0.822,0.098-1.409,0.844-1.312,1.667
				c0.091,0.763,0.738,1.323,1.487,1.323c0.06,0,0.119-0.003,0.18-0.011l9.683-1.152C225.787,96.759,226.374,96.013,226.276,95.19z"
				/>
		</g>
	</g>
	<g>
		<g>
			<path class="st4" d="M177.543,16.554c-17.783-1.111-33.516,7.112-41.209,14.544c-11.612,9.539-17.583,26.813-17.583,42.599
				c0,2.885,0.509,19.296,1.43,23.356c0.15-1.753,0.596-3.669,1.264-5.685c6.065-18.305,24.44-29.74,43.6-27.556
				c2.664,0.304,5.426,0.463,8.257,0.463c22.09,0,39.998-9.713,39.998-21.693C213.299,30.601,196.936,17.766,177.543,16.554z"/>
		</g>
	</g>
	<g>
		<g>
			<path class="st0" d="M177.637,15.057c-17.397-1.092-33.768,6.704-42.302,14.921c-11.155,9.196-18.084,25.941-18.084,43.719
				c0,2.908,0.492,19.391,1.467,23.688c0.156,0.688,0.767,1.168,1.462,1.168c0.034,0,0.069-0.001,0.104-0.003
				c0.738-0.051,1.329-0.632,1.392-1.368c0.134-1.559,0.535-3.356,1.193-5.341c5.795-17.49,23.459-28.654,42.007-26.538
				c2.752,0.314,5.587,0.473,8.426,0.473c23.27,0,41.498-10.188,41.498-23.193C214.799,29.392,197.086,16.273,177.637,15.057z
				 M173.301,62.776c-2.726,0-5.446-0.153-8.086-0.454c-19.149-2.188-37.436,8.807-44.387,26.352
				c-0.366-5.869-0.577-12.866-0.577-14.977c0-16.672,6.687-32.939,17.035-41.44c0.031-0.026,0.062-0.052,0.09-0.081
				c7.54-7.284,21.627-14.223,36.955-14.223c1.033,0,2.075,0.031,3.118,0.097c19.66,1.228,34.35,13.965,34.35,24.531
				C211.799,53.717,194.528,62.776,173.301,62.776z"/>
		</g>
	</g>
	<g>
		<g>
			<path class="st14" d="M209.221,183.57h-3.55l-0.87,2.45c10.04,4.46,17.06,14.52,17.06,26.2v25.83h16v-25.83
				C237.861,196.42,225.011,183.57,209.221,183.57z"/>
		</g>
	</g>
	<g>
		<g>
			<path class="st7" d="M65.05,43.748c-0.974,11.564-13.024,13.389-13.024,13.389c10.347,0.487,12.925,14.059,12.925,14.059
				c0.221-9.677,13.321-14.202,13.321-14.202C68.458,56.407,65.05,43.748,65.05,43.748z"/>
		</g>
	</g>
	<g>
		<g>
			<path class="st0" d="M78.361,55.497c-8.604-0.515-11.832-12.024-11.863-12.141c-0.19-0.702-0.846-1.161-1.584-1.102
				c-0.725,0.066-1.298,0.642-1.359,1.367c-0.859,10.215-11.313,11.964-11.754,12.033c-0.763,0.115-1.313,0.79-1.273,1.561
				c0.04,0.77,0.657,1.384,1.428,1.421c9.027,0.425,11.498,12.718,11.521,12.842c0.138,0.711,0.76,1.217,1.473,1.217
				c0.042,0,0.084-0.001,0.126-0.005c0.764-0.064,1.357-0.693,1.375-1.459c0.194-8.508,12.191-12.777,12.313-12.819
				c0.676-0.235,1.092-0.914,0.994-1.622C79.658,56.081,79.075,55.54,78.361,55.497z M64.795,65.843
				c-1.356-3.131-3.708-6.908-7.586-8.877c2.931-1.405,6.408-3.913,8.201-8.273c1.551,3.071,4.2,6.88,8.334,8.722
				C70.737,59.056,66.822,61.822,64.795,65.843z"/>
		</g>
	</g>
	<g>
		<g>
			<path class="st7" d="M43.351,60.729c-0.689,8.179-9.212,9.471-9.212,9.471c7.318,0.344,9.142,9.944,9.142,9.944
				c0.156-6.844,9.422-10.045,9.422-10.045C45.762,69.683,43.351,60.729,43.351,60.729z"/>
		</g>
	</g>
	<g>
		<g>
			<path class="st0" d="M52.793,68.601c-5.767-0.345-7.972-8.186-7.993-8.265c-0.19-0.702-0.855-1.163-1.582-1.102
				c-0.726,0.065-1.3,0.642-1.361,1.368c-0.579,6.871-7.646,8.067-7.942,8.114c-0.763,0.115-1.313,0.79-1.273,1.561
				c0.04,0.77,0.657,1.384,1.428,1.421c6.035,0.284,7.724,8.644,7.739,8.725c0.136,0.713,0.759,1.22,1.473,1.22
				c0.041,0,0.083-0.002,0.125-0.005c0.765-0.064,1.358-0.694,1.376-1.461c0.13-5.709,8.331-8.634,8.412-8.662
				c0.676-0.234,1.093-0.913,0.996-1.622C54.092,69.185,53.507,68.644,52.793,68.601z M43.208,75.396
				c-0.924-1.885-2.34-3.947-4.447-5.28c1.855-1.041,3.697-2.63,4.871-4.917c1.057,1.874,2.654,3.955,4.941,5.224
				C46.724,71.524,44.584,73.163,43.208,75.396z"/>
		</g>
	</g>
	<g>
		<g>
			<path class="st7" d="M43.313,34.071c-0.657,8.182-9.175,9.507-9.175,9.507c7.319,0.316,9.181,9.909,9.181,9.909
				c0.129-6.845,9.383-10.082,9.383-10.082C45.759,43.016,43.313,34.071,43.313,34.071z"/>
		</g>
	</g>
	<g>
		<g>
			<path class="st0" d="M52.785,41.907c-5.767-0.323-8.004-8.154-8.025-8.233c-0.193-0.702-0.88-1.169-1.586-1.096
				c-0.726,0.068-1.297,0.647-1.355,1.374c-0.552,6.873-7.615,8.097-7.911,8.144c-0.762,0.119-1.31,0.796-1.268,1.566
				c0.043,0.77,0.663,1.382,1.434,1.415c6.036,0.261,7.758,8.614,7.773,8.696c0.138,0.71,0.76,1.214,1.472,1.214
				c0.043,0,0.087-0.002,0.131-0.005c0.765-0.066,1.355-0.699,1.37-1.466c0.107-5.71,8.297-8.667,8.377-8.695
				c0.676-0.236,1.09-0.917,0.99-1.626C54.086,42.486,53.499,41.947,52.785,41.907z M43.228,48.739
				c-0.932-1.882-2.355-3.938-4.468-5.263c1.852-1.048,3.687-2.644,4.852-4.936c1.064,1.87,2.67,3.944,4.961,5.205
				C46.728,44.854,44.595,46.502,43.228,48.739z"/>
		</g>
	</g>
	<g>
		<g>
			<path class="st2" d="M79.491,124.969c-0.517-0.437-1.276-0.437-1.792,0l-52.083,44.176v70.402h105.959v-70.402L79.491,124.969z"
				/>
		</g>
	</g>
	<g>
		<g>
			<path class="st0" d="M132.545,168.001l-52.084-44.176c-1.083-0.917-2.651-0.915-3.732,0l-52.084,44.176
				c-0.336,0.285-0.529,0.704-0.529,1.144v28.409c0,0.829,0.672,1.5,1.5,1.5s1.5-0.671,1.5-1.5V169.84l51.48-43.663l51.479,43.663
				v68.208H27.115V211.78c0-0.829-0.672-1.5-1.5-1.5s-1.5,0.671-1.5,1.5v27.768c0,0.829,0.672,1.5,1.5,1.5h105.959
				c0.828,0,1.5-0.671,1.5-1.5v-70.402C133.074,168.705,132.881,168.286,132.545,168.001z"/>
		</g>
	</g>
	<g>
		<g>
			<path class="st4" d="M139.249,171.871L118.8,154.526l-10.715-9.089l-26.208-22.23c-1.901-1.61-4.661-1.611-6.565,0.002
				l-57.371,48.662c-1.554,1.318-1.745,3.648-0.426,5.201c1.319,1.555,3.647,1.745,5.201,0.427l55.88-47.398l55.88,47.398
				c0.694,0.588,1.542,0.876,2.386,0.876c1.046,0,2.086-0.443,2.816-1.303C140.994,175.519,140.803,173.19,139.249,171.871z"/>
		</g>
	</g>
	<g>
		<g>
			<path class="st0" d="M140.22,170.727l-20.449-17.345c-0.634-0.537-1.58-0.458-2.114,0.174c-0.536,0.632-0.459,1.578,0.173,2.114
				l20.45,17.345c0.445,0.378,0.718,0.908,0.766,1.491c0.048,0.583-0.135,1.15-0.514,1.596c-0.754,0.891-2.192,1.012-3.086,0.253
				l-55.88-47.398c-0.562-0.475-1.382-0.474-1.941,0l-55.879,47.398c-0.446,0.378-1.009,0.563-1.596,0.513
				c-0.583-0.048-1.112-0.32-1.491-0.767c-0.379-0.445-0.561-1.012-0.513-1.595c0.048-0.583,0.319-1.113,0.766-1.491l57.37-48.662
				c1.342-1.136,3.287-1.135,4.625-0.002l26.208,22.23c0.632,0.536,1.579,0.457,2.114-0.174c0.536-0.632,0.458-1.578-0.173-2.114
				l-26.21-22.231c-2.464-2.084-6.039-2.084-8.505,0.003L16.97,170.728c-1.057,0.896-1.701,2.151-1.814,3.533
				c-0.113,1.382,0.318,2.726,1.215,3.781c0.897,1.058,2.152,1.703,3.534,1.816c0.145,0.012,0.289,0.018,0.433,0.018
				c1.228,0,2.403-0.43,3.35-1.232l54.908-46.575l54.91,46.575c0.938,0.794,2.129,1.232,3.355,1.232
				c1.528,0,2.972-0.668,3.959-1.832c0.897-1.057,1.329-2.4,1.216-3.782C141.922,172.879,141.276,171.625,140.22,170.727z"/>
		</g>
	</g>
	<g>
		<g>
			<path class="st4" d="M80.803,175.26c-14.939,0-27.05,12.111-27.05,27.05v37.237h54.1V202.31
				C107.853,187.371,95.742,175.26,80.803,175.26z"/>
		</g>
	</g>
	<g>
		<g>
			<path class="st0" d="M80.803,173.76c-15.742,0-28.55,12.808-28.55,28.55v37.238c0,0.829,0.672,1.5,1.5,1.5h54.1
				c0.828,0,1.5-0.671,1.5-1.5V202.31C109.353,186.567,96.545,173.76,80.803,173.76z M106.353,238.047h-51.1V202.31
				c0-14.088,11.462-25.55,25.55-25.55s25.55,11.462,25.55,25.55V238.047z"/>
		</g>
	</g>
</g>
</svg>
