<?xml version="1.0" encoding="utf-8"?>
<!-- Generator: Adobe Illustrator 22.0.1, SVG Export Plug-In . SVG Version: 6.00 Build 0)  -->
<svg version="1.1" id="Layer_1" xmlns="http://www.w3.org/2000/svg" xmlns:xlink="http://www.w3.org/1999/xlink" x="0px" y="0px"
	 viewBox="0 0 256 256" style="enable-background:new 0 0 256 256;" xml:space="preserve">
<style type="text/css">
	.st0{fill:#3A312A;}
	.st1{fill:#8AC6DD;}
	.st2{fill:#F16C7A;}
	.st3{fill:#D7E057;}
	.st4{fill:#87796F;}
	.st5{fill:#FCE8CB;}
	.st6{fill:#DECAAD;}
	.st7{fill:#D6DF58;}
	.st8{fill:#FAE6CA;}
	.st9{fill:#DDC9AC;}
	.st10{fill:#D5DE58;}
	.st11{fill:#ED6E7A;}
	.st12{fill:#8AC5DC;}
	.st13{fill:#6CA8BF;}
	.st14{fill:#695B51;}
	.st15{fill:#F8E4C8;}
	.st16{fill:#EF6D7A;}
	.st17{fill-rule:evenodd;clip-rule:evenodd;fill:#F8E4C8;}
	.st18{fill:#89C4DB;}
	.st19{fill:#F59689;}
	.st20{fill:#D34E5C;}
	.st21{fill:#F7E3C7;}
	.st22{fill:#8AC3DA;}
	.st23{fill-rule:evenodd;clip-rule:evenodd;fill:#F7E3C7;}
	.st24{fill-rule:evenodd;clip-rule:evenodd;fill:#87796F;}
	.st25{fill:#B9C239;}
	.st26{fill:#D4DB56;}
	.st27{fill-rule:evenodd;clip-rule:evenodd;fill:#F16C7A;}
	.st28{fill-rule:evenodd;clip-rule:evenodd;fill:#F6E2C6;}
	.st29{fill:#F6E2C6;}
	.st30{fill-rule:evenodd;clip-rule:evenodd;fill:#FAE6CA;}
	.st31{fill:#B8C136;}
</style>
<g>
	<g>
		<g>
			<path class="st3" d="M179.317,26.403c-0.974,11.564-13.025,13.39-13.025,13.39c10.347,0.487,12.925,14.059,12.925,14.059
				c0.221-9.677,13.321-14.202,13.321-14.202C182.726,39.062,179.317,26.403,179.317,26.403z"/>
		</g>
	</g>
	<g>
		<g>
			<path class="st0" d="M192.629,38.152c-8.604-0.514-11.832-12.024-11.863-12.14c-0.19-0.702-0.847-1.16-1.584-1.102
				c-0.725,0.066-1.298,0.642-1.359,1.367c-0.859,10.215-11.313,11.963-11.754,12.032c-0.763,0.115-1.313,0.79-1.273,1.561
				c0.04,0.77,0.657,1.384,1.428,1.421c9.027,0.425,11.498,12.718,11.521,12.842c0.138,0.711,0.76,1.217,1.473,1.217
				c0.042,0,0.084-0.001,0.126-0.005c0.764-0.064,1.357-0.693,1.375-1.459c0.194-8.508,12.191-12.777,12.313-12.819
				c0.676-0.235,1.092-0.915,0.994-1.623C193.926,38.736,193.343,38.195,192.629,38.152z M179.063,48.498
				c-1.356-3.13-3.709-6.907-7.587-8.876c2.932-1.405,6.409-3.913,8.202-8.273c1.551,3.071,4.2,6.88,8.334,8.722
				C185.005,41.711,181.089,44.477,179.063,48.498z"/>
		</g>
	</g>
	<g>
		<g>
			<path class="st3" d="M157.619,43.384c-0.689,8.179-9.212,9.471-9.212,9.471c7.318,0.344,9.142,9.944,9.142,9.944
				c0.156-6.844,9.422-10.045,9.422-10.045C160.029,52.338,157.619,43.384,157.619,43.384z"/>
		</g>
	</g>
	<g>
		<g>
			<path class="st0" d="M167.061,51.255c-5.767-0.345-7.973-8.185-7.995-8.264c-0.189-0.702-0.862-1.162-1.581-1.102
				c-0.726,0.065-1.3,0.643-1.361,1.368c-0.578,6.871-7.646,8.066-7.941,8.113c-0.763,0.115-1.313,0.79-1.273,1.561
				c0.04,0.77,0.657,1.384,1.428,1.421c6.035,0.284,7.723,8.644,7.738,8.726c0.136,0.713,0.759,1.22,1.473,1.22
				c0.041,0,0.083-0.001,0.124-0.005c0.766-0.063,1.359-0.693,1.377-1.46c0.131-5.709,8.332-8.634,8.413-8.662
				c0.676-0.234,1.093-0.913,0.996-1.622C168.359,51.84,167.774,51.298,167.061,51.255z M157.476,58.051
				c-0.924-1.886-2.34-3.947-4.447-5.28c1.855-1.042,3.697-2.63,4.87-4.917c1.058,1.874,2.655,3.955,4.942,5.224
				C160.99,54.179,158.852,55.818,157.476,58.051z"/>
		</g>
	</g>
	<g>
		<g>
			<path class="st3" d="M157.619,16.726c-0.689,8.179-9.212,9.471-9.212,9.471c7.318,0.345,9.142,9.944,9.142,9.944
				c0.156-6.845,9.422-10.045,9.422-10.045C160.029,25.68,157.619,16.726,157.619,16.726z"/>
		</g>
	</g>
	<g>
		<g>
			<path class="st0" d="M167.061,24.598c-5.767-0.345-7.973-8.186-7.995-8.265c-0.189-0.702-0.862-1.161-1.581-1.102
				c-0.726,0.065-1.3,0.643-1.361,1.368c-0.578,6.871-7.646,8.067-7.941,8.114c-0.763,0.115-1.313,0.79-1.273,1.561
				c0.04,0.77,0.657,1.384,1.428,1.421c6.035,0.284,7.723,8.644,7.738,8.726c0.136,0.713,0.759,1.22,1.473,1.22
				c0.041,0,0.083-0.001,0.124-0.005c0.765-0.063,1.359-0.693,1.377-1.46c0.131-5.71,8.332-8.634,8.413-8.662
				c0.676-0.234,1.093-0.913,0.996-1.622C168.359,25.183,167.774,24.641,167.061,24.598z M157.476,31.394
				c-0.924-1.886-2.34-3.948-4.447-5.28c1.855-1.041,3.697-2.63,4.87-4.916c1.058,1.874,2.655,3.954,4.942,5.224
				C160.99,27.521,158.852,29.161,157.476,31.394z"/>
		</g>
	</g>
	<g>
		<g>
			<rect x="16.5" y="212.646" class="st2" width="38.414" height="26.628"/>
		</g>
	</g>
	<g>
		<g>
			<path class="st0" d="M54.914,211.146H16.5c-0.828,0-1.5,0.671-1.5,1.5v26.628c0,0.829,0.672,1.5,1.5,1.5h38.414
				c0.828,0,1.5-0.671,1.5-1.5v-26.628C56.414,211.817,55.742,211.146,54.914,211.146z M53.414,237.774H18v-23.628h35.414V237.774z"
				/>
		</g>
	</g>
	<g>
		<g>
			<rect x="78.028" y="187.364" class="st4" width="38.415" height="51.91"/>
		</g>
	</g>
	<g>
		<g>
			<path class="st0" d="M116.443,185.864H78.028c-0.828,0-1.5,0.671-1.5,1.5v51.91c0,0.829,0.672,1.5,1.5,1.5h38.415
				c0.828,0,1.5-0.671,1.5-1.5v-51.91C117.943,186.535,117.271,185.864,116.443,185.864z M114.943,237.774H79.528v-48.91h35.415
				V237.774z"/>
		</g>
	</g>
	<g>
		<g>
			<rect x="139.557" y="162.081" class="st2" width="38.415" height="77.193"/>
		</g>
	</g>
	<g>
		<g>
			<path class="st0" d="M177.972,192.358c0.828,0,1.5-0.671,1.5-1.5v-28.777c0-0.829-0.672-1.5-1.5-1.5h-38.415
				c-0.828,0-1.5,0.671-1.5,1.5v77.193c0,0.829,0.672,1.5,1.5,1.5h38.415c0.828,0,1.5-0.671,1.5-1.5v-34.191
				c0-0.829-0.672-1.5-1.5-1.5s-1.5,0.671-1.5,1.5v32.691h-35.415v-74.193h35.415v27.277
				C176.472,191.687,177.144,192.358,177.972,192.358z"/>
		</g>
	</g>
	<g>
		<g>
			<rect x="201.085" y="136.799" class="st4" width="38.415" height="102.475"/>
		</g>
	</g>
	<g>
		<g>
			<path class="st0" d="M239.5,135.299h-38.415c-0.828,0-1.5,0.671-1.5,1.5v102.475c0,0.829,0.672,1.5,1.5,1.5H239.5
				c0.828,0,1.5-0.671,1.5-1.5V136.799C241,135.97,240.328,135.299,239.5,135.299z M238,237.774h-35.415v-99.475H238V237.774z"/>
		</g>
	</g>
	<g>
		<g>
			<path class="st1" d="M234.782,77.089l-36.11-11.729c-3.424-1.114-7.097,0.762-8.21,4.184c-1.111,3.422,0.762,7.097,4.184,8.209
				l21.084,6.849L58.172,165.281l-12.269,6.283l-25.738,13.179c-3.203,1.64-4.469,5.566-2.829,8.768
				c1.153,2.252,3.436,3.547,5.803,3.547c0.999,0,2.014-0.231,2.965-0.718L221.737,96.164l-6.893,21.22
				c-1.111,3.422,0.762,7.097,4.184,8.208c0.669,0.218,1.348,0.321,2.014,0.321c2.746,0,5.301-1.75,6.196-4.504l11.729-36.11
				C240.077,81.876,238.204,78.201,234.782,77.089z"/>
		</g>
	</g>
	<g>
		<g>
			<path class="st0" d="M235.246,75.663l-36.109-11.729c-2.037-0.663-4.209-0.492-6.117,0.481c-1.907,0.972-3.321,2.629-3.983,4.666
				c-1.364,4.203,0.945,8.733,5.146,10.099l17.649,5.732L57.488,163.947c-0.737,0.377-1.029,1.281-0.651,2.019
				c0.378,0.738,1.282,1.029,2.019,0.651l157.559-80.681c0.54-0.276,0.859-0.85,0.812-1.454c-0.048-0.604-0.455-1.12-1.032-1.308
				l-21.083-6.848c-2.63-0.854-4.074-3.689-3.221-6.318c0.414-1.275,1.3-2.312,2.492-2.92c1.193-0.608,2.552-0.715,3.827-0.3
				l36.11,11.729c1.273,0.414,2.31,1.299,2.918,2.492s0.716,2.552,0.302,3.826l-11.729,36.11c-0.674,2.074-2.591,3.467-4.77,3.468
				c-0.524,0-1.046-0.083-1.551-0.248c-1.273-0.414-2.31-1.299-2.918-2.492s-0.716-2.552-0.302-3.826l6.893-21.22
				c0.188-0.578,0.009-1.211-0.454-1.605s-1.118-0.47-1.656-0.193L25.422,195.006c-0.717,0.367-1.484,0.553-2.281,0.553
				c-1.894,0-3.606-1.046-4.469-2.731c-0.61-1.192-0.721-2.55-0.31-3.825c0.411-1.275,1.295-2.313,2.486-2.924l25.738-13.179
				c0.737-0.377,1.029-1.281,0.651-2.019c-0.378-0.738-1.282-1.03-2.019-0.651l-25.738,13.179
				c-3.934,2.015-5.494,6.854-3.479,10.787c1.377,2.692,4.112,4.364,7.139,4.364c1.259,0,2.521-0.305,3.648-0.883l192.398-98.522
				l-5.771,17.766c-0.661,2.036-0.49,4.208,0.482,6.115c0.972,1.907,2.629,3.322,4.664,3.983c0.804,0.262,1.638,0.395,2.478,0.395
				c3.483,0,6.546-2.228,7.623-5.541l11.729-36.11C241.758,81.558,239.448,77.028,235.246,75.663z"/>
		</g>
	</g>
	<g>
		<g>
			<path class="st4" d="M44.48,31.75c-1.347-5.177-0.903-10.408,0.964-15.024c-8.78,4.958-13.492,15.373-10.825,25.589
				c1.135,4.363,3.467,8.103,6.551,10.962c0.745,0.691,1.539,1.333,2.373,1.915c0.021-0.027,0.048-0.055,0.068-0.075
				c3.597-3.857,8.432-6.243,14.066-7.625C51.373,44.599,46.368,38.992,44.48,31.75z"/>
		</g>
	</g>
	<g>
		<g>
			<path class="st0" d="M58.304,46.128c-6.153-2.823-10.663-8.202-12.371-14.756c-1.227-4.718-0.915-9.588,0.902-14.084
				c0.239-0.591,0.078-1.269-0.401-1.69s-1.172-0.49-1.727-0.179c-9.574,5.406-14.319,16.622-11.539,27.273
				c1.169,4.493,3.584,8.534,6.983,11.684c0.805,0.746,1.657,1.435,2.535,2.046c0.261,0.182,0.56,0.269,0.857,0.269
				c0.457,0,0.907-0.208,1.201-0.6c-0.039,0.052-0.037,0.051-0.035,0.047c3.192-3.423,7.552-5.775,13.327-7.19
				c0.619-0.152,1.075-0.68,1.136-1.315C59.232,46.999,58.884,46.395,58.304,46.128z M43.387,53.205
				c-0.409-0.325-0.809-0.669-1.196-1.028c-2.979-2.761-5.095-6.301-6.12-10.241c-2.075-7.954,0.635-16.266,6.671-21.483
				c-0.811,3.832-0.721,7.799,0.288,11.675c1.62,6.217,5.464,11.501,10.764,14.935C49.578,48.508,46.142,50.539,43.387,53.205z"/>
		</g>
	</g>
	<g>
		<g>
			<path class="st5" d="M41.171,53.277c-0.575-0.403-1.176-0.78-1.792-1.142c-9.095-5.327-20.269-3.166-22.348,0.376
				c-1.963,3.351,1.497,14.347,10.593,19.681c3.05,1.785,6.202,2.954,9.17,3.515c0.007-2.516,0.198-4.828,0.547-6.955
				c0.499-3.029,1.327-5.689,2.441-8.008c1.026-2.12,2.284-3.959,3.761-5.553c0.021-0.027,0.048-0.055,0.068-0.075
				C42.853,54.474,42.032,53.858,41.171,53.277z"/>
		</g>
	</g>
	<g>
		<g>
			<path class="st0" d="M44.581,53.971c-0.787-0.666-1.652-1.317-2.548-1.921c-0.548-0.385-1.167-0.78-1.897-1.209
				c-5.854-3.429-11.71-3.565-14.676-3.339c-4.666,0.353-8.392,1.982-9.724,4.252c-2.558,4.366,1.498,16.084,11.129,21.733
				c3.09,1.808,6.426,3.085,9.649,3.694c0.093,0.017,0.186,0.026,0.278,0.026c0.346,0,0.685-0.12,0.956-0.344
				c0.343-0.284,0.543-0.707,0.544-1.152c0.007-2.361,0.184-4.621,0.526-6.714c0.466-2.819,1.244-5.376,2.313-7.598
				c0.94-1.944,2.122-3.688,3.511-5.187c0.017-0.017,0.032-0.035,0.047-0.053c0.288-0.297,0.44-0.7,0.42-1.114
				C45.091,54.629,44.899,54.24,44.581,53.971z M38.431,60.095c-1.193,2.482-2.059,5.313-2.57,8.415
				c-0.276,1.69-0.453,3.475-0.527,5.326c-2.34-0.627-4.712-1.627-6.95-2.937c-8.443-4.952-11.498-15.167-10.058-17.627
				c0.844-1.438,4.501-2.817,9.08-2.817c3.481,0,7.496,0.798,11.213,2.974c0.656,0.387,1.209,0.739,1.714,1.093
				c0.386,0.26,0.76,0.525,1.12,0.795C40.285,56.754,39.272,58.355,38.431,60.095z"/>
		</g>
	</g>
	<g>
		<g>
			<path class="st4" d="M36.227,58.071c-4.739-2.776-10.182-2.298-11.051-0.807c-0.827,1.416,1.361,6.476,6.1,9.252
				c2.092,1.224,4.219,1.976,6.066,2.236c0.499-3.029,1.327-5.689,2.441-8.008C38.798,59.794,37.594,58.871,36.227,58.071z"/>
		</g>
	</g>
	<g>
		<g>
			<path class="st0" d="M40.824,59.666c-1.122-1.083-2.414-2.056-3.84-2.889c-3.815-2.235-8.065-2.57-10.58-1.908
				c-1.229,0.322-2.079,0.875-2.523,1.638c-1.423,2.435,1.416,8.245,6.637,11.304c2.203,1.288,4.49,2.127,6.614,2.426
				c0.07,0.01,0.142,0.015,0.211,0.015c0.723,0,1.357-0.522,1.477-1.256c0.466-2.819,1.244-5.376,2.314-7.602
				C41.414,60.812,41.289,60.115,40.824,59.666z M36.146,66.977c-1.339-0.359-2.758-0.962-4.112-1.755
				c-3.974-2.328-5.623-6.148-5.536-7.199c0.828-0.577,4.997-0.985,8.972,1.343c0.887,0.519,1.734,1.116,2.493,1.757
				C37.193,62.919,36.585,64.879,36.146,66.977z"/>
		</g>
	</g>
	<g>
		<g>
			<path class="st4" d="M101.409,16.726c1.867,4.616,2.311,9.847,0.964,15.024c-1.887,7.242-6.893,12.849-13.198,15.742
				c5.635,1.381,10.469,3.768,14.066,7.625c0.021,0.021,0.048,0.048,0.068,0.075c0.834-0.581,1.628-1.224,2.373-1.915
				c3.084-2.858,5.416-6.599,6.551-10.962C114.901,32.099,110.19,21.684,101.409,16.726z"/>
		</g>
	</g>
	<g>
		<g>
			<path class="st0" d="M102.146,15.42c-0.555-0.312-1.247-0.243-1.727,0.179c-0.479,0.42-0.641,1.098-0.401,1.689
				c1.818,4.496,2.131,9.366,0.904,14.083c-1.709,6.555-6.219,11.933-12.373,14.757c-0.579,0.266-0.928,0.87-0.867,1.505
				c0.061,0.635,0.517,1.163,1.136,1.315c5.757,1.411,10.106,3.752,13.337,7.2c0.293,0.355,0.722,0.543,1.156,0.543
				c0.297,0,0.596-0.087,0.857-0.27c0.88-0.614,1.732-1.302,2.534-2.045c3.399-3.151,5.815-7.191,6.983-11.685
				C116.466,32.041,111.721,20.826,102.146,15.42z M110.783,41.936c0,0,0,0.001-0.001,0.001c-1.023,3.938-3.14,7.479-6.118,10.239
				c-0.387,0.359-0.787,0.703-1.197,1.028c-2.765-2.671-6.197-4.699-10.405-6.142c5.299-3.434,9.144-8.718,10.765-14.936
				c1.008-3.875,1.099-7.842,0.287-11.673C110.149,25.67,112.859,33.982,110.783,41.936z"/>
		</g>
	</g>
	<g>
		<g>
			<path class="st5" d="M129.823,52.511c-2.079-3.542-13.253-5.703-22.348-0.376c-0.615,0.362-1.217,0.739-1.792,1.142
				c-0.862,0.581-1.682,1.197-2.441,1.84c0.021,0.021,0.048,0.048,0.068,0.075c1.477,1.593,2.735,3.433,3.761,5.553
				c1.115,2.318,1.942,4.978,2.441,8.008c0.349,2.127,0.54,4.438,0.547,6.955c2.968-0.561,6.12-1.73,9.17-3.515
				C128.325,66.858,131.785,55.862,129.823,52.511z"/>
		</g>
	</g>
	<g>
		<g>
			<path class="st0" d="M131.116,51.752c-1.331-2.269-5.057-3.898-9.723-4.251c-2.971-0.226-8.821-0.09-14.68,3.341
				c-0.723,0.425-1.341,0.82-1.868,1.19c-0.921,0.62-1.786,1.272-2.573,1.939c-0.316,0.269-0.498,0.667-0.519,1.082
				c-0.019,0.401,0.132,0.803,0.404,1.099c0.017,0.02,0.034,0.04,0.052,0.06c1.392,1.501,2.572,3.246,3.51,5.184
				c1.07,2.225,1.849,4.782,2.313,7.6c0.344,2.095,0.521,4.354,0.527,6.716c0.001,0.446,0.201,0.868,0.544,1.152
				c0.272,0.224,0.61,0.344,0.956,0.344c0.093,0,0.185-0.009,0.278-0.026c3.225-0.609,6.562-1.887,9.65-3.694l0.001,0
				C129.62,67.837,133.675,56.119,131.116,51.752z M118.472,70.898c-2.238,1.31-4.611,2.31-6.951,2.937
				c-0.074-1.851-0.251-3.636-0.527-5.327c-0.511-3.101-1.376-5.932-2.571-8.417c-0.839-1.734-1.852-3.335-3.021-4.776
				c0.365-0.272,0.747-0.543,1.145-0.811c0.484-0.341,1.038-0.693,1.686-1.075c8.606-5.042,18.811-2.69,20.296-0.16
				C129.97,55.73,126.915,65.946,118.472,70.898z"/>
		</g>
	</g>
	<g>
		<g>
			<path class="st4" d="M121.678,57.264c-0.868-1.491-6.312-1.969-11.051,0.807c-1.368,0.8-2.571,1.723-3.556,2.674
				c1.115,2.318,1.942,4.978,2.441,8.008c1.846-0.26,3.973-1.012,6.066-2.236C120.318,63.74,122.506,58.679,121.678,57.264z"/>
		</g>
	</g>
	<g>
		<g>
			<path class="st0" d="M122.975,56.508c-0.446-0.766-1.297-1.318-2.526-1.64c-2.515-0.659-6.765-0.326-10.577,1.908
				c-1.426,0.833-2.718,1.805-3.841,2.889c-0.466,0.449-0.591,1.147-0.311,1.73c1.07,2.225,1.849,4.782,2.313,7.601
				c0.121,0.733,0.756,1.256,1.479,1.256c0.069,0,0.141-0.005,0.211-0.015c2.125-0.299,4.412-1.138,6.614-2.427
				C121.557,64.752,124.396,58.942,122.975,56.508z M114.82,65.222c-1.356,0.793-2.774,1.396-4.113,1.755
				c-0.438-2.098-1.046-4.058-1.816-5.854c0.761-0.641,1.608-1.239,2.496-1.758c4.043-2.369,8.284-1.905,8.967-1.371
				C120.474,59.002,118.831,62.872,114.82,65.222z"/>
		</g>
	</g>
	<g>
		<g>
			<path class="st5" d="M73.427,45.871c-20.23,0-36.63,5.764-36.63,30.035s16.4,62.283,36.63,62.283
				c20.23,0,36.63-38.012,36.63-62.283S93.657,45.871,73.427,45.871z"/>
		</g>
	</g>
	<g>
		<g>
			<path class="st0" d="M73.427,44.371c-16.368,0-38.13,3.269-38.13,31.535c0,25.188,17.082,63.783,38.13,63.783
				c21.048,0,38.131-38.595,38.131-63.783C111.558,47.64,89.796,44.371,73.427,44.371z M73.427,136.688
				c-19.053,0-35.13-37.334-35.13-60.783c0-19.734,10.834-28.535,35.13-28.535s35.131,8.8,35.131,28.535
				C108.558,99.354,92.48,136.688,73.427,136.688z"/>
		</g>
	</g>
	<g>
		<g>
			<path class="st0" d="M60.733,78.613c-1.938,0-3.509,1.571-3.509,3.509c0,1.938,1.571,3.509,3.509,3.509
				c1.938,0,3.509-1.571,3.509-3.509C64.242,80.185,62.671,78.613,60.733,78.613z"/>
		</g>
	</g>
	<g>
		<g>
			<path class="st0" d="M86.121,78.613c-1.938,0-3.509,1.571-3.509,3.509c0,1.938,1.571,3.509,3.509,3.509
				c1.938,0,3.509-1.571,3.509-3.509C89.631,80.185,88.059,78.613,86.121,78.613z"/>
		</g>
	</g>
	<g>
		<g>
			<path class="st19" d="M53.719,88.037c-3.339,0-6.045,2.023-6.045,4.519c0,2.496,2.707,4.519,6.045,4.519
				c3.339,0,6.045-2.023,6.045-4.519C59.765,90.06,57.058,88.037,53.719,88.037z"/>
		</g>
	</g>
	<g>
		<g>
			<path class="st19" d="M93.135,88.037c-3.339,0-6.045,2.023-6.045,4.519c0,2.496,2.707,4.519,6.045,4.519
				c3.339,0,6.045-2.023,6.045-4.519C99.18,90.06,96.474,88.037,93.135,88.037z"/>
		</g>
	</g>
	<g>
		<g>
			<ellipse class="st5" cx="73.427" cy="126.756" rx="21.712" ry="11.476"/>
		</g>
	</g>
	<g>
		<g>
			<path class="st0" d="M73.427,113.78c-13.016,0-23.211,5.7-23.211,12.977s10.195,12.976,23.211,12.976
				c13.016,0,23.212-5.7,23.212-12.976S86.442,113.78,73.427,113.78z M73.427,136.732c-10.955,0-20.211-4.568-20.211-9.976
				s9.256-9.977,20.211-9.977c10.956,0,20.212,4.569,20.212,9.977S84.383,136.732,73.427,136.732z"/>
		</g>
	</g>
	<g>
		<g>
			<path class="st0" d="M67.229,123.746c-1.938,0-3.509,1.571-3.509,3.509c0,1.938,1.571,3.51,3.509,3.51
				c1.938,0,3.509-1.571,3.509-3.51C70.739,125.318,69.168,123.746,67.229,123.746z"/>
		</g>
	</g>
	<g>
		<g>
			<path class="st0" d="M79.625,123.746c-1.938,0-3.509,1.571-3.509,3.509c0,1.938,1.571,3.51,3.509,3.51
				c1.938,0,3.51-1.571,3.51-3.51C83.134,125.318,81.563,123.746,79.625,123.746z"/>
		</g>
	</g>
	<g>
		<g>
			<rect x="222" y="138.301" class="st14" width="16" height="99.47"/>
		</g>
	</g>
</g>
</svg>
