<?xml version="1.0" encoding="utf-8"?>
<!-- Generator: Adobe Illustrator 22.0.1, SVG Export Plug-In . SVG Version: 6.00 Build 0)  -->
<svg version="1.1" id="Layer_1" xmlns="http://www.w3.org/2000/svg" xmlns:xlink="http://www.w3.org/1999/xlink" x="0px" y="0px"
	 viewBox="0 0 256 256" style="enable-background:new 0 0 256 256;" xml:space="preserve">
<style type="text/css">
	.st0{fill:#3A312A;}
	.st1{fill:#8AC6DD;}
	.st2{fill:#F16C7A;}
	.st3{fill:#D7E057;}
	.st4{fill:#87796F;}
	.st5{fill:#FCE8CB;}
	.st6{fill:#DECAAD;}
	.st7{fill:#D6DF58;}
	.st8{fill:#FAE6CA;}
	.st9{fill:#DDC9AC;}
	.st10{fill:#D5DE58;}
	.st11{fill:#ED6E7A;}
	.st12{fill:#8AC5DC;}
	.st13{fill:#6CA8BF;}
	.st14{fill:#695B51;}
	.st15{fill:#F8E4C8;}
	.st16{fill:#EF6D7A;}
	.st17{fill-rule:evenodd;clip-rule:evenodd;fill:#F8E4C8;}
	.st18{fill:#89C4DB;}
	.st19{fill:#F59689;}
	.st20{fill:#D34E5C;}
	.st21{fill:#F7E3C7;}
	.st22{fill:#8AC3DA;}
	.st23{fill-rule:evenodd;clip-rule:evenodd;fill:#F7E3C7;}
	.st24{fill-rule:evenodd;clip-rule:evenodd;fill:#87796F;}
	.st25{fill:#B9C239;}
	.st26{fill:#D4DB56;}
	.st27{fill-rule:evenodd;clip-rule:evenodd;fill:#F16C7A;}
	.st28{fill-rule:evenodd;clip-rule:evenodd;fill:#F6E2C6;}
	.st29{fill:#F6E2C6;}
	.st30{fill-rule:evenodd;clip-rule:evenodd;fill:#FAE6CA;}
	.st31{fill:#B8C136;}
</style>
<g>
	<g>
		<g>
			
				<ellipse transform="matrix(0.9871 -0.1602 0.1602 0.9871 -33.7435 23.6212)" class="st4" cx="129.641" cy="221.107" rx="18.375" ry="18.375"/>
		</g>
	</g>
	<g>
		<g>
			<path class="st0" d="M129.641,201.232c-10.959,0-19.875,8.916-19.875,19.875s8.916,19.875,19.875,19.875
				s19.875-8.916,19.875-19.875S140.6,201.232,129.641,201.232z M129.641,237.982c-9.305,0-16.875-7.57-16.875-16.875
				s7.57-16.875,16.875-16.875s16.875,7.57,16.875,16.875S138.945,237.982,129.641,237.982z"/>
		</g>
	</g>
	<g>
		<g>
			<path class="st5" d="M129.641,213.59c-4.151,0-7.517,3.366-7.517,7.517c0,4.152,3.365,7.517,7.517,7.517s7.517-3.366,7.517-7.517
				C137.158,216.956,133.792,213.59,129.641,213.59z"/>
		</g>
	</g>
	<g>
		<g>
			<path class="st0" d="M129.641,212.09c-4.972,0-9.017,4.045-9.017,9.017c0,4.972,4.045,9.017,9.017,9.017s9.017-4.045,9.017-9.017
				C138.658,216.135,134.613,212.09,129.641,212.09z M129.641,227.125c-3.318,0-6.017-2.699-6.017-6.017
				c0-3.318,2.699-6.017,6.017-6.017s6.017,2.699,6.017,6.017C135.658,224.425,132.958,227.125,129.641,227.125z"/>
		</g>
	</g>
	<g>
		<g>
			<circle class="st4" cx="198.871" cy="221.107" r="18.375"/>
		</g>
	</g>
	<g>
		<g>
			<path class="st0" d="M198.871,201.232c-10.959,0-19.875,8.916-19.875,19.875s8.916,19.875,19.875,19.875
				s19.875-8.916,19.875-19.875S209.83,201.232,198.871,201.232z M198.871,237.982c-9.305,0-16.875-7.57-16.875-16.875
				s7.57-16.875,16.875-16.875s16.875,7.57,16.875,16.875S208.176,237.982,198.871,237.982z"/>
		</g>
	</g>
	<g>
		<g>
			<path class="st5" d="M198.871,213.59c-4.151,0-7.517,3.366-7.517,7.517c0,4.152,3.365,7.517,7.517,7.517
				c4.152,0,7.517-3.366,7.517-7.517C206.388,216.956,203.023,213.59,198.871,213.59z"/>
		</g>
	</g>
	<g>
		<g>
			<path class="st0" d="M198.871,212.09c-4.972,0-9.017,4.045-9.017,9.017c0,4.972,4.045,9.017,9.017,9.017
				c4.972,0,9.017-4.045,9.017-9.017C207.888,216.135,203.843,212.09,198.871,212.09z M198.871,227.125
				c-3.318,0-6.017-2.699-6.017-6.017c0-3.318,2.699-6.017,6.017-6.017c3.318,0,6.017,2.699,6.017,6.017
				C204.888,224.425,202.189,227.125,198.871,227.125z"/>
		</g>
	</g>
	<g>
		<g>
			<path class="st1" d="M235.986,73.732H77.896l25.01,98.95h105.33c2.922,0,5.511-1.882,6.414-4.661L242.4,82.558
				C243.814,78.202,240.567,73.732,235.986,73.732z"/>
		</g>
	</g>
	<g>
		<g>
			<path class="st0" d="M242.655,75.63c-1.569-2.159-4-3.398-6.669-3.398H77.896c-0.462,0-0.899,0.213-1.184,0.579
				c-0.284,0.365-0.384,0.84-0.271,1.289l25.01,98.95c0.168,0.666,0.767,1.132,1.454,1.132h58.657c0.829,0,1.5-0.671,1.5-1.5
				s-0.671-1.5-1.5-1.5h-57.489l-24.252-95.95h156.164c1.698,0,3.244,0.788,4.242,2.161c0.998,1.373,1.27,3.087,0.745,4.701
				l-27.751,85.464c-0.704,2.168-2.708,3.624-4.987,3.624h-31.769c-0.829,0-1.5,0.671-1.5,1.5s0.671,1.5,1.5,1.5h31.769
				c3.583,0,6.734-2.289,7.84-5.697l27.751-85.464C244.651,80.483,244.224,77.789,242.655,75.63z"/>
		</g>
	</g>
	<g>
		<g>
			<path class="st4" d="M219.015,188.23H106.831L66.521,28.743c-0.813-3.219-3.71-5.475-7.03-5.475H20.517
				c-4.005,0-7.251,3.247-7.251,7.251c0,4.004,3.246,7.251,7.251,7.251h33.328l5.531,21.885l3.836,15.175l30.943,122.427
				c0.813,3.219,3.71,5.475,7.03,5.475h117.83c4.005,0,7.251-3.247,7.251-7.251C226.266,191.477,223.019,188.23,219.015,188.23z"/>
		</g>
	</g>
	<g>
		<g>
			<path class="st0" d="M219.015,186.73H107.999L67.975,28.375c-0.983-3.89-4.472-6.607-8.484-6.607H20.517
				c-4.825,0-8.751,3.926-8.751,8.751s3.926,8.751,8.751,8.751h32.16l5.245,20.752c0.203,0.803,1.018,1.29,1.822,1.087
				c0.803-0.203,1.289-1.019,1.086-1.822l-5.531-21.885c-0.168-0.666-0.767-1.132-1.454-1.132H20.517
				c-3.171,0-5.751-2.58-5.751-5.751s2.58-5.751,5.751-5.751h38.975c2.637,0,4.93,1.786,5.576,4.342l40.31,159.487
				c0.168,0.666,0.767,1.132,1.454,1.132h112.183c3.171,0,5.751,2.58,5.751,5.751c0,3.171-2.58,5.751-5.751,5.751h-117.83
				c-2.637,0-4.929-1.786-5.575-4.342L64.666,74.463c-0.203-0.803-1.016-1.29-1.822-1.086c-0.803,0.203-1.29,1.018-1.086,1.822
				l30.943,122.427c0.983,3.891,4.471,6.607,8.484,6.607h117.83c4.825,0,8.751-3.926,8.751-8.751
				C227.766,190.656,223.84,186.73,219.015,186.73z"/>
		</g>
	</g>
	<g>
		<g>
			<path class="st3" d="M48.623,145.952c-0.974,11.564-13.025,13.39-13.025,13.39c10.347,0.487,12.925,14.059,12.925,14.059
				c0.221-9.677,13.321-14.202,13.321-14.202C52.031,158.611,48.623,145.952,48.623,145.952z"/>
		</g>
	</g>
	<g>
		<g>
			<path class="st0" d="M61.935,157.701c-8.605-0.515-11.833-12.024-11.864-12.141c-0.191-0.703-0.859-1.162-1.583-1.102
				c-0.725,0.066-1.298,0.642-1.359,1.367c-0.86,10.215-11.313,11.964-11.754,12.033c-0.763,0.115-1.313,0.79-1.273,1.561
				c0.04,0.77,0.657,1.384,1.428,1.421c9.028,0.425,11.499,12.718,11.523,12.842c0.137,0.711,0.759,1.217,1.472,1.217
				c0.042,0,0.084-0.001,0.126-0.005c0.764-0.064,1.357-0.693,1.375-1.459c0.195-8.509,12.192-12.777,12.313-12.819
				c0.675-0.235,1.092-0.914,0.994-1.622C63.232,158.285,62.649,157.744,61.935,157.701z M48.369,168.047
				c-1.357-3.13-3.709-6.907-7.587-8.877c2.931-1.405,6.409-3.913,8.202-8.273c1.551,3.071,4.199,6.88,8.334,8.723
				C54.31,161.26,50.395,164.026,48.369,168.047z"/>
		</g>
	</g>
	<g>
		<g>
			<path class="st3" d="M26.925,162.933c-0.689,8.179-9.213,9.47-9.213,9.47c7.318,0.344,9.142,9.944,9.142,9.944
				c0.156-6.844,9.422-10.045,9.422-10.045C29.335,171.887,26.925,162.933,26.925,162.933z"/>
		</g>
	</g>
	<g>
		<g>
			<path class="st0" d="M36.366,170.805c-5.766-0.345-7.972-8.186-7.994-8.265c-0.19-0.702-0.855-1.163-1.582-1.101
				c-0.726,0.065-1.299,0.642-1.36,1.368c-0.579,6.871-7.647,8.067-7.943,8.114c-0.763,0.115-1.313,0.79-1.273,1.561
				c0.04,0.77,0.657,1.384,1.428,1.421c6.035,0.284,7.724,8.644,7.739,8.726c0.135,0.713,0.759,1.22,1.473,1.22
				c0.041,0,0.083-0.002,0.125-0.005c0.765-0.064,1.358-0.694,1.376-1.461c0.13-5.709,8.331-8.634,8.412-8.662
				c0.676-0.234,1.094-0.913,0.996-1.622C37.665,171.389,37.081,170.848,36.366,170.805z M26.782,177.6
				c-0.924-1.885-2.34-3.947-4.447-5.28c1.855-1.041,3.697-2.63,4.871-4.917c1.057,1.874,2.654,3.955,4.941,5.224
				C30.296,173.728,28.158,175.367,26.782,177.6z"/>
		</g>
	</g>
	<g>
		<g>
			<path class="st3" d="M26.925,136.275c-0.689,8.179-9.213,9.471-9.213,9.471c7.318,0.344,9.142,9.944,9.142,9.944
				c0.156-6.845,9.422-10.045,9.422-10.045C29.335,145.229,26.925,136.275,26.925,136.275z"/>
		</g>
	</g>
	<g>
		<g>
			<path class="st0" d="M36.366,144.147c-5.766-0.345-7.972-8.186-7.994-8.265c-0.19-0.702-0.855-1.164-1.582-1.102
				c-0.726,0.065-1.299,0.642-1.36,1.368c-0.579,6.871-7.647,8.067-7.943,8.114c-0.763,0.115-1.313,0.79-1.273,1.561
				c0.04,0.77,0.657,1.384,1.427,1.421c6.036,0.284,7.724,8.644,7.74,8.726c0.135,0.712,0.759,1.22,1.473,1.22
				c0.041,0,0.083-0.001,0.125-0.005c0.765-0.063,1.358-0.694,1.376-1.461c0.13-5.709,8.331-8.634,8.412-8.662
				c0.677-0.234,1.094-0.913,0.996-1.622C37.665,144.731,37.081,144.19,36.366,144.147z M26.782,150.942
				c-0.924-1.886-2.34-3.947-4.447-5.28c1.855-1.042,3.697-2.63,4.871-4.917c1.057,1.874,2.655,3.954,4.941,5.224
				C30.297,147.07,28.158,148.71,26.782,150.942z"/>
		</g>
	</g>
	<g>
		<g>
			<path class="st13" d="M240.226,77.392c-1-1.37-2.54-2.16-4.24-2.16h-15c1.7,0,3.24,0.79,4.24,2.16s1.27,3.09,0.75,4.7
				l-27.75,85.47c-0.71,2.16-2.71,3.62-4.99,3.62h15c2.28,0,4.28-1.46,4.99-3.62l27.75-85.47
				C241.496,80.482,241.226,78.762,240.226,77.392z"/>
		</g>
	</g>
	<g>
		<g>
			<path class="st14" d="M219.016,189.732h-15c3.17,0,5.75,2.58,5.75,5.75c0,3.17-2.58,5.75-5.75,5.75h15
				c3.17,0,5.75-2.58,5.75-5.75C224.766,192.312,222.186,189.732,219.016,189.732z"/>
		</g>
	</g>
	<g>
		<g>
			<circle class="st3" cx="160.638" cy="75.14" r="58.622"/>
		</g>
	</g>
	<g>
		<g>
			<path class="st0" d="M160.639,15.018c-33.152,0-60.123,26.971-60.123,60.122c0,33.151,26.971,60.122,60.123,60.122
				c33.151,0,60.122-26.971,60.122-60.122C220.761,41.988,193.79,15.018,160.639,15.018z M160.639,132.262
				c-31.498,0-57.123-25.625-57.123-57.122c0-31.497,25.625-57.122,57.123-57.122c31.497,0,57.122,25.625,57.122,57.122
				C217.761,106.637,192.136,132.262,160.639,132.262z"/>
		</g>
	</g>
	<g>
		<g>
			<path class="st4" d="M167.608,68.511c-8.538-3.213-12.054-5.323-12.054-8.638c0-2.811,2.109-5.625,8.639-5.625
				c7.231,0,11.852,2.309,14.463,3.415l2.913-11.349c-3.315-1.608-7.835-3.016-14.564-3.315v-8.84h-9.844v9.541
				c-10.747,2.109-16.975,9.04-16.975,17.88c0,9.744,7.332,14.766,18.08,18.381c7.433,2.511,10.647,4.923,10.647,8.738
				c0,4.019-3.918,6.228-9.642,6.228c-6.529,0-12.455-2.109-16.674-4.419l-3.013,11.751c3.817,2.209,10.345,4.017,17.075,4.319
				v9.542h9.844v-10.245c11.551-2.007,17.88-9.641,17.88-18.581C184.382,78.254,179.56,72.73,167.608,68.511z"/>
		</g>
	</g>
	<g>
		<g>
			<path class="st0" d="M168.137,67.107c-8.183-3.079-11.083-4.972-11.083-7.234c0-3.589,4.473-4.124,7.139-4.124
				c6.287,0,10.408,1.791,13.134,2.976l0.744,0.321c0.402,0.169,0.859,0.156,1.25-0.037c0.392-0.193,0.679-0.548,0.788-0.971
				l2.914-11.349c0.177-0.691-0.157-1.412-0.799-1.723c-3.915-1.898-8.415-3.009-13.719-3.382V34.16c0-0.829-0.671-1.5-1.5-1.5
				h-9.844c-0.829,0-1.5,0.671-1.5,1.5v8.331c-10.505,2.484-16.975,9.711-16.975,19.09c0,11.858,10.208,16.812,19.1,19.802
				c7.99,2.7,9.627,4.878,9.627,7.317c0,4.388-6.232,4.729-8.142,4.729c-7.15,0-13.065-2.653-15.954-4.235
				c-0.406-0.223-0.893-0.245-1.317-0.06c-0.425,0.185-0.741,0.555-0.856,1.003l-3.013,11.751c-0.167,0.651,0.12,1.334,0.702,1.671
				c3.991,2.31,10.141,3.968,16.326,4.433v8.129c0,0.829,0.671,1.5,1.5,1.5h9.844c0.829,0,1.5-0.671,1.5-1.5v-9.009
				c10.906-2.349,17.879-10.018,17.879-19.817C185.882,77.534,180.566,71.494,168.137,67.107z M166.246,104.397
				c-0.719,0.125-1.243,0.749-1.243,1.478v8.746h-6.844v-8.042c0-0.802-0.631-1.462-1.433-1.498
				c-5.61-0.252-11.493-1.636-15.397-3.586l2.255-8.794c3.479,1.674,9.091,3.727,15.688,3.727c6.872,0,11.142-2.961,11.142-7.729
				c0-5.16-4.664-7.793-11.669-10.16c-11.956-4.021-17.058-9.093-17.058-16.959c0-8.337,5.893-14.471,15.764-16.408
				c0.704-0.138,1.211-0.755,1.211-1.472V35.66h6.844v7.339c0,0.802,0.631,1.463,1.433,1.499c5.001,0.223,9.224,1.094,12.866,2.659
				l-2.165,8.435c-2.837-1.206-7.223-2.843-13.447-2.843c-9.408,0-10.139,5.453-10.139,7.124c0,4.371,4.2,6.721,13.055,10.052
				c11.203,3.955,15.773,8.986,15.773,17.369C182.882,96.06,176.507,102.614,166.246,104.397z"/>
		</g>
	</g>
</g>
</svg>
