<?xml version="1.0" encoding="utf-8"?>
<!-- Generator: Adobe Illustrator 22.0.1, SVG Export Plug-In . SVG Version: 6.00 Build 0)  -->
<svg version="1.1" id="Layer_1" xmlns="http://www.w3.org/2000/svg" xmlns:xlink="http://www.w3.org/1999/xlink" x="0px" y="0px"
	 viewBox="0 0 256 256" style="enable-background:new 0 0 256 256;" xml:space="preserve">
<style type="text/css">
	.st0{fill:#3A312A;}
	.st1{fill:#8AC6DD;}
	.st2{fill:#F16C7A;}
	.st3{fill:#D7E057;}
	.st4{fill:#87796F;}
	.st5{fill:#FCE8CB;}
	.st6{fill:#DECAAD;}
	.st7{fill:#D6DF58;}
	.st8{fill:#FAE6CA;}
	.st9{fill:#DDC9AC;}
	.st10{fill:#D5DE58;}
	.st11{fill:#ED6E7A;}
	.st12{fill:#8AC5DC;}
	.st13{fill:#6CA8BF;}
	.st14{fill:#695B51;}
	.st15{fill:#F8E4C8;}
	.st16{fill:#EF6D7A;}
	.st17{fill-rule:evenodd;clip-rule:evenodd;fill:#F8E4C8;}
	.st18{fill:#89C4DB;}
	.st19{fill:#F59689;}
	.st20{fill:#D34E5C;}
	.st21{fill:#F7E3C7;}
	.st22{fill:#8AC3DA;}
	.st23{fill-rule:evenodd;clip-rule:evenodd;fill:#F7E3C7;}
	.st24{fill-rule:evenodd;clip-rule:evenodd;fill:#87796F;}
	.st25{fill:#B9C239;}
	.st26{fill:#D4DB56;}
	.st27{fill-rule:evenodd;clip-rule:evenodd;fill:#F16C7A;}
	.st28{fill-rule:evenodd;clip-rule:evenodd;fill:#F6E2C6;}
	.st29{fill:#F6E2C6;}
	.st30{fill-rule:evenodd;clip-rule:evenodd;fill:#FAE6CA;}
	.st31{fill:#B8C136;}
</style>
<g>
	<g>
		<g>
			<path class="st4" d="M151.508,117.352l7.986-21.828h-0.017c0.309-0.997,0.475-2.056,0.475-3.154
				c0-5.882-4.769-10.651-10.651-10.651s-10.651,4.769-10.651,10.651c0-5.882-4.769-10.651-10.651-10.651
				s-10.651,4.769-10.651,10.651c0-5.882-4.769-10.651-10.651-10.651c-5.882,0-10.651,4.769-10.651,10.651
				c0,1.098,0.167,2.157,0.475,3.154h-0.017l7.986,21.828c-18.184,8.759-30.733,27.362-30.733,48.896
				c0,29.957,24.285,33.296,54.241,33.296c29.957,0,54.241-3.339,54.241-33.296C182.241,144.713,169.692,126.11,151.508,117.352z"/>
		</g>
	</g>
	<g>
		<g>
			<path class="st0" d="M153.378,116.606l7.524-20.567c0.035-0.096,0.061-0.194,0.074-0.293c0.315-1.094,0.476-2.228,0.476-3.376
				c0-6.7-5.45-12.151-12.15-12.151c-4.583,0-8.581,2.551-10.65,6.307c-2.069-3.756-6.068-6.307-10.651-6.307
				s-8.582,2.551-10.651,6.307c-2.069-3.756-6.067-6.307-10.65-6.307c-6.7,0-12.151,5.451-12.151,12.151
				c0,1.144,0.159,2.276,0.475,3.37c0.015,0.102,0.04,0.202,0.075,0.3l7.524,20.567c-18.488,9.478-30.362,28.813-30.362,49.642
				c0,32.109,27.537,34.796,55.741,34.796s55.741-2.687,55.741-34.796C183.741,145.419,171.867,126.084,153.378,116.606z
				 M128,198.043c-33.403,0-52.741-5.203-52.741-31.796c0-20.138,11.729-38.8,29.884-47.544c0.694-0.335,1.022-1.143,0.758-1.867
				l-7.91-21.621c-0.009-0.045-0.021-0.091-0.035-0.136c-0.271-0.876-0.408-1.788-0.408-2.711c0-5.046,4.105-9.151,9.151-9.151
				s9.15,4.105,9.15,9.151c0,0.829,0.672,1.5,1.5,1.5c0.828,0,1.5-0.671,1.5-1.5c0-5.046,4.106-9.151,9.151-9.151
				s9.151,4.105,9.151,9.151c0,0.829,0.672,1.5,1.5,1.5s1.5-0.671,1.5-1.5c0-5.046,4.104-9.151,9.15-9.151s9.15,4.105,9.15,9.151
				c0,0.925-0.137,1.837-0.407,2.711c-0.014,0.044-0.025,0.089-0.035,0.135l-7.91,21.621c-0.266,0.725,0.063,1.532,0.757,1.867
				c18.154,8.744,29.885,27.406,29.885,47.544C180.741,192.841,161.403,198.043,128,198.043z"/>
		</g>
	</g>
	<g>
		<g>
			
				<ellipse transform="matrix(0.9239 -0.3827 0.3827 0.9239 -50.5385 60.9743)" class="st3" cx="128" cy="157.524" rx="25.296" ry="25.296"/>
		</g>
	</g>
	<g>
		<g>
			<path class="st0" d="M128,130.729c-14.775,0-26.796,12.021-26.796,26.796c0,14.775,12.021,26.795,26.796,26.795
				s26.796-12.021,26.796-26.795C154.796,142.749,142.775,130.729,128,130.729z M128,181.32c-13.121,0-23.796-10.675-23.796-23.795
				c0-13.121,10.675-23.796,23.796-23.796s23.796,10.675,23.796,23.796C151.796,170.645,141.121,181.32,128,181.32z"/>
		</g>
	</g>
	<g>
		<g>
			<path class="st4" d="M131.008,154.664c-3.684-1.386-5.201-2.297-5.201-3.727c0-1.213,0.91-2.427,3.728-2.427
				c3.12,0,5.114,0.997,6.241,1.474l1.257-4.897c-1.431-0.694-3.381-1.301-6.285-1.431v-3.814H126.5v4.117
				c-4.638,0.91-7.325,3.901-7.325,7.715c0,4.204,3.164,6.372,7.801,7.932c3.207,1.083,4.594,2.124,4.594,3.77
				c0,1.734-1.69,2.688-4.161,2.688c-2.817,0-5.374-0.91-7.195-1.907l-1.3,5.071c1.647,0.954,4.464,1.733,7.368,1.864v4.117h4.248
				v-4.421c4.984-0.866,7.715-4.16,7.715-8.018C138.245,158.868,136.165,156.484,131.008,154.664z"/>
		</g>
	</g>
	<g>
		<g>
			<path class="st0" d="M131.536,153.26c-2.808-1.056-4.23-1.838-4.23-2.323c0-0.837,1.559-0.927,2.228-0.927
				c2.536,0,4.216,0.73,5.327,1.213l0.328,0.142c0.402,0.17,0.859,0.156,1.25-0.037c0.392-0.194,0.679-0.548,0.788-0.972
				l1.258-4.897c0.177-0.691-0.156-1.411-0.799-1.723c-1.588-0.77-3.378-1.256-5.439-1.474v-2.422c0-0.829-0.672-1.5-1.5-1.5H126.5
				c-0.828,0-1.5,0.671-1.5,1.5v2.937c-4.551,1.306-7.325,4.629-7.325,8.896c0,5.66,4.716,7.972,8.821,9.353
				c3.575,1.208,3.575,2.008,3.575,2.35c0,1.154-2.389,1.188-2.661,1.188c-2.895,0-5.3-1.079-6.476-1.723
				c-0.406-0.223-0.892-0.244-1.317-0.06c-0.425,0.185-0.74,0.555-0.855,1.003l-1.3,5.07c-0.167,0.651,0.12,1.334,0.702,1.671
				c1.653,0.957,4.099,1.669,6.618,1.951v2.731c0,0.829,0.672,1.5,1.5,1.5h4.248c0.828,0,1.5-0.671,1.5-1.5v-3.216
				c4.729-1.264,7.715-4.778,7.715-9.223C139.745,158.196,137.204,155.26,131.536,153.26z M130.273,169.309
				c-0.719,0.125-1.243,0.749-1.243,1.478v2.921h-1.248v-2.617c0-0.802-0.631-1.462-1.433-1.499
				c-2.026-0.091-4.128-0.535-5.679-1.175l0.545-2.126c1.57,0.645,3.729,1.272,6.194,1.272c3.439,0,5.661-1.644,5.661-4.188
				c0-2.896-2.698-4.207-5.616-5.192c-4.816-1.62-6.78-3.506-6.78-6.51c0-3.158,2.285-5.492,6.114-6.243
				c0.703-0.138,1.211-0.755,1.211-1.472v-2.617h1.247v2.314c0,0.802,0.632,1.463,1.434,1.499c1.747,0.078,3.256,0.346,4.576,0.814
				l-0.506,1.969c-1.255-0.464-2.969-0.927-5.217-0.927c-3.855,0-5.228,2.029-5.228,3.927c0,2.602,2.676,3.815,6.203,5.142
				c5.176,1.827,6.236,3.996,6.236,6.691C136.745,166.109,134.266,168.615,130.273,169.309z"/>
		</g>
	</g>
	<g>
		<g>
			<path class="st2" d="M155.293,109.677h-53.92c-2.757,0-4.993,2.235-4.993,4.993c0,2.757,2.235,4.992,4.993,4.992h53.92
				c2.757,0,4.993-2.235,4.993-4.992C160.286,111.912,158.05,109.677,155.293,109.677z"/>
		</g>
	</g>
	<g>
		<g>
			<path class="st0" d="M155.293,108.177h-53.92c-3.58,0-6.493,2.913-6.493,6.493c0,3.58,2.913,6.492,6.493,6.492h53.92
				c3.58,0,6.492-2.913,6.492-6.492C161.785,111.089,158.873,108.177,155.293,108.177z M155.293,118.162h-53.92
				c-1.926,0-3.493-1.566-3.493-3.492s1.567-3.493,3.493-3.493h53.92c1.926,0,3.492,1.567,3.492,3.493
				S157.219,118.162,155.293,118.162z"/>
		</g>
	</g>
	<g>
		<g>
			<path class="st5" d="M232.084,155.531c-1.67-0.08-3.37,0.28-4.93,1.09l-33.56,17.48h-53.14c-11.58,0-22.92,3.27-32.72,9.44
				l-7.48,4.7c-2.86,1.8-6.18,2.76-9.57,2.76h-0.95v7.87c0.006,0,0.01-0.001,0.016-0.001v14.722c-0.006,0-0.01-0.001-0.016-0.001
				v9.02l71.25-2.19c6.11-0.4,11.99-2.45,17.02-5.95l59.22-45.53c1.94-1.35,2.57-3.24,2.62-5.06
				C239.954,159.531,236.434,155.721,232.084,155.531z"/>
		</g>
	</g>
	<g>
		<g>
			<path class="st0" d="M232.156,154.033c-1.97-0.1-3.929,0.34-5.695,1.257l-33.234,17.311h-52.772
				c-11.879,0-23.471,3.344-33.519,9.67l-7.48,4.701c-2.63,1.655-5.663,2.53-8.771,2.53h-0.95c-0.828,0-1.5,0.671-1.5,1.5v7.87
				c0,0.829,0.688,1.5,1.517,1.5c0.828,0,1.492-0.671,1.492-1.5c0-0.053-0.003-0.105-0.009-0.158v-6.219
				c3.481-0.098,6.865-1.124,9.818-2.982l7.48-4.701c9.57-6.025,20.608-9.209,31.922-9.209h53.14c0.241,0,0.479-0.058,0.693-0.169
				l33.559-17.479c1.294-0.672,2.734-0.992,4.173-0.922c3.519,0.154,6.415,3.274,6.326,6.811c-0.047,1.711-0.694,2.977-2.035,3.912
				l-59.162,45.487c-4.795,3.336-10.418,5.302-16.209,5.682l-69.705,2.143v-7.249c0.011-0.073,0.017-0.147,0.017-0.224
				c0-0.802-0.63-1.458-1.422-1.498c-0.927-0.052-1.595,0.64-1.595,1.497v9.02c0,0.406,0.164,0.794,0.456,1.077
				c0.28,0.272,0.654,0.423,1.044,0.423c0.016,0,0.03,0,0.046,0l71.303-2.193c6.389-0.418,12.536-2.568,17.836-6.258l59.162-45.487
				c2.063-1.435,3.19-3.596,3.264-6.253C241.474,158.784,237.264,154.256,232.156,154.033z"/>
		</g>
	</g>
	<g>
		<g>
			<path class="st0" d="M195.092,174.879c-0.314-0.766-1.188-1.134-1.957-0.818c-0.767,0.314-1.133,1.19-0.818,1.957
				c1.16,2.829-0.496,6.243-2.73,8.154c-2.611,2.232-6.239,3.315-9.44,4.27c-7.229,2.158-13.784,3.487-20.724,4.894
				c-6.705,1.36-13.638,2.766-22.192,5.073c-0.8,0.216-1.273,1.039-1.058,1.839c0.181,0.669,0.786,1.11,1.447,1.11
				c0.129,0,0.261-0.017,0.392-0.052c8.462-2.282,15.349-3.678,22.008-5.029c7.008-1.421,13.627-2.764,20.984-4.959
				c3.486-1.041,7.438-2.219,10.532-4.865C194.496,183.921,196.872,179.22,195.092,174.879z"/>
		</g>
	</g>
	<g>
		<g>
			<rect x="16.154" y="175.083" class="st2" width="47.25" height="64.397"/>
		</g>
	</g>
	<g>
		<g>
			<path class="st0" d="M63.403,173.583H44.846c-0.828,0-1.5,0.671-1.5,1.5s0.672,1.5,1.5,1.5h17.058v61.397h-44.25v-61.397h13
				c0.828,0,1.5-0.671,1.5-1.5s-0.672-1.5-1.5-1.5h-14.5c-0.828,0-1.5,0.671-1.5,1.5v64.397c0,0.829,0.672,1.5,1.5,1.5h47.25
				c0.828,0,1.5-0.671,1.5-1.5v-64.397C64.903,174.254,64.231,173.583,63.403,173.583z"/>
		</g>
	</g>
	<g>
		<g>
			<path class="st1" d="M81.746,175.083H63.404v64.397h18.342c4.413,0,7.991-3.578,7.991-7.991v-48.415
				C89.737,178.66,86.159,175.083,81.746,175.083z"/>
		</g>
	</g>
	<g>
		<g>
			<path class="st0" d="M89.737,200.371c0.828,0,1.5-0.671,1.5-1.5v-15.797c0-5.233-4.258-9.491-9.491-9.491H63.403
				c-0.828,0-1.5,0.671-1.5,1.5v64.397c0,0.829,0.672,1.5,1.5,1.5h18.343c5.233,0,9.491-4.257,9.491-9.491v-17.897
				c0-0.829-0.672-1.5-1.5-1.5c-0.828,0-1.5,0.671-1.5,1.5v17.897c0,3.579-2.912,6.491-6.491,6.491H64.903v-61.397h16.843
				c3.579,0,6.491,2.912,6.491,6.491v15.797C88.237,199.7,88.909,200.371,89.737,200.371z"/>
		</g>
	</g>
	<g>
		<g>
			<path class="st4" d="M76.57,220.096c-3.329,0-6.028,2.699-6.028,6.028c0,3.329,2.699,6.028,6.028,6.028
				c3.329,0,6.028-2.699,6.028-6.028C82.598,222.795,79.899,220.096,76.57,220.096z"/>
		</g>
	</g>
	<g>
		<g>
			<path class="st0" d="M76.57,218.596c-4.15,0-7.527,3.377-7.527,7.528s3.377,7.528,7.527,7.528c4.15,0,7.527-3.377,7.527-7.528
				S80.721,218.596,76.57,218.596z M76.57,230.652c-2.496,0-4.527-2.031-4.527-4.528s2.031-4.528,4.527-4.528
				s4.527,2.031,4.527,4.528S79.066,230.652,76.57,230.652z"/>
		</g>
	</g>
	<g>
		<g>
			<path class="st6" d="M232.024,157.031c-1.45-0.07-2.9,0.25-4.18,0.92l-4.22,2.2c0.69,1.08,1.08,2.35,1.05,3.69
				c-0.04,1.71-0.69,2.98-2.03,3.91l-59.17,45.49c-7.07,4.959-16.561,5.97-16.545,6.11l14.015-0.43c5.78-0.37,11.4-2.34,16.2-5.68
				l59.17-45.49c1.34-0.93,1.98-2.2,2.03-3.91C238.434,160.301,235.544,157.181,232.024,157.031z"/>
		</g>
	</g>
	<g>
		<g>
			<path class="st5" d="M166.266,42.409v-9.02l-71.25,2.19c-6.11,0.4-11.99,2.45-17.02,5.95l-59.22,45.53
				c-1.94,1.35-2.57,3.24-2.62,5.06c-0.11,4.35,3.41,8.16,7.76,8.35c1.67,0.08,3.37-0.28,4.93-1.09l33.56-17.48h53.14
				c11.58,0,22.92-3.27,32.72-9.44l7.48-4.7c2.86-1.8,6.18-2.76,9.57-2.76h0.95v-7.87c-0.005,0-0.01,0.001-0.016,0.001V42.408
				C166.256,42.408,166.261,42.409,166.266,42.409z"/>
		</g>
	</g>
	<g>
		<g>
			<path class="st0" d="M164.75,42.408c0,0.802,0.63,1.458,1.422,1.498c0.032,0.002,0.065,0.003,0.095,0.003
				c0.828,0,1.5-0.671,1.5-1.5v-9.02c0-0.406-0.164-0.794-0.456-1.077c-0.292-0.283-0.68-0.438-1.09-0.423l-71.303,2.193
				C88.53,34.5,82.382,36.649,77.082,40.34L17.92,85.828c-2.063,1.435-3.19,3.596-3.264,6.253c-0.13,5.136,4.08,9.664,9.188,9.886
				c0.176,0.009,0.351,0.013,0.525,0.013c1.785,0,3.562-0.435,5.17-1.27l33.234-17.311h52.773c11.879,0,23.471-3.344,33.519-9.67
				l7.48-4.701c2.63-1.655,5.663-2.53,8.771-2.53h0.95c0.828,0,1.5-0.671,1.5-1.5v-7.87c0-0.829-0.672-1.5-1.5-1.5
				c-0.029,0-0.062,0.001-0.094,0.003c-0.792,0.04-1.423,0.695-1.423,1.498c0,0.076,0.006,0.151,0.017,0.224v6.153
				c-3.481,0.098-6.865,1.124-9.818,2.982l-7.48,4.701c-9.57,6.025-20.608,9.209-31.922,9.209h-53.14
				c-0.241,0-0.479,0.058-0.693,0.169L28.154,98.048c-1.294,0.672-2.74,0.991-4.173,0.922c-3.518-0.154-6.415-3.274-6.326-6.811
				c0.047-1.71,0.694-2.976,2.035-3.912L78.852,42.76c4.795-3.336,10.418-5.302,16.209-5.682l69.705-2.143v7.249
				C164.756,42.257,164.75,42.332,164.75,42.408z"/>
		</g>
	</g>
	<g>
		<g>
			<path class="st0" d="M119.828,55.752c-0.217-0.8-1.037-1.275-1.839-1.058c-8.462,2.281-15.347,3.678-22.006,5.028
				c-7.008,1.421-13.628,2.764-20.986,4.96c-3.487,1.041-7.438,2.219-10.532,4.865c-2.961,2.532-5.336,7.233-3.557,11.573
				c0.237,0.581,0.798,0.932,1.389,0.932c0.189,0,0.382-0.036,0.568-0.113c0.767-0.314,1.133-1.19,0.818-1.957
				c-1.16-2.829,0.496-6.244,2.73-8.155c2.611-2.233,6.239-3.315,9.44-4.271C83.084,65.4,89.64,64.07,96.58,62.663
				c6.704-1.36,13.637-2.766,22.19-5.072C119.57,57.375,120.044,56.552,119.828,55.752z"/>
		</g>
	</g>
	<g>
		<g>
			<rect x="192.596" y="16.52" class="st2" width="47.25" height="64.397"/>
		</g>
	</g>
	<g>
		<g>
			<path class="st0" d="M239.847,15.021h-47.25c-0.828,0-1.5,0.671-1.5,1.5v64.397c0,0.829,0.672,1.5,1.5,1.5h18.558
				c0.828,0,1.5-0.671,1.5-1.5s-0.672-1.5-1.5-1.5h-17.058V18.021h44.25v61.397h-13c-0.828,0-1.5,0.671-1.5,1.5s0.672,1.5,1.5,1.5
				h14.5c0.828,0,1.5-0.671,1.5-1.5V16.521C241.347,15.692,240.675,15.021,239.847,15.021z"/>
		</g>
	</g>
	<g>
		<g>
			<path class="st1" d="M174.254,16.52c-4.413,0-7.991,3.578-7.991,7.991v48.415c0,4.413,3.578,7.991,7.991,7.991h18.342V16.52
				H174.254z"/>
		</g>
	</g>
	<g>
		<g>
			<path class="st0" d="M192.597,15.021h-18.343c-5.233,0-9.491,4.257-9.491,9.491v17.897c0,0.829,0.672,1.5,1.5,1.5
				s1.5-0.671,1.5-1.5V24.511c0-3.579,2.912-6.491,6.491-6.491h16.843v61.397h-16.843c-3.579,0-6.491-2.912-6.491-6.491V57.129
				c0-0.829-0.672-1.5-1.5-1.5s-1.5,0.671-1.5,1.5v15.798c0,5.233,4.258,9.491,9.491,9.491h18.343c0.828,0,1.5-0.671,1.5-1.5V16.521
				C194.097,15.692,193.425,15.021,192.597,15.021z"/>
		</g>
	</g>
	<g>
		<g>
			<path class="st4" d="M179.43,23.848c-3.329,0-6.028,2.699-6.028,6.028c0,3.329,2.699,6.028,6.028,6.028s6.028-2.699,6.028-6.028
				C185.457,26.547,182.759,23.848,179.43,23.848z"/>
		</g>
	</g>
	<g>
		<g>
			<path class="st0" d="M179.43,22.348c-4.15,0-7.527,3.377-7.527,7.528s3.377,7.528,7.527,7.528s7.527-3.377,7.527-7.528
				S183.58,22.348,179.43,22.348z M179.43,34.404c-2.496,0-4.527-2.031-4.527-4.528s2.031-4.528,4.527-4.528
				s4.527,2.031,4.527,4.528S181.926,34.404,179.43,34.404z"/>
		</g>
	</g>
	<g>
		<g>
			<path class="st7" d="M47.066,120.244c-0.974,11.564-13.024,13.389-13.024,13.389c10.347,0.487,12.925,14.059,12.925,14.059
				c0.221-9.677,13.321-14.202,13.321-14.202C50.474,132.904,47.066,120.244,47.066,120.244z"/>
		</g>
	</g>
	<g>
		<g>
			<path class="st0" d="M60.377,131.993c-8.605-0.514-11.832-12.024-11.863-12.14c-0.19-0.702-0.85-1.159-1.584-1.102
				c-0.725,0.066-1.298,0.642-1.359,1.367c-0.859,10.215-11.313,11.963-11.754,12.032c-0.763,0.115-1.314,0.79-1.273,1.561
				c0.04,0.77,0.657,1.384,1.428,1.421c9.027,0.425,11.498,12.718,11.521,12.842c0.138,0.711,0.76,1.217,1.473,1.217
				c0.042,0,0.084-0.001,0.126-0.005c0.764-0.064,1.357-0.693,1.375-1.459c0.194-8.508,12.191-12.777,12.313-12.819
				c0.676-0.235,1.092-0.915,0.994-1.623C61.674,132.577,61.091,132.036,60.377,131.993z M46.81,142.339
				c-1.356-3.131-3.708-6.908-7.586-8.877c2.931-1.404,6.408-3.913,8.201-8.272c1.551,3.071,4.2,6.88,8.334,8.722
				C52.753,135.552,48.837,138.318,46.81,142.339z"/>
		</g>
	</g>
	<g>
		<g>
			<path class="st7" d="M25.367,137.225c-0.689,8.179-9.212,9.47-9.212,9.47c7.318,0.344,9.142,9.944,9.142,9.944
				c0.156-6.844,9.422-10.045,9.422-10.045C27.778,146.179,25.367,137.225,25.367,137.225z"/>
		</g>
	</g>
	<g>
		<g>
			<path class="st0" d="M34.809,145.097c-5.744-0.343-7.955-8.125-7.993-8.263c-0.189-0.703-0.865-1.17-1.582-1.103
				c-0.726,0.065-1.3,0.642-1.361,1.368c-0.579,6.871-7.646,8.067-7.942,8.114c-0.763,0.115-1.314,0.79-1.273,1.561
				c0.04,0.77,0.657,1.384,1.428,1.421c6.035,0.284,7.724,8.644,7.739,8.726c0.136,0.712,0.759,1.22,1.473,1.22
				c0.041,0,0.083-0.001,0.125-0.005c0.765-0.063,1.358-0.694,1.376-1.461c0.13-5.709,8.331-8.634,8.412-8.662
				c0.676-0.234,1.093-0.913,0.996-1.622C36.107,145.681,35.522,145.14,34.809,145.097z M25.224,151.892
				c-0.924-1.886-2.34-3.947-4.447-5.28c1.855-1.041,3.697-2.63,4.871-4.916c1.057,1.874,2.654,3.955,4.941,5.224
				C28.739,148.02,26.6,149.66,25.224,151.892z"/>
		</g>
	</g>
	<g>
		<g>
			<path class="st7" d="M25.329,110.567c-0.657,8.182-9.175,9.507-9.175,9.507c7.319,0.316,9.181,9.909,9.181,9.909
				c0.129-6.845,9.383-10.083,9.383-10.083C27.775,119.512,25.329,110.567,25.329,110.567z"/>
		</g>
	</g>
	<g>
		<g>
			<path class="st0" d="M34.802,118.403c-5.768-0.323-8.005-8.154-8.026-8.233c-0.193-0.702-0.877-1.163-1.586-1.096
				c-0.726,0.068-1.297,0.647-1.355,1.374c-0.552,6.873-7.615,8.097-7.911,8.145c-0.762,0.119-1.31,0.796-1.268,1.566
				c0.043,0.77,0.663,1.382,1.434,1.415c6.036,0.261,7.758,8.614,7.773,8.696c0.138,0.71,0.76,1.214,1.472,1.214
				c0.043,0,0.087-0.002,0.131-0.005c0.765-0.066,1.355-0.699,1.37-1.466c0.107-5.71,8.298-8.667,8.378-8.695
				c0.676-0.236,1.09-0.917,0.99-1.626C36.102,118.982,35.516,118.443,34.802,118.403z M25.243,125.235
				c-0.932-1.882-2.355-3.938-4.468-5.263c1.852-1.048,3.686-2.644,4.852-4.936c1.064,1.87,2.67,3.944,4.962,5.205
				C28.743,121.35,26.61,122.998,25.243,125.235z"/>
		</g>
	</g>
</g>
</svg>
