<?xml version="1.0" encoding="utf-8"?>
<!-- Generator: Adobe Illustrator 22.0.1, SVG Export Plug-In . SVG Version: 6.00 Build 0)  -->
<svg version="1.1" id="Layer_1" xmlns="http://www.w3.org/2000/svg" xmlns:xlink="http://www.w3.org/1999/xlink" x="0px" y="0px"
	 viewBox="0 0 256 256" style="enable-background:new 0 0 256 256;" xml:space="preserve">
<style type="text/css">
	.st0{fill:#3A312A;}
	.st1{fill:#8AC6DD;}
	.st2{fill:#F16C7A;}
	.st3{fill:#D7E057;}
	.st4{fill:#87796F;}
	.st5{fill:#FCE8CB;}
	.st6{fill:#DECAAD;}
	.st7{fill:#D6DF58;}
	.st8{fill:#FAE6CA;}
	.st9{fill:#DDC9AC;}
	.st10{fill:#D5DE58;}
	.st11{fill:#ED6E7A;}
	.st12{fill:#8AC5DC;}
	.st13{fill:#6CA8BF;}
	.st14{fill:#695B51;}
	.st15{fill:#F8E4C8;}
	.st16{fill:#EF6D7A;}
	.st17{fill-rule:evenodd;clip-rule:evenodd;fill:#F8E4C8;}
	.st18{fill:#89C4DB;}
	.st19{fill:#F59689;}
	.st20{fill:#D34E5C;}
	.st21{fill:#F7E3C7;}
	.st22{fill:#8AC3DA;}
	.st23{fill-rule:evenodd;clip-rule:evenodd;fill:#F7E3C7;}
	.st24{fill-rule:evenodd;clip-rule:evenodd;fill:#87796F;}
	.st25{fill:#B9C239;}
	.st26{fill:#D4DB56;}
	.st27{fill-rule:evenodd;clip-rule:evenodd;fill:#F16C7A;}
	.st28{fill-rule:evenodd;clip-rule:evenodd;fill:#F6E2C6;}
	.st29{fill:#F6E2C6;}
	.st30{fill-rule:evenodd;clip-rule:evenodd;fill:#FAE6CA;}
	.st31{fill:#B8C136;}
</style>
<g>
	<g>
		<g>
			<path class="st7" d="M47.946,26.221C46.972,37.784,34.922,39.61,34.922,39.61c10.347,0.487,12.925,14.059,12.925,14.059
				c0.221-9.677,13.321-14.202,13.321-14.202C51.355,38.88,47.946,26.221,47.946,26.221z"/>
		</g>
	</g>
	<g>
		<g>
			<path class="st0" d="M61.258,37.97c-8.605-0.515-11.832-12.024-11.864-12.141c-0.19-0.702-0.85-1.164-1.583-1.102
				c-0.725,0.066-1.298,0.642-1.359,1.367c-0.86,10.215-11.314,11.964-11.754,12.033c-0.763,0.115-1.313,0.79-1.273,1.561
				c0.04,0.77,0.657,1.384,1.428,1.421c9.028,0.425,11.498,12.718,11.522,12.842c0.137,0.711,0.759,1.217,1.472,1.217
				c0.042,0,0.084-0.001,0.126-0.005c0.764-0.064,1.357-0.693,1.375-1.459c0.194-8.509,12.191-12.777,12.313-12.819
				c0.675-0.235,1.092-0.914,0.994-1.623C62.555,38.554,61.972,38.013,61.258,37.97z M47.692,48.315
				c-1.357-3.13-3.709-6.907-7.587-8.876c2.931-1.405,6.409-3.913,8.202-8.272c1.551,3.071,4.199,6.88,8.333,8.722
				C53.633,41.529,49.718,44.294,47.692,48.315z"/>
		</g>
	</g>
	<g>
		<g>
			<path class="st7" d="M26.248,43.201c-0.689,8.179-9.212,9.471-9.212,9.471c7.318,0.344,9.142,9.944,9.142,9.944
				c0.156-6.844,9.422-10.045,9.422-10.045C28.658,52.155,26.248,43.201,26.248,43.201z"/>
		</g>
	</g>
	<g>
		<g>
			<path class="st0" d="M35.69,51.073c-5.767-0.345-7.973-8.185-7.994-8.265c-0.19-0.702-0.851-1.164-1.582-1.102
				c-0.726,0.065-1.299,0.642-1.36,1.368c-0.579,6.871-7.646,8.067-7.942,8.114c-0.763,0.115-1.313,0.79-1.273,1.561
				c0.04,0.77,0.657,1.384,1.428,1.421c6.035,0.284,7.723,8.644,7.739,8.725c0.135,0.713,0.759,1.22,1.472,1.22
				c0.042,0,0.083-0.001,0.125-0.005c0.765-0.063,1.358-0.694,1.376-1.461c0.13-5.709,8.331-8.633,8.413-8.661
				c0.676-0.234,1.094-0.913,0.996-1.622C36.988,51.658,36.404,51.116,35.69,51.073z M26.104,57.868
				c-0.924-1.886-2.34-3.947-4.447-5.28c1.855-1.041,3.697-2.63,4.87-4.917c1.057,1.874,2.655,3.955,4.941,5.224
				C29.62,53.997,27.48,55.636,26.104,57.868z"/>
		</g>
	</g>
	<g>
		<g>
			<path class="st7" d="M26.21,16.544c-0.657,8.182-9.175,9.507-9.175,9.507c7.319,0.316,9.181,9.909,9.181,9.909
				c0.129-6.845,9.383-10.082,9.383-10.082C28.655,25.488,26.21,16.544,26.21,16.544z"/>
		</g>
	</g>
	<g>
		<g>
			<path class="st0" d="M35.682,24.379c-5.747-0.322-7.988-8.098-8.026-8.232c-0.192-0.702-0.856-1.165-1.587-1.097
				c-0.725,0.068-1.297,0.648-1.355,1.373c-0.552,6.873-7.615,8.097-7.911,8.145c-0.762,0.119-1.31,0.796-1.267,1.566
				c0.043,0.77,0.663,1.382,1.433,1.415c6.036,0.26,7.757,8.614,7.773,8.695c0.138,0.711,0.76,1.214,1.471,1.214
				c0.043,0,0.087-0.002,0.131-0.005c0.765-0.066,1.356-0.699,1.37-1.466c0.108-5.71,8.298-8.666,8.379-8.694
				c0.676-0.236,1.09-0.917,0.99-1.626C36.983,24.958,36.396,24.419,35.682,24.379z M26.124,31.211
				c-0.932-1.882-2.355-3.938-4.468-5.262c1.852-1.048,3.686-2.644,4.851-4.935c1.064,1.87,2.67,3.944,4.962,5.205
				C29.623,27.326,27.491,28.974,26.124,31.211z"/>
		</g>
	</g>
	<g>
		<g>
			<path class="st5" d="M232.084,155.508c-1.67-0.08-3.37,0.28-4.93,1.09l-33.56,17.48h-53.14c-11.58,0-22.92,3.27-32.72,9.44
				l-7.48,4.7c-2.86,1.8-6.18,2.76-9.57,2.76h-0.95v7.87c0.006,0,0.01-0.001,0.016-0.001v14.722c-0.006,0-0.01-0.001-0.016-0.001
				v9.02l71.25-2.19c6.11-0.4,11.99-2.45,17.02-5.95l59.22-45.53c1.94-1.35,2.57-3.24,2.62-5.06
				C239.954,159.508,236.434,155.698,232.084,155.508z"/>
		</g>
	</g>
	<g>
		<g>
			<path class="st0" d="M232.155,154.009c-1.962-0.102-3.928,0.34-5.694,1.258l-33.234,17.311h-52.772
				c-11.88,0-23.471,3.344-33.518,9.67l-7.482,4.7c-2.629,1.655-5.662,2.53-8.771,2.53h-0.95c-0.829,0-1.5,0.671-1.5,1.5v7.87
				c0,0.829,0.671,1.5,1.5,1.5c0.029,0,0.062-0.001,0.094-0.003c0.793-0.041,1.422-0.696,1.422-1.498
				c0-0.075-0.005-0.148-0.016-0.221v-6.156c3.482-0.098,6.866-1.124,9.817-2.982l7.482-4.7c9.569-6.025,20.607-9.209,31.921-9.209
				h53.14c0.241,0,0.479-0.058,0.693-0.169l33.559-17.479c1.294-0.672,2.731-0.988,4.173-0.923c3.519,0.154,6.416,3.274,6.326,6.811
				c-0.047,1.71-0.693,2.977-2.034,3.912l-59.163,45.487c-4.794,3.336-10.417,5.302-16.209,5.682l-69.704,2.143v-7.251
				c0.011-0.072,0.016-0.146,0.016-0.221c0-0.801-0.628-1.456-1.419-1.498c-0.909-0.048-1.597,0.638-1.597,1.497v9.02
				c0,0.406,0.164,0.794,0.456,1.077c0.28,0.272,0.655,0.423,1.044,0.423c0.015,0,0.031,0,0.046,0l71.302-2.193
				c6.388-0.418,12.536-2.567,17.836-6.258l59.163-45.488c2.061-1.435,3.189-3.596,3.262-6.253
				C241.474,158.76,237.263,154.232,232.155,154.009z"/>
		</g>
	</g>
	<g>
		<g>
			<path class="st0" d="M195.092,174.856c-0.314-0.767-1.191-1.133-1.956-0.819c-0.767,0.314-1.133,1.19-0.819,1.957
				c1.16,2.829-0.496,6.244-2.731,8.155c-2.608,2.231-6.237,3.314-9.44,4.27c-7.229,2.158-13.785,3.487-20.725,4.895
				c-6.705,1.36-13.637,2.766-22.191,5.072c-0.8,0.216-1.273,1.039-1.058,1.839c0.18,0.669,0.786,1.11,1.447,1.11
				c0.129,0,0.261-0.017,0.392-0.052c8.462-2.281,15.347-3.678,22.006-5.028c7.008-1.421,13.628-2.764,20.987-4.96
				c3.488-1.042,7.441-2.222,10.532-4.865C194.496,183.897,196.871,179.195,195.092,174.856z"/>
		</g>
	</g>
	<g>
		<g>
			<rect x="16.154" y="175.059" class="st2" width="47.25" height="64.397"/>
		</g>
	</g>
	<g>
		<g>
			<path class="st0" d="M63.404,173.559H44.846c-0.829,0-1.5,0.671-1.5,1.5s0.671,1.5,1.5,1.5h17.058v61.397h-44.25v-61.397h13
				c0.829,0,1.5-0.671,1.5-1.5s-0.671-1.5-1.5-1.5h-14.5c-0.829,0-1.5,0.671-1.5,1.5v64.397c0,0.829,0.671,1.5,1.5,1.5h47.25
				c0.829,0,1.5-0.671,1.5-1.5v-64.397C64.904,174.23,64.232,173.559,63.404,173.559z"/>
		</g>
	</g>
	<g>
		<g>
			<path class="st1" d="M81.746,175.059H63.404v64.397h18.342c4.413,0,7.991-3.578,7.991-7.991V183.05
				C89.737,178.636,86.159,175.059,81.746,175.059z"/>
		</g>
	</g>
	<g>
		<g>
			<path class="st0" d="M89.737,200.347c0.829,0,1.5-0.671,1.5-1.5V183.05c0-5.233-4.258-9.491-9.491-9.491H63.404
				c-0.829,0-1.5,0.671-1.5,1.5v64.397c0,0.829,0.671,1.5,1.5,1.5h18.342c5.233,0,9.491-4.258,9.491-9.491v-17.897
				c0-0.829-0.671-1.5-1.5-1.5s-1.5,0.671-1.5,1.5v17.897c0,3.579-2.912,6.491-6.491,6.491H64.904v-61.397h16.842
				c3.579,0,6.491,2.912,6.491,6.491v15.797C88.237,199.676,88.909,200.347,89.737,200.347z"/>
		</g>
	</g>
	<g>
		<g>
			
				<ellipse transform="matrix(0.9871 -0.1602 0.1602 0.9871 -35.2285 15.1847)" class="st4" cx="76.57" cy="226.1" rx="6.028" ry="6.028"/>
		</g>
	</g>
	<g>
		<g>
			<path class="st0" d="M76.57,218.573c-4.151,0-7.528,3.377-7.528,7.528s3.377,7.528,7.528,7.528c4.151,0,7.528-3.377,7.528-7.528
				S80.721,218.573,76.57,218.573z M76.57,230.628c-2.497,0-4.528-2.031-4.528-4.528s2.031-4.528,4.528-4.528
				c2.497,0,4.528,2.031,4.528,4.528S79.067,230.628,76.57,230.628z"/>
		</g>
	</g>
	<g>
		<g>
			<path class="st6" d="M232.024,157.008c-1.45-0.07-2.9,0.25-4.18,0.92l-4.22,2.2c0.69,1.08,1.08,2.35,1.05,3.69
				c-0.04,1.71-0.69,2.98-2.03,3.91l-59.17,45.49c-7.07,4.959-16.561,5.97-16.545,6.11l14.015-0.43c5.78-0.37,11.4-2.34,16.2-5.68
				l59.17-45.49c1.34-0.93,1.98-2.2,2.03-3.91C238.434,160.277,235.544,157.157,232.024,157.008z"/>
		</g>
	</g>
	<g>
		<g>
			<path class="st5" d="M166.266,43.021v-9.02l-71.25,2.19c-6.11,0.4-11.99,2.45-17.02,5.95l-59.22,45.53
				c-1.94,1.35-2.57,3.24-2.62,5.06c-0.11,4.35,3.41,8.16,7.76,8.35c1.67,0.08,3.37-0.28,4.93-1.09l33.56-17.48h53.14
				c11.58,0,22.92-3.27,32.72-9.44l7.48-4.7c2.86-1.8,6.18-2.76,9.57-2.76h0.95v-7.87c-0.006,0-0.01,0.001-0.016,0.001V43.02
				C166.256,43.02,166.261,43.021,166.266,43.021z"/>
		</g>
	</g>
	<g>
		<g>
			<path class="st0" d="M164.75,43.02c0,0.801,0.628,1.456,1.419,1.498c0.915,0.049,1.597-0.638,1.597-1.497v-9.02
				c0-0.406-0.165-0.794-0.456-1.077c-0.292-0.283-0.688-0.438-1.09-0.423l-71.302,2.193c-6.389,0.419-12.537,2.568-17.836,6.258
				L17.919,86.44c-2.061,1.435-3.189,3.596-3.262,6.253c-0.13,5.136,4.08,9.664,9.188,9.886c0.175,0.009,0.35,0.013,0.524,0.013
				c1.784,0,3.561-0.435,5.17-1.27l33.234-17.311h52.773c11.88,0,23.471-3.344,33.518-9.67l7.481-4.701
				c2.63-1.655,5.663-2.53,8.771-2.53h0.95c0.829,0,1.5-0.671,1.5-1.5v-7.87c0-0.829-0.688-1.5-1.516-1.5s-1.492,0.671-1.492,1.5
				c0,0.052,0.003,0.104,0.008,0.155v6.222c-3.481,0.098-6.865,1.124-9.817,2.982l-7.482,4.701
				c-9.569,6.025-20.607,9.209-31.921,9.209h-53.14c-0.241,0-0.479,0.058-0.693,0.169L28.155,98.66
				c-1.295,0.673-2.735,0.993-4.173,0.923c-3.519-0.154-6.416-3.274-6.326-6.811c0.047-1.71,0.693-2.977,2.034-3.912l59.163-45.487
				c4.794-3.336,10.417-5.302,16.209-5.682l69.704-2.142v7.251C164.755,42.872,164.75,42.945,164.75,43.02z"/>
		</g>
	</g>
	<g>
		<g>
			<path class="st0" d="M119.828,56.364c-0.216-0.8-1.041-1.274-1.839-1.058c-8.462,2.282-15.347,3.678-22.006,5.028
				c-7.008,1.421-13.628,2.764-20.986,4.96c-3.487,1.041-7.44,2.22-10.532,4.865c-2.96,2.532-5.336,7.233-3.556,11.573
				c0.238,0.58,0.798,0.931,1.388,0.931c0.189,0,0.382-0.036,0.569-0.113c0.766-0.314,1.133-1.19,0.818-1.957
				c-1.16-2.828,0.496-6.243,2.731-8.154c2.609-2.232,6.238-3.315,9.44-4.27c7.229-2.158,13.785-3.487,20.725-4.895
				c6.704-1.359,13.637-2.766,22.191-5.072C119.57,57.987,120.044,57.164,119.828,56.364z"/>
		</g>
	</g>
	<g>
		<g>
			<rect x="192.596" y="17.133" class="st2" width="47.25" height="64.397"/>
		</g>
	</g>
	<g>
		<g>
			<path class="st0" d="M239.846,15.632h-47.25c-0.829,0-1.5,0.671-1.5,1.5V81.53c0,0.829,0.671,1.5,1.5,1.5h18.558
				c0.829,0,1.5-0.671,1.5-1.5s-0.671-1.5-1.5-1.5h-17.058V18.632h44.25V80.03h-13c-0.829,0-1.5,0.671-1.5,1.5s0.671,1.5,1.5,1.5
				h14.5c0.829,0,1.5-0.671,1.5-1.5V17.132C241.346,16.304,240.675,15.632,239.846,15.632z"/>
		</g>
	</g>
	<g>
		<g>
			<path class="st1" d="M174.254,17.133c-4.413,0-7.991,3.578-7.991,7.991v48.415c0,4.413,3.578,7.991,7.991,7.991h18.342V17.133
				H174.254z"/>
		</g>
	</g>
	<g>
		<g>
			<path class="st0" d="M192.596,15.632h-18.342c-5.233,0-9.491,4.258-9.491,9.491v17.898c0,0.829,0.671,1.5,1.5,1.5
				s1.5-0.671,1.5-1.5V25.123c0-3.579,2.912-6.491,6.491-6.491h16.842V80.03h-16.842c-3.579,0-6.491-2.912-6.491-6.491V57.741
				c0-0.829-0.671-1.5-1.5-1.5s-1.5,0.671-1.5,1.5v15.797c0,5.233,4.258,9.491,9.491,9.491h18.342c0.829,0,1.5-0.671,1.5-1.5V17.132
				C194.096,16.304,193.425,15.632,192.596,15.632z"/>
		</g>
	</g>
	<g>
		<g>
			<path class="st4" d="M179.43,24.46c-3.329,0-6.028,2.699-6.028,6.028c0,3.329,2.699,6.028,6.028,6.028
				c3.329,0,6.028-2.699,6.028-6.028C185.457,27.159,182.759,24.46,179.43,24.46z"/>
		</g>
	</g>
	<g>
		<g>
			<path class="st0" d="M179.43,22.96c-4.151,0-7.528,3.377-7.528,7.528s3.377,7.528,7.528,7.528s7.528-3.377,7.528-7.528
				S183.581,22.96,179.43,22.96z M179.43,35.016c-2.497,0-4.528-2.031-4.528-4.528s2.031-4.528,4.528-4.528s4.528,2.031,4.528,4.528
				S181.926,35.016,179.43,35.016z"/>
		</g>
	</g>
	<g>
		<g>
			<circle class="st3" cx="128" cy="127.972" r="38"/>
		</g>
	</g>
	<g>
		<g>
			<path class="st0" d="M128,88.473c-21.78,0-39.5,17.72-39.5,39.5s17.72,39.5,39.5,39.5c21.78,0,39.5-17.72,39.5-39.5
				S149.78,88.473,128,88.473z M128,164.473c-20.126,0-36.5-16.374-36.5-36.5s16.374-36.5,36.5-36.5s36.5,16.374,36.5,36.5
				S148.126,164.473,128,164.473z"/>
		</g>
	</g>
	<g>
		<g>
			<path class="st4" d="M132.518,123.675c-5.534-2.083-7.814-3.45-7.814-5.599c0-1.822,1.367-3.646,5.6-3.646
				c4.687,0,7.683,1.497,9.375,2.214l1.888-7.356c-2.149-1.042-5.079-1.955-9.441-2.149v-5.73h-6.381v6.185
				c-6.967,1.367-11.003,5.86-11.003,11.59c0,6.316,4.753,9.572,11.719,11.915c4.818,1.628,6.902,3.191,6.902,5.664
				c0,2.605-2.54,4.037-6.25,4.037c-4.233,0-8.073-1.367-10.808-2.864l-1.953,7.617c2.474,1.432,6.706,2.604,11.068,2.8v6.185h6.381
				v-6.641c7.488-1.301,11.59-6.25,11.59-12.045C143.391,129.991,140.265,126.41,132.518,123.675z"/>
		</g>
	</g>
	<g>
		<g>
			<path class="st0" d="M133.046,122.271c-4.924-1.853-6.842-3.029-6.842-4.195c0-1.867,2.569-2.146,4.1-2.146
				c3.965,0,6.575,1.134,8.303,1.885l0.488,0.21c0.402,0.17,0.859,0.157,1.25-0.037c0.392-0.193,0.679-0.548,0.788-0.971
				l1.888-7.357c0.177-0.691-0.157-1.412-0.799-1.723c-2.477-1.201-5.3-1.927-8.595-2.206v-4.323c0-0.829-0.671-1.5-1.5-1.5h-6.38
				c-0.829,0-1.5,0.671-1.5,1.5v4.987c-6.821,1.757-11.003,6.569-11.003,12.788c0,8.022,6.809,11.341,12.739,13.336
				c5.169,1.747,5.882,3.072,5.882,4.243c0,2.415-3.957,2.537-4.751,2.537c-4.517,0-8.26-1.679-10.088-2.68
				c-0.406-0.223-0.893-0.245-1.317-0.06s-0.741,0.555-0.856,1.003l-1.953,7.617c-0.167,0.651,0.12,1.334,0.702,1.671
				c2.546,1.474,6.4,2.547,10.319,2.902v4.784c0,0.829,0.671,1.5,1.5,1.5h6.381c0.829,0,1.5-0.671,1.5-1.5v-5.418
				c7.084-1.68,11.59-6.78,11.59-13.268C144.891,129.263,141.34,125.199,133.046,122.271z M131.544,146.417
				c-0.719,0.125-1.243,0.749-1.243,1.478v5.141h-3.381v-4.685c0-0.802-0.631-1.462-1.433-1.499
				c-3.39-0.152-6.928-0.949-9.386-2.084l1.196-4.667c2.324,1.047,5.793,2.197,9.815,2.197c4.708,0,7.751-2.173,7.751-5.537
				c0-3.875-3.807-5.695-7.924-7.086c-7.498-2.522-10.697-5.66-10.697-10.493c0-5.132,3.661-8.915,9.792-10.118
				c0.704-0.138,1.211-0.755,1.211-1.472v-4.685h3.38v4.23c0,0.802,0.631,1.463,1.433,1.499c2.987,0.133,5.533,0.628,7.739,1.509
				l-1.138,4.435c-1.877-0.761-4.613-1.65-8.356-1.65c-5.235,0-7.1,2.658-7.1,5.146c0,3.424,3.808,5.129,8.815,7.014
				c8.194,2.893,9.872,6.394,9.872,10.761C141.891,141.26,137.926,145.309,131.544,146.417z"/>
		</g>
	</g>
</g>
</svg>
