<?xml version="1.0" encoding="utf-8"?>
<!-- Generator: Adobe Illustrator 22.0.1, SVG Export Plug-In . SVG Version: 6.00 Build 0)  -->
<svg version="1.1" id="Layer_1" xmlns="http://www.w3.org/2000/svg" xmlns:xlink="http://www.w3.org/1999/xlink" x="0px" y="0px"
	 viewBox="0 0 256 256" style="enable-background:new 0 0 256 256;" xml:space="preserve">
<style type="text/css">
	.st0{fill:#3A312A;}
	.st1{fill:#8AC6DD;}
	.st2{fill:#F16C7A;}
	.st3{fill:#D7E057;}
	.st4{fill:#87796F;}
	.st5{fill:#FCE8CB;}
	.st6{fill:#DECAAD;}
	.st7{fill:#D6DF58;}
	.st8{fill:#FAE6CA;}
	.st9{fill:#DDC9AC;}
	.st10{fill:#D5DE58;}
	.st11{fill:#ED6E7A;}
	.st12{fill:#8AC5DC;}
	.st13{fill:#6CA8BF;}
	.st14{fill:#695B51;}
	.st15{fill:#F8E4C8;}
	.st16{fill:#EF6D7A;}
	.st17{fill-rule:evenodd;clip-rule:evenodd;fill:#F8E4C8;}
	.st18{fill:#89C4DB;}
	.st19{fill:#F59689;}
	.st20{fill:#D34E5C;}
	.st21{fill:#F7E3C7;}
	.st22{fill:#8AC3DA;}
	.st23{fill-rule:evenodd;clip-rule:evenodd;fill:#F7E3C7;}
	.st24{fill-rule:evenodd;clip-rule:evenodd;fill:#87796F;}
	.st25{fill:#B9C239;}
	.st26{fill:#D4DB56;}
	.st27{fill-rule:evenodd;clip-rule:evenodd;fill:#F16C7A;}
	.st28{fill-rule:evenodd;clip-rule:evenodd;fill:#F6E2C6;}
	.st29{fill:#F6E2C6;}
	.st30{fill-rule:evenodd;clip-rule:evenodd;fill:#FAE6CA;}
	.st31{fill:#B8C136;}
</style>
<g>
	<g>
		<g>
			<path class="st3" d="M47.967,26.134c-0.974,11.564-13.025,13.389-13.025,13.389c10.347,0.487,12.925,14.059,12.925,14.059
				c0.221-9.677,13.321-14.202,13.321-14.202C51.375,38.793,47.967,26.134,47.967,26.134z"/>
		</g>
	</g>
	<g>
		<g>
			<path class="st0" d="M61.279,37.882c-8.606-0.515-11.833-12.024-11.864-12.141c-0.19-0.702-0.849-1.163-1.584-1.102
				c-0.725,0.066-1.298,0.642-1.359,1.367C45.612,36.223,35.159,37.971,34.718,38.04c-0.763,0.115-1.313,0.79-1.273,1.561
				c0.04,0.77,0.657,1.384,1.428,1.421C43.9,41.446,46.371,53.74,46.394,53.864c0.138,0.711,0.76,1.217,1.473,1.217
				c0.042,0,0.084-0.001,0.126-0.005c0.765-0.064,1.357-0.693,1.375-1.459c0.193-8.508,12.191-12.777,12.313-12.819
				c0.676-0.235,1.092-0.914,0.994-1.623C62.577,38.466,61.993,37.925,61.279,37.882z M47.713,48.229
				c-1.357-3.131-3.709-6.908-7.587-8.877c2.931-1.405,6.408-3.913,8.201-8.272c1.551,3.071,4.2,6.88,8.335,8.722
				C53.654,41.441,49.739,44.207,47.713,48.229z"/>
		</g>
	</g>
	<g>
		<g>
			<path class="st3" d="M26.268,43.114c-0.689,8.179-9.212,9.47-9.212,9.47c7.318,0.344,9.142,9.944,9.142,9.944
				c0.156-6.844,9.422-10.045,9.422-10.045C28.679,52.068,26.268,43.114,26.268,43.114z"/>
		</g>
	</g>
	<g>
		<g>
			<path class="st0" d="M35.71,50.986c-5.767-0.345-7.972-8.186-7.993-8.265c-0.19-0.702-0.866-1.157-1.582-1.102
				c-0.726,0.065-1.3,0.642-1.361,1.368c-0.579,6.871-7.646,8.067-7.942,8.114c-0.763,0.115-1.313,0.79-1.273,1.561
				c0.04,0.77,0.657,1.384,1.428,1.421c6.035,0.284,7.724,8.644,7.739,8.726c0.136,0.713,0.759,1.22,1.473,1.22
				c0.041,0,0.083-0.001,0.125-0.005c0.765-0.063,1.358-0.694,1.376-1.461c0.13-5.709,8.331-8.634,8.412-8.662
				c0.676-0.234,1.093-0.913,0.996-1.622C37.009,51.57,36.424,51.029,35.71,50.986z M26.125,57.781
				c-0.924-1.885-2.34-3.947-4.447-5.28c1.856-1.041,3.697-2.63,4.871-4.917c1.057,1.874,2.654,3.955,4.941,5.224
				C29.641,53.909,27.501,55.548,26.125,57.781z"/>
		</g>
	</g>
	<g>
		<g>
			<path class="st3" d="M26.268,16.456c-0.689,8.179-9.212,9.471-9.212,9.471c7.318,0.344,9.142,9.944,9.142,9.944
				c0.156-6.844,9.422-10.045,9.422-10.045C28.679,25.41,26.268,16.456,26.268,16.456z"/>
		</g>
	</g>
	<g>
		<g>
			<path class="st0" d="M35.71,24.329c-5.767-0.345-7.972-8.186-7.993-8.265c-0.19-0.702-0.866-1.165-1.582-1.102
				c-0.726,0.065-1.3,0.642-1.361,1.368c-0.579,6.871-7.646,8.067-7.942,8.114c-0.763,0.115-1.313,0.79-1.273,1.561
				c0.04,0.77,0.657,1.384,1.428,1.421c6.035,0.284,7.724,8.644,7.739,8.726c0.136,0.713,0.759,1.22,1.473,1.22
				c0.041,0,0.083-0.001,0.125-0.005c0.765-0.063,1.358-0.694,1.376-1.461c0.13-5.709,8.331-8.634,8.412-8.662
				c0.676-0.234,1.093-0.913,0.996-1.622C37.009,24.913,36.424,24.372,35.71,24.329z M26.125,31.124
				c-0.924-1.885-2.34-3.947-4.447-5.28c1.856-1.041,3.697-2.63,4.871-4.917c1.057,1.874,2.654,3.955,4.941,5.224
				C29.641,27.252,27.501,28.891,26.125,31.124z"/>
		</g>
	</g>
	<g>
		<g>
			<path class="st5" d="M232.084,155.595c-1.67-0.08-3.37,0.28-4.93,1.09l-33.56,17.48h-53.14c-11.58,0-22.92,3.27-32.72,9.44
				l-7.48,4.7c-2.86,1.8-6.18,2.76-9.57,2.76h-0.95v7.87c0.006,0,0.01-0.001,0.016-0.001v14.722c-0.006,0-0.01-0.001-0.016-0.001
				v9.02l71.25-2.19c6.11-0.4,11.99-2.45,17.02-5.95l59.22-45.53c1.94-1.35,2.57-3.24,2.62-5.06
				C239.954,159.595,236.434,155.785,232.084,155.595z"/>
		</g>
	</g>
	<g>
		<g>
			<path class="st0" d="M232.156,154.097c-1.961-0.104-3.929,0.34-5.696,1.258l-33.233,17.311h-52.772
				c-11.88,0-23.471,3.344-33.519,9.669l-7.48,4.701c-2.631,1.655-5.664,2.53-8.771,2.53h-0.95c-0.828,0-1.5,0.672-1.5,1.5v7.869
				c0,0.828,0.688,1.5,1.517,1.5c0.828,0,1.492-0.672,1.492-1.5c0-0.054-0.003-0.105-0.009-0.158v-6.219
				c3.481-0.098,6.864-1.124,9.818-2.982l7.48-4.701c9.57-6.024,20.608-9.209,31.922-9.209h53.14c0.241,0,0.479-0.059,0.693-0.17
				l33.557-17.479c1.295-0.672,2.726-1.003,4.175-0.922c3.519,0.153,6.415,3.274,6.326,6.811c-0.047,1.711-0.694,2.977-2.035,3.911
				l-59.162,45.488c-4.795,3.336-10.418,5.302-16.209,5.683l-69.705,2.142v-7.248c0.011-0.073,0.017-0.147,0.017-0.224
				c0-0.803-0.63-1.458-1.423-1.498c-0.897-0.055-1.594,0.64-1.594,1.497v9.02c0,0.406,0.164,0.794,0.456,1.077
				c0.28,0.271,0.654,0.423,1.044,0.423c0.016,0,0.03,0,0.046-0.001l71.303-2.191c6.389-0.419,12.536-2.568,17.836-6.258
				l59.162-45.488c2.063-1.435,3.19-3.596,3.264-6.253C241.474,158.848,237.264,154.32,232.156,154.097z"/>
		</g>
	</g>
	<g>
		<g>
			<path class="st0" d="M195.092,174.943c-0.314-0.766-1.188-1.132-1.957-0.818c-0.767,0.314-1.133,1.19-0.818,1.957
				c1.16,2.828-0.496,6.243-2.73,8.154c-2.611,2.232-6.239,3.314-9.44,4.27c-7.23,2.158-13.786,3.487-20.727,4.896
				c-6.704,1.359-13.637,2.765-22.189,5.071c-0.8,0.216-1.273,1.039-1.058,1.839c0.181,0.669,0.786,1.109,1.447,1.109
				c0.129,0,0.261-0.017,0.392-0.052c8.461-2.281,15.346-3.678,22.004-5.028c7.01-1.421,13.63-2.764,20.988-4.96
				c3.486-1.04,7.438-2.22,10.532-4.865C194.496,183.984,196.872,179.283,195.092,174.943z"/>
		</g>
	</g>
	<g>
		<g>
			<rect x="16.154" y="175.146" class="st2" width="47.25" height="64.397"/>
		</g>
	</g>
	<g>
		<g>
			<path class="st0" d="M63.403,173.646H44.846c-0.828,0-1.5,0.672-1.5,1.5s0.672,1.5,1.5,1.5h17.058v61.397h-44.25v-61.397h13
				c0.828,0,1.5-0.672,1.5-1.5s-0.672-1.5-1.5-1.5h-14.5c-0.828,0-1.5,0.672-1.5,1.5v64.397c0,0.828,0.672,1.5,1.5,1.5h47.25
				c0.828,0,1.5-0.672,1.5-1.5v-64.397C64.903,174.318,64.231,173.646,63.403,173.646z"/>
		</g>
	</g>
	<g>
		<g>
			<path class="st1" d="M81.746,175.146H63.404v64.397h18.342c4.413,0,7.991-3.578,7.991-7.991v-48.415
				C89.737,178.724,86.159,175.146,81.746,175.146z"/>
		</g>
	</g>
	<g>
		<g>
			<path class="st0" d="M89.737,200.435c0.828,0,1.5-0.672,1.5-1.5v-15.797c0-5.233-4.258-9.491-9.491-9.491H63.403
				c-0.828,0-1.5,0.672-1.5,1.5v64.397c0,0.828,0.672,1.5,1.5,1.5h18.343c5.233,0,9.491-4.258,9.491-9.491v-17.897
				c0-0.828-0.672-1.5-1.5-1.5c-0.828,0-1.5,0.672-1.5,1.5v17.897c0,3.579-2.912,6.491-6.491,6.491H64.903v-61.397h16.843
				c3.579,0,6.491,2.912,6.491,6.491v15.797C88.237,199.763,88.909,200.435,89.737,200.435z"/>
		</g>
	</g>
	<g>
		<g>
			<path class="st6" d="M232.024,157.095c-1.45-0.07-2.9,0.25-4.18,0.92l-4.22,2.2c0.69,1.08,1.08,2.35,1.05,3.69
				c-0.04,1.71-0.69,2.98-2.03,3.91l-59.17,45.49c-7.07,4.959-16.561,5.97-16.545,6.11l14.015-0.43c5.78-0.37,11.4-2.34,16.2-5.68
				l59.17-45.49c1.34-0.93,1.98-2.2,2.03-3.91C238.434,160.365,235.544,157.245,232.024,157.095z"/>
		</g>
	</g>
	<g>
		<g>
			<path class="st4" d="M209.388,135.16c-0.004-0.021-0.006-0.042-0.01-0.064c-0.071-0.358-0.176-0.703-0.307-1.035
				c-0.011-0.028-0.019-0.056-0.031-0.084c-0.14-0.339-0.312-0.662-0.509-0.966c-0.015-0.024-0.028-0.048-0.044-0.072
				c-0.22-0.33-0.47-0.638-0.75-0.918c-0.001-0.001-0.001-0.002-0.002-0.003l-17.8-17.801c-2.343-2.343-6.143-2.343-8.485,0
				c-2.344,2.343-2.344,6.142-0.001,8.485l7.558,7.558h-10.264l-64.66-47.026l-11.394-8.287l-20.268-14.74
				c-1.025-0.746-2.261-1.147-3.529-1.147H51.007c-3.313,0-6,2.687-6,6s2.687,6,6,6h25.936l96.321,70.053
				c1.025,0.746,2.261,1.147,3.529,1.147h12.215l-7.557,7.558c-2.344,2.343-2.344,6.142,0,8.484
				c1.171,1.172,2.707,1.758,4.242,1.758s3.071-0.586,4.242-1.758l17.792-17.792c0.284-0.284,0.54-0.596,0.763-0.932
				c0.013-0.02,0.024-0.041,0.037-0.06c0.2-0.308,0.373-0.634,0.514-0.977c0.01-0.025,0.018-0.05,0.027-0.075
				c0.132-0.334,0.238-0.682,0.309-1.043c0.004-0.02,0.005-0.04,0.009-0.06c0.066-0.357,0.105-0.724,0.105-1.1v-0.005
				C209.493,135.882,209.454,135.517,209.388,135.16z"/>
		</g>
	</g>
	<g>
		<g>
			<path class="st0" d="M210.869,134.925c-0.004-0.028-0.014-0.09-0.02-0.118c-0.084-0.43-0.213-0.866-0.371-1.267
				c-0.011-0.028-0.038-0.104-0.05-0.133c-0.17-0.414-0.385-0.821-0.627-1.195c-0.013-0.021-0.051-0.084-0.064-0.104
				c-0.276-0.414-0.591-0.8-0.94-1.15l-17.8-17.8c-1.416-1.417-3.3-2.197-5.303-2.197c-2.004,0-3.888,0.78-5.304,2.197
				c-2.925,2.924-2.925,7.682-0.001,10.606l4.997,4.997h-6.155l-64.266-46.738c-0.668-0.487-1.607-0.34-2.095,0.331
				c-0.487,0.67-0.34,1.608,0.331,2.095l64.66,47.025c0.256,0.187,0.564,0.287,0.882,0.287h10.264c0.606,0,1.153-0.365,1.386-0.926
				s0.104-1.206-0.325-1.635l-7.558-7.557c-1.754-1.755-1.754-4.609,0.001-6.364c0.85-0.85,1.98-1.318,3.183-1.318
				c1.201,0,2.332,0.468,3.182,1.318l17.801,17.801c0.206,0.207,0.396,0.439,0.542,0.658c0.008,0.013,0.046,0.076,0.055,0.089
				c0.152,0.235,0.28,0.479,0.365,0.683c0.008,0.021,0.028,0.08,0.037,0.102c0.104,0.263,0.181,0.523,0.221,0.721
				c0.003,0.023,0.012,0.08,0.017,0.104c0.054,0.29,0.08,0.559,0.08,0.828c0,0.266-0.026,0.536-0.088,0.873
				c-0.049,0.251-0.127,0.514-0.25,0.833c-0.104,0.252-0.233,0.497-0.415,0.78c-0.167,0.252-0.359,0.486-0.573,0.7l-17.793,17.792
				c-0.849,0.851-1.979,1.318-3.181,1.318s-2.332-0.468-3.182-1.318c-0.851-0.85-1.318-1.979-1.318-3.182s0.468-2.332,1.318-3.182
				l7.558-7.558c0.429-0.429,0.558-1.074,0.325-1.635s-0.779-0.926-1.386-0.926h-12.216c-0.958,0-1.873-0.298-2.647-0.86
				L77.824,69.847c-0.256-0.187-0.564-0.287-0.882-0.287H51.007c-2.481,0-4.5-2.019-4.5-4.5s2.019-4.5,4.5-4.5h27.887
				c0.957,0,1.873,0.297,2.647,0.86l20.268,14.74c0.666,0.486,1.607,0.34,2.095-0.331c0.487-0.67,0.339-1.608-0.331-2.095
				L83.305,58.994c-1.29-0.938-2.815-1.434-4.411-1.434H51.007c-4.136,0-7.5,3.364-7.5,7.5s3.364,7.5,7.5,7.5h25.448l95.926,69.765
				c1.29,0.938,2.815,1.435,4.412,1.435h8.595l-4.997,4.997c-1.417,1.416-2.197,3.3-2.197,5.303s0.78,3.887,2.196,5.303
				c1.416,1.417,3.3,2.197,5.304,2.197s3.888-0.78,5.303-2.197l17.79-17.79c0.355-0.354,0.677-0.746,0.933-1.134
				c0.01-0.014,0.057-0.089,0.065-0.103c0.254-0.389,0.471-0.801,0.645-1.225c0.003-0.007,0.033-0.089,0.036-0.096
				c0.172-0.437,0.302-0.876,0.397-1.378c0.087-0.467,0.131-0.93,0.131-1.38C210.993,135.807,210.95,135.358,210.869,134.925z"/>
		</g>
	</g>
	<g>
		<g>
			<path class="st4" d="M210.887,63.956c-0.004-0.02-0.005-0.039-0.009-0.059c-0.071-0.36-0.177-0.708-0.309-1.042
				c-0.01-0.025-0.018-0.051-0.028-0.076c-0.141-0.343-0.314-0.667-0.513-0.975c-0.014-0.021-0.025-0.043-0.039-0.063
				c-0.222-0.333-0.475-0.644-0.757-0.926l-17.797-17.797c-2.342-2.343-6.143-2.343-8.484,0c-2.344,2.343-2.344,6.142,0,8.485
				l7.557,7.557h-12.215c-1.269,0-2.504,0.402-3.529,1.147L78.442,130.26H52.507c-3.313,0-6,2.687-6,6s2.687,6,6,6h27.887
				c1.268,0,2.504-0.401,3.529-1.147l96.321-70.053h10.264l-7.557,7.557c-2.344,2.343-2.344,6.142,0,8.485
				c1.171,1.171,2.707,1.757,4.242,1.757s3.071-0.586,4.242-1.757l17.797-17.797c0.282-0.282,0.535-0.593,0.757-0.926
				c0.014-0.021,0.025-0.042,0.039-0.063c0.199-0.307,0.372-0.632,0.513-0.975c0.01-0.025,0.018-0.051,0.028-0.076
				c0.132-0.334,0.238-0.682,0.309-1.042c0.004-0.02,0.005-0.039,0.009-0.059c0.067-0.358,0.106-0.726,0.106-1.104
				S210.954,64.314,210.887,63.956z"/>
		</g>
	</g>
	<g>
		<g>
			<path class="st0" d="M212.351,63.61c-0.086-0.438-0.216-0.878-0.376-1.28c-0.01-0.029-0.035-0.097-0.047-0.125
				c-0.173-0.419-0.389-0.829-0.618-1.181c-0.017-0.028-0.053-0.088-0.07-0.115c-0.277-0.416-0.595-0.804-0.945-1.155
				l-17.798-17.797c-1.416-1.417-3.299-2.196-5.303-2.196s-3.887,0.78-5.303,2.196c-1.417,1.417-2.197,3.3-2.197,5.303
				s0.78,3.887,2.197,5.303l4.996,4.997h-8.594c-1.596,0-3.121,0.496-4.411,1.435L77.955,128.76H52.507c-4.136,0-7.5,3.364-7.5,7.5
				s3.364,7.5,7.5,7.5h27.887c1.597,0,3.122-0.496,4.411-1.435l95.928-69.765h6.154l-4.996,4.997
				c-1.417,1.417-2.197,3.3-2.197,5.303s0.78,3.887,2.197,5.303c1.416,1.417,3.299,2.197,5.303,2.197s3.887-0.78,5.303-2.197
				l17.8-17.799c0.351-0.352,0.668-0.74,0.943-1.154c0.003-0.005,0.045-0.073,0.048-0.078c0.253-0.39,0.469-0.8,0.642-1.218
				c0.002-0.006,0.032-0.089,0.035-0.095c0.171-0.432,0.301-0.872,0.398-1.381c0.087-0.468,0.131-0.931,0.131-1.377
				S212.449,64.15,212.351,63.61z M209.405,65.936c-0.049,0.254-0.127,0.516-0.25,0.833c-0.103,0.249-0.232,0.495-0.384,0.729
				c-0.011,0.016-0.03,0.048-0.047,0.076c-0.162,0.241-0.349,0.468-0.552,0.672l-17.798,17.797c-0.85,0.85-1.979,1.318-3.182,1.318
				s-2.332-0.468-3.182-1.318c-0.851-0.85-1.318-1.98-1.318-3.182c0-1.202,0.468-2.332,1.318-3.182l7.557-7.557
				c0.429-0.429,0.558-1.074,0.325-1.635s-0.779-0.926-1.386-0.926h-10.264c-0.317,0-0.626,0.101-0.882,0.287L83.04,139.899
				c-0.773,0.563-1.688,0.86-2.646,0.86H52.507c-2.481,0-4.5-2.019-4.5-4.5s2.019-4.5,4.5-4.5h25.936
				c0.317,0,0.626-0.101,0.882-0.287l96.321-70.052c0.774-0.563,1.69-0.861,2.647-0.861h12.215c0.606,0,1.153-0.365,1.386-0.926
				s0.104-1.206-0.325-1.635l-7.557-7.557c-0.851-0.85-1.318-1.98-1.318-3.182c0-1.202,0.468-2.332,1.318-3.182
				c0.85-0.85,1.979-1.317,3.182-1.317s2.332,0.468,3.182,1.317l17.797,17.796c0.21,0.211,0.402,0.445,0.537,0.646
				c0.013,0.023,0.046,0.078,0.061,0.101c0.153,0.235,0.283,0.481,0.367,0.683c0.008,0.023,0.03,0.083,0.039,0.106
				c0.103,0.259,0.18,0.52,0.237,0.82c0.054,0.292,0.08,0.563,0.08,0.831S209.467,65.599,209.405,65.936z"/>
		</g>
	</g>
	<g>
		<g>
			
				<ellipse transform="matrix(0.0985 -0.9951 0.9951 0.0985 -156.0619 280.0976)" class="st4" cx="76.57" cy="226.188" rx="6.028" ry="6.028"/>
		</g>
	</g>
	<g>
		<g>
			<path class="st0" d="M76.57,218.66c-4.15,0-7.527,3.377-7.527,7.528c0,4.15,3.377,7.527,7.527,7.527
				c4.15,0,7.527-3.377,7.527-7.527C84.098,222.037,80.721,218.66,76.57,218.66z M76.57,230.716c-2.496,0-4.527-2.031-4.527-4.527
				c0-2.497,2.031-4.528,4.527-4.528s4.527,2.031,4.527,4.528C81.098,228.685,79.066,230.716,76.57,230.716z"/>
		</g>
	</g>
</g>
</svg>
