<?xml version="1.0" encoding="utf-8"?>
<!-- Generator: Adobe Illustrator 22.0.1, SVG Export Plug-In . SVG Version: 6.00 Build 0)  -->
<svg version="1.1" id="Layer_1" xmlns="http://www.w3.org/2000/svg" xmlns:xlink="http://www.w3.org/1999/xlink" x="0px" y="0px"
	 viewBox="0 0 256 256" style="enable-background:new 0 0 256 256;" xml:space="preserve">
<style type="text/css">
	.st0{fill:#3A312A;}
	.st1{fill:#8AC6DD;}
	.st2{fill:#F16C7A;}
	.st3{fill:#D7E057;}
	.st4{fill:#87796F;}
	.st5{fill:#FCE8CB;}
	.st6{fill:#DECAAD;}
	.st7{fill:#D6DF58;}
	.st8{fill:#FAE6CA;}
	.st9{fill:#DDC9AC;}
	.st10{fill:#D5DE58;}
	.st11{fill:#ED6E7A;}
	.st12{fill:#8AC5DC;}
	.st13{fill:#6CA8BF;}
	.st14{fill:#695B51;}
	.st15{fill:#F8E4C8;}
	.st16{fill:#EF6D7A;}
	.st17{fill-rule:evenodd;clip-rule:evenodd;fill:#F8E4C8;}
	.st18{fill:#89C4DB;}
	.st19{fill:#F59689;}
	.st20{fill:#D34E5C;}
	.st21{fill:#F7E3C7;}
	.st22{fill:#8AC3DA;}
	.st23{fill-rule:evenodd;clip-rule:evenodd;fill:#F7E3C7;}
	.st24{fill-rule:evenodd;clip-rule:evenodd;fill:#87796F;}
	.st25{fill:#B9C239;}
	.st26{fill:#D4DB56;}
	.st27{fill-rule:evenodd;clip-rule:evenodd;fill:#F16C7A;}
	.st28{fill-rule:evenodd;clip-rule:evenodd;fill:#F6E2C6;}
	.st29{fill:#F6E2C6;}
	.st30{fill-rule:evenodd;clip-rule:evenodd;fill:#FAE6CA;}
	.st31{fill:#B8C136;}
</style>
<g>
	<g>
		<g>
			<path class="st7" d="M47.946,26.221c-0.974,11.564-13.025,13.39-13.025,13.39c10.347,0.487,12.925,14.059,12.925,14.059
				c0.221-9.677,13.321-14.202,13.321-14.202C51.355,38.88,47.946,26.221,47.946,26.221z"/>
		</g>
	</g>
	<g>
		<g>
			<path class="st0" d="M61.258,37.97c-8.604-0.515-11.832-12.024-11.863-12.141c-0.19-0.703-0.851-1.163-1.584-1.102
				c-0.725,0.066-1.298,0.642-1.359,1.367C45.592,36.31,35.139,38.059,34.697,38.127c-0.763,0.115-1.313,0.79-1.273,1.561
				c0.04,0.77,0.657,1.384,1.428,1.421c9.027,0.425,11.498,12.718,11.521,12.842c0.138,0.711,0.76,1.217,1.473,1.217
				c0.042,0,0.084-0.002,0.126-0.005c0.764-0.064,1.357-0.693,1.375-1.459c0.194-8.509,12.191-12.777,12.313-12.819
				c0.676-0.235,1.092-0.914,0.994-1.623C62.556,38.554,61.972,38.013,61.258,37.97z M47.691,48.315
				c-1.356-3.13-3.708-6.907-7.586-8.876c2.931-1.405,6.408-3.913,8.201-8.273c1.551,3.071,4.2,6.88,8.334,8.722
				C53.634,41.529,49.718,44.294,47.691,48.315z"/>
		</g>
	</g>
	<g>
		<g>
			<path class="st7" d="M26.248,43.201c-0.689,8.179-9.212,9.471-9.212,9.471c7.318,0.344,9.142,9.944,9.142,9.944
				c0.156-6.844,9.422-10.045,9.422-10.045C28.658,52.155,26.248,43.201,26.248,43.201z"/>
		</g>
	</g>
	<g>
		<g>
			<path class="st0" d="M35.689,51.073c-5.767-0.345-7.972-8.185-7.993-8.265c-0.19-0.702-0.861-1.165-1.582-1.102
				c-0.726,0.066-1.3,0.642-1.361,1.368c-0.579,6.871-7.646,8.067-7.942,8.114c-0.763,0.115-1.313,0.79-1.273,1.56
				c0.04,0.77,0.657,1.384,1.428,1.421c6.035,0.284,7.724,8.644,7.739,8.726c0.136,0.712,0.759,1.22,1.473,1.22
				c0.041,0,0.083-0.001,0.125-0.005c0.765-0.063,1.358-0.694,1.376-1.461c0.13-5.709,8.331-8.633,8.412-8.661
				c0.676-0.234,1.093-0.913,0.996-1.622C36.988,51.658,36.403,51.116,35.689,51.073z M26.104,57.868
				c-0.924-1.886-2.34-3.947-4.447-5.28c1.856-1.041,3.697-2.63,4.871-4.917c1.057,1.874,2.654,3.955,4.941,5.224
				C29.62,53.997,27.48,55.636,26.104,57.868z"/>
		</g>
	</g>
	<g>
		<g>
			<path class="st7" d="M26.21,16.544c-0.657,8.182-9.175,9.507-9.175,9.507c7.319,0.316,9.181,9.909,9.181,9.909
				c0.129-6.845,9.383-10.082,9.383-10.082C28.655,25.489,26.21,16.544,26.21,16.544z"/>
		</g>
	</g>
	<g>
		<g>
			<path class="st0" d="M35.682,24.379c-5.741-0.321-7.983-8.084-8.025-8.232c-0.192-0.703-0.878-1.17-1.586-1.097
				c-0.726,0.068-1.297,0.648-1.355,1.374c-0.552,6.873-7.615,8.097-7.911,8.145c-0.762,0.119-1.31,0.796-1.268,1.566
				c0.043,0.77,0.663,1.382,1.434,1.415c6.036,0.26,7.758,8.614,7.773,8.695c0.138,0.71,0.76,1.214,1.472,1.214
				c0.043,0,0.087-0.002,0.131-0.005c0.765-0.066,1.355-0.699,1.37-1.466c0.107-5.71,8.297-8.666,8.377-8.694
				c0.676-0.236,1.09-0.917,0.99-1.626C36.982,24.958,36.396,24.419,35.682,24.379z M26.124,31.211
				c-0.932-1.882-2.355-3.938-4.468-5.262c1.852-1.048,3.687-2.644,4.852-4.936c1.065,1.87,2.67,3.944,4.961,5.204
				C29.624,27.326,27.491,28.974,26.124,31.211z"/>
		</g>
	</g>
	<g>
		<g>
			<path class="st5" d="M232.084,155.508c-1.67-0.08-3.37,0.28-4.93,1.09l-33.56,17.48h-53.14c-11.58,0-22.92,3.27-32.72,9.44
				l-7.48,4.7c-2.86,1.8-6.18,2.76-9.57,2.76h-0.95v7.87c0.006,0,0.01-0.001,0.016-0.001v14.722c-0.006,0-0.01-0.001-0.016-0.001
				v9.02l71.25-2.19c6.11-0.4,11.99-2.45,17.02-5.95l59.22-45.53c1.94-1.35,2.57-3.24,2.62-5.06
				C239.954,159.508,236.434,155.698,232.084,155.508z"/>
		</g>
	</g>
	<g>
		<g>
			<path class="st0" d="M232.156,154.009c-1.959-0.098-3.928,0.34-5.696,1.258l-33.233,17.31h-52.772
				c-11.879,0-23.471,3.344-33.519,9.67l-7.48,4.7c-2.63,1.655-5.663,2.53-8.771,2.53h-0.95c-0.828,0-1.5,0.671-1.5,1.5v7.87
				c0,0.829,0.672,1.5,1.5,1.5c0.029,0,0.061-0.001,0.094-0.003c0.792-0.04,1.423-0.695,1.423-1.498
				c0-0.076-0.006-0.151-0.017-0.224v-6.153c3.482-0.098,6.866-1.124,9.818-2.982l7.48-4.7c9.57-6.025,20.608-9.21,31.922-9.21
				h53.14c0.241,0,0.479-0.058,0.693-0.169l33.558-17.479c1.295-0.673,2.735-0.987,4.174-0.923c3.519,0.154,6.415,3.274,6.326,6.811
				c-0.047,1.711-0.694,2.977-2.035,3.912l-59.162,45.487c-4.796,3.336-10.419,5.302-16.209,5.682l-69.705,2.143v-7.248
				c0.011-0.073,0.017-0.148,0.017-0.224c0-0.802-0.63-1.458-1.422-1.498c-0.927-0.055-1.595,0.639-1.595,1.497v9.02
				c0,0.406,0.164,0.794,0.456,1.077c0.28,0.272,0.654,0.423,1.044,0.423c0.016,0,0.03,0,0.046,0l71.303-2.193
				c6.388-0.418,12.535-2.567,17.836-6.258l59.162-45.487c2.063-1.435,3.19-3.596,3.264-6.253
				C241.474,158.76,237.264,154.232,232.156,154.009z"/>
		</g>
	</g>
	<g>
		<g>
			<path class="st0" d="M195.092,174.856c-0.313-0.767-1.188-1.134-1.957-0.819c-0.767,0.314-1.133,1.19-0.818,1.957
				c1.16,2.829-0.496,6.244-2.73,8.155c-2.609,2.232-6.238,3.315-9.44,4.271c-7.229,2.158-13.785,3.487-20.726,4.895
				c-6.704,1.36-13.637,2.766-22.19,5.072c-0.8,0.216-1.273,1.039-1.058,1.839c0.181,0.669,0.786,1.11,1.447,1.11
				c0.129,0,0.261-0.017,0.392-0.052c8.462-2.281,15.347-3.678,22.006-5.028c7.008-1.421,13.628-2.764,20.986-4.96
				c3.488-1.041,7.44-2.221,10.532-4.865C194.496,183.897,196.871,179.196,195.092,174.856z"/>
		</g>
	</g>
	<g>
		<g>
			<rect x="16.154" y="175.059" class="st2" width="47.25" height="64.397"/>
		</g>
	</g>
	<g>
		<g>
			<path class="st0" d="M63.403,173.559H44.846c-0.828,0-1.5,0.671-1.5,1.5s0.672,1.5,1.5,1.5h17.058v61.397h-44.25v-61.397h13
				c0.828,0,1.5-0.671,1.5-1.5s-0.672-1.5-1.5-1.5h-14.5c-0.828,0-1.5,0.671-1.5,1.5v64.397c0,0.829,0.672,1.5,1.5,1.5h47.25
				c0.828,0,1.5-0.671,1.5-1.5v-64.397C64.903,174.23,64.231,173.559,63.403,173.559z"/>
		</g>
	</g>
	<g>
		<g>
			<path class="st1" d="M81.746,175.059H63.404v64.397h18.342c4.413,0,7.991-3.578,7.991-7.991V183.05
				C89.737,178.636,86.159,175.059,81.746,175.059z"/>
		</g>
	</g>
	<g>
		<g>
			<path class="st0" d="M89.737,200.347c0.828,0,1.5-0.671,1.5-1.5V183.05c0-5.233-4.258-9.491-9.491-9.491H63.403
				c-0.828,0-1.5,0.671-1.5,1.5v64.397c0,0.829,0.672,1.5,1.5,1.5h18.343c5.233,0,9.491-4.258,9.491-9.491v-17.897
				c0-0.829-0.672-1.5-1.5-1.5c-0.828,0-1.5,0.671-1.5,1.5v17.897c0,3.579-2.912,6.491-6.491,6.491H64.903v-61.397h16.843
				c3.579,0,6.491,2.912,6.491,6.491v15.797C88.237,199.676,88.909,200.347,89.737,200.347z"/>
		</g>
	</g>
	<g>
		<g>
			
				<ellipse transform="matrix(0.9732 -0.2298 0.2298 0.9732 -49.8987 23.6406)" class="st4" cx="76.57" cy="226.1" rx="6.028" ry="6.028"/>
		</g>
	</g>
	<g>
		<g>
			<path class="st0" d="M76.57,218.573c-4.15,0-7.527,3.377-7.527,7.528s3.377,7.528,7.527,7.528c4.15,0,7.527-3.377,7.527-7.528
				S80.721,218.573,76.57,218.573z M76.57,230.628c-2.496,0-4.527-2.031-4.527-4.528s2.031-4.528,4.527-4.528
				s4.527,2.031,4.527,4.528S79.066,230.628,76.57,230.628z"/>
		</g>
	</g>
	<g>
		<g>
			<path class="st6" d="M232.024,157.008c-1.45-0.07-2.9,0.25-4.18,0.92l-4.22,2.2c0.69,1.08,1.08,2.35,1.05,3.69
				c-0.04,1.71-0.69,2.98-2.03,3.91l-59.17,45.49c-7.07,4.959-16.561,5.97-16.545,6.11l14.015-0.43c5.78-0.37,11.4-2.34,16.2-5.68
				l59.17-45.49c1.34-0.93,1.98-2.2,2.03-3.91C238.434,160.277,235.544,157.157,232.024,157.008z"/>
		</g>
	</g>
	<g>
		<g>
			
				<ellipse transform="matrix(0.7071 -0.7071 0.7071 0.7071 -22.5584 115.3826)" class="st3" cx="128" cy="84.922" rx="68.378" ry="68.378"/>
		</g>
	</g>
	<g>
		<g>
			<path class="st0" d="M128,15.044c-38.531,0-69.878,31.347-69.878,69.878c0,38.531,31.347,69.877,69.878,69.877
				s69.878-31.347,69.878-69.877C197.878,46.391,166.531,15.044,128,15.044z M128,151.799c-36.877,0-66.878-30.001-66.878-66.877
				c0-36.876,30.001-66.878,66.878-66.878c36.877,0,66.878,30.002,66.878,66.878C194.878,121.798,164.877,151.799,128,151.799z"/>
		</g>
	</g>
	<g>
		<g>
			<path class="st4" d="M163.152,89.39c-2.566-3.185-6.57-5.432-12.011-6.742c3.582-1.24,6.303-2.927,8.163-5.063
				c2.79-3.203,4.184-7.043,4.184-11.52c0-5.338-1.955-9.815-5.863-13.432c-2.13-1.971-4.783-3.386-7.922-4.282V37.538h-12.31v9.671
				h-16.782v-9.671h-12.311v9.671H97v75.735h11.298v9.683h12.311v-9.683h16.782v9.683h12.31v-10.991
				c3.057-0.517,5.421-1.25,7.069-2.205c3.168-1.825,5.666-4.305,7.491-7.439c1.825-3.133,2.738-6.664,2.738-10.59
				C167,96.58,165.717,92.576,163.152,89.39z M120.609,62.553h10.332c3.547,0,6.036,0.62,7.465,1.86
				c1.429,1.24,2.144,2.962,2.144,5.166c0,2.377-0.715,4.194-2.144,5.45c-1.429,1.258-3.97,1.886-7.62,1.886h-10.177V62.553z
				 M141.067,104.527c-1.653,1.43-4.495,2.144-8.524,2.144h-11.934V91.328h11.882c4.098,0,6.965,0.681,8.601,2.041
				c1.636,1.361,2.454,3.16,2.454,5.398C143.547,101.178,142.72,103.098,141.067,104.527z"/>
		</g>
	</g>
	<g>
		<g>
			<path class="st0" d="M164.32,88.45c-2.085-2.588-5.051-4.613-8.844-6.045c2.016-1.078,3.675-2.36,4.957-3.833
				c3.021-3.469,4.554-7.676,4.554-12.505c0-5.748-2.135-10.637-6.345-14.533c-2.022-1.871-4.521-3.31-7.44-4.287v-9.708
				c0-0.829-0.672-1.5-1.5-1.5h-12.311c-0.828,0-1.5,0.671-1.5,1.5v8.171h-13.782v-8.171c0-0.829-0.672-1.5-1.5-1.5h-12.311
				c-0.828,0-1.5,0.671-1.5,1.5v8.171H97c-0.828,0-1.5,0.671-1.5,1.5v30.382c0,0.829,0.672,1.5,1.5,1.5c0.828,0,1.5-0.671,1.5-1.5
				V48.709h9.799c0.828,0,1.5-0.671,1.5-1.5v-8.171h9.311v8.171c0,0.829,0.672,1.5,1.5,1.5h16.782c0.828,0,1.5-0.671,1.5-1.5v-8.171
				h9.311v9.314c0,0.669,0.444,1.258,1.088,1.442c2.934,0.838,5.395,2.165,7.315,3.942c3.621,3.351,5.382,7.384,5.382,12.331
				c0,4.141-1.248,7.587-3.815,10.535c-1.676,1.924-4.206,3.482-7.521,4.63c-0.63,0.218-1.04,0.825-1.008,1.49
				c0.032,0.665,0.499,1.23,1.147,1.386c5.086,1.224,8.853,3.318,11.194,6.224c2.333,2.898,3.516,6.623,3.516,11.07
				c0,3.641-0.853,6.95-2.534,9.835c-1.684,2.891-4.02,5.21-6.946,6.897c-1.478,0.855-3.688,1.536-6.567,2.023
				c-0.722,0.122-1.25,0.747-1.25,1.479v9.491h-9.311v-8.183c0-0.829-0.672-1.5-1.5-1.5h-16.782c-0.828,0-1.5,0.671-1.5,1.5v8.183
				h-9.311v-8.183c0-0.829-0.672-1.5-1.5-1.5H98.5V91.686c0-0.829-0.672-1.5-1.5-1.5c-0.828,0-1.5,0.671-1.5,1.5v31.258
				c0,0.829,0.672,1.5,1.5,1.5h9.799v8.183c0,0.829,0.672,1.5,1.5,1.5h12.311c0.828,0,1.5-0.671,1.5-1.5v-8.183h13.782v8.183
				c0,0.829,0.672,1.5,1.5,1.5h12.311c0.828,0,1.5-0.671,1.5-1.5v-9.742c2.669-0.534,4.745-1.243,6.318-2.154
				c3.383-1.949,6.087-4.636,8.037-7.984c1.952-3.35,2.942-7.167,2.942-11.346C168.5,96.252,167.094,91.894,164.32,88.45z
				 M119.109,106.671c0,0.829,0.672,1.5,1.5,1.5h11.934c4.443,0,7.552-0.821,9.505-2.509c1.99-1.72,2.999-4.04,2.999-6.895
				c0-2.694-1.008-4.898-2.995-6.552c-1.934-1.606-5.061-2.387-9.561-2.387h-11.882c-0.828,0-1.5,0.671-1.5,1.5V106.671z
				 M122.109,92.828h10.382c4.632,0,6.713,0.921,7.643,1.694c1.287,1.071,1.913,2.459,1.913,4.245c0,1.972-0.642,3.485-1.961,4.625
				h-0.001c-1.364,1.18-3.902,1.779-7.542,1.779h-10.434V92.828z M120.609,78.414h10.177c4.067,0,6.885-0.739,8.611-2.259
				c1.761-1.549,2.653-3.762,2.653-6.577c0-2.647-0.896-4.767-2.661-6.299c-1.728-1.499-4.49-2.227-8.448-2.227h-10.332
				c-0.828,0-1.5,0.671-1.5,1.5v14.361C119.109,77.743,119.781,78.414,120.609,78.414z M122.109,64.053h8.832
				c3.936,0,5.697,0.812,6.481,1.493c1.096,0.951,1.628,2.27,1.628,4.033c0,1.941-0.535,3.356-1.636,4.324
				c-0.783,0.689-2.568,1.511-6.629,1.511h-8.677V64.053z"/>
		</g>
	</g>
</g>
</svg>
