<?xml version="1.0" encoding="utf-8"?>
<!-- Generator: Adobe Illustrator 22.0.0, SVG Export Plug-In . SVG Version: 6.00 Build 0)  -->
<svg version="1.1" id="Layer_1" xmlns="http://www.w3.org/2000/svg" xmlns:xlink="http://www.w3.org/1999/xlink" x="0px" y="0px"
	 viewBox="0 0 256 256" style="enable-background:new 0 0 256 256;" xml:space="preserve">
<style type="text/css">
	.st0{fill:#3A312A;}
	.st1{fill:#8AC6DD;}
	.st2{fill:#F16C7A;}
	.st3{fill:#D7E057;}
	.st4{fill:#87796F;}
	.st5{fill:#FCE8CB;}
	.st6{fill:#DECAAD;}
	.st7{fill:#D6DF58;}
	.st8{fill:#FAE6CA;}
	.st9{fill:#DDC9AC;}
	.st10{fill:#D5DE58;}
	.st11{fill:#ED6E7A;}
	.st12{fill:#8AC5DC;}
	.st13{fill:#6CA8BF;}
	.st14{fill:#695B51;}
	.st15{fill:#F8E4C8;}
	.st16{fill:#EF6D7A;}
	.st17{fill-rule:evenodd;clip-rule:evenodd;fill:#F8E4C8;}
	.st18{fill:#89C4DB;}
	.st19{fill:#F59689;}
	.st20{fill:#D34E5C;}
	.st21{fill:#F7E3C7;}
	.st22{fill:#8AC3DA;}
	.st23{fill-rule:evenodd;clip-rule:evenodd;fill:#F7E3C7;}
	.st24{fill-rule:evenodd;clip-rule:evenodd;fill:#87796F;}
	.st25{fill:#B9C239;}
	.st26{fill:#D4DB56;}
	.st27{fill-rule:evenodd;clip-rule:evenodd;fill:#F16C7A;}
	.st28{fill-rule:evenodd;clip-rule:evenodd;fill:#F6E2C6;}
	.st29{fill:#F6E2C6;}
	.st30{fill-rule:evenodd;clip-rule:evenodd;fill:#FAE6CA;}
	.st31{fill:#B8C136;}
</style>
<g>
	<path class="st0" d="M238.917,129.5h-52.645c-0.829,0-1.5-0.671-1.5-1.5s0.671-1.5,1.5-1.5h52.645c0.829,0,1.5,0.671,1.5,1.5
		S239.746,129.5,238.917,129.5z"/>
	<path class="st0" d="M224.417,144.5c-0.384,0-0.768-0.146-1.061-0.439c-0.586-0.585-0.586-1.536,0-2.121L237.296,128
		l-13.939-13.939c-0.586-0.585-0.586-1.536,0-2.121c0.586-0.586,1.535-0.586,2.121,0l15,15c0.586,0.585,0.586,1.536,0,2.121l-15,15
		C225.185,144.354,224.801,144.5,224.417,144.5z"/>
	<path class="st0" d="M69.272,129.5H17.083c-0.829,0-1.5-0.671-1.5-1.5s0.671-1.5,1.5-1.5h52.189c0.829,0,1.5,0.671,1.5,1.5
		S70.101,129.5,69.272,129.5z"/>
	<path class="st0" d="M31.583,144.5c-0.384,0-0.768-0.146-1.061-0.439l-15-15c-0.586-0.585-0.586-1.536,0-2.121l15-15
		c0.586-0.586,1.535-0.586,2.121,0c0.586,0.585,0.586,1.536,0,2.121L18.704,128l13.939,13.939c0.586,0.585,0.586,1.536,0,2.121
		C32.351,144.354,31.967,144.5,31.583,144.5z"/>
	<path class="st0" d="M128,240.417c-0.829,0-1.5-0.671-1.5-1.5v-52.645c0-0.829,0.671-1.5,1.5-1.5c0.829,0,1.5,0.671,1.5,1.5v52.645
		C129.5,239.746,128.829,240.417,128,240.417z"/>
	<path class="st0" d="M128,240.917c-0.384,0-0.768-0.147-1.061-0.44l-15-15c-0.586-0.585-0.586-1.536,0-2.121
		c0.586-0.586,1.535-0.586,2.121,0L128,237.296l13.939-13.939c0.586-0.586,1.535-0.586,2.121,0c0.586,0.585,0.586,1.536,0,2.121
		l-15,15C128.768,240.77,128.384,240.917,128,240.917z"/>
	<path class="st0" d="M128,70.772c-0.829,0-1.5-0.671-1.5-1.5V17.083c0-0.829,0.671-1.5,1.5-1.5c0.829,0,1.5,0.671,1.5,1.5v52.189
		C129.5,70.101,128.829,70.772,128,70.772z"/>
	<path class="st0" d="M143,33.083c-0.384,0-0.768-0.146-1.061-0.439L128,18.704l-13.94,13.94c-0.586,0.586-1.535,0.586-2.121,0
		c-0.586-0.585-0.586-1.536,0-2.121l15-15c0.586-0.586,1.535-0.586,2.121,0l15,15c0.586,0.585,0.586,1.536,0,2.121
		C143.768,32.937,143.384,33.083,143,33.083z"/>
	<path class="st0" d="M190.514,66.986c-0.384,0-0.768-0.146-1.061-0.439c-0.586-0.585-0.586-1.536,0-2.121l36.903-36.903
		c0.586-0.586,1.535-0.586,2.121,0c0.586,0.585,0.586,1.536,0,2.121l-36.903,36.903C191.281,66.84,190.897,66.986,190.514,66.986z"
		/>
	<path class="st0" d="M211.373,67.34H190.16c-0.829,0-1.5-0.671-1.5-1.5V44.626c0-0.829,0.671-1.5,1.5-1.5
		c0.829,0,1.5,0.671,1.5,1.5V64.34h19.713c0.829,0,1.5,0.671,1.5,1.5C212.873,66.669,212.202,67.34,211.373,67.34z"/>
	<path class="st0" d="M65.063,66.986c-0.384,0-0.768-0.146-1.061-0.439L27.1,29.644c-0.586-0.586-0.586-1.536,0-2.121
		c0.586-0.586,1.535-0.586,2.121,0l36.903,36.903c0.586,0.585,0.586,1.536,0,2.121C65.831,66.84,65.447,66.986,65.063,66.986z"/>
	<path class="st0" d="M65.417,67.34H44.204c-0.829,0-1.5-0.671-1.5-1.5c0-0.829,0.671-1.5,1.5-1.5h19.713V44.626
		c0-0.829,0.671-1.5,1.5-1.5c0.829,0,1.5,0.671,1.5,1.5V65.84C66.917,66.669,66.246,67.34,65.417,67.34z"/>
	<path class="st0" d="M227.417,217.34c-0.384,0-0.768-0.146-1.061-0.439l-36.903-36.903c-0.586-0.586-0.586-1.536,0-2.121
		c0.586-0.586,1.535-0.586,2.121,0l36.903,36.903c0.586,0.585,0.586,1.536,0,2.121C228.185,217.193,227.801,217.34,227.417,217.34z"
		/>
	<path class="st0" d="M190.16,201.296c-0.829,0-1.5-0.671-1.5-1.5v-21.213c0-0.829,0.671-1.5,1.5-1.5h21.213
		c0.829,0,1.5,0.671,1.5,1.5c0,0.829-0.671,1.5-1.5,1.5H191.66v19.713C191.66,200.625,190.989,201.296,190.16,201.296z"/>
	<path class="st0" d="M28.16,217.34c-0.384,0-0.768-0.146-1.061-0.439c-0.586-0.586-0.586-1.536,0-2.121l36.903-36.903
		c0.586-0.586,1.535-0.586,2.121,0c0.586,0.585,0.586,1.536,0,2.121L29.221,216.9C28.928,217.193,28.544,217.34,28.16,217.34z"/>
	<path class="st0" d="M65.417,201.296c-0.829,0-1.5-0.671-1.5-1.5v-19.713H44.204c-0.829,0-1.5-0.671-1.5-1.5
		c0-0.829,0.671-1.5,1.5-1.5h21.213c0.829,0,1.5,0.671,1.5,1.5v21.213C66.917,200.625,66.246,201.296,65.417,201.296z"/>
	<path class="st3" d="M87.103,85.971C76.042,96.634,69.15,111.593,69.15,128.17c0,32.376,26.246,58.622,58.622,58.622
		c32.376,0,58.622-26.246,58.622-58.622s-26.246-58.622-58.622-58.622c-10.728,0-20.775,2.896-29.425,7.928L87.103,85.971z"/>
	<path class="st0" d="M127.772,188.292c-33.151,0-60.122-26.971-60.122-60.123c0-16.463,6.539-31.834,18.413-43.279
		c0.596-0.574,1.546-0.558,2.121,0.039c0.575,0.597,0.558,1.546-0.039,2.121C76.863,97.926,70.65,112.529,70.65,128.17
		c0,31.498,25.625,57.123,57.122,57.123c31.497,0,57.122-25.625,57.122-57.123c0-31.497-25.625-57.122-57.122-57.122
		c-10.069,0-19.984,2.671-28.67,7.724c-0.716,0.417-1.634,0.174-2.051-0.542c-0.417-0.716-0.174-1.634,0.542-2.051
		c9.145-5.319,19.581-8.131,30.179-8.131c33.152,0,60.122,26.971,60.122,60.122C187.894,161.322,160.924,188.292,127.772,188.292z"
		/>
	<path class="st4" d="M123.792,169.151v-9.541c-6.729-0.302-13.257-2.11-17.074-4.319l3.013-11.751
		c4.219,2.309,10.144,4.419,16.674,4.419c5.725,0,9.642-2.209,9.642-6.228c0-3.815-3.214-6.226-10.647-8.738
		c-10.747-3.615-18.079-8.638-18.079-18.381c0-8.84,6.228-15.77,16.975-17.88v-9.542h9.844v8.84
		c6.729,0.3,11.249,1.708,14.564,3.315l-2.913,11.349c-2.611-1.106-7.232-3.415-14.463-3.415c-6.529,0-8.639,2.813-8.639,5.624
		c0,3.315,3.516,5.425,12.054,8.638c11.952,4.219,16.774,9.744,16.774,18.783c0,8.94-6.329,16.574-17.88,18.581v10.245H123.792z"/>
	<path class="st0" d="M133.636,170.651h-9.844c-0.829,0-1.5-0.671-1.5-1.5v-8.129c-6.184-0.465-12.334-2.123-16.326-4.433
		c-0.582-0.337-0.869-1.02-0.702-1.671l3.013-11.751c0.115-0.449,0.431-0.819,0.856-1.003c0.425-0.185,0.911-0.163,1.317,0.06
		c2.889,1.582,8.804,4.235,15.954,4.235c1.91,0,8.143-0.341,8.143-4.728c0-2.44-1.637-4.617-9.627-7.316
		c-8.892-2.991-19.1-7.945-19.1-19.802c0-9.379,6.469-16.606,16.975-19.09v-8.332c0-0.829,0.671-1.5,1.5-1.5h9.844
		c0.829,0,1.5,0.671,1.5,1.5v7.423c5.306,0.373,9.806,1.484,13.719,3.382c0.642,0.312,0.976,1.032,0.798,1.723l-2.913,11.349
		c-0.109,0.423-0.396,0.778-0.788,0.971c-0.392,0.193-0.848,0.207-1.251,0.037l-0.747-0.322c-2.727-1.185-6.847-2.975-13.132-2.975
		c-2.666,0-7.139,0.536-7.139,4.125c0,2.262,2.9,4.155,11.082,7.234c12.43,4.387,17.746,10.428,17.746,20.187
		c0,9.799-6.973,17.468-17.879,19.817v9.009C135.136,169.98,134.465,170.651,133.636,170.651z M125.292,167.651h6.844v-8.746
		c0-0.73,0.524-1.353,1.243-1.478c10.262-1.783,16.636-8.336,16.636-17.103c0-8.382-4.57-13.414-15.773-17.369
		c-8.854-3.333-13.054-5.682-13.054-10.053c0-1.671,0.731-7.125,10.139-7.125c6.224,0,10.609,1.637,13.447,2.843l2.165-8.435
		c-3.641-1.564-7.865-2.436-12.866-2.659c-0.802-0.036-1.433-0.696-1.433-1.499v-7.34h-6.844v8.042c0,0.717-0.507,1.334-1.211,1.472
		c-9.871,1.938-15.764,8.071-15.764,16.408c0,7.866,5.102,12.938,17.058,16.959c7.005,2.367,11.669,4.999,11.669,10.159
		c0,4.767-4.27,7.728-11.143,7.728c-6.596,0-12.208-2.053-15.688-3.727l-2.255,8.794c3.905,1.95,9.789,3.334,15.397,3.586
		c0.801,0.036,1.433,0.696,1.433,1.499V167.651z"/>
	<path class="st25" d="M127.772,71.05c-2.71,0-5.38,0.19-8,0.56c27.72,3.9,49.12,27.77,49.12,56.56s-21.4,52.66-49.12,56.56
		c2.62,0.37,5.29,0.56,8,0.56c31.5,0,57.12-25.62,57.12-57.12S159.272,71.05,127.772,71.05z"/>
</g>
</svg>
