<?xml version="1.0" encoding="utf-8"?>
<!-- Generator: Adobe Illustrator 22.0.1, SVG Export Plug-In . SVG Version: 6.00 Build 0)  -->
<svg version="1.1" id="Layer_1" xmlns="http://www.w3.org/2000/svg" xmlns:xlink="http://www.w3.org/1999/xlink" x="0px" y="0px"
	 viewBox="0 0 256 256" style="enable-background:new 0 0 256 256;" xml:space="preserve">
<style type="text/css">
	.st0{fill:#3A312A;}
	.st1{fill:#8AC6DD;}
	.st2{fill:#F16C7A;}
	.st3{fill:#D7E057;}
	.st4{fill:#87796F;}
	.st5{fill:#FCE8CB;}
	.st6{fill:#DECAAD;}
	.st7{fill:#D6DF58;}
	.st8{fill:#FAE6CA;}
	.st9{fill:#DDC9AC;}
	.st10{fill:#D5DE58;}
	.st11{fill:#ED6E7A;}
	.st12{fill:#8AC5DC;}
	.st13{fill:#6CA8BF;}
	.st14{fill:#695B51;}
	.st15{fill:#F8E4C8;}
	.st16{fill:#EF6D7A;}
	.st17{fill-rule:evenodd;clip-rule:evenodd;fill:#F8E4C8;}
	.st18{fill:#89C4DB;}
	.st19{fill:#F59689;}
	.st20{fill:#D34E5C;}
	.st21{fill:#F7E3C7;}
	.st22{fill:#8AC3DA;}
	.st23{fill-rule:evenodd;clip-rule:evenodd;fill:#F7E3C7;}
	.st24{fill-rule:evenodd;clip-rule:evenodd;fill:#87796F;}
	.st25{fill:#B9C239;}
	.st26{fill:#D4DB56;}
	.st27{fill-rule:evenodd;clip-rule:evenodd;fill:#F16C7A;}
	.st28{fill-rule:evenodd;clip-rule:evenodd;fill:#F6E2C6;}
	.st29{fill:#F6E2C6;}
	.st30{fill-rule:evenodd;clip-rule:evenodd;fill:#FAE6CA;}
	.st31{fill:#B8C136;}
</style>
<g>
	<g>
		<g>
			<path class="st7" d="M47.336,167.918c-0.974,11.564-13.024,13.389-13.024,13.389c10.347,0.487,12.925,14.059,12.925,14.059
				c0.221-9.677,13.321-14.202,13.321-14.202C50.745,180.577,47.336,167.918,47.336,167.918z"/>
		</g>
	</g>
	<g>
		<g>
			<path class="st0" d="M60.648,179.667c-8.605-0.514-11.832-12.024-11.864-12.141c-0.191-0.703-0.858-1.164-1.583-1.102
				c-0.725,0.066-1.298,0.642-1.359,1.367c-0.86,10.215-11.313,11.964-11.754,12.033c-0.763,0.115-1.313,0.79-1.273,1.561
				c0.04,0.77,0.657,1.384,1.428,1.421c9.028,0.425,11.499,12.718,11.523,12.842c0.137,0.711,0.759,1.217,1.472,1.217
				c0.042,0,0.084-0.001,0.126-0.005c0.764-0.064,1.357-0.693,1.375-1.459c0.195-8.508,12.192-12.777,12.313-12.819
				c0.675-0.235,1.092-0.915,0.994-1.623C61.946,180.251,61.362,179.71,60.648,179.667z M47.082,190.013
				c-1.356-3.131-3.709-6.908-7.587-8.877c2.931-1.405,6.409-3.913,8.202-8.272c1.551,3.071,4.2,6.88,8.334,8.722
				C53.024,183.226,49.108,185.992,47.082,190.013z"/>
		</g>
	</g>
	<g>
		<g>
			<path class="st7" d="M25.638,184.899c-0.689,8.179-9.212,9.47-9.212,9.47c7.318,0.344,9.142,9.944,9.142,9.944
				c0.156-6.844,9.422-10.045,9.422-10.045C28.049,193.853,25.638,184.899,25.638,184.899z"/>
		</g>
	</g>
	<g>
		<g>
			<path class="st0" d="M35.079,192.771c-5.766-0.345-7.972-8.185-7.994-8.264c-0.191-0.702-0.85-1.168-1.582-1.102
				c-0.726,0.065-1.299,0.643-1.36,1.368c-0.579,6.87-7.646,8.066-7.942,8.113c-0.763,0.115-1.313,0.79-1.274,1.561
				c0.04,0.77,0.657,1.384,1.428,1.421c6.035,0.284,7.723,8.644,7.739,8.726c0.135,0.713,0.759,1.22,1.473,1.22
				c0.041,0,0.083-0.001,0.125-0.005c0.765-0.063,1.358-0.694,1.376-1.461c0.13-5.709,8.332-8.634,8.413-8.662
				c0.677-0.234,1.094-0.913,0.996-1.622C36.378,193.355,35.794,192.813,35.079,192.771z M25.495,199.565
				c-0.924-1.885-2.34-3.947-4.447-5.28c1.855-1.041,3.697-2.629,4.871-4.916c1.057,1.874,2.654,3.955,4.941,5.224
				C29.01,195.694,26.871,197.334,25.495,199.565z"/>
		</g>
	</g>
	<g>
		<g>
			<path class="st7" d="M25.638,158.241c-0.689,8.179-9.212,9.471-9.212,9.471c7.318,0.344,9.142,9.944,9.142,9.944
				c0.156-6.844,9.422-10.045,9.422-10.045C28.049,167.195,25.638,158.241,25.638,158.241z"/>
		</g>
	</g>
	<g>
		<g>
			<path class="st0" d="M35.08,166.113c-5.766-0.345-7.973-8.186-7.994-8.265c-0.191-0.702-0.85-1.169-1.582-1.102
				c-0.726,0.065-1.299,0.643-1.36,1.368c-0.579,6.871-7.646,8.067-7.942,8.114c-0.763,0.115-1.313,0.79-1.274,1.561
				c0.04,0.77,0.657,1.384,1.428,1.421c6.035,0.284,7.723,8.644,7.739,8.726c0.135,0.713,0.759,1.22,1.472,1.22
				c0.042,0,0.083-0.001,0.125-0.005c0.765-0.063,1.358-0.694,1.376-1.461c0.13-5.709,8.332-8.634,8.413-8.662
				c0.676-0.234,1.094-0.913,0.996-1.622C36.378,166.698,35.794,166.156,35.08,166.113z M25.495,172.908
				c-0.924-1.885-2.34-3.947-4.447-5.28c1.855-1.041,3.697-2.63,4.871-4.916c1.057,1.874,2.654,3.954,4.941,5.223
				C29.01,169.037,26.871,170.676,25.495,172.908z"/>
		</g>
	</g>
	<g>
		<g>
			<path class="st5" d="M188.542,16.83h-24.92c-11.48,0-22.16,5.92-28.25,15.65l-9.51,15.21c-6.39,10.22-17.8,16.19-29.84,15.61
				l-8.93-0.43v57.75h84.54L182.222,38h5.88c5.79,0,10.84-4.47,11.02-10.26C199.302,21.75,194.492,16.83,188.542,16.83z"/>
		</g>
	</g>
	<g>
		<g>
			<path class="st0" d="M197.214,19.001c-2.297-2.368-5.378-3.671-8.672-3.671h-24.92c-12.076,0-23.112,6.114-29.522,16.354
				l-9.51,15.21c-6.095,9.749-17.018,15.458-28.496,14.907l-8.93-0.43c-0.423-0.026-0.811,0.128-1.107,0.412
				c-0.297,0.283-0.465,0.676-0.465,1.086v57.75c0,0.829,0.671,1.5,1.5,1.5h84.539c0.755,0,1.392-0.561,1.488-1.309L183.542,39.5
				h4.56c6.702,0,12.318-5.254,12.519-11.713v-0.002C200.721,24.487,199.511,21.368,197.214,19.001z M188.102,36.5h-5.88
				c-0.755,0-1.392,0.56-1.488,1.309l-10.422,81.311h-81.72V64.444l7.357,0.354c12.566,0.617,24.515-5.646,31.185-16.313
				l9.509-15.21c5.857-9.358,15.943-14.946,26.978-14.946h24.92c2.477,0,4.792,0.98,6.52,2.761c1.726,1.778,2.635,4.123,2.561,6.603
				C197.472,32.549,193.201,36.5,188.102,36.5z"/>
		</g>
	</g>
	<g>
		<g>
			<path class="st4" d="M193.407,115.7l11.997-32.792h-0.026c0.464-1.497,0.714-3.088,0.714-4.738c0-8.836-7.164-16-16-16
				c-8.837,0-16,7.164-16,16c0-8.836-7.164-16-16-16c-8.837,0-16,7.164-16,16c0-8.836-7.164-16-16-16s-16,7.164-16,16
				c0,1.65,0.251,3.241,0.714,4.738h-0.026l11.997,32.792c-27.316,13.157-46.168,41.103-46.168,73.453
				c0,45.002,36.481,50.017,81.483,50.017c45.001,0,81.482-5.016,81.482-50.017C239.575,156.803,220.723,128.857,193.407,115.7z"/>
		</g>
	</g>
	<g>
		<g>
			<path class="st0" d="M195.279,114.949l11.534-31.526c0.041-0.111,0.067-0.225,0.079-0.34c0.465-1.592,0.701-3.243,0.701-4.913
				c0-9.649-7.851-17.5-17.5-17.5c-7.128,0-13.274,4.284-16,10.413c-2.726-6.129-8.872-10.413-16-10.413
				c-7.128,0-13.274,4.284-16,10.413c-2.726-6.129-8.872-10.413-16-10.413c-9.649,0-17.5,7.851-17.5,17.5
				c0,1.667,0.235,3.316,0.698,4.905c0.013,0.118,0.041,0.235,0.082,0.349l11.533,31.525
				c-27.864,13.999-45.796,42.974-45.796,74.204c0,21.334,8.09,35.48,24.731,43.244c15.586,7.271,37.208,8.274,58.251,8.274
				c21.043,0,42.664-1.002,58.251-8.274c16.642-7.764,24.731-21.909,24.731-43.244C241.075,157.922,223.143,128.947,195.279,114.949
				z M158.092,237.67c-42.149,0-79.983-3.71-79.983-48.518c0-30.54,17.788-58.841,45.319-72.101
				c0.695-0.335,1.023-1.143,0.758-1.867l-11.902-32.533c-0.011-0.063-0.026-0.125-0.045-0.187
				c-0.429-1.387-0.647-2.832-0.647-4.295c0-7.995,6.505-14.5,14.5-14.5s14.5,6.505,14.5,14.5c0,0.829,0.671,1.5,1.5,1.5
				s1.5-0.671,1.5-1.5c0-7.995,6.505-14.5,14.5-14.5c7.995,0,14.5,6.505,14.5,14.5c0,0.829,0.671,1.5,1.5,1.5s1.5-0.671,1.5-1.5
				c0-7.995,6.505-14.5,14.5-14.5c7.995,0,14.5,6.505,14.5,14.5c0,1.463-0.218,2.908-0.647,4.294
				c-0.019,0.062-0.034,0.124-0.044,0.186l-11.903,32.534c-0.265,0.725,0.063,1.532,0.758,1.867
				c27.53,13.26,45.319,41.562,45.319,72.101C238.075,233.959,200.241,237.67,158.092,237.67z"/>
		</g>
	</g>
	<g>
		<g>
			
				<ellipse transform="matrix(0.9239 -0.3827 0.3827 0.9239 -55.3365 73.9)" class="st3" cx="158.092" cy="176.048" rx="38" ry="38"/>
		</g>
	</g>
	<g>
		<g>
			<path class="st0" d="M158.092,136.548c-21.78,0-39.5,17.72-39.5,39.5s17.72,39.5,39.5,39.5c21.78,0,39.5-17.72,39.5-39.5
				S179.873,136.548,158.092,136.548z M158.092,212.548c-20.126,0-36.5-16.374-36.5-36.5s16.374-36.5,36.5-36.5
				c20.126,0,36.5,16.374,36.5,36.5S178.218,212.548,158.092,212.548z"/>
		</g>
	</g>
	<g>
		<g>
			<path class="st4" d="M162.61,171.75c-5.534-2.083-7.814-3.45-7.814-5.599c0-1.822,1.367-3.646,5.6-3.646
				c4.687,0,7.683,1.497,9.375,2.214l1.888-7.356c-2.149-1.042-5.079-1.955-9.441-2.149v-5.73h-6.381v6.185
				c-6.967,1.367-11.003,5.86-11.003,11.59c0,6.316,4.753,9.572,11.719,11.915c4.818,1.628,6.902,3.191,6.902,5.664
				c0,2.605-2.54,4.037-6.251,4.037c-4.232,0-8.073-1.367-10.808-2.864l-1.953,7.617c2.474,1.432,6.706,2.604,11.068,2.8v6.185
				h6.381v-6.641c7.488-1.301,11.59-6.25,11.59-12.044C173.483,178.066,170.357,174.485,162.61,171.75z"/>
		</g>
	</g>
	<g>
		<g>
			<path class="st0" d="M163.138,170.347c-4.923-1.853-6.842-3.029-6.842-4.195c0-1.867,2.569-2.146,4.1-2.146
				c3.965,0,6.576,1.134,8.303,1.885l0.487,0.21c0.402,0.169,0.859,0.156,1.25-0.037c0.392-0.193,0.679-0.548,0.788-0.971
				l1.889-7.357c0.177-0.691-0.157-1.412-0.799-1.723c-2.477-1.201-5.3-1.927-8.595-2.206v-4.323c0-0.829-0.671-1.5-1.5-1.5h-6.381
				c-0.829,0-1.5,0.671-1.5,1.5v4.987c-6.821,1.757-11.003,6.57-11.003,12.788c0,8.022,6.809,11.341,12.74,13.336
				c5.169,1.747,5.882,3.072,5.882,4.243c0,2.415-3.957,2.537-4.75,2.537c-4.518,0-8.26-1.679-10.088-2.68
				c-0.406-0.223-0.893-0.245-1.317-0.06s-0.741,0.555-0.856,1.003l-1.953,7.617c-0.167,0.651,0.12,1.334,0.702,1.671
				c2.547,1.474,6.401,2.547,10.32,2.903v4.784c0,0.829,0.671,1.5,1.5,1.5h6.38c0.829,0,1.5-0.671,1.5-1.5v-5.418
				c7.084-1.68,11.59-6.779,11.59-13.268C174.983,177.338,171.432,173.274,163.138,170.347z M161.636,194.493
				c-0.719,0.125-1.243,0.749-1.243,1.478v5.142h-3.38v-4.685c0-0.802-0.631-1.462-1.433-1.499c-3.389-0.152-6.927-0.95-9.386-2.085
				l1.196-4.666c2.324,1.047,5.793,2.197,9.816,2.197c4.708,0,7.75-2.173,7.75-5.537c0-3.875-3.807-5.695-7.924-7.086
				c-7.499-2.522-10.698-5.66-10.698-10.493c0-5.132,3.661-8.915,9.792-10.118c0.704-0.138,1.211-0.754,1.211-1.472v-4.685h3.381
				v4.23c0,0.802,0.631,1.463,1.433,1.499c2.987,0.133,5.533,0.628,7.739,1.509l-1.138,4.435c-1.878-0.761-4.613-1.65-8.356-1.65
				c-5.235,0-7.1,2.658-7.1,5.146c0,3.424,3.808,5.129,8.814,7.014c8.194,2.892,9.872,6.394,9.872,10.761
				C171.983,189.335,168.019,193.384,161.636,194.493z"/>
		</g>
	</g>
	<g>
		<g>
			<path class="st2" d="M199.092,104.17h-81c-4.142,0-7.5,3.358-7.5,7.5s3.358,7.5,7.5,7.5h81c4.142,0,7.5-3.358,7.5-7.5
				S203.234,104.17,199.092,104.17z"/>
		</g>
	</g>
	<g>
		<g>
			<path class="st0" d="M199.092,102.67h-55.148c-0.829,0-1.5,0.671-1.5,1.5s0.671,1.5,1.5,1.5h55.148c3.309,0,6,2.691,6,6
				s-2.691,6-6,6h-81c-3.309,0-6-2.691-6-6s2.691-6,6-6h12.148c0.829,0,1.5-0.671,1.5-1.5s-0.671-1.5-1.5-1.5h-12.148
				c-4.962,0-9,4.038-9,9s4.038,9,9,9h81c4.962,0,9-4.038,9-9S204.055,102.67,199.092,102.67z"/>
		</g>
	</g>
	<g>
		<g>
			<path class="st5" d="M204.508,101.502h-36.012c-5.845,0-10.583,4.738-10.583,10.583v0c0,5.845,4.739,10.584,10.584,10.584h36.012
				c5.845,0,10.584-4.739,10.584-10.584C215.092,106.241,210.354,101.502,204.508,101.502z"/>
		</g>
	</g>
	<g>
		<g>
			<path class="st0" d="M204.508,100.002h-36.012c-6.663,0-12.083,5.42-12.083,12.083s5.42,12.084,12.083,12.084h36.012
				c6.663,0,12.084-5.421,12.084-12.084S211.171,100.002,204.508,100.002z M204.508,121.17h-36.012
				c-5.009,0-9.083-4.075-9.083-9.084s4.075-9.083,9.083-9.083h36.012c5.009,0,9.084,4.075,9.084,9.083
				S209.517,121.17,204.508,121.17z"/>
		</g>
	</g>
	<g>
		<g>
			<path class="st5" d="M204.508,80.335h-36.011c-5.845,0-10.584,4.738-10.584,10.584c0,5.845,4.739,10.584,10.584,10.584h36.012
				c5.845,0,10.584-4.739,10.584-10.584C215.092,85.073,210.353,80.335,204.508,80.335z"/>
		</g>
	</g>
	<g>
		<g>
			<path class="st0" d="M204.508,78.834h-36.012c-6.663,0-12.083,5.421-12.083,12.084s5.42,12.084,12.083,12.084h36.012
				c6.663,0,12.083-5.421,12.083-12.084S211.171,78.834,204.508,78.834z M204.508,100.002h-36.012c-5.009,0-9.083-4.075-9.083-9.084
				s4.075-9.084,9.083-9.084h36.012c5.009,0,9.083,4.075,9.083,9.084S209.517,100.002,204.508,100.002z"/>
		</g>
	</g>
	<g>
		<g>
			<path class="st5" d="M204.508,59.167h-36.012c-5.845,0-10.584,4.739-10.584,10.584c0,5.845,4.738,10.584,10.584,10.584h36.012
				c5.845,0,10.584-4.739,10.584-10.584v0C215.092,63.906,210.353,59.167,204.508,59.167z"/>
		</g>
	</g>
	<g>
		<g>
			<path class="st0" d="M204.508,57.667h-36.012c-6.663,0-12.083,5.421-12.083,12.084s5.42,12.083,12.083,12.083h36.012
				c6.663,0,12.083-5.42,12.083-12.083S211.171,57.667,204.508,57.667z M204.508,78.834h-36.012c-5.009,0-9.083-4.075-9.083-9.083
				s4.075-9.084,9.083-9.084h36.012c5.009,0,9.083,4.075,9.083,9.084S209.517,78.834,204.508,78.834z"/>
		</g>
	</g>
	<g>
		<g>
			<path class="st5" d="M204.508,38h-36.012c-5.845,0-10.584,4.738-10.584,10.584s4.738,10.584,10.584,10.584h36.012
				c5.845,0,10.584-4.738,10.584-10.584S210.353,38,204.508,38z"/>
		</g>
	</g>
	<g>
		<g>
			<path class="st0" d="M204.508,36.5h-36.012c-6.663,0-12.083,5.42-12.083,12.083c0,6.663,5.42,12.084,12.083,12.084h36.012
				c6.663,0,12.083-5.421,12.083-12.084C216.592,41.92,211.171,36.5,204.508,36.5z M204.508,57.667h-36.012
				c-5.009,0-9.083-4.075-9.083-9.084c0-5.009,4.075-9.083,9.083-9.083h36.012c5.009,0,9.083,4.075,9.083,9.083
				C213.592,53.592,209.517,57.667,204.508,57.667z"/>
		</g>
	</g>
	<g>
		<g>
			<rect x="16.426" y="48.15" class="st2" width="34.957" height="87.321"/>
		</g>
	</g>
	<g>
		<g>
			<path class="st0" d="M51.383,46.65H16.425c-0.829,0-1.5,0.671-1.5,1.5v19.756c0,0.829,0.671,1.5,1.5,1.5
				c0.829,0,1.5-0.671,1.5-1.5V49.65h31.958v84.321H17.925V82.101c0-0.829-0.671-1.5-1.5-1.5c-0.829,0-1.5,0.671-1.5,1.5v53.371
				c0,0.829,0.671,1.5,1.5,1.5h34.958c0.829,0,1.5-0.671,1.5-1.5V48.15C52.883,47.321,52.211,46.65,51.383,46.65z"/>
		</g>
	</g>
	<g>
		<g>
			<path class="st1" d="M76.256,48.149H51.383v87.326h24.873c5.984,0,10.836-4.852,10.836-10.836V58.985
				C87.092,53.001,82.24,48.149,76.256,48.149z"/>
		</g>
	</g>
	<g>
		<g>
			<path class="st0" d="M76.256,46.649H51.383c-0.829,0-1.5,0.671-1.5,1.5v87.326c0,0.829,0.671,1.5,1.5,1.5h24.873
				c6.802,0,12.336-5.534,12.336-12.336V58.985C88.592,52.183,83.058,46.649,76.256,46.649z M85.592,124.639
				c0,5.148-4.188,9.336-9.336,9.336H52.883V49.649h23.373c5.148,0,9.336,4.189,9.336,9.337V124.639z"/>
		</g>
	</g>
	<g>
		<g>
			<path class="st4" d="M69.237,109.19c-4.514,0-8.174,3.66-8.174,8.174c0,4.514,3.66,8.174,8.174,8.174
				c4.514,0,8.174-3.66,8.174-8.174C77.411,112.85,73.752,109.19,69.237,109.19z"/>
		</g>
	</g>
	<g>
		<g>
			<path class="st0" d="M69.237,107.69c-5.334,0-9.674,4.34-9.674,9.674s4.34,9.674,9.674,9.674s9.674-4.34,9.674-9.674
				S74.571,107.69,69.237,107.69z M69.237,124.038c-3.68,0-6.674-2.994-6.674-6.674s2.994-6.674,6.674-6.674
				c3.68,0,6.674,2.994,6.674,6.674S72.918,124.038,69.237,124.038z"/>
		</g>
	</g>
	<g>
		<g>
			<path class="st14" d="M204.692,124.16c-0.06,0-0.12,0.01-0.18,0.01h-15.81c20.61,14.88,33.37,39.12,33.37,64.98
				c0,41.96-33.16,47.88-71.98,48.47c2.65,0.03,5.31,0.05,8,0.05c42.15,0,79.98-3.71,79.98-48.52
				C238.072,163.29,225.312,139.04,204.692,124.16z"/>
		</g>
	</g>
	<g>
		<g>
			<path class="st14" d="M188.692,124.16c-0.06,0-0.12,0.01-0.18,0.01h0.19C188.702,124.16,188.692,124.16,188.692,124.16z"/>
		</g>
	</g>
</g>
</svg>
