<?xml version="1.0" encoding="utf-8"?>
<!-- Generator: Adobe Illustrator 22.0.1, SVG Export Plug-In . SVG Version: 6.00 Build 0)  -->
<svg version="1.1" id="Layer_1" xmlns="http://www.w3.org/2000/svg" xmlns:xlink="http://www.w3.org/1999/xlink" x="0px" y="0px"
	 viewBox="0 0 256 256" style="enable-background:new 0 0 256 256;" xml:space="preserve">
<style type="text/css">
	.st0{fill:#3A312A;}
	.st1{fill:#8AC6DD;}
	.st2{fill:#F16C7A;}
	.st3{fill:#D7E057;}
	.st4{fill:#87796F;}
	.st5{fill:#FCE8CB;}
	.st6{fill:#DECAAD;}
	.st7{fill:#D6DF58;}
	.st8{fill:#FAE6CA;}
	.st9{fill:#DDC9AC;}
	.st10{fill:#D5DE58;}
	.st11{fill:#ED6E7A;}
	.st12{fill:#8AC5DC;}
	.st13{fill:#6CA8BF;}
	.st14{fill:#695B51;}
	.st15{fill:#F8E4C8;}
	.st16{fill:#EF6D7A;}
	.st17{fill-rule:evenodd;clip-rule:evenodd;fill:#F8E4C8;}
	.st18{fill:#89C4DB;}
	.st19{fill:#F59689;}
	.st20{fill:#D34E5C;}
	.st21{fill:#F7E3C7;}
	.st22{fill:#8AC3DA;}
	.st23{fill-rule:evenodd;clip-rule:evenodd;fill:#F7E3C7;}
	.st24{fill-rule:evenodd;clip-rule:evenodd;fill:#87796F;}
	.st25{fill:#B9C239;}
	.st26{fill:#D4DB56;}
	.st27{fill-rule:evenodd;clip-rule:evenodd;fill:#F16C7A;}
	.st28{fill-rule:evenodd;clip-rule:evenodd;fill:#F6E2C6;}
	.st29{fill:#F6E2C6;}
	.st30{fill-rule:evenodd;clip-rule:evenodd;fill:#FAE6CA;}
	.st31{fill:#B8C136;}
</style>
<g>
	<g>
		<g>
			<path class="st4" d="M222.394,16.135H33.605c-9.447,0-17.105,7.658-17.105,17.106V163.53c0,9.447,7.658,17.105,17.105,17.105
				h188.789c9.447,0,17.106-7.658,17.106-17.105V33.241C239.5,23.794,231.842,16.135,222.394,16.135z"/>
		</g>
	</g>
	<g>
		<g>
			<path class="st0" d="M222.394,14.635H33.605C23.346,14.635,15,22.981,15,33.241V163.53c0,10.259,8.346,18.605,18.605,18.605
				h188.789c10.259,0,18.606-8.346,18.606-18.605V33.241C241,22.981,232.653,14.635,222.394,14.635z M238,163.53
				c0,8.605-7.001,15.605-15.606,15.605H33.605c-8.605,0-15.605-7-15.605-15.605V33.241c0-8.605,7-15.605,15.605-15.605h188.789
				c8.605,0,15.606,7,15.606,15.605V163.53z"/>
		</g>
	</g>
	<g>
		<g>
			<path class="st8" d="M214.97,28.64H41.03c-6.58,0-11.92,5.33-11.92,11.92v115.66c0,6.58,5.34,11.92,11.92,11.92h173.94
				c6.58,0,11.92-5.34,11.92-11.92V40.56C226.89,33.97,221.55,28.64,214.97,28.64z"/>
		</g>
	</g>
	<g>
		<g>
			<path class="st0" d="M214.97,27.14H86.333c-0.829,0-1.5,0.671-1.5,1.5s0.671,1.5,1.5,1.5H214.97c5.745,0,10.42,4.674,10.42,10.42
				v115.66c0,5.746-4.675,10.42-10.42,10.42H41.03c-5.746,0-10.42-4.674-10.42-10.42V40.56c0-5.746,4.674-10.42,10.42-10.42h32.638
				c0.829,0,1.5-0.671,1.5-1.5s-0.671-1.5-1.5-1.5H41.03c-7.4,0-13.42,6.02-13.42,13.42v115.66c0,7.4,6.02,13.42,13.42,13.42h173.94
				c7.399,0,13.42-6.02,13.42-13.42V40.56C228.39,33.16,222.369,27.14,214.97,27.14z"/>
		</g>
	</g>
	<g>
		<g>
			<rect x="113.688" y="180.635" class="st4" width="28.625" height="35.593"/>
		</g>
	</g>
	<g>
		<g>
			<path class="st0" d="M142.313,179.135h-28.625c-0.829,0-1.5,0.671-1.5,1.5v35.593c0,0.829,0.671,1.5,1.5,1.5h28.625
				c0.828,0,1.5-0.671,1.5-1.5v-35.593C143.813,179.807,143.141,179.135,142.313,179.135z M140.813,214.729h-25.625v-32.593h25.625
				V214.729z"/>
		</g>
	</g>
	<g>
		<g>
			<path class="st4" d="M148.296,216.229h-40.593c-12.927,0-23.407,10.479-23.407,23.406h87.406
				C171.703,226.708,161.224,216.229,148.296,216.229z"/>
		</g>
	</g>
	<g>
		<g>
			<path class="st0" d="M148.296,214.729h-40.592c-13.733,0-24.907,11.173-24.907,24.907c0,0.829,0.671,1.5,1.5,1.5h37.584
				c0.829,0,1.5-0.671,1.5-1.5s-0.671-1.5-1.5-1.5H85.848c0.773-11.382,10.281-20.407,21.856-20.407h40.592
				c11.575,0,21.083,9.024,21.856,20.407h-34.701c-0.828,0-1.5,0.671-1.5,1.5s0.672,1.5,1.5,1.5h36.252c0.828,0,1.5-0.671,1.5-1.5
				C173.203,225.902,162.03,214.729,148.296,214.729z"/>
		</g>
	</g>
	<g>
		<g>
			<path class="st9" d="M214.97,30.135h-15c5.74,0,10.42,4.67,10.42,10.42v115.66c0,5.75-4.68,10.42-10.42,10.42h15
				c5.74,0,10.42-4.67,10.42-10.42V40.555C225.39,34.805,220.71,30.135,214.97,30.135z"/>
		</g>
	</g>
	<g>
		<g>
			<path class="st10" d="M47.671,203.469c-0.974,11.564-13.025,13.39-13.025,13.39c10.346,0.487,12.925,14.059,12.925,14.059
				c0.221-9.677,13.321-14.202,13.321-14.202C51.079,216.129,47.671,203.469,47.671,203.469z"/>
		</g>
	</g>
	<g>
		<g>
			<path class="st0" d="M60.982,215.218c-8.604-0.514-11.831-12.024-11.863-12.141c-0.19-0.702-0.848-1.162-1.583-1.102
				c-0.725,0.066-1.298,0.642-1.359,1.367c-0.86,10.215-11.314,11.964-11.755,12.033c-0.763,0.115-1.313,0.79-1.273,1.561
				c0.04,0.77,0.657,1.384,1.427,1.421c9.028,0.425,11.499,12.718,11.523,12.842c0.137,0.711,0.759,1.217,1.472,1.217
				c0.042,0,0.084-0.001,0.126-0.005c0.764-0.064,1.357-0.693,1.375-1.459c0.195-8.508,12.192-12.777,12.313-12.819
				c0.675-0.235,1.092-0.915,0.994-1.623C62.28,215.802,61.696,215.261,60.982,215.218z M47.417,225.564
				c-1.356-3.13-3.709-6.907-7.587-8.876c2.931-1.405,6.409-3.914,8.202-8.273c1.551,3.071,4.199,6.88,8.334,8.723
				C53.358,218.777,49.443,221.543,47.417,225.564z"/>
		</g>
	</g>
	<g>
		<g>
			<path class="st10" d="M25.972,220.45c-0.689,8.179-9.212,9.471-9.212,9.471c7.318,0.344,9.142,9.944,9.142,9.944
				c0.156-6.845,9.422-10.045,9.422-10.045C28.383,229.404,25.972,220.45,25.972,220.45z"/>
		</g>
	</g>
	<g>
		<g>
			<path class="st0" d="M35.414,228.322c-5.767-0.345-7.973-8.186-7.994-8.265c-0.19-0.702-0.856-1.164-1.582-1.102
				c-0.726,0.065-1.299,0.643-1.36,1.368c-0.579,6.871-7.646,8.067-7.942,8.114c-0.763,0.115-1.313,0.79-1.273,1.561
				c0.04,0.77,0.657,1.384,1.427,1.421c6.036,0.284,7.724,8.644,7.739,8.726c0.135,0.713,0.759,1.22,1.472,1.22
				c0.042,0,0.083-0.001,0.125-0.005c0.765-0.063,1.358-0.693,1.376-1.461c0.131-5.709,8.332-8.634,8.413-8.662
				c0.676-0.234,1.094-0.913,0.996-1.622C36.713,228.906,36.128,228.365,35.414,228.322z M25.829,235.117
				c-0.924-1.886-2.34-3.947-4.447-5.28c1.856-1.042,3.697-2.63,4.871-4.917c1.057,1.874,2.655,3.954,4.941,5.224
				C29.344,231.245,27.205,232.885,25.829,235.117z"/>
		</g>
	</g>
	<g>
		<g>
			<path class="st10" d="M25.972,193.792c-0.689,8.179-9.212,9.471-9.212,9.471c7.318,0.344,9.142,9.944,9.142,9.944
				c0.156-6.845,9.422-10.045,9.422-10.045C28.383,202.747,25.972,193.792,25.972,193.792z"/>
		</g>
	</g>
	<g>
		<g>
			<path class="st0" d="M35.414,201.664c-5.766-0.345-7.972-8.185-7.994-8.264c-0.19-0.702-0.856-1.165-1.582-1.102
				c-0.726,0.065-1.299,0.643-1.36,1.368c-0.579,6.871-7.646,8.066-7.942,8.113c-0.763,0.115-1.313,0.79-1.273,1.561
				c0.04,0.77,0.657,1.384,1.427,1.421c6.036,0.284,7.723,8.645,7.739,8.726c0.135,0.713,0.759,1.22,1.473,1.22
				c0.041,0,0.083-0.001,0.125-0.005c0.765-0.063,1.358-0.693,1.376-1.461c0.131-5.709,8.332-8.634,8.413-8.662
				c0.677-0.234,1.094-0.913,0.996-1.622C36.713,202.249,36.128,201.707,35.414,201.664z M25.829,208.459
				c-0.924-1.885-2.34-3.947-4.447-5.28c1.856-1.041,3.697-2.629,4.87-4.916c1.057,1.874,2.655,3.954,4.941,5.223
				C29.344,204.588,27.206,206.227,25.829,208.459z"/>
		</g>
	</g>
	<g>
		<g>
			<path class="st4" d="M93.162,60.084c-0.58-2.161-1.516-4.056-2.806-5.685c-1.291-1.629-2.924-2.879-4.9-3.75
				c-1.975-0.871-4.568-1.306-7.777-1.306H61.398v35.465h16.281c1.951,0,4.128-0.322,6.531-0.968
				c1.758-0.467,3.403-1.407,4.936-2.818c1.532-1.411,2.729-3.161,3.593-5.25c0.862-2.088,1.294-5.028,1.294-8.818
				C94.033,64.535,93.743,62.245,93.162,60.084z M82.203,73.329c-0.548,1.267-1.306,2.153-2.273,2.661
				c-0.968,0.508-2.597,0.762-4.887,0.762h-2.686V57.375h2.733c2.839,0,4.871,0.693,6.097,2.08c1.226,1.387,1.839,3.959,1.839,7.717
				C83.026,70.011,82.751,72.063,82.203,73.329z"/>
		</g>
	</g>
	<g>
		<g>
			<path class="st0" d="M94.61,59.695c-0.63-2.349-1.667-4.444-3.079-6.228c-1.438-1.814-3.279-3.225-5.47-4.191
				c-2.159-0.951-4.979-1.434-8.382-1.434H61.398c-0.829,0-1.5,0.671-1.5,1.5v35.465c0,0.829,0.671,1.5,1.5,1.5h16.281
				c2.074,0,4.403-0.343,6.917-1.018c1.988-0.528,3.861-1.593,5.566-3.165c1.686-1.553,3.019-3.498,3.963-5.781
				c0.947-2.293,1.408-5.365,1.408-9.39C95.533,64.414,95.222,61.971,94.61,59.695z M91.352,75.199
				c-0.775,1.876-1.859,3.463-3.223,4.719c-1.344,1.238-2.792,2.07-4.309,2.473c-2.264,0.608-4.331,0.917-6.142,0.917H62.898V50.843
				h14.781c2.984,0,5.397,0.396,7.172,1.179c1.74,0.768,3.197,1.881,4.329,3.309c1.157,1.461,2.009,3.191,2.533,5.144
				c0.544,2.022,0.82,4.203,0.82,6.48C92.533,70.528,92.136,73.303,91.352,75.199z M75.09,55.875h-2.733c-0.829,0-1.5,0.671-1.5,1.5
				v19.377c0,0.829,0.671,1.5,1.5,1.5h2.686c2.56,0,4.386-0.306,5.583-0.934c1.275-0.669,2.268-1.811,2.953-3.393
				c0.638-1.47,0.947-3.679,0.947-6.753c0-4.174-0.725-7.023-2.215-8.71C80.794,56.745,78.365,55.875,75.09,55.875z M80.826,72.733
				c-0.411,0.951-0.932,1.582-1.593,1.929c-0.42,0.22-1.523,0.59-4.19,0.59h-1.186V58.875h1.233c2.377,0,4.05,0.529,4.973,1.573
				c0.667,0.755,1.463,2.535,1.463,6.724C81.526,70.434,81.146,71.996,80.826,72.733z"/>
		</g>
	</g>
	<g>
		<g>
			<path class="st4" d="M117.025,49.343v21.85c0,2.159-0.287,3.694-0.859,4.604c-0.572,0.911-1.472,1.366-2.697,1.366
				c-0.774,0-1.371-0.153-1.79-0.459c-0.613-0.468-1.049-1.081-1.307-1.839c-0.258-0.758-0.396-1.919-0.411-3.483l-10.475,1.427
				c0.193,2.742,0.826,5.044,1.898,6.907c1.073,1.863,2.593,3.278,4.56,4.246c1.968,0.968,4.741,1.452,8.322,1.452
				c3.387,0,6.164-0.733,8.334-2.2c2.169-1.466,3.612-3.255,4.33-5.367c0.718-2.111,1.076-5.19,1.076-9.235V49.343H117.025z"/>
		</g>
	</g>
	<g>
		<g>
			<path class="st0" d="M128.007,47.843h-10.982c-0.829,0-1.5,0.671-1.5,1.5v21.85c0,2.441-0.394,3.432-0.629,3.806
				c-0.206,0.329-0.537,0.664-1.427,0.664c-0.623,0-0.85-0.13-0.88-0.152c-0.375-0.286-0.635-0.655-0.796-1.129
				c-0.142-0.416-0.314-1.277-0.331-3.016c-0.004-0.43-0.193-0.838-0.519-1.12c-0.326-0.282-0.757-0.412-1.184-0.352l-10.475,1.427
				c-0.783,0.107-1.349,0.803-1.294,1.592c0.208,2.957,0.913,5.497,2.095,7.55c1.22,2.117,2.969,3.746,5.198,4.843
				c2.197,1.08,5.136,1.605,8.984,1.605c3.675,0,6.762-0.827,9.174-2.458c2.436-1.647,4.088-3.708,4.91-6.126
				c0.777-2.288,1.155-5.467,1.155-9.718V49.343C129.507,48.514,128.836,47.843,128.007,47.843z M126.507,68.61
				c0,3.863-0.335,6.808-0.997,8.752c-0.615,1.81-1.842,3.317-3.75,4.607c-1.907,1.289-4.429,1.943-7.494,1.943
				c-3.332,0-5.91-0.437-7.66-1.298c-1.71-0.841-2.993-2.034-3.923-3.648c-0.77-1.338-1.292-2.971-1.557-4.868l7.407-1.009
				c0.078,0.92,0.216,1.667,0.417,2.258c0.354,1.042,0.965,1.899,1.841,2.567c0.68,0.497,1.58,0.749,2.675,0.749
				c2.205,0,3.375-1.125,3.967-2.067c0.733-1.166,1.089-2.933,1.089-5.403v-20.35h7.982V68.61z"/>
		</g>
	</g>
	<g>
		<g>
			<rect x="138.226" y="49.343" class="st4" width="10.982" height="35.465"/>
		</g>
	</g>
	<g>
		<g>
			<path class="st0" d="M149.208,47.843h-10.981c-0.828,0-1.5,0.671-1.5,1.5v35.465c0,0.829,0.672,1.5,1.5,1.5h10.981
				c0.828,0,1.5-0.671,1.5-1.5V49.343C150.708,48.514,150.036,47.843,149.208,47.843z M147.708,83.308h-7.981V50.843h7.981V83.308z"
				/>
		</g>
	</g>
	<g>
		<g>
			<path class="st4" d="M181.275,49.343h-11.953l-13.33,35.465h11.189l1.729-5.854h12.442l1.773,5.854h11.477L181.275,49.343z
				 M171.29,71.285l3.873-12.749l3.915,12.749H171.29z"/>
		</g>
	</g>
	<g>
		<g>
			<path class="st0" d="M196.007,84.28l-13.328-35.465c-0.22-0.585-0.779-0.972-1.404-0.972h-11.952
				c-0.625,0-1.185,0.387-1.404,0.972L154.587,84.28c-0.173,0.461-0.109,0.977,0.171,1.382c0.28,0.405,0.741,0.646,1.233,0.646
				h11.19c0.665,0,1.25-0.438,1.438-1.075l1.411-4.779h10.208l1.45,4.789c0.191,0.633,0.774,1.065,1.436,1.065h11.477
				c0.492,0,0.953-0.241,1.233-0.646C196.116,85.257,196.18,84.741,196.007,84.28z M184.238,83.308l-1.45-4.789
				c-0.191-0.633-0.774-1.065-1.436-1.065H168.91c-0.665,0-1.25,0.438-1.438,1.075l-1.411,4.779h-7.903l12.204-32.465h9.874
				l12.201,32.465H184.238z M175.164,57.036c-0.001,0-0.001,0-0.002,0c-0.66,0.001-1.241,0.433-1.434,1.064l-3.874,12.749
				c-0.138,0.455-0.053,0.948,0.231,1.329c0.283,0.382,0.73,0.607,1.205,0.607h7.788c0.476,0,0.924-0.226,1.206-0.608
				c0.283-0.383,0.367-0.877,0.227-1.332l-3.914-12.749C176.404,57.465,175.823,57.036,175.164,57.036z M173.313,69.785l1.858-6.114
				l1.877,6.114H173.313z"/>
		</g>
	</g>
	<g>
		<g>
			<rect x="71.2" y="133.759" class="st2" width="19.638" height="13.613"/>
		</g>
	</g>
	<g>
		<g>
			<path class="st0" d="M90.838,132.259H71.2c-0.829,0-1.5,0.671-1.5,1.5v13.613c0,0.829,0.671,1.5,1.5,1.5h19.638
				c0.829,0,1.5-0.671,1.5-1.5v-13.613C92.338,132.93,91.667,132.259,90.838,132.259z M89.338,145.872H72.7v-10.613h16.638V145.872z
				"/>
		</g>
	</g>
	<g>
		<g>
			<rect x="102.654" y="120.834" class="st3" width="19.638" height="26.537"/>
		</g>
	</g>
	<g>
		<g>
			<path class="st0" d="M122.292,119.334h-19.638c-0.829,0-1.5,0.671-1.5,1.5v26.537c0,0.829,0.671,1.5,1.5,1.5h19.638
				c0.829,0,1.5-0.671,1.5-1.5v-26.537C123.792,120.006,123.121,119.334,122.292,119.334z M120.792,145.872h-16.638v-23.537h16.638
				V145.872z"/>
		</g>
	</g>
	<g>
		<g>
			<rect x="134.108" y="107.91" class="st2" width="19.638" height="39.462"/>
		</g>
	</g>
	<g>
		<g>
			<path class="st0" d="M153.746,106.41h-19.638c-0.828,0-1.5,0.671-1.5,1.5v39.462c0,0.829,0.672,1.5,1.5,1.5h19.638
				c0.828,0,1.5-0.671,1.5-1.5V107.91C155.246,107.081,154.574,106.41,153.746,106.41z M152.246,145.872h-16.638V109.41h16.638
				V145.872z"/>
		</g>
	</g>
	<g>
		<g>
			<rect x="165.562" y="94.985" class="st3" width="19.638" height="52.386"/>
		</g>
	</g>
	<g>
		<g>
			<path class="st0" d="M185.2,93.485h-19.638c-0.828,0-1.5,0.671-1.5,1.5v52.387c0,0.829,0.672,1.5,1.5,1.5H185.2
				c0.828,0,1.5-0.671,1.5-1.5V94.985C186.7,94.156,186.028,93.485,185.2,93.485z M183.7,145.872h-16.638V96.485H183.7V145.872z"/>
		</g>
	</g>
</g>
</svg>
