<?xml version="1.0" encoding="utf-8"?>
<!-- Generator: Adobe Illustrator 22.0.1, SVG Export Plug-In . SVG Version: 6.00 Build 0)  -->
<svg version="1.1" id="Layer_1" xmlns="http://www.w3.org/2000/svg" xmlns:xlink="http://www.w3.org/1999/xlink" x="0px" y="0px"
	 viewBox="0 0 256 256" style="enable-background:new 0 0 256 256;" xml:space="preserve">
<style type="text/css">
	.st0{fill:#3A312A;}
	.st1{fill:#8AC6DD;}
	.st2{fill:#F16C7A;}
	.st3{fill:#D7E057;}
	.st4{fill:#87796F;}
	.st5{fill:#FCE8CB;}
	.st6{fill:#DECAAD;}
	.st7{fill:#D6DF58;}
	.st8{fill:#FAE6CA;}
	.st9{fill:#DDC9AC;}
	.st10{fill:#D5DE58;}
	.st11{fill:#ED6E7A;}
	.st12{fill:#8AC5DC;}
	.st13{fill:#6CA8BF;}
	.st14{fill:#695B51;}
	.st15{fill:#F8E4C8;}
	.st16{fill:#EF6D7A;}
	.st17{fill-rule:evenodd;clip-rule:evenodd;fill:#F8E4C8;}
	.st18{fill:#89C4DB;}
	.st19{fill:#F59689;}
	.st20{fill:#D34E5C;}
	.st21{fill:#F7E3C7;}
	.st22{fill:#8AC3DA;}
	.st23{fill-rule:evenodd;clip-rule:evenodd;fill:#F7E3C7;}
	.st24{fill-rule:evenodd;clip-rule:evenodd;fill:#87796F;}
	.st25{fill:#B9C239;}
	.st26{fill:#D4DB56;}
	.st27{fill-rule:evenodd;clip-rule:evenodd;fill:#F16C7A;}
	.st28{fill-rule:evenodd;clip-rule:evenodd;fill:#F6E2C6;}
	.st29{fill:#F6E2C6;}
	.st30{fill-rule:evenodd;clip-rule:evenodd;fill:#FAE6CA;}
	.st31{fill:#B8C136;}
</style>
<g>
	<g>
		<g>
			<path class="st7" d="M106.431,176.433H39.545c-4.228,0-7.656,3.427-7.656,7.656v0.289c0,4.228,3.427,7.656,7.655,7.656h66.886
				c4.228,0,7.656-3.428,7.656-7.656v-0.288C114.086,179.861,110.659,176.433,106.431,176.433z"/>
		</g>
	</g>
	<g>
		<g>
			<path class="st0" d="M106.431,174.933H39.545c-5.048,0-9.155,4.107-9.155,9.156v0.289c0,5.048,4.107,9.155,9.155,9.155h66.886
				c5.048,0,9.155-4.107,9.155-9.156v-0.288C115.586,179.041,111.479,174.933,106.431,174.933z M112.586,184.377
				c0,3.395-2.762,6.156-6.155,6.156H39.545c-3.394,0-6.155-2.761-6.155-6.155v-0.289c0-3.395,2.762-6.156,6.155-6.156h66.886
				c3.394,0,6.155,2.761,6.155,6.156V184.377z"/>
		</g>
	</g>
	<g>
		<g>
			<path class="st7" d="M106.431,160.834H39.545c-4.228,0-7.656,3.427-7.656,7.656v0.289c0,4.228,3.427,7.655,7.655,7.655h66.886
				c4.228,0,7.656-3.427,7.656-7.655v-0.289C114.086,164.261,110.659,160.834,106.431,160.834z"/>
		</g>
	</g>
	<g>
		<g>
			<path class="st0" d="M106.431,159.333H39.545c-5.048,0-9.155,4.107-9.155,9.156v0.289c0,5.048,4.107,9.155,9.155,9.155h66.886
				c5.048,0,9.155-4.107,9.155-9.155v-0.289C115.586,163.441,111.479,159.333,106.431,159.333z M112.586,168.778
				c0,3.394-2.762,6.155-6.155,6.155H39.545c-3.394,0-6.155-2.761-6.155-6.155v-0.289c0-3.395,2.762-6.156,6.155-6.156h66.886
				c3.394,0,6.155,2.761,6.155,6.156V168.778z"/>
		</g>
	</g>
	<g>
		<g>
			<path class="st7" d="M106.431,145.234H39.545c-4.228,0-7.656,3.427-7.656,7.655v0.289c0,4.228,3.427,7.655,7.655,7.655h66.886
				c4.228,0,7.656-3.427,7.656-7.656v-0.289C114.086,148.662,110.659,145.234,106.431,145.234z"/>
		</g>
	</g>
	<g>
		<g>
			<path class="st0" d="M106.431,143.734H39.545c-5.048,0-9.155,4.107-9.155,9.155v0.289c0,5.048,4.107,9.155,9.155,9.155h66.886
				c5.048,0,9.155-4.107,9.155-9.155v-0.289C115.586,147.841,111.479,143.734,106.431,143.734z M112.586,153.178
				c0,3.394-2.762,6.155-6.155,6.155H39.545c-3.394,0-6.155-2.761-6.155-6.155v-0.289c0-3.394,2.762-6.155,6.155-6.155h66.886
				c3.394,0,6.155,2.761,6.155,6.155V153.178z"/>
		</g>
	</g>
	<g>
		<g>
			<path class="st7" d="M203.515,176.433h-66.886c-4.228,0-7.655,3.427-7.655,7.656v0.288c0,4.228,3.427,7.656,7.655,7.656h66.886
				c4.228,0,7.656-3.428,7.656-7.656v-0.288C211.17,179.861,207.743,176.433,203.515,176.433z"/>
		</g>
	</g>
	<g>
		<g>
			<path class="st0" d="M203.515,174.933h-66.886c-5.049,0-9.156,4.107-9.156,9.156v0.288c0,5.048,4.107,9.156,9.156,9.156h66.886
				c5.048,0,9.155-4.107,9.155-9.156v-0.288C212.67,179.041,208.563,174.933,203.515,174.933z M209.67,184.377
				c0,3.395-2.762,6.156-6.155,6.156h-66.886c-3.395,0-6.156-2.761-6.156-6.156v-0.288c0-3.395,2.762-6.156,6.156-6.156h66.886
				c3.394,0,6.155,2.761,6.155,6.156V184.377z"/>
		</g>
	</g>
	<g>
		<g>
			<path class="st7" d="M203.515,160.834h-66.886c-4.228,0-7.655,3.427-7.655,7.656v0.289c0,4.228,3.427,7.655,7.655,7.655h66.886
				c4.228,0,7.656-3.427,7.656-7.655v-0.289C211.17,164.261,207.743,160.834,203.515,160.834z"/>
		</g>
	</g>
	<g>
		<g>
			<path class="st0" d="M203.515,159.333h-66.886c-5.049,0-9.156,4.107-9.156,9.156v0.289c0,5.048,4.107,9.155,9.156,9.155h66.886
				c5.048,0,9.155-4.107,9.155-9.155v-0.289C212.67,163.441,208.563,159.333,203.515,159.333z M209.67,168.778
				c0,3.394-2.762,6.155-6.155,6.155h-66.886c-3.395,0-6.156-2.761-6.156-6.155v-0.289c0-3.395,2.762-6.156,6.156-6.156h66.886
				c3.394,0,6.155,2.761,6.155,6.156V168.778z"/>
		</g>
	</g>
	<g>
		<g>
			<path class="st7" d="M203.515,145.234h-66.886c-4.228,0-7.655,3.427-7.655,7.655v0.289c0,4.228,3.427,7.656,7.655,7.656h66.886
				c4.228,0,7.656-3.427,7.656-7.656v-0.289C211.17,148.662,207.743,145.234,203.515,145.234z"/>
		</g>
	</g>
	<g>
		<g>
			<path class="st0" d="M203.515,143.734h-66.886c-5.049,0-9.156,4.107-9.156,9.155v0.289c0,5.048,4.107,9.155,9.156,9.155h66.886
				c5.048,0,9.155-4.107,9.155-9.155v-0.289C212.67,147.841,208.563,143.734,203.515,143.734z M209.67,153.178
				c0,3.394-2.762,6.155-6.155,6.155h-66.886c-3.395,0-6.156-2.761-6.156-6.155v-0.289c0-3.394,2.762-6.155,6.156-6.155h66.886
				c3.394,0,6.155,2.761,6.155,6.155V153.178z"/>
		</g>
	</g>
	<g>
		<g>
			<path class="st7" d="M106.431,129.635H39.545c-4.228,0-7.656,3.428-7.656,7.656v0.288c0,4.228,3.427,7.656,7.655,7.656h66.886
				c4.228,0,7.656-3.428,7.656-7.656v-0.288C114.086,133.063,110.659,129.635,106.431,129.635z"/>
		</g>
	</g>
	<g>
		<g>
			<path class="st0" d="M106.431,128.135H39.545c-5.048,0-9.155,4.107-9.155,9.156v0.289c0,5.048,4.107,9.155,9.155,9.155h66.886
				c5.048,0,9.155-4.107,9.155-9.156v-0.288C115.586,132.242,111.479,128.135,106.431,128.135z M112.586,137.579
				c0,3.395-2.762,6.156-6.155,6.156H39.545c-3.394,0-6.155-2.761-6.155-6.155v-0.289c0-3.395,2.762-6.156,6.155-6.156h66.886
				c3.394,0,6.155,2.761,6.155,6.156V137.579z"/>
		</g>
	</g>
	<g>
		<g>
			<path class="st7" d="M106.431,114.035H39.545c-4.228,0-7.656,3.427-7.656,7.656v0.289c0,4.228,3.427,7.655,7.655,7.655h66.886
				c4.228,0,7.656-3.427,7.656-7.655v-0.289C114.086,117.463,110.659,114.035,106.431,114.035z"/>
		</g>
	</g>
	<g>
		<g>
			<path class="st0" d="M106.431,112.535H39.545c-5.048,0-9.155,4.107-9.155,9.156v0.289c0,5.048,4.107,9.155,9.155,9.155h66.886
				c5.048,0,9.155-4.107,9.155-9.155v-0.289C115.586,116.643,111.479,112.535,106.431,112.535z M112.586,121.979
				c0,3.394-2.762,6.155-6.155,6.155H39.545c-3.394,0-6.155-2.761-6.155-6.155v-0.289c0-3.395,2.762-6.156,6.155-6.156h66.886
				c3.394,0,6.155,2.761,6.155,6.156V121.979z"/>
		</g>
	</g>
	<g>
		<g>
			<path class="st7" d="M106.431,98.436H39.545c-4.228,0-7.656,3.427-7.656,7.656v0.289c0,4.228,3.427,7.655,7.655,7.655h66.886
				c4.228,0,7.656-3.427,7.656-7.656v-0.288C114.086,101.864,110.659,98.436,106.431,98.436z"/>
		</g>
	</g>
	<g>
		<g>
			<path class="st0" d="M106.431,96.936H39.545c-5.048,0-9.155,4.107-9.155,9.155v0.289c0,5.048,4.107,9.155,9.155,9.155h66.886
				c5.048,0,9.155-4.107,9.155-9.155v-0.289C115.586,101.043,111.479,96.936,106.431,96.936z M112.586,106.38
				c0,3.394-2.762,6.155-6.155,6.155H39.545c-3.394,0-6.155-2.761-6.155-6.155v-0.289c0-3.394,2.762-6.155,6.155-6.155h66.886
				c3.394,0,6.155,2.761,6.155,6.155V106.38z"/>
		</g>
	</g>
	<g>
		<g>
			
				<ellipse transform="matrix(0.9871 -0.1602 0.1602 0.9871 -14.5089 28.5891)" class="st7" cx="170.072" cy="104.287" rx="40.946" ry="40.946"/>
		</g>
	</g>
	<g>
		<g>
			<path class="st0" d="M170.071,61.841c-23.404,0-42.445,19.042-42.445,42.446s19.041,42.446,42.445,42.446
				c23.405,0,42.446-19.041,42.446-42.446S193.477,61.841,170.071,61.841z M170.071,143.733c-21.75,0-39.445-17.695-39.445-39.446
				c0-21.751,17.695-39.446,39.445-39.446c21.751,0,39.446,17.695,39.446,39.446C209.518,126.038,191.822,143.733,170.071,143.733z"
				/>
		</g>
	</g>
	<g>
		<g>
			<path class="st4" d="M174.94,99.657c-5.964-2.244-8.419-3.718-8.419-6.033c0-1.964,1.473-3.929,6.034-3.929
				c5.051,0,8.278,1.613,10.102,2.385l2.035-7.927c-2.316-1.123-5.473-2.106-10.173-2.316v-6.174h-6.875v6.664
				c-7.507,1.473-11.856,6.314-11.856,12.488c0,6.806,5.121,10.314,12.628,12.839c5.192,1.754,7.437,3.438,7.437,6.103
				c0,2.807-2.737,4.35-6.735,4.35c-4.561,0-8.699-1.473-11.646-3.086l-2.105,8.208c2.666,1.543,7.226,2.806,11.926,3.017v6.665
				h6.876v-7.156c8.068-1.402,12.488-6.734,12.488-12.978C186.656,106.463,183.288,102.604,174.94,99.657z"/>
		</g>
	</g>
	<g>
		<g>
			<path class="st0" d="M175.468,98.253c-5.429-2.043-7.447-3.298-7.447-4.629c0-2.113,2.841-2.428,4.534-2.428
				c4.298,0,7.124,1.229,8.994,2.041l0.522,0.226c0.403,0.17,0.858,0.156,1.25-0.037c0.392-0.194,0.68-0.549,0.788-0.972
				l2.035-7.927c0.177-0.691-0.156-1.412-0.799-1.723c-2.683-1.301-5.745-2.082-9.327-2.375v-4.766c0-0.829-0.672-1.5-1.5-1.5
				h-6.875c-0.828,0-1.5,0.671-1.5,1.5v5.464c-7.348,1.861-11.856,7.019-11.856,13.688c0,8.57,7.295,12.123,13.647,14.26
				c5.326,1.799,6.417,3.173,6.417,4.682c0,2.645-4.007,2.851-5.235,2.851c-4.893,0-8.945-1.818-10.925-2.902
				c-0.407-0.222-0.892-0.245-1.318-0.06c-0.425,0.185-0.74,0.555-0.855,1.003l-2.104,8.208c-0.167,0.651,0.12,1.334,0.701,1.671
				c2.753,1.593,6.935,2.75,11.178,3.122v5.261c0,0.829,0.672,1.5,1.5,1.5h6.875c0.828,0,1.5-0.671,1.5-1.5v-5.931
				c7.631-1.775,12.489-7.243,12.489-14.204C188.156,105.735,184.353,101.389,175.468,98.253z M173.91,124.277
				c-0.719,0.125-1.243,0.749-1.243,1.478v5.656h-3.875v-5.165c0-0.802-0.631-1.462-1.433-1.499
				c-3.706-0.167-7.579-1.047-10.245-2.298l1.348-5.255c2.493,1.138,6.267,2.414,10.654,2.414c5.08,0,8.235-2.242,8.235-5.851
				c0-4.102-4.064-6.04-8.458-7.525c-8.136-2.736-11.606-6.15-11.606-11.417c0-5.59,3.979-9.708,10.646-11.016
				c0.703-0.138,1.211-0.755,1.211-1.472v-5.165h3.875v4.674c0,0.802,0.632,1.463,1.434,1.499c3.274,0.146,6.06,0.694,8.471,1.672
				l-1.285,5.006c-2.017-0.827-4.987-1.819-9.083-1.819c-6.991,0-7.534,4.155-7.534,5.428c0,3.623,3.893,5.368,9.42,7.448
				c7.711,2.722,10.716,6.003,10.716,11.705C185.156,118.665,180.847,123.072,173.91,124.277z"/>
		</g>
	</g>
	<g>
		<g>
			
				<ellipse transform="matrix(0.3827 -0.9239 0.9239 0.3827 -8.0572 102.9216)" class="st7" cx="72.988" cy="57.49" rx="40.946" ry="40.946"/>
		</g>
	</g>
	<g>
		<g>
			<path class="st0" d="M72.988,15.044c-23.405,0-42.446,19.042-42.446,42.446s19.041,42.446,42.446,42.446
				c23.404,0,42.445-19.041,42.445-42.446S96.393,15.044,72.988,15.044z M72.988,96.936c-21.751,0-39.446-17.695-39.446-39.446
				c0-21.751,17.695-39.446,39.446-39.446c21.75,0,39.445,17.695,39.445,39.446C112.434,79.241,94.738,96.936,72.988,96.936z"/>
		</g>
	</g>
	<g>
		<g>
			<path class="st4" d="M77.856,52.859c-5.963-2.244-8.419-3.718-8.419-6.033c0-1.964,1.473-3.929,6.034-3.929
				c5.051,0,8.278,1.613,10.102,2.385l2.035-7.927c-2.316-1.123-5.473-2.106-10.173-2.316v-6.174H70.56v6.664
				c-7.507,1.473-11.856,6.314-11.856,12.489c0,6.806,5.121,10.314,12.628,12.839c5.192,1.754,7.437,3.439,7.437,6.103
				c0,2.807-2.736,4.35-6.735,4.35c-4.561,0-8.699-1.473-11.646-3.086l-2.105,8.208c2.666,1.543,7.226,2.806,11.926,3.017v6.665
				h6.875v-7.156c8.068-1.402,12.488-6.734,12.488-12.978C89.572,59.665,86.204,55.806,77.856,52.859z"/>
		</g>
	</g>
	<g>
		<g>
			<path class="st0" d="M78.385,51.456c-5.43-2.043-7.448-3.298-7.448-4.629c0-2.113,2.841-2.429,4.534-2.429
				c4.297,0,7.122,1.228,8.992,2.041l0.525,0.227c0.403,0.17,0.859,0.156,1.25-0.037c0.392-0.193,0.68-0.548,0.788-0.971
				l2.034-7.927c0.177-0.691-0.157-1.412-0.799-1.723c-2.683-1.301-5.745-2.082-9.327-2.375v-4.766c0-0.829-0.672-1.5-1.5-1.5H70.56
				c-0.828,0-1.5,0.671-1.5,1.5v5.464c-7.348,1.861-11.856,7.019-11.856,13.688c0,8.57,7.295,12.123,13.647,14.26
				c5.326,1.799,6.417,3.173,6.417,4.682c0,2.645-4.007,2.851-5.234,2.851c-4.894,0-8.946-1.818-10.926-2.902
				c-0.407-0.222-0.892-0.245-1.318-0.06c-0.425,0.185-0.74,0.555-0.855,1.003l-2.104,8.208c-0.167,0.651,0.12,1.334,0.702,1.671
				c2.753,1.593,6.935,2.75,11.177,3.122v5.261c0,0.829,0.672,1.5,1.5,1.5h6.876c0.828,0,1.5-0.671,1.5-1.5v-5.931
				c7.63-1.776,12.488-7.243,12.488-14.204C91.072,58.938,87.27,54.591,78.385,51.456z M76.827,77.479
				c-0.719,0.125-1.243,0.749-1.243,1.478v5.656h-3.876v-5.165c0-0.802-0.631-1.462-1.433-1.499
				c-3.706-0.166-7.578-1.047-10.245-2.298l1.348-5.255c2.493,1.138,6.267,2.414,10.655,2.414c5.079,0,8.234-2.242,8.234-5.851
				c0-4.102-4.064-6.041-8.458-7.525c-8.136-2.736-11.606-6.15-11.606-11.417c0-5.59,3.979-9.708,10.646-11.016
				c0.703-0.138,1.211-0.755,1.211-1.472v-5.165h3.875v4.674c0,0.802,0.632,1.463,1.434,1.499c3.274,0.146,6.06,0.694,8.472,1.672
				l-1.285,5.006c-2.018-0.827-4.988-1.819-9.084-1.819c-6.991,0-7.534,4.155-7.534,5.429c0,3.623,3.893,5.368,9.421,7.448
				c7.711,2.722,10.715,6.004,10.715,11.705C88.072,71.868,83.764,76.274,76.827,77.479z"/>
		</g>
	</g>
	<g>
		<g>
			<path class="st7" d="M226.624,26.221C225.651,37.784,213.6,39.61,213.6,39.61c10.347,0.487,12.925,14.059,12.925,14.059
				c0.221-9.677,13.321-14.202,13.321-14.202C230.033,38.88,226.624,26.221,226.624,26.221z"/>
		</g>
	</g>
	<g>
		<g>
			<path class="st0" d="M239.937,37.97c-8.605-0.515-11.833-12.024-11.864-12.141c-0.19-0.702-0.847-1.165-1.584-1.102
				c-0.725,0.066-1.298,0.642-1.359,1.367c-0.859,10.215-11.313,11.964-11.754,12.033c-0.763,0.115-1.313,0.79-1.273,1.561
				c0.04,0.77,0.657,1.384,1.428,1.421c9.028,0.425,11.499,12.718,11.522,12.842c0.138,0.711,0.76,1.217,1.473,1.217
				c0.042,0,0.084-0.001,0.126-0.005c0.765-0.064,1.357-0.693,1.375-1.459c0.193-8.509,12.191-12.777,12.313-12.819
				c0.676-0.235,1.092-0.914,0.994-1.623S240.65,38.013,239.937,37.97z M226.37,48.315c-1.356-3.13-3.709-6.907-7.587-8.876
				c2.931-1.405,6.408-3.913,8.201-8.272c1.551,3.071,4.2,6.88,8.335,8.722C232.312,41.529,228.396,44.294,226.37,48.315z"/>
		</g>
	</g>
	<g>
		<g>
			<path class="st7" d="M204.926,43.201c-0.689,8.179-9.212,9.47-9.212,9.47c7.318,0.344,9.142,9.944,9.142,9.944
				c0.156-6.844,9.422-10.045,9.422-10.045C207.336,52.155,204.926,43.201,204.926,43.201z"/>
		</g>
	</g>
	<g>
		<g>
			<path class="st0" d="M214.367,51.073c-5.766-0.345-7.972-8.186-7.994-8.265c-0.189-0.702-0.855-1.159-1.581-1.102
				c-0.726,0.065-1.3,0.643-1.361,1.368c-0.578,6.871-7.646,8.067-7.941,8.114c-0.763,0.115-1.313,0.79-1.273,1.561
				c0.04,0.77,0.657,1.384,1.428,1.421c6.034,0.284,7.723,8.644,7.738,8.726c0.136,0.712,0.759,1.22,1.473,1.22
				c0.041,0,0.083-0.001,0.125-0.005c0.765-0.063,1.358-0.694,1.376-1.461c0.13-5.709,8.331-8.633,8.412-8.661
				c0.676-0.234,1.093-0.913,0.996-1.622C215.666,51.658,215.081,51.116,214.367,51.073z M204.782,57.868
				c-0.924-1.886-2.34-3.947-4.446-5.28c1.855-1.041,3.697-2.629,4.87-4.916c1.058,1.874,2.654,3.954,4.941,5.223
				C208.298,53.997,206.159,55.636,204.782,57.868z"/>
		</g>
	</g>
	<g>
		<g>
			<path class="st7" d="M204.888,16.544c-0.657,8.182-9.175,9.507-9.175,9.507c7.319,0.316,9.181,9.909,9.181,9.909
				c0.129-6.845,9.383-10.082,9.383-10.082C207.333,25.489,204.888,16.544,204.888,16.544z"/>
		</g>
	</g>
	<g>
		<g>
			<path class="st0" d="M214.36,24.379c-5.742-0.321-7.984-8.084-8.026-8.232c-0.193-0.703-0.873-1.167-1.586-1.097
				c-0.726,0.068-1.297,0.647-1.355,1.374c-0.552,6.873-7.614,8.097-7.91,8.145c-0.762,0.118-1.311,0.795-1.268,1.565
				s0.663,1.382,1.434,1.415c6.036,0.26,7.757,8.614,7.772,8.695c0.138,0.71,0.76,1.214,1.472,1.214
				c0.043,0,0.087-0.002,0.131-0.005c0.764-0.066,1.355-0.699,1.37-1.466c0.107-5.71,8.297-8.666,8.378-8.694
				c0.676-0.236,1.09-0.917,0.99-1.626C215.661,24.958,215.075,24.419,214.36,24.379z M204.802,31.211
				c-0.931-1.882-2.355-3.938-4.467-5.262c1.852-1.048,3.687-2.644,4.851-4.936c1.064,1.87,2.67,3.944,4.962,5.205
				C208.302,27.326,206.17,28.974,204.802,31.211z"/>
		</g>
	</g>
	<g>
		<g>
			<path class="st5" d="M232.084,155.508c-1.67-0.08-3.37,0.28-4.93,1.09l-33.56,17.48h-53.14c-11.58,0-22.92,3.27-32.72,9.44
				l-7.48,4.7c-2.86,1.8-6.18,2.76-9.57,2.76h-0.95v7.87c0.005,0,0.01-0.001,0.016-0.001v14.722c-0.005,0-0.01-0.001-0.016-0.001
				v9.02l71.25-2.19c6.11-0.4,11.99-2.45,17.02-5.95l59.22-45.53c1.94-1.35,2.57-3.24,2.62-5.06
				C239.954,159.508,236.434,155.698,232.084,155.508z"/>
		</g>
	</g>
	<g>
		<g>
			<path class="st0" d="M232.156,154.009c-1.957-0.097-3.929,0.341-5.696,1.258l-33.233,17.311h-52.772
				c-11.879,0-23.471,3.344-33.519,9.67l-7.48,4.7c-2.63,1.655-5.663,2.53-8.771,2.53h-0.95c-0.828,0-1.5,0.671-1.5,1.5v7.87
				c0,0.829,0.672,1.5,1.5,1.5c0.029,0,0.062-0.001,0.094-0.003c0.792-0.04,1.423-0.695,1.423-1.498
				c0-0.076-0.006-0.151-0.017-0.224v-6.153c3.482-0.098,6.866-1.124,9.818-2.982l7.48-4.7c9.57-6.025,20.608-9.209,31.922-9.209
				h53.14c0.241,0,0.479-0.058,0.693-0.169l33.558-17.479c1.295-0.673,2.739-0.991,4.174-0.923c3.519,0.154,6.415,3.274,6.326,6.811
				c-0.047,1.711-0.694,2.977-2.035,3.912l-59.162,45.487c-4.796,3.336-10.419,5.302-16.209,5.682l-69.705,2.143v-7.249
				c0.011-0.073,0.017-0.147,0.017-0.224c0-0.802-0.63-1.458-1.422-1.498c-0.032-0.002-0.065-0.003-0.095-0.003
				c-0.828,0-1.5,0.671-1.5,1.5v9.02c0,0.406,0.164,0.794,0.456,1.077c0.28,0.272,0.654,0.423,1.044,0.423c0.016,0,0.03,0,0.046,0
				l71.303-2.193c6.388-0.418,12.535-2.567,17.836-6.258l59.162-45.487c2.063-1.435,3.19-3.596,3.264-6.253
				C241.474,158.76,237.264,154.232,232.156,154.009z"/>
		</g>
	</g>
	<g>
		<g>
			<path class="st0" d="M195.092,174.856c-0.313-0.767-1.188-1.135-1.957-0.819c-0.767,0.314-1.133,1.19-0.818,1.957
				c1.16,2.829-0.496,6.244-2.73,8.155c-2.609,2.231-6.238,3.315-9.44,4.271c-7.229,2.158-13.785,3.487-20.726,4.895
				c-6.704,1.36-13.637,2.766-22.19,5.072c-0.8,0.216-1.273,1.039-1.058,1.839c0.181,0.669,0.786,1.11,1.447,1.11
				c0.129,0,0.261-0.017,0.392-0.052c8.462-2.281,15.347-3.678,22.006-5.028c7.008-1.421,13.628-2.764,20.986-4.96
				c3.488-1.041,7.44-2.221,10.532-4.865C194.496,183.897,196.871,179.196,195.092,174.856z"/>
		</g>
	</g>
	<g>
		<g>
			<rect x="16.154" y="175.059" class="st2" width="47.25" height="64.397"/>
		</g>
	</g>
	<g>
		<g>
			<path class="st0" d="M63.403,173.559h-47.25c-0.828,0-1.5,0.671-1.5,1.5v64.397c0,0.829,0.672,1.5,1.5,1.5h12.976
				c0.828,0,1.5-0.671,1.5-1.5s-0.672-1.5-1.5-1.5H17.653v-61.397h44.25v61.397H42.871c-0.828,0-1.5,0.671-1.5,1.5
				s0.672,1.5,1.5,1.5h20.532c0.828,0,1.5-0.671,1.5-1.5v-64.397C64.903,174.23,64.231,173.559,63.403,173.559z"/>
		</g>
	</g>
	<g>
		<g>
			<path class="st1" d="M81.746,175.059H63.404v64.397h18.342c4.413,0,7.991-3.578,7.991-7.991V183.05
				C89.737,178.636,86.159,175.059,81.746,175.059z"/>
		</g>
	</g>
	<g>
		<g>
			<path class="st0" d="M89.737,200.347c0.828,0,1.5-0.671,1.5-1.5V183.05c0-5.233-4.258-9.491-9.491-9.491H63.403
				c-0.828,0-1.5,0.671-1.5,1.5v64.397c0,0.829,0.672,1.5,1.5,1.5h18.343c5.233,0,9.491-4.258,9.491-9.491v-17.897
				c0-0.829-0.672-1.5-1.5-1.5s-1.5,0.671-1.5,1.5v17.897c0,3.579-2.912,6.491-6.491,6.491H64.903v-61.397h16.843
				c3.579,0,6.491,2.912,6.491,6.491v15.797C88.237,199.676,88.909,200.347,89.737,200.347z"/>
		</g>
	</g>
	<g>
		<g>
			<path class="st4" d="M76.57,220.073c-3.329,0-6.028,2.699-6.028,6.028c0,3.329,2.699,6.028,6.028,6.028s6.028-2.699,6.028-6.028
				C82.598,222.771,79.899,220.073,76.57,220.073z"/>
		</g>
	</g>
	<g>
		<g>
			<path class="st0" d="M76.57,218.573c-4.15,0-7.527,3.377-7.527,7.528s3.377,7.528,7.527,7.528s7.527-3.377,7.527-7.528
				S80.721,218.573,76.57,218.573z M76.57,230.628c-2.496,0-4.527-2.031-4.527-4.528s2.031-4.528,4.527-4.528
				s4.527,2.031,4.527,4.528S79.066,230.628,76.57,230.628z"/>
		</g>
	</g>
	<g>
		<g>
			<path class="st6" d="M232.024,157.008c-1.45-0.07-2.9,0.25-4.18,0.92l-4.22,2.2c0.69,1.08,1.08,2.35,1.05,3.69
				c-0.04,1.71-0.69,2.98-2.03,3.91l-59.17,45.49c-7.07,4.959-16.561,5.97-16.545,6.11l14.015-0.43c5.78-0.37,11.4-2.34,16.2-5.68
				l59.17-45.49c1.34-0.93,1.98-2.2,2.03-3.91C238.434,160.277,235.544,157.157,232.024,157.008z"/>
		</g>
	</g>
</g>
</svg>
