<?xml version="1.0" encoding="utf-8"?>
<!-- Generator: Adobe Illustrator 22.0.1, SVG Export Plug-In . SVG Version: 6.00 Build 0)  -->
<svg version="1.1" id="Layer_1" xmlns="http://www.w3.org/2000/svg" xmlns:xlink="http://www.w3.org/1999/xlink" x="0px" y="0px"
	 viewBox="0 0 256 256" style="enable-background:new 0 0 256 256;" xml:space="preserve">
<style type="text/css">
	.st0{fill:#3A312A;}
	.st1{fill:#8AC6DD;}
	.st2{fill:#F16C7A;}
	.st3{fill:#D7E057;}
	.st4{fill:#87796F;}
	.st5{fill:#FCE8CB;}
	.st6{fill:#DECAAD;}
	.st7{fill:#D6DF58;}
	.st8{fill:#FAE6CA;}
	.st9{fill:#DDC9AC;}
	.st10{fill:#D5DE58;}
	.st11{fill:#ED6E7A;}
	.st12{fill:#8AC5DC;}
	.st13{fill:#6CA8BF;}
	.st14{fill:#695B51;}
	.st15{fill:#F8E4C8;}
	.st16{fill:#EF6D7A;}
	.st17{fill-rule:evenodd;clip-rule:evenodd;fill:#F8E4C8;}
	.st18{fill:#89C4DB;}
	.st19{fill:#F59689;}
	.st20{fill:#D34E5C;}
	.st21{fill:#F7E3C7;}
	.st22{fill:#8AC3DA;}
	.st23{fill-rule:evenodd;clip-rule:evenodd;fill:#F7E3C7;}
	.st24{fill-rule:evenodd;clip-rule:evenodd;fill:#87796F;}
	.st25{fill:#B9C239;}
	.st26{fill:#D4DB56;}
	.st27{fill-rule:evenodd;clip-rule:evenodd;fill:#F16C7A;}
	.st28{fill-rule:evenodd;clip-rule:evenodd;fill:#F6E2C6;}
	.st29{fill:#F6E2C6;}
	.st30{fill-rule:evenodd;clip-rule:evenodd;fill:#FAE6CA;}
	.st31{fill:#B8C136;}
</style>
<g>
	<g>
		<g>
			<path class="st3" d="M47.967,26.134c-0.974,11.564-13.024,13.389-13.024,13.389c10.347,0.487,12.925,14.059,12.925,14.059
				c0.221-9.677,13.321-14.202,13.321-14.202C51.375,38.793,47.967,26.134,47.967,26.134z"/>
		</g>
	</g>
	<g>
		<g>
			<path class="st0" d="M61.279,37.882c-8.605-0.515-11.832-12.024-11.864-12.141c-0.191-0.703-0.865-1.164-1.583-1.102
				c-0.725,0.066-1.298,0.642-1.359,1.367c-0.86,10.215-11.314,11.964-11.755,12.033c-0.763,0.115-1.313,0.79-1.273,1.561
				c0.04,0.77,0.657,1.384,1.428,1.421C43.9,41.446,46.371,53.74,46.395,53.864c0.137,0.711,0.759,1.217,1.472,1.217
				c0.042,0,0.085-0.001,0.127-0.005c0.764-0.064,1.357-0.693,1.374-1.459c0.195-8.508,12.192-12.777,12.313-12.819
				c0.675-0.235,1.092-0.914,0.994-1.623C62.576,38.466,61.993,37.925,61.279,37.882z M47.712,48.229
				c-1.356-3.131-3.709-6.908-7.587-8.877c2.931-1.404,6.409-3.913,8.202-8.273c1.551,3.071,4.199,6.88,8.334,8.723
				C53.654,41.441,49.739,44.207,47.712,48.229z"/>
		</g>
	</g>
	<g>
		<g>
			<path class="st3" d="M26.268,43.114c-0.689,8.179-9.212,9.47-9.212,9.47c7.318,0.344,9.142,9.944,9.142,9.944
				c0.156-6.844,9.422-10.045,9.422-10.045C28.679,52.068,26.268,43.114,26.268,43.114z"/>
		</g>
	</g>
	<g>
		<g>
			<path class="st0" d="M35.71,50.986c-5.766-0.345-7.972-8.186-7.994-8.265c-0.19-0.702-0.852-1.165-1.582-1.102
				c-0.726,0.065-1.299,0.642-1.36,1.368c-0.579,6.871-7.646,8.067-7.942,8.114c-0.763,0.115-1.313,0.79-1.273,1.561
				c0.04,0.77,0.657,1.384,1.428,1.421c6.035,0.284,7.723,8.644,7.739,8.726c0.135,0.713,0.759,1.22,1.473,1.22
				c0.041,0,0.082-0.001,0.125-0.005c0.765-0.063,1.358-0.694,1.376-1.461c0.13-5.709,8.331-8.634,8.412-8.662
				c0.676-0.234,1.094-0.913,0.996-1.622C37.009,51.57,36.424,51.029,35.71,50.986z M26.125,57.781
				c-0.924-1.885-2.34-3.947-4.447-5.28c1.855-1.041,3.697-2.63,4.871-4.916c1.057,1.874,2.654,3.954,4.941,5.224
				C29.64,53.909,27.502,55.548,26.125,57.781z"/>
		</g>
	</g>
	<g>
		<g>
			<path class="st3" d="M26.268,16.456c-0.689,8.179-9.212,9.471-9.212,9.471c7.318,0.344,9.142,9.944,9.142,9.944
				c0.156-6.844,9.422-10.045,9.422-10.045C28.679,25.41,26.268,16.456,26.268,16.456z"/>
		</g>
	</g>
	<g>
		<g>
			<path class="st0" d="M35.71,24.329c-5.766-0.345-7.972-8.186-7.994-8.265c-0.19-0.702-0.852-1.166-1.582-1.102
				c-0.726,0.065-1.299,0.642-1.36,1.368c-0.579,6.871-7.646,8.067-7.942,8.114c-0.763,0.115-1.313,0.79-1.273,1.561
				c0.04,0.77,0.657,1.384,1.428,1.421c6.035,0.284,7.723,8.644,7.739,8.726c0.135,0.713,0.759,1.22,1.473,1.22
				c0.041,0,0.082-0.001,0.125-0.005c0.765-0.063,1.358-0.694,1.376-1.461c0.13-5.709,8.331-8.634,8.412-8.662
				c0.676-0.234,1.094-0.913,0.996-1.622C37.009,24.913,36.424,24.372,35.71,24.329z M26.125,31.124
				c-0.924-1.885-2.34-3.947-4.447-5.28c1.855-1.041,3.697-2.63,4.871-4.916c1.057,1.874,2.654,3.954,4.941,5.224
				C29.64,27.252,27.502,28.891,26.125,31.124z"/>
		</g>
	</g>
	<g>
		<g>
			<rect x="58.75" y="51.06" class="st3" width="56.447" height="142.5"/>
		</g>
	</g>
	<g>
		<g>
			<path class="st0" d="M115.197,49.56H58.75c-0.829,0-1.5,0.671-1.5,1.5v142.5c0,0.828,0.671,1.5,1.5,1.5h56.447
				c0.829,0,1.5-0.672,1.5-1.5V51.06C116.697,50.231,116.026,49.56,115.197,49.56z M113.697,192.06H60.25V52.56h53.447V192.06z"/>
		</g>
	</g>
	<g>
		<g>
			<rect x="140.776" y="16.56" class="st3" width="56.447" height="177"/>
		</g>
	</g>
	<g>
		<g>
			<path class="st0" d="M197.224,15.06h-56.447c-0.829,0-1.5,0.671-1.5,1.5v30.064c0,0.829,0.671,1.5,1.5,1.5
				c0.829,0,1.5-0.671,1.5-1.5V18.06h53.447v174h-53.447V60.829c0-0.829-0.671-1.5-1.5-1.5c-0.829,0-1.5,0.671-1.5,1.5v132.73
				c0,0.828,0.671,1.5,1.5,1.5h56.447c0.829,0,1.5-0.672,1.5-1.5v-177C198.724,15.731,198.052,15.06,197.224,15.06z"/>
		</g>
	</g>
	<g>
		<g>
			<path class="st4" d="M160.674,30.56h-5.348c-1.255,0-2.271,1.017-2.271,2.271v144.457c0,1.254,1.017,2.271,2.271,2.271h5.348
				c1.255,0,2.271-1.017,2.271-2.271V32.832C162.946,31.577,161.929,30.56,160.674,30.56z"/>
		</g>
	</g>
	<g>
		<g>
			<path class="st0" d="M160.674,29.06h-5.349c-2.08,0-3.771,1.692-3.771,3.771v144.457c0,2.08,1.692,3.771,3.771,3.771h5.349
				c2.08,0,3.771-1.691,3.771-3.771V32.832C164.446,30.752,162.754,29.06,160.674,29.06z M161.446,177.288
				c0,0.426-0.346,0.771-0.771,0.771h-5.349c-0.425,0-0.771-0.346-0.771-0.771V32.832c0-0.425,0.346-0.771,0.771-0.771h5.349
				c0.425,0,0.771,0.346,0.771,0.771V177.288z"/>
		</g>
	</g>
	<g>
		<g>
			<path class="st4" d="M182.674,30.56h-5.348c-1.255,0-2.271,1.017-2.271,2.271v144.457c0,1.254,1.017,2.271,2.271,2.271h5.348
				c1.255,0,2.271-1.017,2.271-2.271V32.832C184.946,31.577,183.929,30.56,182.674,30.56z"/>
		</g>
	</g>
	<g>
		<g>
			<path class="st0" d="M182.674,29.06h-5.349c-2.08,0-3.771,1.692-3.771,3.771v144.457c0,2.08,1.692,3.771,3.771,3.771h5.349
				c2.08,0,3.771-1.691,3.771-3.771V32.832C186.446,30.752,184.754,29.06,182.674,29.06z M183.446,177.288
				c0,0.426-0.346,0.771-0.771,0.771h-5.349c-0.425,0-0.771-0.346-0.771-0.771V32.832c0-0.425,0.346-0.771,0.771-0.771h5.349
				c0.425,0,0.771,0.346,0.771,0.771V177.288z"/>
		</g>
	</g>
	<g>
		<g>
			<polygon class="st2" points="115.197,77.113 115.197,193.56 163,193.56 163,119.56 			"/>
		</g>
	</g>
	<g>
		<g>
			<path class="st0" d="M163.996,118.438l-47.803-42.447c-0.442-0.392-1.072-0.488-1.611-0.247
				c-0.539,0.242-0.885,0.778-0.885,1.368V193.56c0,0.828,0.671,1.5,1.5,1.5H163c0.829,0,1.5-0.672,1.5-1.5v-74
				C164.5,119.131,164.316,118.723,163.996,118.438z M161.5,192.06h-44.803V80.451l44.803,39.783V192.06z"/>
		</g>
	</g>
	<g>
		<g>
			<path class="st1" d="M95.568,66.455H78.38c-1.654,0-2.994,1.341-2.994,2.994v17.188c0,1.654,1.341,2.994,2.994,2.994h17.188
				c1.654,0,2.994-1.341,2.994-2.994V69.449C98.562,67.795,97.221,66.455,95.568,66.455z"/>
		</g>
	</g>
	<g>
		<g>
			<path class="st0" d="M95.568,64.955H78.38c-2.479,0-4.495,2.016-4.495,4.494v17.188c0,2.478,2.016,4.494,4.495,4.494h17.188
				c2.478,0,4.494-2.016,4.494-4.494V69.449C100.062,66.971,98.046,64.955,95.568,64.955z M97.062,86.637
				c0,0.824-0.67,1.494-1.494,1.494H78.38c-0.824,0-1.495-0.67-1.495-1.494V69.449c0-0.824,0.67-1.494,1.495-1.494h17.188
				c0.824,0,1.494,0.67,1.494,1.494V86.637z"/>
		</g>
	</g>
	<g>
		<g>
			<path class="st1" d="M95.568,104.38H78.38c-1.654,0-2.994,1.341-2.994,2.994v17.188c0,1.654,1.341,2.994,2.994,2.994h17.188
				c1.654,0,2.994-1.34,2.994-2.994v-17.188C98.562,105.72,97.221,104.38,95.568,104.38z"/>
		</g>
	</g>
	<g>
		<g>
			<path class="st0" d="M95.568,102.879H78.38c-2.479,0-4.495,2.016-4.495,4.495v17.188c0,2.478,2.016,4.495,4.495,4.495h17.188
				c2.478,0,4.494-2.017,4.494-4.495v-17.188C100.062,104.896,98.046,102.879,95.568,102.879z M97.062,124.562
				c0,0.824-0.67,1.494-1.494,1.494H78.38c-0.824,0-1.495-0.67-1.495-1.494v-17.188c0-0.824,0.67-1.495,1.495-1.495h17.188
				c0.824,0,1.494,0.67,1.494,1.495V124.562z"/>
		</g>
	</g>
	<g>
		<g>
			<path class="st1" d="M95.568,142.305H78.38c-1.654,0-2.994,1.34-2.994,2.994v17.188c0,1.654,1.341,2.994,2.994,2.994h17.188
				c1.654,0,2.994-1.341,2.994-2.994v-17.188C98.562,143.645,97.221,142.305,95.568,142.305z"/>
		</g>
	</g>
	<g>
		<g>
			<path class="st0" d="M95.568,140.805H78.38c-2.479,0-4.495,2.016-4.495,4.494v17.188c0,2.479,2.016,4.494,4.495,4.494h17.188
				c2.478,0,4.494-2.016,4.494-4.494v-17.188C100.062,142.82,98.046,140.805,95.568,140.805z M97.062,162.486
				c0,0.824-0.67,1.494-1.494,1.494H78.38c-0.824,0-1.495-0.67-1.495-1.494v-17.188c0-0.824,0.67-1.494,1.495-1.494h17.188
				c0.824,0,1.494,0.67,1.494,1.494V162.486z"/>
		</g>
	</g>
	<g>
		<g>
			<rect x="133.947" y="139.876" class="st1" width="71.053" height="53.684"/>
		</g>
	</g>
	<g>
		<g>
			<path class="st0" d="M205,138.376h-71.053c-0.829,0-1.5,0.672-1.5,1.5v53.684c0,0.828,0.671,1.5,1.5,1.5H205
				c0.829,0,1.5-0.672,1.5-1.5v-53.684C206.5,139.048,205.829,138.376,205,138.376z M203.5,192.06h-68.053v-50.684H203.5V192.06z"/>
		</g>
	</g>
	<g>
		<g>
			<path class="st4" d="M189.145,152.718h-39.343c-1.255,0-2.271,1.017-2.271,2.271v6.299c0,1.254,1.017,2.271,2.271,2.271h39.343
				c1.254,0,2.271-1.017,2.271-2.271v-6.299C191.416,153.735,190.399,152.718,189.145,152.718z"/>
		</g>
	</g>
	<g>
		<g>
			<path class="st0" d="M189.145,151.218h-39.343c-2.079,0-3.771,1.691-3.771,3.771v6.299c0,2.08,1.692,3.771,3.771,3.771h39.343
				c2.08,0,3.771-1.691,3.771-3.771v-6.299C192.917,152.909,191.225,151.218,189.145,151.218z M189.917,161.288
				c0,0.426-0.346,0.771-0.771,0.771h-39.343c-0.425,0-0.771-0.346-0.771-0.771v-6.299c0-0.426,0.346-0.771,0.771-0.771h39.343
				c0.425,0,0.771,0.346,0.771,0.771V161.288z"/>
		</g>
	</g>
	<g>
		<g>
			<path class="st5" d="M232.084,155.595c-1.67-0.08-3.37,0.28-4.93,1.09l-33.56,17.48h-53.14c-11.58,0-22.92,3.27-32.72,9.44
				l-7.48,4.7c-2.86,1.8-6.18,2.76-9.57,2.76h-0.95v7.87c0.006,0,0.01-0.001,0.016-0.001v14.722c-0.006,0-0.01-0.001-0.016-0.001
				v9.02l71.25-2.19c6.11-0.4,11.99-2.45,17.02-5.95l59.22-45.53c1.94-1.35,2.57-3.24,2.62-5.06
				C239.954,159.595,236.434,155.785,232.084,155.595z"/>
		</g>
	</g>
	<g>
		<g>
			<path class="st0" d="M232.155,154.097c-1.957-0.095-3.927,0.34-5.694,1.258l-33.234,17.311h-52.773
				c-11.88,0-23.471,3.344-33.518,9.669l-7.481,4.701c-2.63,1.655-5.663,2.53-8.771,2.53h-0.95c-0.829,0-1.5,0.672-1.5,1.5v7.869
				c0,0.828,0.688,1.5,1.516,1.5s1.492-0.672,1.492-1.5c0-0.053-0.003-0.104-0.008-0.155v-6.222
				c3.481-0.098,6.864-1.124,9.817-2.982l7.482-4.701c9.569-6.024,20.607-9.209,31.921-9.209h53.14c0.241,0,0.479-0.059,0.693-0.17
				l33.558-17.479c1.295-0.672,2.731-0.996,4.173-0.922c3.519,0.153,6.416,3.274,6.326,6.811c-0.047,1.711-0.693,2.977-2.034,3.911
				l-59.163,45.488c-4.794,3.336-10.417,5.302-16.209,5.683l-69.704,2.142v-7.251c0.011-0.072,0.016-0.146,0.016-0.221
				c0-0.802-0.629-1.457-1.421-1.498c-0.032-0.002-0.065-0.003-0.095-0.003c-0.829,0-1.5,0.672-1.5,1.5v9.02
				c0,0.406,0.165,0.794,0.456,1.077c0.28,0.271,0.655,0.423,1.044,0.423c0.015,0,0.031,0,0.046-0.001l71.302-2.191
				c6.389-0.419,12.537-2.568,17.836-6.258l59.163-45.488c2.061-1.435,3.189-3.596,3.262-6.253
				C241.474,158.848,237.263,154.32,232.155,154.097z"/>
		</g>
	</g>
	<g>
		<g>
			<path class="st0" d="M195.092,174.943c-0.314-0.767-1.188-1.131-1.957-0.818c-0.766,0.314-1.133,1.19-0.818,1.957
				c1.16,2.828-0.496,6.242-2.731,8.154c-2.609,2.231-6.238,3.314-9.44,4.27c-7.23,2.158-13.786,3.487-20.727,4.896
				c-6.704,1.359-13.636,2.765-22.189,5.071c-0.8,0.216-1.273,1.039-1.058,1.839c0.18,0.669,0.786,1.109,1.447,1.109
				c0.129,0,0.261-0.017,0.392-0.052c8.461-2.281,15.346-3.678,22.004-5.027c7.009-1.422,13.629-2.765,20.988-4.961
				c3.487-1.041,7.439-2.22,10.532-4.865C194.496,183.984,196.872,179.282,195.092,174.943z"/>
		</g>
	</g>
	<g>
		<g>
			<rect x="16.154" y="175.146" class="st2" width="47.25" height="64.397"/>
		</g>
	</g>
	<g>
		<g>
			<path class="st0" d="M63.404,173.646H44.846c-0.829,0-1.5,0.672-1.5,1.5s0.671,1.5,1.5,1.5h17.058v61.397h-44.25v-61.397h13
				c0.829,0,1.5-0.672,1.5-1.5s-0.671-1.5-1.5-1.5h-14.5c-0.829,0-1.5,0.672-1.5,1.5v64.397c0,0.828,0.671,1.5,1.5,1.5h47.25
				c0.829,0,1.5-0.672,1.5-1.5v-64.397C64.904,174.318,64.232,173.646,63.404,173.646z"/>
		</g>
	</g>
	<g>
		<g>
			<path class="st1" d="M81.746,175.146H63.404v64.397h18.342c4.413,0,7.991-3.578,7.991-7.991v-48.415
				C89.737,178.724,86.159,175.146,81.746,175.146z"/>
		</g>
	</g>
	<g>
		<g>
			<path class="st0" d="M89.737,200.435c0.829,0,1.5-0.672,1.5-1.5v-15.797c0-5.233-4.258-9.491-9.491-9.491H63.404
				c-0.829,0-1.5,0.672-1.5,1.5v64.397c0,0.828,0.671,1.5,1.5,1.5h18.342c5.233,0,9.491-4.258,9.491-9.491v-17.897
				c0-0.828-0.671-1.5-1.5-1.5s-1.5,0.672-1.5,1.5v17.897c0,3.579-2.912,6.491-6.491,6.491H64.904v-61.397h16.842
				c3.579,0,6.491,2.912,6.491,6.491v15.797C88.237,199.763,88.909,200.435,89.737,200.435z"/>
		</g>
	</g>
	<g>
		<g>
			<path class="st4" d="M76.57,220.16c-3.329,0-6.028,2.699-6.028,6.028s2.699,6.028,6.028,6.028c3.329,0,6.028-2.699,6.028-6.028
				S79.899,220.16,76.57,220.16z"/>
		</g>
	</g>
	<g>
		<g>
			<path class="st0" d="M76.57,218.66c-4.151,0-7.528,3.377-7.528,7.528c0,4.15,3.377,7.527,7.528,7.527s7.528-3.377,7.528-7.527
				C84.098,222.037,80.721,218.66,76.57,218.66z M76.57,230.716c-2.497,0-4.528-2.031-4.528-4.527c0-2.497,2.031-4.528,4.528-4.528
				s4.528,2.031,4.528,4.528C81.098,228.685,79.067,230.716,76.57,230.716z"/>
		</g>
	</g>
	<g>
		<g>
			<path class="st6" d="M232.024,157.095c-1.45-0.07-2.9,0.25-4.18,0.92l-4.22,2.2c0.69,1.08,1.08,2.35,1.05,3.69
				c-0.04,1.71-0.69,2.98-2.03,3.91l-59.17,45.49c-7.07,4.959-16.561,5.97-16.545,6.11l14.015-0.43c5.78-0.37,11.4-2.34,16.2-5.68
				l59.17-45.49c1.34-0.93,1.98-2.2,2.03-3.91C238.434,160.365,235.544,157.245,232.024,157.095z"/>
		</g>
	</g>
</g>
</svg>
