<?xml version="1.0" encoding="utf-8"?>
<!-- Generator: Adobe Illustrator 22.0.1, SVG Export Plug-In . SVG Version: 6.00 Build 0)  -->
<svg version="1.1" id="Layer_1" xmlns="http://www.w3.org/2000/svg" xmlns:xlink="http://www.w3.org/1999/xlink" x="0px" y="0px"
	 viewBox="0 0 256 256" style="enable-background:new 0 0 256 256;" xml:space="preserve">
<style type="text/css">
	.st0{fill:#3A312A;}
	.st1{fill:#8AC6DD;}
	.st2{fill:#F16C7A;}
	.st3{fill:#D7E057;}
	.st4{fill:#87796F;}
	.st5{fill:#FCE8CB;}
	.st6{fill:#DECAAD;}
	.st7{fill:#D6DF58;}
	.st8{fill:#FAE6CA;}
	.st9{fill:#DDC9AC;}
	.st10{fill:#D5DE58;}
	.st11{fill:#ED6E7A;}
	.st12{fill:#8AC5DC;}
	.st13{fill:#6CA8BF;}
	.st14{fill:#695B51;}
	.st15{fill:#F8E4C8;}
	.st16{fill:#EF6D7A;}
	.st17{fill-rule:evenodd;clip-rule:evenodd;fill:#F8E4C8;}
	.st18{fill:#89C4DB;}
	.st19{fill:#F59689;}
	.st20{fill:#D34E5C;}
	.st21{fill:#F7E3C7;}
	.st22{fill:#8AC3DA;}
	.st23{fill-rule:evenodd;clip-rule:evenodd;fill:#F7E3C7;}
	.st24{fill-rule:evenodd;clip-rule:evenodd;fill:#87796F;}
	.st25{fill:#B9C239;}
	.st26{fill:#D4DB56;}
	.st27{fill-rule:evenodd;clip-rule:evenodd;fill:#F16C7A;}
	.st28{fill-rule:evenodd;clip-rule:evenodd;fill:#F6E2C6;}
	.st29{fill:#F6E2C6;}
	.st30{fill-rule:evenodd;clip-rule:evenodd;fill:#FAE6CA;}
	.st31{fill:#B8C136;}
</style>
<g>
	<g>
		<g>
			<path class="st7" d="M47.679,88.498c-0.974,11.564-13.025,13.39-13.025,13.39c10.347,0.487,12.925,14.059,12.925,14.059
				c0.221-9.677,13.321-14.202,13.321-14.202C51.087,101.157,47.679,88.498,47.679,88.498z"/>
		</g>
	</g>
	<g>
		<g>
			<path class="st0" d="M60.99,100.247c-8.604-0.515-11.832-12.024-11.863-12.141c-0.191-0.703-0.862-1.169-1.583-1.102
				c-0.725,0.066-1.298,0.642-1.359,1.367c-0.86,10.215-11.314,11.964-11.754,12.032c-0.763,0.116-1.313,0.791-1.273,1.561
				c0.04,0.771,0.657,1.385,1.427,1.421c9.028,0.426,11.498,12.719,11.522,12.843c0.137,0.712,0.759,1.218,1.472,1.218
				c0.042,0,0.084-0.002,0.126-0.005c0.764-0.064,1.357-0.693,1.375-1.46c0.195-8.51,12.192-12.778,12.313-12.82
				c0.675-0.234,1.092-0.914,0.994-1.622C62.288,100.83,61.704,100.289,60.99,100.247z M47.424,110.593
				c-1.356-3.131-3.708-6.907-7.587-8.876c2.931-1.405,6.409-3.914,8.202-8.273c1.551,3.071,4.199,6.88,8.334,8.723
				C53.366,103.806,49.451,106.571,47.424,110.593z"/>
		</g>
	</g>
	<g>
		<g>
			<path class="st7" d="M25.981,105.479c-0.689,8.179-9.212,9.47-9.212,9.47c7.318,0.344,9.142,9.944,9.142,9.944
				c0.156-6.844,9.422-10.045,9.422-10.045C28.391,114.433,25.981,105.479,25.981,105.479z"/>
		</g>
	</g>
	<g>
		<g>
			<path class="st0" d="M35.422,113.351c-5.766-0.345-7.972-8.186-7.994-8.265c-0.19-0.702-0.854-1.171-1.582-1.102
				c-0.726,0.065-1.299,0.643-1.36,1.368c-0.579,6.871-7.646,8.066-7.942,8.113c-0.763,0.116-1.313,0.791-1.273,1.561
				c0.04,0.771,0.657,1.385,1.427,1.421c6.036,0.284,7.724,8.645,7.739,8.727c0.135,0.712,0.759,1.22,1.472,1.22
				c0.042,0,0.083-0.002,0.125-0.005c0.765-0.063,1.358-0.693,1.376-1.461c0.13-5.709,8.332-8.634,8.413-8.662
				c0.677-0.234,1.094-0.913,0.996-1.622C36.721,113.935,36.137,113.393,35.422,113.351z M25.837,120.146
				c-0.924-1.886-2.34-3.947-4.447-5.279c1.856-1.041,3.697-2.63,4.871-4.917c1.057,1.874,2.654,3.955,4.941,5.224
				C29.353,116.273,27.213,117.913,25.837,120.146z"/>
		</g>
	</g>
	<g>
		<g>
			<path class="st7" d="M25.943,78.821c-0.657,8.182-9.175,9.507-9.175,9.507c7.319,0.316,9.181,9.908,9.181,9.908
				c0.129-6.845,9.383-10.082,9.383-10.082C28.388,87.766,25.943,78.821,25.943,78.821z"/>
		</g>
	</g>
	<g>
		<g>
			<path class="st0" d="M35.415,86.656c-5.747-0.321-7.988-8.098-8.026-8.232c-0.192-0.701-0.855-1.177-1.587-1.096
				c-0.725,0.067-1.297,0.646-1.355,1.373c-0.552,6.873-7.615,8.097-7.911,8.145c-0.762,0.119-1.31,0.796-1.267,1.565
				c0.043,0.771,0.663,1.383,1.433,1.416c6.036,0.26,7.757,8.613,7.773,8.695c0.138,0.71,0.76,1.214,1.471,1.214
				c0.043,0,0.087-0.002,0.131-0.006c0.765-0.066,1.356-0.698,1.37-1.466c0.108-5.709,8.298-8.666,8.378-8.694
				c0.676-0.236,1.09-0.917,0.99-1.626C36.716,87.236,36.129,86.696,35.415,86.656z M25.857,93.489
				c-0.932-1.883-2.355-3.938-4.468-5.263c1.851-1.049,3.687-2.645,4.851-4.936c1.064,1.87,2.669,3.944,4.962,5.204
				C29.357,89.604,27.224,91.251,25.857,93.489z"/>
		</g>
	</g>
	<g>
		<g>
			<path class="st4" d="M163.047,116.28l11.997-32.792h-0.026c0.464-1.498,0.714-3.088,0.714-4.738c0-8.836-7.164-16-16-16
				s-16,7.164-16,16c0-8.836-7.164-16-16-16s-16,7.164-16,16c0-8.836-7.163-16-16-16c-8.836,0-16,7.164-16,16
				c0,1.65,0.251,3.241,0.714,4.738h-0.026l11.997,32.792c-27.316,13.157-46.168,41.103-46.168,73.453
				c0,45.001,36.481,50.018,81.482,50.018c45.002,0,81.482-5.016,81.482-50.018C209.215,157.383,190.364,129.437,163.047,116.28z"/>
		</g>
	</g>
	<g>
		<g>
			<path class="st0" d="M164.919,115.529l11.534-31.525c0.041-0.111,0.067-0.226,0.079-0.341c0.465-1.591,0.701-3.242,0.701-4.913
				c0-9.649-7.851-17.5-17.5-17.5c-7.128,0-13.274,4.284-16,10.412c-2.726-6.128-8.872-10.412-16-10.412s-13.274,4.284-16,10.412
				c-2.726-6.128-8.872-10.412-16-10.412c-9.649,0-17.5,7.851-17.5,17.5c0,1.667,0.235,3.315,0.698,4.905
				c0.013,0.117,0.04,0.234,0.082,0.349l11.533,31.525c-27.864,13.997-45.795,42.972-45.795,74.203
				c0,21.335,8.09,35.48,24.731,43.244c15.586,7.271,37.208,8.273,58.251,8.273c21.044,0,42.665-1.002,58.251-8.273
				c16.642-7.764,24.731-21.909,24.731-43.244C210.715,158.502,192.784,129.526,164.919,115.529z M127.733,238.25
				c-42.149,0-79.982-3.711-79.982-48.518c0-30.54,17.789-58.842,45.318-72.101c0.695-0.335,1.023-1.143,0.758-1.867L81.925,83.231
				c-0.011-0.063-0.026-0.125-0.045-0.187c-0.429-1.387-0.647-2.832-0.647-4.295c0-7.995,6.505-14.5,14.5-14.5s14.5,6.505,14.5,14.5
				c0,0.828,0.671,1.5,1.5,1.5s1.5-0.672,1.5-1.5c0-7.995,6.505-14.5,14.5-14.5s14.5,6.505,14.5,14.5c0,0.828,0.671,1.5,1.5,1.5
				s1.5-0.672,1.5-1.5c0-7.995,6.505-14.5,14.5-14.5s14.5,6.505,14.5,14.5c0,1.464-0.218,2.908-0.647,4.294
				c-0.019,0.062-0.034,0.124-0.044,0.187l-11.903,32.534c-0.265,0.725,0.063,1.532,0.758,1.867
				c27.53,13.259,45.319,41.561,45.319,72.101C207.715,234.539,169.882,238.25,127.733,238.25z"/>
		</g>
	</g>
	<g>
		<g>
			<circle class="st3" cx="127.733" cy="176.628" r="38"/>
		</g>
	</g>
	<g>
		<g>
			<path class="st0" d="M127.733,137.128c-21.78,0-39.5,17.72-39.5,39.5s17.72,39.5,39.5,39.5s39.5-17.72,39.5-39.5
				S149.513,137.128,127.733,137.128z M127.733,213.128c-20.126,0-36.5-16.374-36.5-36.5s16.374-36.5,36.5-36.5
				s36.5,16.374,36.5,36.5S147.859,213.128,127.733,213.128z"/>
		</g>
	</g>
	<g>
		<g>
			<path class="st4" d="M132.251,172.331c-5.534-2.083-7.814-3.45-7.814-5.599c0-1.822,1.367-3.646,5.6-3.646
				c4.687,0,7.683,1.497,9.375,2.214l1.888-7.357c-2.149-1.042-5.079-1.955-9.441-2.149v-5.73h-6.381v6.185
				c-6.967,1.367-11.003,5.86-11.003,11.59c0,6.316,4.753,9.572,11.719,11.915c4.818,1.628,6.902,3.191,6.902,5.664
				c0,2.605-2.54,4.037-6.25,4.037c-4.232,0-8.073-1.367-10.808-2.864l-1.953,7.617c2.474,1.432,6.706,2.604,11.068,2.8v6.185h6.381
				v-6.641c7.488-1.301,11.59-6.25,11.59-12.045C143.124,178.646,139.998,175.065,132.251,172.331z"/>
		</g>
	</g>
	<g>
		<g>
			<path class="st0" d="M132.779,170.926c-4.923-1.852-6.842-3.028-6.842-4.194c0-1.867,2.569-2.146,4.1-2.146
				c3.965,0,6.576,1.135,8.303,1.885l0.487,0.21c0.401,0.172,0.859,0.157,1.25-0.036c0.392-0.194,0.679-0.549,0.788-0.972
				l1.888-7.356c0.178-0.691-0.156-1.411-0.798-1.723c-2.476-1.201-5.299-1.926-8.595-2.205v-4.324c0-0.828-0.671-1.5-1.5-1.5
				h-6.381c-0.829,0-1.5,0.672-1.5,1.5v4.986c-6.821,1.758-11.003,6.57-11.003,12.788c0,8.023,6.81,11.342,12.74,13.336
				c5.169,1.747,5.882,3.071,5.882,4.243c0,2.416-3.957,2.538-4.751,2.538c-4.515,0-8.259-1.68-10.089-2.681
				c-0.406-0.222-0.893-0.244-1.317-0.06c-0.425,0.185-0.741,0.555-0.856,1.003l-1.953,7.616c-0.167,0.651,0.12,1.334,0.702,1.671
				c2.546,1.475,6.401,2.548,10.32,2.903v4.784c0,0.828,0.671,1.5,1.5,1.5h6.38c0.829,0,1.5-0.672,1.5-1.5v-5.419
				c7.084-1.679,11.59-6.779,11.59-13.268C144.623,177.918,141.073,173.854,132.779,170.926z M131.277,195.073
				c-0.719,0.124-1.243,0.748-1.243,1.478v5.142h-3.38v-4.686c0-0.803-0.631-1.463-1.433-1.498
				c-3.389-0.152-6.927-0.949-9.386-2.085l1.196-4.666c2.325,1.047,5.794,2.197,9.816,2.197c4.708,0,7.751-2.174,7.751-5.538
				c0-3.875-3.807-5.695-7.924-7.086c-7.499-2.521-10.698-5.659-10.698-10.493c0-5.132,3.661-8.914,9.792-10.118
				c0.704-0.138,1.211-0.755,1.211-1.472v-4.685h3.381v4.23c0,0.803,0.631,1.463,1.433,1.498c2.988,0.134,5.533,0.629,7.739,1.509
				l-1.138,4.434c-1.878-0.761-4.613-1.649-8.357-1.649c-5.235,0-7.1,2.658-7.1,5.146c0,3.425,3.808,5.13,8.814,7.013
				c8.194,2.894,9.872,6.395,9.872,10.762C141.623,189.915,137.659,193.964,131.277,195.073z"/>
		</g>
	</g>
	<g>
		<g>
			<path class="st2" d="M168.733,104.75h-42.388h-13.723H87.733c-4.142,0-7.5,3.358-7.5,7.5s3.358,7.5,7.5,7.5h81
				c4.142,0,7.5-3.358,7.5-7.5S172.875,104.75,168.733,104.75z"/>
		</g>
	</g>
	<g>
		<g>
			<path class="st0" d="M168.733,103.25h-42.388c-0.829,0-1.5,0.672-1.5,1.5s0.671,1.5,1.5,1.5h42.388c3.309,0,6,2.691,6,6
				s-2.691,6-6,6h-81c-3.309,0-6-2.691-6-6s2.691-6,6-6h24.889c0.829,0,1.5-0.672,1.5-1.5s-0.671-1.5-1.5-1.5H87.733
				c-4.962,0-9,4.037-9,9s4.038,9,9,9h81c4.962,0,9-4.037,9-9S173.695,103.25,168.733,103.25z"/>
		</g>
	</g>
	<g>
		<g>
			<path class="st1" d="M124.93,32.631l-16.618-14.956c-1.019-0.917-2.341-1.425-3.712-1.425H51.335H37.632H22.317
				c-3.065,0-5.55,2.485-5.55,5.55v29.307c0,3.065,2.485,5.55,5.55,5.55h82.342c1.335,0,2.626-0.481,3.635-1.356l16.559-14.351
				C127.374,38.764,127.41,34.863,124.93,32.631z"/>
		</g>
	</g>
	<g>
		<g>
			<path class="st0" d="M125.934,31.516L109.315,16.56c-1.297-1.167-2.972-1.81-4.716-1.81H51.335c-0.829,0-1.5,0.672-1.5,1.5
				s0.671,1.5,1.5,1.5H104.6c1.002,0,1.964,0.369,2.709,1.04l16.618,14.956c0.863,0.776,1.352,1.888,1.34,3.048
				c-0.011,1.161-0.52,2.262-1.397,3.021l-16.559,14.352c-0.736,0.638-1.678,0.989-2.652,0.989H22.317
				c-2.233,0-4.05-1.816-4.05-4.05V21.8c0-2.233,1.817-4.05,4.05-4.05h15.314c0.829,0,1.5-0.672,1.5-1.5s-0.671-1.5-1.5-1.5H22.317
				c-3.887,0-7.05,3.162-7.05,7.05v29.307c0,3.888,3.163,7.05,7.05,7.05h82.342c1.697,0,3.336-0.611,4.617-1.722l16.558-14.352
				c1.527-1.322,2.414-3.24,2.433-5.26C128.286,34.802,127.436,32.868,125.934,31.516z"/>
		</g>
	</g>
	<g>
		<g>
			<polygon class="st4" points="38.128,42.613 38.128,38.04 49.284,38.04 49.284,33.308 38.128,33.308 38.128,29.622 50.154,29.622 
				50.154,24.669 30.944,24.669 30.944,47.867 50.503,47.867 50.503,42.613 			"/>
		</g>
	</g>
	<g>
		<g>
			<path class="st0" d="M50.502,41.113H39.628V39.54h9.656c0.829,0,1.5-0.672,1.5-1.5v-4.731c0-0.828-0.671-1.5-1.5-1.5h-9.656
				v-0.687h10.526c0.829,0,1.5-0.672,1.5-1.5v-4.953c0-0.828-0.671-1.5-1.5-1.5h-19.21c-0.829,0-1.5,0.672-1.5,1.5v23.198
				c0,0.828,0.671,1.5,1.5,1.5h19.558c0.829,0,1.5-0.672,1.5-1.5v-5.254C52.002,41.785,51.331,41.113,50.502,41.113z M49.002,46.367
				H32.444V26.169h16.21v1.953H38.128c-0.829,0-1.5,0.672-1.5,1.5v3.687c0,0.828,0.671,1.5,1.5,1.5h9.656v1.731h-9.656
				c-0.829,0-1.5,0.672-1.5,1.5v4.573c0,0.828,0.671,1.5,1.5,1.5h10.874V46.367z"/>
		</g>
	</g>
	<g>
		<g>
			<polygon class="st4" points="54.354,24.669 54.354,30.397 61.665,30.397 61.665,47.867 68.833,47.867 68.833,30.397 
				76.144,30.397 76.144,24.669 			"/>
		</g>
	</g>
	<g>
		<g>
			<path class="st0" d="M76.144,23.169h-21.79c-0.829,0-1.5,0.672-1.5,1.5v5.729c0,0.828,0.671,1.5,1.5,1.5h5.811v15.97
				c0,0.828,0.671,1.5,1.5,1.5h7.168c0.829,0,1.5-0.672,1.5-1.5v-15.97h5.811c0.829,0,1.5-0.672,1.5-1.5v-5.729
				C77.644,23.841,76.972,23.169,76.144,23.169z M74.644,28.897h-5.811c-0.829,0-1.5,0.672-1.5,1.5v15.97h-4.168v-15.97
				c0-0.828-0.671-1.5-1.5-1.5h-5.811v-2.729h18.79V28.897z"/>
		</g>
	</g>
	<g>
		<g>
			<polygon class="st4" points="98.762,29.654 98.762,24.669 81.039,24.669 81.039,47.867 88.239,47.867 88.239,38.388 
				97.227,38.388 97.227,33.705 88.239,33.705 88.239,29.654 			"/>
		</g>
	</g>
	<g>
		<g>
			<path class="st0" d="M98.762,23.169H81.039c-0.829,0-1.5,0.672-1.5,1.5v23.198c0,0.828,0.671,1.5,1.5,1.5h7.2
				c0.829,0,1.5-0.672,1.5-1.5v-7.979h7.488c0.829,0,1.5-0.672,1.5-1.5v-4.685c0-0.828-0.671-1.5-1.5-1.5h-7.488v-1.051h9.023
				c0.829,0,1.5-0.672,1.5-1.5v-4.984C100.262,23.841,99.591,23.169,98.762,23.169z M97.262,28.153h-9.023
				c-0.829,0-1.5,0.672-1.5,1.5v4.051c0,0.828,0.671,1.5,1.5,1.5h7.488v1.685h-7.488c-0.829,0-1.5,0.672-1.5,1.5v7.979h-4.2V26.169
				h14.723V28.153z"/>
		</g>
	</g>
	<g>
		<g>
			<circle class="st4" cx="113.019" cy="36.263" r="3.24"/>
		</g>
	</g>
	<g>
		<g>
			<path class="st0" d="M113.019,31.522c-2.614,0-4.74,2.126-4.74,4.74s2.126,4.74,4.74,4.74s4.74-2.126,4.74-4.74
				S115.632,31.522,113.019,31.522z M113.019,38.003c-0.959,0-1.74-0.78-1.74-1.74s0.781-1.74,1.74-1.74s1.74,0.78,1.74,1.74
				S113.978,38.003,113.019,38.003z"/>
		</g>
	</g>
	<g>
		<g>
			<path class="st0" d="M201.483,34.75h-84.25c-0.829,0-1.5,0.672-1.5,1.5s0.671,1.5,1.5,1.5h84.25
				c19.988,0,36.25,16.262,36.25,36.25s-16.262,36.25-36.25,36.25h-25.25c-0.829,0-1.5,0.672-1.5,1.5s0.671,1.5,1.5,1.5h25.25
				c21.643,0,39.25-17.607,39.25-39.25S223.125,34.75,201.483,34.75z"/>
		</g>
	</g>
	<g>
		<g>
			<path class="st14" d="M159.733,64.25c-2.96,0-5.71,0.89-8,2.42c3.92,2.59,6.5,7.04,6.5,12.08c0,1.46-0.22,2.91-0.65,4.29
				c-0.02,0.07-0.03,0.13-0.04,0.19l-7.33,20.02h16l7.33-20.02c0.01-0.06,0.02-0.12,0.04-0.19c0.43-1.38,0.65-2.83,0.65-4.29
				C174.233,70.75,167.733,64.25,159.733,64.25z"/>
		</g>
	</g>
	<g>
		<g>
			<path class="st14" d="M169.023,121.24c-0.1,0-0.19,0.01-0.29,0.01h-15.69c23.71,14.36,38.67,40.48,38.67,68.48
				c0,41.96-33.16,47.88-71.98,48.47c2.65,0.03,5.31,0.05,8,0.05c42.15,0,79.98-3.71,79.98-48.52
				C207.713,161.72,192.743,135.6,169.023,121.24z"/>
		</g>
	</g>
	<g>
		<g>
			<path class="st20" d="M168.733,106.25h-16c3.31,0,6,2.69,6,6s-2.69,6-6,6h16c3.31,0,6-2.69,6-6S172.043,106.25,168.733,106.25z"
				/>
		</g>
	</g>
</g>
</svg>
