<?xml version="1.0" encoding="utf-8"?>
<!-- Generator: Adobe Illustrator 22.0.1, SVG Export Plug-In . SVG Version: 6.00 Build 0)  -->
<svg version="1.1" id="Layer_1" xmlns="http://www.w3.org/2000/svg" xmlns:xlink="http://www.w3.org/1999/xlink" x="0px" y="0px"
	 viewBox="0 0 256 256" style="enable-background:new 0 0 256 256;" xml:space="preserve">
<style type="text/css">
	.st0{fill:#3A312A;}
	.st1{fill:#8AC6DD;}
	.st2{fill:#F16C7A;}
	.st3{fill:#D7E057;}
	.st4{fill:#87796F;}
	.st5{fill:#FCE8CB;}
	.st6{fill:#DECAAD;}
	.st7{fill:#D6DF58;}
	.st8{fill:#FAE6CA;}
	.st9{fill:#DDC9AC;}
	.st10{fill:#D5DE58;}
	.st11{fill:#ED6E7A;}
	.st12{fill:#8AC5DC;}
	.st13{fill:#6CA8BF;}
	.st14{fill:#695B51;}
	.st15{fill:#F8E4C8;}
	.st16{fill:#EF6D7A;}
	.st17{fill-rule:evenodd;clip-rule:evenodd;fill:#F8E4C8;}
	.st18{fill:#89C4DB;}
	.st19{fill:#F59689;}
	.st20{fill:#D34E5C;}
	.st21{fill:#F7E3C7;}
	.st22{fill:#8AC3DA;}
	.st23{fill-rule:evenodd;clip-rule:evenodd;fill:#F7E3C7;}
	.st24{fill-rule:evenodd;clip-rule:evenodd;fill:#87796F;}
	.st25{fill:#B9C239;}
	.st26{fill:#D4DB56;}
	.st27{fill-rule:evenodd;clip-rule:evenodd;fill:#F16C7A;}
	.st28{fill-rule:evenodd;clip-rule:evenodd;fill:#F6E2C6;}
	.st29{fill:#F6E2C6;}
	.st30{fill-rule:evenodd;clip-rule:evenodd;fill:#FAE6CA;}
	.st31{fill:#B8C136;}
</style>
<g>
	<g>
		<g>
			<path class="st1" d="M222.196,30.482c-0.423,0-0.841,0.021-1.256,0.05c-2.264-8.134-9.72-14.104-18.575-14.104
				c-10.651,0-19.285,8.634-19.285,19.284c0,0.147,0.008,0.291,0.011,0.437c-1.034-0.232-2.108-0.359-3.212-0.359
				c-8.063,0-14.6,6.537-14.6,14.6c0,8.063,6.537,14.6,14.6,14.6c0.342,0,0.679-0.016,1.015-0.039l41.536,0.039v-0.006
				c9.421-0.126,17.02-7.798,17.02-17.249C239.45,38.208,231.725,30.482,222.196,30.482z"/>
		</g>
	</g>
	<g>
		<g>
			<path class="st0" d="M222.195,28.982c-0.056,0-0.11,0-0.166,0.001c-2.851-8.333-10.771-14.055-19.664-14.055
				c-11.016,0-20.057,8.613-20.743,19.458c-0.581-0.063-1.163-0.096-1.743-0.096c-8.877,0-16.1,7.223-16.1,16.101
				c0,8.877,7.223,16.1,16.1,16.1c0.358,0,0.714-0.016,1.066-0.039l41.483,0.039c0,0,0,0,0.001,0c0.053,0,0.104-0.003,0.156-0.009
				c10.139-0.209,18.364-8.59,18.364-18.746C240.95,37.396,232.537,28.982,222.195,28.982z M222.409,63.485
				c-0.037,0.001-0.074,0.003-0.111,0.006l-41.402-0.039c0.013-0.001-0.069,0.001-0.105,0.004c-0.302,0.021-0.604,0.035-0.911,0.035
				c-7.224,0-13.1-5.876-13.1-13.1s5.876-13.101,13.1-13.101c0.96,0,1.931,0.108,2.884,0.323c0.454,0.103,0.924-0.011,1.282-0.306
				c0.357-0.294,0.559-0.736,0.546-1.198l-0.011-0.397c0-9.807,7.979-17.784,17.785-17.784c7.954,0,14.998,5.349,17.129,13.006
				c0.191,0.687,0.817,1.147,1.551,1.094c0.381-0.026,0.764-0.046,1.15-0.046c8.688,0,15.755,7.067,15.755,15.754
				C237.95,56.306,230.979,63.371,222.409,63.485z"/>
		</g>
	</g>
	<g>
		<g>
			<path class="st1" d="M73.466,205.062c-0.423,0-0.841,0.021-1.256,0.05c-2.264-8.133-9.719-14.104-18.575-14.104
				c-10.65,0-19.284,8.634-19.284,19.285c0,0.146,0.008,0.291,0.011,0.437c-1.034-0.232-2.108-0.359-3.212-0.359
				c-8.063,0-14.6,6.536-14.6,14.6s6.537,14.6,14.6,14.6c0.342,0,0.679-0.016,1.015-0.039l21.425,0.02l13.721,0.013l6.39,0.006
				v-0.006c9.421-0.126,17.02-7.798,17.02-17.249C90.721,212.787,82.996,205.062,73.466,205.062z"/>
		</g>
	</g>
	<g>
		<g>
			<path class="st0" d="M73.466,203.563c-0.056,0-0.11,0-0.166,0.001c-2.851-8.333-10.771-14.055-19.665-14.055
				c-11.015,0-20.056,8.613-20.742,19.458c-0.581-0.063-1.163-0.096-1.743-0.096c-8.877,0-16.1,7.223-16.1,16.101
				c0,8.877,7.223,16.1,16.1,16.1c0.358,0,0.714-0.016,1.066-0.039l21.373,0.021h0.001c0.828,0,1.499-0.671,1.5-1.499
				s-0.67-1.5-1.499-1.501l-21.425-0.021c-0.004,0.005-0.069,0.001-0.105,0.004c-0.302,0.021-0.604,0.035-0.911,0.035
				c-7.224,0-13.1-5.876-13.1-13.1s5.876-13.101,13.1-13.101c0.961,0,1.931,0.108,2.883,0.323c0.452,0.102,0.922-0.011,1.278-0.302
				c0.356-0.292,0.56-0.731,0.551-1.192l-0.011-0.407c0-9.807,7.978-17.784,17.784-17.784c7.954,0,14.999,5.349,17.13,13.006
				c0.19,0.687,0.845,1.146,1.551,1.094c0.38-0.026,0.763-0.046,1.15-0.046c8.688,0,15.755,7.067,15.755,15.754
				c0,8.569-6.972,15.635-15.541,15.749c-0.037,0.001-0.074,0.003-0.111,0.006l-6.257-0.006h-0.001c-0.828,0-1.499,0.671-1.5,1.499
				s0.67,1.5,1.499,1.501l6.39,0.006c0,0,0,0,0.001,0c0.053,0,0.104-0.003,0.156-0.009c10.139-0.209,18.364-8.59,18.364-18.746
				C92.221,211.976,83.808,203.563,73.466,203.563z"/>
		</g>
	</g>
	<g>
		<g>
			<path class="st3" d="M48.167,26.106c-0.974,11.564-13.024,13.39-13.024,13.39c10.347,0.487,12.925,14.059,12.925,14.059
				c0.221-9.677,13.321-14.202,13.321-14.202C51.576,38.765,48.167,26.106,48.167,26.106z"/>
		</g>
	</g>
	<g>
		<g>
			<path class="st0" d="M61.479,37.855C52.875,37.34,49.647,25.83,49.616,25.714c-0.19-0.702-0.848-1.159-1.584-1.102
				c-0.725,0.066-1.298,0.642-1.359,1.367c-0.86,10.216-11.313,11.964-11.755,12.032c-0.763,0.116-1.313,0.791-1.273,1.561
				c0.04,0.771,0.657,1.385,1.428,1.421c9.028,0.426,11.499,12.719,11.522,12.844c0.138,0.711,0.76,1.217,1.473,1.217
				c0.042,0,0.084-0.002,0.126-0.005c0.765-0.064,1.357-0.693,1.375-1.46C49.762,45.08,61.76,40.812,61.881,40.77
				c0.676-0.234,1.092-0.914,0.994-1.622S62.193,37.898,61.479,37.855z M47.913,48.201c-1.357-3.131-3.709-6.908-7.587-8.877
				c2.931-1.404,6.409-3.913,8.202-8.273c1.551,3.071,4.199,6.88,8.334,8.723C53.854,41.413,49.939,44.179,47.913,48.201z"/>
		</g>
	</g>
	<g>
		<g>
			<path class="st3" d="M26.469,43.086c-0.689,8.179-9.213,9.47-9.213,9.47c7.318,0.344,9.142,9.944,9.142,9.944
				c0.156-6.844,9.422-10.045,9.422-10.045C28.88,52.041,26.469,43.086,26.469,43.086z"/>
		</g>
	</g>
	<g>
		<g>
			<path class="st0" d="M35.91,50.959c-5.766-0.346-7.972-8.187-7.994-8.266c-0.189-0.702-0.855-1.161-1.581-1.102
				c-0.726,0.065-1.3,0.643-1.361,1.368c-0.578,6.871-7.646,8.066-7.941,8.113c-0.763,0.116-1.313,0.791-1.273,1.561
				c0.04,0.771,0.657,1.385,1.428,1.421c6.034,0.284,7.723,8.645,7.738,8.727c0.136,0.713,0.759,1.22,1.473,1.22
				c0.041,0,0.083-0.002,0.125-0.005c0.765-0.063,1.358-0.693,1.376-1.461c0.13-5.709,8.331-8.633,8.411-8.661
				c0.677-0.233,1.094-0.913,0.997-1.622C37.209,51.543,36.624,51.002,35.91,50.959z M26.325,57.753
				c-0.924-1.885-2.34-3.946-4.446-5.279c1.855-1.041,3.697-2.63,4.87-4.917c1.058,1.874,2.654,3.955,4.941,5.225
				C29.841,53.882,27.701,55.521,26.325,57.753z"/>
		</g>
	</g>
	<g>
		<g>
			<path class="st3" d="M26.469,16.429c-0.689,8.179-9.213,9.471-9.213,9.471c7.318,0.344,9.142,9.944,9.142,9.944
				c0.156-6.845,9.422-10.045,9.422-10.045C28.88,25.383,26.469,16.429,26.469,16.429z"/>
		</g>
	</g>
	<g>
		<g>
			<path class="st0" d="M35.91,24.301c-5.766-0.345-7.972-8.186-7.994-8.265c-0.189-0.702-0.855-1.16-1.581-1.102
				c-0.726,0.065-1.3,0.643-1.361,1.368c-0.578,6.871-7.646,8.066-7.941,8.113c-0.763,0.116-1.313,0.791-1.273,1.561
				c0.04,0.771,0.657,1.385,1.428,1.421c6.034,0.284,7.723,8.645,7.738,8.727c0.136,0.713,0.759,1.22,1.473,1.22
				c0.041,0,0.083-0.002,0.125-0.005c0.765-0.063,1.358-0.693,1.376-1.461c0.13-5.709,8.331-8.634,8.412-8.662
				c0.676-0.234,1.093-0.913,0.996-1.622C37.209,24.885,36.624,24.343,35.91,24.301z M26.325,31.096
				c-0.924-1.886-2.34-3.946-4.446-5.279c1.855-1.041,3.697-2.63,4.87-4.917c1.058,1.874,2.654,3.954,4.941,5.224
				C29.841,27.224,27.701,28.863,26.325,31.096z"/>
		</g>
	</g>
	<g>
		<g>
			<path class="st8" d="M239.424,118.255c-0.399-5.82-5.472-10.223-11.306-10.223H189.2c-12.15,0-22,9.85-22,22h61.25
				c3.04,0,5.79-1.23,7.78-3.22C238.389,124.654,239.653,121.602,239.424,118.255z"/>
		</g>
	</g>
	<g>
		<g>
			<path class="st0" d="M240.92,118.152c-0.446-6.516-6.07-11.62-12.802-11.62H189.2c-12.958,0-23.5,10.542-23.5,23.5
				c0,0.828,0.672,1.5,1.5,1.5h61.25c3.342,0,6.481-1.3,8.841-3.659C239.846,125.318,241.169,121.775,240.92,118.152z
				 M235.17,125.752c-1.793,1.793-4.18,2.78-6.72,2.78h-59.695c0.771-10.606,9.646-19,20.445-19h38.918
				c5.161,0,9.47,3.877,9.81,8.825C238.116,121.115,237.111,123.811,235.17,125.752z"/>
		</g>
	</g>
	<g>
		<g>
			<path class="st8" d="M214.45,130.032H167.2v22h47.25c3.04,0,5.79-1.23,7.78-3.22s3.22-4.74,3.22-7.78
				C225.45,134.952,220.531,130.032,214.45,130.032z"/>
		</g>
	</g>
	<g>
		<g>
			<path class="st0" d="M214.45,128.532H167.2c-0.828,0-1.5,0.672-1.5,1.5v22c0,0.828,0.672,1.5,1.5,1.5h47.25
				c3.342,0,6.481-1.3,8.841-3.659s3.659-5.499,3.659-8.841C226.95,134.14,221.343,128.532,214.45,128.532z M221.17,147.752
				c-1.793,1.793-4.18,2.78-6.72,2.78H168.7v-19h45.75c5.238,0,9.5,4.262,9.5,9.5C223.95,143.572,222.963,145.959,221.17,147.752z"
				/>
		</g>
	</g>
	<g>
		<g>
			<path class="st8" d="M200.45,152.032H167.2v22h33.25c3.04,0,5.79-1.23,7.78-3.22s3.22-4.74,3.22-7.78
				C211.45,156.952,206.531,152.032,200.45,152.032z"/>
		</g>
	</g>
	<g>
		<g>
			<path class="st0" d="M200.45,150.532H167.2c-0.828,0-1.5,0.672-1.5,1.5v22c0,0.828,0.672,1.5,1.5,1.5h33.25
				c3.342,0,6.481-1.3,8.841-3.659s3.659-5.499,3.659-8.841C212.95,156.14,207.343,150.532,200.45,150.532z M207.17,169.752
				c-1.793,1.793-4.18,2.78-6.72,2.78H168.7v-19h31.75c5.238,0,9.5,4.262,9.5,9.5C209.95,165.572,208.963,167.959,207.17,169.752z"
				/>
		</g>
	</g>
	<g>
		<g>
			<path class="st8" d="M67.2,108.032H28.283c-5.833,0-10.907,4.403-11.306,10.223c-0.229,3.347,1.035,6.399,3.193,8.557
				c1.99,1.99,4.74,3.22,7.78,3.22H89.2C89.2,117.882,79.351,108.032,67.2,108.032z"/>
		</g>
	</g>
	<g>
		<g>
			<path class="st0" d="M67.2,106.532H28.283c-6.732,0-12.356,5.104-12.802,11.62c-0.249,3.623,1.073,7.167,3.628,9.721
				c2.359,2.359,5.499,3.659,8.841,3.659H89.2c0.828,0,1.5-0.672,1.5-1.5C90.7,117.074,80.158,106.532,67.2,106.532z M27.95,128.532
				c-2.54,0-4.927-0.987-6.72-2.78c-1.94-1.941-2.945-4.636-2.757-7.395c0.339-4.949,4.647-8.825,9.81-8.825H67.2
				c10.8,0,19.675,8.394,20.445,19H27.95z"/>
		</g>
	</g>
	<g>
		<g>
			<path class="st8" d="M41.95,130.032c-6.08,0-11,4.92-11,11c0,3.04,1.23,5.79,3.22,7.78s4.74,3.22,7.78,3.22H89.2v-22H41.95z"/>
		</g>
	</g>
	<g>
		<g>
			<path class="st0" d="M89.2,128.532H41.95c-6.893,0-12.5,5.607-12.5,12.5c0,3.341,1.3,6.48,3.659,8.841
				c2.359,2.359,5.499,3.659,8.841,3.659H89.2c0.828,0,1.5-0.672,1.5-1.5v-22C90.7,129.204,90.028,128.532,89.2,128.532z
				 M87.7,150.532H41.95c-2.54,0-4.927-0.987-6.72-2.78c-1.793-1.794-2.78-4.181-2.78-6.72c0-5.238,4.262-9.5,9.5-9.5H87.7V150.532z
				"/>
		</g>
	</g>
	<g>
		<g>
			<path class="st8" d="M55.95,152.032c-6.08,0-11,4.92-11,11c0,3.04,1.23,5.79,3.22,7.78s4.74,3.22,7.78,3.22H89.2v-22H55.95z"/>
		</g>
	</g>
	<g>
		<g>
			<path class="st0" d="M89.2,150.532H55.95c-6.893,0-12.5,5.607-12.5,12.5c0,3.341,1.3,6.48,3.659,8.841
				c2.359,2.359,5.499,3.659,8.841,3.659H89.2c0.828,0,1.5-0.672,1.5-1.5v-22C90.7,151.204,90.028,150.532,89.2,150.532z
				 M87.7,172.532H55.95c-2.54,0-4.927-0.987-6.72-2.78c-1.793-1.794-2.78-4.181-2.78-6.72c0-5.238,4.262-9.5,9.5-9.5H87.7V172.532z
				"/>
		</g>
	</g>
	<g>
		<g>
			<path class="st4" d="M154.204,102.282l8.834-24.146h-0.019c0.341-1.103,0.526-2.274,0.526-3.489
				c0-6.507-5.275-11.781-11.782-11.781c-6.507,0-11.782,5.275-11.782,11.781c0-6.507-5.275-11.781-11.781-11.781
				s-11.782,5.275-11.782,11.781c0-6.507-5.275-11.781-11.782-11.781c-6.507,0-11.782,5.275-11.782,11.781
				c0,1.215,0.184,2.386,0.526,3.489h-0.019l8.834,24.146C82.082,111.97,68.2,132.548,68.2,156.369
				c0,33.137,26.863,36.831,60,36.831c33.137,0,60-3.694,60-36.831C188.2,132.548,174.319,111.97,154.204,102.282z"/>
		</g>
	</g>
	<g>
		<g>
			<path class="st0" d="M156.074,101.535l8.372-22.884c0.037-0.1,0.062-0.202,0.076-0.305c0.347-1.2,0.522-2.443,0.522-3.7
				c0-7.323-5.958-13.281-13.281-13.281c-5.114,0-9.563,2.906-11.781,7.153c-2.219-4.247-6.668-7.153-11.782-7.153
				s-9.563,2.906-11.781,7.153c-2.219-4.247-6.668-7.153-11.782-7.153c-7.323,0-13.281,5.958-13.281,13.281
				c0,1.254,0.175,2.495,0.521,3.692c0.015,0.105,0.04,0.21,0.078,0.313l8.372,22.884C79.854,111.968,66.7,133.341,66.7,156.369
				c0,35.37,30.382,38.33,61.5,38.33s61.5-2.96,61.5-38.33C189.7,133.341,176.546,111.968,156.074,101.535z M128.2,191.699
				c-37.05,0-58.5-5.781-58.5-35.33c0-22.338,13.011-43.037,33.147-52.735c0.694-0.335,1.022-1.143,0.757-1.867l-8.753-23.926
				c-0.01-0.05-0.022-0.1-0.038-0.148c-0.304-0.983-0.458-2.009-0.458-3.046c0-5.669,4.612-10.281,10.281-10.281
				c5.67,0,10.282,4.612,10.282,10.281c0,0.828,0.672,1.5,1.5,1.5s1.5-0.672,1.5-1.5c0-5.669,4.612-10.281,10.281-10.281
				c5.67,0,10.282,4.612,10.282,10.281c0,0.828,0.672,1.5,1.5,1.5s1.5-0.672,1.5-1.5c0-5.669,4.612-10.281,10.281-10.281
				s10.281,4.612,10.281,10.281c0,1.037-0.154,2.063-0.458,3.046c-0.016,0.049-0.027,0.098-0.037,0.146l-8.754,23.928
				c-0.266,0.725,0.063,1.532,0.758,1.867c20.136,9.697,33.146,30.397,33.146,52.735C186.7,185.918,165.25,191.699,128.2,191.699z"
				/>
		</g>
	</g>
	<g>
		<g>
			
				<ellipse transform="matrix(0.9871 -0.1602 0.1602 0.9871 -21.8464 22.4299)" class="st10" cx="128.2" cy="146.719" rx="27.982" ry="27.981"/>
		</g>
	</g>
	<g>
		<g>
			<path class="st0" d="M128.2,117.238c-16.256,0-29.481,13.226-29.481,29.481s13.226,29.481,29.481,29.481
				s29.481-13.226,29.481-29.481S144.456,117.238,128.2,117.238z M128.2,173.201c-14.602,0-26.481-11.88-26.481-26.481
				s11.88-26.481,26.481-26.481s26.481,11.88,26.481,26.481S142.802,173.201,128.2,173.201z"/>
		</g>
	</g>
	<g>
		<g>
			<path class="st4" d="M131.527,143.555c-4.075-1.534-5.754-2.541-5.754-4.123c0-1.342,1.007-2.685,4.124-2.685
				c3.451,0,5.657,1.102,6.903,1.63l1.391-5.417c-1.582-0.767-3.74-1.439-6.952-1.583v-4.219h-4.698v4.554
				c-5.13,1.007-8.102,4.315-8.102,8.534c0,4.651,3.5,7.048,8.63,8.774c3.548,1.198,5.082,2.35,5.082,4.17
				c0,1.918-1.87,2.973-4.603,2.973c-3.117,0-5.945-1.007-7.959-2.109l-1.438,5.609c1.822,1.054,4.938,1.917,8.15,2.061v4.554h4.698
				v-4.89c5.514-0.958,8.534-4.602,8.534-8.869C139.533,148.206,137.232,145.569,131.527,143.555z"/>
		</g>
	</g>
	<g>
		<g>
			<path class="st0" d="M132.056,142.15c-1.308-0.491-4.782-1.799-4.782-2.719c0-1.069,1.835-1.185,2.624-1.185
				c2.835,0,4.711,0.814,5.953,1.354l0.366,0.158c0.401,0.17,0.858,0.156,1.25-0.037c0.391-0.194,0.679-0.549,0.787-0.972
				l1.391-5.417c0.177-0.691-0.157-1.412-0.8-1.723c-1.776-0.861-3.785-1.397-6.105-1.629v-2.823c0-0.828-0.672-1.5-1.5-1.5h-4.698
				c-0.828,0-1.5,0.672-1.5,1.5v3.369c-5.031,1.401-8.103,5.04-8.103,9.72c0,6.159,5.158,8.684,9.649,10.194
				c4.063,1.373,4.063,2.303,4.063,2.75c0,1.401-2.584,1.473-3.103,1.473c-3.238,0-5.926-1.206-7.239-1.925
				c-0.406-0.222-0.892-0.243-1.317-0.06c-0.425,0.185-0.74,0.555-0.855,1.003l-1.438,5.608c-0.167,0.651,0.12,1.335,0.702,1.671
				c1.844,1.067,4.586,1.855,7.401,2.154v3.164c0,0.828,0.672,1.5,1.5,1.5h4.698c0.828,0,1.5-0.672,1.5-1.5V162.6
				c5.227-1.352,8.534-5.202,8.534-10.079C141.033,147.541,138.256,144.339,132.056,142.15z M130.742,159.912
				c-0.719,0.125-1.243,0.748-1.243,1.478v3.391h-1.698v-3.055c0-0.803-0.632-1.463-1.433-1.498
				c-2.313-0.104-4.718-0.621-6.464-1.366l0.684-2.662c1.733,0.731,4.169,1.465,6.96,1.465c3.707,0,6.103-1.756,6.103-4.473
				c0-3.102-2.933-4.521-6.104-5.593c-5.404-1.817-7.608-3.947-7.608-7.352c0-3.575,2.576-6.215,6.892-7.063
				c0.703-0.138,1.211-0.755,1.211-1.472v-3.055h1.698v2.72c0,0.803,0.632,1.463,1.433,1.498c2.009,0.09,3.737,0.405,5.246,0.96
				l-0.64,2.489c-1.39-0.528-3.32-1.078-5.881-1.078c-4.146,0-5.624,2.161-5.624,4.185c0,2.776,2.915,4.093,6.755,5.537
				c5.813,2.053,7.005,4.504,7.005,7.552C138.033,156.298,135.239,159.131,130.742,159.912z"/>
		</g>
	</g>
	<g>
		<g>
			<path class="st11" d="M158.391,93.792H98.746c-3.05,0-5.522,2.472-5.522,5.523c0,3.05,2.472,5.523,5.522,5.523h59.645
				c3.05,0,5.523-2.473,5.523-5.523C163.914,96.264,161.441,93.792,158.391,93.792z"/>
		</g>
	</g>
	<g>
		<g>
			<path class="st0" d="M158.391,92.292h-36.088c-0.828,0-1.5,0.672-1.5,1.5s0.672,1.5,1.5,1.5h36.088
				c2.219,0,4.023,1.805,4.023,4.022s-1.805,4.022-4.023,4.022H98.746c-2.218,0-4.022-1.805-4.022-4.022s1.805-4.022,4.022-4.022
				h9.853c0.828,0,1.5-0.672,1.5-1.5s-0.672-1.5-1.5-1.5h-9.853c-3.872,0-7.022,3.15-7.022,7.022s3.15,7.022,7.022,7.022h59.645
				c3.873,0,7.023-3.15,7.023-7.022S162.264,92.292,158.391,92.292z"/>
		</g>
	</g>
	<g>
		<g>
			<path class="st14" d="M151.76,64.362c-3.23,0-6.12,1.5-8,3.84c1.43,1.76,2.28,4,2.28,6.44c0,1.04-0.15,2.07-0.45,3.05
				c-0.02,0.05-0.03,0.1-0.04,0.15l-5.29,14.45h16l5.29-14.45c0.01-0.05,0.02-0.1,0.04-0.15c0.3-0.98,0.45-2.01,0.45-3.05
				C162.041,68.982,157.43,64.362,151.76,64.362z"/>
		</g>
	</g>
	<g>
		<g>
			<path class="st14" d="M158.5,106.332h-16c17.29,10.52,28.2,29.59,28.2,50.04c0,27.35-18.38,34.34-50.5,35.23
				c2.58,0.07,5.25,0.1,8,0.1c37.05,0,58.5-5.78,58.5-35.33C186.7,135.922,175.791,116.852,158.5,106.332z"/>
		</g>
	</g>
	<g>
		<g>
			<path class="st20" d="M158.39,95.292h-16c2.22,0,4.02,1.8,4.02,4.02s-1.8,4.02-4.02,4.02h16c2.22,0,4.02-1.8,4.02-4.02
				S160.61,95.292,158.39,95.292z"/>
		</g>
	</g>
</g>
</svg>
