<?xml version="1.0" encoding="utf-8"?>
<!-- Generator: Adobe Illustrator 22.0.1, SVG Export Plug-In . SVG Version: 6.00 Build 0)  -->
<svg version="1.1" id="Layer_1" xmlns="http://www.w3.org/2000/svg" xmlns:xlink="http://www.w3.org/1999/xlink" x="0px" y="0px"
	 viewBox="0 0 256 256" style="enable-background:new 0 0 256 256;" xml:space="preserve">
<style type="text/css">
	.st0{fill:#3A312A;}
	.st1{fill:#8AC6DD;}
	.st2{fill:#F16C7A;}
	.st3{fill:#D7E057;}
	.st4{fill:#87796F;}
	.st5{fill:#FCE8CB;}
	.st6{fill:#DECAAD;}
	.st7{fill:#D6DF58;}
	.st8{fill:#FAE6CA;}
	.st9{fill:#DDC9AC;}
	.st10{fill:#D5DE58;}
	.st11{fill:#ED6E7A;}
	.st12{fill:#8AC5DC;}
	.st13{fill:#6CA8BF;}
	.st14{fill:#695B51;}
	.st15{fill:#F8E4C8;}
	.st16{fill:#EF6D7A;}
	.st17{fill-rule:evenodd;clip-rule:evenodd;fill:#F8E4C8;}
	.st18{fill:#89C4DB;}
	.st19{fill:#F59689;}
	.st20{fill:#D34E5C;}
	.st21{fill:#F7E3C7;}
	.st22{fill:#8AC3DA;}
	.st23{fill-rule:evenodd;clip-rule:evenodd;fill:#F7E3C7;}
	.st24{fill-rule:evenodd;clip-rule:evenodd;fill:#87796F;}
	.st25{fill:#B9C239;}
	.st26{fill:#D4DB56;}
	.st27{fill-rule:evenodd;clip-rule:evenodd;fill:#F16C7A;}
	.st28{fill-rule:evenodd;clip-rule:evenodd;fill:#F6E2C6;}
	.st29{fill:#F6E2C6;}
	.st30{fill-rule:evenodd;clip-rule:evenodd;fill:#FAE6CA;}
	.st31{fill:#B8C136;}
</style>
<g>
	<g>
		<g>
			<path class="st7" d="M47.946,26.221c-0.974,11.564-13.024,13.39-13.024,13.39c10.347,0.487,12.925,14.059,12.925,14.059
				c0.221-9.677,13.321-14.202,13.321-14.202C51.355,38.88,47.946,26.221,47.946,26.221z"/>
		</g>
	</g>
	<g>
		<g>
			<path class="st0" d="M61.258,37.97c-8.605-0.515-11.832-12.024-11.864-12.141c-0.19-0.703-0.851-1.163-1.583-1.102
				c-0.725,0.066-1.298,0.642-1.359,1.367c-0.86,10.215-11.313,11.964-11.754,12.033c-0.763,0.115-1.313,0.79-1.273,1.561
				c0.04,0.77,0.657,1.384,1.428,1.421c9.028,0.425,11.499,12.718,11.522,12.842c0.137,0.711,0.759,1.217,1.472,1.217
				c0.042,0,0.084-0.002,0.126-0.005c0.764-0.064,1.357-0.693,1.375-1.459c0.194-8.509,12.191-12.777,12.313-12.819
				c0.675-0.235,1.092-0.914,0.994-1.623C62.555,38.554,61.972,38.013,61.258,37.97z M47.692,48.315
				c-1.357-3.13-3.709-6.907-7.587-8.876c2.931-1.405,6.409-3.913,8.202-8.273c1.551,3.071,4.199,6.88,8.333,8.722
				C53.633,41.529,49.718,44.294,47.692,48.315z"/>
		</g>
	</g>
	<g>
		<g>
			<path class="st7" d="M26.248,43.201c-0.689,8.179-9.212,9.47-9.212,9.47c7.318,0.344,9.142,9.944,9.142,9.944
				c0.156-6.844,9.422-10.045,9.422-10.045C28.658,52.155,26.248,43.201,26.248,43.201z"/>
		</g>
	</g>
	<g>
		<g>
			<path class="st0" d="M35.69,51.073c-5.767-0.345-7.973-8.185-7.994-8.265c-0.19-0.702-0.856-1.168-1.582-1.102
				c-0.726,0.066-1.299,0.642-1.36,1.368c-0.579,6.871-7.646,8.067-7.942,8.114c-0.763,0.115-1.313,0.79-1.273,1.56
				c0.04,0.77,0.657,1.384,1.428,1.421c6.035,0.284,7.723,8.644,7.739,8.725c0.135,0.713,0.759,1.22,1.472,1.22
				c0.042,0,0.083-0.001,0.125-0.005c0.765-0.063,1.358-0.694,1.376-1.461c0.13-5.709,8.332-8.633,8.413-8.661
				c0.676-0.234,1.094-0.913,0.996-1.622C36.988,51.658,36.404,51.116,35.69,51.073z M26.104,57.868
				c-0.924-1.886-2.34-3.947-4.447-5.28c1.855-1.041,3.697-2.63,4.87-4.916c1.057,1.874,2.655,3.955,4.941,5.224
				C29.62,53.997,27.48,55.636,26.104,57.868z"/>
		</g>
	</g>
	<g>
		<g>
			<path class="st7" d="M26.21,16.544c-0.657,8.182-9.175,9.507-9.175,9.507c7.319,0.316,9.181,9.909,9.181,9.909
				c0.129-6.845,9.383-10.082,9.383-10.082C28.655,25.489,26.21,16.544,26.21,16.544z"/>
		</g>
	</g>
	<g>
		<g>
			<path class="st0" d="M35.682,24.379c-5.747-0.322-7.988-8.098-8.026-8.232c-0.192-0.702-0.861-1.168-1.586-1.097
				c-0.725,0.068-1.297,0.648-1.355,1.374c-0.552,6.873-7.615,8.097-7.911,8.145c-0.762,0.119-1.31,0.796-1.267,1.566
				c0.043,0.77,0.663,1.382,1.433,1.415c6.036,0.26,7.757,8.614,7.773,8.695c0.138,0.711,0.76,1.214,1.471,1.214
				c0.043,0,0.087-0.002,0.131-0.005c0.765-0.066,1.356-0.699,1.37-1.466c0.108-5.71,8.298-8.666,8.378-8.694
				c0.676-0.236,1.09-0.917,0.99-1.626C36.983,24.958,36.396,24.419,35.682,24.379z M26.124,31.211
				c-0.932-1.882-2.355-3.938-4.468-5.262c1.852-1.048,3.686-2.644,4.851-4.935c1.065,1.87,2.67,3.944,4.962,5.205
				C29.623,27.326,27.491,28.974,26.124,31.211z"/>
		</g>
	</g>
	<g>
		<g>
			<path class="st5" d="M232.084,155.508c-1.67-0.08-3.37,0.28-4.93,1.09l-33.56,17.48h-53.14c-11.58,0-22.92,3.27-32.72,9.44
				l-7.48,4.7c-2.86,1.8-6.18,2.76-9.57,2.76h-0.95v7.87c0.006,0,0.01-0.001,0.016-0.001v14.722c-0.006,0-0.01-0.001-0.016-0.001
				v9.02l71.25-2.19c6.11-0.4,11.99-2.45,17.02-5.95l59.22-45.53c1.94-1.35,2.57-3.24,2.62-5.06
				C239.954,159.508,236.434,155.698,232.084,155.508z"/>
		</g>
	</g>
	<g>
		<g>
			<path class="st0" d="M232.156,154.009c-1.961-0.099-3.929,0.34-5.696,1.258l-33.233,17.31h-52.772
				c-11.88,0-23.471,3.344-33.518,9.67l-7.482,4.7c-2.629,1.655-5.662,2.53-8.771,2.53h-0.95c-0.829,0-1.5,0.671-1.5,1.5v7.87
				c0,0.829,0.671,1.5,1.5,1.5c0.029,0,0.062-0.001,0.094-0.003c0.792-0.041,1.422-0.696,1.422-1.498
				c0-0.075-0.005-0.148-0.016-0.221v-6.156c3.482-0.098,6.866-1.124,9.817-2.982l7.482-4.7c9.569-6.025,20.607-9.21,31.921-9.21
				h53.14c0.241,0,0.478-0.058,0.693-0.169l33.558-17.479c1.295-0.673,2.736-0.991,4.174-0.923c3.519,0.154,6.415,3.274,6.326,6.81
				c-0.047,1.711-0.694,2.977-2.035,3.912l-59.162,45.487c-4.796,3.336-10.419,5.302-16.209,5.682l-69.705,2.143v-7.251
				c0.011-0.072,0.016-0.146,0.016-0.221c0-0.801-0.628-1.456-1.419-1.498c-0.907-0.056-1.597,0.638-1.597,1.497v9.02
				c0,0.406,0.164,0.794,0.456,1.077c0.28,0.272,0.655,0.423,1.044,0.423c0.015,0,0.031,0,0.046,0l71.302-2.193
				c6.388-0.418,12.535-2.567,17.836-6.258l59.162-45.487c2.063-1.435,3.19-3.596,3.264-6.253
				C241.474,158.76,237.264,154.232,232.156,154.009z"/>
		</g>
	</g>
	<g>
		<g>
			<path class="st0" d="M195.092,174.856c-0.314-0.767-1.188-1.135-1.957-0.819c-0.767,0.314-1.133,1.19-0.818,1.957
				c1.16,2.829-0.496,6.244-2.731,8.155c-2.609,2.232-6.238,3.315-9.44,4.271c-7.229,2.158-13.785,3.487-20.726,4.895
				c-6.704,1.36-13.637,2.766-22.19,5.072c-0.8,0.216-1.273,1.039-1.058,1.839c0.181,0.669,0.786,1.11,1.447,1.11
				c0.129,0,0.261-0.017,0.392-0.052c8.462-2.281,15.347-3.678,22.006-5.028c7.008-1.421,13.628-2.764,20.986-4.96
				c3.488-1.041,7.44-2.221,10.532-4.865C194.496,183.897,196.871,179.196,195.092,174.856z"/>
		</g>
	</g>
	<g>
		<g>
			<rect x="16.154" y="175.059" class="st2" width="47.25" height="64.397"/>
		</g>
	</g>
	<g>
		<g>
			<path class="st0" d="M63.404,173.559H44.846c-0.829,0-1.5,0.671-1.5,1.5s0.671,1.5,1.5,1.5h17.058v61.398h-44.25v-61.398h12.999
				c0.829,0,1.5-0.671,1.5-1.5s-0.671-1.5-1.5-1.5H16.154c-0.829,0-1.5,0.671-1.5,1.5v64.398c0,0.829,0.671,1.5,1.5,1.5h47.25
				c0.829,0,1.5-0.671,1.5-1.5v-64.398C64.904,174.23,64.232,173.559,63.404,173.559z"/>
		</g>
	</g>
	<g>
		<g>
			<path class="st1" d="M81.746,175.059H63.404v64.397h18.342c4.413,0,7.991-3.578,7.991-7.991V183.05
				C89.737,178.637,86.159,175.059,81.746,175.059z"/>
		</g>
	</g>
	<g>
		<g>
			<path class="st0" d="M89.737,200.347c0.829,0,1.5-0.671,1.5-1.5V183.05c0-5.233-4.258-9.491-9.491-9.491H63.404
				c-0.829,0-1.5,0.671-1.5,1.5v64.398c0,0.829,0.671,1.5,1.5,1.5h18.342c5.233,0,9.491-4.258,9.491-9.491v-17.897
				c0-0.829-0.671-1.5-1.5-1.5c-0.829,0-1.5,0.671-1.5,1.5v17.897c0,3.579-2.912,6.491-6.491,6.491H64.904v-61.398h16.842
				c3.579,0,6.491,2.912,6.491,6.491v15.797C88.237,199.676,88.909,200.347,89.737,200.347z"/>
		</g>
	</g>
	<g>
		<g>
			<path class="st4" d="M76.57,220.073c-3.329,0-6.028,2.699-6.028,6.028c0,3.329,2.699,6.028,6.028,6.028
				c3.329,0,6.028-2.699,6.028-6.028C82.598,222.771,79.899,220.073,76.57,220.073z"/>
		</g>
	</g>
	<g>
		<g>
			<path class="st0" d="M76.57,218.573c-4.151,0-7.528,3.377-7.528,7.528c0,4.151,3.377,7.528,7.528,7.528
				c4.151,0,7.528-3.377,7.528-7.528C84.098,221.95,80.721,218.573,76.57,218.573z M76.57,230.628c-2.497,0-4.528-2.031-4.528-4.528
				c0-2.497,2.031-4.528,4.528-4.528c2.497,0,4.528,2.031,4.528,4.528C81.098,228.597,79.067,230.628,76.57,230.628z"/>
		</g>
	</g>
	<g>
		<g>
			<path class="st6" d="M232.024,157.008c-1.45-0.07-2.9,0.25-4.18,0.92l-4.22,2.2c0.69,1.08,1.08,2.35,1.05,3.69
				c-0.04,1.71-0.69,2.98-2.03,3.91l-59.17,45.49c-7.07,4.959-16.561,5.97-16.545,6.11l14.015-0.43c5.78-0.37,11.4-2.34,16.2-5.68
				l59.17-45.49c1.34-0.93,1.98-2.2,2.03-3.91C238.434,160.278,235.544,157.157,232.024,157.008z"/>
		</g>
	</g>
	<g>
		<g>
			<path class="st0" d="M156.128,36.278c-29.396,0-53.31,23.915-53.31,53.311s23.915,53.31,53.31,53.31s53.311-23.915,53.311-53.31
				S185.523,36.278,156.128,36.278z M156.128,139.899c-27.741,0-50.31-22.569-50.31-50.31c0-27.741,22.569-50.311,50.31-50.311
				s50.311,22.569,50.311,50.311C206.438,117.33,183.869,139.899,156.128,139.899z"/>
		</g>
	</g>
	<g>
		<g>
			
				<ellipse transform="matrix(0.3827 -0.9239 0.9239 0.3827 74.2483 205.8948)" class="st3" cx="191.196" cy="47.387" rx="30.843" ry="30.843"/>
		</g>
	</g>
	<g>
		<g>
			<path class="st0" d="M191.195,15.044c-17.834,0-32.343,14.509-32.343,32.343s14.509,32.343,32.343,32.343
				c17.834,0,32.344-14.509,32.344-32.343S209.029,15.044,191.195,15.044z M191.195,76.731c-16.18,0-29.343-13.163-29.343-29.343
				c0-16.18,13.163-29.343,29.343-29.343c16.181,0,29.344,13.163,29.344,29.343C220.539,63.567,207.376,76.731,191.195,76.731z"/>
		</g>
	</g>
	<g>
		<g>
			<path class="st4" d="M196.822,57.04c-3.033,0-5.004-1.439-5.912-4.318h6.997l0.999-4.203h-8.596v-1.224
				c0-0.585,0.015-1.031,0.046-1.339h8.128l0.999-4.203h-8.319c1.047-2.679,3.063-4.018,6.05-4.018c2.279,0,4.465,0.962,6.558,2.886
				l2.078-8.382c-3.018-1.57-5.997-2.355-8.937-2.355c-8.991,0-14.487,3.957-16.488,11.869h-2.517l-1.091,4.203h3.077
				c-0.031,0.277-0.046,0.724-0.046,1.339c0,0.585,0.015,0.993,0.046,1.224h-2.541l-1.114,4.203h4.185
				c0.585,3.094,2.194,5.896,4.826,8.406c2.633,2.509,6.697,3.764,12.193,3.764c3.402,0,6.304-0.823,8.706-2.471v-8.614
				C203.256,55.962,200.147,57.04,196.822,57.04z"/>
		</g>
	</g>
	<g>
		<g>
			<path class="st0" d="M206.824,52.467c-0.507-0.255-1.113-0.202-1.568,0.137c-2.653,1.976-5.412,2.936-8.434,2.936
				c-1.536,0-2.655-0.418-3.449-1.318h4.534c0.695,0,1.299-0.478,1.459-1.153l0.998-4.203c0.106-0.446,0.002-0.917-0.282-1.277
				c-0.171-0.216-0.396-0.378-0.646-0.473c0.247-0.203,0.43-0.484,0.508-0.814l0.999-4.203c0.106-0.446,0.002-0.917-0.282-1.277
				c-0.284-0.36-0.718-0.57-1.177-0.57h-5.535c0.819-0.688,1.894-1.018,3.266-1.018c1.906,0,3.72,0.815,5.544,2.491
				c0.39,0.358,0.94,0.484,1.447,0.332c0.507-0.153,0.896-0.562,1.023-1.076l2.078-8.382c0.167-0.672-0.149-1.372-0.764-1.691
				c-3.22-1.675-6.459-2.525-9.629-2.525c-9.289,0-15.213,3.992-17.627,11.869h-1.378c-0.684,0-1.28,0.462-1.452,1.123l-1.091,4.203
				c-0.116,0.45-0.019,0.928,0.266,1.295c0.19,0.246,0.449,0.423,0.738,0.514c-0.221,0.192-0.387,0.449-0.466,0.748l-1.114,4.203
				c-0.119,0.45-0.022,0.93,0.262,1.299c0.283,0.369,0.723,0.585,1.188,0.585h2.995c0.804,2.919,2.476,5.602,4.981,7.992
				c2.909,2.772,7.359,4.178,13.228,4.178c3.694,0,6.909-0.92,9.555-2.734c0.407-0.279,0.651-0.742,0.651-1.237v-8.613
				C207.651,53.24,207.331,52.721,206.824,52.467z M204.651,61.599c-2.014,1.19-4.435,1.792-7.206,1.792
				c-5.072,0-8.826-1.127-11.158-3.349c-2.389-2.277-3.865-4.834-4.388-7.599c-0.134-0.708-0.753-1.221-1.474-1.221h-2.236
				l0.319-1.203h1.387c0.433,0,0.845-0.187,1.13-0.513c0.284-0.326,0.414-0.759,0.356-1.188c-0.008-0.058-0.033-0.303-0.033-1.023
				c0-0.73,0.023-1.047,0.037-1.171c0.048-0.424-0.087-0.849-0.372-1.167c-0.284-0.318-0.691-0.5-1.118-0.5h-1.138l0.312-1.203
				h1.357c0.687,0,1.286-0.466,1.454-1.132c1.827-7.225,6.745-10.737,15.034-10.737c2.344,0,4.758,0.562,7.189,1.671l-1.23,4.961
				c-1.81-1.184-3.705-1.781-5.659-1.781c-3.601,0-6.176,1.719-7.447,4.972c-0.18,0.462-0.121,0.983,0.158,1.392
				c0.28,0.41,0.743,0.654,1.239,0.654h6.421l-0.286,1.203h-6.942c-0.77,0-1.415,0.582-1.492,1.349
				c-0.037,0.362-0.055,0.85-0.055,1.491v1.224c0,0.829,0.672,1.5,1.5,1.5h6.698l-0.286,1.203h-5.812
				c-0.478,0-0.927,0.228-1.21,0.613c-0.282,0.385-0.364,0.882-0.221,1.338c1.107,3.511,3.646,5.367,7.343,5.367
				c2.735,0,5.359-0.671,7.829-1.999V61.599z"/>
		</g>
	</g>
	<g>
		<g>
			
				<ellipse transform="matrix(0.7071 -0.7071 0.7071 0.7071 -37.3109 173.8465)" class="st3" cx="191.196" cy="131.962" rx="30.843" ry="30.843"/>
		</g>
	</g>
	<g>
		<g>
			<path class="st0" d="M191.195,99.618c-17.834,0-32.343,14.509-32.343,32.343c0,17.834,14.509,32.343,32.343,32.343
				c17.834,0,32.344-14.509,32.344-32.343C223.539,114.127,209.029,99.618,191.195,99.618z M191.195,161.305
				c-16.18,0-29.343-13.163-29.343-29.343c0-16.18,13.163-29.343,29.343-29.343c16.181,0,29.344,13.163,29.344,29.343
				C220.539,148.142,207.376,161.305,191.195,161.305z"/>
		</g>
	</g>
	<g>
		<g>
			<polygon class="st4" points="207.014,115.035 196.436,115.035 191.213,126.547 185.922,115.035 175.378,115.035 183.668,129.629 
				176.601,129.629 176.601,134.733 186.485,134.733 186.485,137.527 176.601,137.527 176.601,142.7 186.485,142.7 186.485,148.888 
				196.092,148.888 196.092,142.7 205.813,142.7 205.813,137.527 196.092,137.527 196.092,134.733 205.813,134.733 205.813,129.629 
				198.955,129.629 			"/>
		</g>
	</g>
	<g>
		<g>
			<path class="st0" d="M208.306,114.273c-0.27-0.458-0.761-0.738-1.292-0.738h-10.578c-0.589,0-1.123,0.344-1.366,0.88
				l-3.865,8.521l-3.919-8.528c-0.245-0.532-0.777-0.873-1.363-0.873h-10.544c-0.534,0-1.027,0.284-1.297,0.746
				c-0.269,0.461-0.271,1.031-0.008,1.495l7.018,12.354h-4.489c-0.828,0-1.5,0.671-1.5,1.5v5.103c0,0.635,0.396,1.179,0.953,1.397
				c-0.558,0.218-0.953,0.762-0.953,1.397v5.173c0,0.829,0.672,1.5,1.5,1.5h8.384v4.688c0,0.829,0.672,1.5,1.5,1.5h9.606
				c0.828,0,1.5-0.671,1.5-1.5V144.2h8.222c0.828,0,1.5-0.671,1.5-1.5v-5.173c0-0.635-0.395-1.179-0.953-1.397
				c0.558-0.219,0.953-0.762,0.953-1.397v-5.103c0-0.829-0.672-1.5-1.5-1.5h-4.316l6.83-12.37
				C208.583,115.295,208.575,114.729,208.306,114.273z M197.642,128.904c-0.256,0.465-0.248,1.03,0.021,1.487
				c0.269,0.458,0.761,0.738,1.292,0.738h5.358v2.103h-8.222c-0.828,0-1.5,0.671-1.5,1.5v2.794c0,0.829,0.672,1.5,1.5,1.5h8.222
				v2.173h-8.222c-0.828,0-1.5,0.671-1.5,1.5v4.688h-6.606V142.7c0-0.829-0.672-1.5-1.5-1.5h-8.384v-2.173h8.384
				c0.828,0,1.5-0.671,1.5-1.5v-2.794c0-0.829-0.672-1.5-1.5-1.5h-8.384v-2.103h5.566c0.534,0,1.027-0.284,1.297-0.746
				c0.269-0.461,0.271-1.031,0.008-1.495l-7.018-12.354h7.005l4.89,10.639c0.245,0.532,0.777,0.874,1.363,0.874h0.004
				c0.587-0.002,1.119-0.346,1.362-0.88l4.823-10.632h7.069L197.642,128.904z"/>
		</g>
	</g>
	<g>
		<g>
			
				<ellipse transform="matrix(0.9966 -0.0825 0.0825 0.9966 -10.4961 9.8464)" class="st3" cx="113.927" cy="131.962" rx="30.843" ry="30.843"/>
		</g>
	</g>
	<g>
		<g>
			<path class="st0" d="M113.926,99.618c-17.834,0-32.343,14.509-32.343,32.343c0,17.834,14.509,32.343,32.343,32.343
				c17.834,0,32.343-14.509,32.343-32.343C146.269,114.127,131.761,99.618,113.926,99.618z M113.926,161.305
				c-16.18,0-29.343-13.163-29.343-29.343c0-16.18,13.163-29.343,29.343-29.343c16.18,0,29.343,13.163,29.343,29.343
				C143.269,148.142,130.106,161.305,113.926,161.305z"/>
		</g>
	</g>
	<g>
		<g>
			<path class="st4" d="M125.138,140.552c-1.016,0.462-1.836,0.766-2.46,0.912c-0.623,0.147-1.359,0.219-2.205,0.219
				c-1.032,0-2.41-0.2-4.133-0.6c-1.262-0.308-2.286-0.462-3.071-0.462c-0.616,0-1.355,0.1-2.217,0.3
				c0.754-0.862,1.293-1.693,1.616-2.494c0.4-1.047,0.639-2.224,0.716-3.533h6.189v-5.519h-6.997
				c-0.631-1.97-1.001-3.221-1.108-3.753c-0.108-0.531-0.162-1.081-0.162-1.651c0-1.078,0.277-1.909,0.832-2.494
				c0.554-0.585,1.278-0.878,2.17-0.878c0.739,0,1.397,0.27,1.974,0.808c0.577,0.539,1.089,1.632,1.536,3.279l8.821-1.385
				c-0.401-1.955-1.135-3.622-2.205-5c-1.07-1.378-2.379-2.363-3.926-2.956c-1.547-0.593-3.645-0.889-6.293-0.889
				c-2.833,0-5.084,0.346-6.754,1.039c-1.671,0.693-3.018,1.805-4.041,3.337c-1.024,1.532-1.535,3.26-1.535,5.184
				c0,0.724,0.046,1.332,0.139,1.824c0.077,0.323,0.407,1.501,0.993,3.533h-3.441v5.519h4.803c0.031,0.57,0.046,0.916,0.046,1.039
				c0,2.325-1.617,4.65-4.849,6.974l2.979,6.558c2.402-1.401,4.595-2.101,6.581-2.101c0.677,0,1.308,0.054,1.893,0.162
				c0.585,0.108,2.101,0.5,4.549,1.178c1.862,0.508,3.517,0.762,4.965,0.762c1.324,0,2.563-0.147,3.718-0.439
				c1.155-0.292,2.494-0.823,4.018-1.593L125.138,140.552z"/>
		</g>
	</g>
	<g>
		<g>
			<path class="st0" d="M129.643,146.811l-3.14-6.882c-0.345-0.753-1.233-1.086-1.985-0.743c-0.922,0.42-1.656,0.694-2.183,0.818
				c-0.506,0.119-1.132,0.18-1.861,0.18c-0.913,0-2.189-0.189-3.778-0.558c-1.046-0.255-1.938-0.412-2.705-0.474
				c0.027-0.063,0.054-0.125,0.079-0.189c0.303-0.791,0.525-1.651,0.665-2.569h4.839c0.829,0,1.5-0.671,1.5-1.5v-5.52
				c0-0.829-0.671-1.5-1.5-1.5h-5.899c-0.504-1.609-0.681-2.277-0.736-2.551c-0.087-0.429-0.131-0.884-0.131-1.352
				c0-0.676,0.141-1.168,0.42-1.462c0.181-0.19,0.466-0.409,1.081-0.409c0.357,0,0.651,0.125,0.951,0.404
				c0.13,0.121,0.593,0.665,1.111,2.576c0.201,0.739,0.926,1.206,1.681,1.089l8.821-1.386c0.405-0.063,0.766-0.29,1-0.627
				c0.234-0.337,0.319-0.754,0.237-1.156c-0.445-2.174-1.283-4.064-2.49-5.619c-1.236-1.591-2.775-2.747-4.574-3.436
				c-1.736-0.665-3.969-0.988-6.829-0.988c-3.061,0-5.458,0.378-7.329,1.153c-1.942,0.805-3.528,2.114-4.714,3.889
				c-1.187,1.776-1.789,3.8-1.789,6.018c0,0.824,0.054,1.511,0.179,2.17c0.037,0.156,0.128,0.508,0.463,1.688h-1.451
				c-0.829,0-1.5,0.671-1.5,1.5v5.52c0,0.829,0.671,1.5,1.5,1.5h3.318c-0.22,1.671-1.628,3.45-4.194,5.295
				c-0.581,0.417-0.786,1.187-0.49,1.838l2.979,6.558c0.175,0.386,0.506,0.68,0.911,0.809c0.404,0.128,0.844,0.08,1.211-0.133
				c2.158-1.259,4.118-1.897,5.826-1.897c0.582,0,1.127,0.046,1.621,0.137c0.371,0.068,1.44,0.323,4.427,1.15
				c1.982,0.541,3.785,0.814,5.359,0.814c1.441,0,2.815-0.163,4.086-0.484c1.257-0.318,2.713-0.893,4.326-1.708
				C129.674,148.409,129.977,147.544,129.643,146.811z M123.893,147.573c-2.16,0.545-4.626,0.582-7.915-0.315
				c-2.513-0.695-4.042-1.09-4.678-1.207c-0.673-0.124-1.401-0.186-2.164-0.186c-1.824,0-3.795,0.512-5.877,1.524l-1.822-4.01
				c2.979-2.388,4.488-4.888,4.488-7.445c0-0.132-0.016-0.505-0.048-1.118c-0.042-0.796-0.701-1.42-1.498-1.42h-3.303v-2.52h1.94
				c0.471,0,0.915-0.221,1.198-0.598c0.284-0.376,0.373-0.864,0.243-1.317c-0.719-2.498-0.927-3.262-0.96-3.395
				c-0.075-0.4-0.113-0.92-0.113-1.548c0-1.636,0.419-3.059,1.283-4.351c0.863-1.292,1.965-2.203,3.369-2.785
				c1.479-0.613,3.558-0.924,6.18-0.924c2.452,0,4.388,0.266,5.756,0.79c1.298,0.497,2.37,1.307,3.277,2.475
				c0.637,0.82,1.142,1.777,1.51,2.856l-5.892,0.926c-0.442-1.251-0.949-2.122-1.562-2.693c-0.85-0.792-1.886-1.211-2.998-1.211
				c-1.298,0-2.425,0.465-3.259,1.345c-0.825,0.87-1.243,2.056-1.243,3.526c0,0.668,0.064,1.324,0.191,1.948
				c0.076,0.376,0.278,1.191,1.15,3.913c0.199,0.621,0.776,1.042,1.428,1.042h5.497v2.52h-4.689c-0.794,0-1.451,0.619-1.498,1.412
				c-0.068,1.15-0.276,2.188-0.609,3.06c-0.258,0.641-0.714,1.336-1.354,2.068c-0.429,0.49-0.492,1.201-0.158,1.759
				c0.334,0.558,0.991,0.835,1.625,0.69c0.749-0.174,1.381-0.262,1.878-0.262c0.661,0,1.575,0.141,2.732,0.423
				c3.39,0.788,5.411,0.759,7.021,0.38c0.398-0.093,0.848-0.234,1.356-0.427l1.923,4.214
				C125.41,147.104,124.603,147.393,123.893,147.573z"/>
		</g>
	</g>
	<g>
		<g>
			
				<ellipse transform="matrix(0.9975 -0.0709 0.0709 0.9975 -3.0726 8.1954)" class="st3" cx="113.927" cy="47.387" rx="30.843" ry="30.843"/>
		</g>
	</g>
	<g>
		<g>
			<path class="st0" d="M113.926,15.044c-17.834,0-32.343,14.509-32.343,32.343s14.509,32.343,32.343,32.343
				c17.834,0,32.343-14.509,32.343-32.343S131.761,15.044,113.926,15.044z M113.926,76.731c-16.18,0-29.343-13.163-29.343-29.343
				c0-16.18,13.163-29.343,29.343-29.343c16.18,0,29.343,13.163,29.343,29.343C143.269,63.567,130.106,76.731,113.926,76.731z"/>
		</g>
	</g>
	<g>
		<g>
			<path class="st4" d="M116.867,43.921c-4.464-1.68-6.302-2.783-6.302-4.516c0-1.47,1.103-2.941,4.517-2.941
				c3.781,0,6.197,1.207,7.562,1.786l1.523-5.934c-1.733-0.84-4.096-1.577-7.615-1.733v-4.622h-5.147v4.989
				c-5.619,1.103-8.875,4.726-8.875,9.348c0,5.094,3.833,7.72,9.453,9.61c3.886,1.313,5.567,2.574,5.567,4.568
				c0,2.101-2.048,3.256-5.041,3.256c-3.414,0-6.512-1.103-8.718-2.31l-1.575,6.144c1.996,1.155,5.409,2.1,8.927,2.258v4.989h5.147
				v-5.357c6.039-1.049,9.348-5.041,9.348-9.715C125.637,49.015,123.116,46.127,116.867,43.921z"/>
		</g>
	</g>
	<g>
		<g>
			<path class="st0" d="M117.396,42.518c-2.636-0.992-5.331-2.138-5.331-3.112c0-1.254,1.89-1.441,3.017-1.441
				c3.138,0,5.21,0.9,6.581,1.496l0.396,0.171c0.403,0.17,0.859,0.157,1.25-0.037c0.392-0.193,0.679-0.548,0.788-0.971l1.523-5.933
				c0.178-0.691-0.156-1.411-0.798-1.723c-1.963-0.952-4.188-1.54-6.77-1.784v-3.222c0-0.829-0.671-1.5-1.5-1.5h-5.146
				c-0.829,0-1.5,0.671-1.5,1.5v3.799c-5.508,1.497-8.875,5.448-8.875,10.538c0,6.655,5.598,9.392,10.473,11.031
				c3.996,1.35,4.547,2.31,4.547,3.148c0,1.672-2.95,1.756-3.542,1.756c-3.579,0-6.547-1.332-7.998-2.126
				c-0.406-0.223-0.893-0.245-1.317-0.06c-0.425,0.184-0.741,0.555-0.856,1.003l-1.575,6.143c-0.167,0.651,0.12,1.334,0.702,1.671
				c2.03,1.175,5.068,2.039,8.178,2.354v3.595c0,0.829,0.671,1.5,1.5,1.5h5.146c0.829,0,1.5-0.671,1.5-1.5v-4.142
				c5.721-1.44,9.348-5.623,9.348-10.929C127.137,48.284,124.215,44.924,117.396,42.518z M116.032,61.979
				c-0.719,0.125-1.243,0.749-1.243,1.478v3.857h-2.146v-3.488c0-0.802-0.631-1.462-1.433-1.498
				c-2.601-0.117-5.306-0.708-7.242-1.556l0.82-3.196c1.893,0.816,4.603,1.659,7.721,1.659c3.974,0,6.542-1.867,6.542-4.756
				c0-3.308-3.166-4.833-6.589-5.99c-5.988-2.014-8.431-4.387-8.431-8.188c0-3.99,2.865-6.934,7.664-7.877
				c0.704-0.138,1.211-0.755,1.211-1.472v-3.488h2.146v3.122c0,0.802,0.631,1.463,1.433,1.498c2.27,0.101,4.216,0.464,5.91,1.104
				l-0.772,3.008c-1.522-0.592-3.667-1.229-6.541-1.229c-4.436,0-6.017,2.294-6.017,4.441c0,2.948,3.152,4.369,7.303,5.931
				c6.448,2.276,7.769,5.006,7.769,8.406C124.137,57.954,121.032,61.11,116.032,61.979z"/>
		</g>
	</g>
</g>
</svg>
