<?xml version="1.0" encoding="utf-8"?>
<!-- Generator: Adobe Illustrator 22.0.1, SVG Export Plug-In . SVG Version: 6.00 Build 0)  -->
<svg version="1.1" id="Layer_1" xmlns="http://www.w3.org/2000/svg" xmlns:xlink="http://www.w3.org/1999/xlink" x="0px" y="0px"
	 viewBox="0 0 256 256" style="enable-background:new 0 0 256 256;" xml:space="preserve">
<style type="text/css">
	.st0{fill:#3A312A;}
	.st1{fill:#8AC6DD;}
	.st2{fill:#F16C7A;}
	.st3{fill:#D7E057;}
	.st4{fill:#87796F;}
	.st5{fill:#FCE8CB;}
	.st6{fill:#DECAAD;}
	.st7{fill:#D6DF58;}
	.st8{fill:#FAE6CA;}
	.st9{fill:#DDC9AC;}
	.st10{fill:#D5DE58;}
	.st11{fill:#ED6E7A;}
	.st12{fill:#8AC5DC;}
	.st13{fill:#6CA8BF;}
	.st14{fill:#695B51;}
	.st15{fill:#F8E4C8;}
	.st16{fill:#EF6D7A;}
	.st17{fill-rule:evenodd;clip-rule:evenodd;fill:#F8E4C8;}
	.st18{fill:#89C4DB;}
	.st19{fill:#F59689;}
	.st20{fill:#D34E5C;}
	.st21{fill:#F7E3C7;}
	.st22{fill:#8AC3DA;}
	.st23{fill-rule:evenodd;clip-rule:evenodd;fill:#F7E3C7;}
	.st24{fill-rule:evenodd;clip-rule:evenodd;fill:#87796F;}
	.st25{fill:#B9C239;}
	.st26{fill:#D4DB56;}
	.st27{fill-rule:evenodd;clip-rule:evenodd;fill:#F16C7A;}
	.st28{fill-rule:evenodd;clip-rule:evenodd;fill:#F6E2C6;}
	.st29{fill:#F6E2C6;}
	.st30{fill-rule:evenodd;clip-rule:evenodd;fill:#FAE6CA;}
	.st31{fill:#B8C136;}
</style>
<g>
	<g>
		<g>
			<path class="st0" d="M133.439,47.37c-44.388,0-80.5,36.112-80.5,80.5s36.112,80.5,80.5,80.5c44.388,0,80.5-36.112,80.5-80.5
				S177.827,47.37,133.439,47.37z M133.439,205.37c-42.733,0-77.5-34.767-77.5-77.5s34.767-77.5,77.5-77.5
				c42.733,0,77.5,34.767,77.5,77.5S176.172,205.37,133.439,205.37z"/>
		</g>
	</g>
	<g>
		<g>
			<circle class="st3" cx="186.909" cy="63.521" r="47.029"/>
		</g>
	</g>
	<g>
		<g>
			<path class="st0" d="M186.91,14.992c-26.759,0-48.53,21.771-48.53,48.53c0,26.759,21.771,48.529,48.53,48.529
				c26.759,0,48.529-21.77,48.529-48.529C235.439,36.762,213.669,14.992,186.91,14.992z M186.91,109.05
				c-25.105,0-45.53-20.424-45.53-45.529c0-25.105,20.425-45.53,45.53-45.53c25.105,0,45.529,20.425,45.529,45.53
				C232.439,88.626,212.015,109.05,186.91,109.05z"/>
		</g>
	</g>
	<g>
		<g>
			<path class="st4" d="M195.488,78.24c-4.625,0-7.63-2.195-9.014-6.584h10.669l1.523-6.408h-13.107V63.38
				c0-0.892,0.023-1.572,0.07-2.042h12.394l1.523-6.408h-12.685c1.596-4.084,4.671-6.127,9.225-6.127c3.474,0,6.808,1.467,10,4.401
				l3.169-12.781c-4.601-2.394-9.143-3.592-13.627-3.592c-13.709,0-22.089,6.033-25.14,18.098h-3.838l-1.664,6.408h4.692
				c-0.047,0.423-0.07,1.104-0.07,2.042c0,0.892,0.023,1.514,0.07,1.866h-3.874l-1.699,6.408h6.382
				c0.892,4.718,3.345,8.991,7.359,12.817c4.014,3.826,10.212,5.739,18.592,5.739c5.187,0,9.612-1.255,13.274-3.767V73.31
				C205.299,76.596,200.558,78.24,195.488,78.24z"/>
		</g>
	</g>
	<g>
		<g>
			<path class="st0" d="M210.386,71.97c-0.506-0.254-1.113-0.201-1.569,0.137c-4.128,3.074-8.613,4.633-13.329,4.633
				c-3.219,0-5.411-1.149-6.762-3.585h8.417c0.695,0,1.299-0.477,1.46-1.153l1.523-6.408c0.106-0.446,0.002-0.917-0.283-1.277
				c-0.284-0.36-0.718-0.57-1.177-0.57h-11.607V63.38c0-0.191,0.001-0.373,0.003-0.543h10.961c0.695,0,1.299-0.477,1.459-1.153
				l1.523-6.408c0.106-0.446,0.002-0.917-0.283-1.277c-0.284-0.36-0.718-0.57-1.177-0.57h-10.221
				c1.47-2.123,3.665-3.126,6.761-3.126c3.07,0,6.093,1.348,8.985,4.006c0.39,0.358,0.941,0.483,1.447,0.332
				c0.507-0.153,0.897-0.562,1.024-1.076l3.169-12.782c0.167-0.672-0.149-1.372-0.764-1.691c-4.795-2.496-9.612-3.761-14.319-3.761
				c-13.987,0-22.826,6.087-26.289,18.098h-2.69c-0.683,0-1.28,0.462-1.452,1.123l-1.664,6.408
				c-0.117,0.449-0.019,0.928,0.265,1.295c0.284,0.367,0.722,0.582,1.186,0.582h3.125c-0.002,0.171-0.003,0.352-0.003,0.543
				c0,0.127,0,0.25,0.001,0.366h-2.305c-0.68,0-1.275,0.458-1.45,1.116l-1.699,6.408c-0.12,0.45-0.023,0.93,0.261,1.299
				c0.284,0.369,0.723,0.586,1.189,0.586h5.174c1.121,4.537,3.65,8.703,7.531,12.403c4.283,4.083,10.887,6.153,19.627,6.153
				c5.473,0,10.225-1.356,14.123-4.03c0.408-0.28,0.651-0.742,0.651-1.237V73.31C211.213,72.743,210.893,72.224,210.386,71.97z
				 M208.213,85.634c-3.269,2.043-7.225,3.077-11.774,3.077c-7.943,0-13.85-1.792-17.557-5.325c-3.764-3.587-6.092-7.627-6.92-12.01
				c-0.134-0.708-0.753-1.221-1.474-1.221h-4.433l0.904-3.408h2.719c0.433,0,0.844-0.187,1.129-0.513
				c0.285-0.326,0.415-0.758,0.357-1.188c-0.021-0.158-0.057-0.584-0.057-1.666c0-1.1,0.033-1.627,0.061-1.875
				c0.047-0.424-0.088-0.849-0.372-1.167c-0.285-0.318-0.691-0.5-1.118-0.5h-2.753l0.885-3.408h2.678
				c0.687,0,1.286-0.466,1.454-1.132c2.887-11.416,10.635-16.966,23.687-16.966c3.88,0,7.872,0.974,11.882,2.896l-2.307,9.303
				c-2.908-2.144-5.966-3.228-9.118-3.228c-5.139,0-8.812,2.448-10.622,7.081c-0.181,0.461-0.121,0.982,0.158,1.392
				c0.279,0.41,0.743,0.654,1.239,0.654h10.787l-0.81,3.408h-11.209c-0.77,0-1.415,0.583-1.493,1.35
				c-0.052,0.52-0.078,1.237-0.078,2.193v1.866c0,0.829,0.671,1.5,1.5,1.5h11.208l-0.81,3.408h-9.483
				c-0.478,0-0.927,0.227-1.209,0.613c-0.283,0.385-0.365,0.882-0.221,1.338c1.575,4.994,5.186,7.634,10.444,7.634
				c4.468,0,8.737-1.215,12.725-3.616V85.634z"/>
		</g>
	</g>
	<g>
		<g>
			<path class="st3" d="M186.91,145.449c-10.257,0-19.74,3.294-27.47,8.867l-10.155,9.945c-5.904,7.86-9.405,17.629-9.405,28.217
				c0,25.973,21.056,47.029,47.03,47.029c25.974,0,47.029-21.056,47.029-47.029C233.939,166.505,212.883,145.449,186.91,145.449z"/>
		</g>
	</g>
	<g>
		<g>
			<path class="st0" d="M186.91,143.949c-10.243,0-20.045,3.165-28.347,9.151c-0.672,0.485-0.824,1.422-0.339,2.094
				c0.485,0.672,1.422,0.825,2.094,0.339c7.788-5.616,16.983-8.584,26.592-8.584c25.105,0,45.529,20.425,45.529,45.53
				s-20.424,45.529-45.529,45.529c-25.105,0-45.53-20.424-45.53-45.529c0-9.941,3.148-19.387,9.104-27.316
				c0.497-0.662,0.364-1.603-0.298-2.1c-0.662-0.498-1.603-0.365-2.1,0.298c-6.35,8.452-9.706,18.521-9.706,29.118
				c0,26.759,21.771,48.529,48.53,48.529c26.759,0,48.529-21.77,48.529-48.529C235.439,165.72,213.669,143.949,186.91,143.949z"/>
		</g>
	</g>
	<g>
		<g>
			<polygon class="st4" points="211.029,166.669 194.899,166.669 186.935,184.224 178.867,166.669 162.79,166.669 175.431,188.922 
				164.656,188.922 164.656,196.704 179.727,196.704 179.727,200.965 164.656,200.965 164.656,208.852 179.727,208.852 
				179.727,218.288 194.374,218.288 194.374,208.852 209.198,208.852 209.198,200.965 194.374,200.965 194.374,196.704 
				209.198,196.704 209.198,188.922 198.74,188.922 			"/>
		</g>
	</g>
	<g>
		<g>
			<path class="st0" d="M212.321,165.907c-0.27-0.457-0.761-0.738-1.292-0.738h-16.129c-0.588,0-1.123,0.344-1.366,0.88
				l-6.607,14.563l-6.696-14.57c-0.245-0.532-0.777-0.874-1.363-0.874H162.79c-0.534,0-1.028,0.284-1.296,0.746
				c-0.269,0.461-0.272,1.031-0.008,1.495l11.368,20.013h-8.197c-0.829,0-1.5,0.671-1.5,1.5v7.782c0,0.829,0.671,1.5,1.5,1.5h13.57
				v1.261h-13.57c-0.829,0-1.5,0.671-1.5,1.5v7.887c0,0.829,0.671,1.5,1.5,1.5h13.57v7.937c0,0.829,0.671,1.5,1.5,1.5h14.648
				c0.829,0,1.5-0.671,1.5-1.5v-7.937h13.324c0.829,0,1.5-0.671,1.5-1.5v-7.887c0-0.829-0.671-1.5-1.5-1.5h-13.324v-1.261h13.324
				c0.829,0,1.5-0.671,1.5-1.5v-7.782c0-0.829-0.671-1.5-1.5-1.5h-7.915l11.059-20.028
				C212.599,166.929,212.59,166.364,212.321,165.907z M197.428,188.197c-0.257,0.465-0.248,1.03,0.021,1.487
				c0.27,0.457,0.761,0.738,1.292,0.738h8.958v4.782h-13.324c-0.829,0-1.5,0.671-1.5,1.5v4.261c0,0.829,0.671,1.5,1.5,1.5h13.324
				v4.887h-13.324c-0.829,0-1.5,0.671-1.5,1.5v7.937h-11.648v-7.937c0-0.829-0.671-1.5-1.5-1.5h-13.57v-4.887h13.57
				c0.829,0,1.5-0.671,1.5-1.5v-4.261c0-0.829-0.671-1.5-1.5-1.5h-13.57v-4.782h9.274c0.534,0,1.028-0.284,1.296-0.746
				c0.268-0.461,0.271-1.031,0.008-1.495l-11.368-20.013h12.539l7.667,16.681c0.246,0.533,0.79,0.851,1.366,0.874
				c0.587-0.001,1.12-0.345,1.363-0.88l7.565-16.674h12.621L197.428,188.197z"/>
		</g>
	</g>
	<g>
		<g>
			
				<ellipse transform="matrix(0.9985 -0.0553 0.0553 0.9985 -10.5384 4.1152)" class="st3" cx="69.09" cy="192.479" rx="47.029" ry="47.029"/>
		</g>
	</g>
	<g>
		<g>
			<path class="st0" d="M69.09,143.949c-26.759,0-48.529,21.771-48.529,48.53c0,26.759,21.77,48.529,48.529,48.529
				c26.759,0,48.53-21.77,48.53-48.529C117.62,165.72,95.85,143.949,69.09,143.949z M69.09,238.008
				c-25.105,0-45.529-20.424-45.529-45.529s20.424-45.53,45.529-45.53c25.105,0,45.53,20.425,45.53,45.53
				S94.195,238.008,69.09,238.008z"/>
		</g>
	</g>
	<g>
		<g>
			<path class="st4" d="M86.186,205.577c-1.549,0.704-2.8,1.168-3.75,1.391c-0.951,0.224-2.072,0.335-3.362,0.335
				c-1.573,0-3.674-0.305-6.303-0.915c-1.925-0.469-3.486-0.704-4.683-0.704c-0.939,0-2.066,0.153-3.38,0.458
				c1.15-1.314,1.972-2.582,2.465-3.803c0.61-1.596,0.974-3.392,1.092-5.387H77.7v-8.415H67.031
				c-0.963-3.005-1.526-4.912-1.69-5.722c-0.165-0.81-0.247-1.649-0.247-2.518c0-1.643,0.422-2.911,1.268-3.803
				c0.845-0.892,1.948-1.338,3.31-1.338c1.127,0,2.13,0.411,3.011,1.232c0.88,0.822,1.66,2.488,2.341,5l13.451-2.113
				c-0.611-2.981-1.731-5.522-3.363-7.623c-1.632-2.1-3.627-3.603-5.986-4.507c-2.359-0.904-5.558-1.356-9.595-1.356
				c-4.319,0-7.752,0.528-10.299,1.585c-2.547,1.056-4.601,2.753-6.162,5.088c-1.562,2.336-2.341,4.971-2.341,7.905
				c0,1.104,0.07,2.031,0.211,2.782c0.117,0.493,0.621,2.289,1.514,5.388h-5.246v8.415h7.324c0.047,0.869,0.07,1.397,0.07,1.584
				c0,3.545-2.465,7.09-7.394,10.634l4.542,10c3.662-2.136,7.007-3.204,10.035-3.204c1.033,0,1.995,0.083,2.887,0.247
				c0.892,0.165,3.204,0.763,6.937,1.796c2.84,0.775,5.364,1.162,7.57,1.162c2.019,0,3.908-0.223,5.669-0.669
				c1.761-0.445,3.803-1.255,6.127-2.43L86.186,205.577z"/>
		</g>
	</g>
	<g>
		<g>
			<path class="st0" d="M92.339,215.448l-4.789-10.493c-0.344-0.753-1.232-1.085-1.985-0.743c-1.454,0.661-2.622,1.097-3.474,1.296
				c-0.832,0.196-1.848,0.295-3.018,0.295c-1.452,0-3.458-0.295-5.947-0.873c-2.135-0.52-3.8-0.761-5.181-0.746
				c0.243-0.439,0.453-0.876,0.628-1.311c0.514-1.343,0.87-2.826,1.063-4.423H77.7c0.829,0,1.5-0.671,1.5-1.5v-8.415
				c0-0.829-0.671-1.5-1.5-1.5h-9.573c-0.914-2.891-1.222-4.056-1.317-4.521c-0.143-0.707-0.216-1.453-0.216-2.219
				c0-1.239,0.288-2.171,0.856-2.771c0.563-0.594,1.269-0.87,2.221-0.87c0.75,0,1.381,0.264,1.986,0.828
				c0.376,0.352,1.126,1.378,1.918,4.297c0.201,0.74,0.929,1.206,1.681,1.089l13.451-2.112c0.405-0.063,0.766-0.29,1-0.627
				c0.234-0.337,0.319-0.754,0.237-1.156c-0.655-3.195-1.882-5.969-3.648-8.243c-1.796-2.311-4.028-3.989-6.634-4.987
				c-2.521-0.965-5.93-1.455-10.132-1.455c-4.497,0-8.155,0.572-10.874,1.699c-2.813,1.167-5.113,3.064-6.834,5.64
				c-1.721,2.575-2.594,5.515-2.594,8.738c0,1.208,0.078,2.209,0.252,3.127c0.064,0.27,0.24,0.945,0.982,3.542h-3.255
				c-0.829,0-1.5,0.671-1.5,1.5v8.415c0,0.829,0.671,1.5,1.5,1.5H53.1c0,0.034,0.001,0.062,0.001,0.085
				c0,3.018-2.278,6.186-6.77,9.416c-0.581,0.417-0.786,1.187-0.49,1.838l4.542,10c0.175,0.387,0.506,0.681,0.911,0.809
				c0.404,0.128,0.844,0.08,1.211-0.133c3.413-1.991,6.535-3,9.279-3c0.935,0,1.815,0.075,2.615,0.222
				c0.581,0.107,2.233,0.501,6.814,1.768c2.955,0.806,5.635,1.214,7.965,1.214c2.133,0,4.164-0.241,6.036-0.715
				c1.858-0.47,4.023-1.326,6.436-2.544C92.369,217.046,92.673,216.18,92.339,215.448z M84.479,217.045
				c-1.632,0.414-3.416,0.623-5.3,0.623c-2.064,0-4.478-0.373-7.171-1.108c-3.81-1.054-6.121-1.651-7.065-1.825
				c-0.979-0.18-2.042-0.271-3.159-0.271c-2.87,0-6.005,0.876-9.34,2.608l-3.371-7.423c4.665-3.6,7.028-7.334,7.028-11.114
				c0-0.197-0.023-0.753-0.072-1.666c-0.043-0.795-0.701-1.419-1.498-1.419h-5.824v-5.415h3.746c0.471,0,0.915-0.221,1.198-0.598
				c0.284-0.376,0.374-0.864,0.243-1.317c-0.884-3.07-1.387-4.859-1.481-5.25c-0.123-0.656-0.186-1.498-0.186-2.505
				c0-2.656,0.683-4.969,2.088-7.071c1.406-2.104,3.202-3.587,5.49-4.536c2.352-0.976,5.624-1.47,9.724-1.47
				c3.834,0,6.882,0.423,9.059,1.256c2.087,0.799,3.883,2.154,5.338,4.026c1.197,1.543,2.104,3.379,2.704,5.475l-10.542,1.656
				c-0.679-2.102-1.463-3.551-2.384-4.411c-1.163-1.085-2.521-1.636-4.034-1.636c-1.782,0-3.262,0.608-4.398,1.807
				c-1.114,1.176-1.679,2.802-1.679,4.834c0,0.966,0.093,1.913,0.276,2.815c0.176,0.87,0.742,2.794,1.731,5.883
				c0.199,0.621,0.776,1.042,1.429,1.042H76.2v5.415h-7.937c-0.794,0-1.451,0.619-1.498,1.412c-0.108,1.833-0.443,3.496-0.985,4.914
				c-0.427,1.058-1.168,2.194-2.202,3.376c-0.429,0.49-0.492,1.201-0.158,1.759c0.334,0.558,0.992,0.836,1.625,0.69
				c1.198-0.278,2.221-0.419,3.041-0.419c1.071,0,2.527,0.223,4.344,0.665c2.766,0.643,4.938,0.955,6.642,0.955
				c1.402,0,2.649-0.126,3.704-0.375c0.745-0.174,1.621-0.468,2.655-0.89l3.57,7.823C87.313,216.148,85.796,216.712,84.479,217.045z
				"/>
		</g>
	</g>
	<g>
		<g>
			<path class="st3" d="M69.091,16.492c-8.636,0-16.721,2.338-23.676,6.4l-11.011,8.877c-7.663,8.367-12.342,19.512-12.342,31.752
				c0,25.974,21.056,47.029,47.029,47.029c25.974,0,47.029-21.056,47.029-47.029C116.12,37.548,95.064,16.492,69.091,16.492z"/>
		</g>
	</g>
	<g>
		<g>
			<path class="st0" d="M69.09,14.992c-8.585,0-17.034,2.284-24.432,6.605c-0.715,0.418-0.956,1.336-0.539,2.052
				c0.418,0.715,1.337,0.957,2.052,0.539c6.94-4.053,14.866-6.196,22.919-6.196c25.105,0,45.53,20.425,45.53,45.53
				c0,25.105-20.425,45.529-45.53,45.529c-25.105,0-45.529-20.424-45.529-45.529c0-11.41,4.243-22.327,11.948-30.739
				c0.56-0.611,0.518-1.56-0.093-2.119c-0.612-0.56-1.561-0.518-2.119,0.093c-8.213,8.967-12.736,20.604-12.736,32.766
				c0,26.759,21.77,48.529,48.529,48.529c26.759,0,48.53-21.77,48.53-48.529C117.62,36.762,95.85,14.992,69.09,14.992z"/>
		</g>
	</g>
	<g>
		<g>
			<path class="st4" d="M73.575,58.236c-6.807-2.562-9.61-4.243-9.61-6.886c0-2.241,1.682-4.484,6.887-4.484
				c5.765,0,9.449,1.841,11.53,2.723l2.323-9.047c-2.643-1.282-6.246-2.404-11.611-2.643v-7.047h-7.847v7.607
				c-8.568,1.682-13.532,7.206-13.532,14.254c0,7.768,5.845,11.772,14.413,14.654c5.926,2.002,8.488,3.925,8.488,6.966
				c0,3.204-3.123,4.965-7.687,4.965c-5.205,0-9.929-1.682-13.292-3.523l-2.402,9.368c3.043,1.761,8.247,3.202,13.612,3.443v7.607
				h7.847v-8.168c6.634-1.153,11.107-4.633,13.09-9.154c0.77-1.755,1.164-3.666,1.164-5.659
				C86.947,66.004,83.103,61.599,73.575,58.236z"/>
		</g>
	</g>
	<g>
		<g>
			<path class="st0" d="M74.103,56.833c-6.377-2.4-8.638-3.835-8.638-5.482c0-2.596,3.375-2.984,5.387-2.984
				c4.948,0,8.198,1.412,10.348,2.347l0.597,0.257c0.403,0.17,0.859,0.157,1.25-0.037c0.392-0.193,0.679-0.548,0.788-0.971
				l2.323-9.047c0.178-0.691-0.156-1.412-0.798-1.723c-3.086-1.497-6.62-2.386-10.765-2.705v-5.636c0-0.829-0.671-1.5-1.5-1.5
				h-7.847c-0.829,0-1.5,0.671-1.5,1.5v6.403c-8.382,2.065-13.533,7.9-13.533,15.458c0,9.646,8.248,13.658,15.433,16.075
				c6.198,2.094,7.468,3.732,7.468,5.545c0,3.215-4.736,3.465-6.187,3.465c-5.632,0-10.294-2.091-12.572-3.338
				c-0.406-0.223-0.893-0.245-1.317-0.06c-0.425,0.185-0.741,0.555-0.856,1.004l-2.402,9.368c-0.167,0.651,0.12,1.334,0.702,1.671
				c3.159,1.828,7.985,3.149,12.863,3.552v6.2c0,0.829,0.671,1.5,1.5,1.5h7.848c0.829,0,1.5-0.671,1.5-1.5v-6.936
				c6.213-1.388,10.79-4.83,12.963-9.783c0.856-1.953,1.29-4.06,1.29-6.262C88.447,65.279,84.148,60.378,74.103,56.833z
				 M84.409,78.267c-1.898,4.327-6.15,7.267-11.973,8.278c-0.719,0.125-1.243,0.749-1.243,1.478v6.668h-4.848v-6.107
				c0-0.802-0.631-1.462-1.433-1.499c-4.329-0.194-8.859-1.239-11.932-2.718l1.644-6.414c2.821,1.315,7.195,2.842,12.303,2.842
				c5.667,0,9.187-2.478,9.187-6.465c0-4.295-3.801-6.459-9.51-8.388c-9.386-3.157-13.391-7.114-13.391-13.232
				c0-6.489,4.606-11.267,12.322-12.782c0.704-0.138,1.211-0.754,1.211-1.472v-6.107h4.847v5.547c0,0.803,0.632,1.463,1.433,1.499
				c3.84,0.171,7.097,0.825,9.911,1.994l-1.574,6.129c-2.289-0.954-5.724-2.154-10.513-2.154c-7.782,0-8.387,4.58-8.387,5.984
				c0,3.664,3.412,5.592,10.61,8.301c8.903,3.143,12.372,6.944,12.372,13.559C85.447,74.996,85.098,76.697,84.409,78.267z"/>
		</g>
	</g>
	<g>
		<g>
			<path class="st3" d="M142.284,114.51c-0.974,11.564-13.025,13.389-13.025,13.389c10.347,0.487,12.925,14.059,12.925,14.059
				c0.221-9.677,13.321-14.202,13.321-14.202C145.692,127.17,142.284,114.51,142.284,114.51z"/>
		</g>
	</g>
	<g>
		<g>
			<path class="st0" d="M155.595,126.259c-8.604-0.514-11.831-12.024-11.863-12.141c-0.191-0.703-0.865-1.169-1.583-1.102
				c-0.725,0.066-1.298,0.642-1.359,1.367c-0.86,10.215-11.313,11.964-11.755,12.033c-0.763,0.115-1.313,0.79-1.273,1.561
				c0.04,0.77,0.657,1.384,1.427,1.421c9.028,0.425,11.499,12.718,11.523,12.842c0.137,0.711,0.759,1.217,1.472,1.217
				c0.042,0,0.084-0.001,0.126-0.005c0.764-0.064,1.357-0.693,1.375-1.459c0.195-8.508,12.192-12.777,12.313-12.819
				c0.675-0.235,1.092-0.914,0.994-1.622C156.893,126.843,156.309,126.302,155.595,126.259z M142.029,136.606
				c-1.356-3.13-3.709-6.907-7.587-8.877c2.931-1.405,6.409-3.913,8.202-8.273c1.551,3.071,4.2,6.88,8.334,8.722
				C147.971,129.818,144.055,132.585,142.029,136.606z"/>
		</g>
	</g>
	<g>
		<g>
			<path class="st3" d="M120.585,131.491c-0.689,8.179-9.212,9.471-9.212,9.471c7.318,0.345,9.142,9.944,9.142,9.944
				c0.156-6.845,9.422-10.046,9.422-10.046C122.995,140.445,120.585,131.491,120.585,131.491z"/>
		</g>
	</g>
	<g>
		<g>
			<path class="st0" d="M130.026,139.363c-5.767-0.345-7.973-8.186-7.994-8.265c-0.19-0.702-0.857-1.163-1.582-1.102
				c-0.726,0.065-1.299,0.643-1.36,1.368c-0.579,6.871-7.646,8.067-7.942,8.114c-0.763,0.115-1.313,0.79-1.273,1.561
				c0.04,0.77,0.657,1.384,1.427,1.421c6.036,0.284,7.724,8.644,7.739,8.725c0.135,0.713,0.759,1.22,1.472,1.22
				c0.042,0,0.083-0.002,0.125-0.005c0.765-0.064,1.358-0.693,1.376-1.461c0.131-5.709,8.332-8.634,8.413-8.662
				c0.676-0.234,1.094-0.913,0.996-1.622C131.325,139.947,130.741,139.406,130.026,139.363z M120.441,146.158
				c-0.924-1.886-2.34-3.947-4.447-5.28c1.856-1.042,3.697-2.63,4.871-4.917c1.057,1.873,2.654,3.954,4.941,5.224
				C123.956,142.286,121.817,143.926,120.441,146.158z"/>
		</g>
	</g>
	<g>
		<g>
			<path class="st3" d="M120.585,104.833c-0.689,8.179-9.212,9.471-9.212,9.471c7.318,0.344,9.142,9.944,9.142,9.944
				c0.156-6.845,9.422-10.045,9.422-10.045C122.995,113.787,120.585,104.833,120.585,104.833z"/>
		</g>
	</g>
	<g>
		<g>
			<path class="st0" d="M130.026,112.705c-5.766-0.345-7.972-8.185-7.994-8.264c-0.19-0.702-0.857-1.164-1.582-1.102
				c-0.726,0.065-1.299,0.643-1.36,1.368c-0.579,6.871-7.646,8.067-7.942,8.114c-0.763,0.115-1.313,0.79-1.273,1.561
				c0.04,0.77,0.657,1.384,1.428,1.421c6.035,0.284,7.723,8.644,7.739,8.725c0.135,0.713,0.759,1.22,1.472,1.22
				c0.042,0,0.083-0.001,0.125-0.005c0.765-0.064,1.358-0.693,1.376-1.461c0.131-5.709,8.332-8.634,8.413-8.662
				c0.676-0.234,1.094-0.913,0.996-1.622C131.325,113.29,130.741,112.748,130.026,112.705z M120.441,119.5
				c-0.924-1.886-2.34-3.947-4.447-5.28c1.856-1.041,3.697-2.629,4.87-4.916c1.057,1.874,2.654,3.954,4.942,5.223
				C123.956,115.628,121.817,117.268,120.441,119.5z"/>
		</g>
	</g>
	<g>
		<g>
			<path class="st25" d="M186.909,17.99c-2.73,0-5.4,0.24-8,0.7c12.56,2.24,23.36,9.64,30.1,19.93c0.31,0.15,0.63,0.31,0.94,0.47
				c0.61,0.32,0.93,1.02,0.76,1.69l-0.11,0.45c3.72,6.59,5.84,14.2,5.84,22.29c0,7.64-1.89,14.84-5.23,21.17v1.75
				c0,0.5-0.24,0.96-0.65,1.24c-0.58,0.4-1.17,0.76-1.78,1.09c-6.76,10.11-17.45,17.37-29.87,19.58c2.6,0.46,5.27,0.7,8,0.7
				c25.11,0,45.53-20.42,45.53-45.53C232.439,38.419,212.019,17.99,186.909,17.99z"/>
		</g>
	</g>
	<g>
		<g>
			<path class="st25" d="M186.909,146.95c-2.73,0-5.4,0.24-8,0.7c11.56,2.06,21.63,8.49,28.42,17.52h3.7c0.53,0,1.02,0.28,1.29,0.74
				c0.27,0.45,0.28,1.02,0.02,1.48l-1.64,2.97c3.66,6.55,5.74,14.1,5.74,22.12c0,22.37-16.22,41.03-37.53,44.83
				c2.6,0.46,5.27,0.7,8,0.7c25.11,0,45.53-20.43,45.53-45.53C232.439,167.37,212.019,146.95,186.909,146.95z"/>
		</g>
	</g>
</g>
</svg>
