<?xml version="1.0" encoding="utf-8"?>
<!-- Generator: Adobe Illustrator 22.0.1, SVG Export Plug-In . SVG Version: 6.00 Build 0)  -->
<svg version="1.1" id="Layer_1" xmlns="http://www.w3.org/2000/svg" xmlns:xlink="http://www.w3.org/1999/xlink" x="0px" y="0px"
	 viewBox="0 0 256 256" style="enable-background:new 0 0 256 256;" xml:space="preserve">
<style type="text/css">
	.st0{fill:#3A312A;}
	.st1{fill:#8AC6DD;}
	.st2{fill:#F16C7A;}
	.st3{fill:#D7E057;}
	.st4{fill:#87796F;}
	.st5{fill:#FCE8CB;}
	.st6{fill:#DECAAD;}
	.st7{fill:#D6DF58;}
	.st8{fill:#FAE6CA;}
	.st9{fill:#DDC9AC;}
	.st10{fill:#D5DE58;}
	.st11{fill:#ED6E7A;}
	.st12{fill:#8AC5DC;}
	.st13{fill:#6CA8BF;}
	.st14{fill:#695B51;}
	.st15{fill:#F8E4C8;}
	.st16{fill:#EF6D7A;}
	.st17{fill-rule:evenodd;clip-rule:evenodd;fill:#F8E4C8;}
	.st18{fill:#89C4DB;}
	.st19{fill:#F59689;}
	.st20{fill:#D34E5C;}
	.st21{fill:#F7E3C7;}
	.st22{fill:#8AC3DA;}
	.st23{fill-rule:evenodd;clip-rule:evenodd;fill:#F7E3C7;}
	.st24{fill-rule:evenodd;clip-rule:evenodd;fill:#87796F;}
	.st25{fill:#B9C239;}
	.st26{fill:#D4DB56;}
	.st27{fill-rule:evenodd;clip-rule:evenodd;fill:#F16C7A;}
	.st28{fill-rule:evenodd;clip-rule:evenodd;fill:#F6E2C6;}
	.st29{fill:#F6E2C6;}
	.st30{fill-rule:evenodd;clip-rule:evenodd;fill:#FAE6CA;}
	.st31{fill:#B8C136;}
</style>
<g>
	<g>
		<g>
			<path class="st3" d="M109.248,34.3C91.266,16.318,65.586,12.845,59.527,18.904c-5.737,5.737-2.586,31.74,15.396,49.721
				c17.982,17.982,40.243,24.875,49.721,15.396C134.122,74.543,127.229,52.282,109.248,34.3z"/>
		</g>
	</g>
	<g>
		<g>
			<path class="st0" d="M128.676,61.906c-2.979-9.62-9.502-19.8-18.368-28.666C99.175,22.106,86.716,17.742,80.28,16.132
				c-9.919-2.482-18.277-1.827-21.815,1.712c-3.369,3.369-3.994,11.881-1.593,21.686c1.595,6.513,5.923,19.091,16.989,30.156
				c8.866,8.866,19.046,15.389,28.666,18.368c3.738,1.157,7.233,1.731,10.406,1.731c5.271,0,9.651-1.583,12.77-4.703
				C130.701,80.085,131.757,71.854,128.676,61.906z M123.583,82.961c-4.172,4.171-11.333,4.962-20.168,2.228
				c-9.162-2.837-18.905-9.096-27.432-17.624c-10.549-10.549-14.675-22.54-16.196-28.749c-2.44-9.962-1.296-16.755,0.8-18.851
				c1.328-1.328,4.387-2.299,8.81-2.299c2.851,0,6.269,0.404,10.156,1.377c6.135,1.535,18.013,5.697,28.635,16.319
				c8.527,8.527,14.786,18.27,17.624,27.432C128.546,71.627,127.755,78.789,123.583,82.961z"/>
		</g>
	</g>
	<g>
		<g>
			<path class="st3" d="M198.25,18.904c-5.444-5.444-26.725-3.185-44.032,10.37l-10.525,10.273
				c-14.31,16.865-19.135,35.899-10.56,44.474c9.478,9.479,31.739,2.586,49.721-15.396C200.836,50.644,203.987,24.641,198.25,18.904
				z"/>
		</g>
	</g>
	<g>
		<g>
			<path class="st0" d="M199.311,17.844c-3.153-3.153-10.223-4.032-18.913-2.352c-9.432,1.824-19.058,6.299-27.104,12.602
				c-0.652,0.511-0.767,1.454-0.256,2.105c0.511,0.653,1.454,0.767,2.106,0.256c17.311-13.559,37.625-14.91,42.047-10.49
				c2.096,2.096,3.24,8.889,0.8,18.851c-1.521,6.209-5.646,18.2-16.195,28.749c-17.37,17.367-38.723,24.273-47.601,15.396
				c-7.824-7.824-3.248-26.071,10.643-42.442c0.536-0.632,0.458-1.579-0.173-2.114c-0.632-0.537-1.579-0.46-2.114,0.173
				c-15.156,17.862-19.562,37.42-10.477,46.505c3.221,3.222,7.687,4.755,12.887,4.754c11.296-0.001,26.046-7.241,38.956-20.15
				c11.065-11.065,15.393-23.643,16.988-30.156C203.305,29.725,202.68,21.212,199.311,17.844z"/>
		</g>
	</g>
	<g>
		<g>
			<path class="st0" d="M128.85,68.533c-0.829,0-1.5,0.671-1.5,1.5v46.483c0,0.829,0.671,1.5,1.5,1.5s1.5-0.671,1.5-1.5V70.033
				C130.35,69.205,129.678,68.533,128.85,68.533z"/>
		</g>
	</g>
	<g>
		<g>
			<path class="st7" d="M48.835,88.09c-0.974,11.564-13.025,13.39-13.025,13.39c10.347,0.487,12.925,14.059,12.925,14.059
				c0.221-9.677,13.321-14.202,13.321-14.202C52.243,100.749,48.835,88.09,48.835,88.09z"/>
		</g>
	</g>
	<g>
		<g>
			<path class="st0" d="M62.146,99.839c-8.604-0.514-11.831-12.024-11.863-12.14c-0.191-0.703-0.863-1.167-1.583-1.102
				c-0.725,0.066-1.298,0.642-1.359,1.367c-0.86,10.215-11.314,11.963-11.755,12.032c-0.763,0.115-1.313,0.79-1.273,1.56
				c0.04,0.77,0.657,1.384,1.428,1.421c9.028,0.425,11.499,12.718,11.523,12.842c0.137,0.711,0.759,1.217,1.472,1.217
				c0.042,0,0.084-0.002,0.126-0.005c0.764-0.064,1.357-0.693,1.375-1.459c0.195-8.508,12.192-12.777,12.313-12.819
				c0.675-0.235,1.092-0.915,0.994-1.623C63.444,100.423,62.86,99.882,62.146,99.839z M48.58,110.185
				c-1.357-3.131-3.709-6.908-7.587-8.877c2.931-1.404,6.409-3.913,8.202-8.273c1.551,3.071,4.199,6.88,8.334,8.722
				C54.522,103.398,50.606,106.164,48.58,110.185z"/>
		</g>
	</g>
	<g>
		<g>
			<path class="st7" d="M27.136,105.071c-0.689,8.179-9.212,9.471-9.212,9.471c7.318,0.344,9.142,9.944,9.142,9.944
				c0.156-6.844,9.422-10.045,9.422-10.045C29.547,114.025,27.136,105.071,27.136,105.071z"/>
		</g>
	</g>
	<g>
		<g>
			<path class="st0" d="M36.577,112.942c-5.766-0.345-7.972-8.185-7.993-8.264c-0.19-0.702-0.854-1.164-1.582-1.102
				c-0.726,0.065-1.299,0.642-1.36,1.368c-0.579,6.87-7.646,8.066-7.942,8.113c-0.763,0.115-1.313,0.79-1.273,1.561
				c0.04,0.77,0.657,1.384,1.427,1.421c6.035,0.284,7.724,8.644,7.739,8.726c0.135,0.712,0.759,1.22,1.472,1.22
				c0.042,0,0.083-0.002,0.125-0.005c0.765-0.063,1.358-0.694,1.376-1.461c0.13-5.709,8.332-8.634,8.412-8.662
				c0.677-0.234,1.094-0.913,0.996-1.622C37.877,113.527,37.292,112.985,36.577,112.942z M26.993,119.738
				c-0.924-1.886-2.34-3.947-4.447-5.28c1.856-1.042,3.697-2.63,4.871-4.917c1.057,1.873,2.654,3.955,4.941,5.224
				C30.508,115.866,28.369,117.505,26.993,119.738z"/>
		</g>
	</g>
	<g>
		<g>
			<path class="st7" d="M27.098,78.413c-0.657,8.182-9.175,9.507-9.175,9.507c7.319,0.316,9.181,9.909,9.181,9.909
				c0.129-6.845,9.383-10.082,9.383-10.082C29.544,87.358,27.098,78.413,27.098,78.413z"/>
		</g>
	</g>
	<g>
		<g>
			<path class="st0" d="M36.57,86.248c-5.767-0.323-8.004-8.154-8.026-8.233c-0.193-0.702-0.859-1.166-1.586-1.096
				c-0.725,0.068-1.297,0.648-1.355,1.374c-0.552,6.873-7.615,8.097-7.911,8.145c-0.762,0.119-1.31,0.796-1.267,1.566
				c0.043,0.77,0.663,1.382,1.433,1.415c6.036,0.261,7.757,8.614,7.773,8.696c0.138,0.71,0.76,1.214,1.471,1.214
				c0.043,0,0.087-0.002,0.131-0.005c0.765-0.066,1.356-0.699,1.37-1.466c0.108-5.71,8.297-8.667,8.378-8.695
				c0.675-0.236,1.09-0.917,0.99-1.626C37.872,86.828,37.285,86.289,36.57,86.248z M27.013,93.081
				c-0.932-1.882-2.356-3.938-4.468-5.262c1.852-1.049,3.687-2.645,4.852-4.935c1.064,1.869,2.67,3.944,4.961,5.204
				C30.512,89.195,28.38,90.843,27.013,93.081z"/>
		</g>
	</g>
	<g>
		<g>
			<path class="st7" d="M163.487,143.566l-7.041-27.26c-0.907-3.511-4.074-5.964-7.701-5.964h-39.713
				c-3.627,0-6.794,2.453-7.701,5.964l-7.041,27.26c-1.3,5.035,2.501,9.943,7.701,9.943h53.795
				C160.986,153.509,164.787,148.601,163.487,143.566z"/>
		</g>
	</g>
	<g>
		<g>
			<path class="st0" d="M164.939,143.191l-7.041-27.26c-1.078-4.174-4.842-7.089-9.153-7.089h-39.713
				c-4.311,0-8.075,2.915-9.153,7.089l-7.041,27.26c-0.737,2.853-0.125,5.824,1.679,8.153c1.804,2.329,4.528,3.665,7.474,3.665
				h53.795c2.946,0,5.67-1.336,7.474-3.665C165.064,149.015,165.676,146.043,164.939,143.191z M160.889,149.507
				c-1.231,1.59-3.091,2.502-5.103,2.502h-53.795c-2.011,0-3.871-0.912-5.102-2.502c-1.232-1.59-1.649-3.619-1.147-5.566
				l7.041-27.26c0.736-2.849,3.306-4.839,6.249-4.839h39.713c2.943,0,5.512,1.99,6.249,4.839l7.041,27.26
				C162.538,145.888,162.12,147.917,160.889,149.507z"/>
		</g>
	</g>
	<g>
		<g>
			<path class="st7" d="M89.154,229.899l-7.041-27.26c-0.907-3.511-4.074-5.964-7.701-5.964H34.699
				c-3.626,0-6.794,2.453-7.701,5.964l-7.041,27.26c-1.301,5.035,2.501,9.943,7.701,9.943h53.795
				C86.653,239.842,90.454,234.934,89.154,229.899z"/>
		</g>
	</g>
	<g>
		<g>
			<path class="st0" d="M90.606,229.524l-7.041-27.26c-1.078-4.174-4.842-7.089-9.153-7.089H34.699
				c-4.311,0-8.075,2.915-9.153,7.089l-7.042,27.26c-0.737,2.852-0.125,5.824,1.679,8.153c1.804,2.329,4.528,3.665,7.474,3.665
				h17.72c0.829,0,1.5-0.671,1.5-1.5s-0.671-1.5-1.5-1.5h-17.72c-2.011,0-3.871-0.912-5.102-2.502
				c-1.232-1.59-1.649-3.619-1.147-5.566l7.042-27.26c0.736-2.849,3.306-4.839,6.249-4.839h39.713c2.943,0,5.513,1.99,6.249,4.839
				l7.041,27.26c0.503,1.947,0.085,3.976-1.146,5.565c-1.232,1.59-3.091,2.502-5.103,2.502H59.067c-0.829,0-1.5,0.671-1.5,1.5
				s0.671,1.5,1.5,1.5h22.386c2.946,0,5.67-1.336,7.474-3.665C90.731,235.348,91.342,232.376,90.606,229.524z"/>
		</g>
	</g>
	<g>
		<g>
			<path class="st7" d="M163.487,229.899l-7.041-27.26c-0.907-3.511-4.074-5.964-7.701-5.964h-39.713
				c-3.627,0-6.794,2.453-7.701,5.964l-7.041,27.26c-1.3,5.035,2.501,9.943,7.701,9.943h53.795
				C160.986,239.842,164.787,234.934,163.487,229.899z"/>
		</g>
	</g>
	<g>
		<g>
			<path class="st0" d="M164.939,229.524l-7.041-27.26c-1.078-4.174-4.842-7.089-9.153-7.089h-39.713
				c-4.311,0-8.075,2.915-9.153,7.089l-7.041,27.26c-0.737,2.853-0.125,5.824,1.679,8.153c1.804,2.329,4.528,3.665,7.474,3.665
				h53.795c2.946,0,5.67-1.336,7.474-3.665C165.064,235.348,165.676,232.376,164.939,229.524z M160.889,235.84
				c-1.231,1.59-3.091,2.502-5.103,2.502h-53.795c-2.011,0-3.871-0.912-5.102-2.502c-1.232-1.59-1.649-3.619-1.147-5.566
				l7.041-27.26c0.736-2.849,3.306-4.839,6.249-4.839h39.713c2.943,0,5.512,1.99,6.249,4.839l7.041,27.26
				C162.538,232.222,162.12,234.25,160.889,235.84z"/>
		</g>
	</g>
	<g>
		<g>
			<path class="st7" d="M237.82,229.899l-7.041-27.26c-0.907-3.511-4.074-5.964-7.701-5.964h-39.713
				c-3.627,0-6.794,2.453-7.701,5.964l-7.041,27.26c-1.301,5.035,2.501,9.943,7.701,9.943h53.795
				C235.32,239.842,239.121,234.934,237.82,229.899z"/>
		</g>
	</g>
	<g>
		<g>
			<path class="st0" d="M239.273,229.524l-7.041-27.26c-1.078-4.174-4.842-7.089-9.153-7.089h-39.713
				c-4.311,0-8.075,2.915-9.153,7.089l-7.041,27.26c-0.737,2.852-0.125,5.823,1.679,8.152s4.528,3.665,7.474,3.665h53.795
				c2.946,0,5.67-1.336,7.474-3.665C239.398,235.348,240.009,232.376,239.273,229.524z M235.222,235.84
				c-1.232,1.59-3.091,2.502-5.102,2.502h-53.795c-2.011,0-3.871-0.912-5.103-2.502c-1.231-1.59-1.649-3.618-1.146-5.565
				l7.041-27.26c0.736-2.849,3.306-4.839,6.248-4.839h39.713c2.943,0,5.513,1.99,6.249,4.839l7.041,27.26
				C236.871,232.222,236.453,234.25,235.222,235.84z"/>
		</g>
	</g>
	<g>
		<g>
			<path class="st7" d="M126.32,186.733l-7.041-27.26c-0.907-3.511-4.074-5.964-7.701-5.964H71.865
				c-3.626,0-6.794,2.453-7.701,5.964l-7.041,27.26c-1.3,5.035,2.501,9.943,7.701,9.943h53.795
				C123.819,196.675,127.621,191.767,126.32,186.733z"/>
		</g>
	</g>
	<g>
		<g>
			<path class="st0" d="M127.772,186.357l-7.042-27.26c-1.078-4.174-4.842-7.089-9.153-7.089H71.865
				c-4.311,0-8.075,2.915-9.153,7.089l-7.041,27.26c-0.737,2.852-0.125,5.824,1.679,8.153c1.804,2.329,4.528,3.665,7.474,3.665
				h53.795c2.946,0,5.669-1.336,7.474-3.665C127.897,192.182,128.509,189.21,127.772,186.357z M123.721,192.673
				c-1.231,1.59-3.091,2.502-5.102,2.502H64.824c-2.011,0-3.871-0.912-5.102-2.502c-1.231-1.59-1.649-3.619-1.146-5.566l7.041-27.26
				c0.736-2.849,3.306-4.839,6.249-4.839h39.713c2.943,0,5.513,1.99,6.249,4.839l7.042,27.26
				C125.371,189.055,124.953,191.083,123.721,192.673z"/>
		</g>
	</g>
	<g>
		<g>
			<path class="st7" d="M200.654,186.733l-7.041-27.26c-0.907-3.511-4.074-5.964-7.701-5.964h-39.713
				c-3.627,0-6.794,2.453-7.701,5.964l-7.041,27.26c-1.301,5.035,2.501,9.943,7.701,9.943h53.795
				C198.153,196.675,201.954,191.767,200.654,186.733z"/>
		</g>
	</g>
	<g>
		<g>
			<path class="st0" d="M202.106,186.357l-7.041-27.26c-1.078-4.174-4.842-7.089-9.153-7.089h-39.713
				c-4.311,0-8.075,2.915-9.153,7.089l-7.042,27.26c-0.737,2.853-0.125,5.824,1.679,8.153c1.804,2.329,4.528,3.665,7.474,3.665
				h53.795c2.946,0,5.67-1.336,7.474-3.665C202.231,192.181,202.843,189.209,202.106,186.357z M198.055,192.673
				c-1.231,1.59-3.091,2.502-5.103,2.502h-53.795c-2.011,0-3.87-0.912-5.102-2.502c-1.232-1.59-1.65-3.619-1.147-5.566l7.042-27.26
				c0.736-2.849,3.306-4.839,6.249-4.839h39.713c2.943,0,5.513,1.99,6.249,4.839l7.041,27.26
				C199.704,189.055,199.286,191.083,198.055,192.673z"/>
		</g>
	</g>
	<g>
		<g>
			<path class="st25" d="M162.039,143.942l-7.05-27.26c-0.73-2.85-3.3-4.84-6.24-4.84h-16c2.94,0,5.51,1.99,6.24,4.84l7.05,27.26
				c0.5,1.95,0.08,3.97-1.15,5.56c-1.23,1.59-3.09,2.51-5.1,2.51h16c2.01,0,3.87-0.92,5.1-2.51
				C162.118,147.912,162.539,145.892,162.039,143.942z"/>
		</g>
	</g>
	<g>
		<g>
			<path class="st25" d="M236.368,230.272l-7.04-27.26c-0.74-2.85-3.31-4.84-6.25-4.84h-16c2.94,0,5.51,1.99,6.25,4.84l7.04,27.26
				c0.5,1.95,0.08,3.98-1.15,5.57c-1.23,1.59-3.09,2.5-5.1,2.5h16c2.01,0,3.87-0.91,5.1-2.5
				C236.448,234.252,236.868,232.222,236.368,230.272z"/>
		</g>
	</g>
	<g>
		<g>
			<path class="st25" d="M199.198,187.112l-7.04-27.26c-0.73-2.85-3.3-4.84-6.25-4.84h-16c2.95,0,5.52,1.99,6.25,4.84l7.04,27.26
				c0.51,1.94,0.09,3.97-1.14,5.56c-1.24,1.59-3.09,2.5-5.11,2.5h16c2.02,0,3.87-0.91,5.11-2.5
				C199.289,191.082,199.708,189.052,199.198,187.112z"/>
		</g>
	</g>
</g>
</svg>
