<?xml version="1.0" encoding="utf-8"?>
<!-- Generator: Adobe Illustrator 22.0.1, SVG Export Plug-In . SVG Version: 6.00 Build 0)  -->
<svg version="1.1" id="Layer_1" xmlns="http://www.w3.org/2000/svg" xmlns:xlink="http://www.w3.org/1999/xlink" x="0px" y="0px"
	 viewBox="0 0 256 256" style="enable-background:new 0 0 256 256;" xml:space="preserve">
<style type="text/css">
	.st0{fill:#3A312A;}
	.st1{fill:#8AC6DD;}
	.st2{fill:#F16C7A;}
	.st3{fill:#D7E057;}
	.st4{fill:#87796F;}
	.st5{fill:#FCE8CB;}
	.st6{fill:#DECAAD;}
	.st7{fill:#D6DF58;}
	.st8{fill:#FAE6CA;}
	.st9{fill:#DDC9AC;}
	.st10{fill:#D5DE58;}
	.st11{fill:#ED6E7A;}
	.st12{fill:#8AC5DC;}
	.st13{fill:#6CA8BF;}
	.st14{fill:#695B51;}
	.st15{fill:#F8E4C8;}
	.st16{fill:#EF6D7A;}
	.st17{fill-rule:evenodd;clip-rule:evenodd;fill:#F8E4C8;}
	.st18{fill:#89C4DB;}
	.st19{fill:#F59689;}
	.st20{fill:#D34E5C;}
	.st21{fill:#F7E3C7;}
	.st22{fill:#8AC3DA;}
	.st23{fill-rule:evenodd;clip-rule:evenodd;fill:#F7E3C7;}
	.st24{fill-rule:evenodd;clip-rule:evenodd;fill:#87796F;}
	.st25{fill:#B9C239;}
	.st26{fill:#D4DB56;}
	.st27{fill-rule:evenodd;clip-rule:evenodd;fill:#F16C7A;}
	.st28{fill-rule:evenodd;clip-rule:evenodd;fill:#F6E2C6;}
	.st29{fill:#F6E2C6;}
	.st30{fill-rule:evenodd;clip-rule:evenodd;fill:#FAE6CA;}
	.st31{fill:#B8C136;}
</style>
<g>
	<g>
		<g>
			<path class="st4" d="M222.15,16.135H33.361c-9.447,0-17.105,7.659-17.105,17.106V163.53c0,9.447,7.658,17.105,17.105,17.105
				H222.15c9.447,0,17.106-7.658,17.106-17.105V33.241C239.255,23.794,231.597,16.135,222.15,16.135z"/>
		</g>
	</g>
	<g>
		<g>
			<path class="st0" d="M222.149,14.635H33.361c-10.259,0-18.605,8.346-18.605,18.605V163.53c0,10.259,8.347,18.605,18.605,18.605
				h188.788c10.26,0,18.606-8.346,18.606-18.605V33.241C240.756,22.981,232.409,14.635,222.149,14.635z M237.756,163.53
				c0,8.605-7.001,15.605-15.606,15.605H33.361c-8.604,0-15.605-7-15.605-15.605V33.241c0-8.605,7.001-15.605,15.605-15.605h188.788
				c8.605,0,15.606,7,15.606,15.605V163.53z"/>
		</g>
	</g>
	<g>
		<g>
			<path class="st5" d="M214.725,28.64H40.785c-6.58,0-11.92,5.33-11.92,11.92v115.66c0,6.58,5.34,11.92,11.92,11.92h173.94
				c6.58,0,11.92-5.34,11.92-11.92V40.56C226.646,33.97,221.305,28.64,214.725,28.64z"/>
		</g>
	</g>
	<g>
		<g>
			<path class="st0" d="M214.726,27.14H86.089c-0.828,0-1.5,0.671-1.5,1.5s0.672,1.5,1.5,1.5h128.637
				c5.745,0,10.42,4.674,10.42,10.42v115.66c0,5.746-4.675,10.42-10.42,10.42H40.785c-5.745,0-10.42-4.674-10.42-10.42V40.56
				c0-5.746,4.675-10.42,10.42-10.42h32.639c0.828,0,1.5-0.671,1.5-1.5s-0.672-1.5-1.5-1.5H40.785c-7.399,0-13.42,6.02-13.42,13.42
				v115.66c0,7.4,6.021,13.42,13.42,13.42h173.94c7.399,0,13.42-6.02,13.42-13.42V40.56C228.146,33.16,222.125,27.14,214.726,27.14z
				"/>
		</g>
	</g>
	<g>
		<g>
			<rect x="113.443" y="180.635" class="st4" width="28.625" height="35.593"/>
		</g>
	</g>
	<g>
		<g>
			<path class="st0" d="M142.068,179.135h-28.625c-0.828,0-1.5,0.671-1.5,1.5v35.593c0,0.829,0.672,1.5,1.5,1.5h28.625
				c0.828,0,1.5-0.671,1.5-1.5v-35.593C143.568,179.807,142.896,179.135,142.068,179.135z M140.568,214.729h-25.625v-32.593h25.625
				V214.729z"/>
		</g>
	</g>
	<g>
		<g>
			<path class="st4" d="M148.052,216.229h-40.593c-12.927,0-23.407,10.479-23.407,23.407h87.406
				C171.458,226.708,160.979,216.229,148.052,216.229z"/>
		</g>
	</g>
	<g>
		<g>
			<path class="st0" d="M148.052,214.729h-40.593c-13.733,0-24.906,11.173-24.906,24.907c0,0.829,0.672,1.5,1.5,1.5h37.584
				c0.828,0,1.5-0.671,1.5-1.5c0-0.829-0.672-1.5-1.5-1.5H85.604c0.773-11.382,10.28-20.407,21.855-20.407h40.593
				c11.575,0,21.083,9.024,21.856,20.407h-34.701c-0.828,0-1.5,0.671-1.5,1.5c0,0.829,0.672,1.5,1.5,1.5h36.252
				c0.828,0,1.5-0.671,1.5-1.5C172.959,225.902,161.786,214.729,148.052,214.729z"/>
		</g>
	</g>
	<g>
		<g>
			<path class="st7" d="M47.427,203.469c-0.974,11.564-13.025,13.39-13.025,13.39c10.347,0.487,12.925,14.059,12.925,14.059
				c0.221-9.677,13.321-14.202,13.321-14.202C50.835,216.129,47.427,203.469,47.427,203.469z"/>
		</g>
	</g>
	<g>
		<g>
			<path class="st0" d="M60.738,215.218c-8.604-0.514-11.832-12.024-11.863-12.141c-0.19-0.702-0.854-1.16-1.584-1.102
				c-0.725,0.066-1.298,0.642-1.359,1.367c-0.859,10.215-11.313,11.964-11.754,12.033c-0.763,0.115-1.313,0.79-1.273,1.561
				c0.04,0.77,0.657,1.384,1.428,1.421c9.027,0.425,11.498,12.718,11.521,12.842c0.138,0.711,0.76,1.217,1.473,1.217
				c0.042,0,0.084-0.001,0.126-0.005c0.764-0.064,1.357-0.693,1.375-1.459c0.194-8.508,12.191-12.777,12.313-12.819
				c0.676-0.235,1.092-0.915,0.994-1.623C62.035,215.802,61.452,215.261,60.738,215.218z M47.172,225.565
				c-1.356-3.13-3.709-6.907-7.587-8.877c2.931-1.405,6.409-3.913,8.202-8.273c1.551,3.071,4.2,6.88,8.334,8.722
				C53.114,218.777,49.198,221.544,47.172,225.565z"/>
		</g>
	</g>
	<g>
		<g>
			<path class="st7" d="M25.728,220.45c-0.689,8.179-9.212,9.471-9.212,9.471c7.318,0.344,9.142,9.944,9.142,9.944
				c0.156-6.845,9.422-10.046,9.422-10.046C28.138,229.404,25.728,220.45,25.728,220.45z"/>
		</g>
	</g>
	<g>
		<g>
			<path class="st0" d="M35.17,228.322c-5.767-0.345-7.973-8.186-7.995-8.265c-0.189-0.702-0.861-1.162-1.581-1.102
				c-0.726,0.065-1.3,0.643-1.361,1.368c-0.578,6.871-7.646,8.067-7.941,8.114c-0.763,0.115-1.313,0.79-1.273,1.56
				c0.04,0.77,0.657,1.384,1.428,1.421c6.035,0.284,7.723,8.644,7.738,8.726c0.136,0.713,0.759,1.22,1.473,1.22
				c0.041,0,0.083-0.001,0.124-0.005c0.766-0.063,1.359-0.694,1.377-1.461c0.13-5.709,8.332-8.634,8.412-8.662
				c0.677-0.234,1.094-0.913,0.997-1.622C36.469,228.906,35.884,228.365,35.17,228.322z M25.585,235.117
				c-0.924-1.885-2.341-3.947-4.447-5.28c1.855-1.041,3.697-2.63,4.87-4.916c1.058,1.874,2.655,3.954,4.941,5.224
				C29.1,231.245,26.961,232.885,25.585,235.117z"/>
		</g>
	</g>
	<g>
		<g>
			<path class="st7" d="M25.728,193.792c-0.689,8.179-9.212,9.471-9.212,9.471c7.318,0.345,9.142,9.944,9.142,9.944
				c0.156-6.845,9.422-10.046,9.422-10.046C28.138,202.747,25.728,193.792,25.728,193.792z"/>
		</g>
	</g>
	<g>
		<g>
			<path class="st0" d="M35.17,201.664c-5.767-0.345-7.973-8.185-7.995-8.264c-0.189-0.702-0.861-1.162-1.581-1.102
				c-0.726,0.065-1.3,0.643-1.361,1.368c-0.578,6.871-7.646,8.066-7.941,8.113c-0.763,0.115-1.313,0.79-1.273,1.56
				c0.04,0.77,0.657,1.384,1.428,1.421c6.035,0.284,7.723,8.645,7.738,8.726c0.136,0.713,0.759,1.22,1.473,1.22
				c0.041,0,0.083-0.001,0.124-0.005c0.766-0.063,1.359-0.694,1.377-1.461c0.13-5.709,8.332-8.634,8.413-8.662
				c0.676-0.234,1.093-0.913,0.996-1.622C36.469,202.249,35.884,201.707,35.17,201.664z M25.585,208.46
				c-0.924-1.886-2.34-3.947-4.447-5.28c1.855-1.042,3.697-2.63,4.87-4.917c1.058,1.873,2.655,3.955,4.941,5.224
				C29.1,204.587,26.961,206.228,25.585,208.46z"/>
		</g>
	</g>
	<g>
		<g>
			<path class="st0" d="M199.207,71.315c-0.561-0.612-1.508-0.652-2.119-0.094l-36.006,32.965l-33.131-18.2
				c-0.6-0.328-1.343-0.212-1.812,0.283l-33.91,35.796l-33.714-21.062c-0.703-0.44-1.627-0.225-2.067,0.477
				c-0.438,0.703-0.225,1.628,0.478,2.067L91.68,125.26c0.245,0.153,0.521,0.228,0.794,0.228c0.401,0,0.798-0.161,1.09-0.468
				l33.958-35.846l33.058,18.16c0.564,0.309,1.261,0.226,1.735-0.208l36.799-33.691C199.725,72.875,199.767,71.926,199.207,71.315z"
				/>
		</g>
	</g>
	<g>
		<g>
			<path class="st16" d="M92.909,114.178c-5.418,0-9.81,4.392-9.81,9.81s4.392,9.81,9.81,9.81c5.418,0,9.81-4.392,9.81-9.81
				S98.327,114.178,92.909,114.178z"/>
		</g>
	</g>
	<g>
		<g>
			<path class="st0" d="M92.909,112.678c-6.236,0-11.311,5.073-11.311,11.31c0,6.236,5.074,11.31,11.311,11.31
				s11.31-5.074,11.31-11.31C104.219,117.752,99.146,112.678,92.909,112.678z M92.909,132.298c-4.582,0-8.311-3.728-8.311-8.31
				c0-4.582,3.729-8.31,8.311-8.31s8.31,3.728,8.31,8.31C101.219,128.57,97.491,132.298,92.909,132.298z"/>
		</g>
	</g>
	<g>
		<g>
			<circle class="st7" cx="127.37" cy="87.42" r="9.81"/>
		</g>
	</g>
	<g>
		<g>
			<path class="st0" d="M127.369,76.11c-6.236,0-11.31,5.074-11.31,11.31c0,6.236,5.073,11.31,11.31,11.31
				s11.311-5.074,11.311-11.31C138.68,81.184,133.605,76.11,127.369,76.11z M127.369,95.73c-4.582,0-8.31-3.728-8.31-8.31
				c0-4.582,3.728-8.31,8.31-8.31s8.311,3.728,8.311,8.31C135.68,92.002,131.951,95.73,127.369,95.73z"/>
		</g>
	</g>
	<g>
		<g>
			
				<ellipse transform="matrix(0.8507 -0.5257 0.5257 0.8507 -31.6084 100.624)" class="st1" cx="161.301" cy="105.945" rx="9.81" ry="9.81"/>
		</g>
	</g>
	<g>
		<g>
			<path class="st0" d="M161.301,94.635c-6.236,0-11.31,5.074-11.31,11.31c0,6.236,5.073,11.31,11.31,11.31
				s11.311-5.074,11.311-11.31C172.611,99.708,167.537,94.635,161.301,94.635z M161.301,114.255c-4.582,0-8.31-3.728-8.31-8.31
				c0-4.582,3.728-8.31,8.31-8.31s8.311,3.728,8.311,8.31C169.611,110.527,165.883,114.255,161.301,114.255z"/>
		</g>
	</g>
	<g>
		<g>
			<path class="st4" d="M198.101,62.518c-5.418,0-9.81,4.392-9.81,9.81c0,5.418,4.392,9.81,9.81,9.81c5.418,0,9.81-4.392,9.81-9.81
				C207.911,66.91,203.518,62.518,198.101,62.518z"/>
		</g>
	</g>
	<g>
		<g>
			<path class="st0" d="M198.101,61.018c-6.236,0-11.31,5.074-11.31,11.31c0,6.236,5.073,11.31,11.31,11.31s11.31-5.074,11.31-11.31
				C209.41,66.092,204.337,61.018,198.101,61.018z M198.101,80.638c-4.582,0-8.31-3.728-8.31-8.31c0-4.582,3.728-8.31,8.31-8.31
				s8.31,3.728,8.31,8.31C206.41,76.91,202.683,80.638,198.101,80.638z"/>
		</g>
	</g>
	<g>
		<g>
			
				<ellipse transform="matrix(0.9571 -0.2898 0.2898 0.9571 -27.187 21.1187)" class="st4" cx="57.72" cy="102.365" rx="9.81" ry="9.81"/>
		</g>
	</g>
	<g>
		<g>
			<path class="st0" d="M57.721,91.055c-6.236,0-11.311,5.074-11.311,11.31c0,6.236,5.074,11.31,11.311,11.31
				s11.31-5.074,11.31-11.31C69.03,96.128,63.957,91.055,57.721,91.055z M57.721,110.675c-4.582,0-8.311-3.728-8.311-8.31
				c0-4.582,3.729-8.31,8.311-8.31s8.31,3.728,8.31,8.31C66.03,106.947,62.303,110.675,57.721,110.675z"/>
		</g>
	</g>
	<g>
		<g>
			<polygon class="st2" points="185.666,131.093 131.587,188.063 158.64,188.063 158.64,239.608 212.692,239.608 212.692,188.063 
				239.745,188.063 			"/>
		</g>
	</g>
	<g>
		<g>
			<path class="st0" d="M240.832,187.03l-54.078-56.971c-0.566-0.597-1.609-0.597-2.176,0l-54.079,56.971
				c-0.413,0.435-0.527,1.074-0.29,1.625c0.236,0.551,0.778,0.908,1.378,0.908h25.554v50.045c0,0.829,0.672,1.5,1.5,1.5h54.051
				c0.828,0,1.5-0.671,1.5-1.5v-50.045h25.553c0.6,0,1.142-0.357,1.378-0.908C241.359,188.104,241.245,187.465,240.832,187.03z
				 M212.691,186.563c-0.828,0-1.5,0.671-1.5,1.5v50.045h-51.051v-50.045c0-0.829-0.672-1.5-1.5-1.5h-23.562l50.587-53.292
				l50.586,53.292H212.691z"/>
		</g>
	</g>
	<g>
		<g>
			<path class="st6" d="M214.721,30.143h-16c5.75,0,10.43,4.67,10.43,10.42v29.36c0.17,0.78,0.26,1.58,0.26,2.41
				c0,0.82-0.09,1.63-0.26,2.4v78.93l10.91,11.49c3.04-1.82,5.09-5.14,5.09-8.93V40.563
				C225.151,34.813,220.471,30.143,214.721,30.143z"/>
		</g>
	</g>
</g>
</svg>
