<?xml version="1.0" encoding="utf-8"?>
<!-- Generator: Adobe Illustrator 22.0.1, SVG Export Plug-In . SVG Version: 6.00 Build 0)  -->
<svg version="1.1" id="Layer_1" xmlns="http://www.w3.org/2000/svg" xmlns:xlink="http://www.w3.org/1999/xlink" x="0px" y="0px"
	 viewBox="0 0 256 256" style="enable-background:new 0 0 256 256;" xml:space="preserve">
<style type="text/css">
	.st0{fill:#3A312A;}
	.st1{fill:#8AC6DD;}
	.st2{fill:#F16C7A;}
	.st3{fill:#D7E057;}
	.st4{fill:#87796F;}
	.st5{fill:#FCE8CB;}
	.st6{fill:#DECAAD;}
	.st7{fill:#D6DF58;}
	.st8{fill:#FAE6CA;}
	.st9{fill:#DDC9AC;}
	.st10{fill:#D5DE58;}
	.st11{fill:#ED6E7A;}
	.st12{fill:#8AC5DC;}
	.st13{fill:#6CA8BF;}
	.st14{fill:#695B51;}
	.st15{fill:#F8E4C8;}
	.st16{fill:#EF6D7A;}
	.st17{fill-rule:evenodd;clip-rule:evenodd;fill:#F8E4C8;}
	.st18{fill:#89C4DB;}
	.st19{fill:#F59689;}
	.st20{fill:#D34E5C;}
	.st21{fill:#F7E3C7;}
	.st22{fill:#8AC3DA;}
	.st23{fill-rule:evenodd;clip-rule:evenodd;fill:#F7E3C7;}
	.st24{fill-rule:evenodd;clip-rule:evenodd;fill:#87796F;}
	.st25{fill:#B9C239;}
	.st26{fill:#D4DB56;}
	.st27{fill-rule:evenodd;clip-rule:evenodd;fill:#F16C7A;}
	.st28{fill-rule:evenodd;clip-rule:evenodd;fill:#F6E2C6;}
	.st29{fill:#F6E2C6;}
	.st30{fill-rule:evenodd;clip-rule:evenodd;fill:#FAE6CA;}
	.st31{fill:#B8C136;}
</style>
<g>
	<g>
		<g>
			<path class="st3" d="M226.278,26.131c-0.974,11.564-13.025,13.39-13.025,13.39c10.347,0.487,12.925,14.059,12.925,14.059
				C226.4,43.903,239.5,39.377,239.5,39.377C229.686,38.79,226.278,26.131,226.278,26.131z"/>
		</g>
	</g>
	<g>
		<g>
			<path class="st0" d="M239.59,37.88c-8.604-0.515-11.832-12.024-11.863-12.141c-0.19-0.702-0.844-1.16-1.584-1.102
				c-0.725,0.066-1.298,0.642-1.359,1.367c-0.859,10.215-11.313,11.964-11.754,12.033c-0.763,0.115-1.313,0.79-1.273,1.56
				c0.04,0.77,0.657,1.384,1.428,1.421c9.027,0.425,11.498,12.718,11.521,12.842c0.138,0.711,0.76,1.217,1.473,1.217
				c0.042,0,0.084-0.002,0.126-0.005c0.765-0.064,1.357-0.693,1.375-1.459c0.193-8.508,12.191-12.777,12.313-12.819
				c0.676-0.235,1.092-0.914,0.994-1.622S240.304,37.923,239.59,37.88z M226.023,48.226c-1.356-3.13-3.708-6.907-7.586-8.877
				c2.931-1.405,6.408-3.913,8.201-8.272c1.551,3.071,4.2,6.88,8.334,8.722C231.965,41.439,228.05,44.204,226.023,48.226z"/>
		</g>
	</g>
	<g>
		<g>
			<path class="st3" d="M204.579,43.112c-0.689,8.179-9.212,9.47-9.212,9.47c7.318,0.344,9.142,9.944,9.142,9.944
				c0.156-6.844,9.422-10.045,9.422-10.045C206.99,52.066,204.579,43.112,204.579,43.112z"/>
		</g>
	</g>
	<g>
		<g>
			<path class="st0" d="M214.021,50.983c-5.767-0.345-7.973-8.185-7.995-8.265c-0.189-0.702-0.867-1.162-1.581-1.102
				c-0.726,0.065-1.3,0.643-1.361,1.368c-0.578,6.871-7.646,8.067-7.941,8.114c-0.763,0.115-1.313,0.79-1.273,1.561
				c0.04,0.77,0.657,1.384,1.428,1.421c6.035,0.284,7.723,8.644,7.738,8.726c0.136,0.713,0.759,1.22,1.473,1.22
				c0.041,0,0.083-0.001,0.124-0.005c0.766-0.063,1.359-0.694,1.377-1.461c0.13-5.709,8.332-8.634,8.412-8.662
				c0.677-0.234,1.094-0.913,0.997-1.622C215.32,51.568,214.735,51.026,214.021,50.983z M204.437,57.778
				c-0.924-1.886-2.34-3.947-4.447-5.28c1.855-1.041,3.697-2.63,4.87-4.916c1.058,1.874,2.655,3.954,4.941,5.224
				C207.951,53.906,205.813,55.546,204.437,57.778z"/>
		</g>
	</g>
	<g>
		<g>
			<path class="st3" d="M204.579,16.454c-0.689,8.179-9.212,9.471-9.212,9.471c7.318,0.344,9.142,9.944,9.142,9.944
				c0.156-6.845,9.422-10.045,9.422-10.045C206.99,25.408,204.579,16.454,204.579,16.454z"/>
		</g>
	</g>
	<g>
		<g>
			<path class="st0" d="M214.021,24.326c-5.767-0.345-7.973-8.186-7.995-8.265c-0.189-0.702-0.867-1.161-1.581-1.102
				c-0.726,0.065-1.3,0.643-1.361,1.368c-0.578,6.871-7.646,8.067-7.941,8.114c-0.763,0.115-1.313,0.79-1.273,1.56
				c0.04,0.77,0.657,1.384,1.428,1.421c6.035,0.284,7.723,8.644,7.738,8.726c0.136,0.713,0.759,1.22,1.473,1.22
				c0.041,0,0.083-0.001,0.124-0.005c0.766-0.063,1.359-0.694,1.377-1.461c0.13-5.709,8.332-8.634,8.412-8.662
				c0.677-0.234,1.094-0.913,0.997-1.622C215.32,24.911,214.735,24.369,214.021,24.326z M204.437,31.121
				c-0.924-1.886-2.34-3.947-4.447-5.28c1.855-1.041,3.697-2.63,4.87-4.916c1.058,1.873,2.655,3.954,4.941,5.224
				C207.951,27.249,205.813,28.889,204.437,31.121z"/>
		</g>
	</g>
	<g>
		<g>
			<path class="st2" d="M176.696,36.88c-0.109-11.326-9.318-20.453-20.645-20.459L37.168,16.36
				C25.755,16.354,16.5,25.604,16.5,37.017v158.966c0,11.409,9.248,20.657,20.657,20.657h119.186
				c11.408,0,20.657-9.249,20.657-20.657V68.485L176.696,36.88z"/>
		</g>
	</g>
	<g>
		<g>
			<path class="st0" d="M178.196,36.866c-0.116-12.094-10.05-21.938-22.145-21.944L37.169,14.86h-0.012
				c-5.916,0-11.479,2.303-15.663,6.485C17.307,25.531,15,31.096,15,37.017v38.958c0,0.829,0.672,1.5,1.5,1.5s1.5-0.671,1.5-1.5
				V37.017c0-5.119,1.994-9.931,5.614-13.55c3.618-3.616,8.427-5.607,13.543-5.607h0.01l118.883,0.062
				c10.457,0.005,19.047,8.517,19.146,18.973l0.304,31.59v127.498c0,10.563-8.594,19.157-19.157,19.157H37.157
				C26.594,215.14,18,206.546,18,195.983V89.224c0-0.829-0.672-1.5-1.5-1.5s-1.5,0.671-1.5,1.5v106.759
				c0,12.218,9.939,22.157,22.157,22.157h119.186c12.218,0,22.157-9.939,22.157-22.157V68.471L178.196,36.866z"/>
		</g>
	</g>
	<g>
		<g>
			<path class="st21" d="M147.864,39.349h-87.51c-11.526,0-20.854,9.328-20.854,20.854v158.583c0,11.526,9.328,20.854,20.854,20.854
				h118.792c11.526,0,20.854-9.328,20.854-20.854V91.485L147.864,39.349z"/>
		</g>
	</g>
	<g>
		<g>
			<path class="st0" d="M201.061,90.424l-52.136-52.136c-0.281-0.281-0.663-0.44-1.061-0.44H60.354
				C48.027,37.849,38,47.877,38,60.204v158.583c0,12.326,10.027,22.354,22.354,22.354h55.774c0.828,0,1.5-0.671,1.5-1.5
				s-0.672-1.5-1.5-1.5H60.354C49.682,238.14,41,229.458,41,218.786V60.204c0-10.672,8.682-19.355,19.354-19.355h86.89L198.5,92.106
				v126.68c0,10.672-8.683,19.354-19.354,19.354h-50.274c-0.828,0-1.5,0.671-1.5,1.5s0.672,1.5,1.5,1.5h50.274
				c12.326,0,22.354-10.028,22.354-22.354V91.485C201.5,91.087,201.342,90.706,201.061,90.424z"/>
		</g>
	</g>
	<g>
		<g>
			<path class="st21" d="M147.972,39.457v33.797c0,10.14,8.22,18.36,18.36,18.36H200v-0.129L147.972,39.457z"/>
		</g>
	</g>
	<g>
		<g>
			<path class="st0" d="M201.061,90.424l-52.028-52.028c-0.43-0.429-1.074-0.558-1.635-0.325c-0.561,0.232-0.926,0.779-0.926,1.386
				v33.797c0,10.951,8.909,19.86,19.86,19.86H200c0.828,0,1.5-0.671,1.5-1.5v-0.129C201.5,91.087,201.342,90.706,201.061,90.424z
				 M166.332,90.114c-9.297,0-16.86-7.563-16.86-16.86V43.078l47.036,47.036H166.332z"/>
		</g>
	</g>
	<g>
		<g>
			<path class="st20" d="M175.2,36.892c-0.1-10.45-8.69-18.96-19.15-18.97h-15c10.46,0.01,19.05,8.52,19.15,18.97l0.12,12.79
				l15.14,15.15L175.2,36.892z"/>
		</g>
	</g>
	<g>
		<g>
			<polygon class="st1" points="147.947,102.136 124.261,136.468 138.674,136.472 138.666,197.603 157.197,197.609 157.205,136.478 
				171.618,136.482 			"/>
		</g>
	</g>
	<g>
		<g>
			<path class="st0" d="M172.854,135.631l-23.671-34.347c-0.28-0.406-0.742-0.649-1.235-0.649s-0.955,0.242-1.234,0.648
				l-23.686,34.332c-0.316,0.458-0.353,1.055-0.094,1.549c0.259,0.493,0.771,0.803,1.328,0.803l12.912,0.004l-0.008,59.632
				c0,0.828,0.671,1.5,1.5,1.5l18.531,0.005c0.397,0,0.779-0.158,1.061-0.439c0.281-0.281,0.439-0.663,0.439-1.061l0.008-59.63
				l12.913,0.004c0.558,0,1.068-0.309,1.328-0.802C173.205,136.687,173.17,136.09,172.854,135.631z M157.205,134.978
				c-0.397,0-0.779,0.158-1.061,0.439s-0.439,0.663-0.439,1.061l-0.008,59.63l-15.531-0.004l0.008-59.632c0-0.828-0.671-1.5-1.5-1.5
				l-11.556-0.003l20.828-30.19l20.815,30.203L157.205,134.978z"/>
		</g>
	</g>
	<g>
		<g>
			<polygon class="st3" points="101.994,143.092 102.002,81.961 83.471,81.956 83.463,143.087 69.05,143.082 92.72,177.429 
				116.406,143.097 			"/>
		</g>
	</g>
	<g>
		<g>
			<path class="st0" d="M117.734,142.399c-0.259-0.493-0.771-0.803-1.328-0.803l-12.913-0.004l0.009-59.631
				c0-0.828-0.671-1.499-1.5-1.5l-18.531-0.006c-0.397,0-0.779,0.158-1.061,0.439c-0.281,0.281-0.439,0.663-0.439,1.061
				l-0.008,59.631l-12.912-0.004c-0.001,0-0.001,0-0.001,0c-0.558,0-1.068,0.309-1.328,0.802c-0.259,0.494-0.224,1.09,0.093,1.549
				l23.671,34.347c0.28,0.406,0.742,0.649,1.235,0.649s0.955-0.242,1.234-0.648l23.686-34.332
				C117.957,143.49,117.993,142.893,117.734,142.399z M92.722,174.786l-20.815-30.203l11.556,0.004c0.001,0,0.001,0,0.001,0
				c0.397,0,0.779-0.158,1.061-0.439s0.439-0.663,0.439-1.061l0.008-59.631l15.531,0.005l-0.009,59.631c0,0.828,0.671,1.5,1.5,1.5
				l11.557,0.003L92.722,174.786z"/>
		</g>
	</g>
	<g>
		<g>
			
				<ellipse transform="matrix(0.9732 -0.2298 0.2298 0.9732 -39.1041 49.3732)" class="st3" cx="192.471" cy="192.611" rx="47.029" ry="47.029"/>
		</g>
	</g>
	<g>
		<g>
			<path class="st0" d="M192.471,144.082c-26.759,0-48.529,21.77-48.529,48.529s21.771,48.529,48.529,48.529S241,219.37,241,192.611
				S219.229,144.082,192.471,144.082z M192.471,238.14c-25.104,0-45.529-20.424-45.529-45.529s20.425-45.529,45.529-45.529
				S238,167.506,238,192.611S217.575,238.14,192.471,238.14z"/>
		</g>
	</g>
	<g>
		<g>
			<path class="st4" d="M196.955,187.326c-6.807-2.562-9.61-4.243-9.61-6.886c0-2.241,1.682-4.484,6.887-4.484
				c5.765,0,9.448,1.841,11.53,2.723l2.323-9.047c-2.643-1.282-6.246-2.404-11.611-2.643v-7.047h-7.847v7.607
				c-8.568,1.682-13.532,7.206-13.532,14.254c0,7.768,5.845,11.772,14.413,14.654c5.926,2.002,8.488,3.925,8.488,6.966
				c0,3.204-3.124,4.965-7.687,4.965c-5.205,0-9.929-1.682-13.293-3.523l-2.402,9.368c3.043,1.761,8.247,3.202,13.612,3.443v7.607
				h7.847v-8.168c6.634-1.153,11.106-4.633,13.089-9.154c0.77-1.755,1.164-3.666,1.164-5.659
				C210.327,195.094,206.483,190.689,196.955,187.326z"/>
		</g>
	</g>
	<g>
		<g>
			<path class="st0" d="M197.483,185.922c-6.377-2.4-8.638-3.835-8.638-5.482c0-2.596,3.375-2.984,5.387-2.984
				c4.949,0,8.199,1.413,10.35,2.347l0.596,0.257c0.402,0.17,0.859,0.157,1.25-0.037c0.392-0.193,0.68-0.548,0.788-0.971
				l2.322-9.048c0.177-0.691-0.157-1.412-0.799-1.723c-3.086-1.497-6.619-2.385-10.765-2.705v-5.636c0-0.829-0.672-1.5-1.5-1.5
				h-7.848c-0.828,0-1.5,0.671-1.5,1.5v6.402c-8.382,2.065-13.532,7.9-13.532,15.458c0,9.646,8.249,13.658,15.433,16.075
				c6.198,2.094,7.469,3.731,7.469,5.545c0,3.215-4.736,3.465-6.188,3.465c-5.633,0-10.294-2.092-12.571-3.339
				c-0.407-0.221-0.893-0.245-1.317-0.06c-0.426,0.185-0.741,0.555-0.856,1.003l-2.402,9.368c-0.167,0.651,0.12,1.334,0.701,1.671
				c3.158,1.828,7.985,3.149,12.864,3.552v6.199c0,0.829,0.672,1.5,1.5,1.5h7.847c0.828,0,1.5-0.671,1.5-1.5v-6.936
				c6.213-1.388,10.79-4.83,12.964-9.783c0.855-1.953,1.29-4.06,1.29-6.262C211.827,194.369,207.528,189.468,197.483,185.922z
				 M207.789,207.357c-1.897,4.327-6.15,7.267-11.973,8.278c-0.719,0.125-1.243,0.749-1.243,1.478v6.667h-4.847v-6.106
				c0-0.802-0.631-1.462-1.433-1.499c-4.329-0.194-8.859-1.239-11.933-2.719l1.645-6.414c2.82,1.316,7.194,2.843,12.303,2.843
				c5.667,0,9.188-2.478,9.188-6.465c0-4.295-3.801-6.459-9.51-8.388c-9.387-3.157-13.392-7.114-13.392-13.232
				c0-6.489,4.606-11.268,12.321-12.782c0.703-0.138,1.211-0.754,1.211-1.472v-6.106h4.848v5.547c0,0.802,0.632,1.463,1.434,1.499
				c3.839,0.171,7.096,0.825,9.91,1.994l-1.573,6.129c-2.289-0.954-5.724-2.154-10.513-2.154c-7.782,0-8.387,4.58-8.387,5.984
				c0,3.663,3.412,5.592,10.61,8.301c8.902,3.143,12.371,6.944,12.371,13.56C208.827,204.085,208.478,205.787,207.789,207.357z"/>
		</g>
	</g>
	<g>
		<g>
			<path class="st6" d="M182.5,93.115v52.01c3.22-0.68,6.55-1.04,9.97-1.04c2.04,0,4.05,0.14,6.03,0.38v-51.35H182.5z"/>
		</g>
	</g>
</g>
</svg>
