<?xml version="1.0" encoding="utf-8"?>
<!-- Generator: Adobe Illustrator 22.0.1, SVG Export Plug-In . SVG Version: 6.00 Build 0)  -->
<svg version="1.1" id="Layer_1" xmlns="http://www.w3.org/2000/svg" xmlns:xlink="http://www.w3.org/1999/xlink" x="0px" y="0px"
	 viewBox="0 0 256 256" style="enable-background:new 0 0 256 256;" xml:space="preserve">
<style type="text/css">
	.st0{fill:#3A312A;}
	.st1{fill:#8AC6DD;}
	.st2{fill:#F16C7A;}
	.st3{fill:#D7E057;}
	.st4{fill:#87796F;}
	.st5{fill:#FCE8CB;}
	.st6{fill:#DECAAD;}
	.st7{fill:#D6DF58;}
	.st8{fill:#FAE6CA;}
	.st9{fill:#DDC9AC;}
	.st10{fill:#D5DE58;}
	.st11{fill:#ED6E7A;}
	.st12{fill:#8AC5DC;}
	.st13{fill:#6CA8BF;}
	.st14{fill:#695B51;}
	.st15{fill:#F8E4C8;}
	.st16{fill:#EF6D7A;}
	.st17{fill-rule:evenodd;clip-rule:evenodd;fill:#F8E4C8;}
	.st18{fill:#89C4DB;}
	.st19{fill:#F59689;}
	.st20{fill:#D34E5C;}
	.st21{fill:#F7E3C7;}
	.st22{fill:#8AC3DA;}
	.st23{fill-rule:evenodd;clip-rule:evenodd;fill:#F7E3C7;}
	.st24{fill-rule:evenodd;clip-rule:evenodd;fill:#87796F;}
	.st25{fill:#B9C239;}
	.st26{fill:#D4DB56;}
	.st27{fill-rule:evenodd;clip-rule:evenodd;fill:#F16C7A;}
	.st28{fill-rule:evenodd;clip-rule:evenodd;fill:#F6E2C6;}
	.st29{fill:#F6E2C6;}
	.st30{fill-rule:evenodd;clip-rule:evenodd;fill:#FAE6CA;}
	.st31{fill:#B8C136;}
</style>
<g>
	<g>
		<g>
			<path class="st3" d="M88.6,26.403c-0.974,11.564-13.025,13.39-13.025,13.39c10.347,0.487,12.925,14.059,12.925,14.059
				c0.221-9.677,13.321-14.202,13.321-14.202C92.008,39.062,88.6,26.403,88.6,26.403z"/>
		</g>
	</g>
	<g>
		<g>
			<path class="st0" d="M101.912,38.152c-8.605-0.514-11.833-12.024-11.864-12.14c-0.19-0.702-0.852-1.16-1.584-1.102
				c-0.725,0.066-1.298,0.642-1.359,1.367C86.245,36.492,75.792,38.241,75.351,38.31c-0.763,0.115-1.313,0.79-1.273,1.561
				c0.04,0.77,0.657,1.384,1.428,1.421c9.028,0.425,11.499,12.718,11.522,12.842c0.138,0.711,0.76,1.217,1.473,1.217
				c0.042,0,0.084-0.001,0.126-0.005c0.765-0.064,1.357-0.693,1.375-1.459c0.193-8.508,12.191-12.777,12.313-12.819
				c0.676-0.235,1.092-0.914,0.994-1.623C103.209,38.736,102.626,38.195,101.912,38.152z M88.346,48.498
				c-1.356-3.13-3.709-6.907-7.588-8.876c2.932-1.405,6.409-3.913,8.202-8.273c1.551,3.071,4.2,6.88,8.335,8.722
				C94.287,41.711,90.372,44.477,88.346,48.498z"/>
		</g>
	</g>
	<g>
		<g>
			<path class="st3" d="M66.901,43.384c-0.689,8.179-9.212,9.471-9.212,9.471c7.318,0.344,9.142,9.944,9.142,9.944
				c0.156-6.844,9.422-10.045,9.422-10.045C69.312,52.338,66.901,43.384,66.901,43.384z"/>
		</g>
	</g>
	<g>
		<g>
			<path class="st0" d="M76.343,51.255c-5.767-0.345-7.972-8.185-7.993-8.264c-0.19-0.702-0.861-1.162-1.582-1.102
				c-0.726,0.065-1.3,0.642-1.361,1.368c-0.579,6.871-7.646,8.066-7.942,8.113c-0.763,0.115-1.313,0.79-1.273,1.561
				c0.04,0.77,0.657,1.384,1.428,1.421c6.035,0.284,7.724,8.644,7.739,8.726c0.136,0.712,0.759,1.22,1.473,1.22
				c0.041,0,0.083-0.001,0.125-0.005c0.765-0.063,1.358-0.694,1.376-1.461c0.13-5.709,8.331-8.634,8.412-8.662
				c0.676-0.234,1.093-0.913,0.996-1.622C77.642,51.84,77.057,51.298,76.343,51.255z M66.758,58.051
				c-0.924-1.886-2.34-3.947-4.447-5.28c1.855-1.042,3.697-2.63,4.871-4.917c1.057,1.874,2.654,3.955,4.941,5.224
				C70.272,54.179,68.134,55.818,66.758,58.051z"/>
		</g>
	</g>
	<g>
		<g>
			<path class="st3" d="M66.901,16.726c-0.689,8.179-9.212,9.471-9.212,9.471c7.318,0.345,9.142,9.944,9.142,9.944
				c0.156-6.845,9.422-10.045,9.422-10.045C69.312,25.68,66.901,16.726,66.901,16.726z"/>
		</g>
	</g>
	<g>
		<g>
			<path class="st0" d="M76.343,24.598c-5.767-0.345-7.972-8.186-7.993-8.265c-0.19-0.702-0.861-1.161-1.582-1.102
				c-0.726,0.065-1.3,0.642-1.361,1.368c-0.579,6.871-7.646,8.067-7.942,8.114c-0.763,0.115-1.313,0.79-1.273,1.561
				c0.04,0.77,0.657,1.384,1.428,1.421c6.035,0.284,7.724,8.644,7.739,8.726c0.136,0.713,0.759,1.22,1.473,1.22
				c0.041,0,0.083-0.001,0.125-0.005c0.765-0.063,1.358-0.694,1.376-1.461c0.13-5.709,8.331-8.634,8.412-8.662
				c0.676-0.234,1.093-0.913,0.996-1.622C77.642,25.183,77.057,24.641,76.343,24.598z M66.758,31.393
				c-0.924-1.885-2.34-3.947-4.447-5.28c1.855-1.041,3.697-2.63,4.871-4.917c1.057,1.874,2.654,3.955,4.941,5.224
				C70.273,27.521,68.134,29.161,66.758,31.393z"/>
		</g>
	</g>
	<g>
		<g>
			
				<ellipse transform="matrix(0.8507 -0.5257 0.5257 0.8507 -12.4779 106.7728)" class="st3" cx="181.689" cy="75.348" rx="58.622" ry="58.622"/>
		</g>
	</g>
	<g>
		<g>
			<path class="st0" d="M181.688,15.226c-33.151,0-60.122,26.971-60.122,60.123c0,33.151,26.971,60.122,60.122,60.122
				c33.152,0,60.123-26.971,60.123-60.122C241.812,42.197,214.841,15.226,181.688,15.226z M181.688,132.471
				c-31.497,0-57.122-25.625-57.122-57.122c0-31.498,25.625-57.123,57.122-57.123c31.498,0,57.123,25.625,57.123,57.123
				C238.812,106.846,213.187,132.471,181.688,132.471z"/>
		</g>
	</g>
	<g>
		<g>
			<path class="st4" d="M188.659,68.719c-8.538-3.213-12.054-5.323-12.054-8.638c0-2.811,2.109-5.625,8.639-5.625
				c7.231,0,11.852,2.309,14.463,3.415l2.913-11.349c-3.315-1.608-7.835-3.015-14.564-3.315v-8.84h-9.844v9.541
				c-10.747,2.109-16.975,9.04-16.975,17.88c0,9.744,7.332,14.766,18.079,18.381c7.433,2.511,10.647,4.923,10.647,8.738
				c0,4.019-3.918,6.228-9.642,6.228c-6.53,0-12.455-2.109-16.674-4.419l-3.013,11.751c3.817,2.209,10.345,4.017,17.074,4.319v9.542
				h9.844v-10.245c11.551-2.007,17.88-9.641,17.88-18.581C205.432,78.463,200.61,72.938,188.659,68.719z"/>
		</g>
	</g>
	<g>
		<g>
			<path class="st0" d="M189.187,67.315c-8.182-3.08-11.082-4.973-11.082-7.234c0-3.589,4.473-4.125,7.139-4.125
				c6.285,0,10.406,1.79,13.133,2.975l0.746,0.322c0.404,0.17,0.859,0.156,1.25-0.037c0.392-0.193,0.68-0.548,0.788-0.971
				l2.913-11.349c0.177-0.691-0.156-1.412-0.799-1.723c-3.913-1.898-8.413-3.009-13.719-3.382v-7.423c0-0.829-0.672-1.5-1.5-1.5
				h-9.844c-0.828,0-1.5,0.671-1.5,1.5v8.332c-10.506,2.484-16.975,9.71-16.975,19.089c0,11.858,10.208,16.812,19.1,19.803
				c7.99,2.7,9.627,4.877,9.627,7.316c0,4.388-6.232,4.729-8.143,4.729c-7.148,0-13.063-2.653-15.954-4.234
				c-0.406-0.222-0.892-0.244-1.317-0.06c-0.425,0.185-0.74,0.555-0.855,1.003l-3.013,11.75c-0.167,0.651,0.12,1.334,0.702,1.671
				c3.991,2.311,10.142,3.968,16.325,4.433v8.129c0,0.829,0.672,1.5,1.5,1.5h9.844c0.828,0,1.5-0.671,1.5-1.5v-9.009
				c10.906-2.349,17.88-10.018,17.88-19.817C206.933,77.743,201.616,71.703,189.187,67.315z M187.296,104.605
				c-0.719,0.125-1.243,0.749-1.243,1.478v8.746h-6.844v-8.042c0-0.802-0.631-1.462-1.433-1.499
				c-5.608-0.252-11.492-1.636-15.396-3.586l2.254-8.794c3.48,1.674,9.093,3.727,15.688,3.727c6.873,0,11.143-2.961,11.143-7.729
				c0-5.16-4.664-7.792-11.668-10.159c-11.957-4.021-17.059-9.094-17.059-16.96c0-8.336,5.893-14.47,15.764-16.408
				c0.703-0.138,1.211-0.755,1.211-1.472v-8.042h6.844v7.34c0,0.802,0.632,1.463,1.434,1.499c5.001,0.223,9.225,1.094,12.866,2.659
				L198.69,55.8c-2.837-1.206-7.224-2.843-13.447-2.843c-9.407,0-10.139,5.453-10.139,7.125c0,4.37,4.2,6.72,13.055,10.053
				c11.203,3.955,15.773,8.987,15.773,17.369C203.933,96.269,197.558,102.822,187.296,104.605z"/>
		</g>
	</g>
	<g>
		<g>
			<rect x="200.274" y="212.646" class="st2" width="38.415" height="26.628"/>
		</g>
	</g>
	<g>
		<g>
			<path class="st0" d="M238.688,211.146h-38.414c-0.828,0-1.5,0.671-1.5,1.5v26.628c0,0.829,0.672,1.5,1.5,1.5h38.414
				c0.828,0,1.5-0.671,1.5-1.5v-26.628C240.188,211.817,239.517,211.146,238.688,211.146z M237.188,237.774h-35.414v-23.628h35.414
				V237.774z"/>
		</g>
	</g>
	<g>
		<g>
			<rect x="138.746" y="187.364" class="st4" width="38.415" height="51.91"/>
		</g>
	</g>
	<g>
		<g>
			<path class="st0" d="M177.16,185.864h-38.414c-0.828,0-1.5,0.671-1.5,1.5v51.91c0,0.829,0.672,1.5,1.5,1.5h38.414
				c0.828,0,1.5-0.671,1.5-1.5v-51.91C178.66,186.535,177.988,185.864,177.16,185.864z M175.66,237.774h-35.414v-48.91h35.414
				V237.774z"/>
		</g>
	</g>
	<g>
		<g>
			<rect x="77.217" y="162.081" class="st2" width="38.415" height="77.193"/>
		</g>
	</g>
	<g>
		<g>
			<path class="st0" d="M115.632,160.581H77.218c-0.828,0-1.5,0.671-1.5,1.5v77.193c0,0.829,0.672,1.5,1.5,1.5h38.414
				c0.828,0,1.5-0.671,1.5-1.5v-77.193C117.132,161.252,116.46,160.581,115.632,160.581z M114.132,237.774H78.718v-74.193h35.414
				V237.774z"/>
		</g>
	</g>
	<g>
		<g>
			<rect x="15.689" y="136.799" class="st4" width="38.415" height="102.475"/>
		</g>
	</g>
	<g>
		<g>
			<path class="st0" d="M54.104,179.369c0.828,0,1.5-0.671,1.5-1.5v-41.07c0-0.829-0.672-1.5-1.5-1.5H15.688
				c-0.828,0-1.5,0.671-1.5,1.5v102.475c0,0.829,0.672,1.5,1.5,1.5h38.415c0.828,0,1.5-0.671,1.5-1.5v-47.202
				c0-0.829-0.672-1.5-1.5-1.5s-1.5,0.671-1.5,1.5v45.702H17.188v-99.475h35.415v39.57
				C52.604,178.698,53.275,179.369,54.104,179.369z"/>
		</g>
	</g>
	<g>
		<g>
			<path class="st1" d="M238.25,184.8l-11.729-36.11c-0.895-2.753-3.45-4.504-6.196-4.504c-0.667,0-1.345,0.103-2.014,0.321
				c-3.422,1.112-5.294,4.787-4.184,8.208l6.893,21.22l-83.356-42.685l-12.415-6.357L25.389,73.756
				c-0.95-0.487-1.966-0.718-2.965-0.718c-2.368,0-4.651,1.295-5.803,3.547c-1.64,3.202-0.374,7.128,2.829,8.768l195.565,100.143
				l-21.084,6.848c-3.422,1.111-5.294,4.787-4.184,8.209c1.112,3.422,4.786,5.297,8.21,4.184l36.11-11.729
				C237.488,191.897,239.361,188.222,238.25,184.8z"/>
		</g>
	</g>
	<g>
		<g>
			<path class="st0" d="M239.677,184.337l-11.729-36.111c-1.076-3.313-4.14-5.54-7.622-5.541c-0.841,0-1.675,0.132-2.479,0.394
				c-4.201,1.366-6.51,5.896-5.146,10.099l5.771,17.767l-80.123-41.029c-0.736-0.377-1.641-0.086-2.019,0.651
				c-0.378,0.737-0.086,1.641,0.651,2.019l83.355,42.685c0.539,0.277,1.194,0.201,1.656-0.193c0.463-0.394,0.642-1.027,0.454-1.605
				l-6.894-21.22c-0.854-2.63,0.592-5.464,3.221-6.319c0.504-0.164,1.025-0.247,1.551-0.247c2.179,0,4.095,1.394,4.769,3.467
				l11.729,36.11c0.854,2.63-0.592,5.464-3.222,6.318l-36.109,11.73c-1.276,0.414-2.634,0.308-3.826-0.301
				c-1.193-0.608-2.079-1.646-2.493-2.919c-0.854-2.63,0.591-5.465,3.221-6.319l21.085-6.849c0.576-0.188,0.983-0.703,1.031-1.308
				c0.049-0.604-0.271-1.178-0.812-1.454L20.133,84.019c-1.192-0.611-2.075-1.649-2.486-2.924s-0.302-2.633,0.309-3.826
				c0.862-1.685,2.575-2.731,4.469-2.731c0.797,0,1.564,0.186,2.281,0.553l99.861,51.136c0.736,0.378,1.641,0.086,2.019-0.651
				c0.378-0.737,0.086-1.641-0.651-2.019L26.072,72.421c-1.128-0.577-2.39-0.882-3.648-0.882c-3.025,0-5.761,1.672-7.139,4.364
				c-0.976,1.905-1.151,4.076-0.494,6.114s2.068,3.697,3.975,4.673l192.351,98.497l-17.65,5.733
				c-4.201,1.365-6.511,5.895-5.146,10.099c0.662,2.036,2.077,3.693,3.983,4.665c1.145,0.583,2.383,0.878,3.631,0.878
				c0.833,0,1.671-0.132,2.486-0.397l36.108-11.729C238.731,193.07,241.041,188.54,239.677,184.337z"/>
		</g>
	</g>
	<g>
		<g>
			<path class="st25" d="M181.689,18.231c-2.71,0-5.38,0.19-8,0.56c27.72,3.9,49.12,27.77,49.12,56.56
				c0,28.79-21.4,52.66-49.12,56.56c2.62,0.37,5.29,0.56,8,0.56c31.5,0,57.12-25.62,57.12-57.12S213.189,18.231,181.689,18.231z"/>
		</g>
	</g>
	<g>
		<g>
			<rect x="221.189" y="214.151" class="st20" width="16" height="23.62"/>
		</g>
	</g>
</g>
</svg>
