<?xml version="1.0" encoding="utf-8"?>
<!-- Generator: Adobe Illustrator 22.0.1, SVG Export Plug-In . SVG Version: 6.00 Build 0)  -->
<svg version="1.1" id="Layer_1" xmlns="http://www.w3.org/2000/svg" xmlns:xlink="http://www.w3.org/1999/xlink" x="0px" y="0px"
	 viewBox="0 0 256 256" style="enable-background:new 0 0 256 256;" xml:space="preserve">
<style type="text/css">
	.st0{fill:#3A312A;}
	.st1{fill:#8AC6DD;}
	.st2{fill:#F16C7A;}
	.st3{fill:#D7E057;}
	.st4{fill:#87796F;}
	.st5{fill:#FCE8CB;}
	.st6{fill:#DECAAD;}
	.st7{fill:#D6DF58;}
	.st8{fill:#FAE6CA;}
	.st9{fill:#DDC9AC;}
	.st10{fill:#D5DE58;}
	.st11{fill:#ED6E7A;}
	.st12{fill:#8AC5DC;}
	.st13{fill:#6CA8BF;}
	.st14{fill:#695B51;}
	.st15{fill:#F8E4C8;}
	.st16{fill:#EF6D7A;}
	.st17{fill-rule:evenodd;clip-rule:evenodd;fill:#F8E4C8;}
	.st18{fill:#89C4DB;}
	.st19{fill:#F59689;}
	.st20{fill:#D34E5C;}
	.st21{fill:#F7E3C7;}
	.st22{fill:#8AC3DA;}
	.st23{fill-rule:evenodd;clip-rule:evenodd;fill:#F7E3C7;}
	.st24{fill-rule:evenodd;clip-rule:evenodd;fill:#87796F;}
	.st25{fill:#B9C239;}
	.st26{fill:#D4DB56;}
	.st27{fill-rule:evenodd;clip-rule:evenodd;fill:#F16C7A;}
	.st28{fill-rule:evenodd;clip-rule:evenodd;fill:#F6E2C6;}
	.st29{fill:#F6E2C6;}
	.st30{fill-rule:evenodd;clip-rule:evenodd;fill:#FAE6CA;}
	.st31{fill:#B8C136;}
</style>
<g>
	<g>
		<g>
			<path class="st3" d="M47.967,192.523c-0.974,11.564-13.024,13.389-13.024,13.389c10.347,0.487,12.925,14.059,12.925,14.059
				c0.221-9.677,13.321-14.202,13.321-14.202C51.375,205.183,47.967,192.523,47.967,192.523z"/>
		</g>
	</g>
	<g>
		<g>
			<path class="st0" d="M61.279,204.272c-8.605-0.515-11.833-12.024-11.864-12.141c-0.191-0.702-0.849-1.164-1.584-1.102
				c-0.725,0.066-1.298,0.642-1.359,1.367c-0.859,10.215-11.313,11.964-11.754,12.032c-0.763,0.116-1.313,0.791-1.273,1.561
				c0.04,0.771,0.657,1.385,1.428,1.421c9.028,0.425,11.499,12.718,11.522,12.843c0.138,0.711,0.76,1.217,1.473,1.217
				c0.042,0,0.084-0.002,0.126-0.005c0.765-0.064,1.357-0.693,1.375-1.46c0.193-8.509,12.191-12.777,12.313-12.819
				c0.676-0.234,1.092-0.914,0.994-1.622C62.576,204.855,61.993,204.314,61.279,204.272z M47.713,214.618
				c-1.356-3.131-3.709-6.907-7.587-8.877c2.931-1.404,6.408-3.912,8.201-8.272c1.551,3.071,4.2,6.88,8.335,8.723
				C53.654,207.831,49.739,210.597,47.713,214.618z"/>
		</g>
	</g>
	<g>
		<g>
			<path class="st3" d="M26.269,209.504c-0.689,8.179-9.213,9.47-9.213,9.47c7.318,0.344,9.142,9.944,9.142,9.944
				c0.156-6.844,9.422-10.045,9.422-10.045C28.679,218.458,26.269,209.504,26.269,209.504z"/>
		</g>
	</g>
	<g>
		<g>
			<path class="st0" d="M35.71,217.376c-5.767-0.345-7.972-8.186-7.993-8.265c-0.19-0.702-0.858-1.158-1.582-1.102
				c-0.726,0.065-1.3,0.643-1.361,1.368c-0.578,6.87-7.646,8.066-7.942,8.113c-0.763,0.116-1.313,0.791-1.273,1.561
				c0.04,0.771,0.657,1.385,1.428,1.421c6.035,0.284,7.724,8.645,7.739,8.727c0.136,0.713,0.759,1.22,1.473,1.22
				c0.041,0,0.083-0.002,0.125-0.005c0.765-0.063,1.358-0.693,1.376-1.461c0.13-5.709,8.331-8.634,8.412-8.662
				c0.676-0.234,1.093-0.913,0.996-1.622C37.009,217.96,36.424,217.418,35.71,217.376z M26.125,224.171
				c-0.924-1.886-2.34-3.947-4.447-5.279c1.855-1.042,3.697-2.631,4.871-4.917c1.057,1.874,2.654,3.955,4.941,5.224
				C29.641,220.299,27.501,221.938,26.125,224.171z"/>
		</g>
	</g>
	<g>
		<g>
			<path class="st3" d="M26.269,182.846c-0.689,8.179-9.213,9.471-9.213,9.471c7.318,0.344,9.142,9.944,9.142,9.944
				c0.156-6.844,9.422-10.045,9.422-10.045C28.679,191.8,26.269,182.846,26.269,182.846z"/>
		</g>
	</g>
	<g>
		<g>
			<path class="st0" d="M35.71,190.719c-5.767-0.345-7.972-8.186-7.993-8.265c-0.19-0.702-0.858-1.157-1.582-1.102
				c-0.726,0.065-1.3,0.643-1.361,1.368c-0.578,6.87-7.646,8.066-7.942,8.113c-0.763,0.116-1.313,0.791-1.273,1.561
				c0.04,0.771,0.657,1.385,1.428,1.421c6.035,0.284,7.724,8.645,7.739,8.727c0.136,0.713,0.759,1.22,1.473,1.22
				c0.041,0,0.083-0.002,0.125-0.005c0.765-0.063,1.358-0.693,1.376-1.461c0.13-5.709,8.331-8.634,8.412-8.662
				c0.676-0.234,1.093-0.913,0.996-1.622C37.009,191.303,36.424,190.761,35.71,190.719z M26.125,197.514
				c-0.924-1.886-2.34-3.947-4.447-5.279c1.855-1.042,3.697-2.631,4.871-4.917c1.057,1.874,2.654,3.955,4.941,5.224
				C29.641,193.642,27.501,195.281,26.125,197.514z"/>
		</g>
	</g>
	<g>
		<g>
			<path class="st27" d="M198.194,30.034c-22.178-7.642-55.806-0.276-70.194,20.074c-14.388-20.35-48.016-27.716-70.194-20.074
				c-28.218,9.723-43.257,39.479-40.479,68.259c3.088,31.986,26.04,63.859,51.013,88.651l10.301,9.746
				c6.815,6.147,13.599,11.709,20,16.542c7.598,5.738,18.913,15.45,29.156,15.667c0.007,0,0.014,0.003,0.021,0.006v0.003
				c0.012,0.005,0.023,0.011,0.036,0.011h0.012c0.044,0,0.09-0.007,0.135-0.007c0.044,0.001,0.09,0.007,0.135,0.007
				c0,0,0.001,0,0.001,0h0.01c0.013,0,0.024-0.005,0.036-0.011v-0.003c0.007-0.002,0.014-0.005,0.021-0.006
				c10.242-0.217,21.557-9.929,29.156-15.667c33.296-25.141,76.969-69.931,81.314-114.938
				C241.451,69.514,226.413,39.757,198.194,30.034z"/>
		</g>
	</g>
	<g>
		<g>
			<path class="st0" d="M231.362,56.278c-7.551-13.333-18.852-22.898-32.68-27.662c-21.235-7.318-54.892-1.222-70.683,18.979
				c-15.792-20.202-49.449-26.298-70.683-18.979c-13.828,4.764-25.128,14.33-32.68,27.662c-7.093,12.522-10.22,27.495-8.804,42.159
				c1.875,19.424,12.323,50.731,51.449,89.571c0.587,0.583,1.538,0.58,2.121-0.008c0.584-0.588,0.58-1.537-0.008-2.121
				c-38.49-38.209-48.748-68.798-50.576-87.73c-1.357-14.057,1.636-28.401,8.428-40.392c7.186-12.686,17.921-21.782,31.046-26.305
				c20.799-7.165,54.036-0.91,68.481,19.522c0.563,0.796,1.887,0.795,2.449,0c14.447-20.433,47.687-26.687,68.481-19.522
				c13.125,4.523,23.86,13.619,31.046,26.305c6.792,11.991,9.785,26.335,8.428,40.392c-4.063,42.094-44.364,86.43-80.725,113.885
				c-0.863,0.652-1.775,1.356-2.728,2.091c-7.16,5.525-16.966,13.092-25.557,13.273c-0.057,0.002-0.114,0.006-0.171,0.014
				c-0.057-0.008-0.114-0.012-0.171-0.014c-8.591-0.182-18.398-7.75-25.559-13.275c-0.951-0.734-1.862-1.437-2.725-2.089
				c-6.727-5.078-13.422-10.615-19.899-16.459c-0.616-0.555-1.563-0.507-2.119,0.109c-0.555,0.615-0.506,1.563,0.109,2.119
				c6.543,5.9,13.306,11.494,20.101,16.625c0.855,0.646,1.758,1.342,2.7,2.069c7.446,5.746,17.628,13.604,27.157,13.896
				c0.115,0.021,0.161,0.029,0.397,0.021c0.049,0.003,0.099,0.005,0.154,0.005c0.086,0,0.176-0.009,0.267-0.025
				c9.526-0.296,19.703-8.149,27.146-13.893c0.944-0.729,1.848-1.426,2.704-2.072c11.353-8.572,33.178-26.506,51.79-50.293
				c17.992-22.993,28.123-45.097,30.112-65.699C241.582,83.772,238.455,68.8,231.362,56.278z"/>
		</g>
	</g>
	<g>
		<g>
			<path class="st3" d="M180.378,111.674c-9.612,0-18.674,2.328-26.679,6.428l-11.642,7.853
				c-12.427,10.749-20.301,26.621-20.301,44.342c0,32.376,26.246,58.622,58.622,58.622c32.376,0,58.622-26.246,58.622-58.622
				C239,137.92,212.754,111.674,180.378,111.674z"/>
		</g>
	</g>
	<g>
		<g>
			<path class="st0" d="M180.378,110.174c-9.615,0-18.821,2.218-27.362,6.593c-0.737,0.377-1.029,1.281-0.651,2.019
				c0.378,0.738,1.283,1.03,2.019,0.651c8.113-4.156,16.859-6.263,25.995-6.263c31.497,0,57.122,25.625,57.122,57.123
				s-25.625,57.122-57.122,57.122s-57.122-25.625-57.122-57.122c0-16.584,7.21-32.333,19.782-43.208
				c0.626-0.542,0.695-1.489,0.153-2.116c-0.543-0.626-1.488-0.696-2.116-0.153c-13.23,11.445-20.819,28.021-20.819,45.477
				c0,33.151,26.971,60.122,60.122,60.122s60.122-26.971,60.122-60.122S213.529,110.174,180.378,110.174z"/>
		</g>
	</g>
	<g>
		<g>
			<path class="st4" d="M187.347,163.667c-8.538-3.213-12.054-5.323-12.054-8.638c0-2.811,2.109-5.625,8.639-5.625
				c7.231,0,11.852,2.309,14.463,3.415l2.913-11.349c-3.315-1.607-7.835-3.015-14.564-3.315v-8.84h-9.844v9.541
				c-10.747,2.109-16.975,9.04-16.975,17.88c0,9.744,7.332,14.767,18.079,18.381c7.433,2.511,10.647,4.923,10.647,8.738
				c0,4.019-3.918,6.228-9.642,6.228c-6.53,0-12.455-2.109-16.674-4.419l-3.013,11.751c3.817,2.209,10.345,4.017,17.074,4.319v9.542
				h9.844v-10.245c11.551-2.007,17.88-9.641,17.88-18.581C204.121,173.411,199.299,167.886,187.347,163.667z"/>
		</g>
	</g>
	<g>
		<g>
			<path class="st0" d="M187.876,162.263c-8.182-3.078-11.082-4.972-11.082-7.233c0-3.589,4.473-4.125,7.139-4.125
				c6.284,0,10.405,1.79,13.132,2.975l0.746,0.321c0.403,0.172,0.86,0.157,1.25-0.036c0.392-0.194,0.68-0.549,0.788-0.972
				l2.913-11.349c0.177-0.691-0.156-1.411-0.799-1.723c-3.913-1.898-8.413-3.009-13.718-3.382v-7.424c0-0.829-0.672-1.5-1.5-1.5
				h-9.844c-0.828,0-1.5,0.671-1.5,1.5v8.332c-10.506,2.484-16.975,9.71-16.975,19.089c0,11.857,10.208,16.812,19.099,19.803
				c7.99,2.7,9.628,4.878,9.628,7.316c0,4.388-6.232,4.729-8.143,4.729c-7.149,0-13.064-2.652-15.954-4.233
				c-0.405-0.223-0.891-0.244-1.317-0.061c-0.425,0.185-0.74,0.555-0.855,1.003l-3.014,11.75c-0.167,0.651,0.12,1.334,0.701,1.671
				c3.992,2.312,10.143,3.97,16.327,4.434v8.13c0,0.828,0.672,1.5,1.5,1.5h9.843c0.828,0,1.5-0.672,1.5-1.5v-9.01
				c10.906-2.349,17.88-10.018,17.88-19.817C205.621,172.69,200.306,166.65,187.876,162.263z M185.984,199.554
				c-0.719,0.125-1.243,0.748-1.243,1.478v8.746h-6.843v-8.042c0-0.803-0.631-1.463-1.433-1.498
				c-5.609-0.252-11.493-1.636-15.397-3.586l2.255-8.794c3.479,1.674,9.092,3.727,15.688,3.727c6.873,0,11.143-2.961,11.143-7.729
				c0-5.159-4.664-7.792-11.669-10.159c-11.956-4.021-17.058-9.094-17.058-16.96c0-8.336,5.893-14.47,15.764-16.407
				c0.703-0.138,1.211-0.755,1.211-1.472v-8.042h6.844v7.34c0,0.803,0.632,1.463,1.434,1.498c5,0.224,9.225,1.095,12.865,2.66
				l-2.165,8.435c-2.837-1.206-7.223-2.844-13.446-2.844c-9.407,0-10.139,5.453-10.139,7.125c0,4.371,4.2,6.721,13.055,10.052
				c11.203,3.955,15.772,8.987,15.772,17.369C202.621,191.217,196.246,197.771,185.984,199.554z"/>
		</g>
	</g>
	<g>
		<g>
			<path class="st20" d="M139.24,214.09c-4.96,3.79-11.28,8.9-17.8,12.02c2.17,0.77,4.32,1.25,6.39,1.29c0.06,0,0.11,0,0.17,0.01
				c0.01,0,0.01,0,0.02,0c0.05-0.01,0.1-0.01,0.15-0.01c5.86-0.13,12.27-3.68,18.03-7.68C143.74,218.02,141.42,216.13,139.24,214.09
				z"/>
		</g>
	</g>
	<g>
		<g>
			<path class="st20" d="M228.75,57.76c-7.18-12.69-17.92-21.78-31.04-26.31c-6.25-2.15-13.63-3.09-21.28-2.79
				c1.64,0.38,3.23,0.84,4.76,1.37c28.22,9.73,43.26,39.48,40.48,68.26c-0.76,7.91-2.74,15.82-5.67,23.61
				c4.02,2.96,7.66,6.42,10.83,10.27c5.54-11.26,9.26-22.72,10.35-34.02C238.54,84.09,235.54,69.75,228.75,57.76z"/>
		</g>
	</g>
	<g>
		<g>
			<path class="st25" d="M180.38,113.17c-3.24,0-6.41,0.27-9.5,0.79c26.99,4.54,47.62,28.08,47.62,56.34s-20.63,51.79-47.62,56.33
				c3.09,0.52,6.26,0.79,9.5,0.79c31.5,0,57.12-25.63,57.12-57.12C237.5,138.8,211.88,113.17,180.38,113.17z"/>
		</g>
	</g>
</g>
</svg>
