<?xml version="1.0" encoding="utf-8"?>
<!-- Generator: Adobe Illustrator 22.0.1, SVG Export Plug-In . SVG Version: 6.00 Build 0)  -->
<svg version="1.1" id="Layer_1" xmlns="http://www.w3.org/2000/svg" xmlns:xlink="http://www.w3.org/1999/xlink" x="0px" y="0px"
	 viewBox="0 0 256 256" style="enable-background:new 0 0 256 256;" xml:space="preserve">
<style type="text/css">
	.st0{fill:#3A312A;}
	.st1{fill:#8AC6DD;}
	.st2{fill:#F16C7A;}
	.st3{fill:#D7E057;}
	.st4{fill:#87796F;}
	.st5{fill:#FCE8CB;}
	.st6{fill:#DECAAD;}
	.st7{fill:#D6DF58;}
	.st8{fill:#FAE6CA;}
	.st9{fill:#DDC9AC;}
	.st10{fill:#D5DE58;}
	.st11{fill:#ED6E7A;}
	.st12{fill:#8AC5DC;}
	.st13{fill:#6CA8BF;}
	.st14{fill:#695B51;}
	.st15{fill:#F8E4C8;}
	.st16{fill:#EF6D7A;}
	.st17{fill-rule:evenodd;clip-rule:evenodd;fill:#F8E4C8;}
	.st18{fill:#89C4DB;}
	.st19{fill:#F59689;}
	.st20{fill:#D34E5C;}
	.st21{fill:#F7E3C7;}
	.st22{fill:#8AC3DA;}
	.st23{fill-rule:evenodd;clip-rule:evenodd;fill:#F7E3C7;}
	.st24{fill-rule:evenodd;clip-rule:evenodd;fill:#87796F;}
	.st25{fill:#B9C239;}
	.st26{fill:#D4DB56;}
	.st27{fill-rule:evenodd;clip-rule:evenodd;fill:#F16C7A;}
	.st28{fill-rule:evenodd;clip-rule:evenodd;fill:#F6E2C6;}
	.st29{fill:#F6E2C6;}
	.st30{fill-rule:evenodd;clip-rule:evenodd;fill:#FAE6CA;}
	.st31{fill:#B8C136;}
</style>
<g>
	<g>
		<g>
			<path class="st7" d="M65.438,43.748c-0.974,11.564-13.024,13.389-13.024,13.389c10.347,0.487,12.925,14.059,12.925,14.059
				c0.221-9.677,13.321-14.202,13.321-14.202C68.846,56.407,65.438,43.748,65.438,43.748z"/>
		</g>
	</g>
	<g>
		<g>
			<path class="st0" d="M78.749,55.497c-8.605-0.515-11.832-12.024-11.863-12.141c-0.19-0.702-0.852-1.161-1.584-1.102
				c-0.725,0.066-1.298,0.642-1.359,1.367C63.083,53.837,52.63,55.586,52.188,55.655c-0.763,0.115-1.313,0.79-1.273,1.561
				c0.04,0.77,0.657,1.384,1.428,1.421c9.027,0.425,11.498,12.718,11.521,12.842c0.138,0.711,0.76,1.217,1.473,1.217
				c0.042,0,0.084-0.001,0.126-0.005c0.764-0.064,1.357-0.693,1.375-1.459c0.194-8.508,12.191-12.777,12.313-12.819
				c0.676-0.235,1.092-0.914,0.994-1.622C80.046,56.081,79.463,55.54,78.749,55.497z M65.183,65.843
				c-1.356-3.131-3.708-6.908-7.586-8.877c2.931-1.405,6.408-3.913,8.201-8.273c1.551,3.071,4.2,6.88,8.334,8.722
				C71.125,59.056,67.21,61.822,65.183,65.843z"/>
		</g>
	</g>
	<g>
		<g>
			<path class="st7" d="M43.739,60.729c-0.689,8.179-9.212,9.471-9.212,9.471c7.318,0.344,9.142,9.944,9.142,9.944
				c0.156-6.844,9.422-10.045,9.422-10.045C46.15,69.683,43.739,60.729,43.739,60.729z"/>
		</g>
	</g>
	<g>
		<g>
			<path class="st0" d="M53.181,68.601c-5.767-0.345-7.972-8.186-7.993-8.265c-0.19-0.702-0.861-1.163-1.582-1.102
				c-0.726,0.065-1.3,0.642-1.361,1.368c-0.579,6.871-7.646,8.067-7.942,8.114c-0.763,0.115-1.313,0.79-1.273,1.561
				c0.04,0.77,0.657,1.384,1.428,1.421c6.035,0.284,7.724,8.644,7.739,8.725c0.136,0.713,0.759,1.22,1.473,1.22
				c0.041,0,0.083-0.002,0.125-0.005c0.765-0.064,1.358-0.694,1.376-1.461c0.13-5.709,8.331-8.634,8.412-8.662
				c0.676-0.234,1.093-0.913,0.996-1.622C54.479,69.185,53.894,68.644,53.181,68.601z M43.596,75.396
				c-0.924-1.885-2.34-3.947-4.447-5.28c1.856-1.041,3.697-2.63,4.871-4.917c1.057,1.874,2.654,3.955,4.941,5.224
				C47.111,71.524,44.972,73.163,43.596,75.396z"/>
		</g>
	</g>
	<g>
		<g>
			<path class="st7" d="M43.701,34.071c-0.657,8.182-9.175,9.507-9.175,9.507c7.32,0.316,9.181,9.909,9.181,9.909
				c0.129-6.845,9.383-10.082,9.383-10.082C46.147,43.016,43.701,34.071,43.701,34.071z"/>
		</g>
	</g>
	<g>
		<g>
			<path class="st0" d="M53.173,41.907c-5.767-0.323-8.004-8.154-8.025-8.233c-0.193-0.702-0.876-1.169-1.586-1.096
				c-0.726,0.068-1.297,0.647-1.355,1.374c-0.552,6.873-7.615,8.097-7.911,8.144c-0.762,0.119-1.31,0.796-1.268,1.566
				c0.043,0.77,0.663,1.382,1.434,1.415c6.036,0.261,7.758,8.614,7.773,8.696c0.138,0.71,0.76,1.214,1.472,1.214
				c0.043,0,0.087-0.002,0.131-0.005c0.765-0.066,1.356-0.699,1.37-1.466c0.107-5.71,8.297-8.667,8.377-8.695
				c0.676-0.236,1.09-0.917,0.99-1.626C54.474,42.486,53.887,41.947,53.173,41.907z M43.615,48.739
				c-0.932-1.882-2.355-3.938-4.468-5.262c1.852-1.049,3.687-2.645,4.852-4.936c1.064,1.87,2.67,3.944,4.961,5.205
				C47.115,44.854,44.982,46.502,43.615,48.739z"/>
		</g>
	</g>
	<g>
		<g>
			<path class="st15" d="M209.349,182.085h-19.915v-12.943c-5.508,3.819-11.208,6.072-16.739,6.072
				c-5.305,0-10.904-2.275-16.389-6.14h-0.338v13.01h-19.926c-16.648,0-30.142,13.494-30.142,30.142v27.315h133.591v-27.315
				C239.491,195.579,225.997,182.085,209.349,182.085z"/>
		</g>
	</g>
	<g>
		<g>
			<path class="st0" d="M209.349,180.585h-18.415v-11.443c0-0.558-0.31-1.07-0.805-1.329c-0.494-0.258-1.091-0.222-1.55,0.096
				c-5.556,3.852-10.899,5.805-15.884,5.805c-4.776,0-10-1.974-15.524-5.866c-0.253-0.178-0.555-0.274-0.864-0.274h-0.338
				c-0.828,0-1.5,0.671-1.5,1.5v11.511h-18.427c-17.448,0-31.643,14.194-31.643,31.642v27.315c0,0.829,0.672,1.5,1.5,1.5h33.567
				c0.828,0,1.5-0.671,1.5-1.5c0-0.829-0.672-1.5-1.5-1.5h-32.067v-25.815c0-15.794,12.849-28.642,28.643-28.642h19.927
				c0.828,0,1.5-0.671,1.5-1.5v-10.43c5.313,3.359,10.427,5.059,15.227,5.059c4.879,0,9.995-1.615,15.238-4.806v10.177
				c0,0.829,0.672,1.5,1.5,1.5h19.915c15.794,0,28.643,12.849,28.643,28.642v25.815H153.2c-0.828,0-1.5,0.671-1.5,1.5
				c0,0.829,0.672,1.5,1.5,1.5h86.291c0.828,0,1.5-0.671,1.5-1.5v-27.315C240.991,194.779,226.797,180.585,209.349,180.585z"/>
		</g>
	</g>
	<g>
		<g>
			<path class="st1" d="M209.348,182.072h-4.763l0.121,0.097l-20.713,27.465l-10.69-8.048l-10.69,8.048l-20.714-27.465l0.121-0.097
				h-5.975c-16.654,0-30.144,13.502-30.144,30.143v27.332h133.591v-27.332C239.491,195.574,226.001,182.072,209.348,182.072z"/>
		</g>
	</g>
	<g>
		<g>
			<path class="st0" d="M209.348,180.572h-4.763c-0.636,0-1.203,0.401-1.415,1.001c-0.025,0.071-0.044,0.144-0.059,0.217
				l-19.414,25.744l-9.493-7.147c-0.535-0.402-1.27-0.402-1.805,0l-9.493,7.147l-19.414-25.742
				c-0.014-0.073-0.033-0.145-0.058-0.216c-0.211-0.602-0.778-1.004-1.416-1.004h-5.975c-17.449,0-31.645,14.195-31.645,31.643
				v27.332c0,0.829,0.672,1.5,1.5,1.5h33.567c0.828,0,1.5-0.671,1.5-1.5c0-0.829-0.672-1.5-1.5-1.5h-32.067v-25.832
				c0-15.794,12.85-28.643,28.645-28.643h5.033l20.337,26.965c0.499,0.661,1.438,0.792,2.1,0.295l9.788-7.369l9.788,7.369
				c0.662,0.498,1.601,0.366,2.1-0.295l20.336-26.965h3.822c15.794,0,28.644,12.85,28.644,28.643v25.832H153.2
				c-0.828,0-1.5,0.671-1.5,1.5c0,0.829,0.672,1.5,1.5,1.5h86.291c0.828,0,1.5-0.671,1.5-1.5v-27.332
				C240.991,194.768,226.796,180.572,209.348,180.572z"/>
		</g>
	</g>
	<g>
		<g>
			<path class="st4" d="M141.9,182.17l0.12-0.1h-5.98c-16.65,0-30.14,13.5-30.14,30.15v27.33h56.4L141.9,182.17z"/>
		</g>
	</g>
	<g>
		<g>
			<path class="st0" d="M163.713,239.047l-20.2-56.821c0.022-0.221-0.003-0.449-0.082-0.667c-0.215-0.594-0.778-0.989-1.41-0.989
				h-5.98c-17.446,0-31.64,14.198-31.64,31.65v27.33c0,0.829,0.672,1.5,1.5,1.5h33.566c0.828,0,1.5-0.671,1.5-1.5
				s-0.672-1.5-1.5-1.5H107.4v-25.83c0-15.798,12.848-28.65,28.64-28.65h4.766l19.369,54.48H153.2c-0.828,0-1.5,0.671-1.5,1.5
				s0.672,1.5,1.5,1.5h9.1c0.487,0,0.944-0.237,1.226-0.635C163.807,240.017,163.876,239.507,163.713,239.047z"/>
		</g>
	</g>
	<g>
		<g>
			<path class="st4" d="M209.35,182.07h-4.77l0.13,0.1l-20.4,57.38h55.18v-27.33C239.49,195.57,226,182.07,209.35,182.07z"/>
		</g>
	</g>
	<g>
		<g>
			<path class="st0" d="M209.35,180.57h-4.77c-0.642,0-1.213,0.409-1.42,1.016c-0.074,0.218-0.096,0.443-0.069,0.661l-20.193,56.8
				c-0.163,0.459-0.094,0.969,0.188,1.367c0.281,0.398,0.738,0.635,1.226,0.635h55.18c0.828,0,1.5-0.671,1.5-1.5v-27.33
				C240.99,194.768,226.796,180.57,209.35,180.57z M237.99,238.05h-51.555l19.369-54.48h3.545c15.793,0,28.641,12.853,28.641,28.65
				V238.05z"/>
		</g>
	</g>
	<g>
		<g>
			<path class="st17" d="M120.937,95.503c-6.55,0-11.861,5.31-11.861,11.86c0,6.55,5.31,11.86,11.861,11.86
				c6.55,0,11.86-5.31,11.86-11.86C132.797,100.813,127.487,95.503,120.937,95.503z"/>
		</g>
	</g>
	<g>
		<g>
			<path class="st0" d="M120.938,94.003c-7.367,0-13.361,5.994-13.361,13.36s5.994,13.36,13.361,13.36s13.36-5.994,13.36-13.36
				S128.305,94.003,120.938,94.003z M120.938,117.724c-5.713,0-10.361-4.647-10.361-10.36c0-5.713,4.648-10.36,10.361-10.36
				s10.36,4.647,10.36,10.36C131.298,113.076,126.65,117.724,120.938,117.724z"/>
		</g>
	</g>
	<g>
		<g>
			
				<ellipse transform="matrix(0.9571 -0.2898 0.2898 0.9571 -21.4812 69.6509)" class="st17" cx="224.458" cy="107.363" rx="11.86" ry="11.86"/>
		</g>
	</g>
	<g>
		<g>
			<path class="st0" d="M224.458,94.003c-7.367,0-13.361,5.994-13.361,13.36s5.994,13.36,13.361,13.36s13.36-5.994,13.36-13.36
				S231.825,94.003,224.458,94.003z M224.458,117.724c-5.713,0-10.361-4.647-10.361-10.36c0-5.713,4.648-10.36,10.361-10.36
				s10.36,4.647,10.36,10.36C234.818,113.076,230.171,117.724,224.458,117.724z"/>
		</g>
	</g>
	<g>
		<g>
			<path class="st4" d="M227.721,73.7c0-13.98-5.77-26.67-15.16-36.03c0.57,1.63,0.87,3.28,0.87,4.91c0,5.52-3.8,10.56-10.06,14.38
				c1.3,2.16,2.92,4.14,4.82,5.88c9.52,8.7,15.81,20.86,16.91,34.48c0.14-0.19,0.45-0.29,0.69-0.38
				C228.041,96.12,227.721,75.5,227.721,73.7z"/>
		</g>
	</g>
	<g>
		<g>
			<path class="st0" d="M229.226,74.336l-0.004-0.636c0-13.891-5.541-27.064-15.602-37.093c-0.493-0.492-1.264-0.581-1.857-0.207
				c-0.592,0.372-0.848,1.105-0.617,1.765c0.521,1.49,0.786,2.976,0.786,4.415c0,4.772-3.317,9.424-9.342,13.1
				c-0.704,0.429-0.93,1.347-0.504,2.054c1.378,2.291,3.092,4.381,5.094,6.214c9.553,8.731,15.387,20.626,16.427,33.493
				c0.051,0.624,0.483,1.151,1.085,1.322c0.136,0.039,0.273,0.057,0.41,0.057c0.379,0,0.747-0.144,1.026-0.406
				c0.037-0.015,0.076-0.027,0.112-0.041c0.002,0,0.046-0.017,0.066-0.024C227.608,97.874,229.39,97.211,229.226,74.336z
				 M225.77,91.181c-2.203-11.289-7.959-21.582-16.565-29.447c-1.424-1.303-2.684-2.752-3.76-4.321
				c6.133-4.124,9.487-9.349,9.487-14.832v-0.079c7.314,8.879,11.29,19.784,11.29,31.199l0.004,0.658
				C226.287,82.921,226.058,88.078,225.77,91.181z"/>
		</g>
	</g>
	<g>
		<g>
			<path class="st0" d="M130.923,216.456c-0.828,0-1.5,0.671-1.5,1.5v21.589c0,0.829,0.672,1.5,1.5,1.5c0.828,0,1.5-0.671,1.5-1.5
				v-21.589C132.423,217.127,131.751,216.456,130.923,216.456z"/>
		</g>
	</g>
	<g>
		<g>
			<path class="st0" d="M215.685,216.456c-0.828,0-1.5,0.671-1.5,1.5v21.589c0,0.829,0.672,1.5,1.5,1.5s1.5-0.671,1.5-1.5v-21.589
				C217.185,217.127,216.513,216.456,215.685,216.456z"/>
		</g>
	</g>
	<g>
		<g>
			<polygon class="st2" points="178.417,219.355 168.151,219.355 165.036,239.547 181.531,239.547 			"/>
		</g>
	</g>
	<g>
		<g>
			<path class="st0" d="M183.014,239.319l-3.115-20.193c-0.113-0.731-0.742-1.271-1.482-1.271H168.15
				c-0.74,0-1.369,0.54-1.482,1.271l-3.115,20.193c-0.066,0.433,0.059,0.873,0.344,1.205c0.285,0.332,0.701,0.523,1.139,0.523
				h16.496c0.438,0,0.854-0.191,1.139-0.523C182.955,240.191,183.08,239.752,183.014,239.319z M166.784,238.047l2.652-17.193h7.693
				l2.652,17.193H166.784z"/>
		</g>
	</g>
	<g>
		<g>
			<polygon class="st2" points="164.689,201.57 168.159,219.35 178.404,219.35 181.957,201.57 			"/>
		</g>
	</g>
	<g>
		<g>
			<path class="st0" d="M183.117,200.619c-0.285-0.347-0.711-0.549-1.16-0.549h-17.269c-0.448,0-0.873,0.2-1.158,0.546
				c-0.284,0.346-0.399,0.801-0.314,1.241l3.47,17.78c0.138,0.705,0.755,1.213,1.473,1.213h10.246c0.715,0,1.331-0.505,1.471-1.206
				l3.553-17.78C183.516,201.423,183.402,200.966,183.117,200.619z M177.175,217.85h-7.781l-2.884-14.78h13.618L177.175,217.85z"/>
		</g>
	</g>
	<g>
		<g>
			
				<rect x="150.906" y="174.652" transform="matrix(0.7986 -0.6019 0.6019 0.7986 -83.7237 133.5059)" class="st1" width="13.441" height="34.407"/>
		</g>
	</g>
	<g>
		<g>
			<path class="st0" d="M174.546,200.646l-20.708-27.478c-0.24-0.318-0.596-0.527-0.989-0.582c-0.4-0.055-0.795,0.048-1.111,0.288
				l-10.734,8.09c-0.318,0.239-0.527,0.595-0.583,0.989c-0.056,0.394,0.048,0.793,0.287,1.111l20.708,27.477
				c0.295,0.391,0.744,0.597,1.199,0.597c0.314,0,0.632-0.098,0.901-0.302l10.734-8.089c0.318-0.239,0.527-0.595,0.583-0.989
				C174.889,201.364,174.785,200.964,174.546,200.646z M162.908,207.538l-18.902-25.082l8.339-6.284l18.902,25.082L162.908,207.538z
				"/>
		</g>
	</g>
	<g>
		<g>
			
				<rect x="171.778" y="185.135" transform="matrix(0.6019 -0.7986 0.7986 0.6019 -77.9748 227.3073)" class="st1" width="34.407" height="13.441"/>
		</g>
	</g>
	<g>
		<g>
			<path class="st0" d="M205.605,180.964l-10.733-8.09c-0.317-0.24-0.714-0.343-1.112-0.288c-0.394,0.055-0.749,0.265-0.989,0.582
				l-20.708,27.478c-0.498,0.662-0.366,1.602,0.296,2.101l10.733,8.089c0.261,0.197,0.578,0.302,0.902,0.302
				c0.069,0,0.139-0.005,0.209-0.015c0.394-0.055,0.749-0.265,0.989-0.583l20.708-27.477
				C206.398,182.403,206.267,181.462,205.605,180.964z M183.699,207.538l-8.338-6.284l18.902-25.082l8.338,6.284L183.699,207.538z"
				/>
		</g>
	</g>
	<g>
		<g>
			<path class="st15" d="M208.191,62.83c-1.9-1.73-3.52-3.71-4.82-5.86c-7.32,4.48-18.02,7.31-29.94,7.31
				c-2.83,0-5.59-0.16-8.26-0.47c-19.16-2.18-37.53,9.25-43.6,27.56c-0.59,1.76-1,3.45-1.19,5.02c-0.03,0.22-0.05,0.44-0.07,0.66
				c-0.12,1.5-0.19,3.02-0.19,4.56c0,29.03,29.08,73.61,52.58,73.61c24.61,0,52.57-44.58,52.57-73.61
				C225.271,86.25,218.691,72.44,208.191,62.83z"/>
		</g>
	</g>
	<g>
		<g>
			<path class="st0" d="M209.201,61.721c-1.778-1.619-3.308-3.478-4.547-5.526c-0.206-0.342-0.54-0.587-0.929-0.682
				c-0.388-0.094-0.798-0.03-1.138,0.178c-7.36,4.505-17.987,7.089-29.156,7.089c-2.739,0-5.46-0.155-8.091-0.46
				c-19.955-2.275-38.952,9.75-45.191,28.574c-0.638,1.902-1.06,3.691-1.254,5.292c-0.033,0.244-0.057,0.488-0.079,0.745
				c-0.132,1.64-0.195,3.171-0.195,4.68c0,14.102,6.799,32.704,17.743,48.544c11.494,16.635,25.077,26.566,36.337,26.566
				c11.851,0,25.247-9.686,36.754-26.574c10.681-15.676,17.316-34.274,17.316-48.536C226.771,86.479,220.368,71.941,209.201,61.721z
				 M206.976,148.456c-10.778,15.819-23.592,25.264-34.274,25.264c-10.274,0-22.936-9.447-33.868-25.271
				c-10.617-15.366-17.212-33.313-17.212-46.839c0-1.428,0.06-2.88,0.185-4.427c0.017-0.196,0.035-0.392,0.065-0.613
				c0.172-1.424,0.55-3.014,1.124-4.728c5.327-16.07,20.673-26.797,37.51-26.797c1.487,0,2.988,0.084,4.493,0.255
				c2.742,0.318,5.579,0.479,8.434,0.479c11.087,0,21.719-2.462,29.455-6.789c1.229,1.808,2.669,3.468,4.292,4.945
				c10.545,9.651,16.593,23.382,16.593,37.673C223.771,115.301,217.336,133.252,206.976,148.456z"/>
		</g>
	</g>
	<g>
		<g>
			<path class="st0" d="M154.134,95.88c-2.834,0-5.132,2.298-5.132,5.132c0,2.834,2.298,5.132,5.132,5.132
				c2.834,0,5.132-2.298,5.132-5.132C159.266,98.178,156.969,95.88,154.134,95.88z"/>
		</g>
	</g>
	<g>
		<g>
			<path class="st0" d="M191.26,95.88c-2.834,0-5.132,2.298-5.132,5.132c0,2.834,2.298,5.132,5.132,5.132
				c2.834,0,5.132-2.298,5.132-5.132C196.392,98.178,194.095,95.88,191.26,95.88z"/>
		</g>
	</g>
	<g>
		<g>
			<path class="st19" d="M143.877,109.661c-4.882,0-8.84,2.959-8.84,6.609c0,3.65,3.958,6.609,8.84,6.609
				c4.882,0,8.841-2.959,8.841-6.609C152.718,112.62,148.76,109.661,143.877,109.661z"/>
		</g>
	</g>
	<g>
		<g>
			<path class="st19" d="M201.517,109.661c-4.882,0-8.84,2.959-8.84,6.609c0,3.65,3.958,6.609,8.84,6.609
				c4.882,0,8.84-2.959,8.84-6.609C210.357,112.62,206.399,109.661,201.517,109.661z"/>
		</g>
	</g>
	<g>
		<g>
			<path class="st0" d="M187.75,133.807c-0.779-0.29-1.641,0.103-1.931,0.879c-1.046,2.791-5.133,8.069-13.124,8.069
				c-6.241,0-10.551-2.678-13.174-8.188c-0.355-0.748-1.251-1.065-1.999-0.709c-0.748,0.356-1.066,1.251-0.71,1.999
				c3.128,6.568,8.472,9.898,15.883,9.898c8.37,0,14.127-5.192,15.933-10.017C188.919,134.961,188.525,134.097,187.75,133.807z"/>
		</g>
	</g>
	<g>
		<g>
			<path class="st0" d="M149.746,80.391c-11.229,0-20.366,9.136-20.366,20.366c0,11.229,9.137,20.365,20.366,20.365
				s20.365-9.136,20.365-20.365C170.111,89.527,160.976,80.391,149.746,80.391z M149.746,118.122
				c-9.576,0-17.366-7.79-17.366-17.365c0-9.576,7.79-17.366,17.366-17.366c9.575,0,17.365,7.79,17.365,17.366
				C167.111,110.331,159.321,118.122,149.746,118.122z"/>
		</g>
	</g>
	<g>
		<g>
			<path class="st0" d="M196.857,80.391c-11.229,0-20.365,9.136-20.365,20.366c0,11.229,9.136,20.365,20.365,20.365
				s20.366-9.136,20.366-20.365C217.224,89.527,208.087,80.391,196.857,80.391z M196.857,118.122
				c-9.575,0-17.365-7.79-17.365-17.365c0-9.576,7.79-17.366,17.365-17.366c9.576,0,17.366,7.79,17.366,17.366
				C214.224,110.331,206.434,118.122,196.857,118.122z"/>
		</g>
	</g>
	<g>
		<g>
			<path class="st0" d="M177.992,99.218h-9.381c-0.828,0-1.5,0.671-1.5,1.5c0,0.829,0.672,1.5,1.5,1.5h9.381
				c0.828,0,1.5-0.671,1.5-1.5C179.492,99.89,178.82,99.218,177.992,99.218z"/>
		</g>
	</g>
	<g>
		<g>
			<path class="st0" d="M131.532,95.028l-10.89-1.099c-0.809-0.075-1.56,0.517-1.643,1.342c-0.083,0.824,0.518,1.56,1.342,1.643
				l10.89,1.099c0.051,0.005,0.102,0.007,0.152,0.007c0.761,0,1.412-0.577,1.49-1.35C132.957,95.846,132.356,95.111,131.532,95.028z
				"/>
		</g>
	</g>
	<g>
		<g>
			<path class="st0" d="M226.406,95.19c-0.098-0.823-0.839-1.41-1.667-1.312l-9.683,1.152c-0.822,0.098-1.409,0.844-1.312,1.667
				c0.091,0.763,0.738,1.323,1.487,1.323c0.06,0,0.119-0.003,0.18-0.011l9.683-1.152C225.917,96.759,226.504,96.013,226.406,95.19z"
				/>
		</g>
	</g>
	<g>
		<g>
			<path class="st4" d="M177.673,16.554c-17.783-1.111-33.516,7.112-41.209,14.544c-11.612,9.539-17.583,26.813-17.583,42.599
				c0,2.885,0.509,19.296,1.43,23.356c0.15-1.753,0.596-3.669,1.264-5.685c6.065-18.305,24.44-29.74,43.6-27.556
				c2.664,0.304,5.426,0.463,8.257,0.463c22.09,0,39.998-9.713,39.998-21.693C213.428,30.601,197.065,17.766,177.673,16.554z"/>
		</g>
	</g>
	<g>
		<g>
			<path class="st0" d="M177.767,15.057c-17.387-1.086-33.768,6.704-42.303,14.921c-11.155,9.196-18.084,25.941-18.084,43.719
				c0,2.908,0.493,19.393,1.468,23.688c0.156,0.687,0.767,1.168,1.462,1.168c0.034,0,0.069-0.001,0.105-0.003
				c0.738-0.051,1.328-0.632,1.391-1.369c0.133-1.555,0.534-3.352,1.193-5.34c5.795-17.49,23.46-28.654,42.006-26.538
				c2.753,0.314,5.589,0.473,8.427,0.473c23.27,0,41.497-10.188,41.497-23.193C214.928,29.392,197.215,16.273,177.767,15.057z
				 M173.431,62.776c-2.726,0-5.446-0.153-8.087-0.454c-19.157-2.187-37.437,8.809-44.387,26.354
				c-0.366-5.869-0.577-12.867-0.577-14.979c0-16.671,6.687-32.938,17.035-41.44c0.031-0.026,0.062-0.052,0.09-0.081
				c7.54-7.284,21.629-14.223,36.956-14.223c1.034,0,2.075,0.032,3.118,0.097c19.659,1.228,34.349,13.965,34.349,24.531
				C211.928,53.717,194.658,62.776,173.431,62.776z"/>
		</g>
	</g>
	<g>
		<g>
			<path class="st4" d="M94.258,157.356l7.986-21.829h-0.017c0.308-0.997,0.475-2.056,0.475-3.154
				c0-5.882-4.768-10.651-10.651-10.651c-5.882,0-10.651,4.769-10.651,10.651c0-5.882-4.769-10.651-10.651-10.651
				c-5.882,0-10.651,4.769-10.651,10.651c0-5.882-4.769-10.651-10.651-10.651c-5.882,0-10.651,4.769-10.651,10.651
				c0,1.098,0.167,2.157,0.475,3.154h-0.017l7.986,21.829c-18.184,8.759-30.733,27.362-30.733,48.896
				c0,29.957,24.285,33.296,54.241,33.296c29.957,0,54.241-3.339,54.241-33.296C124.991,184.717,112.442,166.114,94.258,157.356z"/>
		</g>
	</g>
	<g>
		<g>
			<path class="st0" d="M96.128,156.61l7.524-20.567c0.035-0.096,0.061-0.194,0.074-0.293c0.315-1.093,0.476-2.228,0.476-3.376
				c0-6.7-5.45-12.151-12.15-12.151c-4.583,0-8.581,2.551-10.65,6.307c-2.069-3.756-6.068-6.307-10.651-6.307
				s-8.581,2.551-10.65,6.307c-2.069-3.756-6.068-6.307-10.651-6.307c-6.7,0-12.151,5.451-12.151,12.151
				c0,1.145,0.159,2.277,0.475,3.37c0.015,0.101,0.04,0.202,0.076,0.3l7.524,20.567c-18.489,9.478-30.363,28.813-30.363,49.642
				c0,32.109,27.537,34.796,55.741,34.796s55.741-2.687,55.741-34.796C126.491,185.423,114.617,166.088,96.128,156.61z
				 M70.75,238.047c-33.403,0-52.741-5.203-52.741-31.796c0-20.138,11.73-38.8,29.885-47.545c0.694-0.335,1.022-1.142,0.757-1.867
				l-7.91-21.621c-0.009-0.045-0.021-0.091-0.035-0.136c-0.271-0.875-0.408-1.787-0.408-2.71c0-5.046,4.105-9.151,9.151-9.151
				s9.151,4.105,9.151,9.151c0,0.829,0.672,1.5,1.5,1.5c0.828,0,1.5-0.671,1.5-1.5c0-5.046,4.105-9.151,9.15-9.151
				s9.151,4.105,9.151,9.151c0,0.829,0.672,1.5,1.5,1.5c0.828,0,1.5-0.671,1.5-1.5c0-5.046,4.104-9.151,9.15-9.151
				s9.15,4.105,9.15,9.151c0,0.925-0.137,1.837-0.407,2.71c-0.014,0.045-0.025,0.09-0.035,0.135l-7.91,21.621
				c-0.266,0.725,0.063,1.532,0.757,1.867c18.154,8.744,29.885,27.406,29.885,47.545C123.491,232.845,104.153,238.047,70.75,238.047
				z"/>
		</g>
	</g>
	<g>
		<g>
			
				<ellipse transform="matrix(0.8944 -0.4472 0.4472 0.8944 -80.8681 52.4941)" class="st3" cx="70.75" cy="197.528" rx="25.296" ry="25.296"/>
		</g>
	</g>
	<g>
		<g>
			<path class="st0" d="M70.75,170.732c-14.775,0-26.796,12.021-26.796,26.796c0,14.775,12.02,26.795,26.796,26.795
				c14.775,0,26.796-12.021,26.796-26.795C97.546,182.753,85.525,170.732,70.75,170.732z M70.75,221.324
				c-13.121,0-23.796-10.675-23.796-23.795c0-13.121,10.675-23.796,23.796-23.796s23.796,10.675,23.796,23.796
				C94.546,210.649,83.871,221.324,70.75,221.324z"/>
		</g>
	</g>
	<g>
		<g>
			<path class="st4" d="M73.757,194.667c-3.684-1.386-5.201-2.297-5.201-3.727c0-1.213,0.91-2.427,3.728-2.427
				c3.12,0,5.114,0.997,6.241,1.474l1.257-4.897c-1.43-0.694-3.381-1.301-6.285-1.431v-3.814H69.25v4.117
				c-4.637,0.91-7.325,3.901-7.325,7.715c0,4.205,3.164,6.372,7.801,7.932c3.207,1.083,4.594,2.124,4.594,3.77
				c0,1.734-1.691,2.688-4.161,2.688c-2.818,0-5.374-0.91-7.195-1.907l-1.3,5.071c1.647,0.953,4.464,1.733,7.368,1.864v4.117h4.248
				v-4.421c4.984-0.866,7.715-4.16,7.715-8.018C80.995,198.872,78.915,196.488,73.757,194.667z"/>
		</g>
	</g>
	<g>
		<g>
			<path class="st0" d="M74.286,193.264c-2.807-1.057-4.23-1.838-4.23-2.323c0-0.837,1.559-0.927,2.229-0.927
				c2.536,0,4.216,0.731,5.327,1.213l0.328,0.142c0.402,0.17,0.858,0.156,1.25-0.037c0.392-0.194,0.679-0.548,0.788-0.972
				l1.258-4.897c0.177-0.691-0.156-1.411-0.799-1.723c-1.588-0.77-3.378-1.256-5.439-1.474v-2.422c0-0.829-0.672-1.5-1.5-1.5H69.25
				c-0.828,0-1.5,0.671-1.5,1.5v2.936c-4.551,1.306-7.325,4.629-7.325,8.896c0,5.66,4.716,7.972,8.821,9.353
				c3.575,1.208,3.575,2.008,3.575,2.349c0,1.155-2.389,1.188-2.661,1.188c-2.895,0-5.3-1.079-6.476-1.723
				c-0.407-0.223-0.892-0.244-1.317-0.06c-0.425,0.185-0.74,0.555-0.856,1.003l-1.3,5.07c-0.167,0.651,0.12,1.334,0.702,1.671
				c1.653,0.958,4.099,1.669,6.619,1.951v2.731c0,0.829,0.672,1.5,1.5,1.5h4.247c0.828,0,1.5-0.671,1.5-1.5v-3.216
				c4.729-1.264,7.715-4.778,7.715-9.223C82.495,198.2,79.954,195.264,74.286,193.264z M73.023,209.313
				c-0.719,0.125-1.243,0.748-1.243,1.478v2.921h-1.247v-2.617c0-0.802-0.631-1.462-1.433-1.498
				c-2.027-0.091-4.129-0.535-5.68-1.175l0.545-2.126c1.57,0.645,3.729,1.272,6.194,1.272c3.439,0,5.661-1.644,5.661-4.188
				c0-2.895-2.698-4.206-5.616-5.192c-4.816-1.62-6.78-3.506-6.78-6.51c0-3.158,2.285-5.492,6.114-6.243
				c0.703-0.138,1.211-0.755,1.211-1.472v-2.617h1.247v2.314c0,0.802,0.632,1.463,1.434,1.499c1.747,0.078,3.256,0.346,4.576,0.814
				l-0.506,1.969c-1.255-0.464-2.969-0.927-5.217-0.927c-3.856,0-5.229,2.029-5.229,3.927c0,2.601,2.676,3.814,6.203,5.142
				c5.176,1.827,6.236,3.996,6.236,6.691C79.495,206.113,77.016,208.619,73.023,209.313z"/>
		</g>
	</g>
	<g>
		<g>
			<path class="st2" d="M98.043,149.68h-53.92c-2.757,0-4.993,2.235-4.993,4.993c0,2.757,2.235,4.993,4.993,4.993h53.92
				c2.757,0,4.992-2.235,4.992-4.993C103.035,151.916,100.8,149.68,98.043,149.68z"/>
		</g>
	</g>
	<g>
		<g>
			<path class="st0" d="M98.043,148.181H71.851c-0.828,0-1.5,0.671-1.5,1.5c0,0.829,0.672,1.5,1.5,1.5h26.192
				c1.926,0,3.492,1.567,3.492,3.493c0,1.926-1.566,3.492-3.492,3.492h-53.92c-1.926,0-3.493-1.566-3.493-3.492
				c0-1.926,1.567-3.493,3.493-3.493h14.01c0.828,0,1.5-0.671,1.5-1.5c0-0.829-0.672-1.5-1.5-1.5h-14.01
				c-3.58,0-6.493,2.913-6.493,6.493c0,3.58,2.913,6.492,6.493,6.492h53.92c3.58,0,6.492-2.913,6.492-6.492
				C104.535,151.093,101.623,148.181,98.043,148.181z"/>
		</g>
	</g>
	<g>
		<g>
			<path class="st14" d="M209.35,183.57h-3.55l-0.87,2.45c10.04,4.46,17.06,14.52,17.06,26.2v25.83h16v-25.83
				C237.99,196.42,225.14,183.57,209.35,183.57z"/>
		</g>
	</g>
</g>
</svg>
