<?xml version="1.0" encoding="utf-8"?>
<!-- Generator: Adobe Illustrator 22.0.1, SVG Export Plug-In . SVG Version: 6.00 Build 0)  -->
<svg version="1.1" id="Layer_1" xmlns="http://www.w3.org/2000/svg" xmlns:xlink="http://www.w3.org/1999/xlink" x="0px" y="0px"
	 viewBox="0 0 256 256" style="enable-background:new 0 0 256 256;" xml:space="preserve">
<style type="text/css">
	.st0{fill:#3A312A;}
	.st1{fill:#8AC6DD;}
	.st2{fill:#F16C7A;}
	.st3{fill:#D7E057;}
	.st4{fill:#87796F;}
	.st5{fill:#FCE8CB;}
	.st6{fill:#DECAAD;}
	.st7{fill:#D6DF58;}
	.st8{fill:#FAE6CA;}
	.st9{fill:#DDC9AC;}
	.st10{fill:#D5DE58;}
	.st11{fill:#ED6E7A;}
	.st12{fill:#8AC5DC;}
	.st13{fill:#6CA8BF;}
	.st14{fill:#695B51;}
	.st15{fill:#F8E4C8;}
	.st16{fill:#EF6D7A;}
	.st17{fill-rule:evenodd;clip-rule:evenodd;fill:#F8E4C8;}
	.st18{fill:#89C4DB;}
	.st19{fill:#F59689;}
	.st20{fill:#D34E5C;}
	.st21{fill:#F7E3C7;}
	.st22{fill:#8AC3DA;}
	.st23{fill-rule:evenodd;clip-rule:evenodd;fill:#F7E3C7;}
	.st24{fill-rule:evenodd;clip-rule:evenodd;fill:#87796F;}
	.st25{fill:#B9C239;}
	.st26{fill:#D4DB56;}
	.st27{fill-rule:evenodd;clip-rule:evenodd;fill:#F16C7A;}
	.st28{fill-rule:evenodd;clip-rule:evenodd;fill:#F6E2C6;}
	.st29{fill:#F6E2C6;}
	.st30{fill-rule:evenodd;clip-rule:evenodd;fill:#FAE6CA;}
	.st31{fill:#B8C136;}
</style>
<g>
	<g>
		<g>
			<path class="st0" d="M124.243,147.039l-90-28c-0.792-0.247-1.632,0.195-1.878,0.986c-0.246,0.791,0.195,1.632,0.986,1.878l90,28
				c0.148,0.046,0.299,0.068,0.446,0.068c0.639,0,1.232-0.412,1.432-1.055C125.475,148.126,125.034,147.285,124.243,147.039z"/>
		</g>
	</g>
	<g>
		<g>
			<path class="st3" d="M68.021,110.41c-5.558-1.759-11.24-1.838-16.367-0.934l-0.882,0.166c-9.121,1.832-16.308,6.74-17.561,10.699
				c-1.988,6.282,6.861,23.119,22.758,28.15c15.897,5.031,32.822-3.649,34.81-9.931C92.767,132.278,83.918,115.441,68.021,110.41z"
				/>
		</g>
	</g>
	<g>
		<g>
			<path class="st0" d="M87.334,123.154c-2.769-3.94-8.9-11.022-18.861-14.174c-5.302-1.678-11.208-2.018-17.081-0.981
				c-0.16,0.028-0.309,0.081-0.445,0.153c-0.152-0.017-0.312-0.013-0.472,0.02c-9.124,1.832-17.161,6.87-18.695,11.717
				c-1.183,3.736,0.731,9.961,4.874,15.859c2.769,3.94,8.9,11.022,18.861,14.174c3.643,1.153,7.168,1.581,10.397,1.581
				c5.601,0,10.31-1.289,13.184-2.323c6.783-2.44,11.929-6.431,13.111-10.167C93.391,135.277,91.478,129.052,87.334,123.154z
				 M89.348,138.107c-0.722,2.28-4.555,5.834-11.267,8.249c-4.175,1.503-12.542,3.591-21.661,0.705
				c-9.12-2.886-14.76-9.408-17.311-13.038c-4.101-5.836-5.191-10.949-4.469-13.229c1.037-3.277,7.612-7.911,16.426-9.681
				c0.147-0.03,0.285-0.08,0.411-0.147c0.143,0.018,0.289,0.014,0.437-0.013c5.398-0.952,10.811-0.646,15.654,0.887
				c9.12,2.886,14.76,9.408,17.311,13.039C88.979,130.714,90.07,135.827,89.348,138.107z"/>
		</g>
	</g>
	<g>
		<g>
			<path class="st0" d="M234.366,120.025c-0.246-0.791-1.086-1.234-1.878-0.986l-90,28c-0.791,0.246-1.232,1.087-0.986,1.878
				c0.2,0.643,0.792,1.055,1.432,1.055c0.148,0,0.298-0.022,0.446-0.068l90-28C234.171,121.657,234.612,120.816,234.366,120.025z"/>
		</g>
	</g>
	<g>
		<g>
			<path class="st3" d="M233.52,120.341c-1.253-3.959-8.44-8.867-17.561-10.699l-0.882-0.166
				c-5.127-0.905-10.809-0.825-16.367,0.934c-15.897,5.031-24.746,21.868-22.758,28.15c1.988,6.282,18.913,14.962,34.81,9.931
				C226.659,143.46,235.508,126.623,233.52,120.341z"/>
		</g>
	</g>
	<g>
		<g>
			<path class="st0" d="M234.951,119.888c-1.534-4.847-9.572-9.884-18.696-11.717c-0.16-0.032-0.319-0.037-0.472-0.02
				c-0.136-0.072-0.286-0.125-0.445-0.153c-5.873-1.037-11.778-0.698-17.08,0.981c-16.092,5.093-26.176,22.321-23.736,30.033
				c1.918,6.06,13.541,12.477,26.242,12.477c3.461,0,7.004-0.477,10.451-1.568C227.307,144.828,237.391,127.6,234.951,119.888z
				 M210.31,147.061c-15.513,4.911-31.311-3.847-32.927-8.954c-1.616-5.107,6.266-21.357,21.781-26.268
				c3.002-0.95,6.222-1.429,9.523-1.429c2.024,0,4.079,0.18,6.13,0.542c0.148,0.026,0.295,0.03,0.437,0.013
				c0.126,0.067,0.264,0.117,0.411,0.147c8.814,1.77,15.389,6.403,16.426,9.681C233.706,125.9,225.824,142.151,210.31,147.061z"/>
		</g>
	</g>
	<g>
		<g>
			<path class="st4" d="M133.297,133.971c-3.23,0-6.41-0.26-9.5-0.77v22.38h19v-22.38
				C139.707,133.711,136.527,133.971,133.297,133.971z"/>
		</g>
	</g>
	<g>
		<g>
			<path class="st0" d="M143.768,132.057c-0.336-0.285-0.78-0.406-1.215-0.336c-6.033,0.995-12.478,0.995-18.512,0
				c-0.437-0.071-0.878,0.051-1.215,0.336c-0.335,0.285-0.529,0.703-0.529,1.144v22.38c0,0.829,0.671,1.5,1.5,1.5h19
				c0.829,0,1.5-0.671,1.5-1.5v-22.38C144.297,132.76,144.103,132.342,143.768,132.057z M141.297,154.081h-16v-19.14
				c5.254,0.704,10.746,0.704,16,0V154.081z"/>
		</g>
	</g>
	<g>
		<g>
			<path class="st2" d="M189.218,155.585H77.376c-4.766,0-8.63,3.864-8.63,8.63c0,4.766,3.864,8.63,8.63,8.63h111.842
				c4.766,0,8.63-3.864,8.63-8.63C197.848,159.449,193.984,155.585,189.218,155.585z"/>
		</g>
	</g>
	<g>
		<g>
			<path class="st0" d="M189.218,154.085h-75.061c-0.829,0-1.5,0.671-1.5,1.5c0,0.829,0.671,1.5,1.5,1.5h75.061
				c3.932,0,7.13,3.199,7.13,7.13c0,3.932-3.199,7.13-7.13,7.13H77.376c-3.932,0-7.13-3.199-7.13-7.13c0-3.932,3.199-7.13,7.13-7.13
				h23.06c0.829,0,1.5-0.671,1.5-1.5c0-0.829-0.671-1.5-1.5-1.5h-23.06c-5.586,0-10.13,4.544-10.13,10.13
				c0,5.586,4.544,10.13,10.13,10.13h111.842c5.586,0,10.13-4.544,10.13-10.13C199.348,158.629,194.804,154.085,189.218,154.085z"/>
		</g>
	</g>
	<g>
		<g>
			<polygon class="st2" points="80.238,172.846 87.513,202.326 90.928,216.164 96.631,239.274 169.956,239.274 186.356,172.846 			
				"/>
		</g>
	</g>
	<g>
		<g>
			<path class="st0" d="M187.537,171.921c-0.285-0.363-0.72-0.575-1.181-0.575H80.238c-0.461,0-0.897,0.212-1.181,0.575
				c-0.285,0.363-0.386,0.836-0.276,1.284l7.275,29.48c0.199,0.804,1.01,1.297,1.816,1.097c0.804-0.199,1.295-1.012,1.097-1.816
				l-6.816-27.621H184.44l-15.659,63.428H97.806l-5.421-21.969c-0.199-0.804-1.01-1.296-1.816-1.097
				c-0.804,0.199-1.295,1.012-1.097,1.816l5.703,23.11c0.166,0.67,0.767,1.141,1.457,1.141h73.325c0.69,0,1.291-0.471,1.456-1.141
				l16.4-66.428C187.922,172.757,187.821,172.284,187.537,171.921z"/>
		</g>
	</g>
	<g>
		<g>
			<path class="st3" d="M53.114,26.403C52.14,37.967,40.09,39.793,40.09,39.793c10.347,0.487,12.925,14.059,12.925,14.059
				c0.221-9.677,13.321-14.202,13.321-14.202C56.522,39.062,53.114,26.403,53.114,26.403z"/>
		</g>
	</g>
	<g>
		<g>
			<path class="st0" d="M66.425,38.152c-8.604-0.514-11.832-12.024-11.863-12.14c-0.191-0.702-0.852-1.159-1.583-1.102
				c-0.725,0.066-1.298,0.642-1.359,1.367c-0.86,10.215-11.313,11.963-11.754,12.032c-0.763,0.115-1.313,0.79-1.273,1.561
				c0.04,0.77,0.657,1.384,1.427,1.421c9.028,0.425,11.499,12.718,11.522,12.842c0.137,0.711,0.759,1.217,1.472,1.217
				c0.042,0,0.084-0.001,0.126-0.005c0.764-0.064,1.357-0.693,1.375-1.46c0.195-8.508,12.192-12.777,12.313-12.819
				c0.675-0.235,1.092-0.915,0.994-1.623C67.723,38.736,67.139,38.195,66.425,38.152z M52.859,48.498
				c-1.357-3.13-3.708-6.907-7.587-8.876c2.931-1.405,6.409-3.913,8.202-8.273c1.551,3.071,4.2,6.88,8.334,8.722
				C58.801,41.711,54.886,44.477,52.859,48.498z"/>
		</g>
	</g>
	<g>
		<g>
			<path class="st3" d="M31.416,43.384c-0.689,8.179-9.212,9.471-9.212,9.471c7.318,0.344,9.142,9.944,9.142,9.944
				c0.156-6.844,9.422-10.045,9.422-10.045C33.826,52.338,31.416,43.384,31.416,43.384z"/>
		</g>
	</g>
	<g>
		<g>
			<path class="st0" d="M40.856,51.255c-5.766-0.345-7.972-8.185-7.993-8.264c-0.19-0.702-0.854-1.167-1.582-1.102
				c-0.725,0.065-1.299,0.642-1.36,1.368c-0.579,6.871-7.646,8.066-7.942,8.113c-0.763,0.115-1.313,0.79-1.273,1.56
				c0.04,0.77,0.657,1.384,1.427,1.421c6.035,0.284,7.724,8.644,7.739,8.726c0.135,0.712,0.759,1.22,1.473,1.22
				c0.041,0,0.083-0.001,0.124-0.005c0.765-0.064,1.358-0.694,1.376-1.461c0.13-5.709,8.332-8.634,8.412-8.662
				c0.677-0.234,1.094-0.913,0.996-1.622C42.156,51.84,41.571,51.298,40.856,51.255z M31.273,58.051
				c-0.924-1.886-2.34-3.947-4.447-5.28c1.856-1.041,3.697-2.63,4.871-4.916c1.057,1.874,2.654,3.954,4.941,5.223
				C34.787,54.179,32.648,55.818,31.273,58.051z"/>
		</g>
	</g>
	<g>
		<g>
			<path class="st3" d="M31.416,16.726c-0.689,8.179-9.212,9.471-9.212,9.471c7.318,0.344,9.142,9.944,9.142,9.944
				c0.156-6.845,9.422-10.045,9.422-10.045C33.826,25.68,31.416,16.726,31.416,16.726z"/>
		</g>
	</g>
	<g>
		<g>
			<path class="st0" d="M40.857,24.598c-5.766-0.345-7.972-8.186-7.994-8.265c-0.19-0.702-0.854-1.168-1.582-1.102
				c-0.725,0.065-1.299,0.642-1.36,1.368c-0.579,6.871-7.646,8.067-7.942,8.114c-0.763,0.115-1.313,0.79-1.273,1.561
				c0.04,0.77,0.657,1.384,1.428,1.421c6.035,0.284,7.723,8.644,7.739,8.726c0.135,0.713,0.759,1.22,1.472,1.22
				c0.042,0,0.083-0.001,0.125-0.005c0.765-0.063,1.358-0.694,1.376-1.461c0.13-5.709,8.331-8.634,8.412-8.662
				c0.676-0.234,1.094-0.913,0.996-1.622C42.156,25.183,41.571,24.641,40.857,24.598z M31.273,31.393
				c-0.924-1.885-2.34-3.947-4.447-5.28c1.856-1.041,3.697-2.63,4.871-4.916c1.057,1.874,2.654,3.954,4.941,5.224
				C34.787,27.521,32.648,29.161,31.273,31.393z"/>
		</g>
	</g>
	<g>
		<g>
			
				<ellipse transform="matrix(0.982 -0.1891 0.1891 0.982 -11.8438 26.567)" class="st3" cx="133.297" cy="75.348" rx="58.622" ry="58.622"/>
		</g>
	</g>
	<g>
		<g>
			<path class="st0" d="M133.297,15.226c-33.151,0-60.122,26.971-60.122,60.123c0,33.151,26.971,60.122,60.122,60.122
				c33.151,0,60.122-26.971,60.122-60.122C193.419,42.197,166.448,15.226,133.297,15.226z M133.297,132.471
				c-31.497,0-57.122-25.625-57.122-57.122c0-31.498,25.625-57.123,57.122-57.123c31.497,0,57.122,25.625,57.122,57.123
				C190.419,106.846,164.794,132.471,133.297,132.471z"/>
		</g>
	</g>
	<g>
		<g>
			<path class="st4" d="M140.267,68.719c-8.538-3.213-12.054-5.323-12.054-8.638c0-2.811,2.109-5.624,8.639-5.624
				c7.231,0,11.852,2.309,14.463,3.415l2.913-11.349c-3.315-1.608-7.835-3.016-14.564-3.315v-8.84h-9.844v9.541
				c-10.747,2.109-16.975,9.04-16.975,17.88c0,9.744,7.332,14.766,18.079,18.381c7.433,2.511,10.647,4.923,10.647,8.738
				c0,4.019-3.918,6.228-9.642,6.228c-6.529,0-12.455-2.109-16.674-4.419l-3.013,11.751c3.817,2.209,10.345,4.017,17.074,4.319
				v9.542h9.844v-10.245c11.551-2.007,17.88-9.641,17.88-18.581C157.04,78.463,152.218,72.938,140.267,68.719z"/>
		</g>
	</g>
	<g>
		<g>
			<path class="st0" d="M140.795,67.315c-8.183-3.08-11.083-4.973-11.083-7.234c0-3.589,4.473-4.125,7.139-4.125
				c6.285,0,10.405,1.79,13.132,2.975l0.747,0.322c0.403,0.17,0.858,0.157,1.251-0.037c0.391-0.193,0.679-0.548,0.788-0.971
				l2.913-11.349c0.177-0.691-0.157-1.412-0.798-1.723c-3.914-1.898-8.414-3.009-13.719-3.382v-7.423c0-0.829-0.671-1.5-1.5-1.5
				h-9.843c-0.829,0-1.5,0.671-1.5,1.5v8.332c-10.505,2.484-16.975,9.71-16.975,19.089c0,11.857,10.208,16.812,19.099,19.803
				c7.99,2.7,9.628,4.877,9.628,7.316c0,4.388-6.233,4.729-8.143,4.729c-7.15,0-13.064-2.653-15.954-4.234
				c-0.406-0.222-0.893-0.245-1.317-0.06c-0.425,0.185-0.741,0.555-0.856,1.003l-3.013,11.75c-0.167,0.651,0.12,1.334,0.702,1.671
				c3.991,2.31,10.142,3.968,16.326,4.434v8.129c0,0.829,0.671,1.5,1.5,1.5h9.843c0.829,0,1.5-0.671,1.5-1.5v-9.009
				c10.906-2.349,17.88-10.018,17.88-19.817C158.541,77.743,153.225,71.703,140.795,67.315z M138.904,104.606
				c-0.719,0.125-1.243,0.748-1.243,1.478v8.746h-6.843v-8.042c0-0.802-0.631-1.462-1.433-1.498
				c-5.609-0.252-11.493-1.636-15.397-3.586l2.255-8.793c3.479,1.674,9.092,3.727,15.688,3.727c6.873,0,11.143-2.961,11.143-7.729
				c0-5.16-4.664-7.792-11.67-10.159c-11.956-4.022-17.057-9.094-17.057-16.96c0-8.336,5.893-14.47,15.764-16.407
				c0.704-0.138,1.211-0.755,1.211-1.472v-8.042h6.843v7.34c0,0.802,0.631,1.463,1.433,1.499c5.001,0.223,9.226,1.094,12.867,2.659
				l-2.165,8.435c-2.837-1.206-7.223-2.843-13.447-2.843c-9.408,0-10.139,5.453-10.139,7.125c0,4.371,4.2,6.721,13.055,10.053
				c11.204,3.955,15.773,8.987,15.773,17.369C155.541,96.269,149.166,102.822,138.904,104.606z"/>
		</g>
	</g>
	<g>
		<g>
			<path class="st20" d="M189.217,157.081h-16c3.93,0,7.13,3.2,7.13,7.13c0,3.94-3.2,7.14-7.13,7.14h16c3.93,0,7.13-3.2,7.13-7.14
				C196.347,160.281,193.147,157.081,189.217,157.081z"/>
		</g>
	</g>
	<g>
		<g>
			<polygon class="st20" points="168.437,174.351 152.777,237.771 168.777,237.771 184.437,174.351 			"/>
		</g>
	</g>
</g>
</svg>
