<?xml version="1.0" encoding="utf-8"?>
<!-- Generator: Adobe Illustrator 22.0.1, SVG Export Plug-In . SVG Version: 6.00 Build 0)  -->
<svg version="1.1" id="Layer_1" xmlns="http://www.w3.org/2000/svg" xmlns:xlink="http://www.w3.org/1999/xlink" x="0px" y="0px"
	 viewBox="0 0 256 256" style="enable-background:new 0 0 256 256;" xml:space="preserve">
<style type="text/css">
	.st0{fill:#3A312A;}
	.st1{fill:#8AC6DD;}
	.st2{fill:#F16C7A;}
	.st3{fill:#D7E057;}
	.st4{fill:#87796F;}
	.st5{fill:#FCE8CB;}
	.st6{fill:#DECAAD;}
	.st7{fill:#D6DF58;}
	.st8{fill:#FAE6CA;}
	.st9{fill:#DDC9AC;}
	.st10{fill:#D5DE58;}
	.st11{fill:#ED6E7A;}
	.st12{fill:#8AC5DC;}
	.st13{fill:#6CA8BF;}
	.st14{fill:#695B51;}
	.st15{fill:#F8E4C8;}
	.st16{fill:#EF6D7A;}
	.st17{fill-rule:evenodd;clip-rule:evenodd;fill:#F8E4C8;}
	.st18{fill:#89C4DB;}
	.st19{fill:#F59689;}
	.st20{fill:#D34E5C;}
	.st21{fill:#F7E3C7;}
	.st22{fill:#8AC3DA;}
	.st23{fill-rule:evenodd;clip-rule:evenodd;fill:#F7E3C7;}
	.st24{fill-rule:evenodd;clip-rule:evenodd;fill:#87796F;}
	.st25{fill:#B9C239;}
	.st26{fill:#D4DB56;}
	.st27{fill-rule:evenodd;clip-rule:evenodd;fill:#F16C7A;}
	.st28{fill-rule:evenodd;clip-rule:evenodd;fill:#F6E2C6;}
	.st29{fill:#F6E2C6;}
	.st30{fill-rule:evenodd;clip-rule:evenodd;fill:#FAE6CA;}
	.st31{fill:#B8C136;}
</style>
<g>
	<g>
		<g>
			<path class="st3" d="M47.661,26.275c-0.974,11.564-13.024,13.39-13.024,13.39c10.347,0.487,12.925,14.059,12.925,14.059
				c0.221-9.677,13.321-14.203,13.321-14.203C51.069,38.934,47.661,26.275,47.661,26.275z"/>
		</g>
	</g>
	<g>
		<g>
			<path class="st0" d="M60.973,38.024c-8.605-0.516-11.832-12.025-11.864-12.142c-0.19-0.702-0.846-1.164-1.583-1.102
				c-0.725,0.066-1.298,0.642-1.359,1.367c-0.86,10.216-11.313,11.964-11.754,12.032c-0.763,0.116-1.313,0.791-1.273,1.561
				c0.04,0.771,0.657,1.385,1.427,1.421c9.028,0.426,11.499,12.719,11.523,12.844c0.137,0.711,0.759,1.217,1.472,1.217
				c0.042,0,0.084-0.002,0.126-0.005c0.764-0.064,1.357-0.693,1.375-1.46c0.194-8.509,12.191-12.777,12.313-12.819
				c0.675-0.234,1.092-0.914,0.994-1.622C62.27,38.608,61.687,38.067,60.973,38.024z M47.407,48.369
				c-1.357-3.13-3.709-6.907-7.587-8.876c2.931-1.405,6.409-3.913,8.202-8.273c1.551,3.071,4.199,6.881,8.333,8.723
				C53.348,41.583,49.433,44.348,47.407,48.369z"/>
		</g>
	</g>
	<g>
		<g>
			<path class="st3" d="M25.962,43.255c-0.689,8.179-9.212,9.471-9.212,9.471c7.318,0.344,9.142,9.944,9.142,9.944
				c0.156-6.844,9.422-10.045,9.422-10.045C28.373,52.209,25.962,43.255,25.962,43.255z"/>
		</g>
	</g>
	<g>
		<g>
			<path class="st0" d="M35.404,51.128c-5.767-0.346-7.973-8.187-7.994-8.266c-0.191-0.702-0.857-1.169-1.582-1.102
				c-0.726,0.065-1.299,0.643-1.36,1.368c-0.579,6.871-7.646,8.066-7.942,8.113c-0.763,0.116-1.313,0.791-1.273,1.561
				c0.04,0.771,0.657,1.385,1.427,1.421c6.036,0.284,7.724,8.645,7.739,8.727c0.135,0.712,0.759,1.22,1.472,1.22
				c0.042,0,0.083-0.002,0.125-0.005c0.765-0.063,1.358-0.693,1.376-1.461c0.13-5.709,8.331-8.633,8.413-8.661
				c0.676-0.233,1.094-0.913,0.996-1.622C36.703,51.712,36.119,51.171,35.404,51.128z M25.819,57.922
				c-0.924-1.886-2.34-3.947-4.447-5.279c1.856-1.041,3.697-2.63,4.871-4.917c1.057,1.874,2.655,3.955,4.941,5.225
				C29.334,54.051,27.195,55.689,25.819,57.922z"/>
		</g>
	</g>
	<g>
		<g>
			<path class="st3" d="M25.962,16.598c-0.689,8.179-9.212,9.471-9.212,9.471c7.318,0.344,9.142,9.944,9.142,9.944
				c0.156-6.845,9.422-10.045,9.422-10.045C28.373,25.552,25.962,16.598,25.962,16.598z"/>
		</g>
	</g>
	<g>
		<g>
			<path class="st0" d="M35.404,24.471c-5.767-0.346-7.973-8.187-7.994-8.266c-0.191-0.702-0.857-1.17-1.582-1.102
				c-0.726,0.065-1.299,0.643-1.36,1.368c-0.579,6.871-7.646,8.066-7.942,8.113c-0.763,0.116-1.313,0.791-1.273,1.561
				c0.04,0.771,0.657,1.385,1.427,1.421c6.036,0.284,7.724,8.645,7.739,8.727c0.135,0.712,0.759,1.22,1.472,1.22
				c0.042,0,0.083-0.002,0.125-0.005c0.765-0.063,1.358-0.693,1.376-1.461c0.13-5.709,8.331-8.633,8.413-8.661
				c0.676-0.233,1.094-0.913,0.996-1.622C36.703,25.055,36.119,24.514,35.404,24.471z M25.819,31.265
				c-0.924-1.886-2.34-3.947-4.447-5.279c1.856-1.041,3.697-2.63,4.871-4.917c1.057,1.874,2.655,3.955,4.941,5.225
				C29.334,27.394,27.195,29.032,25.819,31.265z"/>
		</g>
	</g>
	<g>
		<g>
			<path class="st4" d="M226.594,17.069l-147.183-0.03c-6.991-0.001-12.66,5.665-12.661,12.656l-0.01,48.742l-0.003,13.234
				l-0.027,135.04c-0.001,6.991,5.665,12.66,12.656,12.661l147.183,0.03c6.991,0.001,12.66-5.665,12.661-12.656L239.25,29.73
				C239.251,22.739,233.585,17.07,226.594,17.069z"/>
		</g>
	</g>
	<g>
		<g>
			<path class="st0" d="M236.605,19.718c-2.674-2.675-6.229-4.147-10.011-4.148l-147.183-0.03c-0.001,0-0.001,0-0.002,0
				c-7.806,0-14.158,6.351-14.159,14.156l-0.01,48.743c0,0.828,0.671,1.5,1.5,1.5c0,0,0,0,0,0c0.828,0,1.5-0.671,1.5-1.5
				l0.01-48.743c0.001-6.152,5.007-11.156,11.159-11.156c0,0,0.001,0,0.001,0l147.183,0.03c2.98,0,5.782,1.161,7.89,3.27
				c2.107,2.108,3.267,4.911,3.267,7.892l-0.04,197.016c-0.001,6.152-5.007,11.156-11.159,11.156c0,0-0.001,0-0.001,0
				l-147.183-0.029c-6.153-0.002-11.158-5.009-11.157-11.161l0.027-135.04c0-0.828-0.671-1.5-1.5-1.5c0,0,0,0,0,0
				c-0.828,0-1.5,0.672-1.5,1.5l-0.027,135.04c-0.001,7.807,6.349,14.159,14.156,14.161l147.183,0.029h0.002
				c7.806,0,14.158-6.351,14.159-14.156l0.04-197.016C240.751,25.949,239.279,22.393,236.605,19.718z"/>
		</g>
	</g>
	<g>
		<g>
			<path class="st1" d="M218.358,31.336l-31.4-0.006l-12.412-0.002L87.641,31.31c-2.971,0-5.381,2.408-5.381,5.379l-0.011,53.158
				c-0.001,2.971,2.408,5.381,5.379,5.382l130.717,0.026c2.971,0,5.381-2.408,5.381-5.379l0.011-53.158
				C223.738,33.746,221.329,31.337,218.358,31.336z"/>
		</g>
	</g>
	<g>
		<g>
			<path class="st0" d="M223.223,31.853c-1.299-1.3-3.027-2.016-4.864-2.016l-31.401-0.007c-0.001,0-0.001,0-0.001,0
				c-0.828,0-1.5,0.672-1.5,1.5s0.671,1.5,1.5,1.5l31.401,0.007c1.036,0,2.011,0.403,2.743,1.137
				c0.733,0.732,1.136,1.707,1.136,2.744l-0.011,53.158c0,1.036-0.404,2.011-1.137,2.743c-0.733,0.732-1.707,1.136-2.743,1.136
				c0,0-0.001,0-0.001,0L87.628,93.729c-1.037,0-2.011-0.403-2.744-1.137c-0.732-0.732-1.136-1.707-1.136-2.744l0.011-53.158
				c0-1.036,0.404-2.011,1.137-2.743s1.707-1.136,2.743-1.136c0,0,0.001,0,0.001,0l86.904,0.017c0,0,0,0,0,0
				c0.828,0,1.5-0.672,1.5-1.5s-0.671-1.5-1.499-1.5l-86.904-0.017h-0.002c-1.837,0-3.564,0.715-4.863,2.014
				c-1.3,1.3-2.016,3.027-2.016,4.865l-0.011,53.158c0,1.838,0.715,3.565,2.014,4.865s3.027,2.016,4.865,2.016l130.717,0.026h0.003
				c1.837,0,3.564-0.715,4.863-2.014c1.3-1.3,2.016-3.027,2.016-4.865l0.011-53.157C225.237,34.88,224.522,33.152,223.223,31.853z"
				/>
		</g>
	</g>
	<g>
		<g>
			<path class="st5" d="M104.555,111.054H87.471c-2.984,0-5.403,2.419-5.403,5.403v17.084c0,2.984,2.419,5.403,5.403,5.403h17.084
				c2.984,0,5.403-2.419,5.403-5.403v-17.084C109.958,113.474,107.539,111.054,104.555,111.054z"/>
		</g>
	</g>
	<g>
		<g>
			<path class="st0" d="M104.555,109.555H87.471c-3.807,0-6.903,3.097-6.903,6.903v17.083c0,3.807,3.097,6.903,6.903,6.903h17.083
				c3.807,0,6.903-3.097,6.903-6.903v-17.083C111.458,112.651,108.361,109.555,104.555,109.555z M108.458,133.541
				c0,2.152-1.751,3.903-3.903,3.903H87.471c-2.152,0-3.903-1.751-3.903-3.903v-17.083c0-2.152,1.751-3.903,3.903-3.903h17.083
				c2.152,0,3.903,1.751,3.903,3.903V133.541z"/>
		</g>
	</g>
	<g>
		<g>
			<path class="st5" d="M142.533,111.054h-17.084c-2.984,0-5.403,2.419-5.403,5.403v17.084c0,2.984,2.419,5.403,5.403,5.403h17.084
				c2.984,0,5.403-2.419,5.403-5.403v-17.084C147.936,113.474,145.517,111.054,142.533,111.054z"/>
		</g>
	</g>
	<g>
		<g>
			<path class="st0" d="M142.533,109.555h-17.084c-3.807,0-6.903,3.097-6.903,6.903v17.083c0,3.807,3.097,6.903,6.903,6.903h17.084
				c3.807,0,6.903-3.097,6.903-6.903v-17.083C149.436,112.651,146.34,109.555,142.533,109.555z M146.436,133.541
				c0,2.152-1.751,3.903-3.903,3.903h-17.084c-2.152,0-3.903-1.751-3.903-3.903v-17.083c0-2.152,1.751-3.903,3.903-3.903h17.084
				c2.152,0,3.903,1.751,3.903,3.903V133.541z"/>
		</g>
	</g>
	<g>
		<g>
			<path class="st5" d="M180.511,111.054h-17.083c-2.984,0-5.404,2.419-5.404,5.404v17.083c0,2.984,2.419,5.403,5.403,5.403h17.083
				c2.984,0,5.403-2.419,5.403-5.403v-17.084C185.914,113.474,183.495,111.054,180.511,111.054z"/>
		</g>
	</g>
	<g>
		<g>
			<path class="st0" d="M180.511,109.555h-17.083c-3.807,0-6.903,3.097-6.903,6.903v17.083c0,3.807,3.097,6.903,6.903,6.903h17.083
				c3.807,0,6.903-3.097,6.903-6.903v-17.083C187.415,112.651,184.318,109.555,180.511,109.555z M184.415,133.541
				c0,2.152-1.751,3.903-3.903,3.903h-17.083c-2.152,0-3.903-1.751-3.903-3.903v-17.083c0-2.152,1.751-3.903,3.903-3.903h17.083
				c2.152,0,3.903,1.751,3.903,3.903V133.541z"/>
		</g>
	</g>
	<g>
		<g>
			<path class="st5" d="M218.489,111.054h-17.083c-2.984,0-5.404,2.419-5.404,5.404v17.083c0,2.984,2.419,5.403,5.403,5.403h17.084
				c2.984,0,5.403-2.419,5.403-5.403v-17.084C223.893,113.474,221.474,111.054,218.489,111.054z"/>
		</g>
	</g>
	<g>
		<g>
			<path class="st0" d="M218.489,109.555h-17.084c-3.807,0-6.903,3.097-6.903,6.903v17.083c0,3.807,3.097,6.903,6.903,6.903h17.084
				c3.807,0,6.903-3.097,6.903-6.903v-17.083C225.393,112.651,222.296,109.555,218.489,109.555z M222.393,133.541
				c0,2.152-1.751,3.903-3.903,3.903h-17.084c-2.152,0-3.903-1.751-3.903-3.903v-17.083c0-2.152,1.751-3.903,3.903-3.903h17.084
				c2.152,0,3.903,1.751,3.903,3.903V133.541z"/>
		</g>
	</g>
	<g>
		<g>
			<path class="st5" d="M104.555,153.982H87.471c-2.984,0-5.403,2.419-5.403,5.403v17.084c0,2.984,2.419,5.403,5.403,5.403h17.084
				c2.984,0,5.403-2.419,5.403-5.403v-17.084C109.958,156.401,107.539,153.982,104.555,153.982z"/>
		</g>
	</g>
	<g>
		<g>
			<path class="st0" d="M104.555,152.481H87.471c-3.807,0-6.903,3.097-6.903,6.903v17.084c0,3.807,3.097,6.903,6.903,6.903h17.083
				c3.807,0,6.903-3.097,6.903-6.903v-17.084C111.458,155.578,108.361,152.481,104.555,152.481z M108.458,176.469
				c0,2.152-1.751,3.903-3.903,3.903H87.471c-2.152,0-3.903-1.751-3.903-3.903v-17.084c0-2.152,1.751-3.903,3.903-3.903h17.083
				c2.152,0,3.903,1.751,3.903,3.903V176.469z"/>
		</g>
	</g>
	<g>
		<g>
			<path class="st5" d="M142.533,153.982h-17.084c-2.984,0-5.403,2.419-5.403,5.403v17.084c0,2.984,2.419,5.403,5.403,5.403h17.084
				c2.984,0,5.403-2.419,5.403-5.403v-17.084C147.936,156.401,145.517,153.982,142.533,153.982z"/>
		</g>
	</g>
	<g>
		<g>
			<path class="st0" d="M142.533,152.481h-17.084c-3.807,0-6.903,3.097-6.903,6.903v17.084c0,3.807,3.097,6.903,6.903,6.903h17.084
				c3.807,0,6.903-3.097,6.903-6.903v-17.084C149.436,155.578,146.34,152.481,142.533,152.481z M146.436,176.469
				c0,2.152-1.751,3.903-3.903,3.903h-17.084c-2.152,0-3.903-1.751-3.903-3.903v-17.084c0-2.152,1.751-3.903,3.903-3.903h17.084
				c2.152,0,3.903,1.751,3.903,3.903V176.469z"/>
		</g>
	</g>
	<g>
		<g>
			<path class="st5" d="M180.511,153.982h-17.083c-2.984,0-5.403,2.419-5.403,5.403v17.084c0,2.984,2.419,5.403,5.403,5.403h17.083
				c2.984,0,5.403-2.419,5.403-5.403v-17.084C185.914,156.401,183.495,153.982,180.511,153.982z"/>
		</g>
	</g>
	<g>
		<g>
			<path class="st0" d="M180.511,152.481h-17.083c-3.807,0-6.903,3.097-6.903,6.903v17.084c0,3.807,3.097,6.903,6.903,6.903h17.083
				c3.807,0,6.903-3.097,6.903-6.903v-17.084C187.415,155.578,184.318,152.481,180.511,152.481z M184.415,176.469
				c0,2.152-1.751,3.903-3.903,3.903h-17.083c-2.152,0-3.903-1.751-3.903-3.903v-17.084c0-2.152,1.751-3.903,3.903-3.903h17.083
				c2.152,0,3.903,1.751,3.903,3.903V176.469z"/>
		</g>
	</g>
	<g>
		<g>
			<path class="st5" d="M218.489,153.982h-17.084c-2.984,0-5.403,2.419-5.403,5.403v17.084c0,2.984,2.419,5.403,5.403,5.403h17.084
				c2.984,0,5.403-2.419,5.403-5.403v-17.084C223.893,156.401,221.474,153.982,218.489,153.982z"/>
		</g>
	</g>
	<g>
		<g>
			<path class="st0" d="M218.489,152.481h-17.084c-3.807,0-6.903,3.097-6.903,6.903v17.084c0,3.807,3.097,6.903,6.903,6.903h17.084
				c3.807,0,6.903-3.097,6.903-6.903v-17.084C225.393,155.578,222.296,152.481,218.489,152.481z M222.393,176.469
				c0,2.152-1.751,3.903-3.903,3.903h-17.084c-2.152,0-3.903-1.751-3.903-3.903v-17.084c0-2.152,1.751-3.903,3.903-3.903h17.084
				c2.152,0,3.903,1.751,3.903,3.903V176.469z"/>
		</g>
	</g>
	<g>
		<g>
			<path class="st5" d="M104.555,196.909H87.471c-2.984,0-5.403,2.419-5.403,5.403v17.084c0,2.984,2.419,5.403,5.403,5.403h17.083
				c2.984,0,5.403-2.419,5.403-5.404v-17.083C109.958,199.328,107.539,196.909,104.555,196.909z"/>
		</g>
	</g>
	<g>
		<g>
			<path class="st0" d="M104.555,195.409H87.471c-3.807,0-6.903,3.097-6.903,6.903v17.084c0,3.807,3.097,6.903,6.903,6.903h17.083
				c3.807,0,6.903-3.097,6.903-6.903v-17.084C111.458,198.506,108.361,195.409,104.555,195.409z M108.458,219.396
				c0,2.152-1.751,3.903-3.903,3.903H87.471c-2.152,0-3.903-1.751-3.903-3.903v-17.084c0-2.152,1.751-3.903,3.903-3.903h17.083
				c2.152,0,3.903,1.751,3.903,3.903V219.396z"/>
		</g>
	</g>
	<g>
		<g>
			<path class="st5" d="M142.533,196.909h-17.084c-2.984,0-5.403,2.419-5.403,5.403v17.083c0,2.984,2.419,5.404,5.403,5.404h17.083
				c2.984,0,5.403-2.419,5.403-5.404v-17.083C147.936,199.328,145.517,196.909,142.533,196.909z"/>
		</g>
	</g>
	<g>
		<g>
			<path class="st0" d="M142.533,195.409h-17.084c-3.807,0-6.903,3.097-6.903,6.903v17.084c0,3.807,3.097,6.903,6.904,6.903h17.083
				c3.807,0,6.904-3.097,6.904-6.903v-17.084C149.436,198.506,146.34,195.409,142.533,195.409z M146.436,219.396
				c0,2.152-1.751,3.903-3.904,3.903H125.45c-2.152,0-3.904-1.751-3.904-3.903v-17.084c0-2.152,1.751-3.903,3.903-3.903h17.084
				c2.152,0,3.903,1.751,3.903,3.903V219.396z"/>
		</g>
	</g>
	<g>
		<g>
			<path class="st5" d="M180.511,196.909h-17.083c-2.984,0-5.404,2.419-5.404,5.404v17.083c0,2.984,2.419,5.403,5.403,5.403h17.083
				c2.984,0,5.403-2.419,5.403-5.404v-17.083C185.914,199.328,183.495,196.909,180.511,196.909z"/>
		</g>
	</g>
	<g>
		<g>
			<path class="st0" d="M180.511,195.409h-17.083c-3.807,0-6.903,3.097-6.903,6.903v17.084c0,3.807,3.097,6.903,6.903,6.903h17.083
				c3.807,0,6.903-3.097,6.903-6.903v-17.084C187.415,198.506,184.318,195.409,180.511,195.409z M184.415,219.396
				c0,2.152-1.751,3.903-3.903,3.903h-17.083c-2.152,0-3.903-1.751-3.903-3.903v-17.084c0-2.152,1.751-3.903,3.903-3.903h17.083
				c2.152,0,3.903,1.751,3.903,3.903V219.396z"/>
		</g>
	</g>
	<g>
		<g>
			<path class="st5" d="M218.489,196.909h-17.083c-2.984,0-5.404,2.419-5.404,5.404v17.083c0,2.984,2.419,5.403,5.403,5.403h17.084
				c2.984,0,5.403-2.419,5.403-5.404v-17.083C223.893,199.328,221.474,196.909,218.489,196.909z"/>
		</g>
	</g>
	<g>
		<g>
			<path class="st0" d="M218.489,195.409h-17.084c-3.807,0-6.903,3.097-6.903,6.903v17.084c0,3.807,3.097,6.903,6.903,6.903h17.084
				c3.807,0,6.903-3.097,6.903-6.903v-17.084C225.393,198.506,222.296,195.409,218.489,195.409z M222.393,219.396
				c0,2.152-1.751,3.903-3.903,3.903h-17.084c-2.152,0-3.903-1.751-3.903-3.903v-17.084c0-2.152,1.751-3.903,3.903-3.903h17.084
				c2.152,0,3.903,1.751,3.903,3.903V219.396z"/>
		</g>
	</g>
	<g>
		<g>
			<path class="st14" d="M234.48,21.835c-2.1-2.1-4.91-3.27-7.89-3.27h-15c2.98,0,5.79,1.17,7.89,3.27
				c2.11,2.11,3.27,4.91,3.27,7.89v1.71c0.16,0.13,0.32,0.27,0.47,0.42c1.3,1.3,2.02,3.03,2.02,4.86l-0.01,53.16
				c0,1.84-0.72,3.57-2.02,4.87c-0.15,0.15-0.31,0.29-0.47,0.43l-0.01,15.85c1.62,1.26,2.66,3.23,2.66,5.43v17.09
				c0,2.2-1.04,4.17-2.66,5.43l-0.01,14.97c1.63,1.25,2.67,3.22,2.67,5.44v17.08c0,2.22-1.04,4.19-2.67,5.45v14.95
				c1.63,1.26,2.67,3.23,2.67,5.45v17.08c0,2.22-1.05,4.19-2.68,5.45v1.9c0,2.98-1.16,5.78-3.27,7.89
				c-1.05,1.06-2.28,1.87-3.62,2.43c-1.28,0.53-2.67,0.82-4.1,0.84h14.83c1.49,0,2.94-0.29,4.27-0.84c1.34-0.56,2.57-1.37,3.62-2.43
				c2.11-2.11,3.27-4.91,3.27-7.89l0.04-197.02C237.75,26.745,236.59,23.945,234.48,21.835z"/>
		</g>
	</g>
	<g>
		<g>
			<circle class="st3" cx="75.372" cy="180.78" r="58.622"/>
		</g>
	</g>
	<g>
		<g>
			<path class="st0" d="M75.372,120.658c-33.151,0-60.122,26.971-60.122,60.122s26.971,60.122,60.122,60.122
				c33.152,0,60.122-26.971,60.122-60.122S108.524,120.658,75.372,120.658z M75.372,237.902c-31.497,0-57.122-25.625-57.122-57.122
				s25.625-57.122,57.122-57.122c31.497,0,57.122,25.625,57.122,57.122S106.87,237.902,75.372,237.902z"/>
		</g>
	</g>
	<g>
		<g>
			<path class="st4" d="M82.342,174.151c-8.538-3.213-12.054-5.323-12.054-8.638c0-2.811,2.109-5.625,8.639-5.625
				c7.231,0,11.852,2.309,14.463,3.415l2.913-11.349c-3.315-1.608-7.835-3.015-14.564-3.315v-8.84h-9.844v9.542
				c-10.747,2.109-16.975,9.04-16.975,17.88c0,9.743,7.332,14.766,18.08,18.381c7.433,2.511,10.647,4.923,10.647,8.738
				c0,4.019-3.918,6.229-9.642,6.229c-6.53,0-12.455-2.109-16.674-4.419L54.318,207.9c3.817,2.209,10.345,4.017,17.075,4.319v9.542
				h9.844v-10.245c11.551-2.007,17.88-9.641,17.88-18.581C99.116,183.894,94.294,178.37,82.342,174.151z"/>
		</g>
	</g>
	<g>
		<g>
			<path class="st0" d="M82.87,172.746c-8.182-3.079-11.082-4.972-11.082-7.233c0-3.588,4.473-4.124,7.139-4.124
				c6.289,0,10.41,1.791,13.137,2.977l0.742,0.319c0.402,0.173,0.859,0.157,1.25-0.036c0.392-0.194,0.679-0.549,0.788-0.972
				l2.913-11.35c0.177-0.691-0.157-1.411-0.799-1.723c-3.914-1.898-8.414-3.009-13.718-3.382V139.8c0-0.828-0.671-1.5-1.5-1.5
				h-9.844c-0.829,0-1.5,0.672-1.5,1.5v8.331c-10.505,2.484-16.975,9.71-16.975,19.09c0,11.858,10.208,16.812,19.1,19.802
				c7.99,2.7,9.627,4.878,9.627,7.317c0,4.388-6.233,4.729-8.143,4.729c-7.15,0-13.065-2.653-15.954-4.234
				c-0.407-0.224-0.893-0.245-1.317-0.061s-0.741,0.555-0.856,1.003l-3.013,11.751c-0.167,0.651,0.12,1.335,0.702,1.671
				c3.993,2.311,10.143,3.969,16.326,4.433v8.13c0,0.828,0.671,1.5,1.5,1.5h9.844c0.829,0,1.5-0.672,1.5-1.5v-9.009
				c10.906-2.35,17.879-10.02,17.879-19.818C100.616,183.174,95.3,177.134,82.87,172.746z M80.979,210.038
				c-0.719,0.125-1.243,0.748-1.243,1.478v8.745h-6.844v-8.042c0-0.803-0.631-1.463-1.433-1.498
				c-5.608-0.252-11.492-1.636-15.398-3.585l2.255-8.795c3.479,1.675,9.092,3.728,15.688,3.728c6.873,0,11.143-2.961,11.143-7.729
				c0-5.16-4.664-7.793-11.669-10.16c-11.956-4.021-17.058-9.093-17.058-16.959c0-8.337,5.893-14.471,15.764-16.408
				c0.704-0.138,1.211-0.755,1.211-1.472V141.3h6.844v7.34c0,0.803,0.632,1.463,1.434,1.498c5,0.223,9.224,1.094,12.866,2.659
				l-2.165,8.435c-2.838-1.206-7.223-2.843-13.447-2.843c-9.408,0-10.139,5.453-10.139,7.124c0,4.371,4.2,6.721,13.054,10.052
				c11.204,3.955,15.773,8.987,15.773,17.369C97.616,201.7,91.241,208.254,80.979,210.038z"/>
		</g>
	</g>
</g>
</svg>
