<?xml version="1.0" encoding="utf-8"?>
<!-- Generator: Adobe Illustrator 22.0.1, SVG Export Plug-In . SVG Version: 6.00 Build 0)  -->
<svg version="1.1" id="Layer_1" xmlns="http://www.w3.org/2000/svg" xmlns:xlink="http://www.w3.org/1999/xlink" x="0px" y="0px"
	 viewBox="0 0 256 256" style="enable-background:new 0 0 256 256;" xml:space="preserve">
<style type="text/css">
	.st0{fill:#3A312A;}
	.st1{fill:#8AC6DD;}
	.st2{fill:#F16C7A;}
	.st3{fill:#D7E057;}
	.st4{fill:#87796F;}
	.st5{fill:#FCE8CB;}
	.st6{fill:#DECAAD;}
	.st7{fill:#D6DF58;}
	.st8{fill:#FAE6CA;}
	.st9{fill:#DDC9AC;}
	.st10{fill:#D5DE58;}
	.st11{fill:#ED6E7A;}
	.st12{fill:#8AC5DC;}
	.st13{fill:#6CA8BF;}
	.st14{fill:#695B51;}
	.st15{fill:#F8E4C8;}
	.st16{fill:#EF6D7A;}
	.st17{fill-rule:evenodd;clip-rule:evenodd;fill:#F8E4C8;}
	.st18{fill:#89C4DB;}
	.st19{fill:#F59689;}
	.st20{fill:#D34E5C;}
	.st21{fill:#F7E3C7;}
	.st22{fill:#8AC3DA;}
	.st23{fill-rule:evenodd;clip-rule:evenodd;fill:#F7E3C7;}
	.st24{fill-rule:evenodd;clip-rule:evenodd;fill:#87796F;}
	.st25{fill:#B9C239;}
	.st26{fill:#D4DB56;}
	.st27{fill-rule:evenodd;clip-rule:evenodd;fill:#F16C7A;}
	.st28{fill-rule:evenodd;clip-rule:evenodd;fill:#F6E2C6;}
	.st29{fill:#F6E2C6;}
	.st30{fill-rule:evenodd;clip-rule:evenodd;fill:#FAE6CA;}
	.st31{fill:#B8C136;}
</style>
<g>
	<g>
		<g>
			<path class="st4" d="M186.638,109.291l9.68-26.46h-0.021c0.374-1.208,0.576-2.492,0.576-3.823c0-7.13-5.78-12.91-12.911-12.91
				c-7.13,0-12.91,5.78-12.91,12.91c0-7.13-5.78-12.91-12.91-12.91c-7.13,0-12.91,5.78-12.91,12.91c0-7.13-5.78-12.91-12.91-12.91
				c-7.13,0-12.911,5.78-12.911,12.91c0,1.331,0.202,2.615,0.576,3.823h-0.021l9.68,26.46
				c-22.042,10.616-37.253,33.166-37.253,59.269c0,36.312,29.437,40.359,65.748,40.359c36.312,0,65.749-4.048,65.749-40.359
				C223.891,142.458,208.68,119.908,186.638,109.291z"/>
		</g>
	</g>
	<g>
		<g>
			<path class="st0" d="M188.509,108.543l9.218-25.196c0.037-0.103,0.063-0.208,0.077-0.314c0.378-1.304,0.57-2.657,0.57-4.024
				c0-7.946-6.464-14.411-14.411-14.411c-5.649,0-10.549,3.268-12.91,8.012c-2.361-4.744-7.262-8.012-12.911-8.012
				c-5.649,0-10.549,3.268-12.91,8.012c-2.361-4.744-7.262-8.012-12.911-8.012c-7.946,0-14.411,6.464-14.411,14.411
				c0,1.364,0.191,2.713,0.568,4.013c0.014,0.11,0.04,0.219,0.079,0.325l9.218,25.196c-22.449,11.388-36.882,34.795-36.882,60.018
				c0,38.627,33.221,41.859,67.249,41.859c34.027,0,67.249-3.232,67.249-41.859C225.391,143.338,210.958,119.931,188.509,108.543z
				 M158.143,207.42c-40.691,0-64.249-6.358-64.249-38.859c0-24.532,14.29-47.266,36.404-57.918
				c0.695-0.335,1.023-1.143,0.758-1.867l-9.594-26.225c-0.011-0.055-0.024-0.109-0.041-0.164c-0.338-1.09-0.509-2.227-0.509-3.379
				c0-6.292,5.119-11.411,11.411-11.411s11.411,5.119,11.411,11.411c0,0.829,0.671,1.5,1.5,1.5c0.829,0,1.5-0.671,1.5-1.5
				c0-6.292,5.119-11.411,11.41-11.411c6.292,0,11.411,5.119,11.411,11.411c0,0.829,0.671,1.5,1.5,1.5c0.829,0,1.5-0.671,1.5-1.5
				c0-6.292,5.119-11.411,11.41-11.411c6.292,0,11.411,5.119,11.411,11.411c0,1.151-0.171,2.289-0.509,3.379
				c-0.016,0.052-0.029,0.105-0.039,0.158l-9.596,26.23c-0.265,0.724,0.063,1.532,0.758,1.867
				c22.114,10.652,36.404,33.386,36.404,57.918C222.391,201.062,198.833,207.42,158.143,207.42z"/>
		</g>
	</g>
	<g>
		<g>
			<path class="st7" d="M158.143,127.324c-16.934,0-30.662,13.728-30.662,30.663c0,16.934,13.728,30.662,30.662,30.662
				c16.934,0,30.662-13.728,30.662-30.662C188.805,141.052,175.077,127.324,158.143,127.324z"/>
		</g>
	</g>
	<g>
		<g>
			<path class="st0" d="M158.143,125.824c-17.734,0-32.162,14.428-32.162,32.163s14.428,32.162,32.162,32.162
				c17.734,0,32.163-14.428,32.163-32.162S175.877,125.824,158.143,125.824z M158.143,187.148c-16.08,0-29.162-13.082-29.162-29.162
				s13.082-29.163,29.162-29.163c16.08,0,29.163,13.083,29.163,29.163S174.223,187.148,158.143,187.148z"/>
		</g>
	</g>
	<g>
		<g>
			<path class="st4" d="M161.788,154.519c-4.466-1.68-6.305-2.784-6.305-4.518c0-1.47,1.103-2.942,4.519-2.942
				c3.782,0,6.199,1.208,7.565,1.786l1.524-5.936c-1.734-0.841-4.098-1.577-7.618-1.734v-4.624h-5.149v4.991
				c-5.621,1.103-8.879,4.728-8.879,9.352c0,5.096,3.835,7.724,9.456,9.615c3.888,1.313,5.569,2.575,5.569,4.57
				c0,2.102-2.049,3.258-5.043,3.258c-3.415,0-6.514-1.103-8.721-2.311l-1.576,6.146c1.997,1.156,5.411,2.101,8.931,2.259v4.991
				h5.149v-5.359c6.042-1.05,9.352-5.043,9.352-9.719C170.562,159.615,168.04,156.725,161.788,154.519z"/>
		</g>
	</g>
	<g>
		<g>
			<path class="st0" d="M162.316,153.114c-2.637-0.992-5.333-2.138-5.333-3.113c0-1.255,1.891-1.442,3.019-1.442
				c3.139,0,5.212,0.9,6.583,1.496l0.396,0.171c0.402,0.172,0.858,0.157,1.25-0.036c0.392-0.194,0.679-0.549,0.788-0.972
				l1.524-5.936c0.177-0.691-0.157-1.411-0.799-1.723c-1.963-0.952-4.19-1.54-6.772-1.784v-3.224c0-0.828-0.671-1.5-1.5-1.5h-5.148
				c-0.829,0-1.5,0.672-1.5,1.5v3.801c-5.51,1.497-8.878,5.45-8.878,10.541c0,6.658,5.6,9.396,10.476,11.035
				c3.998,1.351,4.549,2.312,4.549,3.149c0,1.673-2.952,1.758-3.544,1.758c-3.579,0-6.55-1.332-8.002-2.127
				c-0.406-0.222-0.893-0.244-1.317-0.06c-0.425,0.185-0.74,0.555-0.856,1.004l-1.576,6.146c-0.167,0.65,0.12,1.334,0.702,1.67
				c2.031,1.176,5.071,2.04,8.182,2.354v3.597c0,0.828,0.671,1.5,1.5,1.5h5.149c0.829,0,1.5-0.672,1.5-1.5v-4.145
				c5.724-1.44,9.351-5.625,9.351-10.933C172.061,158.884,169.139,155.522,162.316,153.114z M160.953,172.585
				c-0.719,0.125-1.243,0.748-1.243,1.478v3.858h-2.149v-3.49c0-0.802-0.631-1.463-1.433-1.498
				c-2.602-0.117-5.308-0.709-7.246-1.558l0.82-3.198c1.895,0.816,4.607,1.659,7.725,1.659c3.975,0,6.544-1.867,6.544-4.758
				c0-3.31-3.167-4.835-6.591-5.992c-5.991-2.015-8.434-4.389-8.434-8.192c0-3.991,2.866-6.938,7.667-7.88
				c0.704-0.138,1.211-0.755,1.211-1.472v-3.49h2.148v3.123c0,0.803,0.631,1.463,1.433,1.498c2.271,0.102,4.219,0.465,5.913,1.105
				l-0.772,3.011c-1.523-0.593-3.669-1.23-6.544-1.23c-4.438,0-6.019,2.295-6.019,4.442c0,2.948,3.154,4.37,7.305,5.932
				c6.451,2.278,7.773,5.01,7.773,8.411C169.061,168.557,165.955,171.715,160.953,172.585z"/>
		</g>
	</g>
	<g>
		<g>
			<path class="st16" d="M191.226,99.988h-65.359c-3.342,0-6.052,2.709-6.052,6.052s2.709,6.052,6.052,6.052h65.359
				c3.342,0,6.052-2.709,6.052-6.052S194.568,99.988,191.226,99.988z"/>
		</g>
	</g>
	<g>
		<g>
			<path class="st0" d="M191.226,98.488h-25.38c-0.829,0-1.5,0.671-1.5,1.5s0.671,1.5,1.5,1.5h25.38c2.51,0,4.552,2.042,4.552,4.552
				s-2.042,4.552-4.552,4.552h-65.359c-2.51,0-4.552-2.042-4.552-4.552s2.042-4.552,4.552-4.552h26.288c0.829,0,1.5-0.671,1.5-1.5
				s-0.671-1.5-1.5-1.5h-26.288c-4.164,0-7.552,3.388-7.552,7.552s3.388,7.552,7.552,7.552h65.359c4.164,0,7.552-3.388,7.552-7.552
				S195.39,98.488,191.226,98.488z"/>
		</g>
	</g>
	<g>
		<g>
			<path class="st28" d="M45.486,61.526c-0.388-2.531-2.456-4.6-4.988-4.987c-4.062-0.622-7.51,2.826-6.888,6.888
				c0.388,2.531,2.456,4.6,4.987,4.988C42.66,69.037,46.108,65.589,45.486,61.526z"/>
		</g>
	</g>
	<g>
		<g>
			<path class="st0" d="M46.969,61.299c-0.488-3.188-3.056-5.755-6.244-6.243c-2.416-0.368-4.778,0.399-6.488,2.11
				c-1.71,1.71-2.479,4.075-2.109,6.488c0.488,3.187,3.055,5.754,6.243,6.244c0.397,0.061,0.793,0.091,1.185,0.091
				c1.989,0,3.875-0.772,5.303-2.201C46.569,66.078,47.338,63.712,46.969,61.299z M42.737,65.667
				c-1.027,1.027-2.456,1.487-3.912,1.265c-1.876-0.288-3.445-1.857-3.732-3.732c-0.224-1.459,0.237-2.885,1.265-3.913
				c0.857-0.858,1.993-1.321,3.193-1.321c0.238,0,0.479,0.018,0.72,0.055c1.875,0.287,3.445,1.856,3.732,3.731
				C44.227,63.212,43.765,64.639,42.737,65.667z"/>
		</g>
	</g>
	<g>
		<g>
			<path class="st28" d="M97.949,61.527c-0.388-2.531-2.456-4.6-4.987-4.988c-4.062-0.622-7.51,2.826-6.888,6.888
				c0.388,2.531,2.456,4.6,4.987,4.988C95.123,69.037,98.571,65.589,97.949,61.527z"/>
		</g>
	</g>
	<g>
		<g>
			<path class="st0" d="M99.432,61.3c-0.488-3.188-3.056-5.755-6.243-6.244c-2.417-0.366-4.778,0.4-6.488,2.11
				c-1.711,1.71-2.479,4.075-2.11,6.488c0.488,3.188,3.056,5.755,6.243,6.244c0.398,0.061,0.794,0.091,1.185,0.091
				c1.989,0,3.874-0.772,5.303-2.201C99.032,66.078,99.801,63.713,99.432,61.3z M95.201,65.667c-1.028,1.028-2.454,1.49-3.913,1.265
				c-1.875-0.287-3.444-1.856-3.731-3.732c-0.224-1.459,0.238-2.885,1.266-3.913c0.857-0.858,1.992-1.321,3.192-1.321
				c0.238,0,0.479,0.018,0.72,0.055c1.875,0.287,3.444,1.856,3.731,3.732C96.69,63.213,96.228,64.639,95.201,65.667z"/>
		</g>
	</g>
	<g>
		<g>
			<path class="st4" d="M93.665,45.417c0-7.085-2.924-13.516-7.683-18.26c0.289,0.826,0.441,1.662,0.441,2.488
				c0,2.797-1.926,5.352-5.098,7.288c0.659,1.095,1.48,2.098,2.443,2.98c4.825,4.409,8.012,10.572,8.57,17.474
				c0.071-0.096,0.228-0.147,0.35-0.193C93.827,56.779,93.665,46.329,93.665,45.417z"/>
		</g>
	</g>
	<g>
		<g>
			<path class="st0" d="M95.167,45.734l-0.002-0.317c0-7.238-2.885-14.1-8.123-19.322c-0.496-0.493-1.266-0.579-1.858-0.207
				c-0.592,0.372-0.848,1.104-0.617,1.764c0.236,0.677,0.357,1.348,0.357,1.994c0,2.15-1.555,4.284-4.379,6.007
				c-0.704,0.43-0.929,1.347-0.504,2.054c0.735,1.221,1.648,2.336,2.716,3.314c4.703,4.298,7.575,10.153,8.086,16.487
				c0.05,0.624,0.483,1.151,1.085,1.322c0.136,0.039,0.273,0.057,0.41,0.057c0.321,0,0.633-0.103,0.891-0.293
				C94.318,58.195,95.253,57.755,95.167,45.734z M92.15,49.697c-1.541-4.123-4.047-7.854-7.369-10.89
				c-0.498-0.457-0.954-0.949-1.364-1.474c2.277-1.687,3.744-3.694,4.278-5.843c2.905,4.087,4.47,8.907,4.47,13.927l0.002,0.339
				C92.178,47.277,92.17,48.581,92.15,49.697z"/>
		</g>
	</g>
	<g>
		<g>
			<path class="st29" d="M83.768,39.908c-0.963-0.877-1.784-1.88-2.443-2.97c-3.71,2.27-9.132,3.705-15.173,3.705
				c-1.434,0-2.833-0.081-4.186-0.238c-9.71-1.105-19.02,4.688-22.096,13.967c-0.299,0.892-0.507,1.748-0.603,2.544
				c-0.015,0.112-0.025,0.223-0.036,0.334c-0.061,0.76-0.096,1.531-0.096,2.311c0,14.712,14.737,37.305,26.647,37.305
				c12.472,0,26.642-22.593,26.642-37.305C92.423,51.777,89.089,44.778,83.768,39.908z"/>
		</g>
	</g>
	<g>
		<g>
			<path class="st0" d="M84.778,38.799c-0.85-0.773-1.579-1.661-2.169-2.637c-0.206-0.342-0.541-0.587-0.929-0.682
				c-0.389-0.093-0.797-0.03-1.138,0.178c-3.617,2.214-8.862,3.484-14.39,3.484c-1.362,0-2.712-0.077-4.017-0.228
				c-10.455-1.191-20.416,5.112-23.687,14.98c-0.339,1.01-0.565,1.966-0.667,2.813c-0.018,0.127-0.03,0.255-0.046,0.423
				c-0.068,0.847-0.101,1.642-0.101,2.431c0,7.289,3.496,16.877,9.123,25.022c6.052,8.759,12.986,13.783,19.024,13.783
				c13.318,0,28.142-23.13,28.142-38.805C93.923,51.686,90.591,44.12,84.778,38.799z M65.782,95.366
				c-11.099,0-25.147-22.2-25.147-35.805c0-0.708,0.03-1.425,0.092-2.198c0.007-0.08,0.014-0.159,0.029-0.267
				c0.081-0.674,0.262-1.43,0.538-2.252c2.599-7.84,10.088-13.074,18.305-13.074c0.726,0,1.459,0.041,2.193,0.125
				c1.416,0.165,2.882,0.248,4.359,0.248c5.468,0,10.734-1.163,14.704-3.22c0.564,0.754,1.2,1.455,1.899,2.092
				c5.191,4.751,8.168,11.511,8.168,18.547C90.923,73.375,77.196,95.366,65.782,95.366z"/>
		</g>
	</g>
	<g>
		<g>
			<path class="st0" d="M58.895,58.612c-0.219-0.91-0.966-1.656-1.876-1.876c-1.937-0.467-3.637,1.234-3.17,3.17
				c0.22,0.91,0.966,1.656,1.876,1.875C57.662,62.248,59.361,60.547,58.895,58.612z"/>
		</g>
	</g>
	<g>
		<g>
			<path class="st0" d="M77.71,58.612c-0.219-0.91-0.966-1.656-1.876-1.876c-1.937-0.467-3.637,1.234-3.17,3.171
				c0.22,0.91,0.966,1.656,1.876,1.875C76.477,62.248,78.177,60.547,77.71,58.612z"/>
		</g>
	</g>
	<g>
		<g>
			<path class="st19" d="M51.174,63.641c-2.474,0-4.48,1.5-4.48,3.349c0,1.85,2.006,3.349,4.48,3.349c2.474,0,4.48-1.5,4.48-3.349
				C55.654,65.141,53.648,63.641,51.174,63.641z"/>
		</g>
	</g>
	<g>
		<g>
			<path class="st19" d="M80.385,63.641c-2.474,0-4.48,1.5-4.48,3.349c0,1.85,2.006,3.349,4.48,3.349c2.474,0,4.48-1.5,4.48-3.349
				C84.865,65.141,82.859,63.641,80.385,63.641z"/>
		</g>
	</g>
	<g>
		<g>
			<path class="st0" d="M73.668,75.186c-0.774-0.291-1.64,0.102-1.931,0.878c-0.543,1.451-2.579,3.609-5.958,3.609
				c-2.889,0-4.798-1.185-6.008-3.728c-0.356-0.747-1.249-1.065-2-0.709c-0.748,0.356-1.065,1.251-0.709,2
				c1.718,3.608,4.651,5.438,8.717,5.438c4.593,0,7.765-2.88,8.768-5.556C74.837,76.341,74.444,75.477,73.668,75.186z"/>
		</g>
	</g>
	<g>
		<g>
			<path class="st0" d="M65.005,56.978c-0.83-4.378-4.329-7.877-8.706-8.706c-3.654-0.695-7.379,0.442-9.972,3.035
				c-2.593,2.593-3.728,6.321-3.036,9.972c0.83,4.378,4.329,7.876,8.706,8.706c0.706,0.134,1.414,0.199,2.116,0.199
				c2.933,0,5.765-1.143,7.856-3.235C64.563,64.356,65.697,60.629,65.005,56.978z M59.848,64.828
				c-1.919,1.919-4.576,2.723-7.292,2.21c-3.176-0.602-5.715-3.141-6.317-6.317c-0.514-2.715,0.291-5.374,2.21-7.292
				c1.539-1.539,3.553-2.361,5.691-2.361c0.528,0,1.063,0.05,1.601,0.152c3.176,0.602,5.715,3.141,6.317,6.317
				C62.572,60.252,61.767,62.91,59.848,64.828z"/>
		</g>
	</g>
	<g>
		<g>
			<path class="st0" d="M88.88,56.978c-0.83-4.378-4.329-7.877-8.706-8.706c-3.655-0.695-7.379,0.442-9.972,3.036
				c-2.593,2.593-3.728,6.32-3.036,9.972c0.83,4.378,4.328,7.876,8.706,8.706c0.706,0.134,1.413,0.199,2.116,0.199
				c2.933,0,5.764-1.143,7.856-3.235C88.438,64.357,89.573,60.629,88.88,56.978z M83.724,64.829
				c-1.919,1.918-4.576,2.722-7.292,2.209c-3.176-0.602-5.715-3.141-6.317-6.317c-0.515-2.715,0.29-5.373,2.209-7.292
				c1.539-1.539,3.553-2.361,5.691-2.361c0.528,0,1.063,0.05,1.601,0.152c3.176,0.602,5.715,3.141,6.317,6.317
				C86.448,60.252,85.643,62.91,83.724,64.829z"/>
		</g>
	</g>
	<g>
		<g>
			<path class="st0" d="M68.463,57.609h-4.754c-0.829,0-1.5,0.671-1.5,1.5s0.671,1.5,1.5,1.5h4.754c0.829,0,1.5-0.671,1.5-1.5
				S69.292,57.609,68.463,57.609z"/>
		</g>
	</g>
	<g>
		<g>
			<path class="st0" d="M44.992,55.49l-5.519-0.557c-0.818-0.085-1.56,0.517-1.643,1.342c-0.083,0.824,0.518,1.56,1.342,1.643
				l5.519,0.557c0.051,0.005,0.102,0.008,0.152,0.008c0.761,0,1.413-0.577,1.49-1.35C46.417,56.308,45.816,55.573,44.992,55.49z"/>
		</g>
	</g>
	<g>
		<g>
			<path class="st0" d="M93.733,56.22c-0.098-0.823-0.843-1.413-1.667-1.312l-4.907,0.584c-0.823,0.098-1.41,0.844-1.312,1.667
				c0.091,0.763,0.738,1.323,1.487,1.323c0.059,0,0.119-0.003,0.179-0.011l4.907-0.584C93.244,57.789,93.831,57.042,93.733,56.22z"
				/>
		</g>
	</g>
	<g>
		<g>
			<path class="st4" d="M68.301,16.456c-9.012-0.563-16.985,3.604-20.885,7.371c-5.885,4.834-8.911,13.589-8.911,21.589
				c0,1.462,0.258,9.779,0.725,11.836c0.086-1.004,0.363-2.113,0.778-3.282c3.213-9.05,12.429-14.647,21.971-13.563
				c1.346,0.153,2.742,0.233,4.172,0.233c11.195,0,20.27-4.922,20.27-10.994S78.129,17.07,68.301,16.456z"/>
		</g>
	</g>
	<g>
		<g>
			<path class="st0" d="M68.394,14.959c-9.021-0.561-17.529,3.478-21.976,7.747c-5.807,4.802-9.413,13.497-9.413,22.709
				c0,1.063,0.234,9.843,0.762,12.168c0.156,0.687,0.767,1.168,1.462,1.168c0.035,0,0.069-0.001,0.104-0.003
				c0.737-0.051,1.328-0.632,1.391-1.369c0.071-0.827,0.305-1.805,0.697-2.908c2.945-8.294,11.523-13.58,20.388-12.575
				c1.42,0.162,2.881,0.243,4.341,0.243c12.208,0,21.771-5.488,21.771-12.494C87.921,22.473,78.796,15.609,68.394,14.959z
				 M66.151,39.141c-1.348,0-2.694-0.075-4.003-0.224c-8.975-1.022-17.69,3.553-22.002,11.155c-0.09-2.067-0.141-3.953-0.141-4.657
				c0-8.236,3.283-16.256,8.363-20.43c0.031-0.026,0.061-0.052,0.09-0.081c3.711-3.585,10.651-7,18.208-7
				c0.511,0,1.025,0.016,1.541,0.048c9.413,0.588,16.714,6.769,16.714,11.693C84.921,34.793,76.326,39.141,66.151,39.141z"/>
		</g>
	</g>
	<g>
		<g>
			<path class="st4" d="M65.879,225.053l-16.938,0.033l0.014,7.116c0.008,4.24,3.453,7.671,7.692,7.662l1.573-0.003
				c4.25-0.009,7.681-3.453,7.672-7.693L65.879,225.053z"/>
		</g>
	</g>
	<g>
		<g>
			<path class="st0" d="M67.379,225.051c-0.001-0.397-0.16-0.779-0.441-1.06c-0.281-0.28-0.662-0.438-1.059-0.438h-0.003
				l-16.938,0.033c-0.398,0.001-0.779,0.159-1.06,0.441c-0.281,0.282-0.438,0.664-0.437,1.062l0.014,7.116
				c0.01,5.054,4.125,9.159,9.178,9.159h0.018l1.574-0.003c5.066-0.011,9.179-4.136,9.169-9.195L67.379,225.051z M58.218,238.362
				l-1.574,0.003h-0.011c-3.401,0-6.171-2.764-6.178-6.165l-0.011-5.616l13.938-0.027l0.011,5.616
				C64.399,235.579,61.629,238.355,58.218,238.362z"/>
		</g>
	</g>
	<g>
		<g>
			<path class="st4" d="M82.807,225.02l-16.928,0.033l0.014,7.116c0.008,4.24,3.453,7.67,7.692,7.662l1.573-0.003
				c4.24-0.008,7.671-3.453,7.662-7.692L82.807,225.02z"/>
		</g>
	</g>
	<g>
		<g>
			<path class="st0" d="M84.307,225.018c-0.001-0.827-0.673-1.497-1.5-1.497h-0.003l-16.928,0.033
				c-0.829,0.002-1.499,0.675-1.497,1.503l0.014,7.116c0.01,5.054,4.125,9.159,9.179,9.159h0.018l1.573-0.004
				c2.451-0.005,4.754-0.964,6.484-2.7c1.73-1.737,2.68-4.044,2.675-6.495L84.307,225.018z M79.52,236.511
				c-1.165,1.169-2.714,1.814-4.365,1.817l-1.573,0.004h-0.011c-3.401,0-6.171-2.764-6.178-6.165l-0.011-5.616l13.928-0.027
				l0.011,5.615C81.324,233.789,80.685,235.342,79.52,236.511z"/>
		</g>
	</g>
	<g>
		<g>
			<polygon class="st10" points="87.406,158.806 44.485,158.891 44.552,192.781 44.58,206.99 44.616,225.099 87.536,225.015 			"/>
		</g>
	</g>
	<g>
		<g>
			<path class="st0" d="M88.906,158.804c-0.002-0.827-0.673-1.497-1.5-1.497h-0.003l-42.921,0.084
				c-0.398,0.001-0.779,0.159-1.06,0.441c-0.28,0.282-0.438,0.664-0.437,1.062l0.067,33.891c0.001,0.827,0.673,1.497,1.5,1.497
				h0.003c0.829-0.002,1.499-0.675,1.497-1.503l-0.064-32.391l39.921-0.078l0.125,63.208l-39.92,0.079l-0.033-16.609
				c-0.001-0.827-0.673-1.497-1.5-1.497h-0.003c-0.829,0.002-1.498,0.675-1.497,1.503l0.036,18.109
				c0.001,0.397,0.16,0.779,0.441,1.06c0.281,0.28,0.662,0.438,1.059,0.438h0.003l42.92-0.085c0.829-0.002,1.499-0.675,1.497-1.503
				L88.906,158.804z"/>
		</g>
	</g>
	<g>
		<g>
			<path class="st0" d="M67.241,158.846c-0.002-0.827-0.673-1.497-1.5-1.497h-0.003c-0.829,0.002-1.499,0.675-1.497,1.503
				l0.131,66.209c0.001,0.827,0.673,1.497,1.5,1.497h0.003c0.829-0.002,1.498-0.675,1.497-1.503L67.241,158.846z"/>
		</g>
	</g>
	<g>
		<g>
			<path class="st15" d="M87.29,100.198c-0.945-0.181-1.93-0.281-2.935-0.279l-10.063,0.02l-0.012-6.133
				c-2.779,1.925-5.64,3.058-8.432,3.063c-2.752,0.005-5.659-1.197-8.496-3.233l0.012,6.336l-10.053,0.02
				c-1.574,0.003-3.097,0.25-4.528,0.699c-1.908,0.593-3.653,1.551-5.153,2.803c-3.376,2.809-5.531,7.038-5.521,11.77l0.086,43.655
				l55.211-0.109L87.29,100.198z"/>
		</g>
	</g>
	<g>
		<g>
			<path class="st0" d="M88.79,100.195c-0.001-0.718-0.512-1.335-1.218-1.47c-1.069-0.205-2.199-0.31-3.221-0.306l-8.564,0.017
				l-0.009-4.633c-0.001-0.558-0.311-1.068-0.805-1.327c-0.494-0.256-1.091-0.221-1.549,0.097c-2.672,1.851-5.223,2.792-7.582,2.796
				c-2.35-0.002-4.882-0.989-7.619-2.951c-0.457-0.328-1.06-0.373-1.56-0.115c-0.5,0.257-0.815,0.773-0.814,1.336l0.01,4.836
				l-8.553,0.017c-1.688,0.003-3.361,0.262-4.969,0.767c-2.086,0.648-3.994,1.686-5.668,3.083
				c-3.862,3.213-6.071,7.925-6.062,12.926l0.086,43.654c0.001,0.827,0.673,1.497,1.5,1.497h0.003l55.211-0.108
				c0.398-0.001,0.779-0.159,1.06-0.441c0.28-0.282,0.438-0.664,0.437-1.062L88.79,100.195z M33.692,157.416l-0.083-42.154
				c-0.008-4.105,1.807-7.974,4.982-10.615c1.37-1.144,2.931-1.992,4.642-2.523c1.323-0.416,2.696-0.628,4.081-0.631l10.053-0.02
				c0.398-0.001,0.779-0.16,1.06-0.441c0.281-0.282,0.438-0.664,0.437-1.062l-0.007-3.602c2.416,1.334,4.717,2.034,6.994,2.001
				c2.242-0.004,4.566-0.64,6.935-1.894l0.007,3.467c0.001,0.398,0.16,0.779,0.441,1.06c0.281,0.28,0.662,0.438,1.059,0.438h0.003
				l10.064-0.02c0.469-0.006,0.955,0.023,1.435,0.073l0.11,55.821L33.692,157.416z"/>
		</g>
	</g>
	<g>
		<g>
			<polygon class="st4" points="65.869,109.756 65.849,109.787 65.88,109.807 65.9,109.786 			"/>
		</g>
	</g>
	<g>
		<g>
			<path class="st0" d="M66.921,108.687c-0.32-0.314-0.774-0.454-1.219-0.407c-0.446,0.047-0.857,0.306-1.104,0.68
				c-0.457,0.691-0.237,1.642,0.454,2.098c0.253,0.167,0.541,0.249,0.827,0.249c0.381,0,0.76-0.145,1.048-0.427l0.021-0.02
				c0.288-0.281,0.436-0.682,0.437-1.085C67.385,109.372,67.208,108.97,66.921,108.687z"/>
		</g>
	</g>
	<g>
		<g>
			<polygon class="st10" points="65.869,109.756 65.849,109.787 65.88,109.807 65.9,109.786 			"/>
		</g>
	</g>
	<g>
		<g>
			<path class="st0" d="M66.921,108.687c-0.32-0.314-0.774-0.454-1.219-0.407c-0.446,0.047-0.857,0.306-1.104,0.68
				c-0.457,0.691-0.237,1.642,0.454,2.098c0.253,0.167,0.541,0.249,0.827,0.249c0.381,0,0.76-0.145,1.048-0.427l0.021-0.02
				c0.288-0.281,0.436-0.682,0.437-1.085C67.385,109.372,67.208,108.97,66.921,108.687z"/>
		</g>
	</g>
	<g>
		<g>
			<polygon class="st10" points="65.869,109.756 65.849,109.787 65.88,109.807 65.9,109.786 			"/>
		</g>
	</g>
	<g>
		<g>
			<path class="st0" d="M66.952,108.717l-0.031-0.03c-0.32-0.314-0.774-0.454-1.219-0.407c-0.446,0.047-0.857,0.306-1.104,0.68
				c-0.457,0.691-0.237,1.642,0.454,2.098c0.246,0.163,0.529,0.241,0.813,0.241c0.395,0,0.789-0.152,1.083-0.439
				c0.288-0.281,0.451-0.667,0.452-1.07C67.401,109.387,67.239,109,66.952,108.717z"/>
		</g>
	</g>
	<g>
		<g>
			<path class="st15" d="M44.485,158.89l-12.288,0.024l0.012,6.144c0.007,3.393,2.763,6.139,6.156,6.132
				c3.393-0.007,6.139-2.763,6.132-6.156L44.485,158.89z"/>
		</g>
	</g>
	<g>
		<g>
			<path class="st0" d="M45.985,158.888c-0.002-0.827-0.673-1.497-1.5-1.497h-0.003l-12.288,0.023
				c-0.828,0.002-1.498,0.675-1.497,1.503l0.012,6.145c0.004,2.042,0.803,3.96,2.25,5.401c1.443,1.437,3.358,2.228,5.394,2.228
				h0.016c2.042-0.004,3.96-0.803,5.401-2.25c1.441-1.446,2.232-3.367,2.228-5.409L45.985,158.888z M38.362,169.69
				c-1.283,0.022-2.408-0.479-3.287-1.354c-0.879-0.875-1.364-2.041-1.367-3.281l-0.009-4.645l9.288-0.018l0.009,4.644
				C43.002,167.598,40.923,169.686,38.362,169.69z"/>
		</g>
	</g>
	<g>
		<g>
			<path class="st4" d="M132.37,112.152l-0.024-12.196l-50.662-0.022l0.031,0.02l-10.432,13.902l-5.4-4.051l-5.404,4.073
				l-10.487-13.861l0.03-0.021l-2.711,0.005c-1.574,0.003-3.097,0.25-4.528,0.689c-1.908,0.603-3.653,1.561-5.153,2.803
				c-3.376,2.809-5.531,7.038-5.521,11.77l0.086,43.655l55.211-0.109l-0.092-46.569L132.37,112.152z"/>
		</g>
	</g>
	<g>
		<g>
			<path class="st0" d="M133.846,99.954c-0.002-0.827-0.672-1.497-1.5-1.497l-50.662-0.022c0,0,0,0-0.001,0
				c-0.565,0-1.062,0.324-1.314,0.813l-9.387,12.509l-4.201-3.151c-0.534-0.402-1.27-0.401-1.803,0.002l-4.208,3.171l-9.384-12.403
				c-0.241-0.53-0.772-0.879-1.366-0.879h-0.003l-2.711,0.005c-1.674,0.003-3.345,0.257-4.976,0.759
				c-2.081,0.657-3.984,1.692-5.661,3.08c-3.862,3.213-6.071,7.925-6.062,12.926l0.086,43.654c0.001,0.827,0.673,1.497,1.5,1.497
				h0.003l55.211-0.108c0.398-0.001,0.779-0.159,1.06-0.441c0.281-0.282,0.438-0.664,0.438-1.062l-0.089-45.069l43.557-0.086
				c0.398-0.001,0.779-0.16,1.06-0.441s0.438-0.664,0.437-1.062L133.846,99.954z M87.311,110.741
				c-0.829,0.001-1.498,0.674-1.497,1.503l0.089,45.069l-52.211,0.103l-0.083-42.154c-0.008-4.105,1.807-7.974,4.977-10.611
				c1.375-1.138,2.939-1.988,4.638-2.525c1.336-0.411,2.712-0.621,4.089-0.623l1.918-0.004l10.051,13.285
				c0.5,0.661,1.439,0.792,2.099,0.293l4.503-3.394l4.499,3.375c0.661,0.497,1.602,0.364,2.1-0.299l9.997-13.322l48.369,0.021
				l0.019,9.199L87.311,110.741z"/>
		</g>
	</g>
	<g>
		<g>
			<path class="st15" d="M138.368,99.955l-6.022,0.002l0.024,12.196l6.022-0.012c3.361-0.006,6.088-2.743,6.081-6.105
				C144.466,102.674,141.729,99.948,138.368,99.955z"/>
		</g>
	</g>
	<g>
		<g>
			<path class="st0" d="M138.368,98.455l-6.022,0.002c-0.398,0-0.78,0.159-1.062,0.44c-0.281,0.282-0.439,0.665-0.438,1.063
				l0.024,12.196c0.001,0.398,0.16,0.779,0.441,1.06c0.281,0.28,0.662,0.437,1.059,0.437h0.003l6.022-0.012
				c4.186-0.008,7.586-3.42,7.578-7.607C145.965,101.846,142.512,98.425,138.368,98.455z M138.389,110.64l-4.522,0.009l-0.019-9.193
				l4.522-0.001c2.531,0.023,4.597,2.052,4.602,4.584C142.978,108.571,140.921,110.635,138.389,110.64z"/>
		</g>
	</g>
	<g>
		<g>
			<path class="st0" d="M45.905,118.13c-0.001-0.828-0.673-1.497-1.5-1.497h-0.003c-0.829,0.001-1.499,0.674-1.497,1.503
				l0.081,40.758c0.001,0.827,0.673,1.497,1.5,1.497h0.003c0.829-0.002,1.499-0.675,1.497-1.503L45.905,118.13z"/>
		</g>
	</g>
	<g>
		<g>
			<polygon class="st18" points="68.977,120.624 62.713,120.636 58.88,145.814 65.911,153.774 72.899,145.787 			"/>
		</g>
	</g>
	<g>
		<g>
			<path class="st0" d="M74.381,145.556l-3.922-25.163c-0.114-0.73-0.743-1.269-1.482-1.269h-0.003l-6.264,0.012
				c-0.74,0.001-1.369,0.542-1.48,1.274l-3.833,25.178c-0.067,0.439,0.064,0.886,0.359,1.219l7.031,7.959
				c0.285,0.322,0.694,0.507,1.124,0.507h0.003c0.431-0.001,0.841-0.188,1.126-0.512l6.989-7.986
				C74.32,146.441,74.45,145.994,74.381,145.556z M65.905,151.502l-5.437-6.155l3.534-23.213l3.691-0.007l3.616,23.2L65.905,151.502
				z"/>
		</g>
	</g>
	<g>
		<g>
			<polygon class="st18" points="60.579,109.793 62.718,120.636 68.969,120.624 71.115,109.772 			"/>
		</g>
	</g>
	<g>
		<g>
			<path class="st0" d="M72.273,108.819c-0.285-0.346-0.71-0.547-1.158-0.547h-0.003l-10.536,0.021
				c-0.448,0.001-0.873,0.202-1.157,0.549c-0.284,0.346-0.399,0.802-0.312,1.241l2.139,10.844c0.139,0.703,0.755,1.21,1.472,1.21
				h0.003l6.251-0.012c0.715-0.001,1.33-0.507,1.469-1.209l2.146-10.852C72.673,109.622,72.559,109.166,72.273,108.819z
				 M67.736,119.126l-3.786,0.007l-1.547-7.845l6.885-0.014L67.736,119.126z"/>
		</g>
	</g>
	<g>
		<g>
			
				<rect x="54.547" y="96.208" transform="matrix(0.7974 -0.6034 0.6034 0.7974 -51.5608 56.2132)" class="st10" width="6.791" height="17.384"/>
		</g>
	</g>
	<g>
		<g>
			<path class="st0" d="M67.091,108.877l-10.49-13.862c-0.24-0.317-0.597-0.526-0.991-0.581c-0.393-0.051-0.793,0.05-1.111,0.29
				l-5.415,4.098c-0.661,0.5-0.791,1.441-0.291,2.102l10.49,13.862c0.24,0.317,0.597,0.526,0.991,0.581
				c0.068,0.009,0.137,0.014,0.206,0.014c0.325,0,0.643-0.105,0.905-0.304l5.416-4.098c0.317-0.24,0.526-0.597,0.581-0.991
				C67.435,109.594,67.331,109.194,67.091,108.877z M60.771,111.779l-8.68-11.47l3.023-2.288l8.68,11.47L60.771,111.779z"/>
		</g>
	</g>
	<g>
		<g>
			
				<rect x="65.092" y="101.473" transform="matrix(0.6003 -0.7998 0.7998 0.6003 -54.3799 100.9292)" class="st10" width="17.384" height="6.791"/>
		</g>
	</g>
	<g>
		<g>
			<path class="st0" d="M83.203,99.744c-0.056-0.394-0.266-0.75-0.584-0.988l-5.432-4.076c-0.662-0.497-1.601-0.364-2.1,0.299
				l-10.435,13.903c-0.497,0.663-0.363,1.603,0.299,2.1l5.431,4.077c0.261,0.196,0.578,0.3,0.9,0.3c0.07,0,0.141-0.005,0.212-0.015
				c0.394-0.056,0.749-0.266,0.988-0.584l10.436-13.904C83.156,100.537,83.259,100.137,83.203,99.744z M70.983,111.759l-3.032-2.276
				l8.634-11.504l3.032,2.275L70.983,111.759z"/>
		</g>
	</g>
	<g>
		<g>
			<path class="st3" d="M137.362,25.812c-0.974,11.564-13.024,13.389-13.024,13.389c10.347,0.487,12.925,14.059,12.925,14.059
				c0.221-9.677,13.321-14.202,13.321-14.202C140.77,38.471,137.362,25.812,137.362,25.812z"/>
		</g>
	</g>
	<g>
		<g>
			<path class="st0" d="M150.673,37.561c-8.604-0.514-11.832-12.024-11.863-12.14c-0.191-0.703-0.865-1.166-1.583-1.102
				c-0.725,0.066-1.298,0.642-1.359,1.367c-0.86,10.215-11.313,11.963-11.754,12.032c-0.763,0.115-1.313,0.79-1.273,1.561
				c0.04,0.77,0.657,1.384,1.427,1.421c9.028,0.425,11.498,12.719,11.522,12.843c0.137,0.711,0.759,1.217,1.472,1.217
				c0.042,0,0.084-0.001,0.126-0.005c0.764-0.064,1.357-0.693,1.375-1.459c0.195-8.509,12.192-12.777,12.313-12.819
				c0.675-0.235,1.092-0.915,0.994-1.623C151.971,38.145,151.387,37.604,150.673,37.561z M137.107,47.907
				c-1.356-3.13-3.708-6.907-7.586-8.876c2.931-1.405,6.409-3.913,8.202-8.273c1.551,3.071,4.199,6.88,8.334,8.722
				C143.049,41.12,139.133,43.886,137.107,47.907z"/>
		</g>
	</g>
	<g>
		<g>
			<path class="st3" d="M115.663,42.792c-0.689,8.179-9.213,9.47-9.213,9.47c7.318,0.344,9.142,9.944,9.142,9.944
				c0.156-6.844,9.422-10.045,9.422-10.045C118.074,51.747,115.663,42.792,115.663,42.792z"/>
		</g>
	</g>
	<g>
		<g>
			<path class="st0" d="M125.104,50.664c-5.766-0.345-7.972-8.185-7.993-8.264c-0.19-0.702-0.852-1.166-1.582-1.102
				c-0.726,0.065-1.299,0.642-1.36,1.368c-0.579,6.871-7.647,8.066-7.942,8.113c-0.763,0.115-1.313,0.79-1.273,1.561
				c0.04,0.77,0.657,1.384,1.427,1.421c6.035,0.284,7.724,8.644,7.739,8.726c0.135,0.712,0.759,1.22,1.472,1.22
				c0.042,0,0.083-0.001,0.125-0.005c0.765-0.063,1.358-0.694,1.376-1.461c0.13-5.709,8.331-8.634,8.412-8.662
				c0.677-0.234,1.094-0.913,0.996-1.622C126.403,51.249,125.819,50.707,125.104,50.664z M115.52,57.459
				c-0.924-1.886-2.34-3.947-4.447-5.28c1.855-1.041,3.697-2.63,4.871-4.916c1.057,1.874,2.654,3.954,4.941,5.223
				C119.035,53.587,116.896,55.227,115.52,57.459z"/>
		</g>
	</g>
	<g>
		<g>
			<path class="st3" d="M115.663,16.135c-0.689,8.179-9.213,9.471-9.213,9.471c7.318,0.344,9.142,9.944,9.142,9.944
				c0.156-6.845,9.422-10.045,9.422-10.045C118.074,25.089,115.663,16.135,115.663,16.135z"/>
		</g>
	</g>
	<g>
		<g>
			<path class="st0" d="M125.104,24.007c-5.766-0.345-7.972-8.186-7.994-8.265c-0.19-0.702-0.852-1.167-1.582-1.102
				c-0.726,0.065-1.299,0.642-1.36,1.368c-0.579,6.871-7.647,8.067-7.942,8.114c-0.763,0.115-1.313,0.79-1.273,1.561
				c0.04,0.77,0.657,1.384,1.428,1.421c6.035,0.284,7.723,8.644,7.739,8.726c0.135,0.713,0.759,1.22,1.473,1.22
				c0.041,0,0.083-0.001,0.125-0.005c0.765-0.063,1.358-0.694,1.376-1.461c0.13-5.709,8.331-8.634,8.412-8.662
				c0.676-0.234,1.094-0.913,0.996-1.622C126.403,24.591,125.819,24.05,125.104,24.007z M115.52,30.802
				c-0.924-1.885-2.34-3.947-4.447-5.28c1.855-1.041,3.697-2.63,4.871-4.916c1.057,1.874,2.654,3.954,4.941,5.224
				C119.035,26.93,116.896,28.569,115.52,30.802z"/>
		</g>
	</g>
	<g>
		<g>
			<path class="st14" d="M191.38,113.585c-0.05,0-0.1,0.01-0.15,0.01H175.4c19.01,11.55,30.99,32.5,30.99,54.97
				c0,30.31-20.49,37.88-56.25,38.76c2.59,0.07,5.26,0.1,8,0.1c40.69,0,64.25-6.36,64.25-38.86
				C222.39,146.085,210.4,125.135,191.38,113.585z"/>
		</g>
	</g>
	<g>
		<g>
			<path class="st14" d="M183.96,67.595c-3.11,0-5.94,1.25-7.99,3.29c2.1,2.07,3.4,4.95,3.4,8.12c0,1.15-0.17,2.29-0.51,3.38
				c-0.01,0.06-0.02,0.11-0.03,0.16l-5.84,15.94h16l5.84-15.94c0.01-0.05,0.02-0.1,0.03-0.16c0.34-1.09,0.51-2.23,0.51-3.38
				C195.37,72.715,190.26,67.595,183.96,67.595z"/>
		</g>
	</g>
	<g>
		<g>
			<path class="st20" d="M191.23,101.485h-16c2.51,0,4.55,2.05,4.55,4.55c0,2.51-2.04,4.56-4.55,4.56h16c2.51,0,4.55-2.05,4.55-4.56
				C195.78,103.535,193.74,101.485,191.23,101.485z"/>
		</g>
	</g>
</g>
</svg>
