<?xml version="1.0" encoding="utf-8"?>
<!-- Generator: Adobe Illustrator 22.0.1, SVG Export Plug-In . SVG Version: 6.00 Build 0)  -->
<svg version="1.1" id="Layer_1" xmlns="http://www.w3.org/2000/svg" xmlns:xlink="http://www.w3.org/1999/xlink" x="0px" y="0px"
	 viewBox="0 0 256 256" style="enable-background:new 0 0 256 256;" xml:space="preserve">
<style type="text/css">
	.st0{fill:#3A312A;}
	.st1{fill:#8AC6DD;}
	.st2{fill:#F16C7A;}
	.st3{fill:#D7E057;}
	.st4{fill:#87796F;}
	.st5{fill:#FCE8CB;}
	.st6{fill:#DECAAD;}
	.st7{fill:#D6DF58;}
	.st8{fill:#FAE6CA;}
	.st9{fill:#DDC9AC;}
	.st10{fill:#D5DE58;}
	.st11{fill:#ED6E7A;}
	.st12{fill:#8AC5DC;}
	.st13{fill:#6CA8BF;}
	.st14{fill:#695B51;}
	.st15{fill:#F8E4C8;}
	.st16{fill:#EF6D7A;}
	.st17{fill-rule:evenodd;clip-rule:evenodd;fill:#F8E4C8;}
	.st18{fill:#89C4DB;}
	.st19{fill:#F59689;}
	.st20{fill:#D34E5C;}
	.st21{fill:#F7E3C7;}
	.st22{fill:#8AC3DA;}
	.st23{fill-rule:evenodd;clip-rule:evenodd;fill:#F7E3C7;}
	.st24{fill-rule:evenodd;clip-rule:evenodd;fill:#87796F;}
	.st25{fill:#B9C239;}
	.st26{fill:#D4DB56;}
	.st27{fill-rule:evenodd;clip-rule:evenodd;fill:#F16C7A;}
	.st28{fill-rule:evenodd;clip-rule:evenodd;fill:#F6E2C6;}
	.st29{fill:#F6E2C6;}
	.st30{fill-rule:evenodd;clip-rule:evenodd;fill:#FAE6CA;}
	.st31{fill:#B8C136;}
</style>
<g>
	<g>
		<g>
			<path class="st7" d="M48.045,26.302c-0.974,11.564-13.025,13.39-13.025,13.39c10.347,0.487,12.925,14.059,12.925,14.059
				c0.221-9.677,13.321-14.202,13.321-14.202C51.453,38.961,48.045,26.302,48.045,26.302z"/>
		</g>
	</g>
	<g>
		<g>
			<path class="st0" d="M61.356,38.051c-8.604-0.514-11.832-12.024-11.863-12.141c-0.19-0.702-0.849-1.158-1.584-1.102
				c-0.725,0.066-1.298,0.642-1.359,1.367C45.69,36.391,35.237,38.14,34.796,38.208c-0.763,0.115-1.314,0.79-1.273,1.56
				c0.04,0.77,0.657,1.384,1.428,1.421c9.027,0.425,11.498,12.718,11.521,12.842c0.138,0.711,0.76,1.217,1.473,1.217
				c0.042,0,0.084-0.002,0.126-0.005c0.764-0.064,1.357-0.693,1.375-1.459c0.194-8.508,12.191-12.777,12.313-12.819
				c0.676-0.235,1.092-0.914,0.994-1.622C62.653,38.635,62.07,38.094,61.356,38.051z M47.79,48.397
				c-1.356-3.13-3.709-6.907-7.587-8.876c2.931-1.405,6.409-3.913,8.202-8.273c1.551,3.071,4.2,6.88,8.334,8.722
				C53.732,41.61,49.816,44.376,47.79,48.397z"/>
		</g>
	</g>
	<g>
		<g>
			<path class="st7" d="M26.346,43.283c-0.689,8.179-9.212,9.471-9.212,9.471c7.318,0.344,9.142,9.944,9.142,9.944
				c0.156-6.845,9.422-10.045,9.422-10.045C28.757,52.237,26.346,43.283,26.346,43.283z"/>
		</g>
	</g>
	<g>
		<g>
			<path class="st0" d="M35.788,51.154c-5.767-0.345-7.973-8.185-7.995-8.264c-0.19-0.702-0.864-1.161-1.581-1.102
				c-0.726,0.065-1.3,0.643-1.361,1.368c-0.578,6.871-7.646,8.067-7.941,8.114c-0.763,0.115-1.313,0.79-1.273,1.561
				c0.04,0.77,0.657,1.384,1.428,1.421c6.035,0.284,7.724,8.643,7.739,8.726c0.136,0.712,0.759,1.22,1.473,1.22
				c0.041,0,0.083-0.002,0.125-0.005c0.765-0.064,1.358-0.694,1.376-1.461c0.13-5.709,8.331-8.634,8.412-8.662
				c0.676-0.234,1.093-0.913,0.996-1.622C37.087,51.739,36.502,51.197,35.788,51.154z M26.203,57.95
				c-0.924-1.886-2.34-3.947-4.447-5.28c1.855-1.041,3.697-2.63,4.87-4.917c1.058,1.874,2.655,3.955,4.941,5.224
				C29.719,54.078,27.579,55.717,26.203,57.95z"/>
		</g>
	</g>
	<g>
		<g>
			<path class="st7" d="M26.346,16.625c-0.689,8.179-9.212,9.471-9.212,9.471c7.318,0.344,9.142,9.944,9.142,9.944
				c0.156-6.845,9.422-10.045,9.422-10.045C28.757,25.579,26.346,16.625,26.346,16.625z"/>
		</g>
	</g>
	<g>
		<g>
			<path class="st0" d="M35.788,24.497c-5.767-0.345-7.973-8.186-7.995-8.265c-0.19-0.702-0.864-1.16-1.581-1.102
				c-0.726,0.065-1.3,0.643-1.361,1.368c-0.578,6.871-7.646,8.067-7.941,8.114c-0.763,0.115-1.313,0.79-1.273,1.561
				c0.04,0.77,0.657,1.384,1.428,1.421c6.035,0.284,7.724,8.644,7.739,8.726c0.136,0.713,0.759,1.22,1.473,1.22
				c0.041,0,0.083-0.001,0.125-0.005c0.765-0.063,1.358-0.694,1.376-1.461c0.13-5.709,8.331-8.634,8.412-8.662
				c0.676-0.234,1.093-0.913,0.996-1.622C37.087,25.082,36.502,24.54,35.788,24.497z M26.203,31.292
				c-0.924-1.885-2.34-3.947-4.447-5.28c1.855-1.041,3.697-2.63,4.87-4.916c1.058,1.874,2.655,3.954,4.942,5.224
				C29.719,27.42,27.579,29.06,26.203,31.292z"/>
		</g>
	</g>
	<g>
		<g>
			<rect x="16.5" y="226.833" class="st4" width="223" height="12.92"/>
		</g>
	</g>
	<g>
		<g>
			<path class="st0" d="M239.5,225.333h-223c-0.828,0-1.5,0.671-1.5,1.5v12.92c0,0.829,0.672,1.5,1.5,1.5h223
				c0.828,0,1.5-0.671,1.5-1.5v-12.92C241,226.004,240.328,225.333,239.5,225.333z M238,238.253H18v-9.92h220V238.253z"/>
		</g>
	</g>
	<g>
		<g>
			<rect x="26.125" y="213.913" class="st4" width="203.75" height="12.92"/>
		</g>
	</g>
	<g>
		<g>
			<path class="st0" d="M229.875,212.413H26.125c-0.828,0-1.5,0.671-1.5,1.5v12.92c0,0.829,0.672,1.5,1.5,1.5h203.75
				c0.828,0,1.5-0.671,1.5-1.5v-12.92C231.375,213.084,230.703,212.413,229.875,212.413z M228.375,225.333H27.625v-9.92h200.75
				V225.333z"/>
		</g>
	</g>
	<g>
		<g>
			<path class="st15" d="M59.506,199.455H40.024c-3.55,0-6.427,2.878-6.427,6.427v8.03h32.337v-8.03
				C65.934,202.333,63.056,199.455,59.506,199.455z"/>
		</g>
	</g>
	<g>
		<g>
			<path class="st0" d="M59.507,197.955H40.024c-4.371,0-7.928,3.556-7.928,7.928v8.03c0,0.829,0.672,1.5,1.5,1.5h32.337
				c0.828,0,1.5-0.671,1.5-1.5v-8.03C67.434,201.511,63.878,197.955,59.507,197.955z M64.434,212.413H35.097v-6.53
				c0-2.717,2.211-4.928,4.928-4.928h19.482c2.717,0,4.927,2.21,4.927,4.928V212.413z"/>
		</g>
	</g>
	<g>
		<g>
			<path class="st15" d="M33.597,101.68v8.03c0,3.55,2.878,6.427,6.427,6.427h19.482c3.55,0,6.427-2.878,6.427-6.427v-8.03H33.597z"
				/>
		</g>
	</g>
	<g>
		<g>
			<path class="st0" d="M65.934,100.18H33.597c-0.828,0-1.5,0.671-1.5,1.5v8.03c0,4.371,3.557,7.927,7.928,7.927h19.482
				c4.371,0,7.927-3.556,7.927-7.927v-8.03C67.434,100.852,66.762,100.18,65.934,100.18z M64.434,109.71
				c0,2.717-2.21,4.927-4.927,4.927H40.024c-2.717,0-4.928-2.21-4.928-4.927v-6.53h29.337V109.71z"/>
		</g>
	</g>
	<g>
		<g>
			<rect x="39.856" y="116.138" class="st15" width="19.819" height="83.317"/>
		</g>
	</g>
	<g>
		<g>
			<path class="st0" d="M59.675,114.638H39.855c-0.828,0-1.5,0.671-1.5,1.5v34.17c0,0.829,0.672,1.5,1.5,1.5
				c0.828,0,1.5-0.671,1.5-1.5v-32.67h16.819v80.317H41.355v-33.471c0-0.829-0.672-1.5-1.5-1.5c-0.828,0-1.5,0.671-1.5,1.5v34.971
				c0,0.829,0.672,1.5,1.5,1.5h19.819c0.828,0,1.5-0.671,1.5-1.5v-83.317C61.175,115.309,60.503,114.638,59.675,114.638z"/>
		</g>
	</g>
	<g>
		<g>
			<path class="st15" d="M111.663,199.455H92.181c-3.55,0-6.427,2.878-6.427,6.427v8.03h32.337v-8.03
				C118.09,202.333,115.213,199.455,111.663,199.455z"/>
		</g>
	</g>
	<g>
		<g>
			<path class="st0" d="M111.663,197.955H92.181c-4.371,0-7.928,3.556-7.928,7.928v8.03c0,0.829,0.672,1.5,1.5,1.5h32.337
				c0.828,0,1.5-0.671,1.5-1.5v-8.03C119.59,201.511,116.034,197.955,111.663,197.955z M116.59,212.413H87.253v-6.53
				c0-2.717,2.211-4.928,4.928-4.928h19.482c2.717,0,4.927,2.21,4.927,4.928V212.413z"/>
		</g>
	</g>
	<g>
		<g>
			<path class="st15" d="M85.753,101.68v8.03c0,3.55,2.878,6.427,6.427,6.427h19.482c3.55,0,6.427-2.878,6.427-6.427v-8.03H85.753z"
				/>
		</g>
	</g>
	<g>
		<g>
			<path class="st0" d="M118.09,100.18H85.753c-0.828,0-1.5,0.671-1.5,1.5v8.03c0,4.371,3.557,7.927,7.928,7.927h19.482
				c4.371,0,7.927-3.556,7.927-7.927v-8.03C119.59,100.852,118.918,100.18,118.09,100.18z M116.59,109.71
				c0,2.717-2.21,4.927-4.927,4.927H92.181c-2.717,0-4.928-2.21-4.928-4.927v-6.53h29.337V109.71z"/>
		</g>
	</g>
	<g>
		<g>
			<rect x="92.012" y="116.138" class="st15" width="19.819" height="83.317"/>
		</g>
	</g>
	<g>
		<g>
			<path class="st0" d="M111.831,114.638H92.012c-0.828,0-1.5,0.671-1.5,1.5v83.317c0,0.829,0.672,1.5,1.5,1.5h19.819
				c0.828,0,1.5-0.671,1.5-1.5v-83.317C113.331,115.309,112.659,114.638,111.831,114.638z M110.331,197.955H93.512v-80.317h16.819
				V197.955z"/>
		</g>
	</g>
	<g>
		<g>
			<path class="st15" d="M163.819,199.455h-19.482c-3.55,0-6.427,2.878-6.427,6.427v8.03h32.337v-8.03
				C170.247,202.333,167.369,199.455,163.819,199.455z"/>
		</g>
	</g>
	<g>
		<g>
			<path class="st0" d="M163.819,197.955h-19.482c-4.371,0-7.927,3.556-7.927,7.928v8.03c0,0.829,0.672,1.5,1.5,1.5h32.337
				c0.828,0,1.5-0.671,1.5-1.5v-8.03C171.747,201.511,168.19,197.955,163.819,197.955z M168.747,212.413H139.41v-6.53
				c0-2.717,2.21-4.928,4.927-4.928h19.482c2.717,0,4.928,2.21,4.928,4.928V212.413z"/>
		</g>
	</g>
	<g>
		<g>
			<path class="st15" d="M137.91,101.68v8.03c0,3.55,2.878,6.427,6.427,6.427h19.482c3.55,0,6.427-2.878,6.427-6.427v-8.03H137.91z"
				/>
		</g>
	</g>
	<g>
		<g>
			<path class="st0" d="M170.247,100.18H137.91c-0.828,0-1.5,0.671-1.5,1.5v8.03c0,4.371,3.556,7.927,7.927,7.927h19.482
				c4.371,0,7.928-3.556,7.928-7.927v-8.03C171.747,100.852,171.075,100.18,170.247,100.18z M168.747,109.71
				c0,2.717-2.211,4.927-4.928,4.927h-19.482c-2.717,0-4.927-2.21-4.927-4.927v-6.53h29.337V109.71z"/>
		</g>
	</g>
	<g>
		<g>
			<rect x="144.168" y="116.138" class="st15" width="19.82" height="83.317"/>
		</g>
	</g>
	<g>
		<g>
			<path class="st0" d="M163.988,114.638h-19.819c-0.828,0-1.5,0.671-1.5,1.5v83.317c0,0.829,0.672,1.5,1.5,1.5h19.819
				c0.828,0,1.5-0.671,1.5-1.5v-83.317C165.488,115.309,164.816,114.638,163.988,114.638z M162.488,197.955h-16.819v-80.317h16.819
				V197.955z"/>
		</g>
	</g>
	<g>
		<g>
			<path class="st15" d="M215.976,199.455h-19.482c-3.55,0-6.427,2.878-6.427,6.427v8.03h32.337v-8.03
				C222.403,202.333,219.526,199.455,215.976,199.455z"/>
		</g>
	</g>
	<g>
		<g>
			<path class="st0" d="M215.976,197.955h-19.482c-4.371,0-7.927,3.556-7.927,7.928v8.03c0,0.829,0.672,1.5,1.5,1.5h32.337
				c0.828,0,1.5-0.671,1.5-1.5v-8.03C223.903,201.511,220.347,197.955,215.976,197.955z M220.903,212.413h-29.337v-6.53
				c0-2.717,2.21-4.928,4.927-4.928h19.482c2.717,0,4.928,2.21,4.928,4.928V212.413z"/>
		</g>
	</g>
	<g>
		<g>
			<path class="st15" d="M190.066,101.68v8.03c0,3.55,2.878,6.427,6.427,6.427h19.482c3.55,0,6.427-2.878,6.427-6.427v-8.03H190.066
				z"/>
		</g>
	</g>
	<g>
		<g>
			<path class="st0" d="M222.403,100.18h-32.337c-0.828,0-1.5,0.671-1.5,1.5v8.03c0,4.371,3.556,7.927,7.927,7.927h19.482
				c4.371,0,7.928-3.556,7.928-7.927v-8.03C223.903,100.852,223.231,100.18,222.403,100.18z M220.903,109.71
				c0,2.717-2.211,4.927-4.928,4.927h-19.482c-2.717,0-4.927-2.21-4.927-4.927v-6.53h29.337V109.71z"/>
		</g>
	</g>
	<g>
		<g>
			<rect x="196.325" y="116.138" class="st15" width="19.819" height="83.317"/>
		</g>
	</g>
	<g>
		<g>
			<path class="st0" d="M216.145,114.638h-19.819c-0.828,0-1.5,0.671-1.5,1.5v83.317c0,0.829,0.672,1.5,1.5,1.5h19.819
				c0.828,0,1.5-0.671,1.5-1.5v-83.317C217.645,115.309,216.973,114.638,216.145,114.638z M214.645,197.955h-16.819v-80.317h16.819
				V197.955z"/>
		</g>
	</g>
	<g>
		<g>
			<path class="st12" d="M237.32,91.63L131.171,17.248c-1.904-1.334-4.438-1.334-6.342,0l-47.336,33.17L66.04,58.443L18.68,91.63
				c-4.423,3.099-2.23,10.051,3.171,10.051h212.299C239.55,101.68,241.743,94.729,237.32,91.63z"/>
		</g>
	</g>
	<g>
		<g>
			<path class="st0" d="M238.181,90.401L132.031,16.019c-2.41-1.689-5.652-1.689-8.063,0l-47.336,33.17
				c-0.679,0.476-0.844,1.411-0.368,2.089c0.476,0.679,1.411,0.842,2.089,0.368l47.336-33.17c1.383-0.969,3.238-0.968,4.621,0
				L236.46,92.858c1.781,1.249,1.958,3.147,1.528,4.508c-0.429,1.36-1.663,2.814-3.839,2.814H21.851
				c-2.176,0-3.41-1.454-3.839-2.814c-0.43-1.361-0.253-3.259,1.528-4.508L66.9,59.671c0.679-0.476,0.844-1.411,0.368-2.089
				c-0.477-0.679-1.411-0.843-2.089-0.368l-47.36,33.187c-2.563,1.795-3.61,4.883-2.669,7.867c0.941,2.984,3.571,4.912,6.7,4.912
				h212.299c3.129,0,5.759-1.928,6.7-4.912C241.791,95.285,240.743,92.197,238.181,90.401z"/>
		</g>
	</g>
	<g>
		<g>
			
				<ellipse transform="matrix(0.9871 -0.1602 0.1602 0.9871 -8.4204 21.3153)" class="st3" cx="128" cy="62.886" rx="26.472" ry="26.472"/>
		</g>
	</g>
	<g>
		<g>
			<path class="st0" d="M128,34.914c-15.424,0-27.973,12.548-27.973,27.973c0,15.424,12.549,27.972,27.973,27.972
				s27.973-12.548,27.973-27.972C155.973,47.462,143.424,34.914,128,34.914z M128,87.858c-13.769,0-24.973-11.203-24.973-24.972
				c0-13.77,11.203-24.973,24.973-24.973c13.77,0,24.973,11.203,24.973,24.973C152.973,76.656,141.77,87.858,128,87.858z"/>
		</g>
	</g>
	<g>
		<g>
			<path class="st4" d="M131.147,59.893c-3.855-1.451-5.443-2.404-5.443-3.901c0-1.27,0.953-2.54,3.901-2.54
				c3.265,0,5.352,1.043,6.531,1.542l1.316-5.125c-1.497-0.726-3.538-1.362-6.577-1.497V44.38h-4.445v4.309
				c-4.853,0.953-7.665,4.082-7.665,8.074c0,4.4,3.311,6.668,8.164,8.301c3.357,1.134,4.808,2.223,4.808,3.946
				c0,1.815-1.769,2.813-4.354,2.813c-2.949,0-5.624-0.953-7.53-1.995l-1.361,5.306c1.724,0.998,4.672,1.814,7.71,1.95v4.309h4.445
				v-4.627c5.216-0.906,8.074-4.354,8.074-8.391C138.722,64.292,136.544,61.798,131.147,59.893z"/>
		</g>
	</g>
	<g>
		<g>
			<path class="st0" d="M131.676,58.489c-1.105-0.417-4.472-1.683-4.472-2.497c0-0.938,1.68-1.04,2.401-1.04
				c2.668,0,4.434,0.768,5.603,1.275l0.343,0.148c0.404,0.17,0.859,0.156,1.25-0.037c0.392-0.193,0.68-0.548,0.788-0.971
				l1.315-5.125c0.177-0.691-0.157-1.412-0.799-1.723c-1.672-0.811-3.557-1.318-5.731-1.542V44.38c0-0.829-0.672-1.5-1.5-1.5h-4.445
				c-0.828,0-1.5,0.671-1.5,1.5v3.125c-4.761,1.348-7.665,4.81-7.665,9.257c0,5.878,4.909,8.283,9.184,9.721
				c3.789,1.281,3.789,2.121,3.789,2.525c0,1.276-2.563,1.313-2.854,1.313c-3.045,0-5.573-1.135-6.81-1.811
				c-0.406-0.223-0.892-0.244-1.317-0.06c-0.425,0.185-0.74,0.555-0.856,1.003l-1.361,5.306c-0.167,0.651,0.12,1.334,0.702,1.671
				c1.736,1.005,4.313,1.75,6.962,2.039v2.921c0,0.829,0.672,1.5,1.5,1.5h4.445c0.828,0,1.5-0.671,1.5-1.5v-3.419
				c4.946-1.303,8.073-4.964,8.073-9.598C140.222,63.624,137.577,60.571,131.676,58.489z M130.392,75.287
				c-0.719,0.125-1.243,0.749-1.243,1.478v3.126h-1.445v-2.809c0-0.802-0.631-1.462-1.433-1.498
				c-2.152-0.097-4.387-0.572-6.023-1.258l0.606-2.361c1.642,0.683,3.922,1.357,6.529,1.357c3.557,0,5.854-1.693,5.854-4.313
				c0-2.986-2.801-4.344-5.83-5.368c-5.073-1.706-7.143-3.699-7.143-6.878c0-3.341,2.413-5.809,6.454-6.603
				c0.703-0.138,1.211-0.755,1.211-1.472V45.88h1.445v2.492c0,0.803,0.632,1.463,1.434,1.498c1.861,0.083,3.466,0.371,4.869,0.877
				l-0.563,2.197c-1.315-0.493-3.125-0.993-5.509-0.993c-3.983,0-5.401,2.087-5.401,4.04c0,2.677,2.78,3.937,6.444,5.315
				c5.455,1.926,6.573,4.218,6.573,7.067C137.222,71.906,134.604,74.555,130.392,75.287z"/>
		</g>
	</g>
	<g>
		<g>
			<rect x="220" y="228.332" class="st14" width="18" height="9.92"/>
		</g>
	</g>
	<g>
		<g>
			<rect x="210.38" y="215.412" class="st14" width="18" height="9.92"/>
		</g>
	</g>
	<g>
		<g>
			<path class="st13" d="M236.46,92.862l-106.15-74.39c-0.69-0.48-1.5-0.72-2.31-0.72s-1.62,0.24-2.31,0.72l-6.69,4.69l19.96,13.99
				c3.59,1.53,6.79,3.79,9.42,6.6l70.08,49.11c1.78,1.24,1.96,3.14,1.53,4.5c-0.43,1.36-1.66,2.82-3.84,2.82h18
				c2.18,0,3.41-1.46,3.84-2.82C238.42,96.002,238.24,94.102,236.46,92.862z"/>
		</g>
	</g>
</g>
</svg>
