<?xml version="1.0" encoding="utf-8"?>
<!-- Generator: Adobe Illustrator 22.0.1, SVG Export Plug-In . SVG Version: 6.00 Build 0)  -->
<svg version="1.1" id="Layer_1" xmlns="http://www.w3.org/2000/svg" xmlns:xlink="http://www.w3.org/1999/xlink" x="0px" y="0px"
	 viewBox="0 0 256 256" style="enable-background:new 0 0 256 256;" xml:space="preserve">
<style type="text/css">
	.st0{fill:#3A312A;}
	.st1{fill:#8AC6DD;}
	.st2{fill:#F16C7A;}
	.st3{fill:#D7E057;}
	.st4{fill:#87796F;}
	.st5{fill:#FCE8CB;}
	.st6{fill:#DECAAD;}
	.st7{fill:#D6DF58;}
	.st8{fill:#FAE6CA;}
	.st9{fill:#DDC9AC;}
	.st10{fill:#D5DE58;}
	.st11{fill:#ED6E7A;}
	.st12{fill:#8AC5DC;}
	.st13{fill:#6CA8BF;}
	.st14{fill:#695B51;}
	.st15{fill:#F8E4C8;}
	.st16{fill:#EF6D7A;}
	.st17{fill-rule:evenodd;clip-rule:evenodd;fill:#F8E4C8;}
	.st18{fill:#89C4DB;}
	.st19{fill:#F59689;}
	.st20{fill:#D34E5C;}
	.st21{fill:#F7E3C7;}
	.st22{fill:#8AC3DA;}
	.st23{fill-rule:evenodd;clip-rule:evenodd;fill:#F7E3C7;}
	.st24{fill-rule:evenodd;clip-rule:evenodd;fill:#87796F;}
	.st25{fill:#B9C239;}
	.st26{fill:#D4DB56;}
	.st27{fill-rule:evenodd;clip-rule:evenodd;fill:#F16C7A;}
	.st28{fill-rule:evenodd;clip-rule:evenodd;fill:#F6E2C6;}
	.st29{fill:#F6E2C6;}
	.st30{fill-rule:evenodd;clip-rule:evenodd;fill:#FAE6CA;}
	.st31{fill:#B8C136;}
</style>
<g>
	<g>
		<g>
			<path class="st4" d="M78.3,33.753v89.401c0,2.676,2.17,4.846,4.846,4.846h89.709c2.676,0,4.846-2.169,4.846-4.846V33.753H78.3z"
				/>
		</g>
	</g>
	<g>
		<g>
			<path class="st0" d="M177.7,32.253H78.3c-0.829,0-1.5,0.671-1.5,1.5v89.401c0,3.499,2.847,6.346,6.346,6.346h89.709
				c3.499,0,6.346-2.847,6.346-6.346V33.753C179.2,32.924,178.529,32.253,177.7,32.253z M176.2,123.154
				c0,1.845-1.501,3.346-3.346,3.346H83.146c-1.845,0-3.346-1.501-3.346-3.346V35.253h96.4V123.154z"/>
		</g>
	</g>
	<g>
		<g>
			<path class="st4" d="M180.154,16.385H75.846c-2.676,0-4.846,2.17-4.846,4.846v7.676c0,2.676,2.169,4.846,4.846,4.846h104.308
				c2.676,0,4.846-2.17,4.846-4.846v-7.676C185,18.555,182.831,16.385,180.154,16.385z"/>
		</g>
	</g>
	<g>
		<g>
			<path class="st0" d="M180.154,14.885h-29.649c-0.829,0-1.5,0.671-1.5,1.5c0,0.829,0.671,1.5,1.5,1.5h29.649
				c1.845,0,3.346,1.501,3.346,3.346v7.676c0,1.845-1.501,3.346-3.346,3.346H75.846c-1.845,0-3.346-1.501-3.346-3.346v-7.676
				c0-1.845,1.501-3.346,3.346-3.346h60.982c0.829,0,1.5-0.671,1.5-1.5c0-0.829-0.671-1.5-1.5-1.5H75.846
				c-3.499,0-6.346,2.847-6.346,6.346v7.676c0,3.5,2.847,6.346,6.346,6.346h104.309c3.499,0,6.346-2.847,6.346-6.346v-7.676
				C186.5,17.732,183.653,14.885,180.154,14.885z"/>
		</g>
	</g>
	<g>
		<g>
			<path class="st10" d="M127.63,44.839c0,0-6.5,10.434-6.5,23.305s6.5,34.73,6.5,34.73s6.5-21.859,6.5-34.73
				S127.63,44.839,127.63,44.839z"/>
		</g>
	</g>
	<g>
		<g>
			<path class="st0" d="M128.903,44.046c-0.273-0.44-0.755-0.707-1.273-0.707c-0.518,0-0.999,0.267-1.273,0.707
				c-0.275,0.441-6.726,10.949-6.726,24.098c0,12.94,6.294,34.257,6.561,35.158c0.189,0.637,0.774,1.073,1.438,1.073
				c0.664,0,1.249-0.436,1.438-1.073c0.267-0.901,6.561-22.218,6.561-35.158C135.63,54.995,129.178,44.487,128.903,44.046z
				 M127.63,97.233c-1.897-7.222-4.999-20.364-4.999-29.089c0-8.756,3.165-16.433,4.999-20.145c1.834,3.712,5,11.389,5,20.145
				C132.63,76.866,129.528,90.01,127.63,97.233z"/>
		</g>
	</g>
	<g>
		<g>
			<path class="st10" d="M145.211,76.235c-8.065,8.281-17.581,26.638-17.581,26.638s17.879-9.77,25.944-18.051
				c8.065-8.281,10.421-19.287,10.421-19.287S153.276,67.955,145.211,76.235z"/>
		</g>
	</g>
	<g>
		<g>
			<path class="st0" d="M165.05,64.469c-0.363-0.36-0.885-0.508-1.385-0.397c-0.455,0.103-11.249,2.615-19.529,11.117
				c-8.126,8.344-17.445,26.237-17.837,26.995c-0.304,0.586-0.189,1.301,0.283,1.763c0.287,0.281,0.666,0.428,1.049,0.428
				c0.246,0,0.493-0.06,0.719-0.184c0.738-0.403,18.17-9.975,26.299-18.321c8.272-8.493,10.713-19.553,10.814-20.019
				C165.569,65.349,165.414,64.829,165.05,64.469z M152.5,83.776c-5.328,5.47-15.205,11.703-21.006,15.146
				c3.346-5.949,9.441-16.146,14.792-21.64c5.341-5.484,11.981-8.314,15.529-9.529C160.644,71.384,157.889,78.243,152.5,83.776z"/>
		</g>
	</g>
	<g>
		<g>
			<path class="st10" d="M143.868,99.67c-6.017,0-16.237,3.204-16.237,3.204s10.22,3.203,16.237,3.203s10.896-3.203,10.896-3.203
				S149.885,99.67,143.868,99.67z"/>
		</g>
	</g>
	<g>
		<g>
			<path class="st0" d="M155.586,101.62c-0.214-0.141-5.326-3.45-11.719-3.45c-6.176,0-16.26,3.139-16.686,3.272
				c-0.625,0.196-1.051,0.775-1.051,1.431c0,0.656,0.426,1.235,1.051,1.431c0.426,0.134,10.51,3.272,16.686,3.272
				c6.393,0,11.504-3.309,11.719-3.45c0.422-0.277,0.677-0.748,0.677-1.254C156.263,102.369,156.009,101.897,155.586,101.62z
				 M143.868,104.578c-3.039,0-7.282-0.877-10.604-1.704c3.321-0.826,7.562-1.703,10.604-1.703c3.031,0,5.783,0.899,7.641,1.706
				C149.656,103.682,146.913,104.578,143.868,104.578z"/>
		</g>
	</g>
	<g>
		<g>
			<path class="st10" d="M110.05,76.235c-8.065-8.281-18.785-10.7-18.785-10.7s2.356,11.007,10.421,19.287
				c8.065,8.281,25.944,18.051,25.944,18.051S118.115,84.516,110.05,76.235z"/>
		</g>
	</g>
	<g>
		<g>
			<path class="st0" d="M128.962,102.184c-0.393-0.757-9.711-18.651-17.837-26.995c-8.28-8.502-19.074-11.014-19.529-11.117
				c-0.497-0.112-1.021,0.037-1.385,0.397c-0.364,0.36-0.519,0.88-0.412,1.38c0.1,0.467,2.542,11.527,10.814,20.019
				c8.129,8.347,25.561,17.918,26.299,18.321c0.226,0.124,0.473,0.184,0.719,0.184c0.383,0,0.762-0.146,1.049-0.428
				C129.151,103.485,129.266,102.769,128.962,102.184z M102.761,83.776c-5.376-5.52-8.137-12.391-9.313-16.027
				c3.544,1.21,10.171,4.034,15.526,9.532c5.349,5.492,11.445,15.69,14.792,21.64C117.966,95.48,108.091,89.248,102.761,83.776z"/>
		</g>
	</g>
	<g>
		<g>
			<path class="st10" d="M111.393,99.67c-6.017,0-10.895,3.204-10.895,3.204s4.878,3.203,10.895,3.203
				c6.018,0,16.237-3.203,16.237-3.203S117.411,99.67,111.393,99.67z"/>
		</g>
	</g>
	<g>
		<g>
			<path class="st0" d="M128.079,101.443c-0.426-0.134-10.51-3.272-16.686-3.272c-6.393,0-11.504,3.309-11.719,3.45
				c-0.422,0.277-0.677,0.749-0.677,1.254c0,0.505,0.254,0.977,0.677,1.254c0.214,0.141,5.326,3.45,11.719,3.45
				c6.176,0,16.26-3.139,16.686-3.272c0.625-0.196,1.051-0.775,1.051-1.431C129.13,102.218,128.705,101.639,128.079,101.443z
				 M111.393,104.578c-3.031,0-5.783-0.899-7.641-1.706c1.852-0.806,4.596-1.701,7.641-1.701c3.039,0,7.282,0.878,10.604,1.704
				C118.676,103.701,114.435,104.578,111.393,104.578z"/>
		</g>
	</g>
	<g>
		<g>
			<path class="st0" d="M127.63,101.374c-0.829,0-1.5,0.671-1.5,1.5v12.541c0,0.829,0.671,1.5,1.5,1.5c0.829,0,1.5-0.671,1.5-1.5
				v-12.541C129.13,102.045,128.459,101.374,127.63,101.374z"/>
		</g>
	</g>
	<g>
		<g>
			<path class="st4" d="M21.3,145.367v89.401c0,2.676,2.17,4.846,4.846,4.846h89.709c2.676,0,4.846-2.17,4.846-4.846v-89.401H21.3z"
				/>
		</g>
	</g>
	<g>
		<g>
			<path class="st0" d="M120.7,143.867H21.3c-0.829,0-1.5,0.671-1.5,1.5v19.204c0,0.829,0.671,1.5,1.5,1.5s1.5-0.671,1.5-1.5
				v-17.704h96.4v87.902c0,1.845-1.501,3.346-3.346,3.346H26.146c-1.845,0-3.346-1.501-3.346-3.346v-56.007
				c0-0.829-0.671-1.5-1.5-1.5s-1.5,0.671-1.5,1.5v56.007c0,3.499,2.847,6.346,6.346,6.346h89.709c3.499,0,6.346-2.847,6.346-6.346
				v-89.402C122.2,144.539,121.529,143.867,120.7,143.867z"/>
		</g>
	</g>
	<g>
		<g>
			<path class="st4" d="M123.154,128H18.846c-2.676,0-4.846,2.169-4.846,4.846v7.676c0,2.676,2.169,4.846,4.846,4.846h104.308
				c2.676,0,4.846-2.169,4.846-4.846v-7.676C128,130.169,125.831,128,123.154,128z"/>
		</g>
	</g>
	<g>
		<g>
			<path class="st0" d="M123.154,126.5H18.846c-3.499,0-6.346,2.847-6.346,6.346v7.676c0,3.499,2.847,6.346,6.346,6.346h104.309
				c3.499,0,6.346-2.847,6.346-6.346v-7.676C129.5,129.347,126.653,126.5,123.154,126.5z M126.5,140.521
				c0,1.845-1.501,3.346-3.346,3.346H18.846c-1.845,0-3.346-1.501-3.346-3.346v-7.676c0-1.845,1.501-3.346,3.346-3.346h104.309
				c1.845,0,3.346,1.501,3.346,3.346V140.521z"/>
		</g>
	</g>
	<g>
		<g>
			<path class="st10" d="M70.63,156.453c0,0-6.5,10.434-6.5,23.305c0,12.871,6.5,34.73,6.5,34.73s6.5-21.859,6.5-34.73
				C77.13,166.887,70.63,156.453,70.63,156.453z"/>
		</g>
	</g>
	<g>
		<g>
			<path class="st0" d="M71.903,155.661c-0.273-0.44-0.755-0.707-1.273-0.707c-0.518,0-0.999,0.267-1.273,0.707
				c-0.275,0.441-6.727,10.949-6.727,24.098c0,12.94,6.294,34.256,6.561,35.158c0.189,0.636,0.774,1.072,1.438,1.072
				c0.664,0,1.249-0.436,1.438-1.072c0.267-0.901,6.561-22.218,6.561-35.158C78.63,166.609,72.178,156.102,71.903,155.661z
				 M70.63,208.847c-1.897-7.222-4.999-20.363-4.999-29.089c0-8.756,3.165-16.433,4.999-20.145c1.834,3.712,5,11.389,5,20.145
				C75.63,188.481,72.528,201.624,70.63,208.847z"/>
		</g>
	</g>
	<g>
		<g>
			<path class="st10" d="M88.211,187.85c-8.065,8.281-17.581,26.638-17.581,26.638s17.879-9.77,25.944-18.051
				c8.065-8.281,10.421-19.287,10.421-19.287S96.276,179.569,88.211,187.85z"/>
		</g>
	</g>
	<g>
		<g>
			<path class="st0" d="M108.05,176.083c-0.363-0.359-0.885-0.507-1.385-0.397c-0.455,0.103-11.249,2.615-19.529,11.117
				c-8.126,8.344-17.445,26.237-17.837,26.994c-0.304,0.586-0.189,1.301,0.283,1.763c0.287,0.281,0.666,0.428,1.049,0.428
				c0.246,0,0.493-0.06,0.719-0.184c0.738-0.403,18.17-9.974,26.299-18.321c8.272-8.493,10.713-19.553,10.814-20.02
				C108.569,176.963,108.414,176.443,108.05,176.083z M95.5,195.391c-5.328,5.47-15.205,11.703-21.006,15.145
				c3.346-5.949,9.441-16.146,14.792-21.64c5.341-5.484,11.981-8.315,15.529-9.53C103.644,182.998,100.889,189.857,95.5,195.391z"/>
		</g>
	</g>
	<g>
		<g>
			<path class="st10" d="M86.868,211.285c-6.017,0-16.237,3.204-16.237,3.204s10.22,3.203,16.237,3.203s10.896-3.203,10.896-3.203
				S92.885,211.285,86.868,211.285z"/>
		</g>
	</g>
	<g>
		<g>
			<path class="st0" d="M98.586,213.234c-0.214-0.141-5.326-3.45-11.719-3.45c-6.176,0-16.26,3.139-16.686,3.272
				c-0.625,0.196-1.051,0.775-1.051,1.431c0,0.656,0.426,1.235,1.051,1.431c0.426,0.134,10.51,3.273,16.686,3.273
				c6.393,0,11.504-3.309,11.719-3.45c0.422-0.277,0.677-0.748,0.677-1.254C99.263,213.983,99.009,213.512,98.586,213.234z
				 M86.868,216.192c-3.039,0-7.282-0.877-10.604-1.704c3.321-0.826,7.562-1.703,10.604-1.703c3.031,0,5.783,0.899,7.641,1.706
				C92.656,215.296,89.913,216.192,86.868,216.192z"/>
		</g>
	</g>
	<g>
		<g>
			<path class="st10" d="M53.05,187.85c-8.065-8.281-18.785-10.7-18.785-10.7s2.356,11.007,10.421,19.287
				c8.065,8.281,25.944,18.051,25.944,18.051S61.115,196.131,53.05,187.85z"/>
		</g>
	</g>
	<g>
		<g>
			<path class="st0" d="M71.962,213.798c-0.393-0.757-9.711-18.65-17.837-26.994c-8.28-8.502-19.074-11.014-19.529-11.117
				c-0.497-0.11-1.021,0.038-1.385,0.397c-0.364,0.36-0.519,0.88-0.412,1.38c0.1,0.467,2.542,11.527,10.814,20.02
				c8.129,8.347,25.561,17.917,26.299,18.321c0.226,0.123,0.473,0.184,0.719,0.184c0.383,0,0.762-0.146,1.049-0.428
				C72.151,215.099,72.266,214.384,71.962,213.798z M45.761,195.391c-5.374-5.518-8.135-12.387-9.311-16.023
				c3.549,1.216,10.186,4.046,15.525,9.528c5.349,5.492,11.445,15.69,14.792,21.64C60.966,207.095,51.091,200.863,45.761,195.391z"
				/>
		</g>
	</g>
	<g>
		<g>
			<path class="st10" d="M54.393,211.285c-6.017,0-10.895,3.204-10.895,3.204s4.878,3.203,10.895,3.203
				c6.018,0,16.237-3.203,16.237-3.203S60.411,211.285,54.393,211.285z"/>
		</g>
	</g>
	<g>
		<g>
			<path class="st0" d="M71.079,213.057c-0.426-0.134-10.51-3.272-16.686-3.272c-6.393,0-11.504,3.309-11.719,3.45
				c-0.422,0.277-0.677,0.749-0.677,1.254c0,0.505,0.254,0.977,0.677,1.254c0.214,0.141,5.326,3.45,11.719,3.45
				c6.176,0,16.26-3.139,16.686-3.273c0.625-0.196,1.051-0.775,1.051-1.431C72.13,213.832,71.705,213.253,71.079,213.057z
				 M54.393,216.192c-3.031,0-5.783-0.899-7.641-1.706c1.852-0.806,4.596-1.701,7.641-1.701c3.039,0,7.282,0.877,10.604,1.704
				C61.676,215.315,57.435,216.192,54.393,216.192z"/>
		</g>
	</g>
	<g>
		<g>
			<path class="st0" d="M70.63,212.988c-0.829,0-1.5,0.671-1.5,1.5v12.541c0,0.829,0.671,1.5,1.5,1.5c0.829,0,1.5-0.671,1.5-1.5
				v-12.541C72.13,213.66,71.459,212.988,70.63,212.988z"/>
		</g>
	</g>
	<g>
		<g>
			<path class="st4" d="M135.3,145.367v89.401c0,2.676,2.17,4.846,4.846,4.846h89.709c2.676,0,4.846-2.17,4.846-4.846v-89.401H135.3
				z"/>
		</g>
	</g>
	<g>
		<g>
			<path class="st0" d="M234.7,143.867h-99.4c-0.829,0-1.5,0.671-1.5,1.5v89.402c0,3.499,2.847,6.346,6.346,6.346h89.709
				c3.499,0,6.346-2.847,6.346-6.346v-89.402C236.2,144.539,235.529,143.867,234.7,143.867z M233.2,234.769
				c0,1.845-1.501,3.346-3.346,3.346h-89.709c-1.845,0-3.346-1.501-3.346-3.346v-87.902h96.4V234.769z"/>
		</g>
	</g>
	<g>
		<g>
			<path class="st4" d="M237.154,128H132.846c-2.676,0-4.846,2.169-4.846,4.846v7.676c0,2.676,2.169,4.846,4.846,4.846h104.308
				c2.676,0,4.846-2.169,4.846-4.846v-7.676C242,130.169,239.831,128,237.154,128z"/>
		</g>
	</g>
	<g>
		<g>
			<path class="st0" d="M237.154,126.5H132.846c-3.499,0-6.346,2.847-6.346,6.346v7.676c0,3.499,2.847,6.346,6.346,6.346h104.309
				c3.499,0,6.346-2.847,6.346-6.346v-7.676C243.5,129.347,240.653,126.5,237.154,126.5z M240.5,140.521
				c0,1.845-1.501,3.346-3.346,3.346H132.846c-1.845,0-3.346-1.501-3.346-3.346v-7.676c0-1.845,1.501-3.346,3.346-3.346h104.309
				c1.845,0,3.346,1.501,3.346,3.346V140.521z"/>
		</g>
	</g>
	<g>
		<g>
			<path class="st10" d="M184.63,156.453c0,0-6.5,10.434-6.5,23.305c0,12.871,6.5,34.73,6.5,34.73s6.5-21.859,6.5-34.73
				C191.13,166.887,184.63,156.453,184.63,156.453z"/>
		</g>
	</g>
	<g>
		<g>
			<path class="st0" d="M185.903,155.661c-0.273-0.44-0.755-0.707-1.273-0.707c-0.518,0-0.999,0.267-1.273,0.707
				c-0.275,0.441-6.726,10.949-6.726,24.098c0,12.94,6.294,34.256,6.561,35.158c0.189,0.636,0.774,1.072,1.438,1.072
				c0.664,0,1.249-0.436,1.438-1.072c0.268-0.901,6.562-22.218,6.562-35.158C192.63,166.609,186.178,156.102,185.903,155.661z
				 M184.63,208.847c-1.897-7.222-4.999-20.363-4.999-29.089c0-8.756,3.165-16.433,4.999-20.145c1.834,3.712,5,11.389,5,20.145
				C189.63,188.481,186.528,201.624,184.63,208.847z"/>
		</g>
	</g>
	<g>
		<g>
			<path class="st10" d="M202.211,187.85c-8.065,8.281-17.581,26.638-17.581,26.638s17.879-9.77,25.944-18.051
				c8.065-8.281,10.421-19.287,10.421-19.287S210.276,179.569,202.211,187.85z"/>
		</g>
	</g>
	<g>
		<g>
			<path class="st0" d="M222.05,176.083c-0.363-0.359-0.885-0.507-1.385-0.397c-0.455,0.103-11.249,2.615-19.529,11.117
				c-8.126,8.344-17.445,26.237-17.837,26.994c-0.304,0.586-0.189,1.301,0.283,1.763c0.287,0.281,0.666,0.428,1.049,0.428
				c0.246,0,0.493-0.06,0.719-0.184c0.738-0.403,18.17-9.974,26.299-18.321c8.272-8.493,10.713-19.553,10.814-20.02
				C222.569,176.963,222.414,176.443,222.05,176.083z M209.5,195.391c-5.328,5.47-15.205,11.703-21.006,15.145
				c3.346-5.949,9.441-16.146,14.792-21.64c5.341-5.484,11.981-8.315,15.529-9.53C217.644,182.998,214.889,189.857,209.5,195.391z"
				/>
		</g>
	</g>
	<g>
		<g>
			<path class="st10" d="M200.868,211.285c-6.017,0-16.237,3.204-16.237,3.204s10.22,3.203,16.237,3.203s10.896-3.203,10.896-3.203
				S206.885,211.285,200.868,211.285z"/>
		</g>
	</g>
	<g>
		<g>
			<path class="st0" d="M212.586,213.234c-0.214-0.141-5.326-3.45-11.719-3.45c-6.176,0-16.26,3.139-16.686,3.272
				c-0.625,0.196-1.051,0.775-1.051,1.431c0,0.656,0.426,1.235,1.051,1.431c0.426,0.134,10.51,3.273,16.686,3.273
				c6.393,0,11.504-3.309,11.719-3.45c0.422-0.277,0.677-0.748,0.677-1.254C213.263,213.983,213.009,213.512,212.586,213.234z
				 M200.868,216.192c-3.039,0-7.282-0.877-10.604-1.704c3.321-0.826,7.562-1.703,10.604-1.703c3.031,0,5.783,0.899,7.641,1.706
				C206.656,215.296,203.913,216.192,200.868,216.192z"/>
		</g>
	</g>
	<g>
		<g>
			<path class="st10" d="M167.05,187.85c-8.065-8.281-18.785-10.7-18.785-10.7s2.356,11.007,10.421,19.287
				c8.065,8.281,25.944,18.051,25.944,18.051S175.115,196.131,167.05,187.85z"/>
		</g>
	</g>
	<g>
		<g>
			<path class="st0" d="M185.962,213.798c-0.393-0.757-9.711-18.65-17.837-26.994c-8.28-8.502-19.074-11.014-19.529-11.117
				c-0.497-0.11-1.021,0.038-1.385,0.397c-0.364,0.36-0.519,0.88-0.412,1.38c0.1,0.467,2.542,11.527,10.814,20.02
				c8.129,8.347,25.561,17.917,26.299,18.321c0.226,0.123,0.473,0.184,0.719,0.184c0.383,0,0.762-0.146,1.049-0.428
				C186.151,215.099,186.266,214.384,185.962,213.798z M159.761,195.391c-5.374-5.518-8.135-12.387-9.311-16.023
				c3.549,1.216,10.186,4.046,15.525,9.528c5.349,5.492,11.445,15.69,14.792,21.64C174.966,207.095,165.091,200.863,159.761,195.391
				z"/>
		</g>
	</g>
	<g>
		<g>
			<path class="st10" d="M168.393,211.285c-6.017,0-10.895,3.204-10.895,3.204s4.878,3.203,10.895,3.203
				c6.018,0,16.237-3.203,16.237-3.203S174.411,211.285,168.393,211.285z"/>
		</g>
	</g>
	<g>
		<g>
			<path class="st0" d="M185.079,213.057c-0.426-0.134-10.51-3.272-16.686-3.272c-6.393,0-11.504,3.309-11.719,3.45
				c-0.422,0.277-0.677,0.749-0.677,1.254c0,0.505,0.254,0.977,0.677,1.254c0.214,0.141,5.326,3.45,11.719,3.45
				c6.176,0,16.26-3.139,16.686-3.273c0.625-0.196,1.051-0.775,1.051-1.431C186.13,213.832,185.705,213.253,185.079,213.057z
				 M168.393,216.192c-3.031,0-5.783-0.899-7.641-1.706c1.852-0.806,4.596-1.701,7.641-1.701c3.039,0,7.282,0.877,10.604,1.704
				C175.676,215.315,171.435,216.192,168.393,216.192z"/>
		</g>
	</g>
	<g>
		<g>
			<path class="st0" d="M184.63,212.988c-0.829,0-1.5,0.671-1.5,1.5v12.541c0,0.829,0.671,1.5,1.5,1.5c0.829,0,1.5-0.671,1.5-1.5
				v-12.541C186.13,213.66,185.459,212.988,184.63,212.988z"/>
		</g>
	</g>
	<g>
		<g>
			<path class="st7" d="M47.946,26.248c-0.974,11.564-13.024,13.39-13.024,13.39c10.347,0.487,12.925,14.059,12.925,14.059
				c0.221-9.677,13.321-14.202,13.321-14.202C51.355,38.907,47.946,26.248,47.946,26.248z"/>
		</g>
	</g>
	<g>
		<g>
			<path class="st0" d="M61.258,37.997c-8.605-0.515-11.832-12.024-11.864-12.141c-0.19-0.702-0.85-1.16-1.583-1.102
				c-0.725,0.066-1.298,0.642-1.359,1.367c-0.86,10.215-11.314,11.964-11.754,12.033c-0.763,0.115-1.313,0.79-1.273,1.56
				c0.04,0.77,0.657,1.384,1.428,1.421c9.028,0.425,11.498,12.718,11.522,12.842c0.137,0.711,0.759,1.217,1.472,1.217
				c0.042,0,0.084-0.002,0.126-0.005c0.764-0.064,1.357-0.693,1.375-1.459c0.194-8.508,12.191-12.777,12.313-12.819
				c0.675-0.235,1.092-0.914,0.994-1.622C62.555,38.581,61.972,38.04,61.258,37.997z M47.692,48.343
				c-1.357-3.13-3.709-6.907-7.587-8.876c2.931-1.405,6.409-3.913,8.202-8.273c1.551,3.071,4.2,6.88,8.333,8.722
				C53.633,41.556,49.718,44.321,47.692,48.343z"/>
		</g>
	</g>
	<g>
		<g>
			<path class="st7" d="M26.248,43.229c-0.689,8.179-9.212,9.47-9.212,9.47c7.318,0.344,9.142,9.944,9.142,9.944
				c0.156-6.844,9.422-10.045,9.422-10.045C28.658,52.183,26.248,43.229,26.248,43.229z"/>
		</g>
	</g>
	<g>
		<g>
			<path class="st0" d="M35.69,51.101c-5.767-0.345-7.973-8.186-7.994-8.265c-0.19-0.702-0.851-1.165-1.582-1.102
				c-0.726,0.065-1.299,0.642-1.36,1.368c-0.579,6.871-7.646,8.067-7.942,8.114c-0.763,0.115-1.313,0.79-1.273,1.561
				c0.04,0.77,0.657,1.384,1.428,1.421c6.035,0.284,7.723,8.644,7.739,8.725c0.135,0.713,0.759,1.22,1.472,1.22
				c0.042,0,0.083-0.001,0.125-0.005c0.765-0.063,1.358-0.694,1.376-1.461c0.13-5.709,8.331-8.634,8.413-8.662
				c0.676-0.234,1.094-0.913,0.996-1.622C36.988,51.685,36.404,51.144,35.69,51.101z M26.104,57.896
				c-0.924-1.885-2.34-3.947-4.447-5.28c1.856-1.041,3.697-2.63,4.871-4.916c1.057,1.873,2.655,3.954,4.941,5.224
				C29.62,54.024,27.48,55.663,26.104,57.896z"/>
		</g>
	</g>
	<g>
		<g>
			<path class="st7" d="M26.21,16.571c-0.657,8.182-9.175,9.507-9.175,9.507c7.319,0.316,9.181,9.909,9.181,9.909
				c0.129-6.845,9.383-10.082,9.383-10.082C28.655,25.516,26.21,16.571,26.21,16.571z"/>
		</g>
	</g>
	<g>
		<g>
			<path class="st0" d="M35.682,24.407c-5.767-0.323-8.004-8.154-8.026-8.233c-0.193-0.701-0.856-1.167-1.587-1.096
				c-0.725,0.068-1.297,0.648-1.355,1.374c-0.552,6.873-7.615,8.097-7.911,8.145c-0.762,0.119-1.31,0.796-1.267,1.566
				c0.042,0.77,0.663,1.382,1.433,1.415c6.036,0.261,7.757,8.614,7.773,8.696c0.138,0.71,0.76,1.214,1.471,1.214
				c0.043,0,0.087-0.002,0.131-0.005c0.765-0.066,1.356-0.699,1.37-1.466c0.108-5.71,8.298-8.667,8.379-8.695
				c0.676-0.236,1.09-0.917,0.99-1.626C36.983,24.986,36.396,24.447,35.682,24.407z M26.124,31.239
				c-0.932-1.882-2.356-3.938-4.468-5.263c1.852-1.048,3.686-2.644,4.851-4.936c1.064,1.87,2.67,3.944,4.962,5.205
				C29.623,27.353,27.491,29.001,26.124,31.239z"/>
		</g>
	</g>
	<g>
		<g>
			<path class="st14" d="M217.2,146.87v29.87c2-0.71,3.32-1.02,3.47-1.05c0.5-0.11,1.02,0.03,1.38,0.39
				c0.36,0.36,0.52,0.88,0.41,1.38c-0.07,0.34-1.38,6.27-5.26,12.74v44.57c0,1.84-1.5,3.34-3.35,3.34h16c1.85,0,3.35-1.5,3.35-3.34
				v-87.9H217.2z"/>
		</g>
	</g>
	<g>
		<g>
			<path class="st14" d="M237.15,129.5h-16c1.85,0,3.35,1.5,3.35,3.35v7.67c0,1.85-1.5,3.35-3.35,3.35h16c1.85,0,3.35-1.5,3.35-3.35
				v-7.67C240.5,131,239,129.5,237.15,129.5z"/>
		</g>
	</g>
</g>
</svg>
