<?xml version="1.0" encoding="utf-8"?>
<!-- Generator: Adobe Illustrator 22.0.1, SVG Export Plug-In . SVG Version: 6.00 Build 0)  -->
<svg version="1.1" id="Layer_1" xmlns="http://www.w3.org/2000/svg" xmlns:xlink="http://www.w3.org/1999/xlink" x="0px" y="0px"
	 viewBox="0 0 256 256" style="enable-background:new 0 0 256 256;" xml:space="preserve">
<style type="text/css">
	.st0{fill:#3A312A;}
	.st1{fill:#8AC6DD;}
	.st2{fill:#F16C7A;}
	.st3{fill:#D7E057;}
	.st4{fill:#87796F;}
	.st5{fill:#FCE8CB;}
	.st6{fill:#DECAAD;}
	.st7{fill:#D6DF58;}
	.st8{fill:#FAE6CA;}
	.st9{fill:#DDC9AC;}
	.st10{fill:#D5DE58;}
	.st11{fill:#ED6E7A;}
	.st12{fill:#8AC5DC;}
	.st13{fill:#6CA8BF;}
	.st14{fill:#695B51;}
	.st15{fill:#F8E4C8;}
	.st16{fill:#EF6D7A;}
	.st17{fill-rule:evenodd;clip-rule:evenodd;fill:#F8E4C8;}
	.st18{fill:#89C4DB;}
	.st19{fill:#F59689;}
	.st20{fill:#D34E5C;}
	.st21{fill:#F7E3C7;}
	.st22{fill:#8AC3DA;}
	.st23{fill-rule:evenodd;clip-rule:evenodd;fill:#F7E3C7;}
	.st24{fill-rule:evenodd;clip-rule:evenodd;fill:#87796F;}
	.st25{fill:#B9C239;}
	.st26{fill:#D4DB56;}
	.st27{fill-rule:evenodd;clip-rule:evenodd;fill:#F16C7A;}
	.st28{fill-rule:evenodd;clip-rule:evenodd;fill:#F6E2C6;}
	.st29{fill:#F6E2C6;}
	.st30{fill-rule:evenodd;clip-rule:evenodd;fill:#FAE6CA;}
	.st31{fill:#B8C136;}
</style>
<g>
	<g>
		<g>
			<path class="st3" d="M47.75,35.732c-0.974,11.564-13.025,13.389-13.025,13.389C45.072,49.608,47.65,63.18,47.65,63.18
				c0.221-9.677,13.321-14.202,13.321-14.202C51.158,48.391,47.75,35.732,47.75,35.732z"/>
		</g>
	</g>
	<g>
		<g>
			<path class="st0" d="M61.062,47.48c-8.604-0.514-11.833-12.024-11.864-12.141c-0.192-0.702-0.849-1.159-1.584-1.102
				c-0.725,0.066-1.298,0.642-1.359,1.367C45.395,45.821,34.941,47.569,34.5,47.638c-0.763,0.115-1.313,0.79-1.273,1.56
				c0.04,0.77,0.657,1.384,1.428,1.421c9.028,0.425,11.499,12.718,11.522,12.842c0.138,0.711,0.76,1.217,1.473,1.217
				c0.042,0,0.084-0.002,0.126-0.005c0.765-0.064,1.357-0.693,1.375-1.459c0.193-8.508,12.191-12.777,12.313-12.819
				c0.676-0.235,1.092-0.914,0.994-1.623C62.358,48.065,61.775,47.523,61.062,47.48z M47.495,57.827
				c-1.356-3.13-3.709-6.908-7.588-8.876c2.932-1.405,6.409-3.914,8.202-8.273c1.552,3.071,4.2,6.88,8.335,8.723
				C53.437,51.04,49.521,53.805,47.495,57.827z"/>
		</g>
	</g>
	<g>
		<g>
			<path class="st3" d="M26.051,52.712c-0.688,8.179-9.212,9.471-9.212,9.471c7.318,0.344,9.142,9.944,9.142,9.944
				c0.156-6.845,9.422-10.046,9.422-10.046C28.461,61.666,26.051,52.712,26.051,52.712z"/>
		</g>
	</g>
	<g>
		<g>
			<path class="st0" d="M35.492,60.584c-5.767-0.345-7.972-8.186-7.993-8.265c-0.19-0.702-0.858-1.161-1.582-1.102
				c-0.726,0.065-1.3,0.643-1.361,1.368c-0.578,6.871-7.646,8.067-7.942,8.114c-0.763,0.115-1.313,0.79-1.273,1.561
				c0.04,0.77,0.657,1.384,1.428,1.421c6.035,0.284,7.724,8.644,7.739,8.726c0.136,0.712,0.759,1.22,1.473,1.22
				c0.041,0,0.083-0.002,0.125-0.005c0.765-0.063,1.358-0.694,1.376-1.461c0.13-5.709,8.331-8.634,8.412-8.662
				c0.676-0.234,1.093-0.913,0.996-1.622C36.791,61.168,36.206,60.627,35.492,60.584z M25.907,67.379
				c-0.924-1.886-2.34-3.947-4.447-5.28c1.856-1.042,3.697-2.63,4.871-4.917c1.057,1.873,2.654,3.954,4.941,5.224
				C29.423,63.507,27.283,65.146,25.907,67.379z"/>
		</g>
	</g>
	<g>
		<g>
			<path class="st3" d="M26.051,26.055c-0.688,8.179-9.212,9.471-9.212,9.471c7.318,0.345,9.142,9.944,9.142,9.944
				c0.156-6.845,9.422-10.045,9.422-10.045C28.461,35.009,26.051,26.055,26.051,26.055z"/>
		</g>
	</g>
	<g>
		<g>
			<path class="st0" d="M35.492,33.926c-5.767-0.345-7.972-8.185-7.993-8.264c-0.19-0.702-0.858-1.16-1.582-1.102
				c-0.726,0.065-1.3,0.643-1.361,1.368c-0.578,6.871-7.646,8.066-7.942,8.113c-0.763,0.115-1.313,0.79-1.273,1.56
				c0.04,0.77,0.657,1.384,1.428,1.421c6.035,0.284,7.724,8.645,7.739,8.726c0.136,0.713,0.759,1.22,1.473,1.22
				c0.041,0,0.083-0.001,0.125-0.005c0.765-0.063,1.358-0.694,1.376-1.461c0.13-5.71,8.331-8.634,8.412-8.662
				c0.676-0.234,1.093-0.913,0.996-1.622C36.791,34.511,36.206,33.969,35.492,33.926z M25.907,40.722
				c-0.924-1.885-2.34-3.947-4.447-5.28c1.856-1.041,3.697-2.629,4.871-4.916c1.057,1.874,2.654,3.954,4.941,5.223
				C29.423,36.85,27.283,38.489,25.907,40.722z"/>
		</g>
	</g>
	<g>
		<g>
			<path class="st4" d="M226.448,85.968H29.552c-7.022,0-12.714,5.693-12.714,12.714v118.549c0,7.022,5.692,12.714,12.714,12.714
				h87.49h13.248h96.157c7.022,0,12.714-5.692,12.714-12.714V98.682C239.162,91.66,233.469,85.968,226.448,85.968z"/>
		</g>
	</g>
	<g>
		<g>
			<path class="st0" d="M226.447,84.468H29.553c-7.838,0-14.215,6.376-14.215,14.214v118.549c0,7.838,6.377,14.214,14.215,14.214
				h87.49c0.828,0,1.5-0.671,1.5-1.5c0-0.829-0.672-1.5-1.5-1.5h-87.49c-6.184,0-11.215-5.031-11.215-11.214V98.682
				c0-6.183,5.031-11.214,11.215-11.214h196.895c6.184,0,11.215,5.031,11.215,11.214v118.549c0,6.184-5.031,11.214-11.215,11.214
				h-96.156c-0.828,0-1.5,0.671-1.5,1.5c0,0.829,0.672,1.5,1.5,1.5h96.156c7.838,0,14.215-6.377,14.215-14.214V98.682
				C240.662,90.844,234.285,84.468,226.447,84.468z"/>
		</g>
	</g>
	<g>
		<g>
			<path class="st15" d="M202.307,101.039H38.382c-3.763,0-6.813,3.051-6.813,6.813v100.209c0,3.763,3.051,6.813,6.813,6.813
				h163.924c3.763,0,6.813-3.05,6.813-6.813V107.852C209.12,104.09,206.07,101.039,202.307,101.039z"/>
		</g>
	</g>
	<g>
		<g>
			<path class="st0" d="M202.307,99.539H38.382c-4.584,0-8.313,3.729-8.313,8.313v19.45c0,0.829,0.672,1.5,1.5,1.5
				s1.5-0.671,1.5-1.5v-19.45c0-2.93,2.383-5.313,5.313-5.313h163.925c2.93,0,5.313,2.384,5.313,5.313v100.208
				c0,2.93-2.384,5.313-5.313,5.313H38.382c-2.93,0-5.313-2.383-5.313-5.313v-67.95c0-0.829-0.672-1.5-1.5-1.5s-1.5,0.671-1.5,1.5
				v67.95c0,4.584,3.729,8.313,8.313,8.313h163.925c4.584,0,8.313-3.729,8.313-8.313V107.852
				C210.62,103.269,206.891,99.539,202.307,99.539z"/>
		</g>
	</g>
	<g>
		<g>
			<path class="st0" d="M224.351,151.166c-3.751,0-6.791,3.04-6.791,6.791s3.04,6.791,6.791,6.791c3.751,0,6.791-3.041,6.791-6.791
				S228.102,151.166,224.351,151.166z"/>
		</g>
	</g>
	<g>
		<g>
			<path class="st0" d="M180.768,135.5c-0.561-0.611-1.508-0.651-2.119-0.093l-30.485,27.912l-28.02-15.392
				c-0.6-0.329-1.343-0.212-1.812,0.283l-28.697,30.293l-28.501-17.805c-0.702-0.44-1.628-0.225-2.067,0.477
				c-0.438,0.703-0.225,1.628,0.478,2.067l29.541,18.455c0.245,0.153,0.521,0.228,0.794,0.228c0.401,0,0.798-0.161,1.09-0.468
				l28.745-30.343l27.946,15.352c0.564,0.309,1.261,0.227,1.735-0.208l31.278-28.638C181.285,137.06,181.327,136.111,180.768,135.5z
				"/>
		</g>
	</g>
	<g>
		<g>
			<path class="st16" d="M90.249,172.085c-4.605,0-8.339,3.733-8.339,8.338c0,4.605,3.733,8.339,8.339,8.339
				c4.605,0,8.338-3.733,8.338-8.339C98.587,175.818,94.854,172.085,90.249,172.085z"/>
		</g>
	</g>
	<g>
		<g>
			<path class="st0" d="M90.249,170.585c-5.425,0-9.839,4.414-9.839,9.838c0,5.425,4.414,9.839,9.839,9.839s9.838-4.414,9.838-9.839
				C100.087,174.998,95.674,170.585,90.249,170.585z M90.249,187.262c-3.771,0-6.839-3.068-6.839-6.839
				c0-3.771,3.068-6.838,6.839-6.838s6.838,3.068,6.838,6.838C97.087,184.194,94.02,187.262,90.249,187.262z"/>
		</g>
	</g>
	<g>
		<g>
			<path class="st7" d="M119.54,141.002c-4.605,0-8.338,3.733-8.338,8.338c0,4.605,3.733,8.339,8.338,8.339s8.339-3.733,8.339-8.339
				C127.879,144.735,124.145,141.002,119.54,141.002z"/>
		</g>
	</g>
	<g>
		<g>
			<path class="st0" d="M119.54,139.502c-5.425,0-9.838,4.414-9.838,9.838s4.413,9.838,9.838,9.838s9.839-4.414,9.839-9.838
				S124.965,139.502,119.54,139.502z M119.54,156.179c-3.771,0-6.838-3.068-6.838-6.838c0-3.77,3.067-6.838,6.838-6.838
				s6.839,3.068,6.839,6.838C126.379,153.111,123.311,156.179,119.54,156.179z"/>
		</g>
	</g>
	<g>
		<g>
			<circle class="st1" cx="148.382" cy="165.087" r="8.338"/>
		</g>
	</g>
	<g>
		<g>
			<path class="st0" d="M148.382,155.248c-5.425,0-9.839,4.414-9.839,9.838c0,5.425,4.414,9.838,9.839,9.838
				s9.839-4.414,9.839-9.838C158.221,159.662,153.807,155.248,148.382,155.248z M148.382,171.925c-3.771,0-6.839-3.068-6.839-6.838
				c0-3.771,3.068-6.838,6.839-6.838s6.839,3.068,6.839,6.838C155.221,168.857,152.152,171.925,148.382,171.925z"/>
		</g>
	</g>
	<g>
		<g>
			<path class="st4" d="M179.662,128.174c-4.605,0-8.339,3.733-8.339,8.338c0,4.605,3.733,8.339,8.339,8.339
				c4.605,0,8.338-3.733,8.338-8.339C188,131.907,184.267,128.174,179.662,128.174z"/>
		</g>
	</g>
	<g>
		<g>
			<path class="st0" d="M179.661,126.674c-5.425,0-9.838,4.414-9.838,9.838s4.413,9.838,9.838,9.838s9.839-4.414,9.839-9.838
				S185.086,126.674,179.661,126.674z M179.661,143.351c-3.771,0-6.838-3.068-6.838-6.838s3.067-6.838,6.838-6.838
				s6.839,3.068,6.839,6.838S183.432,143.351,179.661,143.351z"/>
		</g>
	</g>
	<g>
		<g>
			<path class="st4" d="M60.338,153.705c-4.605,0-8.338,3.733-8.338,8.339c0,4.605,3.733,8.338,8.338,8.338s8.339-3.733,8.339-8.338
				C68.677,157.439,64.944,153.705,60.338,153.705z"/>
		</g>
	</g>
	<g>
		<g>
			<path class="st0" d="M60.339,152.205c-5.425,0-9.839,4.414-9.839,9.839c0,5.425,4.414,9.838,9.839,9.838s9.838-4.413,9.838-9.838
				C70.177,156.619,65.764,152.205,60.339,152.205z M60.339,168.882c-3.771,0-6.839-3.068-6.839-6.838
				c0-3.771,3.068-6.839,6.839-6.839s6.838,3.068,6.838,6.839C67.177,165.815,64.109,168.882,60.339,168.882z"/>
		</g>
	</g>
	<g>
		<g>
			<path class="st6" d="M202.31,102.54h-16c2.93,0,5.31,2.38,5.31,5.31v100.21c0,2.93-2.38,5.31-5.31,5.31h16
				c2.93,0,5.31-2.38,5.31-5.31V107.85C207.62,104.92,205.24,102.54,202.31,102.54z"/>
		</g>
	</g>
</g>
</svg>
