<?xml version="1.0" encoding="utf-8"?>
<!-- Generator: Adobe Illustrator 22.0.1, SVG Export Plug-In . SVG Version: 6.00 Build 0)  -->
<svg version="1.1" id="Layer_1" xmlns="http://www.w3.org/2000/svg" xmlns:xlink="http://www.w3.org/1999/xlink" x="0px" y="0px"
	 viewBox="0 0 256 256" style="enable-background:new 0 0 256 256;" xml:space="preserve">
<style type="text/css">
	.st0{fill:#3A312A;}
	.st1{fill:#8AC6DD;}
	.st2{fill:#F16C7A;}
	.st3{fill:#D7E057;}
	.st4{fill:#87796F;}
	.st5{fill:#FCE8CB;}
	.st6{fill:#DECAAD;}
	.st7{fill:#D6DF58;}
	.st8{fill:#FAE6CA;}
	.st9{fill:#DDC9AC;}
	.st10{fill:#D5DE58;}
	.st11{fill:#ED6E7A;}
	.st12{fill:#8AC5DC;}
	.st13{fill:#6CA8BF;}
	.st14{fill:#695B51;}
	.st15{fill:#F8E4C8;}
	.st16{fill:#EF6D7A;}
	.st17{fill-rule:evenodd;clip-rule:evenodd;fill:#F8E4C8;}
	.st18{fill:#89C4DB;}
	.st19{fill:#F59689;}
	.st20{fill:#D34E5C;}
	.st21{fill:#F7E3C7;}
	.st22{fill:#8AC3DA;}
	.st23{fill-rule:evenodd;clip-rule:evenodd;fill:#F7E3C7;}
	.st24{fill-rule:evenodd;clip-rule:evenodd;fill:#87796F;}
	.st25{fill:#B9C239;}
	.st26{fill:#D4DB56;}
	.st27{fill-rule:evenodd;clip-rule:evenodd;fill:#F16C7A;}
	.st28{fill-rule:evenodd;clip-rule:evenodd;fill:#F6E2C6;}
	.st29{fill:#F6E2C6;}
	.st30{fill-rule:evenodd;clip-rule:evenodd;fill:#FAE6CA;}
	.st31{fill:#B8C136;}
</style>
<g>
	<g>
		<g>
			<path class="st7" d="M52.215,50.248c-0.974,11.564-13.024,13.39-13.024,13.39c10.347,0.487,12.925,14.059,12.925,14.059
				c0.221-9.677,13.321-14.202,13.321-14.202C55.623,62.907,52.215,50.248,52.215,50.248z"/>
		</g>
	</g>
	<g>
		<g>
			<path class="st0" d="M65.526,61.997c-8.604-0.515-11.832-12.024-11.863-12.141c-0.191-0.702-0.849-1.158-1.584-1.102
				c-0.725,0.066-1.298,0.642-1.359,1.367C49.86,60.337,39.407,62.086,38.966,62.155c-0.763,0.115-1.313,0.79-1.273,1.561
				c0.04,0.77,0.657,1.384,1.428,1.421c9.027,0.425,11.498,12.718,11.521,12.842c0.138,0.711,0.76,1.217,1.473,1.217
				c0.042,0,0.084-0.001,0.126-0.005c0.764-0.064,1.357-0.693,1.375-1.459c0.194-8.508,12.191-12.777,12.313-12.819
				c0.676-0.235,1.092-0.914,0.994-1.623C66.823,62.581,66.24,62.04,65.526,61.997z M51.96,72.343
				c-1.356-3.131-3.708-6.908-7.586-8.877c2.931-1.405,6.408-3.913,8.201-8.272c1.551,3.071,4.2,6.88,8.334,8.722
				C57.902,65.556,53.987,68.322,51.96,72.343z"/>
		</g>
	</g>
	<g>
		<g>
			<path class="st7" d="M30.516,67.229c-0.689,8.179-9.212,9.47-9.212,9.47c7.318,0.344,9.142,9.944,9.142,9.944
				c0.156-6.844,9.422-10.045,9.422-10.045C32.927,76.183,30.516,67.229,30.516,67.229z"/>
		</g>
	</g>
	<g>
		<g>
			<path class="st0" d="M39.958,75.101c-5.767-0.345-7.972-8.186-7.993-8.265c-0.19-0.702-0.858-1.16-1.582-1.102
				c-0.726,0.065-1.3,0.642-1.361,1.368c-0.579,6.871-7.646,8.067-7.942,8.114c-0.763,0.115-1.313,0.79-1.273,1.561
				c0.04,0.77,0.657,1.384,1.428,1.421c6.035,0.284,7.724,8.644,7.739,8.726c0.136,0.713,0.759,1.22,1.473,1.22
				c0.041,0,0.083-0.001,0.125-0.005c0.765-0.063,1.358-0.694,1.376-1.461c0.13-5.709,8.331-8.634,8.412-8.662
				c0.676-0.234,1.093-0.913,0.996-1.622C41.257,75.685,40.672,75.144,39.958,75.101z M30.373,81.896
				c-0.924-1.885-2.34-3.947-4.447-5.28c1.855-1.041,3.697-2.63,4.871-4.917c1.057,1.874,2.654,3.955,4.941,5.224
				C33.889,78.024,31.749,79.663,30.373,81.896z"/>
		</g>
	</g>
	<g>
		<g>
			<path class="st7" d="M30.478,40.571c-0.657,8.182-9.175,9.507-9.175,9.507c7.319,0.316,9.181,9.908,9.181,9.908
				c0.129-6.845,9.383-10.082,9.383-10.082C32.924,49.516,30.478,40.571,30.478,40.571z"/>
		</g>
	</g>
	<g>
		<g>
			<path class="st0" d="M39.951,48.407c-5.768-0.323-8.005-8.154-8.026-8.233c-0.193-0.702-0.87-1.165-1.586-1.096
				c-0.726,0.068-1.297,0.647-1.355,1.374c-0.552,6.873-7.615,8.097-7.911,8.145c-0.762,0.119-1.31,0.796-1.268,1.566
				c0.043,0.77,0.663,1.382,1.434,1.415c6.036,0.261,7.758,8.614,7.773,8.696c0.138,0.71,0.76,1.214,1.472,1.214
				c0.043,0,0.087-0.002,0.131-0.005c0.765-0.066,1.355-0.699,1.37-1.466c0.107-5.71,8.298-8.667,8.378-8.695
				c0.676-0.236,1.09-0.917,0.99-1.626C41.252,48.986,40.665,48.447,39.951,48.407z M30.393,55.239
				c-0.932-1.882-2.355-3.938-4.468-5.263c1.852-1.048,3.687-2.644,4.852-4.936c1.064,1.87,2.67,3.944,4.962,5.205
				C33.893,51.354,31.76,53.001,30.393,55.239z"/>
		</g>
	</g>
	<g>
		<g>
			<path class="st4" d="M176.661,84.04l15.081-41.221h-0.032c0.583-1.882,0.898-3.882,0.898-5.956
				c0-11.108-9.005-20.113-20.113-20.113s-20.113,9.005-20.113,20.113c0-11.108-9.005-20.113-20.113-20.113
				c-11.108,0-20.113,9.005-20.113,20.113c0-11.108-9.005-20.113-20.113-20.113S71.93,25.755,71.93,36.863
				c0,2.074,0.315,4.074,0.898,5.956h-0.032L87.876,84.04C53.538,100.58,29.84,135.71,29.84,176.375
				c0,56.57,45.859,62.875,102.428,62.875s102.428-6.305,102.428-62.875C234.697,135.71,211,100.58,176.661,84.04z"/>
		</g>
	</g>
	<g>
		<g>
			<path class="st0" d="M219.819,120.351c-10.188-15.887-24.441-28.678-41.285-37.063l14.616-39.953
				c0.044-0.12,0.071-0.244,0.082-0.368c0.581-1.976,0.875-4.027,0.875-6.104c0-11.917-9.695-21.613-21.612-21.613
				c-9.126,0-16.949,5.685-20.113,13.7c-3.164-8.015-10.987-13.7-20.113-13.7s-16.949,5.685-20.113,13.7
				c-3.164-8.015-10.987-13.7-20.112-13.7c-11.918,0-21.613,9.695-21.613,21.613c0,2.068,0.293,4.116,0.871,6.09
				c0.012,0.129,0.04,0.257,0.086,0.382l14.616,39.953c-16.844,8.385-31.097,21.176-41.284,37.063
				c-10.715,16.71-16.379,36.083-16.379,56.024c0,26.654,10.097,44.321,30.866,54.011c19.524,9.108,46.654,10.364,73.063,10.364
				s53.537-1.256,73.063-10.364c20.77-9.69,30.866-27.357,30.866-54.011C236.197,156.434,230.534,137.061,219.819,120.351z
				 M132.269,237.75c-53.188,0-100.929-4.694-100.929-61.375c0-19.366,5.5-38.179,15.904-54.405
				c10.132-15.802,24.407-28.45,41.283-36.578c0.694-0.335,1.022-1.143,0.757-1.867L74.311,42.596
				c-0.012-0.074-0.028-0.147-0.051-0.22c-0.551-1.782-0.83-3.637-0.83-5.513c0-10.263,8.35-18.613,18.613-18.613
				c10.263,0,18.612,8.35,18.612,18.613c0,0.829,0.672,1.5,1.5,1.5s1.5-0.671,1.5-1.5c0-10.263,8.35-18.613,18.613-18.613
				s18.613,8.35,18.613,18.613c0,0.829,0.672,1.5,1.5,1.5s1.5-0.671,1.5-1.5c0-10.263,8.35-18.613,18.613-18.613
				c10.263,0,18.612,8.35,18.612,18.613c0,1.879-0.279,3.734-0.83,5.513c-0.022,0.071-0.038,0.143-0.049,0.215l-14.976,40.935
				c-0.266,0.724,0.063,1.532,0.757,1.867c16.876,8.128,31.151,20.776,41.284,36.578c10.404,16.226,15.903,35.039,15.903,54.405
				C233.197,233.056,185.456,237.75,132.269,237.75z"/>
		</g>
	</g>
	<g>
		<g>
			<path class="st3" d="M132.269,112.133c-26.382,0-47.768,21.387-47.768,47.768c0,26.382,21.386,47.769,47.768,47.769
				c8.751,0,16.946-2.365,23.999-6.473l11.025-8.827c7.905-8.523,12.744-19.928,12.744-32.469
				C180.037,133.52,158.65,112.133,132.269,112.133z"/>
		</g>
	</g>
	<g>
		<g>
			<path class="st0" d="M132.269,110.633c-27.167,0-49.269,22.102-49.269,49.268c0,27.167,22.102,49.269,49.269,49.269
				c8.695,0,17.255-2.309,24.755-6.677c0.716-0.417,0.958-1.335,0.541-2.051c-0.417-0.717-1.338-0.957-2.051-0.542
				c-7.042,4.102-15.08,6.27-23.245,6.27C106.756,206.17,86,185.414,86,159.901c0-25.512,20.756-46.268,46.269-46.268
				s46.269,20.756,46.269,46.268c0,11.697-4.384,22.866-12.344,31.449c-0.563,0.607-0.527,1.557,0.08,2.12
				c0.604,0.563,1.556,0.528,2.119-0.08c8.477-9.14,13.145-21.033,13.145-33.489C181.537,132.735,159.436,110.633,132.269,110.633z"
				/>
		</g>
	</g>
	<g>
		<g>
			<path class="st4" d="M137.948,154.5c-6.957-2.618-9.822-4.337-9.822-7.039c0-2.291,1.719-4.583,7.039-4.583
				c5.892,0,9.657,1.882,11.785,2.783l2.374-9.248c-2.701-1.31-6.385-2.457-11.868-2.701v-7.203h-8.021v7.775
				c-8.758,1.719-13.832,7.366-13.832,14.569c0,7.94,5.975,12.032,14.732,14.978c6.057,2.046,8.676,4.011,8.676,7.12
				c0,3.275-3.193,5.075-7.857,5.075c-5.32,0-10.149-1.719-13.587-3.601L115.113,182c3.11,1.8,8.43,3.273,13.913,3.519v7.775h8.021
				v-8.348c9.412-1.636,14.569-7.856,14.569-15.141C151.616,162.439,147.687,157.937,137.948,154.5z"/>
		</g>
	</g>
	<g>
		<g>
			<path class="st0" d="M138.477,153.096c-6.534-2.459-8.851-3.934-8.851-5.635c0-2.683,3.471-3.083,5.539-3.083
				c5.063,0,8.389,1.445,10.589,2.401l0.611,0.263c0.403,0.17,0.86,0.156,1.25-0.037c0.392-0.193,0.68-0.548,0.788-0.971
				l2.374-9.248c0.177-0.691-0.156-1.412-0.799-1.723c-3.157-1.532-6.775-2.44-11.021-2.764v-5.791c0-0.829-0.672-1.5-1.5-1.5
				h-8.021c-0.828,0-1.5,0.671-1.5,1.5v6.57c-8.566,2.102-13.832,8.058-13.832,15.774c0,9.839,8.419,13.933,15.752,16.399
				c6.354,2.147,7.656,3.831,7.656,5.699c0,3.318-4.866,3.576-6.357,3.576c-5.764,0-10.535-2.141-12.867-3.417
				c-0.405-0.222-0.892-0.245-1.317-0.06c-0.425,0.185-0.74,0.555-0.855,1.003l-2.455,9.575c-0.167,0.651,0.12,1.334,0.702,1.671
				c3.23,1.87,8.172,3.22,13.164,3.628v6.367c0,0.829,0.672,1.5,1.5,1.5h8.021c0.828,0,1.5-0.671,1.5-1.5v-7.118
				c8.895-1.997,14.569-8.314,14.569-16.371C153.116,161.715,148.729,156.715,138.477,153.096z M136.79,183.468
				c-0.719,0.125-1.243,0.749-1.243,1.478v6.849h-5.021v-6.275c0-0.802-0.631-1.462-1.433-1.499
				c-4.44-0.199-9.088-1.273-12.233-2.793l1.697-6.621c2.879,1.347,7.361,2.919,12.598,2.919c5.771,0,9.357-2.52,9.357-6.576
				c0-4.37-3.876-6.574-9.697-8.542c-9.61-3.232-13.711-7.287-13.711-13.556c0-6.65,4.718-11.546,12.621-13.098
				c0.703-0.138,1.211-0.754,1.211-1.472v-6.275h5.021v5.703c0,0.802,0.632,1.463,1.434,1.499c3.94,0.175,7.281,0.849,10.167,2.052
				l-1.625,6.329c-2.337-0.976-5.854-2.213-10.768-2.213c-7.923,0-8.539,4.656-8.539,6.083c0,3.725,3.48,5.69,10.823,8.453
				c9.115,3.218,12.667,7.113,12.667,13.891C150.116,176.805,145.01,182.04,136.79,183.468z"/>
		</g>
	</g>
	<g>
		<g>
			<path class="st2" d="M183.808,69.547h-70.353H99.749H81.986c-5.207,0-9.428,4.221-9.428,9.428c0,5.207,4.221,9.428,9.428,9.428
				h101.822c5.207,0,9.428-4.221,9.428-9.428C193.236,73.768,189.015,69.547,183.808,69.547z"/>
		</g>
	</g>
	<g>
		<g>
			<path class="st0" d="M183.808,68.046h-70.352c-0.828,0-1.5,0.671-1.5,1.5s0.672,1.5,1.5,1.5h70.352
				c4.372,0,7.929,3.557,7.929,7.928s-3.557,7.928-7.929,7.928H81.986c-4.372,0-7.929-3.556-7.929-7.928s3.557-7.928,7.929-7.928
				h17.763c0.828,0,1.5-0.671,1.5-1.5s-0.672-1.5-1.5-1.5H81.986c-6.026,0-10.929,4.902-10.929,10.928
				c0,6.025,4.902,10.928,10.929,10.928h101.821c6.026,0,10.929-4.902,10.929-10.928C194.736,72.949,189.834,68.046,183.808,68.046z
				"/>
		</g>
	</g>
	<g>
		<g>
			<path class="st14" d="M217.299,121.97c-8.43-13.15-19.74-24.1-33.01-32.09c-0.16,0.01-0.32,0.02-0.48,0.02h-15.49
				c13.26,7.99,24.56,18.93,32.98,32.07c10.4,16.23,15.9,35.04,15.9,54.41c0,53.82-43.05,60.76-92.93,61.32
				c2.65,0.04,5.32,0.05,8,0.05c53.19,0,100.93-4.69,100.93-61.37C233.198,157.01,227.698,138.2,217.299,121.97z"/>
		</g>
	</g>
	<g>
		<g>
			<path class="st14" d="M172.499,18.25c-2.86,0-5.57,0.65-8,1.81c6.27,3,10.61,9.4,10.61,16.8c0,1.88-0.28,3.74-0.83,5.52
				c-0.02,0.07-0.04,0.14-0.05,0.21l-9.31,25.46h16l9.31-25.46c0.01-0.07,0.03-0.14,0.05-0.21c0.55-1.78,0.83-3.64,0.83-5.52
				C191.109,26.6,182.759,18.25,172.499,18.25z"/>
		</g>
	</g>
	<g>
		<g>
			<path class="st20" d="M183.809,71.05h-16c4.37,0,7.93,3.55,7.93,7.92c0,4.38-3.56,7.93-7.93,7.93h16c4.37,0,7.93-3.55,7.93-7.93
				C191.739,74.6,188.178,71.05,183.809,71.05z"/>
		</g>
	</g>
</g>
</svg>
