<?xml version="1.0" encoding="utf-8"?>
<!-- Generator: Adobe Illustrator 22.0.1, SVG Export Plug-In . SVG Version: 6.00 Build 0)  -->
<svg version="1.1" id="Layer_1" xmlns="http://www.w3.org/2000/svg" xmlns:xlink="http://www.w3.org/1999/xlink" x="0px" y="0px"
	 viewBox="0 0 256 256" style="enable-background:new 0 0 256 256;" xml:space="preserve">
<style type="text/css">
	.st0{fill:#3A312A;}
	.st1{fill:#8AC6DD;}
	.st2{fill:#F16C7A;}
	.st3{fill:#D7E057;}
	.st4{fill:#87796F;}
	.st5{fill:#FCE8CB;}
	.st6{fill:#DECAAD;}
	.st7{fill:#D6DF58;}
	.st8{fill:#FAE6CA;}
	.st9{fill:#DDC9AC;}
	.st10{fill:#D5DE58;}
	.st11{fill:#ED6E7A;}
	.st12{fill:#8AC5DC;}
	.st13{fill:#6CA8BF;}
	.st14{fill:#695B51;}
	.st15{fill:#F8E4C8;}
	.st16{fill:#EF6D7A;}
	.st17{fill-rule:evenodd;clip-rule:evenodd;fill:#F8E4C8;}
	.st18{fill:#89C4DB;}
	.st19{fill:#F59689;}
	.st20{fill:#D34E5C;}
	.st21{fill:#F7E3C7;}
	.st22{fill:#8AC3DA;}
	.st23{fill-rule:evenodd;clip-rule:evenodd;fill:#F7E3C7;}
	.st24{fill-rule:evenodd;clip-rule:evenodd;fill:#87796F;}
	.st25{fill:#B9C239;}
	.st26{fill:#D4DB56;}
	.st27{fill-rule:evenodd;clip-rule:evenodd;fill:#F16C7A;}
	.st28{fill-rule:evenodd;clip-rule:evenodd;fill:#F6E2C6;}
	.st29{fill:#F6E2C6;}
	.st30{fill-rule:evenodd;clip-rule:evenodd;fill:#FAE6CA;}
	.st31{fill:#B8C136;}
</style>
<g>
	<g>
		<g>
			<path class="st7" d="M47.946,26.256c-0.974,11.564-13.025,13.39-13.025,13.39c10.347,0.487,12.925,14.059,12.925,14.059
				c0.221-9.677,13.321-14.202,13.321-14.202C51.355,38.916,47.946,26.256,47.946,26.256z"/>
		</g>
	</g>
	<g>
		<g>
			<path class="st0" d="M61.258,38.005c-8.604-0.515-11.832-12.024-11.863-12.141c-0.19-0.702-0.851-1.16-1.584-1.102
				c-0.725,0.066-1.298,0.642-1.359,1.367c-0.859,10.215-11.313,11.964-11.754,12.033c-0.763,0.115-1.313,0.79-1.273,1.561
				c0.04,0.77,0.657,1.384,1.428,1.421c9.027,0.425,11.498,12.718,11.521,12.842c0.138,0.711,0.76,1.217,1.473,1.217
				c0.042,0,0.084-0.002,0.126-0.005c0.764-0.064,1.357-0.693,1.375-1.459c0.194-8.509,12.191-12.777,12.313-12.819
				c0.676-0.235,1.092-0.914,0.994-1.623C62.556,38.589,61.972,38.048,61.258,38.005z M47.691,48.351
				c-1.356-3.13-3.708-6.907-7.586-8.876c2.931-1.405,6.408-3.913,8.201-8.272c1.551,3.071,4.2,6.88,8.334,8.722
				C53.634,41.564,49.718,44.33,47.691,48.351z"/>
		</g>
	</g>
	<g>
		<g>
			<path class="st7" d="M26.248,43.237c-0.689,8.179-9.212,9.471-9.212,9.471c7.318,0.344,9.142,9.944,9.142,9.944
				c0.156-6.844,9.422-10.045,9.422-10.045C28.658,52.191,26.248,43.237,26.248,43.237z"/>
		</g>
	</g>
	<g>
		<g>
			<path class="st0" d="M35.689,51.109c-5.767-0.345-7.972-8.186-7.993-8.265c-0.19-0.702-0.861-1.162-1.582-1.102
				c-0.726,0.065-1.3,0.642-1.361,1.368c-0.579,6.871-7.646,8.067-7.942,8.114c-0.763,0.115-1.313,0.79-1.273,1.561
				c0.04,0.77,0.657,1.384,1.428,1.421c6.035,0.284,7.724,8.643,7.739,8.725c0.136,0.712,0.759,1.22,1.473,1.22
				c0.041,0,0.083-0.002,0.125-0.005c0.765-0.063,1.358-0.694,1.376-1.461c0.13-5.709,8.331-8.633,8.412-8.661
				c0.676-0.234,1.093-0.913,0.996-1.622C36.988,51.693,36.403,51.152,35.689,51.109z M26.104,57.904
				c-0.924-1.886-2.34-3.947-4.447-5.28c1.856-1.041,3.697-2.63,4.871-4.917c1.057,1.874,2.654,3.955,4.941,5.224
				C29.62,54.032,27.48,55.671,26.104,57.904z"/>
		</g>
	</g>
	<g>
		<g>
			<path class="st7" d="M26.21,16.58c-0.657,8.182-9.175,9.507-9.175,9.507c7.319,0.316,9.181,9.909,9.181,9.909
				c0.129-6.845,9.383-10.082,9.383-10.082C28.655,25.524,26.21,16.58,26.21,16.58z"/>
		</g>
	</g>
	<g>
		<g>
			<path class="st0" d="M35.682,24.415c-5.767-0.323-8.004-8.154-8.025-8.233c-0.193-0.702-0.878-1.165-1.586-1.096
				c-0.726,0.068-1.297,0.647-1.355,1.374c-0.552,6.873-7.615,8.097-7.911,8.145c-0.762,0.119-1.31,0.796-1.268,1.566
				c0.043,0.77,0.663,1.382,1.434,1.415c6.036,0.261,7.758,8.614,7.773,8.695c0.138,0.71,0.76,1.214,1.472,1.214
				c0.043,0,0.087-0.002,0.131-0.005c0.765-0.066,1.355-0.699,1.37-1.466c0.107-5.71,8.297-8.666,8.377-8.694
				c0.676-0.236,1.09-0.917,0.99-1.626C36.982,24.994,36.395,24.455,35.682,24.415z M26.124,31.247
				c-0.932-1.882-2.355-3.938-4.468-5.262c1.852-1.048,3.687-2.644,4.852-4.936c1.065,1.87,2.669,3.944,4.961,5.205
				C29.623,27.362,27.491,29.009,26.124,31.247z"/>
		</g>
	</g>
	<g>
		<g>
			<path class="st4" d="M163.314,70.038l11.997-32.791h-0.026c0.464-1.498,0.714-3.089,0.714-4.738c0-8.837-7.164-16-16-16
				s-16,7.163-16,16c0-8.837-7.164-16-16-16c-8.836,0-16,7.163-16,16c0-8.837-7.164-16-16-16c-8.837,0-16,7.163-16,16
				c0,1.65,0.251,3.241,0.714,4.738h-0.026l11.997,32.791c-27.316,13.157-46.168,41.103-46.168,73.453
				c0,45.002,36.481,50.018,81.483,50.018c45.001,0,81.482-5.016,81.482-50.018C209.482,111.141,190.631,83.195,163.314,70.038z"/>
		</g>
	</g>
	<g>
		<g>
			<path class="st0" d="M165.187,69.287l11.533-31.525c0.041-0.11,0.067-0.224,0.079-0.338c0.466-1.594,0.701-3.246,0.701-4.915
				c0-9.649-7.851-17.5-17.5-17.5c-7.128,0-13.274,4.284-16,10.413c-2.726-6.129-8.872-10.413-16-10.413s-13.274,4.284-16,10.413
				c-2.726-6.129-8.872-10.413-16-10.413c-9.649,0-17.5,7.851-17.5,17.5c0,1.665,0.234,3.313,0.697,4.904
				c0.014,0.118,0.041,0.235,0.083,0.349l11.533,31.525c-27.864,13.999-45.796,42.974-45.796,74.204
				c0,21.334,8.09,35.48,24.731,43.244c15.586,7.271,37.208,8.274,58.251,8.274c21.043,0,42.665-1.002,58.251-8.274
				c16.642-7.764,24.731-21.909,24.731-43.244C210.982,112.261,193.051,83.286,165.187,69.287z M128,192.008
				c-42.149,0-79.982-3.71-79.982-48.518c0-30.539,17.789-58.841,45.319-72.101c0.694-0.335,1.023-1.143,0.757-1.867L82.191,36.99
				c-0.011-0.063-0.025-0.125-0.044-0.186c-0.43-1.389-0.647-2.834-0.647-4.295c0-7.995,6.505-14.5,14.5-14.5
				c7.995,0,14.5,6.505,14.5,14.5c0,0.829,0.672,1.5,1.5,1.5s1.5-0.671,1.5-1.5c0-7.995,6.505-14.5,14.5-14.5s14.5,6.505,14.5,14.5
				c0,0.829,0.672,1.5,1.5,1.5s1.5-0.671,1.5-1.5c0-7.995,6.505-14.5,14.5-14.5s14.5,6.505,14.5,14.5
				c0,1.461-0.218,2.906-0.647,4.295c-0.019,0.06-0.032,0.122-0.043,0.183l-11.903,32.536c-0.266,0.725,0.063,1.532,0.757,1.867
				c27.53,13.26,45.319,41.562,45.319,72.101C207.982,188.298,170.149,192.008,128,192.008z"/>
		</g>
	</g>
	<g>
		<g>
			<circle class="st3" cx="128" cy="130.386" r="38"/>
		</g>
	</g>
	<g>
		<g>
			<path class="st0" d="M128,90.886c-21.78,0-39.5,17.72-39.5,39.5c0,21.78,17.72,39.5,39.5,39.5c21.78,0,39.5-17.72,39.5-39.5
				C167.5,108.606,149.78,90.886,128,90.886z M128,166.886c-20.126,0-36.5-16.374-36.5-36.5c0-20.126,16.374-36.5,36.5-36.5
				s36.5,16.374,36.5,36.5C164.5,150.512,148.126,166.886,128,166.886z"/>
		</g>
	</g>
	<g>
		<g>
			<path class="st4" d="M132.518,126.089c-5.534-2.083-7.814-3.45-7.814-5.599c0-1.822,1.367-3.646,5.6-3.646
				c4.687,0,7.683,1.497,9.375,2.214l1.889-7.357c-2.149-1.042-5.079-1.955-9.441-2.149v-5.73h-6.381v6.185
				c-6.967,1.367-11.003,5.86-11.003,11.59c0,6.316,4.753,9.572,11.72,11.915c4.818,1.628,6.902,3.191,6.902,5.664
				c0,2.605-2.54,4.037-6.25,4.037c-4.232,0-8.073-1.367-10.808-2.864l-1.953,7.617c2.474,1.432,6.706,2.604,11.068,2.8v6.185h6.381
				v-6.641c7.488-1.301,11.59-6.25,11.59-12.045C143.391,132.405,140.265,128.824,132.518,126.089z"/>
		</g>
	</g>
	<g>
		<g>
			<path class="st0" d="M133.046,124.685c-4.924-1.853-6.842-3.029-6.842-4.195c0-1.867,2.568-2.146,4.1-2.146
				c3.965,0,6.575,1.134,8.303,1.884l0.488,0.211c0.403,0.17,0.86,0.156,1.25-0.037c0.392-0.193,0.68-0.548,0.788-0.971l1.889-7.357
				c0.177-0.691-0.157-1.412-0.799-1.723c-2.478-1.201-5.301-1.927-8.596-2.206v-4.323c0-0.829-0.672-1.5-1.5-1.5h-6.381
				c-0.828,0-1.5,0.671-1.5,1.5v4.987c-6.821,1.758-11.003,6.57-11.003,12.788c0,8.023,6.809,11.342,12.739,13.336
				c5.169,1.747,5.882,3.071,5.882,4.243c0,2.415-3.958,2.538-4.751,2.538c-4.518,0-8.259-1.679-10.087-2.68
				c-0.406-0.221-0.893-0.245-1.317-0.06c-0.426,0.185-0.741,0.555-0.857,1.003l-1.953,7.617c-0.167,0.651,0.12,1.334,0.701,1.671
				c2.546,1.473,6.4,2.547,10.319,2.902v4.784c0,0.829,0.672,1.5,1.5,1.5h6.381c0.828,0,1.5-0.671,1.5-1.5v-5.418
				c7.084-1.68,11.59-6.78,11.59-13.268C144.891,131.676,141.34,127.612,133.046,124.685z M131.544,148.831
				c-0.719,0.125-1.243,0.749-1.243,1.478v5.141h-3.381v-4.685c0-0.802-0.631-1.462-1.433-1.499
				c-3.39-0.152-6.928-0.949-9.386-2.084l1.197-4.666c2.323,1.047,5.791,2.197,9.814,2.197c4.709,0,7.751-2.174,7.751-5.538
				c0-3.875-3.807-5.695-7.923-7.086c-7.499-2.522-10.698-5.66-10.698-10.494c0-5.132,3.66-8.914,9.792-10.118
				c0.703-0.138,1.211-0.755,1.211-1.472v-4.685h3.381v4.23c0,0.802,0.632,1.463,1.433,1.499c2.986,0.133,5.532,0.628,7.739,1.509
				l-1.139,4.434c-1.878-0.76-4.613-1.649-8.357-1.649c-5.234,0-7.1,2.658-7.1,5.146c0,3.424,3.808,5.129,8.815,7.014
				c8.193,2.892,9.872,6.394,9.872,10.761C141.891,143.673,137.926,147.722,131.544,148.831z"/>
		</g>
	</g>
	<g>
		<g>
			<path class="st5" d="M232.084,155.543c-1.67-0.08-3.37,0.28-4.93,1.09l-33.56,17.48h-53.14c-11.58,0-22.92,3.27-32.72,9.44
				l-7.48,4.7c-2.86,1.8-6.18,2.76-9.57,2.76h-0.95v7.87c0.006,0,0.01-0.001,0.016-0.001v14.722c-0.006,0-0.01-0.001-0.016-0.001
				v9.02l71.25-2.19c6.11-0.4,11.99-2.45,17.02-5.95l59.22-45.53c1.94-1.35,2.57-3.24,2.62-5.06
				C239.954,159.543,236.434,155.733,232.084,155.543z"/>
		</g>
	</g>
	<g>
		<g>
			<path class="st0" d="M232.156,154.045c-1.962-0.097-3.929,0.34-5.696,1.257l-33.233,17.311h-52.772
				c-11.879,0-23.471,3.344-33.519,9.67l-7.48,4.701c-2.63,1.655-5.663,2.529-8.771,2.529h-0.95c-0.828,0-1.5,0.671-1.5,1.5v7.87
				c0,0.829,0.672,1.5,1.5,1.5c0.029,0,0.061-0.001,0.094-0.003c0.792-0.04,1.423-0.695,1.423-1.498
				c0-0.076-0.006-0.151-0.017-0.224v-6.153c3.481-0.098,6.865-1.124,9.818-2.982l7.48-4.701c9.57-6.025,20.608-9.209,31.922-9.209
				h53.14c0.241,0,0.479-0.058,0.693-0.169l33.558-17.479c1.295-0.673,2.724-0.997,4.174-0.923c3.519,0.154,6.415,3.274,6.326,6.811
				c-0.047,1.71-0.694,2.976-2.035,3.912l-59.162,45.488c-4.795,3.336-10.418,5.302-16.209,5.682l-69.705,2.143v-7.313
				c0.006-0.052,0.009-0.106,0.009-0.159c0-0.829-0.681-1.5-1.509-1.5c-0.828,0-1.5,0.671-1.5,1.5v9.019
				c0,0.406,0.164,0.795,0.456,1.077c0.28,0.272,0.654,0.423,1.044,0.423c0.016,0,0.03,0,0.046,0l71.303-2.193
				c6.388-0.418,12.536-2.567,17.836-6.257l59.162-45.488c2.063-1.435,3.19-3.596,3.264-6.253
				C241.474,158.796,237.264,154.268,232.156,154.045z"/>
		</g>
	</g>
	<g>
		<g>
			<path class="st0" d="M195.092,174.892c-0.313-0.767-1.188-1.134-1.957-0.819c-0.767,0.314-1.133,1.19-0.818,1.956
				c1.16,2.829-0.496,6.244-2.73,8.155c-2.609,2.231-6.238,3.315-9.44,4.271c-7.229,2.158-13.785,3.487-20.726,4.894
				c-6.704,1.36-13.637,2.766-22.19,5.072c-0.8,0.216-1.273,1.039-1.058,1.839c0.181,0.669,0.786,1.11,1.447,1.11
				c0.129,0,0.261-0.017,0.392-0.052c8.462-2.281,15.347-3.678,22.006-5.028c7.008-1.421,13.628-2.764,20.986-4.96
				c3.488-1.041,7.44-2.221,10.532-4.865C194.496,183.933,196.871,179.231,195.092,174.892z"/>
		</g>
	</g>
	<g>
		<g>
			<rect x="16.154" y="175.095" class="st2" width="47.25" height="64.397"/>
		</g>
	</g>
	<g>
		<g>
			<path class="st0" d="M63.403,173.595H44.846c-0.828,0-1.5,0.671-1.5,1.5s0.672,1.5,1.5,1.5h17.058v61.397h-44.25v-61.397h13
				c0.828,0,1.5-0.671,1.5-1.5s-0.672-1.5-1.5-1.5h-14.5c-0.828,0-1.5,0.671-1.5,1.5v64.397c0,0.829,0.672,1.5,1.5,1.5h47.25
				c0.828,0,1.5-0.671,1.5-1.5v-64.397C64.903,174.266,64.231,173.595,63.403,173.595z"/>
		</g>
	</g>
	<g>
		<g>
			<path class="st1" d="M81.746,175.095H63.404v64.397h18.342c4.413,0,7.991-3.578,7.991-7.991v-48.415
				C89.737,178.672,86.159,175.095,81.746,175.095z"/>
		</g>
	</g>
	<g>
		<g>
			<path class="st0" d="M89.737,200.383c0.828,0,1.5-0.671,1.5-1.5v-15.797c0-5.233-4.258-9.491-9.491-9.491H63.403
				c-0.828,0-1.5,0.671-1.5,1.5v64.397c0,0.829,0.672,1.5,1.5,1.5h18.343c5.233,0,9.491-4.258,9.491-9.491v-17.897
				c0-0.829-0.672-1.5-1.5-1.5c-0.828,0-1.5,0.671-1.5,1.5v17.897c0,3.579-2.912,6.491-6.491,6.491H64.903v-61.397h16.843
				c3.579,0,6.491,2.912,6.491,6.491v15.797C88.237,199.711,88.909,200.383,89.737,200.383z"/>
		</g>
	</g>
	<g>
		<g>
			<path class="st4" d="M76.57,220.108c-3.329,0-6.028,2.699-6.028,6.028s2.699,6.028,6.028,6.028c3.329,0,6.028-2.699,6.028-6.028
				S79.899,220.108,76.57,220.108z"/>
		</g>
	</g>
	<g>
		<g>
			<path class="st0" d="M76.57,218.608c-4.15,0-7.527,3.377-7.527,7.528c0,4.151,3.377,7.528,7.527,7.528
				c4.15,0,7.527-3.377,7.527-7.528C84.098,221.985,80.721,218.608,76.57,218.608z M76.57,230.664c-2.496,0-4.527-2.031-4.527-4.528
				s2.031-4.528,4.527-4.528s4.527,2.031,4.527,4.528S79.066,230.664,76.57,230.664z"/>
		</g>
	</g>
	<g>
		<g>
			<path class="st2" d="M169,58.508H88c-4.142,0-7.5,3.358-7.5,7.5c0,4.142,3.358,7.5,7.5,7.5h81c4.142,0,7.5-3.358,7.5-7.5
				C176.5,61.866,173.142,58.508,169,58.508z"/>
		</g>
	</g>
	<g>
		<g>
			<path class="st0" d="M169,57.008h-50.802c-0.828,0-1.5,0.671-1.5,1.5s0.672,1.5,1.5,1.5H169c3.309,0,6,2.691,6,6s-2.691,6-6,6H88
				c-3.309,0-6-2.691-6-6s2.691-6,6-6h16.469c0.828,0,1.5-0.671,1.5-1.5s-0.672-1.5-1.5-1.5H88c-4.963,0-9,4.038-9,9s4.037,9,9,9h81
				c4.963,0,9-4.038,9-9S173.963,57.008,169,57.008z"/>
		</g>
	</g>
	<g>
		<g>
			<path class="st6" d="M232.024,157.043c-1.45-0.07-2.9,0.25-4.18,0.92l-4.22,2.2c0.69,1.08,1.08,2.35,1.05,3.69
				c-0.04,1.71-0.69,2.98-2.03,3.91l-59.17,45.49c-7.07,4.959-16.561,5.97-16.545,6.11l14.015-0.43c5.78-0.37,11.4-2.34,16.2-5.68
				l59.17-45.49c1.34-0.93,1.98-2.2,2.03-3.91C238.434,160.313,235.544,157.193,232.024,157.043z"/>
		</g>
	</g>
</g>
</svg>
