<?xml version="1.0" encoding="utf-8"?>
<!-- Generator: Adobe Illustrator 22.0.1, SVG Export Plug-In . SVG Version: 6.00 Build 0)  -->
<svg version="1.1" id="Layer_1" xmlns="http://www.w3.org/2000/svg" xmlns:xlink="http://www.w3.org/1999/xlink" x="0px" y="0px"
	 viewBox="0 0 256 256" style="enable-background:new 0 0 256 256;" xml:space="preserve">
<style type="text/css">
	.st0{fill:#3A312A;}
	.st1{fill:#8AC6DD;}
	.st2{fill:#F16C7A;}
	.st3{fill:#D7E057;}
	.st4{fill:#87796F;}
	.st5{fill:#FCE8CB;}
	.st6{fill:#DECAAD;}
	.st7{fill:#D6DF58;}
	.st8{fill:#FAE6CA;}
	.st9{fill:#DDC9AC;}
	.st10{fill:#D5DE58;}
	.st11{fill:#ED6E7A;}
	.st12{fill:#8AC5DC;}
	.st13{fill:#6CA8BF;}
	.st14{fill:#695B51;}
	.st15{fill:#F8E4C8;}
	.st16{fill:#EF6D7A;}
	.st17{fill-rule:evenodd;clip-rule:evenodd;fill:#F8E4C8;}
	.st18{fill:#89C4DB;}
	.st19{fill:#F59689;}
	.st20{fill:#D34E5C;}
	.st21{fill:#F7E3C7;}
	.st22{fill:#8AC3DA;}
	.st23{fill-rule:evenodd;clip-rule:evenodd;fill:#F7E3C7;}
	.st24{fill-rule:evenodd;clip-rule:evenodd;fill:#87796F;}
	.st25{fill:#B9C239;}
	.st26{fill:#D4DB56;}
	.st27{fill-rule:evenodd;clip-rule:evenodd;fill:#F16C7A;}
	.st28{fill-rule:evenodd;clip-rule:evenodd;fill:#F6E2C6;}
	.st29{fill:#F6E2C6;}
	.st30{fill-rule:evenodd;clip-rule:evenodd;fill:#FAE6CA;}
	.st31{fill:#B8C136;}
</style>
<g>
	<g>
		<g>
			<path class="st7" d="M48.045,26.394c-0.974,11.564-13.025,13.39-13.025,13.39c10.347,0.487,12.925,14.059,12.925,14.059
				c0.221-9.677,13.321-14.202,13.321-14.202C51.453,39.054,48.045,26.394,48.045,26.394z"/>
		</g>
	</g>
	<g>
		<g>
			<path class="st0" d="M61.356,38.143c-8.605-0.514-11.832-12.024-11.863-12.14c-0.19-0.702-0.848-1.159-1.583-1.102
				c-0.725,0.066-1.298,0.642-1.359,1.367c-0.86,10.215-11.314,11.963-11.754,12.032c-0.763,0.115-1.313,0.79-1.273,1.561
				c0.04,0.77,0.657,1.384,1.427,1.421C43.978,41.707,46.449,54,46.473,54.125c0.137,0.711,0.759,1.217,1.472,1.217
				c0.042,0,0.084-0.001,0.126-0.005c0.764-0.064,1.357-0.693,1.375-1.459C49.64,45.369,61.637,41.1,61.758,41.058
				c0.675-0.235,1.092-0.915,0.994-1.623C62.654,38.727,62.07,38.186,61.356,38.143z M47.79,48.489
				c-1.357-3.13-3.709-6.907-7.587-8.876c2.931-1.405,6.409-3.913,8.202-8.273c1.551,3.071,4.2,6.88,8.334,8.722
				C53.732,41.702,49.817,44.468,47.79,48.489z"/>
		</g>
	</g>
	<g>
		<g>
			<path class="st7" d="M26.346,43.375c-0.689,8.179-9.212,9.471-9.212,9.471c7.318,0.344,9.142,9.944,9.142,9.944
				c0.156-6.845,9.422-10.046,9.422-10.046C28.757,52.329,26.346,43.375,26.346,43.375z"/>
		</g>
	</g>
	<g>
		<g>
			<path class="st0" d="M35.788,51.247c-5.766-0.345-7.972-8.185-7.994-8.264c-0.19-0.702-0.852-1.167-1.582-1.102
				c-0.726,0.065-1.299,0.643-1.36,1.368c-0.579,6.871-7.646,8.067-7.942,8.114c-0.763,0.115-1.313,0.79-1.273,1.561
				c0.04,0.77,0.657,1.384,1.428,1.421c6.035,0.284,7.723,8.644,7.739,8.726c0.135,0.713,0.759,1.22,1.472,1.22
				c0.041,0,0.083-0.001,0.125-0.005c0.765-0.063,1.358-0.694,1.376-1.461c0.13-5.709,8.332-8.634,8.413-8.662
				c0.677-0.234,1.094-0.913,0.996-1.622C37.087,51.831,36.502,51.29,35.788,51.247z M26.203,58.042
				c-0.924-1.886-2.34-3.947-4.447-5.28c1.855-1.041,3.697-2.629,4.87-4.916c1.057,1.874,2.654,3.954,4.941,5.223
				C29.718,54.17,27.579,55.81,26.203,58.042z"/>
		</g>
	</g>
	<g>
		<g>
			<path class="st7" d="M26.346,16.718c-0.689,8.179-9.212,9.47-9.212,9.47c7.318,0.344,9.142,9.944,9.142,9.944
				c0.156-6.845,9.422-10.045,9.422-10.045C28.757,25.672,26.346,16.718,26.346,16.718z"/>
		</g>
	</g>
	<g>
		<g>
			<path class="st0" d="M35.788,24.589c-5.767-0.345-7.973-8.186-7.994-8.265c-0.19-0.702-0.852-1.167-1.582-1.102
				c-0.726,0.065-1.299,0.643-1.36,1.368c-0.579,6.871-7.646,8.067-7.942,8.114c-0.763,0.115-1.313,0.79-1.273,1.561
				c0.04,0.77,0.657,1.384,1.428,1.421c6.035,0.284,7.723,8.644,7.739,8.726c0.135,0.713,0.759,1.22,1.472,1.22
				c0.041,0,0.083-0.001,0.125-0.005c0.765-0.063,1.358-0.694,1.376-1.461c0.13-5.709,8.331-8.634,8.413-8.662
				c0.676-0.234,1.094-0.913,0.996-1.622C37.087,25.174,36.502,24.632,35.788,24.589z M26.203,31.384
				c-0.924-1.885-2.34-3.947-4.447-5.28c1.855-1.041,3.697-2.629,4.87-4.916c1.057,1.874,2.655,3.954,4.941,5.224
				C29.718,27.513,27.579,29.152,26.203,31.384z"/>
		</g>
	</g>
	<g>
		<g>
			<polygon class="st5" points="127.5,51.845 16.5,83.845 16.5,239.845 239.5,239.845 239.5,83.845 			"/>
		</g>
	</g>
	<g>
		<g>
			<path class="st0" d="M239.912,82.403l-112-32c-0.271-0.078-0.557-0.077-0.828,0.001l-111,32C15.442,82.589,15,83.177,15,83.845
				v64.196c0,0.829,0.671,1.5,1.5,1.5s1.5-0.671,1.5-1.5V84.974l109.502-31.568L238,84.977v153.369H18v-76.077
				c0-0.829-0.671-1.5-1.5-1.5s-1.5,0.671-1.5,1.5v77.577c0,0.829,0.671,1.5,1.5,1.5h223c0.828,0,1.5-0.671,1.5-1.5v-156
				C241,83.175,240.556,82.587,239.912,82.403z"/>
		</g>
	</g>
	<g>
		<g>
			<rect x="82.25" y="16.155" class="st3" width="91.5" height="223.69"/>
		</g>
	</g>
	<g>
		<g>
			<path class="st0" d="M173.75,14.655h-20.945c-0.828,0-1.5,0.671-1.5,1.5s0.672,1.5,1.5,1.5h19.445v220.69h-88.5V17.655h55.446
				c0.828,0,1.5-0.671,1.5-1.5s-0.672-1.5-1.5-1.5H82.25c-0.829,0-1.5,0.671-1.5,1.5v223.69c0,0.829,0.671,1.5,1.5,1.5h91.5
				c0.828,0,1.5-0.671,1.5-1.5V16.155C175.25,15.326,174.578,14.655,173.75,14.655z"/>
		</g>
	</g>
	<g>
		<g>
			<path class="st1" d="M113.506,41.655H97.494c-1.654,0-2.994,1.341-2.994,2.994v16.012c0,1.654,1.34,2.994,2.994,2.994h16.012
				c1.654,0,2.994-1.341,2.994-2.994V44.649C116.5,42.995,115.159,41.655,113.506,41.655z"/>
		</g>
	</g>
	<g>
		<g>
			<path class="st0" d="M113.506,40.155H97.494c-2.478,0-4.494,2.016-4.494,4.494v16.012c0,2.478,2.016,4.494,4.494,4.494h16.012
				c2.478,0,4.494-2.016,4.494-4.494V44.649C118,42.171,115.984,40.155,113.506,40.155z M115,60.661c0,0.824-0.67,1.494-1.494,1.494
				H97.494c-0.824,0-1.494-0.67-1.494-1.494V44.649c0-0.824,0.67-1.494,1.494-1.494h16.012c0.824,0,1.494,0.67,1.494,1.494V60.661z"
				/>
		</g>
	</g>
	<g>
		<g>
			<path class="st1" d="M158.506,116.655h-16.012c-1.654,0-2.994,1.341-2.994,2.994v16.012c0,1.654,1.34,2.994,2.994,2.994h16.012
				c1.654,0,2.994-1.341,2.994-2.994v-16.012C161.5,117.995,160.159,116.655,158.506,116.655z"/>
		</g>
	</g>
	<g>
		<g>
			<path class="st0" d="M158.506,115.155h-16.012c-2.479,0-4.494,2.016-4.494,4.494v16.012c0,2.478,2.016,4.494,4.494,4.494h16.012
				c2.479,0,4.494-2.016,4.494-4.494v-16.012C163,117.171,160.984,115.155,158.506,115.155z M160,135.661
				c0,0.824-0.67,1.494-1.494,1.494h-16.012c-0.824,0-1.494-0.67-1.494-1.494v-16.012c0-0.824,0.67-1.494,1.494-1.494h16.012
				c0.824,0,1.494,0.67,1.494,1.494V135.661z"/>
		</g>
	</g>
	<g>
		<g>
			<path class="st1" d="M158.506,68.655h-16.012c-1.654,0-2.994,1.341-2.994,2.994v16.012c0,1.654,1.34,2.994,2.994,2.994h16.012
				c1.654,0,2.994-1.341,2.994-2.994V71.649C161.5,69.995,160.159,68.655,158.506,68.655z"/>
		</g>
	</g>
	<g>
		<g>
			<path class="st0" d="M158.506,67.155h-16.012c-2.479,0-4.494,2.016-4.494,4.494v16.012c0,2.478,2.016,4.494,4.494,4.494h16.012
				c2.479,0,4.494-2.016,4.494-4.494V71.649C163,69.171,160.984,67.155,158.506,67.155z M160,87.661c0,0.824-0.67,1.494-1.494,1.494
				h-16.012c-0.824,0-1.494-0.67-1.494-1.494V71.649c0-0.824,0.67-1.494,1.494-1.494h16.012c0.824,0,1.494,0.67,1.494,1.494V87.661z
				"/>
		</g>
	</g>
	<g>
		<g>
			<path class="st1" d="M113.506,98.655H97.494c-1.654,0-2.994,1.341-2.994,2.994v16.012c0,1.654,1.34,2.994,2.994,2.994h16.012
				c1.654,0,2.994-1.341,2.994-2.994v-16.012C116.5,99.995,115.159,98.655,113.506,98.655z"/>
		</g>
	</g>
	<g>
		<g>
			<path class="st0" d="M113.506,97.155H97.494c-2.478,0-4.494,2.016-4.494,4.494v16.012c0,2.478,2.016,4.494,4.494,4.494h16.012
				c2.478,0,4.494-2.016,4.494-4.494v-16.012C118,99.171,115.984,97.155,113.506,97.155z M115,117.661
				c0,0.824-0.67,1.494-1.494,1.494H97.494c-0.824,0-1.494-0.67-1.494-1.494v-16.012c0-0.824,0.67-1.494,1.494-1.494h16.012
				c0.824,0,1.494,0.67,1.494,1.494V117.661z"/>
		</g>
	</g>
	<g>
		<g>
			<path class="st1" d="M113.506,163.655H97.494c-1.654,0-2.994,1.341-2.994,2.994v16.012c0,1.654,1.34,2.994,2.994,2.994h16.012
				c1.654,0,2.994-1.341,2.994-2.994v-16.012C116.5,164.995,115.159,163.655,113.506,163.655z"/>
		</g>
	</g>
	<g>
		<g>
			<path class="st0" d="M113.506,162.155H97.494c-2.478,0-4.494,2.016-4.494,4.494v16.012c0,2.478,2.016,4.494,4.494,4.494h16.012
				c2.478,0,4.494-2.016,4.494-4.494v-16.012C118,164.171,115.984,162.155,113.506,162.155z M115,182.661
				c0,0.824-0.67,1.494-1.494,1.494H97.494c-0.824,0-1.494-0.67-1.494-1.494v-16.012c0-0.824,0.67-1.494,1.494-1.494h16.012
				c0.824,0,1.494,0.67,1.494,1.494V182.661z"/>
		</g>
	</g>
	<g>
		<g>
			<path class="st1" d="M158.506,188.655h-16.012c-1.654,0-2.994,1.341-2.994,2.994v16.012c0,1.654,1.34,2.994,2.994,2.994h16.012
				c1.654,0,2.994-1.341,2.994-2.994v-16.012C161.5,189.995,160.159,188.655,158.506,188.655z"/>
		</g>
	</g>
	<g>
		<g>
			<path class="st0" d="M158.506,187.155h-16.012c-2.479,0-4.494,2.016-4.494,4.494v16.012c0,2.478,2.016,4.494,4.494,4.494h16.012
				c2.479,0,4.494-2.016,4.494-4.494v-16.012C163,189.171,160.984,187.155,158.506,187.155z M160,207.661
				c0,0.824-0.67,1.494-1.494,1.494h-16.012c-0.824,0-1.494-0.67-1.494-1.494v-16.012c0-0.824,0.67-1.494,1.494-1.494h16.012
				c0.824,0,1.494,0.67,1.494,1.494V207.661z"/>
		</g>
	</g>
	<g>
		<g>
			<path class="st1" d="M59.72,101.516H38.494c-1.654,0-2.994,1.34-2.994,2.994v21.226c0,1.654,1.341,2.994,2.994,2.994H59.72
				c1.654,0,2.994-1.341,2.994-2.994V104.51C62.714,102.857,61.373,101.516,59.72,101.516z"/>
		</g>
	</g>
	<g>
		<g>
			<path class="st0" d="M59.72,100.016H38.494c-2.478,0-4.494,2.016-4.494,4.494v21.226c0,2.478,2.016,4.494,4.494,4.494H59.72
				c2.478,0,4.494-2.016,4.494-4.494V104.51C64.214,102.032,62.198,100.016,59.72,100.016z M61.214,125.736
				c0,0.824-0.67,1.494-1.494,1.494H38.494c-0.824,0-1.494-0.67-1.494-1.494V104.51c0-0.824,0.67-1.494,1.494-1.494H59.72
				c0.824,0,1.494,0.67,1.494,1.494V125.736z"/>
		</g>
	</g>
	<g>
		<g>
			<path class="st1" d="M59.72,146.048H38.494c-1.654,0-2.994,1.341-2.994,2.994v21.226c0,1.654,1.341,2.994,2.994,2.994H59.72
				c1.654,0,2.994-1.34,2.994-2.994v-21.226C62.714,147.388,61.373,146.048,59.72,146.048z"/>
		</g>
	</g>
	<g>
		<g>
			<path class="st0" d="M59.72,144.548H38.494c-2.478,0-4.494,2.016-4.494,4.494v21.226c0,2.478,2.016,4.494,4.494,4.494H59.72
				c2.478,0,4.494-2.016,4.494-4.494v-21.226C64.214,146.564,62.198,144.548,59.72,144.548z M61.214,170.268
				c0,0.824-0.67,1.494-1.494,1.494H38.494c-0.824,0-1.494-0.67-1.494-1.494v-21.226c0-0.824,0.67-1.494,1.494-1.494H59.72
				c0.824,0,1.494,0.67,1.494,1.494V170.268z"/>
		</g>
	</g>
	<g>
		<g>
			<path class="st1" d="M59.72,190.58H38.494c-1.654,0-2.994,1.34-2.994,2.994V214.8c0,1.654,1.341,2.994,2.994,2.994H59.72
				c1.654,0,2.994-1.34,2.994-2.994v-21.226C62.714,191.92,61.373,190.58,59.72,190.58z"/>
		</g>
	</g>
	<g>
		<g>
			<path class="st0" d="M59.72,189.08H38.494c-2.478,0-4.494,2.016-4.494,4.494V214.8c0,2.478,2.016,4.494,4.494,4.494H59.72
				c2.478,0,4.494-2.016,4.494-4.494v-21.226C64.214,191.096,62.198,189.08,59.72,189.08z M61.214,214.799
				c0,0.824-0.67,1.494-1.494,1.494H38.494c-0.824,0-1.494-0.67-1.494-1.494v-21.226c0-0.824,0.67-1.494,1.494-1.494H59.72
				c0.824,0,1.494,0.67,1.494,1.494V214.799z"/>
		</g>
	</g>
	<g>
		<g>
			<path class="st1" d="M217.506,101.516H196.28c-1.654,0-2.994,1.34-2.994,2.994v21.226c0,1.654,1.341,2.994,2.994,2.994h21.226
				c1.654,0,2.994-1.341,2.994-2.994V104.51C220.5,102.857,219.159,101.516,217.506,101.516z"/>
		</g>
	</g>
	<g>
		<g>
			<path class="st0" d="M217.506,100.016H196.28c-2.479,0-4.494,2.016-4.494,4.494v21.226c0,2.478,2.016,4.494,4.494,4.494h21.226
				c2.479,0,4.494-2.016,4.494-4.494V104.51C222,102.032,219.984,100.016,217.506,100.016z M219,125.736
				c0,0.824-0.67,1.494-1.494,1.494H196.28c-0.824,0-1.494-0.67-1.494-1.494V104.51c0-0.824,0.67-1.494,1.494-1.494h21.226
				c0.824,0,1.494,0.67,1.494,1.494V125.736z"/>
		</g>
	</g>
	<g>
		<g>
			<path class="st1" d="M217.506,146.048H196.28c-1.654,0-2.994,1.341-2.994,2.994v21.226c0,1.654,1.341,2.994,2.994,2.994h21.226
				c1.654,0,2.994-1.34,2.994-2.994v-21.226C220.5,147.388,219.159,146.048,217.506,146.048z"/>
		</g>
	</g>
	<g>
		<g>
			<path class="st0" d="M217.506,144.548H196.28c-2.479,0-4.494,2.016-4.494,4.494v21.226c0,2.478,2.016,4.494,4.494,4.494h21.226
				c2.479,0,4.494-2.016,4.494-4.494v-21.226C222,146.564,219.984,144.548,217.506,144.548z M219,170.268
				c0,0.824-0.67,1.494-1.494,1.494H196.28c-0.824,0-1.494-0.67-1.494-1.494v-21.226c0-0.824,0.67-1.494,1.494-1.494h21.226
				c0.824,0,1.494,0.67,1.494,1.494V170.268z"/>
		</g>
	</g>
	<g>
		<g>
			<path class="st1" d="M217.506,190.58H196.28c-1.654,0-2.994,1.34-2.994,2.994V214.8c0,1.654,1.341,2.994,2.994,2.994h21.226
				c1.654,0,2.994-1.34,2.994-2.994v-21.226C220.5,191.92,219.159,190.58,217.506,190.58z"/>
		</g>
	</g>
	<g>
		<g>
			<path class="st0" d="M217.506,189.08H196.28c-2.479,0-4.494,2.016-4.494,4.494v21.226c0,2.478,2.016,4.494,4.494,4.494h21.226
				c2.479,0,4.494-2.016,4.494-4.494v-21.226C222,191.096,219.984,189.08,217.506,189.08z M219,214.799
				c0,0.824-0.67,1.494-1.494,1.494H196.28c-0.824,0-1.494-0.67-1.494-1.494v-21.226c0-0.824,0.67-1.494,1.494-1.494h21.226
				c0.824,0,1.494,0.67,1.494,1.494V214.799z"/>
		</g>
	</g>
	<g>
		<g>
			<path class="st6" d="M175.25,67.045v4.57l45.022,12.866c1.023,0.292,1.728,1.227,1.728,2.291v151.573h16V84.975L175.25,67.045z"
				/>
		</g>
	</g>
</g>
</svg>
