<?xml version="1.0" encoding="utf-8"?>
<!-- Generator: Adobe Illustrator 22.0.1, SVG Export Plug-In . SVG Version: 6.00 Build 0)  -->
<svg version="1.1" id="Layer_1" xmlns="http://www.w3.org/2000/svg" xmlns:xlink="http://www.w3.org/1999/xlink" x="0px" y="0px"
	 viewBox="0 0 256 256" style="enable-background:new 0 0 256 256;" xml:space="preserve">
<style type="text/css">
	.st0{fill:#3A312A;}
	.st1{fill:#8AC6DD;}
	.st2{fill:#F16C7A;}
	.st3{fill:#D7E057;}
	.st4{fill:#87796F;}
	.st5{fill:#FCE8CB;}
	.st6{fill:#DECAAD;}
	.st7{fill:#D6DF58;}
	.st8{fill:#FAE6CA;}
	.st9{fill:#DDC9AC;}
	.st10{fill:#D5DE58;}
	.st11{fill:#ED6E7A;}
	.st12{fill:#8AC5DC;}
	.st13{fill:#6CA8BF;}
	.st14{fill:#695B51;}
	.st15{fill:#F8E4C8;}
	.st16{fill:#EF6D7A;}
	.st17{fill-rule:evenodd;clip-rule:evenodd;fill:#F8E4C8;}
	.st18{fill:#89C4DB;}
	.st19{fill:#F59689;}
	.st20{fill:#D34E5C;}
	.st21{fill:#F7E3C7;}
	.st22{fill:#8AC3DA;}
	.st23{fill-rule:evenodd;clip-rule:evenodd;fill:#F7E3C7;}
	.st24{fill-rule:evenodd;clip-rule:evenodd;fill:#87796F;}
	.st25{fill:#B9C239;}
	.st26{fill:#D4DB56;}
	.st27{fill-rule:evenodd;clip-rule:evenodd;fill:#F16C7A;}
	.st28{fill-rule:evenodd;clip-rule:evenodd;fill:#F6E2C6;}
	.st29{fill:#F6E2C6;}
	.st30{fill-rule:evenodd;clip-rule:evenodd;fill:#FAE6CA;}
	.st31{fill:#B8C136;}
</style>
<g>
	<g>
		<g>
			<rect x="39.856" y="116.138" class="st15" width="19.819" height="83.317"/>
		</g>
	</g>
	<g>
		<g>
			<path class="st0" d="M59.675,114.638H39.855c-0.828,0-1.5,0.671-1.5,1.5v34.17c0,0.829,0.672,1.5,1.5,1.5
				c0.828,0,1.5-0.671,1.5-1.5v-32.67h16.819v80.317H41.355v-33.471c0-0.829-0.672-1.5-1.5-1.5c-0.828,0-1.5,0.671-1.5,1.5v34.971
				c0,0.829,0.672,1.5,1.5,1.5h19.819c0.828,0,1.5-0.671,1.5-1.5v-83.317C61.175,115.309,60.503,114.638,59.675,114.638z"/>
		</g>
	</g>
	<g>
		<g>
			<path class="st12" d="M237.32,91.63L131.171,17.248c-1.904-1.334-4.438-1.334-6.342,0l-47.336,33.17L66.04,58.443L18.68,91.63
				c-4.423,3.099-2.23,10.051,3.171,10.051h212.299C239.55,101.68,241.743,94.729,237.32,91.63z"/>
		</g>
	</g>
	<g>
		<g>
			<path class="st0" d="M238.181,90.401L132.031,16.019c-2.41-1.689-5.652-1.689-8.063,0l-47.336,33.17
				c-0.679,0.476-0.844,1.411-0.368,2.089c0.476,0.679,1.411,0.843,2.089,0.368l47.336-33.17c1.383-0.969,3.238-0.968,4.621,0
				L236.46,92.858c1.781,1.249,1.958,3.147,1.528,4.508c-0.429,1.36-1.663,2.814-3.839,2.814H21.851
				c-2.176,0-3.41-1.454-3.839-2.814c-0.43-1.361-0.253-3.259,1.528-4.508L66.9,59.671c0.679-0.476,0.844-1.411,0.368-2.089
				c-0.477-0.679-1.411-0.843-2.089-0.368l-47.36,33.187c-2.563,1.795-3.61,4.883-2.669,7.867s3.571,4.912,6.7,4.912h212.299
				c3.129,0,5.759-1.928,6.7-4.912S240.743,92.197,238.181,90.401z"/>
		</g>
	</g>
	<g>
		<g>
			<path class="st7" d="M48.045,26.302C47.071,37.866,35.02,39.691,35.02,39.691c10.347,0.487,12.925,14.059,12.925,14.059
				c0.221-9.677,13.321-14.202,13.321-14.202C51.453,38.961,48.045,26.302,48.045,26.302z"/>
		</g>
	</g>
	<g>
		<g>
			<path class="st0" d="M61.356,38.051c-8.604-0.514-11.832-12.024-11.863-12.141c-0.19-0.702-0.849-1.16-1.584-1.102
				c-0.725,0.066-1.298,0.642-1.359,1.367C45.69,36.391,35.237,38.14,34.796,38.208c-0.763,0.115-1.314,0.79-1.273,1.561
				c0.04,0.77,0.657,1.384,1.428,1.421c9.027,0.425,11.498,12.718,11.521,12.842c0.138,0.711,0.76,1.217,1.473,1.217
				c0.042,0,0.084-0.001,0.126-0.005c0.764-0.064,1.357-0.693,1.375-1.459c0.194-8.508,12.191-12.777,12.313-12.819
				c0.676-0.235,1.092-0.915,0.994-1.623C62.653,38.635,62.07,38.094,61.356,38.051z M47.79,48.397
				c-1.356-3.13-3.709-6.907-7.587-8.876c2.931-1.405,6.409-3.913,8.202-8.273c1.551,3.071,4.2,6.88,8.334,8.722
				C53.732,41.61,49.816,44.376,47.79,48.397z"/>
		</g>
	</g>
	<g>
		<g>
			<path class="st7" d="M26.346,43.282c-0.689,8.179-9.212,9.471-9.212,9.471c7.318,0.344,9.142,9.944,9.142,9.944
				c0.156-6.845,9.422-10.046,9.422-10.046C28.757,52.237,26.346,43.282,26.346,43.282z"/>
		</g>
	</g>
	<g>
		<g>
			<path class="st0" d="M35.788,51.154c-5.767-0.345-7.973-8.185-7.995-8.264c-0.19-0.702-0.864-1.162-1.581-1.102
				c-0.726,0.065-1.3,0.643-1.361,1.368c-0.578,6.871-7.646,8.067-7.941,8.114c-0.763,0.115-1.313,0.79-1.273,1.561
				c0.04,0.77,0.657,1.384,1.428,1.421c6.035,0.284,7.724,8.644,7.739,8.726c0.136,0.712,0.759,1.22,1.473,1.22
				c0.041,0,0.083-0.001,0.125-0.005c0.765-0.063,1.358-0.694,1.376-1.461c0.13-5.709,8.331-8.634,8.412-8.662
				c0.676-0.234,1.093-0.913,0.996-1.622C37.087,51.739,36.502,51.197,35.788,51.154z M26.203,57.95
				c-0.924-1.886-2.34-3.947-4.447-5.28c1.855-1.041,3.697-2.63,4.87-4.917c1.058,1.874,2.655,3.955,4.941,5.224
				C29.719,54.078,27.579,55.717,26.203,57.95z"/>
		</g>
	</g>
	<g>
		<g>
			<path class="st7" d="M26.346,16.625c-0.689,8.179-9.212,9.471-9.212,9.471c7.318,0.344,9.142,9.944,9.142,9.944
				c0.156-6.845,9.422-10.045,9.422-10.045C28.757,25.579,26.346,16.625,26.346,16.625z"/>
		</g>
	</g>
	<g>
		<g>
			<path class="st0" d="M35.788,24.497c-5.767-0.345-7.973-8.186-7.995-8.265c-0.19-0.702-0.864-1.161-1.581-1.102
				c-0.726,0.065-1.3,0.643-1.361,1.368c-0.578,6.871-7.646,8.067-7.941,8.114c-0.763,0.115-1.313,0.79-1.273,1.561
				c0.04,0.77,0.657,1.384,1.428,1.421c6.035,0.284,7.724,8.644,7.739,8.726c0.136,0.713,0.759,1.22,1.473,1.22
				c0.041,0,0.083-0.001,0.125-0.005c0.765-0.063,1.358-0.694,1.376-1.461c0.13-5.709,8.331-8.634,8.412-8.662
				c0.676-0.234,1.093-0.913,0.996-1.622C37.087,25.082,36.502,24.54,35.788,24.497z M26.203,31.292
				c-0.924-1.885-2.34-3.947-4.447-5.28c1.855-1.041,3.697-2.63,4.87-4.916c1.058,1.874,2.655,3.954,4.942,5.224
				C29.719,27.42,27.579,29.06,26.203,31.292z"/>
		</g>
	</g>
	<g>
		<g>
			<rect x="16.5" y="226.833" class="st4" width="223" height="12.92"/>
		</g>
	</g>
	<g>
		<g>
			<path class="st0" d="M239.5,225.333h-223c-0.828,0-1.5,0.671-1.5,1.5v12.92c0,0.829,0.672,1.5,1.5,1.5h223
				c0.828,0,1.5-0.671,1.5-1.5v-12.92C241,226.004,240.328,225.333,239.5,225.333z M238,238.253H18v-9.92h220V238.253z"/>
		</g>
	</g>
	<g>
		<g>
			<rect x="26.125" y="213.913" class="st4" width="203.75" height="12.92"/>
		</g>
	</g>
	<g>
		<g>
			<path class="st0" d="M229.875,212.413H26.125c-0.828,0-1.5,0.671-1.5,1.5v12.92c0,0.829,0.672,1.5,1.5,1.5h203.75
				c0.828,0,1.5-0.671,1.5-1.5v-12.92C231.375,213.084,230.703,212.413,229.875,212.413z M228.375,225.333H27.625v-9.92h200.75
				V225.333z"/>
		</g>
	</g>
	<g>
		<g>
			<path class="st15" d="M59.506,199.455H40.024c-3.55,0-6.427,2.878-6.427,6.427v8.03h32.337v-8.03
				C65.934,202.333,63.056,199.455,59.506,199.455z"/>
		</g>
	</g>
	<g>
		<g>
			<path class="st0" d="M59.507,197.955H40.024c-4.371,0-7.928,3.556-7.928,7.928v8.03c0,0.829,0.672,1.5,1.5,1.5h32.337
				c0.828,0,1.5-0.671,1.5-1.5v-8.03C67.434,201.511,63.878,197.955,59.507,197.955z M64.434,212.413H35.097v-6.53
				c0-2.717,2.211-4.928,4.928-4.928h19.482c2.717,0,4.927,2.21,4.927,4.928V212.413z"/>
		</g>
	</g>
	<g>
		<g>
			<path class="st15" d="M33.597,101.68v8.03c0,3.55,2.878,6.427,6.427,6.427h19.482c3.55,0,6.427-2.878,6.427-6.427v-8.03H33.597z"
				/>
		</g>
	</g>
	<g>
		<g>
			<path class="st0" d="M65.934,100.18H33.597c-0.828,0-1.5,0.671-1.5,1.5v8.03c0,4.371,3.557,7.927,7.928,7.927h19.482
				c4.371,0,7.927-3.556,7.927-7.927v-8.03C67.434,100.852,66.762,100.18,65.934,100.18z M64.434,109.71
				c0,2.717-2.21,4.927-4.927,4.927H40.024c-2.717,0-4.928-2.21-4.928-4.927v-6.53h29.337V109.71z"/>
		</g>
	</g>
	<g>
		<g>
			<path class="st15" d="M111.663,199.455H92.181c-3.55,0-6.427,2.878-6.427,6.427v8.03h32.337v-8.03
				C118.09,202.333,115.213,199.455,111.663,199.455z"/>
		</g>
	</g>
	<g>
		<g>
			<path class="st0" d="M111.663,197.955H92.181c-4.371,0-7.928,3.556-7.928,7.928v8.03c0,0.829,0.672,1.5,1.5,1.5h32.337
				c0.828,0,1.5-0.671,1.5-1.5v-8.03C119.59,201.511,116.034,197.955,111.663,197.955z M116.59,212.413H87.253v-6.53
				c0-2.717,2.211-4.928,4.928-4.928h19.482c2.717,0,4.927,2.21,4.927,4.928V212.413z"/>
		</g>
	</g>
	<g>
		<g>
			<path class="st15" d="M85.753,101.68v8.03c0,3.55,2.878,6.427,6.427,6.427h19.482c3.55,0,6.427-2.878,6.427-6.427v-8.03H85.753z"
				/>
		</g>
	</g>
	<g>
		<g>
			<path class="st0" d="M118.09,100.18H85.753c-0.828,0-1.5,0.671-1.5,1.5v8.03c0,4.371,3.557,7.927,7.928,7.927h19.482
				c4.371,0,7.927-3.556,7.927-7.927v-8.03C119.59,100.852,118.918,100.18,118.09,100.18z M116.59,109.71
				c0,2.717-2.21,4.927-4.927,4.927H92.181c-2.717,0-4.928-2.21-4.928-4.927v-6.53h29.337V109.71z"/>
		</g>
	</g>
	<g>
		<g>
			<rect x="92.012" y="116.138" class="st15" width="19.819" height="83.317"/>
		</g>
	</g>
	<g>
		<g>
			<path class="st0" d="M111.831,114.638H92.012c-0.828,0-1.5,0.671-1.5,1.5v83.317c0,0.829,0.672,1.5,1.5,1.5h19.819
				c0.828,0,1.5-0.671,1.5-1.5v-83.317C113.331,115.309,112.659,114.638,111.831,114.638z M110.331,197.955H93.512v-80.317h16.819
				V197.955z"/>
		</g>
	</g>
	<g>
		<g>
			<path class="st15" d="M163.819,199.455h-19.482c-3.55,0-6.427,2.878-6.427,6.427v8.03h32.337v-8.03
				C170.247,202.333,167.369,199.455,163.819,199.455z"/>
		</g>
	</g>
	<g>
		<g>
			<path class="st0" d="M163.819,197.955h-19.482c-4.371,0-7.927,3.556-7.927,7.928v8.03c0,0.829,0.672,1.5,1.5,1.5h32.337
				c0.828,0,1.5-0.671,1.5-1.5v-8.03C171.747,201.511,168.19,197.955,163.819,197.955z M168.747,212.413H139.41v-6.53
				c0-2.717,2.21-4.928,4.927-4.928h19.482c2.717,0,4.928,2.21,4.928,4.928V212.413z"/>
		</g>
	</g>
	<g>
		<g>
			<path class="st15" d="M137.91,101.68v8.03c0,3.55,2.878,6.427,6.427,6.427h19.482c3.55,0,6.427-2.878,6.427-6.427v-8.03H137.91z"
				/>
		</g>
	</g>
	<g>
		<g>
			<path class="st0" d="M170.247,100.18H137.91c-0.828,0-1.5,0.671-1.5,1.5v8.03c0,4.371,3.556,7.927,7.927,7.927h19.482
				c4.371,0,7.928-3.556,7.928-7.927v-8.03C171.747,100.852,171.075,100.18,170.247,100.18z M168.747,109.71
				c0,2.717-2.211,4.927-4.928,4.927h-19.482c-2.717,0-4.927-2.21-4.927-4.927v-6.53h29.337V109.71z"/>
		</g>
	</g>
	<g>
		<g>
			<rect x="144.168" y="116.138" class="st15" width="19.82" height="83.317"/>
		</g>
	</g>
	<g>
		<g>
			<path class="st0" d="M163.988,114.638h-19.819c-0.828,0-1.5,0.671-1.5,1.5v83.317c0,0.829,0.672,1.5,1.5,1.5h19.819
				c0.828,0,1.5-0.671,1.5-1.5v-83.317C165.488,115.309,164.816,114.638,163.988,114.638z M162.488,197.955h-16.819v-80.317h16.819
				V197.955z"/>
		</g>
	</g>
	<g>
		<g>
			<path class="st15" d="M215.976,199.455h-19.482c-3.55,0-6.427,2.878-6.427,6.427v8.03h32.337v-8.03
				C222.403,202.333,219.526,199.455,215.976,199.455z"/>
		</g>
	</g>
	<g>
		<g>
			<path class="st0" d="M215.976,197.955h-19.482c-4.371,0-7.927,3.556-7.927,7.928v8.03c0,0.829,0.672,1.5,1.5,1.5h32.337
				c0.828,0,1.5-0.671,1.5-1.5v-8.03C223.903,201.511,220.347,197.955,215.976,197.955z M220.903,212.413h-29.337v-6.53
				c0-2.717,2.21-4.928,4.927-4.928h19.482c2.717,0,4.928,2.21,4.928,4.928V212.413z"/>
		</g>
	</g>
	<g>
		<g>
			<path class="st15" d="M190.066,101.68v8.03c0,3.55,2.878,6.427,6.427,6.427h19.482c3.55,0,6.427-2.878,6.427-6.427v-8.03H190.066
				z"/>
		</g>
	</g>
	<g>
		<g>
			<path class="st0" d="M222.403,100.18h-32.337c-0.828,0-1.5,0.671-1.5,1.5v8.03c0,4.371,3.556,7.927,7.927,7.927h19.482
				c4.371,0,7.928-3.556,7.928-7.927v-8.03C223.903,100.852,223.231,100.18,222.403,100.18z M220.903,109.71
				c0,2.717-2.211,4.927-4.928,4.927h-19.482c-2.717,0-4.927-2.21-4.927-4.927v-6.53h29.337V109.71z"/>
		</g>
	</g>
	<g>
		<g>
			<rect x="196.325" y="116.138" class="st15" width="19.819" height="83.317"/>
		</g>
	</g>
	<g>
		<g>
			<path class="st0" d="M216.145,114.638h-19.819c-0.828,0-1.5,0.671-1.5,1.5v83.317c0,0.829,0.672,1.5,1.5,1.5h19.819
				c0.828,0,1.5-0.671,1.5-1.5v-83.317C217.645,115.309,216.973,114.638,216.145,114.638z M214.645,197.955h-16.819v-80.317h16.819
				V197.955z"/>
		</g>
	</g>
	<g>
		<g>
			<polygon class="st4" points="90.368,64.118 90.368,78.726 80.426,64.118 72.808,64.118 72.808,90.522 80.48,90.522 80.48,76.024 
				90.368,90.522 98.059,90.522 98.059,64.118 			"/>
		</g>
	</g>
	<g>
		<g>
			<path class="st0" d="M98.059,62.618h-7.69c-0.828,0-1.5,0.671-1.5,1.5v9.738l-7.202-10.582c-0.279-0.411-0.744-0.656-1.24-0.656
				h-7.618c-0.828,0-1.5,0.671-1.5,1.5v26.404c0,0.829,0.672,1.5,1.5,1.5h7.673c0.828,0,1.5-0.671,1.5-1.5v-9.636l7.148,10.481
				c0.279,0.41,0.743,0.655,1.239,0.655h7.69c0.828,0,1.5-0.671,1.5-1.5V64.118C99.559,63.29,98.887,62.618,98.059,62.618z
				 M96.559,89.022h-5.398L81.72,75.179c-0.371-0.544-1.053-0.783-1.682-0.588c-0.629,0.194-1.058,0.775-1.058,1.433v12.998h-4.673
				V65.618h5.324l9.496,13.952c0.371,0.545,1.056,0.782,1.682,0.59c0.629-0.194,1.059-0.775,1.059-1.434V65.618h4.69V89.022z"/>
		</g>
	</g>
	<g>
		<g>
			<polygon class="st4" points="122.372,64.118 117.041,73.026 111.721,64.118 102.659,64.118 112.943,79.463 112.943,90.522 
				121.12,90.522 121.12,79.463 131.386,64.118 			"/>
		</g>
	</g>
	<g>
		<g>
			<path class="st0" d="M132.71,63.412c-0.261-0.488-0.77-0.793-1.323-0.793h-9.015c-0.527,0-1.017,0.277-1.287,0.729l-4.043,6.754
				l-4.032-6.753c-0.271-0.453-0.76-0.731-1.288-0.731h-9.063c-0.554,0-1.063,0.305-1.323,0.794
				c-0.261,0.488-0.231,1.081,0.077,1.541l10.03,14.966v10.603c0,0.829,0.672,1.5,1.5,1.5h8.177c0.828,0,1.5-0.671,1.5-1.5V79.919
				l10.014-14.967C132.941,64.492,132.971,63.9,132.71,63.412z M119.873,78.629c-0.165,0.247-0.253,0.537-0.253,0.834v9.559h-5.177
				v-9.559c0-0.297-0.089-0.588-0.254-0.835l-8.72-13.01h5.4l4.883,8.176c0.27,0.453,0.76,0.73,1.287,0.731c0.001,0,0.001,0,0.001,0
				c0.527,0,1.017-0.277,1.287-0.729l4.895-8.178h5.355L119.873,78.629z"/>
		</g>
	</g>
	<g>
		<g>
			<path class="st4" d="M155.752,78.022c-0.702-1.164-1.824-2.14-3.367-2.927c-1.543-0.786-4.097-1.564-7.664-2.332
				c-1.441-0.3-2.353-0.624-2.737-0.972c-0.397-0.336-0.595-0.714-0.595-1.135c0-0.577,0.241-1.066,0.721-1.468
				c0.48-0.402,1.194-0.603,2.143-0.603c1.152,0,2.056,0.27,2.711,0.811c0.654,0.54,1.083,1.405,1.287,2.594l7.691-0.45
				c-0.336-2.738-1.391-4.734-3.161-5.989c-1.772-1.255-4.344-1.882-7.718-1.882c-2.75,0-4.914,0.345-6.493,1.036
				c-1.579,0.691-2.762,1.639-3.548,2.846c-0.786,1.207-1.18,2.488-1.18,3.846c0,2.065,0.769,3.764,2.306,5.097
				c1.524,1.333,4.076,2.402,7.654,3.206c2.186,0.48,3.579,0.991,4.179,1.531c0.601,0.54,0.901,1.152,0.901,1.837
				c0,0.72-0.315,1.354-0.946,1.9c-0.63,0.547-1.528,0.819-2.692,0.819c-1.561,0-2.762-0.534-3.602-1.603
				c-0.516-0.66-0.859-1.621-1.026-2.882l-7.763,0.486c0.228,2.666,1.207,4.863,2.935,6.592c1.729,1.729,4.839,2.594,9.33,2.594
				c2.557,0,4.677-0.37,6.358-1.108c1.68-0.738,2.99-1.821,3.926-3.251c0.936-1.429,1.405-2.99,1.405-4.683
				C156.806,80.49,156.454,79.188,155.752,78.022z"/>
		</g>
	</g>
	<g>
		<g>
			<path class="st0" d="M157.036,77.248c-0.846-1.403-2.182-2.577-3.972-3.489c-0.321-0.164-0.679-0.326-1.071-0.487l4.036-0.236
				c0.413-0.024,0.799-0.219,1.064-0.537c0.265-0.318,0.387-0.732,0.337-1.144c-0.389-3.161-1.66-5.525-3.782-7.03
				c-2.023-1.432-4.912-2.158-8.586-2.158c-2.986,0-5.307,0.38-7.095,1.162c-1.843,0.806-3.257,1.95-4.203,3.401
				c-0.944,1.449-1.423,3.019-1.423,4.664c0,2.51,0.95,4.606,2.818,6.226c0.994,0.869,2.313,1.621,3.989,2.269l-6.392,0.401
				c-0.403,0.025-0.778,0.212-1.042,0.518c-0.264,0.306-0.393,0.705-0.358,1.107c0.257,3.014,1.391,5.546,3.369,7.525
				c2.042,2.041,5.44,3.032,10.391,3.032c2.755,0,5.097-0.416,6.96-1.234c1.944-0.854,3.485-2.133,4.579-3.802
				c1.095-1.671,1.649-3.523,1.649-5.504C158.306,80.221,157.879,78.646,157.036,77.248z M154.146,85.792
				c-0.78,1.192-1.852,2.075-3.275,2.7c-1.481,0.651-3.417,0.981-5.754,0.981c-4.058,0-6.84-0.725-8.27-2.154
				c-1.145-1.146-1.894-2.508-2.268-4.137l4.818-0.302c0.242,0.893,0.594,1.628,1.063,2.23c1.119,1.423,2.772,2.176,4.781,2.176
				c1.53,0,2.767-0.399,3.675-1.187c0.957-0.829,1.463-1.878,1.463-3.033c0-0.773-0.242-1.914-1.396-2.952
				c-0.827-0.745-2.326-1.325-4.854-1.879c-3.315-0.746-5.669-1.712-7.001-2.876c-1.203-1.043-1.788-2.34-1.788-3.963
				c0-1.069,0.307-2.059,0.937-3.026c0.629-0.965,1.575-1.715,2.892-2.291c1.382-0.604,3.364-0.91,5.893-0.91
				c3.041,0,5.347,0.541,6.852,1.606c1.074,0.762,1.812,1.871,2.23,3.367l-4.756,0.278c-0.329-0.915-0.821-1.645-1.471-2.18
				c-0.927-0.766-2.16-1.155-3.665-1.155c-1.307,0-2.352,0.321-3.107,0.954c-0.822,0.689-1.257,1.595-1.257,2.618
				c0,0.605,0.195,1.491,1.087,2.246c0.607,0.551,1.668,0.961,3.429,1.328c3.421,0.737,5.877,1.478,7.299,2.203
				c1.282,0.653,2.212,1.449,2.764,2.365c0.564,0.936,0.839,1.961,0.839,3.134C155.306,83.338,154.927,84.601,154.146,85.792z
				 M142.032,80.81c0.463,0.123,0.946,0.24,1.448,0.354c2.751,0.604,3.396,1.089,3.497,1.181c0.403,0.363,0.403,0.614,0.403,0.722
				c0,0.196-0.051,0.44-0.428,0.767c-0.347,0.301-0.922,0.453-1.71,0.453c-1.101,0-1.87-0.328-2.42-1.026
				c-0.239-0.306-0.559-0.928-0.722-2.157C142.088,81,142.064,80.903,142.032,80.81z M146.641,71.659
				c-0.514-0.121-1.052-0.243-1.615-0.364c-1.653-0.344-2.036-0.617-2.072-0.648c-0.027-0.023-0.047-0.042-0.061-0.057
				c0.01-0.063,0.046-0.14,0.181-0.252c0.091-0.076,0.388-0.253,1.18-0.253c0.789,0,1.379,0.157,1.755,0.468
				C146.279,70.776,146.491,71.147,146.641,71.659z"/>
		</g>
	</g>
	<g>
		<g>
			<polygon class="st4" points="170.915,84.542 170.915,79.337 183.613,79.337 183.613,73.952 170.915,73.952 170.915,69.755 
				184.603,69.755 184.603,64.118 162.739,64.118 162.739,90.522 185,90.522 185,84.542 			"/>
		</g>
	</g>
	<g>
		<g>
			<path class="st0" d="M185,83.042h-12.585v-2.205h11.198c0.828,0,1.5-0.671,1.5-1.5v-5.385c0-0.829-0.672-1.5-1.5-1.5h-11.198
				v-1.197h12.188c0.828,0,1.5-0.671,1.5-1.5v-5.637c0-0.829-0.672-1.5-1.5-1.5h-21.865c-0.828,0-1.5,0.671-1.5,1.5v26.404
				c0,0.829,0.672,1.5,1.5,1.5H185c0.828,0,1.5-0.671,1.5-1.5v-5.98C186.5,83.713,185.828,83.042,185,83.042z M183.5,89.022h-19.262
				V65.618h18.865v2.637h-12.188c-0.828,0-1.5,0.671-1.5,1.5v4.197c0,0.829,0.672,1.5,1.5,1.5h11.198v2.385h-11.198
				c-0.828,0-1.5,0.671-1.5,1.5v5.205c0,0.829,0.672,1.5,1.5,1.5H183.5V89.022z"/>
		</g>
	</g>
	<g>
		<g>
			<rect x="220" y="228.332" class="st14" width="18" height="9.92"/>
		</g>
	</g>
	<g>
		<g>
			<rect x="210.38" y="215.412" class="st14" width="18" height="9.92"/>
		</g>
	</g>
	<g>
		<g>
			<path class="st13" d="M236.46,92.862l-106.15-74.39c-1.38-0.96-3.24-0.97-4.62,0l-6.69,4.69l56.31,39.46h9.29
				c0.83,0,1.5,0.67,1.5,1.5v5.63c0,0.13-0.02,0.27-0.06,0.39l32.42,22.72c1.78,1.24,1.96,3.14,1.53,4.5
				c-0.43,1.36-1.66,2.82-3.84,2.82h18c2.18,0,3.41-1.46,3.84-2.82C238.42,96.002,238.24,94.102,236.46,92.862z"/>
		</g>
	</g>
</g>
</svg>
