<?xml version="1.0" encoding="utf-8"?>
<!-- Generator: Adobe Illustrator 22.0.1, SVG Export Plug-In . SVG Version: 6.00 Build 0)  -->
<svg version="1.1" id="Layer_1" xmlns="http://www.w3.org/2000/svg" xmlns:xlink="http://www.w3.org/1999/xlink" x="0px" y="0px"
	 viewBox="0 0 256 256" style="enable-background:new 0 0 256 256;" xml:space="preserve">
<style type="text/css">
	.st0{fill:#3A312A;}
	.st1{fill:#8AC6DD;}
	.st2{fill:#F16C7A;}
	.st3{fill:#D7E057;}
	.st4{fill:#87796F;}
	.st5{fill:#FCE8CB;}
	.st6{fill:#DECAAD;}
	.st7{fill:#D6DF58;}
	.st8{fill:#FAE6CA;}
	.st9{fill:#DDC9AC;}
	.st10{fill:#D5DE58;}
	.st11{fill:#ED6E7A;}
	.st12{fill:#8AC5DC;}
	.st13{fill:#6CA8BF;}
	.st14{fill:#695B51;}
	.st15{fill:#F8E4C8;}
	.st16{fill:#EF6D7A;}
	.st17{fill-rule:evenodd;clip-rule:evenodd;fill:#F8E4C8;}
	.st18{fill:#89C4DB;}
	.st19{fill:#F59689;}
	.st20{fill:#D34E5C;}
	.st21{fill:#F7E3C7;}
	.st22{fill:#8AC3DA;}
	.st23{fill-rule:evenodd;clip-rule:evenodd;fill:#F7E3C7;}
	.st24{fill-rule:evenodd;clip-rule:evenodd;fill:#87796F;}
	.st25{fill:#B9C239;}
	.st26{fill:#D4DB56;}
	.st27{fill-rule:evenodd;clip-rule:evenodd;fill:#F16C7A;}
	.st28{fill-rule:evenodd;clip-rule:evenodd;fill:#F6E2C6;}
	.st29{fill:#F6E2C6;}
	.st30{fill-rule:evenodd;clip-rule:evenodd;fill:#FAE6CA;}
	.st31{fill:#B8C136;}
</style>
<g>
	<g>
		<g>
			<path class="st4" d="M72.948,36.201v13.097c0.017,0,0.032-0.002,0.05-0.002v13.43c-0.017,0-0.033-0.002-0.05-0.002v14.508H195.05
				v-41.03H72.948z"/>
		</g>
	</g>
	<g>
		<g>
			<path class="st0" d="M195.051,34.701H72.947c-0.828,0-1.5,0.671-1.5,1.5v13.097c0,0.128,0.018,0.253,0.05,0.372v12.669
				c-0.032,0.123-0.05,0.252-0.05,0.385V77.23c0,0.829,0.672,1.5,1.5,1.5h122.104c0.828,0,1.5-0.671,1.5-1.5v-41.03
				C196.551,35.372,195.879,34.701,195.051,34.701z M193.551,75.73H74.447V63.109c0.032-0.123,0.05-0.252,0.05-0.385v-13.43
				c0-0.128-0.018-0.253-0.05-0.372V37.701h119.104V75.73z"/>
		</g>
	</g>
	<g>
		<g>
			<rect x="72.948" y="87.789" class="st4" width="122.103" height="41.03"/>
		</g>
	</g>
	<g>
		<g>
			<path class="st0" d="M195.051,86.289H72.947c-0.828,0-1.5,0.671-1.5,1.5v41.03c0,0.829,0.672,1.5,1.5,1.5h122.104
				c0.828,0,1.5-0.671,1.5-1.5v-41.03C196.551,86.96,195.879,86.289,195.051,86.289z M193.551,127.319H74.447v-38.03h119.104
				V127.319z"/>
		</g>
	</g>
	<g>
		<g>
			<rect x="72.948" y="139.384" class="st4" width="122.103" height="41.023"/>
		</g>
	</g>
	<g>
		<g>
			<path class="st0" d="M195.051,137.884H72.947c-0.828,0-1.5,0.671-1.5,1.5v41.022c0,0.829,0.672,1.5,1.5,1.5h122.104
				c0.828,0,1.5-0.671,1.5-1.5v-41.022C196.551,138.556,195.879,137.884,195.051,137.884z M193.551,178.907H74.447v-38.022h119.104
				V178.907z"/>
		</g>
	</g>
	<g>
		<g>
			<path class="st4" d="M179.148,16.544h-11.775c-3.034,0-5.493,2.459-5.493,5.493v3.6h22.761v-3.6
				C184.641,19.003,182.182,16.544,179.148,16.544z"/>
		</g>
	</g>
	<g>
		<g>
			<path class="st0" d="M179.148,15.044h-11.775c-3.855,0-6.992,3.137-6.992,6.993v3.601c0,0.829,0.672,1.5,1.5,1.5h22.761
				c0.828,0,1.5-0.671,1.5-1.5v-3.601C186.142,18.181,183.005,15.044,179.148,15.044z M183.142,24.137h-19.761v-2.101
				c0-2.202,1.791-3.993,3.992-3.993h11.775c2.202,0,3.993,1.791,3.993,3.993V24.137z"/>
		</g>
	</g>
	<g>
		<g>
			<path class="st3" d="M195.809,25.637H72.191c-2.917,0-5.282,2.365-5.282,5.283c0,2.917,2.365,5.282,5.282,5.282h123.618
				c2.917,0,5.282-2.365,5.282-5.282C201.091,28.002,198.726,25.637,195.809,25.637z"/>
		</g>
	</g>
	<g>
		<g>
			<path class="st0" d="M195.809,24.137h-62.95c-0.828,0-1.5,0.671-1.5,1.5s0.672,1.5,1.5,1.5h62.95
				c2.086,0,3.782,1.697,3.782,3.783c0,2.085-1.696,3.782-3.782,3.782H72.191c-2.086,0-3.782-1.696-3.782-3.782
				c0-2.086,1.696-3.783,3.782-3.783h46.95c0.828,0,1.5-0.671,1.5-1.5s-0.672-1.5-1.5-1.5h-46.95c-3.739,0-6.782,3.042-6.782,6.783
				c0,3.739,3.043,6.782,6.782,6.782h123.617c3.739,0,6.782-3.043,6.782-6.782C202.591,27.18,199.548,24.137,195.809,24.137z"/>
		</g>
	</g>
	<g>
		<g>
			<path class="st3" d="M197.897,77.227H70.103c-1.764,0-3.194,1.43-3.194,3.194v4.177c0,1.764,1.43,3.194,3.194,3.194h127.795
				c1.764,0,3.194-1.43,3.194-3.194v-4.178C201.091,78.657,199.661,77.227,197.897,77.227z"/>
		</g>
	</g>
	<g>
		<g>
			<path class="st0" d="M197.897,75.727H70.103c-2.588,0-4.693,2.105-4.693,4.694v4.178c0,2.588,2.105,4.694,4.693,4.694h127.795
				c2.588,0,4.693-2.105,4.693-4.694v-4.178C202.591,77.832,200.485,75.727,197.897,75.727z M199.591,84.599
				c0,0.934-0.76,1.694-1.693,1.694H70.103c-0.934,0-1.693-0.76-1.693-1.694v-4.178c0-0.934,0.76-1.694,1.693-1.694h127.795
				c0.934,0,1.693,0.76,1.693,1.694V84.599z"/>
		</g>
	</g>
	<g>
		<g>
			<path class="st3" d="M195.809,128.818H72.191c-2.917,0-5.282,2.365-5.282,5.282c0,2.917,2.365,5.282,5.282,5.282h123.618
				c2.917,0,5.282-2.365,5.282-5.282C201.091,131.182,198.726,128.818,195.809,128.818z"/>
		</g>
	</g>
	<g>
		<g>
			<path class="st0" d="M195.809,127.317H72.191c-3.739,0-6.782,3.042-6.782,6.783c0,3.74,3.043,6.782,6.782,6.782h123.617
				c3.739,0,6.782-3.042,6.782-6.782C202.591,130.36,199.548,127.317,195.809,127.317z M195.809,137.882H72.191
				c-2.086,0-3.782-1.697-3.782-3.782c0-2.086,1.696-3.783,3.782-3.783h123.617c2.086,0,3.782,1.697,3.782,3.783
				C199.591,136.185,197.895,137.882,195.809,137.882z"/>
		</g>
	</g>
	<g>
		<g>
			<path class="st3" d="M195.809,180.408H72.191c-2.917,0-5.282,2.365-5.282,5.282c0,2.917,2.365,5.282,5.282,5.282h123.618
				c2.917,0,5.282-2.365,5.282-5.282C201.091,182.773,198.726,180.408,195.809,180.408z"/>
		</g>
	</g>
	<g>
		<g>
			<path class="st0" d="M195.809,178.908H72.191c-3.739,0-6.782,3.042-6.782,6.782c0,3.74,3.043,6.783,6.782,6.783h123.617
				c3.739,0,6.782-3.042,6.782-6.783C202.591,181.95,199.548,178.908,195.809,178.908z M195.809,189.473H72.191
				c-2.086,0-3.782-1.697-3.782-3.783c0-2.085,1.696-3.782,3.782-3.782h123.617c2.086,0,3.782,1.697,3.782,3.782
				C199.591,187.776,197.895,189.473,195.809,189.473z"/>
		</g>
	</g>
	<g>
		<g>
			
				<ellipse transform="matrix(0.9903 -0.1387 0.1387 0.9903 -13.7289 19.6329)" class="st5" cx="134" cy="108.32" rx="31.36" ry="31.36"/>
		</g>
	</g>
	<g>
		<g>
			<path class="st0" d="M134,75.46c-18.119,0-32.86,14.741-32.86,32.86c0,18.119,14.741,32.86,32.86,32.86s32.86-14.741,32.86-32.86
				C166.86,90.201,152.119,75.46,134,75.46z M134,138.18c-16.465,0-29.86-13.395-29.86-29.86S117.535,78.46,134,78.46
				s29.86,13.396,29.86,29.86S150.465,138.18,134,138.18z"/>
		</g>
	</g>
	<g>
		<g>
			<path class="st3" d="M134.16,84.941c-2.771,0-16.135,14.464-16.135,27.381c0,12.917,7.224,19.395,16.135,19.395
				s16.135-6.478,16.135-19.395C150.296,99.405,137.42,84.941,134.16,84.941z"/>
		</g>
	</g>
	<g>
		<g>
			<path class="st0" d="M134.16,83.441c-4.179,0-17.636,15.69-17.636,28.881c0,15.423,9.5,20.895,17.636,20.895
				s17.636-5.472,17.636-20.895C151.796,99.49,139.01,83.441,134.16,83.441z M134.16,130.217c-9.027,0-14.636-6.857-14.636-17.895
				c0-12.253,12.298-25.164,14.667-25.873c2.671,0.524,14.604,13.953,14.604,25.873C148.796,123.36,143.188,130.217,134.16,130.217z
				"/>
		</g>
	</g>
	<g>
		<g>
			<path class="st7" d="M47.946,26.221c-0.974,11.564-13.024,13.39-13.024,13.39c10.347,0.487,12.925,14.059,12.925,14.059
				c0.221-9.677,13.321-14.202,13.321-14.202C51.355,38.88,47.946,26.221,47.946,26.221z"/>
		</g>
	</g>
	<g>
		<g>
			<path class="st0" d="M61.258,37.97c-8.604-0.515-11.832-12.024-11.863-12.141c-0.19-0.703-0.844-1.163-1.584-1.102
				c-0.725,0.066-1.298,0.642-1.359,1.367C45.592,36.31,35.139,38.059,34.697,38.127c-0.763,0.115-1.313,0.79-1.273,1.561
				c0.04,0.77,0.657,1.384,1.428,1.421c9.027,0.425,11.498,12.718,11.521,12.842c0.138,0.711,0.76,1.217,1.473,1.217
				c0.042,0,0.084-0.002,0.126-0.005c0.764-0.064,1.357-0.693,1.375-1.459c0.194-8.509,12.191-12.777,12.313-12.819
				c0.676-0.235,1.092-0.914,0.994-1.623S61.972,38.013,61.258,37.97z M47.691,48.315c-1.356-3.13-3.708-6.907-7.586-8.876
				c2.931-1.405,6.408-3.913,8.201-8.273c1.551,3.071,4.2,6.88,8.334,8.722C53.634,41.529,49.718,44.294,47.691,48.315z"/>
		</g>
	</g>
	<g>
		<g>
			<path class="st7" d="M26.248,43.201c-0.689,8.179-9.212,9.471-9.212,9.471c7.318,0.344,9.142,9.944,9.142,9.944
				c0.156-6.844,9.422-10.045,9.422-10.045C28.658,52.155,26.248,43.201,26.248,43.201z"/>
		</g>
	</g>
	<g>
		<g>
			<path class="st0" d="M35.689,51.073c-5.767-0.345-7.972-8.185-7.993-8.265c-0.19-0.702-0.869-1.165-1.582-1.102
				c-0.726,0.066-1.3,0.642-1.361,1.368c-0.579,6.871-7.646,8.067-7.942,8.114c-0.763,0.115-1.313,0.79-1.273,1.56
				c0.04,0.77,0.657,1.384,1.428,1.421c6.035,0.284,7.724,8.644,7.739,8.726c0.136,0.712,0.759,1.22,1.473,1.22
				c0.041,0,0.083-0.001,0.125-0.005c0.765-0.063,1.358-0.694,1.376-1.461c0.13-5.709,8.331-8.633,8.412-8.661
				c0.676-0.234,1.093-0.913,0.996-1.622C36.988,51.658,36.403,51.116,35.689,51.073z M26.104,57.868
				c-0.924-1.886-2.34-3.947-4.447-5.28c1.855-1.041,3.697-2.63,4.871-4.917c1.057,1.874,2.654,3.955,4.941,5.224
				C29.62,53.997,27.48,55.636,26.104,57.868z"/>
		</g>
	</g>
	<g>
		<g>
			<path class="st7" d="M26.21,16.544c-0.657,8.182-9.175,9.507-9.175,9.507c7.319,0.316,9.181,9.909,9.181,9.909
				c0.129-6.845,9.383-10.082,9.383-10.082C28.655,25.489,26.21,16.544,26.21,16.544z"/>
		</g>
	</g>
	<g>
		<g>
			<path class="st0" d="M35.682,24.379c-5.741-0.321-7.983-8.084-8.025-8.232c-0.192-0.703-0.874-1.17-1.586-1.097
				c-0.726,0.068-1.297,0.648-1.355,1.374c-0.552,6.873-7.615,8.097-7.911,8.145c-0.762,0.119-1.311,0.796-1.268,1.566
				c0.043,0.77,0.663,1.382,1.434,1.415c6.036,0.26,7.758,8.614,7.773,8.695c0.138,0.71,0.76,1.214,1.472,1.214
				c0.043,0,0.087-0.002,0.131-0.005c0.765-0.066,1.355-0.699,1.37-1.466c0.107-5.71,8.297-8.666,8.377-8.694
				c0.676-0.236,1.09-0.917,0.99-1.626C36.982,24.958,36.396,24.419,35.682,24.379z M26.124,31.211
				c-0.932-1.882-2.355-3.938-4.468-5.262c1.852-1.048,3.687-2.644,4.852-4.936c1.064,1.87,2.67,3.944,4.961,5.204
				C29.624,27.326,27.491,28.974,26.124,31.211z"/>
		</g>
	</g>
	<g>
		<g>
			<path class="st5" d="M232.084,155.508c-1.67-0.08-3.37,0.28-4.93,1.09l-33.56,17.48h-53.14c-11.58,0-22.92,3.27-32.72,9.44
				l-7.48,4.7c-2.86,1.8-6.18,2.76-9.57,2.76h-0.95v7.87c0.005,0,0.01-0.001,0.016-0.001v14.722c-0.005,0-0.01-0.001-0.016-0.001
				v9.02l71.25-2.19c6.11-0.4,11.99-2.45,17.02-5.95l59.22-45.53c1.94-1.35,2.57-3.24,2.62-5.06
				C239.954,159.508,236.434,155.698,232.084,155.508z"/>
		</g>
	</g>
	<g>
		<g>
			<path class="st0" d="M232.156,154.009c-1.957-0.098-3.929,0.34-5.696,1.258l-33.233,17.31h-52.772
				c-11.879,0-23.471,3.344-33.519,9.67l-7.48,4.7c-2.63,1.655-5.663,2.53-8.771,2.53h-0.95c-0.828,0-1.5,0.671-1.5,1.5v7.87
				c0,0.829,0.672,1.5,1.5,1.5c0.029,0,0.062-0.001,0.094-0.003c0.792-0.04,1.423-0.695,1.423-1.498
				c0-0.076-0.006-0.151-0.017-0.224v-6.153c3.482-0.098,6.866-1.124,9.818-2.982l7.48-4.7c9.57-6.025,20.608-9.21,31.922-9.21
				h53.14c0.241,0,0.479-0.058,0.693-0.169l33.558-17.479c1.295-0.673,2.739-0.987,4.174-0.923c3.519,0.154,6.415,3.274,6.326,6.811
				c-0.047,1.711-0.694,2.977-2.035,3.912l-59.162,45.487c-4.796,3.336-10.419,5.302-16.209,5.682l-69.705,2.143v-7.248
				c0.011-0.073,0.017-0.148,0.017-0.224c0-0.802-0.63-1.458-1.422-1.498c-0.032-0.002-0.065-0.003-0.095-0.003
				c-0.828,0-1.5,0.671-1.5,1.5v9.02c0,0.406,0.164,0.794,0.456,1.077c0.28,0.272,0.654,0.423,1.044,0.423c0.016,0,0.03,0,0.046,0
				l71.303-2.193c6.388-0.418,12.535-2.567,17.836-6.258l59.162-45.487c2.063-1.435,3.19-3.596,3.264-6.253
				C241.474,158.76,237.264,154.232,232.156,154.009z"/>
		</g>
	</g>
	<g>
		<g>
			<path class="st0" d="M195.092,174.856c-0.313-0.767-1.188-1.134-1.957-0.819c-0.767,0.314-1.133,1.19-0.818,1.957
				c1.16,2.829-0.496,6.244-2.73,8.155c-2.609,2.232-6.238,3.315-9.44,4.271c-7.229,2.158-13.785,3.487-20.726,4.895
				c-6.704,1.36-13.637,2.766-22.19,5.072c-0.8,0.216-1.273,1.039-1.058,1.839c0.181,0.669,0.786,1.11,1.447,1.11
				c0.129,0,0.261-0.017,0.392-0.052c8.462-2.281,15.347-3.678,22.006-5.028c7.008-1.421,13.628-2.764,20.986-4.96
				c3.488-1.041,7.44-2.221,10.532-4.865C194.496,183.897,196.871,179.196,195.092,174.856z"/>
		</g>
	</g>
	<g>
		<g>
			<rect x="16.154" y="175.059" class="st2" width="47.25" height="64.397"/>
		</g>
	</g>
	<g>
		<g>
			<path class="st0" d="M63.403,173.559H44.846c-0.828,0-1.5,0.671-1.5,1.5s0.672,1.5,1.5,1.5h17.058v61.397h-44.25v-61.397h13
				c0.828,0,1.5-0.671,1.5-1.5s-0.672-1.5-1.5-1.5h-14.5c-0.828,0-1.5,0.671-1.5,1.5v64.397c0,0.829,0.672,1.5,1.5,1.5h47.25
				c0.828,0,1.5-0.671,1.5-1.5v-64.397C64.903,174.23,64.231,173.559,63.403,173.559z"/>
		</g>
	</g>
	<g>
		<g>
			<path class="st1" d="M81.746,175.059H63.404v64.397h18.342c4.413,0,7.991-3.578,7.991-7.991V183.05
				C89.737,178.636,86.159,175.059,81.746,175.059z"/>
		</g>
	</g>
	<g>
		<g>
			<path class="st0" d="M89.737,200.347c0.828,0,1.5-0.671,1.5-1.5V183.05c0-5.233-4.258-9.491-9.491-9.491H63.403
				c-0.828,0-1.5,0.671-1.5,1.5v64.397c0,0.829,0.672,1.5,1.5,1.5h18.343c5.233,0,9.491-4.258,9.491-9.491v-17.897
				c0-0.829-0.672-1.5-1.5-1.5s-1.5,0.671-1.5,1.5v17.897c0,3.579-2.912,6.491-6.491,6.491H64.903v-61.397h16.843
				c3.579,0,6.491,2.912,6.491,6.491v15.797C88.237,199.676,88.909,200.347,89.737,200.347z"/>
		</g>
	</g>
	<g>
		<g>
			<path class="st4" d="M76.57,220.073c-3.329,0-6.028,2.699-6.028,6.028c0,3.329,2.699,6.028,6.028,6.028s6.028-2.699,6.028-6.028
				C82.598,222.771,79.899,220.073,76.57,220.073z"/>
		</g>
	</g>
	<g>
		<g>
			<path class="st0" d="M76.57,218.573c-4.15,0-7.527,3.377-7.527,7.528s3.377,7.528,7.527,7.528s7.527-3.377,7.527-7.528
				S80.721,218.573,76.57,218.573z M76.57,230.628c-2.496,0-4.527-2.031-4.527-4.528s2.031-4.528,4.527-4.528
				s4.527,2.031,4.527,4.528S79.066,230.628,76.57,230.628z"/>
		</g>
	</g>
	<g>
		<g>
			<path class="st6" d="M232.024,157.008c-1.45-0.07-2.9,0.25-4.18,0.92l-4.22,2.2c0.69,1.08,1.08,2.35,1.05,3.69
				c-0.04,1.71-0.69,2.98-2.03,3.91l-59.17,45.49c-7.07,4.959-16.561,5.97-16.545,6.11l14.015-0.43c5.78-0.37,11.4-2.34,16.2-5.68
				l59.17-45.49c1.34-0.93,1.98-2.2,2.03-3.91C238.434,160.277,235.544,157.157,232.024,157.008z"/>
		</g>
	</g>
</g>
</svg>
