<?xml version="1.0" encoding="utf-8"?>
<!-- Generator: Adobe Illustrator 22.0.1, SVG Export Plug-In . SVG Version: 6.00 Build 0)  -->
<svg version="1.1" id="Layer_1" xmlns="http://www.w3.org/2000/svg" xmlns:xlink="http://www.w3.org/1999/xlink" x="0px" y="0px"
	 viewBox="0 0 256 256" style="enable-background:new 0 0 256 256;" xml:space="preserve">
<style type="text/css">
	.st0{fill:#3A312A;}
	.st1{fill:#8AC6DD;}
	.st2{fill:#F16C7A;}
	.st3{fill:#D7E057;}
	.st4{fill:#87796F;}
	.st5{fill:#FCE8CB;}
	.st6{fill:#DECAAD;}
	.st7{fill:#D6DF58;}
	.st8{fill:#FAE6CA;}
	.st9{fill:#DDC9AC;}
	.st10{fill:#D5DE58;}
	.st11{fill:#ED6E7A;}
	.st12{fill:#8AC5DC;}
	.st13{fill:#6CA8BF;}
	.st14{fill:#695B51;}
	.st15{fill:#F8E4C8;}
	.st16{fill:#EF6D7A;}
	.st17{fill-rule:evenodd;clip-rule:evenodd;fill:#F8E4C8;}
	.st18{fill:#89C4DB;}
	.st19{fill:#F59689;}
	.st20{fill:#D34E5C;}
	.st21{fill:#F7E3C7;}
	.st22{fill:#8AC3DA;}
	.st23{fill-rule:evenodd;clip-rule:evenodd;fill:#F7E3C7;}
	.st24{fill-rule:evenodd;clip-rule:evenodd;fill:#87796F;}
	.st25{fill:#B9C239;}
	.st26{fill:#D4DB56;}
	.st27{fill-rule:evenodd;clip-rule:evenodd;fill:#F16C7A;}
	.st28{fill-rule:evenodd;clip-rule:evenodd;fill:#F6E2C6;}
	.st29{fill:#F6E2C6;}
	.st30{fill-rule:evenodd;clip-rule:evenodd;fill:#FAE6CA;}
	.st31{fill:#B8C136;}
</style>
<g>
	<g>
		<g>
			<path class="st4" d="M222.394,16.135H33.605c-9.447,0-17.105,7.659-17.105,17.106V163.53c0,9.447,7.658,17.105,17.105,17.105
				h188.789c9.447,0,17.106-7.658,17.106-17.105V33.241C239.5,23.794,231.842,16.135,222.394,16.135z"/>
		</g>
	</g>
	<g>
		<g>
			<path class="st0" d="M222.394,14.635H33.605C23.346,14.635,15,22.981,15,33.241V163.53c0,10.259,8.346,18.606,18.605,18.606
				h188.789c10.259,0,18.606-8.346,18.606-18.606V33.241C241,22.981,232.654,14.635,222.394,14.635z M238,163.53
				c0,8.605-7,15.606-15.606,15.606H33.605C25,179.135,18,172.135,18,163.53V33.241c0-8.605,7-15.605,15.605-15.605h188.789
				c8.605,0,15.606,7,15.606,15.605V163.53z"/>
		</g>
	</g>
	<g>
		<g>
			<path class="st5" d="M214.969,28.635H41.031c-6.583,0-11.92,5.337-11.92,11.92v115.66c0,6.583,5.337,11.92,11.92,11.92h173.938
				c6.583,0,11.92-5.337,11.92-11.92V40.555C226.889,33.972,221.552,28.635,214.969,28.635z"/>
		</g>
	</g>
	<g>
		<g>
			<path class="st0" d="M214.969,27.135H99.799c-0.829,0-1.5,0.671-1.5,1.5c0,0.829,0.671,1.5,1.5,1.5h115.17
				c5.746,0,10.42,4.674,10.42,10.42v115.66c0,5.746-4.674,10.42-10.42,10.42H41.031c-5.746,0-10.42-4.674-10.42-10.42V40.555
				c0-5.746,4.674-10.42,10.42-10.42h45.17c0.829,0,1.5-0.671,1.5-1.5c0-0.829-0.671-1.5-1.5-1.5h-45.17
				c-7.4,0-13.42,6.02-13.42,13.42v115.66c0,7.4,6.02,13.42,13.42,13.42h173.938c7.4,0,13.42-6.02,13.42-13.42V40.555
				C228.389,33.155,222.369,27.135,214.969,27.135z"/>
		</g>
	</g>
	<g>
		<g>
			<rect x="113.688" y="180.635" class="st4" width="28.625" height="35.593"/>
		</g>
	</g>
	<g>
		<g>
			<path class="st0" d="M142.313,179.135h-28.625c-0.829,0-1.5,0.671-1.5,1.5v35.593c0,0.829,0.671,1.5,1.5,1.5h28.625
				c0.829,0,1.5-0.671,1.5-1.5v-35.593C143.813,179.807,143.141,179.135,142.313,179.135z M140.813,214.728h-25.625v-32.593h25.625
				V214.728z"/>
		</g>
	</g>
	<g>
		<g>
			<path class="st4" d="M148.296,216.229h-40.593c-12.927,0-23.407,10.479-23.407,23.407h87.406
				C171.703,226.708,161.224,216.229,148.296,216.229z"/>
		</g>
	</g>
	<g>
		<g>
			<path class="st0" d="M148.296,214.728h-40.593c-13.733,0-24.907,11.173-24.907,24.907c0,0.829,0.671,1.5,1.5,1.5h37.584
				c0.829,0,1.5-0.671,1.5-1.5c0-0.829-0.671-1.5-1.5-1.5H85.848c0.773-11.382,10.281-20.407,21.856-20.407h40.593
				c11.575,0,21.083,9.024,21.856,20.407h-34.701c-0.829,0-1.5,0.671-1.5,1.5c0,0.829,0.671,1.5,1.5,1.5h36.251
				c0.829,0,1.5-0.671,1.5-1.5C173.203,225.902,162.03,214.728,148.296,214.728z"/>
		</g>
	</g>
	<g>
		<g>
			<path class="st3" d="M47.671,203.469c-0.974,11.564-13.025,13.389-13.025,13.389c10.346,0.487,12.925,14.059,12.925,14.059
				c0.221-9.677,13.321-14.202,13.321-14.202C51.079,216.129,47.671,203.469,47.671,203.469z"/>
		</g>
	</g>
	<g>
		<g>
			<path class="st0" d="M60.982,215.218c-8.605-0.514-11.832-12.024-11.863-12.141c-0.19-0.702-0.848-1.161-1.583-1.102
				c-0.725,0.066-1.298,0.642-1.359,1.367c-0.86,10.215-11.314,11.964-11.755,12.033c-0.763,0.115-1.313,0.79-1.273,1.56
				c0.04,0.77,0.657,1.384,1.427,1.421c9.028,0.425,11.499,12.718,11.523,12.842c0.137,0.711,0.759,1.217,1.472,1.217
				c0.042,0,0.084-0.002,0.126-0.005c0.764-0.064,1.357-0.693,1.375-1.459c0.195-8.508,12.192-12.777,12.313-12.819
				c0.675-0.235,1.092-0.914,0.994-1.623C62.28,215.802,61.696,215.261,60.982,215.218z M47.417,225.565
				c-1.356-3.13-3.709-6.907-7.587-8.877c2.931-1.405,6.409-3.914,8.202-8.273c1.551,3.071,4.199,6.88,8.334,8.723
				C53.358,218.777,49.443,221.543,47.417,225.565z"/>
		</g>
	</g>
	<g>
		<g>
			<path class="st3" d="M25.972,220.45c-0.689,8.179-9.212,9.471-9.212,9.471c7.318,0.344,9.142,9.944,9.142,9.944
				c0.156-6.845,9.422-10.045,9.422-10.045C28.383,229.404,25.972,220.45,25.972,220.45z"/>
		</g>
	</g>
	<g>
		<g>
			<path class="st0" d="M35.414,228.322c-5.767-0.345-7.973-8.186-7.994-8.265c-0.19-0.702-0.851-1.165-1.582-1.102
				c-0.726,0.065-1.299,0.643-1.36,1.368c-0.579,6.871-7.646,8.067-7.942,8.114c-0.763,0.115-1.313,0.79-1.273,1.56
				c0.04,0.77,0.657,1.384,1.427,1.421c6.036,0.284,7.724,8.644,7.739,8.726c0.135,0.713,0.759,1.22,1.472,1.22
				c0.042,0,0.083-0.001,0.125-0.005c0.765-0.063,1.358-0.693,1.376-1.461c0.131-5.709,8.332-8.634,8.413-8.662
				c0.676-0.234,1.094-0.913,0.996-1.622C36.713,228.906,36.128,228.365,35.414,228.322z M25.829,235.117
				c-0.924-1.886-2.34-3.947-4.447-5.28c1.856-1.042,3.697-2.63,4.871-4.917c1.057,1.873,2.655,3.954,4.941,5.224
				C29.344,231.245,27.205,232.885,25.829,235.117z"/>
		</g>
	</g>
	<g>
		<g>
			<path class="st3" d="M25.972,193.792c-0.689,8.179-9.212,9.471-9.212,9.471c7.318,0.345,9.142,9.944,9.142,9.944
				c0.156-6.845,9.422-10.045,9.422-10.045C28.383,202.747,25.972,193.792,25.972,193.792z"/>
		</g>
	</g>
	<g>
		<g>
			<path class="st0" d="M35.414,201.664c-5.766-0.345-7.972-8.185-7.994-8.264c-0.19-0.702-0.851-1.167-1.582-1.102
				c-0.726,0.065-1.299,0.643-1.36,1.368c-0.579,6.871-7.646,8.066-7.942,8.113c-0.763,0.115-1.313,0.79-1.273,1.56
				c0.04,0.77,0.657,1.384,1.427,1.421c6.036,0.284,7.723,8.645,7.739,8.726c0.135,0.713,0.759,1.22,1.473,1.22
				c0.041,0,0.083-0.001,0.125-0.005c0.765-0.063,1.358-0.693,1.376-1.461c0.131-5.71,8.332-8.634,8.413-8.662
				c0.677-0.234,1.094-0.913,0.996-1.622C36.713,202.248,36.128,201.707,35.414,201.664z M25.829,208.459
				c-0.924-1.885-2.34-3.947-4.447-5.28c1.855-1.041,3.697-2.629,4.87-4.916c1.057,1.874,2.655,3.954,4.941,5.223
				C29.344,204.588,27.206,206.227,25.829,208.459z"/>
		</g>
	</g>
	<g>
		<g>
			<path class="st6" d="M214.97,30.135h-15c5.74,0,10.42,4.67,10.42,10.42v115.66c0,5.75-4.679,10.419-10.419,10.42h14.999
				c5.74,0,10.42-4.67,10.42-10.42V40.555C225.39,34.805,220.71,30.135,214.97,30.135z"/>
		</g>
	</g>
	<g>
		<g>
			<circle class="st1" cx="103" cy="98.5" r="56"/>
		</g>
	</g>
	<g>
		<g>
			<path class="st0" d="M103,41c-31.706,0-57.5,25.794-57.5,57.5S71.294,156,103,156c31.706,0,57.5-25.794,57.5-57.5
				S134.706,41,103,41z M103,153c-30.051,0-54.5-24.449-54.5-54.5S72.949,44,103,44c30.051,0,54.5,24.449,54.5,54.5
				S133.051,153,103,153z"/>
		</g>
	</g>
	<g>
		<g>
			<path class="st0" d="M103,41c-21.474,0-38.943,25.794-38.943,57.5S81.526,156,103,156c21.474,0,38.943-25.794,38.943-57.5
				S124.474,41,103,41z M103,153c-19.819,0-35.943-24.449-35.943-54.5S83.181,44,103,44c19.819,0,35.943,24.449,35.943,54.5
				S122.819,153,103,153z"/>
		</g>
	</g>
	<g>
		<g>
			<path class="st0" d="M103,41c-10.406,0-16.021,29.625-16.021,57.5S92.594,156,103,156c10.406,0,16.021-29.625,16.021-57.5
				S113.406,41,103,41z M103,153c-6.159,0-13.021-22.382-13.021-54.5S96.841,44,103,44s13.021,22.382,13.021,54.5
				S109.159,153,103,153z"/>
		</g>
	</g>
	<g>
		<g>
			<path class="st0" d="M103,59.557c-31.706,0-57.5,17.47-57.5,38.943c0,21.474,25.794,38.943,57.5,38.943
				c31.706,0,57.5-17.47,57.5-38.943C160.5,77.026,134.706,59.557,103,59.557z M103,134.443c-30.051,0-54.5-16.124-54.5-35.943
				c0-19.819,24.449-35.943,54.5-35.943c30.051,0,54.5,16.124,54.5,35.943C157.5,118.319,133.051,134.443,103,134.443z"/>
		</g>
	</g>
	<g>
		<g>
			<path class="st0" d="M103,82.479c-27.875,0-57.5,5.615-57.5,16.021c0,10.406,29.625,16.021,57.5,16.021s57.5-5.615,57.5-16.021
				C160.5,88.094,130.875,82.479,103,82.479z M103,111.521c-32.118,0-54.5-6.862-54.5-13.021S70.882,85.479,103,85.479
				c32.118,0,54.5,6.862,54.5,13.021S135.118,111.521,103,111.521z"/>
		</g>
	</g>
	<g>
		<g>
			<circle class="st3" cx="170" cy="98.5" r="38"/>
		</g>
	</g>
	<g>
		<g>
			<path class="st0" d="M170,59c-21.78,0-39.5,17.72-39.5,39.5c0,21.78,17.72,39.5,39.5,39.5c21.78,0,39.5-17.72,39.5-39.5
				C209.5,76.72,191.78,59,170,59z M170,135c-20.126,0-36.5-16.374-36.5-36.5c0-20.126,16.374-36.5,36.5-36.5s36.5,16.374,36.5,36.5
				C206.5,118.626,190.126,135,170,135z"/>
		</g>
	</g>
	<g>
		<g>
			<path class="st4" d="M174.518,94.203c-5.534-2.083-7.814-3.45-7.814-5.599c0-1.822,1.367-3.646,5.6-3.646
				c4.687,0,7.683,1.497,9.375,2.214l1.888-7.357c-2.149-1.042-5.079-1.955-9.441-2.149v-5.73h-6.381v6.185
				c-6.967,1.367-11.003,5.86-11.003,11.59c0,6.316,4.753,9.572,11.719,11.915c4.818,1.628,6.902,3.191,6.902,5.664
				c0,2.605-2.54,4.037-6.25,4.037c-4.233,0-8.073-1.367-10.808-2.864l-1.953,7.617c2.474,1.432,6.706,2.604,11.068,2.8v6.185h6.381
				v-6.641c7.488-1.301,11.59-6.25,11.59-12.045C185.391,100.519,182.265,96.938,174.518,94.203z"/>
		</g>
	</g>
	<g>
		<g>
			<path class="st0" d="M175.046,92.799c-4.924-1.853-6.842-3.029-6.842-4.195c0-1.867,2.569-2.146,4.1-2.146
				c3.965,0,6.575,1.134,8.303,1.885l0.488,0.21c0.403,0.17,0.859,0.157,1.25-0.037c0.392-0.193,0.679-0.548,0.788-0.971
				l1.888-7.356c0.177-0.691-0.157-1.411-0.798-1.723c-2.477-1.201-5.3-1.927-8.596-2.206v-4.324c0-0.829-0.671-1.5-1.5-1.5h-6.38
				c-0.829,0-1.5,0.671-1.5,1.5v4.987c-6.821,1.757-11.003,6.569-11.003,12.787c0,8.023,6.809,11.341,12.739,13.336
				c5.17,1.747,5.882,3.072,5.882,4.243c0,2.414-3.957,2.537-4.751,2.537c-4.517,0-8.26-1.679-10.088-2.68
				c-0.406-0.223-0.893-0.245-1.317-0.06c-0.425,0.185-0.741,0.555-0.856,1.003l-1.953,7.617c-0.167,0.651,0.12,1.334,0.702,1.671
				c2.547,1.474,6.401,2.547,10.32,2.903v4.784c0,0.829,0.671,1.5,1.5,1.5h6.381c0.829,0,1.5-0.671,1.5-1.5v-5.419
				c7.084-1.68,11.59-6.779,11.59-13.268C186.891,99.79,183.34,95.726,175.046,92.799z M173.544,116.945
				c-0.719,0.125-1.243,0.749-1.243,1.478v5.142h-3.381v-4.685c0-0.802-0.631-1.462-1.433-1.499
				c-3.389-0.152-6.927-0.95-9.386-2.085l1.196-4.667c2.324,1.047,5.793,2.197,9.816,2.197c4.708,0,7.751-2.173,7.751-5.537
				c0-3.875-3.807-5.695-7.924-7.086c-7.498-2.522-10.697-5.66-10.697-10.493c0-5.132,3.661-8.914,9.792-10.118
				c0.704-0.138,1.211-0.755,1.211-1.472v-4.685h3.38v4.23c0,0.803,0.632,1.463,1.433,1.499c2.987,0.133,5.533,0.628,7.738,1.508
				l-1.138,4.434c-1.877-0.761-4.613-1.65-8.356-1.65c-5.235,0-7.1,2.658-7.1,5.146c0,3.425,3.808,5.13,8.815,7.014
				c8.194,2.893,9.872,6.393,9.872,10.761C183.891,111.788,179.927,115.836,173.544,116.945z"/>
		</g>
	</g>
</g>
</svg>
