<?xml version="1.0" encoding="utf-8"?>
<!-- Generator: Adobe Illustrator 22.0.1, SVG Export Plug-In . SVG Version: 6.00 Build 0)  -->
<svg version="1.1" id="Layer_1" xmlns="http://www.w3.org/2000/svg" xmlns:xlink="http://www.w3.org/1999/xlink" x="0px" y="0px"
	 viewBox="0 0 256 256" style="enable-background:new 0 0 256 256;" xml:space="preserve">
<style type="text/css">
	.st0{fill:#3A312A;}
	.st1{fill:#8AC6DD;}
	.st2{fill:#F16C7A;}
	.st3{fill:#D7E057;}
	.st4{fill:#87796F;}
	.st5{fill:#FCE8CB;}
	.st6{fill:#DECAAD;}
	.st7{fill:#D6DF58;}
	.st8{fill:#FAE6CA;}
	.st9{fill:#DDC9AC;}
	.st10{fill:#D5DE58;}
	.st11{fill:#ED6E7A;}
	.st12{fill:#8AC5DC;}
	.st13{fill:#6CA8BF;}
	.st14{fill:#695B51;}
	.st15{fill:#F8E4C8;}
	.st16{fill:#EF6D7A;}
	.st17{fill-rule:evenodd;clip-rule:evenodd;fill:#F8E4C8;}
	.st18{fill:#89C4DB;}
	.st19{fill:#F59689;}
	.st20{fill:#D34E5C;}
	.st21{fill:#F7E3C7;}
	.st22{fill:#8AC3DA;}
	.st23{fill-rule:evenodd;clip-rule:evenodd;fill:#F7E3C7;}
	.st24{fill-rule:evenodd;clip-rule:evenodd;fill:#87796F;}
	.st25{fill:#B9C239;}
	.st26{fill:#D4DB56;}
	.st27{fill-rule:evenodd;clip-rule:evenodd;fill:#F16C7A;}
	.st28{fill-rule:evenodd;clip-rule:evenodd;fill:#F6E2C6;}
	.st29{fill:#F6E2C6;}
	.st30{fill-rule:evenodd;clip-rule:evenodd;fill:#FAE6CA;}
	.st31{fill:#B8C136;}
</style>
<g>
	<g>
		<g>
			<path class="st3" d="M47.911,57.47c-0.974,11.564-13.024,13.39-13.024,13.39c10.347,0.487,12.925,14.059,12.925,14.059
				c0.221-9.677,13.321-14.202,13.321-14.202C51.319,70.129,47.911,57.47,47.911,57.47z"/>
		</g>
	</g>
	<g>
		<g>
			<path class="st0" d="M61.223,69.219c-8.604-0.515-11.832-12.024-11.863-12.141c-0.19-0.702-0.848-1.159-1.584-1.102
				c-0.725,0.066-1.298,0.642-1.359,1.367c-0.859,10.215-11.313,11.964-11.754,12.032c-0.763,0.116-1.313,0.791-1.273,1.561
				c0.04,0.771,0.657,1.385,1.428,1.421c9.027,0.426,11.498,12.719,11.521,12.843c0.138,0.712,0.76,1.218,1.473,1.218
				c0.042,0,0.084-0.002,0.126-0.005c0.764-0.064,1.357-0.693,1.375-1.46c0.194-8.51,12.191-12.778,12.313-12.82
				c0.676-0.234,1.092-0.914,0.994-1.622C62.519,69.802,61.936,69.261,61.223,69.219z M47.656,79.565
				c-1.356-3.131-3.708-6.908-7.587-8.877c2.931-1.405,6.409-3.913,8.202-8.273c1.551,3.071,4.2,6.88,8.334,8.723
				C53.599,72.777,49.683,75.544,47.656,79.565z"/>
		</g>
	</g>
	<g>
		<g>
			<path class="st3" d="M26.212,74.45C25.524,82.629,17,83.921,17,83.921c7.318,0.344,9.142,9.944,9.142,9.944
				c0.156-6.844,9.422-10.045,9.422-10.045C28.623,83.404,26.212,74.45,26.212,74.45z"/>
		</g>
	</g>
	<g>
		<g>
			<path class="st0" d="M35.654,82.322c-5.767-0.345-7.972-8.186-7.993-8.265c-0.19-0.702-0.865-1.161-1.582-1.102
				c-0.726,0.065-1.3,0.643-1.361,1.368c-0.579,6.87-7.646,8.066-7.942,8.113c-0.763,0.116-1.314,0.791-1.273,1.561
				c0.04,0.771,0.657,1.385,1.428,1.421c6.035,0.284,7.724,8.645,7.739,8.727c0.136,0.713,0.759,1.22,1.473,1.22
				c0.041,0,0.083-0.002,0.125-0.005c0.765-0.063,1.358-0.693,1.376-1.461c0.13-5.709,8.331-8.634,8.412-8.662
				c0.676-0.234,1.093-0.913,0.996-1.622C36.953,82.906,36.368,82.364,35.654,82.322z M26.069,89.117
				c-0.924-1.886-2.34-3.947-4.447-5.28c1.855-1.041,3.697-2.63,4.871-4.916c1.057,1.874,2.654,3.955,4.941,5.224
				C29.585,85.245,27.445,86.885,26.069,89.117z"/>
		</g>
	</g>
	<g>
		<g>
			<path class="st3" d="M26.212,47.792C25.524,55.972,17,57.263,17,57.263c7.318,0.344,9.142,9.944,9.142,9.944
				c0.156-6.845,9.422-10.045,9.422-10.045C28.623,56.747,26.212,47.792,26.212,47.792z"/>
		</g>
	</g>
	<g>
		<g>
			<path class="st0" d="M35.654,55.665c-5.767-0.345-7.972-8.186-7.993-8.265c-0.19-0.702-0.865-1.16-1.582-1.102
				c-0.726,0.065-1.3,0.643-1.361,1.368c-0.579,6.87-7.646,8.066-7.942,8.113c-0.763,0.116-1.314,0.791-1.273,1.561
				c0.04,0.771,0.657,1.385,1.428,1.421c6.035,0.284,7.724,8.645,7.739,8.727c0.136,0.713,0.759,1.22,1.473,1.22
				c0.041,0,0.083-0.002,0.125-0.005c0.765-0.063,1.358-0.693,1.376-1.461c0.13-5.709,8.331-8.634,8.412-8.662
				c0.676-0.234,1.093-0.913,0.996-1.622C36.953,56.249,36.368,55.707,35.654,55.665z M26.069,62.46
				c-0.924-1.886-2.34-3.947-4.447-5.28c1.855-1.041,3.697-2.63,4.871-4.916c1.057,1.874,2.654,3.955,4.941,5.224
				C29.585,58.588,27.445,60.228,26.069,62.46z"/>
		</g>
	</g>
	<g>
		<g>
			<path class="st15" d="M128,84.208c-61.58,0-111.5,56.5-111.5,62c0,2.814,13.072,18.977,34.082,34.094l10.913,7.264
				c18.567,11.385,41.58,20.641,66.505,20.641c61.58,0,111.5-56.5,111.5-62S189.58,84.208,128,84.208z"/>
		</g>
	</g>
	<g>
		<g>
			<path class="st0" d="M207.73,111.936C189.567,98.602,160.99,82.707,128,82.707s-61.567,15.895-79.731,29.229
				C28.971,126.104,15,142.241,15,146.207c0,4.068,14.903,21.064,34.706,35.313c0.671,0.482,1.61,0.332,2.094-0.342
				c0.483-0.673,0.331-1.609-0.342-2.094c-20.693-14.889-33.113-30.471-33.46-32.83C18.72,141.149,66.911,85.707,128,85.707
				s109.28,55.442,110.002,60.453c-0.722,5.104-48.913,60.547-110.002,60.547c-21.51,0-43.621-6.87-65.721-20.419
				c-0.707-0.434-1.63-0.213-2.063,0.494c-0.434,0.706-0.212,1.63,0.494,2.063c22.578,13.844,45.218,20.862,67.289,20.862
				c32.99,0,61.567-15.895,79.73-29.229c19.299-14.168,33.27-30.306,33.27-34.271S227.029,126.104,207.73,111.936z"/>
		</g>
	</g>
	<g>
		<g>
			<path class="st6" d="M208.351,116.099c-0.08-0.04-0.17-0.07-0.25-0.13c-0.1-0.07-0.19-0.16-0.26-0.26
				c-10.18-7.7-22.52-15.36-36.39-21.01c-0.03,0-0.05,0.01-0.08,0.01c-0.19,0-0.39-0.04-0.58-0.12c-0.21-0.08-0.38-0.21-0.52-0.37
				c-12.96-5.14-27.22-8.51-42.25-8.51c-0.01,0-0.01,0-0.02,0c-0.01,0-0.01,0-0.02,0c-2.52,0-5.01,0.09-7.48,0.28
				c12.29,0.901,23.98,3.95,34.77,8.23c0.14,0.16,0.31,0.29,0.52,0.37c0.19,0.08,0.39,0.12,0.58,0.12c0.03,0,0.05-0.01,0.08-0.01
				c13.87,5.65,26.21,13.31,36.39,21.01c0.07,0.1,0.16,0.19,0.26,0.26c0.08,0.06,0.17,0.09,0.25,0.13
				c18.06,13.77,29.17,27.55,29.64,30.11c-0.96,5.17-45.18,56.03-102.5,60.22c2.48,0.19,4.98,0.28,7.51,0.28
				c60.91,0,108.99-55.11,109.99-60.5C237.52,143.648,226.41,129.869,208.351,116.099z"/>
		</g>
	</g>
	<g>
		<g>
			<path class="st3" d="M127.993,96.186c-8.532,0-16.562,2.141-23.591,5.908l-11.341,8.324c-9.305,9.084-15.09,21.758-15.09,35.789
				c0,27.626,22.395,50.021,50.021,50.021c27.626,0,50.021-22.395,50.021-50.021C178.014,118.581,155.619,96.186,127.993,96.186z"/>
		</g>
	</g>
	<g>
		<g>
			<path class="st0" d="M127.993,94.686c-8.468,0-16.87,2.104-24.3,6.086c-0.729,0.392-1.005,1.301-0.613,2.031
				c0.392,0.729,1.301,1.006,2.031,0.613c6.995-3.749,14.907-5.73,22.882-5.73c26.754,0,48.52,21.767,48.52,48.521
				s-21.767,48.521-48.52,48.521c-26.755,0-48.522-21.767-48.522-48.521c0-13.173,5.198-25.501,14.638-34.716
				c0.593-0.578,0.604-1.528,0.025-2.121c-0.579-0.592-1.528-0.604-2.121-0.025c-10.023,9.783-15.542,22.875-15.542,36.862
				c0,28.409,23.112,51.521,51.522,51.521c28.408,0,51.52-23.112,51.52-51.521S156.401,94.686,127.993,94.686z"/>
		</g>
	</g>
	<g>
		<g>
			<path class="st4" d="M132.763,140.586c-7.24-2.725-10.221-4.513-10.221-7.324c0-2.384,1.789-4.77,7.325-4.77
				c6.131,0,10.049,1.958,12.264,2.896l2.47-9.623c-2.811-1.363-6.644-2.557-12.349-2.811v-7.496h-8.347v8.09
				c-9.113,1.789-14.393,7.665-14.393,15.161c0,8.262,6.217,12.521,15.33,15.586c6.303,2.129,9.028,4.174,9.028,7.409
				c0,3.408-3.322,5.281-8.176,5.281c-5.536,0-10.561-1.789-14.138-3.747L109,169.203c3.237,1.874,8.772,3.406,14.478,3.662v8.091
				h8.347v-8.688c9.794-1.702,15.161-8.175,15.161-15.755C146.985,148.848,142.897,144.164,132.763,140.586z"/>
		</g>
	</g>
	<g>
		<g>
			<path class="st0" d="M133.291,139.182c-6.829-2.569-9.249-4.119-9.249-5.92c0-2.844,3.649-3.269,5.825-3.269
				c5.281,0,8.749,1.506,11.044,2.503l0.635,0.273c0.403,0.173,0.86,0.157,1.25-0.036c0.392-0.194,0.68-0.549,0.788-0.972
				l2.47-9.623c0.177-0.691-0.156-1.411-0.799-1.723c-3.291-1.597-7.066-2.541-11.504-2.875v-6.082c0-0.828-0.672-1.5-1.5-1.5
				h-8.346c-0.828,0-1.5,0.672-1.5,1.5v6.884c-8.913,2.171-14.394,8.354-14.394,16.367c0,10.199,8.738,14.447,16.35,17.007
				c6.646,2.246,8.008,4.019,8.008,5.988c0,3.509-5.109,3.781-6.676,3.781c-6.011,0-10.986-2.232-13.418-3.563
				c-0.405-0.224-0.892-0.245-1.316-0.061c-0.426,0.185-0.741,0.555-0.857,1.003l-2.556,9.964c-0.167,0.651,0.12,1.335,0.702,1.672
				c3.368,1.948,8.525,3.354,13.729,3.771v6.683c0,0.828,0.672,1.5,1.5,1.5h8.347c0.828,0,1.5-0.672,1.5-1.5V173.5
				c9.254-2.061,15.16-8.619,15.16-16.987C148.485,148.125,143.933,142.939,133.291,139.182z M131.568,170.791
				c-0.719,0.125-1.243,0.748-1.243,1.478v7.188h-5.347v-6.591c0-0.803-0.631-1.463-1.433-1.498
				c-4.648-0.209-9.517-1.339-12.8-2.936l1.798-7.009c2.987,1.406,7.671,3.063,13.15,3.063c5.968,0,9.676-2.599,9.676-6.781
				c0-4.511-4.017-6.792-10.049-8.831c-10.029-3.373-14.309-7.609-14.309-14.164c0-6.951,4.928-12.068,13.183-13.689
				c0.703-0.138,1.211-0.755,1.211-1.472v-6.59h5.346v5.995c0,0.803,0.632,1.463,1.433,1.498c4.133,0.185,7.631,0.894,10.65,2.161
				l-1.721,6.706c-2.427-1.018-6.1-2.326-11.246-2.326c-8.188,0-8.825,4.798-8.825,6.269c0,3.84,3.609,5.874,11.222,8.738
				c9.515,3.36,13.222,7.429,13.222,14.513C145.485,163.828,140.152,169.299,131.568,170.791z"/>
		</g>
	</g>
	<g>
		<g>
			<circle class="st1" cx="167.993" cy="116.208" r="11.5"/>
		</g>
	</g>
	<g>
		<g>
			<path class="st0" d="M167.993,103.207c-7.168,0-13,5.832-13,13s5.832,13,13,13s13-5.832,13-13S175.161,103.207,167.993,103.207z
				 M167.993,126.207c-5.514,0-10-4.486-10-10s4.486-10,10-10s10,4.486,10,10S173.507,126.207,167.993,126.207z"/>
		</g>
	</g>
</g>
</svg>
