<?xml version="1.0" encoding="utf-8"?>
<!-- Generator: Adobe Illustrator 22.0.1, SVG Export Plug-In . SVG Version: 6.00 Build 0)  -->
<svg version="1.1" id="Layer_1" xmlns="http://www.w3.org/2000/svg" xmlns:xlink="http://www.w3.org/1999/xlink" x="0px" y="0px"
	 viewBox="0 0 256 256" style="enable-background:new 0 0 256 256;" xml:space="preserve">
<style type="text/css">
	.st0{fill:#3A312A;}
	.st1{fill:#8AC6DD;}
	.st2{fill:#F16C7A;}
	.st3{fill:#D7E057;}
	.st4{fill:#87796F;}
	.st5{fill:#FCE8CB;}
	.st6{fill:#DECAAD;}
	.st7{fill:#D6DF58;}
	.st8{fill:#FAE6CA;}
	.st9{fill:#DDC9AC;}
	.st10{fill:#D5DE58;}
	.st11{fill:#ED6E7A;}
	.st12{fill:#8AC5DC;}
	.st13{fill:#6CA8BF;}
	.st14{fill:#695B51;}
	.st15{fill:#F8E4C8;}
	.st16{fill:#EF6D7A;}
	.st17{fill-rule:evenodd;clip-rule:evenodd;fill:#F8E4C8;}
	.st18{fill:#89C4DB;}
	.st19{fill:#F59689;}
	.st20{fill:#D34E5C;}
	.st21{fill:#F7E3C7;}
	.st22{fill:#8AC3DA;}
	.st23{fill-rule:evenodd;clip-rule:evenodd;fill:#F7E3C7;}
	.st24{fill-rule:evenodd;clip-rule:evenodd;fill:#87796F;}
	.st25{fill:#B9C239;}
	.st26{fill:#D4DB56;}
	.st27{fill-rule:evenodd;clip-rule:evenodd;fill:#F16C7A;}
	.st28{fill-rule:evenodd;clip-rule:evenodd;fill:#F6E2C6;}
	.st29{fill:#F6E2C6;}
	.st30{fill-rule:evenodd;clip-rule:evenodd;fill:#FAE6CA;}
	.st31{fill:#B8C136;}
</style>
<g>
	<g>
		<g>
			<path class="st4" d="M94.645,54.369l7.986-21.829h-0.017c0.309-0.997,0.475-2.056,0.475-3.154
				c0-5.882-4.769-10.651-10.651-10.651c-5.882,0-10.651,4.769-10.651,10.651c0-5.882-4.769-10.651-10.651-10.651
				c-5.882,0-10.651,4.769-10.651,10.651c0-5.882-4.769-10.651-10.651-10.651c-5.882,0-10.651,4.769-10.651,10.651
				c0,1.098,0.167,2.157,0.475,3.154h-0.017l7.986,21.829c-18.184,8.758-30.733,27.362-30.733,48.896
				c0,29.957,24.285,33.296,54.241,33.296c29.957,0,54.241-3.339,54.241-33.296C125.378,81.731,112.829,63.127,94.645,54.369z"/>
		</g>
	</g>
	<g>
		<g>
			<path class="st0" d="M96.515,53.624l7.525-20.568c0.036-0.097,0.06-0.196,0.074-0.297c0.315-1.093,0.476-2.227,0.476-3.372
				c0-6.7-5.451-12.151-12.151-12.151c-4.583,0-8.582,2.551-10.651,6.307c-2.069-3.756-6.068-6.307-10.651-6.307
				c-4.583,0-8.582,2.551-10.651,6.307c-2.069-3.756-6.068-6.307-10.651-6.307c-6.7,0-12.151,5.451-12.151,12.151
				c0,1.145,0.159,2.275,0.473,3.366c0.015,0.102,0.04,0.203,0.076,0.303l7.525,20.568c-18.489,9.478-30.363,28.813-30.363,49.641
				c0,32.109,27.537,34.796,55.742,34.796c28.205,0,55.741-2.687,55.741-34.796C126.878,82.437,115.004,63.102,96.515,53.624z
				 M71.137,135.061c-33.403,0-52.742-5.203-52.742-31.796c0-20.138,11.73-38.8,29.884-47.544c0.695-0.335,1.023-1.143,0.758-1.867
				l-7.909-21.618c-0.01-0.047-0.021-0.093-0.036-0.14c-0.271-0.873-0.408-1.785-0.408-2.709c0-5.046,4.105-9.151,9.151-9.151
				c5.046,0,9.151,4.105,9.151,9.151c0,0.828,0.671,1.5,1.5,1.5c0.829,0,1.5-0.672,1.5-1.5c0-5.046,4.105-9.151,9.151-9.151
				s9.151,4.105,9.151,9.151c0,0.828,0.671,1.5,1.5,1.5s1.5-0.672,1.5-1.5c0-5.046,4.105-9.151,9.151-9.151
				c5.046,0,9.151,4.105,9.151,9.151c0,0.923-0.137,1.835-0.408,2.709c-0.014,0.046-0.026,0.092-0.036,0.139l-7.91,21.619
				c-0.265,0.725,0.063,1.532,0.758,1.867c18.154,8.744,29.884,27.406,29.884,47.544C123.878,129.857,104.54,135.061,71.137,135.061
				z"/>
		</g>
	</g>
	<g>
		<g>
			
				<ellipse transform="matrix(0.8112 -0.5847 0.5847 0.8112 -41.8518 59.4401)" class="st3" cx="71.137" cy="94.542" rx="25.296" ry="25.296"/>
		</g>
	</g>
	<g>
		<g>
			<path class="st0" d="M71.137,67.746c-14.775,0-26.796,12.021-26.796,26.796c0,14.774,12.02,26.795,26.796,26.795
				c14.775,0,26.795-12.021,26.795-26.795C97.933,79.767,85.912,67.746,71.137,67.746z M71.137,118.337
				c-13.121,0-23.796-10.675-23.796-23.795c0-13.121,10.675-23.796,23.796-23.796c13.121,0,23.795,10.675,23.795,23.796
				C94.933,107.662,84.258,118.337,71.137,118.337z"/>
		</g>
	</g>
	<g>
		<g>
			<path class="st4" d="M74.144,91.681c-3.684-1.386-5.201-2.297-5.201-3.727c0-1.213,0.91-2.427,3.728-2.427
				c3.12,0,5.114,0.997,6.241,1.474l1.257-4.897c-1.43-0.694-3.381-1.301-6.285-1.431v-3.814h-4.247v4.117
				c-4.638,0.91-7.325,3.901-7.325,7.715c0,4.205,3.164,6.372,7.801,7.932c3.207,1.083,4.594,2.124,4.594,3.77
				c0,1.734-1.69,2.688-4.161,2.688c-2.818,0-5.374-0.91-7.195-1.907l-1.3,5.071c1.647,0.953,4.464,1.733,7.368,1.864v4.117h4.248
				v-4.421c4.984-0.866,7.715-4.16,7.715-8.018C81.382,95.885,79.302,93.501,74.144,91.681z"/>
		</g>
	</g>
	<g>
		<g>
			<path class="st0" d="M74.673,90.276c-2.807-1.056-4.23-1.837-4.23-2.322c0-0.837,1.558-0.928,2.228-0.928
				c2.533,0,4.213,0.729,5.325,1.212l0.331,0.144c0.401,0.169,0.857,0.156,1.25-0.037c0.391-0.194,0.679-0.549,0.787-0.972
				l1.257-4.896c0.178-0.69-0.156-1.411-0.798-1.723c-1.588-0.771-3.378-1.257-5.439-1.474v-2.422c0-0.828-0.671-1.5-1.5-1.5h-4.248
				c-0.829,0-1.5,0.672-1.5,1.5v2.937c-4.551,1.306-7.325,4.629-7.325,8.896c0,5.66,4.715,7.972,8.821,9.353
				c3.575,1.208,3.575,2.008,3.575,2.35c0,1.154-2.389,1.188-2.661,1.188c-2.895,0-5.299-1.079-6.475-1.723
				c-0.406-0.222-0.893-0.244-1.317-0.06c-0.425,0.185-0.741,0.555-0.856,1.004l-1.3,5.07c-0.167,0.65,0.12,1.334,0.702,1.67
				c1.655,0.958,4.1,1.669,6.619,1.951v2.731c0,0.828,0.671,1.5,1.5,1.5h4.248c0.829,0,1.5-0.672,1.5-1.5v-3.216
				c4.728-1.264,7.715-4.778,7.715-9.223C82.882,95.215,80.341,92.278,74.673,90.276z M73.411,106.326
				c-0.719,0.125-1.243,0.748-1.243,1.478v2.921H70.92v-2.617c0-0.803-0.631-1.463-1.433-1.498
				c-2.026-0.091-4.127-0.534-5.678-1.175l0.545-2.126c1.569,0.645,3.729,1.271,6.193,1.271c3.439,0,5.661-1.644,5.661-4.188
				c0-2.895-2.698-4.206-5.616-5.192c-4.815-1.619-6.78-3.505-6.78-6.51c0-3.158,2.286-5.491,6.114-6.243
				c0.704-0.138,1.211-0.755,1.211-1.472v-2.617h1.248v2.314c0,0.803,0.632,1.463,1.434,1.498c1.747,0.078,3.256,0.346,4.576,0.814
				l-0.506,1.969c-1.255-0.464-2.97-0.928-5.217-0.928c-3.854,0-5.228,2.029-5.228,3.928c0,2.602,2.676,3.814,6.202,5.141
				c5.177,1.828,6.237,3.997,6.237,6.691C79.882,103.126,77.402,105.632,73.411,106.326z"/>
		</g>
	</g>
	<g>
		<g>
			<path class="st2" d="M98.43,46.694H65.595H51.864H44.51c-2.757,0-4.992,2.235-4.992,4.993s2.235,4.993,4.992,4.993h53.92
				c2.757,0,4.993-2.235,4.993-4.993S101.187,46.694,98.43,46.694z"/>
		</g>
	</g>
	<g>
		<g>
			<path class="st0" d="M98.43,45.194H65.595c-0.829,0-1.5,0.672-1.5,1.5s0.671,1.5,1.5,1.5H98.43c1.926,0,3.493,1.566,3.493,3.492
				s-1.567,3.493-3.493,3.493H44.51c-1.926,0-3.493-1.567-3.493-3.493s1.567-3.492,3.493-3.492h7.354c0.829,0,1.5-0.672,1.5-1.5
				s-0.671-1.5-1.5-1.5H44.51c-3.58,0-6.493,2.912-6.493,6.492s2.913,6.493,6.493,6.493h53.92c3.58,0,6.493-2.913,6.493-6.493
				S102.01,45.194,98.43,45.194z"/>
		</g>
	</g>
	<g>
		<g>
			<path class="st3" d="M111.492,83.802c-3.056,0-5.502,2.604-5.229,5.723c0.242,2.751,2.73,4.778,5.502,4.778h97.133V83.802
				H111.492z"/>
		</g>
	</g>
	<g>
		<g>
			<path class="st0" d="M208.897,82.303h-97.406c-1.889,0-3.705,0.798-4.98,2.19c-1.292,1.41-1.912,3.244-1.744,5.163
				c0.303,3.447,3.376,6.146,6.997,6.146h97.133c0.828,0,1.5-0.672,1.5-1.5v-10.5C210.397,82.975,209.726,82.303,208.897,82.303z
				 M207.397,92.803h-95.633c-2.08,0-3.84-1.497-4.008-3.408c-0.094-1.071,0.25-2.092,0.967-2.875
				c0.709-0.773,1.718-1.217,2.768-1.217h95.906V92.803z"/>
		</g>
	</g>
	<g>
		<g>
			<path class="st3" d="M59.307,164.577c-0.974,11.564-13.024,13.39-13.024,13.39c10.347,0.487,12.925,14.059,12.925,14.059
				c0.221-9.677,13.321-14.202,13.321-14.202C62.715,177.236,59.307,164.577,59.307,164.577z"/>
		</g>
	</g>
	<g>
		<g>
			<path class="st0" d="M72.618,176.326c-8.604-0.515-11.832-12.024-11.864-12.141c-0.191-0.703-0.862-1.17-1.583-1.102
				c-0.725,0.066-1.298,0.642-1.359,1.367c-0.86,10.215-11.314,11.964-11.754,12.032c-0.763,0.116-1.313,0.791-1.273,1.561
				c0.04,0.771,0.657,1.385,1.427,1.421c9.028,0.426,11.499,12.719,11.523,12.844c0.137,0.711,0.759,1.217,1.472,1.217
				c0.042,0,0.084-0.002,0.126-0.005c0.764-0.064,1.357-0.693,1.375-1.46c0.195-8.51,12.192-12.778,12.313-12.82
				c0.675-0.234,1.092-0.914,0.994-1.622C73.916,176.909,73.332,176.368,72.618,176.326z M59.052,186.673
				c-1.357-3.131-3.708-6.908-7.587-8.877c2.931-1.405,6.41-3.914,8.203-8.273c1.551,3.071,4.199,6.88,8.334,8.723
				C64.994,179.885,61.079,182.65,59.052,186.673z"/>
		</g>
	</g>
	<g>
		<g>
			<path class="st3" d="M37.608,181.558c-0.689,8.179-9.213,9.471-9.213,9.471c7.318,0.344,9.142,9.944,9.142,9.944
				c0.156-6.844,9.422-10.045,9.422-10.045C40.019,190.512,37.608,181.558,37.608,181.558z"/>
		</g>
	</g>
	<g>
		<g>
			<path class="st0" d="M47.049,189.43c-5.766-0.345-7.972-8.186-7.993-8.265c-0.19-0.702-0.85-1.166-1.582-1.102
				c-0.726,0.065-1.299,0.643-1.36,1.368c-0.579,6.871-7.647,8.066-7.943,8.113c-0.763,0.116-1.313,0.791-1.273,1.561
				c0.04,0.771,0.657,1.385,1.427,1.421c6.036,0.284,7.724,8.645,7.74,8.727c0.135,0.713,0.759,1.22,1.472,1.22
				c0.042,0,0.083-0.002,0.125-0.005c0.765-0.063,1.358-0.693,1.376-1.461c0.13-5.709,8.331-8.634,8.412-8.662
				c0.677-0.234,1.094-0.913,0.996-1.622C48.349,190.014,47.764,189.472,47.049,189.43z M37.465,196.225
				c-0.924-1.885-2.34-3.947-4.447-5.279c1.855-1.041,3.697-2.63,4.871-4.917c1.057,1.874,2.654,3.954,4.941,5.224
				C40.98,192.353,38.841,193.992,37.465,196.225z"/>
		</g>
	</g>
	<g>
		<g>
			<path class="st3" d="M37.608,154.9c-0.689,8.179-9.213,9.471-9.213,9.471c7.318,0.344,9.142,9.944,9.142,9.944
				c0.156-6.844,9.422-10.045,9.422-10.045C40.019,163.854,37.608,154.9,37.608,154.9z"/>
		</g>
	</g>
	<g>
		<g>
			<path class="st0" d="M47.049,162.772c-5.766-0.345-7.972-8.186-7.993-8.265c-0.19-0.702-0.85-1.175-1.582-1.102
				c-0.726,0.065-1.299,0.643-1.36,1.368c-0.579,6.87-7.647,8.066-7.943,8.113c-0.763,0.116-1.314,0.791-1.273,1.561
				c0.04,0.771,0.657,1.385,1.428,1.421c6.035,0.284,7.724,8.645,7.739,8.727c0.135,0.713,0.759,1.22,1.472,1.22
				c0.042,0,0.083-0.002,0.125-0.005c0.765-0.063,1.358-0.693,1.376-1.461c0.13-5.709,8.331-8.634,8.412-8.662
				c0.677-0.234,1.094-0.913,0.996-1.622C48.349,163.356,47.764,162.814,47.049,162.772z M37.465,169.567
				c-0.924-1.886-2.34-3.947-4.447-5.28c1.855-1.041,3.697-2.63,4.871-4.916c1.057,1.874,2.654,3.954,4.941,5.224
				C40.98,165.695,38.841,167.335,37.465,169.567z"/>
		</g>
	</g>
	<g>
		<g>
			<rect x="118.317" y="94.303" class="st5" width="10.896" height="46.666"/>
		</g>
	</g>
	<g>
		<g>
			<path class="st0" d="M129.214,92.803h-10.896c-0.829,0-1.5,0.672-1.5,1.5v46.666c0,0.828,0.671,1.5,1.5,1.5h10.896
				c0.828,0,1.5-0.672,1.5-1.5V94.303C130.714,93.475,130.042,92.803,129.214,92.803z M127.714,139.469h-7.896V95.803h7.896V139.469
				z"/>
		</g>
	</g>
	<g>
		<g>
			<rect x="147.158" y="94.303" class="st5" width="10.896" height="46.666"/>
		</g>
	</g>
	<g>
		<g>
			<path class="st0" d="M158.055,92.803h-10.896c-0.828,0-1.5,0.672-1.5,1.5v46.666c0,0.828,0.672,1.5,1.5,1.5h10.896
				c0.828,0,1.5-0.672,1.5-1.5V94.303C159.555,93.475,158.883,92.803,158.055,92.803z M156.555,139.469h-7.896V95.803h7.896V139.469
				z"/>
		</g>
	</g>
	<g>
		<g>
			<rect x="176" y="94.303" class="st5" width="10.896" height="46.666"/>
		</g>
	</g>
	<g>
		<g>
			<path class="st0" d="M186.896,92.803H176c-0.828,0-1.5,0.672-1.5,1.5v46.666c0,0.828,0.672,1.5,1.5,1.5h10.896
				c0.828,0,1.5-0.672,1.5-1.5V94.303C188.396,93.475,187.724,92.803,186.896,92.803z M185.396,139.469H177.5V95.803h7.896V139.469z
				"/>
		</g>
	</g>
	<g>
		<g>
			<path class="st4" d="M129.766,161.963l-15.78,53.9c2.79,2.04,5.73,3.9,8.79,5.56l17.4-59.46H129.766z"/>
		</g>
	</g>
	<g>
		<g>
			<path class="st0" d="M141.376,161.064c-0.283-0.378-0.728-0.601-1.2-0.601h-10.41c-0.666,0-1.252,0.439-1.439,1.078
				l-15.78,53.899c-0.178,0.607,0.044,1.26,0.554,1.633c2.838,2.075,5.853,3.982,8.96,5.668c0.222,0.121,0.468,0.182,0.715,0.182
				c0.196,0,0.392-0.038,0.577-0.115c0.419-0.174,0.736-0.528,0.863-0.964l17.4-59.46
				C141.748,161.932,141.659,161.442,141.376,161.064z M121.865,219.197c-2.11-1.213-4.167-2.529-6.141-3.931l15.166-51.803h7.284
				L121.865,219.197z"/>
		</g>
	</g>
	<g>
		<g>
			<path class="st4" d="M193.886,161.443c-2.18,0.34-4.41,0.52-6.69,0.52h-3.58l17.4,59.47c3.05-1.68,5.98-3.56,8.78-5.63
				L193.886,161.443z"/>
		</g>
	</g>
	<g>
		<g>
			<path class="st0" d="M211.235,215.383l-15.91-54.36c-0.212-0.723-0.921-1.177-1.671-1.062c-2.139,0.334-4.312,0.503-6.459,0.503
				h-3.579c-0.473,0-0.917,0.223-1.2,0.601c-0.283,0.378-0.372,0.867-0.239,1.32l17.399,59.47c0.128,0.437,0.446,0.792,0.867,0.966
				c0.184,0.076,0.378,0.113,0.572,0.113c0.25,0,0.499-0.063,0.724-0.187c3.087-1.699,6.097-3.63,8.948-5.737
				C211.193,216.636,211.412,215.986,211.235,215.383z M201.924,219.194l-16.306-55.73h1.577c1.865,0,3.748-0.119,5.615-0.354
				l15.249,52.104C206.079,216.636,204.023,217.97,201.924,219.194z"/>
		</g>
	</g>
	<g>
		<g>
			<path class="st4" d="M236.74,192.491c-2.346-1.456-5.428-0.733-6.885,1.613c-13.212,21.296-36.261,35.208-61.602,37.209
				c-30.309,2.064-59.465-12.517-74.281-37.15c-1.423-2.365-4.493-3.129-6.862-1.708c-2.366,1.424-3.131,4.496-1.707,6.862
				c15.684,26.077,45.477,42.186,77.21,42.186c2.116,0,4.245-0.071,6.374-0.217c28.553-2.254,54.483-17.922,69.366-41.91
				C239.808,197.03,239.086,193.948,236.74,192.491z"/>
		</g>
	</g>
	<g>
		<g>
			<path class="st0" d="M237.53,191.217c-3.044-1.89-7.059-0.949-8.95,2.097c-12.962,20.893-35.559,34.539-60.429,36.504
				c-29.76,2.017-58.366-12.272-72.894-36.428c-1.845-3.067-5.846-4.064-8.921-2.22c-3.071,1.848-4.067,5.85-2.22,8.921
				c15.92,26.469,45.998,42.912,78.496,42.912c2.158,0,4.337-0.074,6.491-0.222c29.025-2.291,55.389-18.222,70.523-42.615
				C241.516,197.121,240.575,193.105,237.53,191.217z M237.078,198.585c-14.633,23.585-40.132,38.989-68.194,41.205
				c-2.07,0.142-4.181,0.213-6.271,0.213c-31.451,0-60.544-15.886-75.925-41.459c-0.995-1.653-0.458-3.809,1.194-4.803
				c0.564-0.338,1.185-0.499,1.799-0.499c1.19,0,2.351,0.604,3.006,1.694c15.102,25.109,44.806,39.979,75.684,37.872
				c25.834-2.04,49.295-16.213,62.758-37.913c1.019-1.64,3.181-2.147,4.819-1.13C237.588,194.783,238.095,196.945,237.078,198.585z"
				/>
		</g>
	</g>
	<g>
		<g>
			<path class="st1" d="M219.395,14.497c-5.799,0-10.501,4.702-10.501,10.501v94.267c0,11.965-9.734,21.699-21.698,21.699h-82.8
				c-5.799,0-10.501,4.702-10.501,10.501s4.701,10.501,10.501,10.501h82.8c23.545,0,42.7-19.156,42.7-42.701V24.998
				C229.896,19.198,225.194,14.497,219.395,14.497z"/>
		</g>
	</g>
	<g>
		<g>
			<path class="st0" d="M229.896,55.083c0.828,0,1.5-0.672,1.5-1.5V24.998c0-6.617-5.384-12.001-12.001-12.001s-12,5.384-12,12.001
				v94.267c0,11.138-9.06,20.199-20.198,20.199h-82.8c-6.617,0-12.001,5.384-12.001,12.001s5.384,12.001,12.001,12.001h82.8
				c24.371,0,44.199-19.828,44.199-44.201V67.777c0-0.828-0.672-1.5-1.5-1.5c-0.828,0-1.5,0.672-1.5,1.5v51.487
				c0,22.719-18.481,41.201-41.199,41.201h-82.8c-4.963,0-9.001-4.038-9.001-9.001s4.038-9.001,9.001-9.001h82.8
				c12.792,0,23.198-10.407,23.198-23.199V24.998c0-4.963,4.037-9.001,9-9.001s9.001,4.038,9.001,9.001v28.585
				C228.396,54.411,229.067,55.083,229.896,55.083z"/>
		</g>
	</g>
	<g>
		<g>
			<path class="st14" d="M92.436,20.233c-3.18,0-5.98,1.63-7.62,4.1c0.81,1.5,1.27,3.22,1.27,5.05c0,1.1-0.16,2.16-0.47,3.16h0.02
				l-4.63,12.65h15.4l4.74-12.96c0.01-0.04,0.02-0.09,0.04-0.14c0.27-0.87,0.4-1.78,0.4-2.71
				C101.586,24.344,97.486,20.233,92.436,20.233z"/>
		</g>
	</g>
	<g>
		<g>
			<path class="st14" d="M105.526,85.884c0.26-0.49,0.6-0.96,0.99-1.39c1.27-1.39,3.09-2.19,4.98-2.19h7.98
				c-4.31-9.9-11.6-18.41-20.98-24.13c-0.02,0-0.04,0.01-0.07,0.01h-14.13C94.126,64.763,101.676,74.473,105.526,85.884z
				 M107.666,94.523c0.47,2.84,0.71,5.76,0.71,8.74c0,20.72-11.61,28.71-28.68,31.66c17.19-0.58,29.86-3.24,37.12-10.74v-28.38
				h-5.05C110.246,95.803,108.826,95.333,107.666,94.523z"/>
		</g>
	</g>
	<g>
		<g>
			<path class="st20" d="M98.426,48.193h-13.43c0.89,0.9,1.43,2.14,1.43,3.49c0,1.37-0.55,2.61-1.45,3.5h13.45
				c1.93,0,3.5-1.57,3.5-3.5C101.926,49.763,100.356,48.193,98.426,48.193z"/>
		</g>
	</g>
</g>
</svg>
