<?xml version="1.0" encoding="utf-8"?>
<!-- Generator: Adobe Illustrator 22.0.1, SVG Export Plug-In . SVG Version: 6.00 Build 0)  -->
<svg version="1.1" id="Layer_1" xmlns="http://www.w3.org/2000/svg" xmlns:xlink="http://www.w3.org/1999/xlink" x="0px" y="0px"
	 viewBox="0 0 256 256" style="enable-background:new 0 0 256 256;" xml:space="preserve">
<style type="text/css">
	.st0{fill:#3A312A;}
	.st1{fill:#8AC6DD;}
	.st2{fill:#F16C7A;}
	.st3{fill:#D7E057;}
	.st4{fill:#87796F;}
	.st5{fill:#FCE8CB;}
	.st6{fill:#DECAAD;}
	.st7{fill:#D6DF58;}
	.st8{fill:#FAE6CA;}
	.st9{fill:#DDC9AC;}
	.st10{fill:#D5DE58;}
	.st11{fill:#ED6E7A;}
	.st12{fill:#8AC5DC;}
	.st13{fill:#6CA8BF;}
	.st14{fill:#695B51;}
	.st15{fill:#F8E4C8;}
	.st16{fill:#EF6D7A;}
	.st17{fill-rule:evenodd;clip-rule:evenodd;fill:#F8E4C8;}
	.st18{fill:#89C4DB;}
	.st19{fill:#F59689;}
	.st20{fill:#D34E5C;}
	.st21{fill:#F7E3C7;}
	.st22{fill:#8AC3DA;}
	.st23{fill-rule:evenodd;clip-rule:evenodd;fill:#F7E3C7;}
	.st24{fill-rule:evenodd;clip-rule:evenodd;fill:#87796F;}
	.st25{fill:#B9C239;}
	.st26{fill:#D4DB56;}
	.st27{fill-rule:evenodd;clip-rule:evenodd;fill:#F16C7A;}
	.st28{fill-rule:evenodd;clip-rule:evenodd;fill:#F6E2C6;}
	.st29{fill:#F6E2C6;}
	.st30{fill-rule:evenodd;clip-rule:evenodd;fill:#FAE6CA;}
	.st31{fill:#B8C136;}
</style>
<g>
	<g>
		<g>
			<path class="st3" d="M47.384,26.438c-0.974,11.564-13.025,13.39-13.025,13.39c10.347,0.487,12.925,14.059,12.925,14.059
				c0.221-9.677,13.321-14.202,13.321-14.202C50.793,39.097,47.384,26.438,47.384,26.438z"/>
		</g>
	</g>
	<g>
		<g>
			<path class="st0" d="M60.696,38.187c-8.605-0.514-11.832-12.024-11.864-12.14c-0.191-0.703-0.86-1.168-1.583-1.102
				c-0.725,0.066-1.298,0.642-1.359,1.367c-0.86,10.215-11.313,11.963-11.754,12.032c-0.763,0.115-1.313,0.79-1.273,1.561
				c0.04,0.77,0.657,1.384,1.427,1.421c9.028,0.425,11.499,12.719,11.523,12.843c0.137,0.711,0.759,1.217,1.472,1.217
				c0.042,0,0.085-0.001,0.127-0.005c0.764-0.064,1.357-0.693,1.375-1.46c0.195-8.509,12.192-12.777,12.313-12.819
				c0.675-0.235,1.092-0.915,0.994-1.623C61.994,38.771,61.41,38.229,60.696,38.187z M47.13,48.533
				c-1.357-3.13-3.709-6.907-7.587-8.877c2.931-1.405,6.409-3.913,8.202-8.273c1.551,3.071,4.2,6.88,8.334,8.722
				C53.072,41.746,49.156,44.512,47.13,48.533z"/>
		</g>
	</g>
	<g>
		<g>
			<path class="st3" d="M25.686,43.418c-0.689,8.179-9.212,9.47-9.212,9.47c7.318,0.344,9.142,9.944,9.142,9.944
				c0.156-6.844,9.422-10.045,9.422-10.045C28.096,52.372,25.686,43.418,25.686,43.418z"/>
		</g>
	</g>
	<g>
		<g>
			<path class="st0" d="M35.127,51.29c-5.766-0.345-7.972-8.185-7.994-8.264c-0.19-0.702-0.859-1.164-1.582-1.102
				c-0.726,0.065-1.299,0.643-1.36,1.368c-0.579,6.87-7.646,8.066-7.942,8.113c-0.763,0.115-1.313,0.79-1.273,1.56
				c0.04,0.77,0.657,1.384,1.427,1.421c6.036,0.284,7.724,8.644,7.74,8.726c0.135,0.712,0.759,1.22,1.473,1.22
				c0.041,0,0.083-0.002,0.125-0.005c0.765-0.064,1.358-0.694,1.376-1.461c0.13-5.709,8.332-8.634,8.412-8.662
				c0.677-0.234,1.094-0.913,0.996-1.622C36.426,51.875,35.842,51.333,35.127,51.29z M25.543,58.085
				c-0.924-1.886-2.34-3.947-4.447-5.28c1.856-1.042,3.697-2.63,4.871-4.916c1.057,1.874,2.654,3.954,4.941,5.223
				C29.058,54.213,26.919,55.854,25.543,58.085z"/>
		</g>
	</g>
	<g>
		<g>
			<path class="st3" d="M25.686,16.761c-0.689,8.179-9.212,9.471-9.212,9.471c7.318,0.344,9.142,9.944,9.142,9.944
				c0.156-6.845,9.422-10.045,9.422-10.045C28.096,25.715,25.686,16.761,25.686,16.761z"/>
		</g>
	</g>
	<g>
		<g>
			<path class="st0" d="M35.127,24.633c-5.767-0.345-7.973-8.185-7.994-8.265c-0.19-0.702-0.851-1.166-1.582-1.102
				c-0.726,0.065-1.299,0.643-1.36,1.368c-0.579,6.871-7.646,8.067-7.942,8.114c-0.763,0.115-1.313,0.79-1.273,1.561
				c0.04,0.77,0.657,1.384,1.428,1.421c6.035,0.284,7.724,8.644,7.739,8.726c0.135,0.713,0.759,1.22,1.472,1.22
				c0.042,0,0.083-0.001,0.125-0.005c0.765-0.063,1.358-0.694,1.376-1.461c0.13-5.71,8.331-8.634,8.412-8.662
				c0.676-0.234,1.094-0.913,0.996-1.622C36.426,25.217,35.842,24.676,35.127,24.633z M25.543,31.428
				c-0.924-1.886-2.34-3.947-4.447-5.28c1.856-1.041,3.697-2.629,4.87-4.916c1.057,1.874,2.655,3.954,4.941,5.224
				C29.058,27.556,26.919,29.196,25.543,31.428z"/>
		</g>
	</g>
	<g>
		<g>
			<path class="st4" d="M150.857,27.718h-45.71c-12.86,0-23.32,10.46-23.32,23.32v19.5h14.69v-19.5c0-4.76,3.87-8.63,8.63-8.63
				h45.71c4.76,0,8.63,3.87,8.63,8.63v19.5h14.7v-19.5C174.187,38.178,163.717,27.718,150.857,27.718z"/>
		</g>
	</g>
	<g>
		<g>
			<path class="st0" d="M150.856,26.218H132.36c-0.829,0-1.5,0.671-1.5,1.5c0,0.829,0.671,1.5,1.5,1.5h18.496
				c12.037,0,21.83,9.788,21.83,21.82v18h-11.7v-18c0-5.586-4.544-10.13-10.13-10.13h-45.71c-5.586,0-10.13,4.544-10.13,10.13v18
				h-11.69v-18c0-12.032,9.788-21.82,21.82-21.82h13.493c0.829,0,1.5-0.671,1.5-1.5c0-0.829-0.671-1.5-1.5-1.5h-13.493
				c-13.686,0-24.82,11.134-24.82,24.82v19.5c0,0.829,0.671,1.5,1.5,1.5h14.69c0.829,0,1.5-0.671,1.5-1.5v-19.5
				c0-3.932,3.198-7.13,7.13-7.13h45.71c3.932,0,7.13,3.199,7.13,7.13v19.5c0,0.829,0.671,1.5,1.5,1.5h14.7
				c0.829,0,1.5-0.671,1.5-1.5v-19.5C175.687,37.352,164.548,26.218,150.856,26.218z"/>
		</g>
	</g>
	<g>
		<g>
			<path class="st4" d="M226.417,70.539H30.637c-7.24,0-13.11,5.86-13.11,13.1v79.138c0.029,0,0.055-0.004,0.083-0.004v13.265
				c-0.029,0-0.055-0.004-0.083-0.004v50.095c0,7.24,5.87,13.11,13.11,13.11h195.78c7.24,0,13.11-5.87,13.11-13.11V83.639
				C239.527,76.399,233.657,70.539,226.417,70.539z"/>
		</g>
	</g>
	<g>
		<g>
			<path class="st0" d="M226.417,69.04H30.637c-8.056,0-14.61,6.549-14.61,14.6v79.138c0,0.402,0.19,0.786,0.477,1.068
				c0.28,0.276,0.686,0.428,1.08,0.428c0.837,0.014,1.526-0.662,1.526-1.5c0-0.173-0.029-0.34-0.083-0.495v-78.64
				c0-6.396,5.208-11.6,11.61-11.6h195.78c6.402,0,11.61,5.204,11.61,11.6v142.49c0,6.402-5.208,11.61-11.61,11.61H30.637
				c-6.402,0-11.61-5.208-11.61-11.61v-49.523c0.074-0.175,0.116-0.366,0.116-0.567c0-0.829-0.64-1.499-1.468-1.499
				c-0.036-0.002-0.112-0.006-0.148-0.006c-0.829,0-1.5,0.671-1.5,1.5v50.095c0,8.056,6.554,14.61,14.61,14.61h195.78
				c8.056,0,14.61-6.554,14.61-14.61V83.639C241.027,75.589,234.473,69.04,226.417,69.04z"/>
		</g>
	</g>
	<g>
		<g>
			<path class="st1" d="M226.417,70.539H30.637c-7.24,0-13.11,5.86-13.11,13.1V128.5h222V83.639
				C239.527,76.399,233.657,70.539,226.417,70.539z"/>
		</g>
	</g>
	<g>
		<g>
			<path class="st0" d="M226.417,69.04H30.637c-8.056,0-14.61,6.549-14.61,14.6V128.5c0,0.829,0.671,1.5,1.5,1.5h222
				c0.829,0,1.5-0.671,1.5-1.5V83.639C241.027,75.589,234.473,69.04,226.417,69.04z M238.027,127h-219V83.639
				c0-6.396,5.208-11.6,11.61-11.6h195.78c6.402,0,11.61,5.204,11.61,11.6V127z"/>
		</g>
	</g>
	<g>
		<g>
			
				<ellipse transform="matrix(0.9637 -0.2669 0.2669 0.9637 -47.0072 41.1887)" class="st15" cx="128" cy="193.5" rx="45.739" ry="45.739"/>
		</g>
	</g>
	<g>
		<g>
			<path class="st0" d="M128,146.261c-26.048,0-47.239,21.191-47.239,47.239s21.191,47.239,47.239,47.239
				s47.239-21.191,47.239-47.239S154.048,146.261,128,146.261z M128,237.739c-24.394,0-44.239-19.846-44.239-44.239
				s19.846-44.239,44.239-44.239c24.394,0,44.239,19.846,44.239,44.239S152.394,237.739,128,237.739z"/>
		</g>
	</g>
	<g>
		<g>
			<path class="st3" d="M159.793,186.68h-1.382c-0.81-3.541-2.222-6.853-4.124-9.822l1.017-1.017c1.172-1.172,1.172-3.071,0-4.243
				l-5.402-5.402c-1.172-1.172-3.071-1.172-4.243,0l-1.055,1.055c-2.962-1.866-6.26-3.247-9.783-4.033v-1.511c0-1.657-1.343-3-3-3
				h-7.64c-1.657,0-3,1.343-3,3v1.511c-1.867,0.503-6.821,2.167-9.783,4.033l-1.055-1.055c-1.172-1.172-3.071-1.172-4.243,0
				l-5.402,5.402c-1.172,1.172-1.172,3.071,0,4.243l1.017,1.017c-1.902,2.968-3.314,6.28-4.124,9.822h-1.382c-1.657,0-3,1.343-3,3
				v7.64c0,1.657,1.343,3,3,3h1.31c0.779,3.585,2.174,6.94,4.069,9.948l-0.89,0.89c-1.172,1.172-1.172,3.071,0,4.243l5.402,5.402
				c1.172,1.172,3.071,1.172,4.243,0l0.852-0.852c3.014,1.931,6.383,3.356,9.987,4.16v1.181c0,1.657,1.343,3,3,3h7.64
				c1.657,0,3-1.343,3-3v-1.181c3.603-0.804,6.972-2.229,9.987-4.16l0.852,0.852c1.172,1.172,3.071,1.172,4.243,0l5.402-5.402
				c1.172-1.172,1.172-3.072,0-4.243l-0.89-0.89c1.895-3.008,3.29-6.363,4.069-9.948h1.31c1.657,0,3-1.343,3-3v-7.64
				C162.793,188.023,161.45,186.68,159.793,186.68z M128,209.098c-8.615,0-15.598-6.984-15.598-15.598
				c0-8.615,6.984-15.598,15.598-15.598c8.615,0,15.598,6.984,15.598,15.598C143.598,202.115,136.615,209.098,128,209.098z"/>
		</g>
	</g>
	<g>
		<g>
			<path class="st0" d="M128,176.402c-9.428,0-17.098,7.67-17.098,17.098c0,9.428,7.67,17.098,17.098,17.098
				c9.428,0,17.098-7.67,17.098-17.098C145.098,184.072,137.428,176.402,128,176.402z M128,207.598
				c-7.774,0-14.098-6.324-14.098-14.098c0-7.774,6.324-14.098,14.098-14.098s14.098,6.324,14.098,14.098
				C142.098,201.274,135.774,207.598,128,207.598z M159.793,185.18h-0.21c-0.761-2.844-1.901-5.558-3.398-8.098l0.18-0.18
				c1.754-1.755,1.754-4.61,0-6.364l-5.402-5.402c-1.754-1.755-4.61-1.756-6.364,0l-0.225,0.224
				c-2.529-1.467-5.229-2.581-8.053-3.321v-0.332c0-2.481-2.019-4.5-4.5-4.5h-7.64c-2.481,0-4.5,2.019-4.5,4.5v0.389
				c-1.96,0.609-5.373,1.812-8.041,3.276l-0.236-0.237c-1.755-1.754-4.609-1.753-6.364,0l-5.402,5.402
				c-1.754,1.754-1.754,4.609,0,6.365l0.179,0.179c-1.497,2.54-2.637,5.254-3.398,8.098h-0.209c-2.481,0-4.5,2.019-4.5,4.5v7.64
				c0,2.482,2.019,4.5,4.5,4.5h0.125c0.739,2.883,1.867,5.638,3.363,8.218l-0.06,0.059c-1.754,1.755-1.754,4.61,0,6.364l5.402,5.403
				c1.755,1.754,4.609,1.754,6.364,0l0.014-0.014c2.588,1.526,5.358,2.68,8.263,3.441v0.002c0,2.481,2.019,4.5,4.5,4.5h7.64
				c2.481,0,4.5-2.019,4.5-4.5v-0.002c2.905-0.761,5.676-1.916,8.263-3.441l0.015,0.014c1.754,1.755,4.61,1.754,6.364,0l5.402-5.402
				c1.754-1.754,1.754-4.609,0-6.365l-0.059-0.059c1.496-2.58,2.624-5.336,3.363-8.218h0.125c2.481,0,4.5-2.019,4.5-4.5v-7.64
				C164.293,187.199,162.274,185.18,159.793,185.18z M161.293,197.32c0,0.827-0.673,1.5-1.5,1.5h-1.311
				c-0.706,0-1.316,0.492-1.466,1.182c-0.731,3.362-2.033,6.547-3.872,9.467c-0.373,0.593-0.287,1.365,0.209,1.86l0.89,0.889
				c0.585,0.585,0.585,1.537,0.001,2.122l-5.402,5.402c-0.585,0.585-1.537,0.584-2.122-0.001l-0.852-0.852
				c-0.5-0.499-1.277-0.583-1.87-0.202c-2.921,1.872-6.119,3.204-9.504,3.959c-0.686,0.153-1.173,0.761-1.173,1.464v1.181
				c0,0.827-0.673,1.5-1.5,1.5h-7.64c-0.827,0-1.5-0.673-1.5-1.5v-1.181c0-0.703-0.488-1.311-1.173-1.464
				c-3.385-0.755-6.583-2.087-9.504-3.959c-0.249-0.159-0.529-0.237-0.809-0.237c-0.387,0-0.771,0.15-1.061,0.44l-0.852,0.851
				c-0.585,0.585-1.537,0.584-2.122,0.001l-5.402-5.402c-0.585-0.585-0.584-1.537,0-2.122l0.89-0.89
				c0.495-0.495,0.582-1.268,0.208-1.86c-1.839-2.92-3.142-6.105-3.872-9.467c-0.15-0.69-0.76-1.182-1.466-1.182h-1.311
				c-0.827,0-1.5-0.673-1.5-1.5v-7.64c0-0.827,0.673-1.5,1.5-1.5h1.382c0.7,0,1.306-0.483,1.462-1.165
				c0.76-3.324,2.081-6.469,3.925-9.347c0.38-0.593,0.296-1.372-0.203-1.87l-1.017-1.016c-0.585-0.585-0.585-1.537,0-2.122
				l5.402-5.402c0.585-0.585,1.538-0.585,2.122,0l1.055,1.055c0.495,0.495,1.268,0.583,1.86,0.208
				c2.76-1.738,7.593-3.374,9.374-3.854c0.655-0.176,1.11-0.77,1.11-1.448v-1.512c0-0.827,0.673-1.5,1.5-1.5h7.64
				c0.827,0,1.5,0.673,1.5,1.5v1.512c0,0.703,0.488,1.311,1.173,1.464c3.306,0.737,6.438,2.028,9.31,3.838
				c0.593,0.374,1.365,0.287,1.86-0.208l1.055-1.055c0.585-0.584,1.536-0.585,2.122,0l5.402,5.402c0.585,0.585,0.584,1.537,0,2.122
				l-1.017,1.017c-0.499,0.498-0.582,1.277-0.203,1.87c1.844,2.878,3.165,6.022,3.925,9.347c0.156,0.682,0.763,1.165,1.462,1.165
				h1.382c0.827,0,1.5,0.673,1.5,1.5V197.32z"/>
		</g>
	</g>
	<g>
		<g>
			<path class="st2" d="M145.474,115.5h-34.947c-3.604,0-6.526,2.922-6.526,6.526v12.947c0,3.604,2.922,6.526,6.526,6.526h34.947
				c3.604,0,6.526-2.922,6.526-6.526v-12.947C152,118.422,149.078,115.5,145.474,115.5z"/>
		</g>
	</g>
	<g>
		<g>
			<path class="st0" d="M145.474,114h-34.947c-4.426,0-8.026,3.601-8.026,8.026v12.947c0,4.426,3.601,8.026,8.026,8.026h34.947
				c4.426,0,8.026-3.601,8.026-8.026v-12.947C153.5,117.601,149.899,114,145.474,114z M150.5,134.974
				c0,2.771-2.255,5.026-5.026,5.026h-34.947c-2.771,0-5.026-2.255-5.026-5.026v-12.947c0-2.772,2.255-5.026,5.026-5.026h34.947
				c2.772,0,5.026,2.255,5.026,5.026V134.974z"/>
		</g>
	</g>
	<g>
		<g>
			<path class="st2" d="M46.819,70.539v59.28C46.819,135.994,51.825,141,58,141s11.181-5.006,11.181-11.181v-59.28H46.819z"/>
		</g>
	</g>
	<g>
		<g>
			<path class="st0" d="M69.181,69.04H46.819c-0.829,0-1.5,0.671-1.5,1.5v59.28c0,6.992,5.688,12.681,12.681,12.681
				s12.681-5.688,12.681-12.681V70.54C70.681,69.711,70.009,69.04,69.181,69.04z M67.681,129.819c0,5.338-4.343,9.681-9.681,9.681
				s-9.681-4.343-9.681-9.681V72.04h19.361V129.819z"/>
		</g>
	</g>
	<g>
		<g>
			<circle class="st3" cx="58" cy="130" r="4.5"/>
		</g>
	</g>
	<g>
		<g>
			<path class="st0" d="M58,124c-3.309,0-6,2.691-6,6s2.691,6,6,6s6-2.691,6-6S61.309,124,58,124z M58,133c-1.654,0-3-1.346-3-3
				s1.346-3,3-3s3,1.346,3,3S59.654,133,58,133z"/>
		</g>
	</g>
	<g>
		<g>
			<path class="st2" d="M186.819,70.539v59.28c0,6.175,5.006,11.181,11.181,11.181s11.181-5.006,11.181-11.181v-59.28H186.819z"/>
		</g>
	</g>
	<g>
		<g>
			<path class="st0" d="M209.181,69.04h-22.361c-0.829,0-1.5,0.671-1.5,1.5v59.28c0,6.992,5.689,12.681,12.681,12.681
				s12.681-5.688,12.681-12.681V70.54C210.681,69.711,210.009,69.04,209.181,69.04z M207.681,129.819
				c0,5.338-4.343,9.681-9.681,9.681s-9.681-4.343-9.681-9.681V72.04h19.361V129.819z"/>
		</g>
	</g>
	<g>
		<g>
			<circle class="st3" cx="198" cy="130" r="4.5"/>
		</g>
	</g>
	<g>
		<g>
			<path class="st0" d="M198,124c-3.309,0-6,2.691-6,6s2.691,6,6,6s6-2.691,6-6S201.309,124,198,124z M198,133c-1.654,0-3-1.346-3-3
				s1.346-3,3-3s3,1.346,3,3S199.654,133,198,133z"/>
		</g>
	</g>
	<g>
		<g>
			<path class="st14" d="M220.03,130v96.13c0,6.4-5.21,11.61-11.61,11.61h18c6.4,0,11.61-5.21,11.61-11.61V130H220.03z"/>
		</g>
	</g>
	<g>
		<g>
			<path class="st13" d="M226.42,72.04h-15.74v0.22c5.32,1.05,9.35,5.75,9.35,11.38V127h18V83.64
				C238.03,77.24,232.82,72.04,226.42,72.04z"/>
		</g>
	</g>
</g>
</svg>
