<?xml version="1.0" encoding="utf-8"?>
<!-- Generator: Adobe Illustrator 22.0.1, SVG Export Plug-In . SVG Version: 6.00 Build 0)  -->
<svg version="1.1" id="Layer_1" xmlns="http://www.w3.org/2000/svg" xmlns:xlink="http://www.w3.org/1999/xlink" x="0px" y="0px"
	 viewBox="0 0 256 256" style="enable-background:new 0 0 256 256;" xml:space="preserve">
<style type="text/css">
	.st0{fill:#3A312A;}
	.st1{fill:#8AC6DD;}
	.st2{fill:#F16C7A;}
	.st3{fill:#D7E057;}
	.st4{fill:#87796F;}
	.st5{fill:#FCE8CB;}
	.st6{fill:#DECAAD;}
	.st7{fill:#D6DF58;}
	.st8{fill:#FAE6CA;}
	.st9{fill:#DDC9AC;}
	.st10{fill:#D5DE58;}
	.st11{fill:#ED6E7A;}
	.st12{fill:#8AC5DC;}
	.st13{fill:#6CA8BF;}
	.st14{fill:#695B51;}
	.st15{fill:#F8E4C8;}
	.st16{fill:#EF6D7A;}
	.st17{fill-rule:evenodd;clip-rule:evenodd;fill:#F8E4C8;}
	.st18{fill:#89C4DB;}
	.st19{fill:#F59689;}
	.st20{fill:#D34E5C;}
	.st21{fill:#F7E3C7;}
	.st22{fill:#8AC3DA;}
	.st23{fill-rule:evenodd;clip-rule:evenodd;fill:#F7E3C7;}
	.st24{fill-rule:evenodd;clip-rule:evenodd;fill:#87796F;}
	.st25{fill:#B9C239;}
	.st26{fill:#D4DB56;}
	.st27{fill-rule:evenodd;clip-rule:evenodd;fill:#F16C7A;}
	.st28{fill-rule:evenodd;clip-rule:evenodd;fill:#F6E2C6;}
	.st29{fill:#F6E2C6;}
	.st30{fill-rule:evenodd;clip-rule:evenodd;fill:#FAE6CA;}
	.st31{fill:#B8C136;}
</style>
<g>
	<g>
		<g>
			<path class="st3" d="M47.58,26.027c-0.974,11.563-13.025,13.389-13.025,13.389c10.347,0.487,12.925,14.059,12.925,14.059
				c0.221-9.677,13.321-14.202,13.321-14.202C50.989,38.687,47.58,26.027,47.58,26.027z"/>
		</g>
	</g>
	<g>
		<g>
			<path class="st0" d="M60.892,37.776c-8.604-0.515-11.832-12.024-11.864-12.141c-0.191-0.703-0.863-1.168-1.583-1.102
				c-0.725,0.066-1.298,0.642-1.359,1.367c-0.86,10.215-11.313,11.964-11.754,12.032c-0.763,0.116-1.313,0.791-1.273,1.561
				c0.04,0.771,0.657,1.385,1.427,1.421c9.028,0.426,11.499,12.718,11.523,12.843c0.137,0.711,0.759,1.217,1.472,1.217
				c0.042,0,0.084-0.002,0.126-0.005c0.764-0.064,1.357-0.693,1.375-1.46c0.195-8.509,12.192-12.777,12.313-12.819
				c0.675-0.234,1.092-0.914,0.994-1.622C62.19,38.359,61.606,37.818,60.892,37.776z M47.326,48.122
				c-1.357-3.13-3.709-6.907-7.587-8.876c2.931-1.405,6.409-3.914,8.202-8.273c1.551,3.071,4.199,6.88,8.334,8.723
				C53.268,41.335,49.352,44.101,47.326,48.122z"/>
		</g>
	</g>
	<g>
		<g>
			<path class="st3" d="M25.881,43.008c-0.689,8.179-9.212,9.471-9.212,9.471c7.318,0.344,9.142,9.944,9.142,9.944
				c0.156-6.844,9.422-10.046,9.422-10.046C28.292,51.962,25.881,43.008,25.881,43.008z"/>
		</g>
	</g>
	<g>
		<g>
			<path class="st0" d="M35.323,50.88c-5.766-0.345-7.972-8.186-7.994-8.265c-0.19-0.702-0.86-1.169-1.582-1.102
				c-0.726,0.065-1.299,0.643-1.36,1.368c-0.579,6.871-7.646,8.066-7.942,8.113c-0.763,0.116-1.313,0.791-1.273,1.561
				c0.04,0.771,0.657,1.385,1.427,1.421c6.036,0.284,7.724,8.645,7.739,8.727c0.135,0.712,0.759,1.22,1.472,1.22
				c0.042,0,0.083-0.002,0.125-0.005c0.765-0.063,1.358-0.693,1.376-1.461c0.13-5.709,8.332-8.634,8.413-8.662
				c0.677-0.234,1.094-0.913,0.996-1.622C36.622,51.464,36.038,50.922,35.323,50.88z M25.738,57.675
				c-0.924-1.886-2.34-3.947-4.447-5.279c1.856-1.041,3.697-2.63,4.871-4.917c1.057,1.874,2.654,3.955,4.941,5.224
				C29.253,53.803,27.114,55.442,25.738,57.675z"/>
		</g>
	</g>
	<g>
		<g>
			<path class="st3" d="M25.881,16.35c-0.689,8.179-9.212,9.47-9.212,9.47c7.318,0.344,9.142,9.944,9.142,9.944
				c0.156-6.845,9.422-10.045,9.422-10.045C28.292,25.304,25.881,16.35,25.881,16.35z"/>
		</g>
	</g>
	<g>
		<g>
			<path class="st0" d="M35.323,24.223c-5.766-0.345-7.972-8.186-7.994-8.265c-0.19-0.702-0.85-1.164-1.582-1.102
				c-0.726,0.065-1.299,0.643-1.36,1.368c-0.579,6.87-7.646,8.065-7.942,8.112c-0.763,0.116-1.313,0.791-1.273,1.561
				c0.04,0.771,0.657,1.385,1.427,1.421c6.036,0.284,7.724,8.645,7.739,8.727c0.135,0.712,0.759,1.22,1.472,1.22
				c0.042,0,0.083-0.002,0.125-0.005c0.765-0.063,1.358-0.693,1.376-1.461c0.13-5.709,8.332-8.633,8.413-8.661
				c0.676-0.233,1.094-0.913,0.996-1.622C36.622,24.807,36.038,24.265,35.323,24.223z M25.738,31.017
				c-0.924-1.886-2.34-3.946-4.447-5.279c1.856-1.041,3.697-2.629,4.87-4.916c1.057,1.874,2.654,3.954,4.941,5.224
				C29.253,27.146,27.114,28.785,25.738,31.017z"/>
		</g>
	</g>
	<g>
		<g>
			<path class="st4" d="M187.45,53.739l-77.681-35.601c-5.385-2.468-11.753-0.102-14.221,5.282L72.886,72.868l-5.923,12.924
				L19.956,188.361c-2.468,5.384-0.102,11.753,5.283,14.22l77.681,35.601c5.384,2.468,11.753,0.102,14.221-5.282l75.591-164.941
				C195.2,62.574,192.834,56.206,187.45,53.739z"/>
		</g>
	</g>
	<g>
		<g>
			<path class="st0" d="M194.442,59.232c-1.137-3.062-3.399-5.497-6.367-6.857l-77.682-35.602
				c-6.129-2.808-13.401-0.107-16.209,6.021L71.522,72.243c-0.345,0.753-0.014,1.644,0.739,1.988
				c0.753,0.345,1.644,0.015,1.989-0.738l22.662-49.448c2.119-4.625,7.605-6.662,12.232-4.545l77.681,35.602
				c2.24,1.027,3.947,2.865,4.805,5.176c0.858,2.311,0.766,4.816-0.261,7.057l-75.591,164.941c-2.12,4.624-7.608,6.659-12.232,4.544
				l-77.682-35.602c-2.24-1.027-3.946-2.865-4.805-5.176s-0.766-4.816,0.261-7.057L68.327,86.417
				c0.345-0.753,0.014-1.644-0.739-1.988c-0.754-0.345-1.644-0.015-1.989,0.738L18.593,187.735c-1.36,2.969-1.483,6.29-0.346,9.352
				c1.137,3.062,3.398,5.497,6.367,6.857l77.682,35.602c1.646,0.755,3.374,1.111,5.076,1.111c4.636,0,9.079-2.649,11.134-7.132
				l75.591-164.941C195.456,65.615,195.579,62.294,194.442,59.232z"/>
		</g>
	</g>
	<g>
		<g>
			<path class="st3" d="M109.768,18.137c-5.385-2.467-11.753-0.102-14.221,5.283l-9.112,19.884l0.207,0.095
				c16.368,7.501,35.715,0.315,43.217-16.053L109.768,18.137z"/>
		</g>
	</g>
	<g>
		<g>
			<path class="st0" d="M131.265,26.822c-0.139-0.373-0.419-0.676-0.781-0.841l-20.091-9.207c-2.968-1.36-6.288-1.482-9.352-0.347
				c-3.062,1.138-5.498,3.398-6.858,6.367l-9.112,19.884c-0.345,0.753-0.014,1.644,0.738,1.988l0.207,0.095
				c4.59,2.104,9.408,3.1,14.155,3.099c12.93-0.001,25.321-7.389,31.051-19.891C131.388,27.608,131.403,27.195,131.265,26.822z
				 M88.434,42.542l8.477-18.497c1.026-2.24,2.864-3.946,5.175-4.805c2.31-0.858,4.815-0.767,7.057,0.261l18.695,8.567
				C120.462,42.325,103.31,48.643,88.434,42.542z"/>
		</g>
	</g>
	<g>
		<g>
			<path class="st3" d="M29.529,168.018l-0.207-0.095l-9.366,20.438c-2.468,5.384-0.102,11.753,5.282,14.22l20.082,9.204
				c0.092-0.178,0.175-0.36,0.262-0.55C53.085,194.866,45.898,175.52,29.529,168.018z"/>
		</g>
	</g>
	<g>
		<g>
			<path class="st0" d="M30.155,166.654l-0.207-0.095c-0.362-0.166-0.775-0.182-1.147-0.043c-0.373,0.139-0.676,0.42-0.842,0.781
				l-9.367,20.438c-1.36,2.969-1.483,6.29-0.346,9.352c1.138,3.063,3.399,5.498,6.367,6.857l20.082,9.204
				c0.202,0.093,0.415,0.137,0.624,0.137c0.546,0,1.07-0.299,1.336-0.814c0.099-0.192,0.188-0.387,0.292-0.611
				C54.78,194.767,47.247,174.488,30.155,166.654z M44.578,209.795l-18.715-8.577c-2.24-1.026-3.946-2.864-4.805-5.175
				c-0.858-2.312-0.766-4.817,0.261-7.058l8.731-19.051C44.558,177.307,50.951,194.758,44.578,209.795z"/>
		</g>
	</g>
	<g>
		<g>
			<path class="st3" d="M126.301,212.367c-16.368-7.501-35.715-0.315-43.217,16.053c-0.087,0.19-0.171,0.372-0.246,0.558
				l20.082,9.204c5.385,2.467,11.753,0.102,14.221-5.283l9.366-20.438L126.301,212.367z"/>
		</g>
	</g>
	<g>
		<g>
			<path class="st0" d="M127.133,211.099l-0.207-0.095c0,0,0,0,0,0c-17.093-7.832-37.373-0.3-45.221,16.826
				c-0.091,0.198-0.178,0.39-0.257,0.585c-0.301,0.744,0.036,1.593,0.765,1.927l20.082,9.204c1.646,0.755,3.374,1.111,5.076,1.111
				c4.636,0,9.079-2.649,11.134-7.132l9.366-20.438C128.216,212.334,127.885,211.443,127.133,211.099z M115.777,232.275
				c-2.12,4.625-7.609,6.661-12.232,4.544l-18.715-8.578c7.217-14.638,24.615-21.195,39.679-15.018L115.777,232.275z"/>
		</g>
	</g>
	<g>
		<g>
			<path class="st5" d="M231.938,100.448l-21.756-28.434l-8.848-11.565l-21.321-27.866c-3.599-4.704-10.333-5.6-15.037-2.001
				L20.878,140.834c-4.704,3.599-5.6,10.333-2.001,15.038l51.925,67.865c3.599,4.704,10.334,5.6,15.038,2.001l144.098-110.251
				C234.641,111.887,235.537,105.153,231.938,100.448z"/>
		</g>
	</g>
	<g>
		<g>
			<path class="st0" d="M233.129,99.537l-51.924-67.864c-4.097-5.354-11.785-6.377-17.141-2.282L19.966,139.643
				c-2.593,1.984-4.259,4.859-4.689,8.098c-0.431,3.237,0.425,6.449,2.409,9.042l51.925,67.865c1.984,2.594,4.86,4.259,8.098,4.69
				c0.548,0.072,1.095,0.108,1.639,0.108c2.668,0,5.249-0.869,7.403-2.518l144.098-110.251
				C236.202,112.58,237.226,104.892,233.129,99.537z M229.025,114.295L84.927,224.546c-1.957,1.498-4.378,2.14-6.823,1.818
				c-2.443-0.325-4.614-1.582-6.111-3.539L20.068,154.96c-1.498-1.957-2.143-4.381-1.818-6.824s1.582-4.613,3.539-6.11
				L165.887,31.773c1.669-1.277,3.64-1.895,5.595-1.895c2.777,0,5.525,1.245,7.339,3.616l51.924,67.864
				C233.838,105.4,233.065,111.203,229.025,114.295z"/>
		</g>
	</g>
	<g>
		<g>
			
				<ellipse transform="matrix(0.0727 -0.9974 0.9974 0.0727 -11.5306 243.9182)" class="st3" cx="125.407" cy="128.16" rx="38.602" ry="38.602"/>
		</g>
	</g>
	<g>
		<g>
			<path class="st0" d="M157.256,103.792c-6.509-8.508-15.941-13.971-26.559-15.384c-10.62-1.416-21.152,1.394-29.659,7.902
				c-17.561,13.437-20.917,38.656-7.481,56.218c7.885,10.305,19.825,15.719,31.896,15.719c8.5-0.001,17.065-2.686,24.322-8.237
				c8.507-6.509,13.971-15.941,15.384-26.56C166.572,122.832,163.765,112.299,157.256,103.792z M162.185,133.054
				c-1.307,9.824-6.362,18.551-14.233,24.573c-16.25,12.431-39.581,9.325-52.012-6.921c-12.431-16.249-9.326-39.581,6.921-52.013
				c6.539-5.003,14.372-7.642,22.468-7.642c1.649,0,3.309,0.109,4.971,0.33c9.824,1.308,18.55,6.362,24.572,14.232
				C160.896,113.485,163.493,123.23,162.185,133.054z"/>
		</g>
	</g>
	<g>
		<g>
			<path class="st4" d="M142.688,125.016c-3.617-4.728-8.349-5.688-16.288-3.112c-5.751,1.736-8.434,2.04-9.76,0.306
				c-1.125-1.47-1.147-3.786,2.267-6.398c3.782-2.893,7.122-3.535,8.93-4.001l-3.018-7.101c-2.377,0.486-5.304,1.558-8.943,4.094
				l-3.537-4.623l-5.148,3.939l3.818,4.99c-4.776,5.404-5.26,11.52-1.723,16.143c3.899,5.095,9.743,4.789,16.81,2.379
				c4.892-1.661,7.538-1.686,9.065,0.309c1.608,2.102,0.443,4.825-2.551,7.116c-3.415,2.613-7.358,3.88-10.488,4.361l3.126,7.351
				c2.88-0.372,7.018-2.039,10.658-4.573l3.818,4.99l5.148-3.939l-4.1-5.358C146.01,136.216,146.265,129.691,142.688,125.016z"/>
		</g>
	</g>
	<g>
		<g>
			<path class="st0" d="M142.707,141.947c4.683-5.722,5.174-12.613,1.172-17.843c-4.06-5.306-9.425-6.389-17.913-3.637
				c-5.127,1.548-7.409,1.782-8.136,0.83c-0.347-0.453-0.448-0.938-0.307-1.484c0.154-0.599,0.678-1.573,2.295-2.811
				c3.202-2.45,6.01-3.146,7.869-3.608l0.525-0.132c0.423-0.109,0.777-0.397,0.97-0.789c0.193-0.392,0.206-0.848,0.035-1.25
				l-3.018-7.101c-0.279-0.655-0.979-1.026-1.681-0.883c-2.742,0.56-5.471,1.72-8.307,3.534l-2.682-3.505
				c-0.503-0.659-1.444-0.783-2.103-0.28l-5.148,3.938c-0.316,0.242-0.523,0.6-0.575,0.993c-0.053,0.395,0.054,0.794,0.295,1.109
				l3.09,4.039c-4.422,5.623-4.83,12.083-0.995,17.094c4.942,6.462,12.475,4.938,18.484,2.888c5.263-1.785,6.663-1.152,7.391-0.2
				c1.466,1.918-1.367,4.322-2.271,5.014c-3.648,2.791-7.708,3.747-9.804,4.069c-0.458,0.07-0.857,0.348-1.083,0.753
				c-0.225,0.404-0.251,0.891-0.07,1.316l3.126,7.352c0.263,0.618,0.897,0.988,1.573,0.9c2.965-0.383,6.743-1.899,10.125-4.036
				l2.966,3.877c0.242,0.316,0.599,0.523,0.994,0.576c0.066,0.009,0.132,0.013,0.198,0.013c0.328,0,0.648-0.107,0.912-0.309
				l5.148-3.939c0.658-0.504,0.783-1.445,0.28-2.103L142.707,141.947z M140.003,149.082l-2.906-3.799
				c-0.488-0.638-1.39-0.777-2.048-0.32c-2.838,1.976-6.197,3.521-8.887,4.12l-1.934-4.548c2.521-0.587,6.04-1.799,9.293-4.288
				c3.787-2.897,4.897-6.516,2.831-9.219c-2.382-3.115-6.568-2.233-10.74-0.817c-7.617,2.598-12.144,2.039-15.134-1.87
				c-3.176-4.15-2.557-9.473,1.655-14.238c0.475-0.537,0.503-1.335,0.067-1.904l-2.907-3.799l2.766-2.116l2.625,3.432
				c0.487,0.637,1.39,0.778,2.049,0.319c2.502-1.743,4.87-2.918,7.202-3.568l1.838,4.324c-1.984,0.543-4.748,1.512-7.778,3.83
				c-1.845,1.412-2.981,2.907-3.377,4.445c-0.369,1.434-0.074,2.874,0.83,4.056c2.104,2.752,6.221,1.777,11.415,0.21
				c8.411-2.731,11.932-0.936,14.634,2.596c3.347,4.374,2.647,10.1-1.826,14.942c-0.495,0.535-0.532,1.35-0.089,1.929l3.188,4.168
				L140.003,149.082z"/>
		</g>
	</g>
	<g>
		<g>
			<path class="st3" d="M180.013,32.583c-3.599-4.704-10.333-5.6-15.037-2.001l-17.371,13.291l0.138,0.181
				c10.941,14.3,31.399,17.022,45.699,6.081L180.013,32.583z"/>
		</g>
	</g>
	<g>
		<g>
			<path class="st0" d="M194.633,49.224l-13.429-17.552c-4.097-5.354-11.786-6.377-17.141-2.281l-17.371,13.291
				c-0.658,0.504-0.783,1.444-0.28,2.103l0.138,0.181c5.535,7.234,13.555,11.88,22.584,13.082c1.527,0.203,3.052,0.304,4.568,0.304
				c7.441,0,14.641-2.426,20.651-7.024C195.011,50.822,195.137,49.881,194.633,49.224z M169.531,55.073
				c-7.813-1.04-14.797-4.907-19.803-10.936l16.16-12.364c4.041-3.091,9.844-2.319,12.935,1.721l12.496,16.333
				C184.945,54.243,177.269,56.1,169.531,55.073z"/>
		</g>
	</g>
	<g>
		<g>
			<path class="st3" d="M231.938,100.448l-13.429-17.552c-14.3,10.941-17.022,31.399-6.081,45.699l0.138,0.181l17.371-13.291
				C234.641,111.887,235.537,105.153,231.938,100.448z"/>
		</g>
	</g>
	<g>
		<g>
			<path class="st0" d="M233.129,99.537L219.7,81.986c-0.504-0.659-1.444-0.783-2.103-0.28c-7.234,5.535-11.88,13.555-13.082,22.583
				c-1.201,9.028,1.185,17.984,6.723,25.222l0.138,0.18c0.295,0.385,0.74,0.586,1.19,0.586c0.318,0,0.639-0.101,0.911-0.309
				l17.371-13.29C236.202,112.58,237.226,104.892,233.129,99.537z M229.025,114.295l-16.16,12.363
				c-4.509-6.409-6.415-14.162-5.376-21.974c1.03-7.736,4.832-14.661,10.761-19.656l12.496,16.331
				C233.838,105.4,233.065,111.203,229.025,114.295z"/>
		</g>
	</g>
	<g>
		<g>
			<path class="st3" d="M38.871,127.353l-0.138-0.181l-17.855,13.661c-4.704,3.599-5.6,10.333-2.001,15.038L32.3,173.416
				c0.164-0.115,0.323-0.236,0.49-0.363C47.09,162.111,49.812,141.653,38.871,127.353z"/>
		</g>
	</g>
	<g>
		<g>
			<path class="st0" d="M40.063,126.442l-0.138-0.181c-0.242-0.316-0.599-0.523-0.994-0.576c-0.396-0.055-0.794,0.054-1.109,0.296
				l-17.855,13.661c-2.593,1.984-4.259,4.859-4.689,8.098c-0.431,3.237,0.425,6.449,2.409,9.042l13.423,17.545
				c0.294,0.385,0.74,0.589,1.192,0.589c0.296,0,0.594-0.087,0.854-0.268c0.179-0.124,0.352-0.256,0.546-0.404
				C48.634,162.818,51.488,141.375,40.063,126.442z M32.577,171.311L20.068,154.96c-1.498-1.957-2.143-4.381-1.818-6.824
				s1.582-4.613,3.539-6.11l16.643-12.734C47.791,142.604,45.256,161.019,32.577,171.311z"/>
		</g>
	</g>
	<g>
		<g>
			<path class="st3" d="M103.556,211.896c-10.941-14.3-31.399-17.022-45.699-6.081c-0.166,0.127-0.325,0.249-0.479,0.377
				l13.423,17.544c3.599,4.704,10.334,5.6,15.038,2.001l17.855-13.661L103.556,211.896z"/>
		</g>
	</g>
	<g>
		<g>
			<path class="st0" d="M104.885,211.165l-0.138-0.181c-11.426-14.933-32.871-17.786-47.802-6.361
				c-0.185,0.142-0.361,0.277-0.532,0.421c-0.614,0.517-0.713,1.423-0.226,2.06l13.423,17.544c1.984,2.594,4.86,4.259,8.098,4.69
				c0.548,0.072,1.095,0.108,1.639,0.108c2.668,0,5.249-0.869,7.403-2.518l17.856-13.661
				C105.263,212.764,105.389,211.823,104.885,211.165z M84.927,224.546c-1.957,1.498-4.378,2.14-6.823,1.818
				c-2.443-0.325-4.614-1.582-6.111-3.539l-12.51-16.351c13.238-9.547,31.683-7.181,42.088,5.337L84.927,224.546z"/>
		</g>
	</g>
	<g>
		<g>
			<path class="st7" d="M231.675,224.05h-66.886c-4.228,0-7.655,3.427-7.655,7.656v0.288c0,4.228,3.427,7.656,7.655,7.656h66.886
				c4.228,0,7.656-3.427,7.656-7.656v-0.288C239.331,227.478,235.904,224.05,231.675,224.05z"/>
		</g>
	</g>
	<g>
		<g>
			<path class="st0" d="M231.675,222.55h-66.886c-5.048,0-9.155,4.107-9.155,9.156v0.288c0,5.048,4.107,9.155,9.155,9.155H176.3
				c0.829,0,1.5-0.672,1.5-1.5s-0.671-1.5-1.5-1.5h-11.511c-3.394,0-6.155-2.762-6.155-6.155v-0.288
				c0-3.395,2.761-6.156,6.155-6.156h66.886c3.395,0,6.156,2.762,6.156,6.156v0.288c0,3.394-2.761,6.155-6.156,6.155h-41.653
				c-0.829,0-1.5,0.672-1.5,1.5s0.671,1.5,1.5,1.5h41.653c5.048,0,9.156-4.107,9.156-9.155v-0.288
				C240.831,226.657,236.724,222.55,231.675,222.55z"/>
		</g>
	</g>
	<g>
		<g>
			<path class="st7" d="M231.675,208.451h-66.886c-4.228,0-7.655,3.427-7.655,7.656v0.289c0,4.228,3.427,7.656,7.655,7.656h66.886
				c4.228,0,7.655-3.428,7.655-7.656v-0.289C239.331,211.878,235.903,208.451,231.675,208.451z"/>
		</g>
	</g>
	<g>
		<g>
			<path class="st0" d="M231.675,206.951h-66.886c-5.048,0-9.155,4.107-9.155,9.155v0.288c0,5.048,4.107,9.155,9.155,9.155h66.886
				c5.048,0,9.156-4.107,9.156-9.155v-0.288C240.831,211.059,236.724,206.951,231.675,206.951z M237.831,216.395
				c0,3.394-2.761,6.155-6.156,6.155h-66.886c-3.394,0-6.155-2.762-6.155-6.155v-0.288c0-3.394,2.761-6.155,6.155-6.155h66.886
				c3.395,0,6.156,2.762,6.156,6.155V216.395z"/>
		</g>
	</g>
	<g>
		<g>
			<path class="st7" d="M231.675,192.851h-66.886c-4.228,0-7.655,3.427-7.655,7.656v0.289c0,4.228,3.427,7.655,7.655,7.655h66.886
				c4.228,0,7.655-3.427,7.655-7.655v-0.289C239.331,196.279,235.903,192.851,231.675,192.851z"/>
		</g>
	</g>
	<g>
		<g>
			<path class="st0" d="M231.675,191.352h-66.886c-5.048,0-9.155,4.107-9.155,9.155v0.288c0,5.049,4.107,9.156,9.155,9.156h66.886
				c5.048,0,9.156-4.107,9.156-9.156v-0.288C240.831,195.459,236.724,191.352,231.675,191.352z M237.831,200.795
				c0,3.395-2.761,6.156-6.156,6.156h-66.886c-3.394,0-6.155-2.762-6.155-6.156v-0.288c0-3.394,2.761-6.155,6.155-6.155h66.886
				c3.395,0,6.156,2.762,6.156,6.155V200.795z"/>
		</g>
	</g>
	<g>
		<g>
			
				<ellipse transform="matrix(0.3827 -0.9239 0.9239 0.3827 -17.9691 276.9159)" class="st7" cx="198.232" cy="151.904" rx="40.946" ry="40.946"/>
		</g>
	</g>
	<g>
		<g>
			<path class="st0" d="M198.232,109.458c-23.405,0-42.446,19.041-42.446,42.446s19.041,42.446,42.446,42.446
				c23.405,0,42.446-19.041,42.446-42.446S221.637,109.458,198.232,109.458z M198.232,191.351
				c-21.751,0-39.446-17.695-39.446-39.446s17.695-39.446,39.446-39.446c21.75,0,39.446,17.695,39.446,39.446
				S219.983,191.351,198.232,191.351z"/>
		</g>
	</g>
	<g>
		<g>
			<path class="st4" d="M203.101,147.274c-5.964-2.244-8.419-3.718-8.419-6.033c0-1.964,1.473-3.929,6.034-3.929
				c5.051,0,8.278,1.613,10.102,2.385l2.035-7.927c-2.316-1.123-5.473-2.106-10.173-2.316v-6.174h-6.875v6.665
				c-7.507,1.473-11.856,6.314-11.856,12.488c0,6.806,5.121,10.314,12.628,12.839c5.192,1.754,7.437,3.439,7.437,6.103
				c0,2.807-2.737,4.35-6.735,4.35c-4.561,0-8.699-1.473-11.646-3.086l-2.105,8.208c2.666,1.543,7.226,2.806,11.926,3.017v6.665
				h6.875v-7.156c8.068-1.402,12.488-6.734,12.488-12.979C214.817,154.08,211.448,150.221,203.101,147.274z"/>
		</g>
	</g>
	<g>
		<g>
			<path class="st0" d="M203.629,145.869c-5.429-2.043-7.448-3.298-7.448-4.629c0-2.112,2.841-2.428,4.534-2.428
				c4.297,0,7.124,1.228,8.994,2.04l0.523,0.226c0.403,0.172,0.859,0.157,1.25-0.036c0.392-0.194,0.679-0.549,0.788-0.972
				l2.035-7.927c0.177-0.691-0.157-1.411-0.799-1.723c-2.683-1.301-5.745-2.082-9.327-2.374v-4.767c0-0.828-0.671-1.5-1.5-1.5
				h-6.875c-0.829,0-1.5,0.672-1.5,1.5v5.465c-7.348,1.86-11.856,7.018-11.856,13.688c0,8.569,7.294,12.123,13.648,14.26
				c5.325,1.799,6.417,3.173,6.417,4.682c0,2.645-4.007,2.851-5.235,2.851c-4.892,0-8.945-1.818-10.926-2.901
				c-0.407-0.224-0.893-0.245-1.317-0.061s-0.741,0.555-0.856,1.003l-2.105,8.207c-0.167,0.651,0.12,1.334,0.702,1.671
				c2.752,1.594,6.934,2.751,11.178,3.122v5.262c0,0.828,0.671,1.5,1.5,1.5h6.876c0.829,0,1.5-0.672,1.5-1.5v-5.931
				c7.63-1.776,12.488-7.243,12.488-14.204C216.316,153.353,212.513,149.006,203.629,145.869z M202.071,171.895
				c-0.719,0.125-1.243,0.748-1.243,1.478v5.656h-3.876v-5.165c0-0.803-0.631-1.463-1.433-1.498
				c-3.707-0.167-7.579-1.047-10.245-2.299l1.348-5.255c2.493,1.138,6.267,2.414,10.654,2.414c5.08,0,8.235-2.242,8.235-5.851
				c0-4.102-4.064-6.04-8.458-7.524c-8.135-2.736-11.606-6.151-11.606-11.417c0-5.591,3.979-9.709,10.645-11.017
				c0.704-0.138,1.211-0.755,1.211-1.472v-5.165h3.875v4.675c0,0.803,0.632,1.463,1.434,1.498c3.274,0.146,6.06,0.694,8.471,1.672
				l-1.285,5.006c-2.018-0.826-4.989-1.818-9.084-1.818c-6.991,0-7.534,4.154-7.534,5.428c0,3.623,3.893,5.368,9.42,7.447
				c7.711,2.723,10.715,6.005,10.715,11.706C213.316,166.282,209.007,170.688,202.071,171.895z"/>
		</g>
	</g>
	<g>
		<g>
			<path class="st25" d="M231.671,225.55h-16c3.4,0,6.16,2.76,6.16,6.16v0.28c0,3.4-2.76,6.16-6.16,6.16h16
				c3.4,0,6.16-2.76,6.16-6.16v-0.28C237.831,228.31,235.071,225.55,231.671,225.55z"/>
		</g>
	</g>
	<g>
		<g>
			<path class="st25" d="M231.671,209.95h-16c3.4,0,6.16,2.76,6.16,6.16v0.28c0,3.4-2.76,6.16-6.16,6.16h16
				c3.4,0,6.16-2.76,6.16-6.16v-0.28C237.831,212.71,235.071,209.95,231.671,209.95z"/>
		</g>
	</g>
	<g>
		<g>
			<path class="st25" d="M231.671,194.35h-16c3.4,0,6.16,2.76,6.16,6.16v0.29c0,3.39-2.76,6.15-6.16,6.15h16
				c3.4,0,6.16-2.76,6.16-6.15v-0.29C237.831,197.11,235.071,194.35,231.671,194.35z"/>
		</g>
	</g>
	<g>
		<g>
			<path class="st25" d="M198.231,112.46c-2.74,0-5.41,0.28-8,0.81c17.93,3.71,31.45,19.62,31.45,38.63
				c0,19.02-13.52,34.93-31.45,38.64c2.59,0.53,5.26,0.81,8,0.81c21.75,0,39.45-17.69,39.45-39.45
				C237.681,130.15,219.981,112.46,198.231,112.46z"/>
		</g>
	</g>
</g>
</svg>
