<?xml version="1.0" encoding="utf-8"?>
<!-- Generator: Adobe Illustrator 22.0.1, SVG Export Plug-In . SVG Version: 6.00 Build 0)  -->
<svg version="1.1" id="Layer_1" xmlns="http://www.w3.org/2000/svg" xmlns:xlink="http://www.w3.org/1999/xlink" x="0px" y="0px"
	 viewBox="0 0 256 256" style="enable-background:new 0 0 256 256;" xml:space="preserve">
<style type="text/css">
	.st0{fill:#3A312A;}
	.st1{fill:#8AC6DD;}
	.st2{fill:#F16C7A;}
	.st3{fill:#D7E057;}
	.st4{fill:#87796F;}
	.st5{fill:#FCE8CB;}
	.st6{fill:#DECAAD;}
	.st7{fill:#D6DF58;}
	.st8{fill:#FAE6CA;}
	.st9{fill:#DDC9AC;}
	.st10{fill:#D5DE58;}
	.st11{fill:#ED6E7A;}
	.st12{fill:#8AC5DC;}
	.st13{fill:#6CA8BF;}
	.st14{fill:#695B51;}
	.st15{fill:#F8E4C8;}
	.st16{fill:#EF6D7A;}
	.st17{fill-rule:evenodd;clip-rule:evenodd;fill:#F8E4C8;}
	.st18{fill:#89C4DB;}
	.st19{fill:#F59689;}
	.st20{fill:#D34E5C;}
	.st21{fill:#F7E3C7;}
	.st22{fill:#8AC3DA;}
	.st23{fill-rule:evenodd;clip-rule:evenodd;fill:#F7E3C7;}
	.st24{fill-rule:evenodd;clip-rule:evenodd;fill:#87796F;}
	.st25{fill:#B9C239;}
	.st26{fill:#D4DB56;}
	.st27{fill-rule:evenodd;clip-rule:evenodd;fill:#F16C7A;}
	.st28{fill-rule:evenodd;clip-rule:evenodd;fill:#F6E2C6;}
	.st29{fill:#F6E2C6;}
	.st30{fill-rule:evenodd;clip-rule:evenodd;fill:#FAE6CA;}
	.st31{fill:#B8C136;}
</style>
<g>
	<g>
		<g>
			<path class="st3" d="M47.411,26.125c-0.974,11.564-13.024,13.39-13.024,13.39c10.347,0.487,12.925,14.059,12.925,14.059
				c0.221-9.677,13.321-14.202,13.321-14.202C50.819,38.785,47.411,26.125,47.411,26.125z"/>
		</g>
	</g>
	<g>
		<g>
			<path class="st0" d="M60.722,37.875c-8.604-0.515-11.832-12.024-11.863-12.141c-0.191-0.702-0.853-1.164-1.583-1.102
				c-0.725,0.066-1.298,0.642-1.359,1.367c-0.86,10.215-11.313,11.963-11.754,12.031c-0.763,0.116-1.313,0.791-1.273,1.561
				c0.04,0.771,0.657,1.385,1.427,1.421c9.028,0.426,11.499,12.719,11.523,12.844c0.137,0.711,0.759,1.217,1.472,1.217
				c0.042,0,0.084-0.002,0.126-0.005c0.764-0.064,1.357-0.693,1.375-1.46c0.194-8.509,12.191-12.777,12.313-12.819
				c0.675-0.234,1.092-0.914,0.994-1.622C62.02,38.458,61.436,37.917,60.722,37.875z M47.157,48.221
				c-1.356-3.131-3.709-6.908-7.587-8.877c2.931-1.404,6.409-3.913,8.202-8.272c1.551,3.071,4.2,6.88,8.334,8.723
				C53.098,41.434,49.183,44.199,47.157,48.221z"/>
		</g>
	</g>
	<g>
		<g>
			<path class="st3" d="M25.712,43.106c-0.689,8.179-9.212,9.471-9.212,9.471c7.318,0.344,9.142,9.944,9.142,9.944
				c0.156-6.844,9.422-10.045,9.422-10.045C28.123,52.06,25.712,43.106,25.712,43.106z"/>
		</g>
	</g>
	<g>
		<g>
			<path class="st0" d="M35.154,50.979c-5.766-0.345-7.972-8.186-7.994-8.265c-0.19-0.702-0.851-1.175-1.582-1.102
				c-0.726,0.065-1.299,0.643-1.36,1.368c-0.579,6.87-7.646,8.065-7.942,8.112c-0.763,0.116-1.313,0.791-1.273,1.561
				c0.04,0.771,0.657,1.385,1.427,1.421c6.036,0.284,7.724,8.645,7.739,8.727c0.135,0.712,0.759,1.22,1.472,1.22
				c0.042,0,0.083-0.002,0.125-0.005c0.765-0.063,1.358-0.693,1.376-1.461c0.13-5.708,8.332-8.633,8.413-8.661
				c0.677-0.234,1.094-0.913,0.996-1.622C36.453,51.563,35.869,51.021,35.154,50.979z M25.569,57.772
				c-0.924-1.885-2.34-3.947-4.447-5.279c1.855-1.041,3.697-2.63,4.87-4.916c1.057,1.874,2.654,3.954,4.941,5.224
				C29.084,53.901,26.946,55.541,25.569,57.772z"/>
		</g>
	</g>
	<g>
		<g>
			<path class="st3" d="M25.712,16.448c-0.689,8.179-9.212,9.471-9.212,9.471c7.318,0.344,9.142,9.944,9.142,9.944
				c0.156-6.844,9.422-10.045,9.422-10.045C28.123,25.402,25.712,16.448,25.712,16.448z"/>
		</g>
	</g>
	<g>
		<g>
			<path class="st0" d="M35.154,24.321c-5.767-0.346-7.973-8.187-7.994-8.266c-0.19-0.702-0.851-1.167-1.582-1.102
				c-0.726,0.065-1.299,0.643-1.36,1.368c-0.579,6.871-7.646,8.066-7.942,8.113c-0.763,0.116-1.313,0.791-1.273,1.561
				c0.04,0.771,0.657,1.385,1.427,1.421c6.036,0.284,7.724,8.645,7.739,8.727c0.135,0.712,0.759,1.22,1.472,1.22
				c0.042,0,0.083-0.002,0.125-0.005c0.765-0.063,1.358-0.693,1.376-1.461c0.13-5.709,8.331-8.633,8.413-8.661
				c0.676-0.233,1.094-0.913,0.996-1.622C36.453,24.905,35.869,24.364,35.154,24.321z M25.569,31.115
				c-0.924-1.886-2.34-3.947-4.447-5.279c1.856-1.041,3.697-2.63,4.871-4.917c1.057,1.874,2.655,3.955,4.941,5.225
				C29.084,27.244,26.945,28.883,25.569,31.115z"/>
		</g>
	</g>
	<g>
		<g>
			<rect x="15.5" y="70.562" class="st2" width="71.114" height="168.99"/>
		</g>
	</g>
	<g>
		<g>
			<path class="st0" d="M86.614,69.062H15.5c-0.829,0-1.5,0.672-1.5,1.5v49.736c0,0.828,0.671,1.5,1.5,1.5s1.5-0.672,1.5-1.5V72.062
				h68.114v165.99H17v-103.56c0-0.828-0.671-1.5-1.5-1.5s-1.5,0.672-1.5,1.5v105.06c0,0.828,0.671,1.5,1.5,1.5h71.114
				c0.829,0,1.5-0.672,1.5-1.5V70.562C88.114,69.733,87.442,69.062,86.614,69.062z"/>
		</g>
	</g>
	<g>
		<g>
			<rect x="86.614" y="16.562" class="st3" width="100.386" height="222.99"/>
		</g>
	</g>
	<g>
		<g>
			<path class="st0" d="M187,15.062h-24.981c-0.829,0-1.5,0.672-1.5,1.5s0.671,1.5,1.5,1.5H185.5v219.99H88.114V18.062h60.202
				c0.829,0,1.5-0.672,1.5-1.5s-0.671-1.5-1.5-1.5H86.614c-0.829,0-1.5,0.672-1.5,1.5v222.99c0,0.828,0.671,1.5,1.5,1.5H187
				c0.829,0,1.5-0.672,1.5-1.5V16.562C188.5,15.733,187.829,15.062,187,15.062z"/>
		</g>
	</g>
	<g>
		<g>
			<polygon class="st5" points="187,28.562 187,239.552 239,239.552 240.5,73.562 			"/>
		</g>
	</g>
	<g>
		<g>
			<path class="st0" d="M241.465,72.414l-53.5-45c-0.446-0.376-1.069-0.458-1.599-0.212c-0.529,0.246-0.867,0.776-0.867,1.359
				v210.99c0,0.828,0.671,1.5,1.5,1.5h52c0.823,0,1.493-0.663,1.5-1.486l1.5-165.99C242.004,73.128,241.808,72.702,241.465,72.414z
				 M237.514,238.052H188.5V31.783l50.494,42.472L237.514,238.052z"/>
		</g>
	</g>
	<g>
		<g>
			<path class="st4" d="M111.497,34.199h-7.918c-1.255,0-2.272,1.017-2.272,2.271v183.172c0,1.254,1.017,2.271,2.271,2.271h7.918
				c1.255,0,2.271-1.017,2.271-2.271V36.471C113.769,35.216,112.752,34.199,111.497,34.199z"/>
		</g>
	</g>
	<g>
		<g>
			<path class="st0" d="M111.497,32.699h-7.918c-2.08,0-3.771,1.691-3.771,3.771v183.172c0,2.08,1.692,3.771,3.771,3.771h7.918
				c2.08,0,3.772-1.691,3.772-3.771V36.471C115.269,34.391,113.577,32.699,111.497,32.699z M112.269,219.643
				c0,0.426-0.346,0.771-0.772,0.771h-7.918c-0.425,0-0.771-0.346-0.771-0.771V36.471c0-0.426,0.346-0.771,0.771-0.771h7.918
				c0.425,0,0.772,0.346,0.772,0.771V219.643z"/>
		</g>
	</g>
	<g>
		<g>
			<path class="st4" d="M111.497,34.199h-7.918c-1.255,0-2.272,1.017-2.272,2.271v183.172c0,1.254,1.017,2.271,2.271,2.271h7.918
				c1.255,0,2.271-1.017,2.271-2.271V36.471C113.769,35.216,112.752,34.199,111.497,34.199z"/>
		</g>
	</g>
	<g>
		<g>
			<path class="st0" d="M111.497,32.699h-7.918c-2.08,0-3.771,1.691-3.771,3.771v183.172c0,2.08,1.692,3.771,3.771,3.771h7.918
				c2.08,0,3.772-1.691,3.772-3.771V36.471C115.269,34.391,113.577,32.699,111.497,32.699z M112.269,219.643
				c0,0.426-0.346,0.771-0.772,0.771h-7.918c-0.425,0-0.771-0.346-0.771-0.771V36.471c0-0.426,0.346-0.771,0.771-0.771h7.918
				c0.425,0,0.772,0.346,0.772,0.771V219.643z"/>
		</g>
	</g>
	<g>
		<g>
			<path class="st4" d="M140.497,34.199h-7.918c-1.255,0-2.272,1.017-2.272,2.271v183.172c0,1.254,1.017,2.271,2.271,2.271h7.918
				c1.255,0,2.271-1.017,2.271-2.271V36.471C142.769,35.216,141.752,34.199,140.497,34.199z"/>
		</g>
	</g>
	<g>
		<g>
			<path class="st0" d="M140.497,32.699h-7.918c-2.08,0-3.771,1.691-3.771,3.771v183.172c0,2.08,1.692,3.771,3.771,3.771h7.918
				c2.08,0,3.772-1.691,3.772-3.771V36.471C144.269,34.391,142.577,32.699,140.497,32.699z M141.269,219.643
				c0,0.426-0.346,0.771-0.772,0.771h-7.918c-0.425,0-0.771-0.346-0.771-0.771V36.471c0-0.426,0.346-0.771,0.771-0.771h7.918
				c0.425,0,0.772,0.346,0.772,0.771V219.643z"/>
		</g>
	</g>
	<g>
		<g>
			<path class="st4" d="M169.497,34.199h-7.918c-1.255,0-2.272,1.017-2.272,2.271v183.172c0,1.254,1.017,2.271,2.271,2.271h7.918
				c1.255,0,2.271-1.017,2.271-2.271V36.471C171.769,35.216,170.752,34.199,169.497,34.199z"/>
		</g>
	</g>
	<g>
		<g>
			<path class="st0" d="M169.497,32.699h-7.918c-2.08,0-3.771,1.691-3.771,3.771v183.172c0,2.08,1.692,3.771,3.771,3.771h7.918
				c2.08,0,3.772-1.691,3.772-3.771V36.471C173.269,34.391,171.577,32.699,169.497,32.699z M170.269,219.643
				c0,0.426-0.346,0.771-0.772,0.771h-7.918c-0.425,0-0.771-0.346-0.771-0.771V36.471c0-0.426,0.346-0.771,0.771-0.771h7.918
				c0.425,0,0.772,0.346,0.772,0.771V219.643z"/>
		</g>
	</g>
	<g>
		<g>
			<path class="st1" d="M62.662,93.421h-23.21c-1.654,0-2.994,1.341-2.994,2.994v23.21c0,1.654,1.341,2.994,2.994,2.994h23.21
				c1.654,0,2.994-1.341,2.994-2.994v-23.21C65.656,94.761,64.316,93.421,62.662,93.421z"/>
		</g>
	</g>
	<g>
		<g>
			<path class="st0" d="M62.662,91.921h-23.21c-2.478,0-4.494,2.016-4.494,4.494v23.21c0,2.479,2.016,4.494,4.494,4.494h23.21
				c2.478,0,4.494-2.016,4.494-4.494v-23.21C67.156,93.937,65.14,91.921,62.662,91.921z M64.156,119.625
				c0,0.824-0.671,1.494-1.494,1.494h-23.21c-0.824,0-1.494-0.67-1.494-1.494v-23.21c0-0.824,0.67-1.494,1.494-1.494h23.21
				c0.824,0,1.494,0.67,1.494,1.494V119.625z"/>
		</g>
	</g>
	<g>
		<g>
			<path class="st1" d="M62.662,141.199h-23.21c-1.654,0-2.994,1.341-2.994,2.994v23.21c0,1.654,1.341,2.994,2.994,2.994h23.21
				c1.654,0,2.994-1.341,2.994-2.994v-23.21C65.656,142.54,64.316,141.199,62.662,141.199z"/>
		</g>
	</g>
	<g>
		<g>
			<path class="st0" d="M62.662,139.699h-23.21c-2.478,0-4.494,2.016-4.494,4.494v23.21c0,2.479,2.016,4.494,4.494,4.494h23.21
				c2.478,0,4.494-2.016,4.494-4.494v-23.21C67.156,141.715,65.14,139.699,62.662,139.699z M64.156,167.403
				c0,0.824-0.671,1.494-1.494,1.494h-23.21c-0.824,0-1.494-0.67-1.494-1.494v-23.21c0-0.824,0.67-1.494,1.494-1.494h23.21
				c0.824,0,1.494,0.67,1.494,1.494V167.403z"/>
		</g>
	</g>
	<g>
		<g>
			<path class="st1" d="M62.662,188.979h-23.21c-1.654,0-2.994,1.341-2.994,2.994v23.21c0,1.653,1.341,2.994,2.994,2.994h23.21
				c1.654,0,2.994-1.341,2.994-2.994v-23.21C65.656,190.319,64.316,188.979,62.662,188.979z"/>
		</g>
	</g>
	<g>
		<g>
			<path class="st0" d="M62.662,187.479h-23.21c-2.478,0-4.494,2.016-4.494,4.494v23.21c0,2.479,2.016,4.494,4.494,4.494h23.21
				c2.478,0,4.494-2.016,4.494-4.494v-23.21C67.156,189.494,65.14,187.479,62.662,187.479z M64.156,215.183
				c0,0.824-0.671,1.494-1.494,1.494h-23.21c-0.824,0-1.494-0.67-1.494-1.494v-23.21c0-0.824,0.67-1.494,1.494-1.494h23.21
				c0.824,0,1.494,0.67,1.494,1.494V215.183z"/>
		</g>
	</g>
	<g>
		<g>
			<path class="st1" d="M164.039,99.828c-0.63-0.533-1.556-0.533-2.186,0l-63.514,53.871v85.853h129.213v-85.853L164.039,99.828z"/>
		</g>
	</g>
	<g>
		<g>
			<path class="st0" d="M228.522,152.556l-63.514-53.871c-1.195-1.014-2.93-1.014-4.126,0l-63.514,53.871
				c-0.336,0.284-0.53,0.703-0.53,1.144v85.853c0,0.828,0.671,1.5,1.5,1.5h129.213c0.829,0,1.5-0.672,1.5-1.5v-85.853
				C229.052,153.259,228.858,152.84,228.522,152.556z M226.052,238.052H99.839v-83.658l62.984-53.422
				c0.07-0.059,0.175-0.059,0.245,0l62.984,53.422V238.052z"/>
		</g>
	</g>
	<g>
		<g>
			<path class="st2" d="M236.911,157.022l-69.964-59.344c-2.319-1.963-5.684-1.964-8.005,0.002l-24.647,20.906l-6.43,5.454
				L88.98,157.022c-1.895,1.608-2.128,4.448-0.52,6.343c1.608,1.896,4.448,2.127,6.343,0.52l68.143-57.799l68.143,57.799
				c0.846,0.718,1.88,1.069,2.909,1.069c1.276,0,2.543-0.54,3.434-1.589C239.039,161.47,238.806,158.63,236.911,157.022z"/>
		</g>
	</g>
	<g>
		<g>
			<path class="st0" d="M239.979,159.963c-0.131-1.597-0.876-3.048-2.098-4.084l-69.965-59.345c-2.881-2.44-7.063-2.439-9.945,0.003
				l-31.078,26.36L88.01,155.879c-1.222,1.036-1.967,2.486-2.099,4.084c-0.131,1.598,0.368,3.15,1.404,4.371
				c1.037,1.224,2.488,1.969,4.086,2.1c0.167,0.014,0.333,0.021,0.499,0.021c1.418,0,2.778-0.497,3.872-1.426l67.172-56.976
				l67.172,56.977c1.083,0.918,2.461,1.424,3.879,1.424c1.768,0,3.436-0.772,4.577-2.118
				C239.612,163.113,240.111,161.561,239.979,159.963z M236.287,162.395c-1.027,1.212-3.009,1.379-4.229,0.347l-68.143-57.799
				c-0.56-0.475-1.381-0.475-1.94,0l-68.143,57.799c-0.611,0.519-1.386,0.771-2.187,0.702c-0.799-0.065-1.524-0.438-2.043-1.05
				c-0.518-0.61-0.767-1.387-0.702-2.186c0.065-0.798,0.438-1.523,1.049-2.042l38.884-32.981l31.077-26.359
				c1.758-1.49,4.309-1.49,6.066-0.003l69.964,59.344c0.611,0.519,0.983,1.244,1.049,2.042
				C237.055,161.007,236.806,161.783,236.287,162.395z"/>
		</g>
	</g>
	<g>
		<g>
			<circle class="st3" cx="162.946" cy="185.384" r="37.685"/>
		</g>
	</g>
	<g>
		<g>
			<path class="st0" d="M162.946,146.199c-21.607,0-39.185,17.578-39.185,39.186c0,21.606,17.579,39.185,39.185,39.185
				c21.607,0,39.185-17.578,39.185-39.185C202.131,163.777,184.553,146.199,162.946,146.199z M162.946,221.569
				c-19.953,0-36.185-16.232-36.185-36.185c0-19.953,16.233-36.186,36.185-36.186c19.953,0,36.185,16.232,36.185,36.186
				C199.131,205.337,182.898,221.569,162.946,221.569z"/>
		</g>
	</g>
	<g>
		<g>
			<path class="st4" d="M167.426,181.123c-5.489-2.065-7.749-3.421-7.749-5.553c0-1.807,1.356-3.616,5.553-3.616
				c4.648,0,7.619,1.485,9.298,2.195l1.873-7.296c-2.131-1.033-5.037-1.938-9.363-2.131v-5.683h-6.328v6.134
				c-6.909,1.356-10.912,5.811-10.912,11.494c0,6.264,4.714,9.493,11.622,11.817c4.778,1.615,6.844,3.165,6.844,5.617
				c0,2.584-2.519,4.004-6.199,4.004c-4.198,0-8.007-1.356-10.719-2.841l-1.937,7.554c2.454,1.42,6.651,2.583,10.976,2.777v6.134
				h6.328v-6.586c7.426-1.291,11.494-6.198,11.494-11.945C178.209,187.386,175.109,183.835,167.426,181.123z"/>
		</g>
	</g>
	<g>
		<g>
			<path class="st0" d="M167.955,179.719c-4.877-1.836-6.777-2.999-6.777-4.148c0-1.841,2.54-2.116,4.054-2.116
				c3.93,0,6.517,1.124,8.23,1.868l0.483,0.208c0.401,0.172,0.859,0.157,1.25-0.036c0.392-0.194,0.679-0.549,0.788-0.972
				l1.873-7.296c0.177-0.691-0.157-1.411-0.799-1.723c-2.456-1.19-5.253-1.91-8.517-2.188v-4.276c0-0.828-0.671-1.5-1.5-1.5h-6.328
				c-0.829,0-1.5,0.672-1.5,1.5v4.937c-6.765,1.745-10.912,6.521-10.912,12.691c0,7.963,6.757,11.258,12.642,13.237
				c5.119,1.729,5.825,3.039,5.825,4.196c0,2.383-3.914,2.504-4.699,2.504c-4.477,0-8.186-1.664-9.998-2.656
				c-0.406-0.224-0.893-0.245-1.317-0.061c-0.425,0.185-0.741,0.555-0.856,1.003l-1.937,7.554c-0.167,0.651,0.12,1.334,0.702,1.671
				c2.522,1.461,6.342,2.525,10.228,2.879v4.733c0,0.828,0.671,1.5,1.5,1.5h6.328c0.829,0,1.5-0.672,1.5-1.5v-5.363
				c7.026-1.669,11.494-6.729,11.494-13.168C179.709,186.658,176.185,182.624,167.955,179.719z M166.458,203.665
				c-0.719,0.125-1.243,0.748-1.243,1.478v5.086h-3.328v-4.634c0-0.803-0.631-1.463-1.433-1.498
				c-3.357-0.151-6.859-0.939-9.294-2.063l1.181-4.603c2.306,1.037,5.742,2.174,9.726,2.174c4.677,0,7.699-2.16,7.699-5.504
				c0-3.851-3.78-5.658-7.866-7.039c-7.43-2.499-10.601-5.608-10.601-10.395c0-5.084,3.627-8.83,9.701-10.022
				c0.704-0.138,1.211-0.755,1.211-1.472v-4.634h3.328v4.183c0,0.803,0.632,1.463,1.434,1.498c2.956,0.132,5.475,0.621,7.66,1.491
				l-1.122,4.374c-1.862-0.754-4.572-1.632-8.279-1.632c-5.201,0-7.054,2.643-7.054,5.116c0,3.403,3.779,5.097,8.75,6.967
				c8.119,2.866,9.782,6.334,9.782,10.66C176.709,198.556,172.782,202.566,166.458,203.665z"/>
		</g>
	</g>
	<g>
		<g>
			<path class="st6" d="M233.998,166.453c-1.418,0-2.796-0.506-3.88-1.424l-1.066-0.904v73.926h8.461l0.662-73.295
				C237.061,165.839,235.57,166.453,233.998,166.453z"/>
		</g>
	</g>
	<g>
		<g>
			<path class="st6" d="M188.5,31.782v13.46l32.56,27.387c1.222,1.028,1.921,2.548,1.907,4.144l-0.597,65.949l15.51,13.16
				c0.13,0.11,0.25,0.23,0.37,0.35l0.74-81.98L188.5,31.782z"/>
		</g>
	</g>
</g>
</svg>
