<?xml version="1.0" encoding="utf-8"?>
<!-- Generator: Adobe Illustrator 22.0.1, SVG Export Plug-In . SVG Version: 6.00 Build 0)  -->
<svg version="1.1" id="Layer_1" xmlns="http://www.w3.org/2000/svg" xmlns:xlink="http://www.w3.org/1999/xlink" x="0px" y="0px"
	 viewBox="0 0 256 256" style="enable-background:new 0 0 256 256;" xml:space="preserve">
<style type="text/css">
	.st0{fill:#3A312A;}
	.st1{fill:#8AC6DD;}
	.st2{fill:#F16C7A;}
	.st3{fill:#D7E057;}
	.st4{fill:#87796F;}
	.st5{fill:#FCE8CB;}
	.st6{fill:#DECAAD;}
	.st7{fill:#D6DF58;}
	.st8{fill:#FAE6CA;}
	.st9{fill:#DDC9AC;}
	.st10{fill:#D5DE58;}
	.st11{fill:#ED6E7A;}
	.st12{fill:#8AC5DC;}
	.st13{fill:#6CA8BF;}
	.st14{fill:#695B51;}
	.st15{fill:#F8E4C8;}
	.st16{fill:#EF6D7A;}
	.st17{fill-rule:evenodd;clip-rule:evenodd;fill:#F8E4C8;}
	.st18{fill:#89C4DB;}
	.st19{fill:#F59689;}
	.st20{fill:#D34E5C;}
	.st21{fill:#F7E3C7;}
	.st22{fill:#8AC3DA;}
	.st23{fill-rule:evenodd;clip-rule:evenodd;fill:#F7E3C7;}
	.st24{fill-rule:evenodd;clip-rule:evenodd;fill:#87796F;}
	.st25{fill:#B9C239;}
	.st26{fill:#D4DB56;}
	.st27{fill-rule:evenodd;clip-rule:evenodd;fill:#F16C7A;}
	.st28{fill-rule:evenodd;clip-rule:evenodd;fill:#F6E2C6;}
	.st29{fill:#F6E2C6;}
	.st30{fill-rule:evenodd;clip-rule:evenodd;fill:#FAE6CA;}
	.st31{fill:#B8C136;}
</style>
<g>
	<g>
		<g>
			<rect x="24" y="99.843" class="st5" width="208.031" height="130.609"/>
		</g>
	</g>
	<g>
		<g>
			<path class="st0" d="M232.031,98.343H24c-0.829,0-1.5,0.671-1.5,1.5v42.571c0,0.829,0.671,1.5,1.5,1.5s1.5-0.671,1.5-1.5v-41.071
				h205.031v127.609H25.5v-73.334c0-0.829-0.671-1.5-1.5-1.5s-1.5,0.671-1.5,1.5v74.834c0,0.829,0.671,1.5,1.5,1.5h208.031
				c0.828,0,1.5-0.671,1.5-1.5V99.843C233.531,99.014,232.859,98.343,232.031,98.343z"/>
		</g>
	</g>
	<g>
		<g>
			<path class="st3" d="M47.911,26.236c-0.974,11.564-13.024,13.39-13.024,13.39c10.347,0.487,12.925,14.059,12.925,14.059
				c0.221-9.677,13.321-14.202,13.321-14.202C51.319,38.895,47.911,26.236,47.911,26.236z"/>
		</g>
	</g>
	<g>
		<g>
			<path class="st0" d="M61.222,37.984c-8.604-0.514-11.832-12.024-11.863-12.14c-0.19-0.702-0.847-1.164-1.583-1.102
				c-0.725,0.066-1.298,0.642-1.359,1.367c-0.86,10.215-11.313,11.964-11.754,12.033c-0.763,0.115-1.314,0.79-1.273,1.561
				c0.04,0.77,0.657,1.384,1.428,1.421c9.028,0.425,11.498,12.718,11.522,12.842c0.137,0.711,0.759,1.217,1.472,1.217
				c0.042,0,0.084-0.001,0.126-0.005c0.764-0.064,1.357-0.693,1.374-1.459c0.194-8.509,12.191-12.777,12.313-12.819
				c0.675-0.235,1.092-0.915,0.994-1.623C62.52,38.568,61.936,38.027,61.222,37.984z M47.657,48.331
				c-1.357-3.13-3.709-6.907-7.587-8.876c2.931-1.405,6.409-3.913,8.202-8.273c1.551,3.071,4.2,6.88,8.334,8.722
				C53.598,41.543,49.683,44.31,47.657,48.331z"/>
		</g>
	</g>
	<g>
		<g>
			<path class="st3" d="M26.212,43.216C25.524,51.395,17,52.687,17,52.687c7.318,0.344,9.142,9.944,9.142,9.944
				c0.156-6.844,9.422-10.045,9.422-10.045C28.623,52.17,26.212,43.216,26.212,43.216z"/>
		</g>
	</g>
	<g>
		<g>
			<path class="st0" d="M35.654,51.088c-5.766-0.345-7.972-8.185-7.994-8.264c-0.19-0.702-0.853-1.167-1.582-1.102
				c-0.726,0.065-1.299,0.642-1.36,1.368c-0.579,6.87-7.646,8.066-7.942,8.113c-0.763,0.115-1.313,0.79-1.273,1.561
				c0.04,0.77,0.657,1.384,1.427,1.421c6.036,0.284,7.724,8.644,7.739,8.726c0.135,0.713,0.759,1.22,1.472,1.22
				c0.042,0,0.083-0.001,0.125-0.005c0.765-0.063,1.358-0.694,1.376-1.461c0.13-5.709,8.332-8.634,8.413-8.662
				c0.677-0.234,1.094-0.913,0.996-1.622C36.953,51.672,36.369,51.131,35.654,51.088z M26.069,57.883
				c-0.924-1.886-2.34-3.947-4.447-5.28c1.855-1.041,3.697-2.629,4.871-4.916c1.057,1.874,2.654,3.955,4.941,5.224
				C29.584,54.011,27.445,55.651,26.069,57.883z"/>
		</g>
	</g>
	<g>
		<g>
			<path class="st3" d="M26.212,16.559C25.524,24.738,17,26.029,17,26.029c7.318,0.344,9.142,9.944,9.142,9.944
				c0.156-6.845,9.422-10.045,9.422-10.045C28.623,25.513,26.212,16.559,26.212,16.559z"/>
		</g>
	</g>
	<g>
		<g>
			<path class="st0" d="M35.654,24.431c-5.767-0.345-7.973-8.186-7.994-8.265c-0.19-0.702-0.853-1.168-1.582-1.102
				c-0.726,0.065-1.299,0.642-1.36,1.368c-0.579,6.871-7.646,8.067-7.942,8.114c-0.763,0.115-1.313,0.79-1.273,1.561
				c0.04,0.77,0.657,1.384,1.428,1.421c6.035,0.284,7.723,8.644,7.739,8.726c0.135,0.713,0.759,1.22,1.472,1.22
				c0.042,0,0.083-0.001,0.125-0.005c0.765-0.063,1.358-0.694,1.376-1.461c0.13-5.709,8.331-8.634,8.413-8.662
				c0.676-0.234,1.094-0.913,0.996-1.622C36.953,25.015,36.369,24.474,35.654,24.431z M26.069,31.226
				c-0.924-1.885-2.34-3.947-4.447-5.28c1.856-1.041,3.697-2.63,4.871-4.916c1.057,1.874,2.655,3.954,4.941,5.224
				C29.584,27.354,27.445,28.993,26.069,31.226z"/>
		</g>
	</g>
	<g>
		<g>
			<polygon class="st4" points="202,56.016 54,56.016 24,99.843 232,99.843 			"/>
		</g>
	</g>
	<g>
		<g>
			<path class="st0" d="M233.238,98.996l-30-43.827c-0.28-0.409-0.743-0.653-1.238-0.653H78.851c-0.829,0-1.5,0.671-1.5,1.5
				s0.671,1.5,1.5,1.5h122.358l27.946,40.827H26.845l27.946-40.827h10.357c0.829,0,1.5-0.671,1.5-1.5s-0.671-1.5-1.5-1.5H54
				c-0.495,0-0.958,0.244-1.238,0.653l-30,43.827c-0.314,0.459-0.349,1.055-0.089,1.547c0.259,0.492,0.77,0.8,1.327,0.8h208
				c0.557,0,1.067-0.308,1.327-0.8C233.586,100.05,233.552,99.455,233.238,98.996z"/>
		</g>
	</g>
	<g>
		<g>
			<path class="st2" d="M128,180.952c-13.86,0-25.095,11.235-25.095,25.095v24.405h50.19v-24.405
				C153.095,192.188,141.86,180.952,128,180.952z"/>
		</g>
	</g>
	<g>
		<g>
			<path class="st0" d="M128,179.452c-14.665,0-26.595,11.93-26.595,26.595v24.405c0,0.829,0.671,1.5,1.5,1.5h50.19
				c0.828,0,1.5-0.671,1.5-1.5v-24.405C154.595,191.382,142.664,179.452,128,179.452z M151.595,228.952h-47.19v-22.905
				c0-13.01,10.585-23.595,23.595-23.595c13.01,0,23.595,10.584,23.595,23.595V228.952z"/>
		</g>
	</g>
	<g>
		<g>
			<path class="st0" d="M128,179.452c-0.829,0-1.5,0.671-1.5,1.5v49.5c0,0.829,0.671,1.5,1.5,1.5s1.5-0.671,1.5-1.5v-49.5
				C129.5,180.124,128.829,179.452,128,179.452z"/>
		</g>
	</g>
	<g>
		<g>
			<path class="st1" d="M68.506,116.672H52.494c-1.654,0-2.994,1.341-2.994,2.994v16.012c0,1.654,1.341,2.994,2.994,2.994h16.012
				c1.654,0,2.994-1.341,2.994-2.994v-16.012C71.5,118.012,70.159,116.672,68.506,116.672z"/>
		</g>
	</g>
	<g>
		<g>
			<path class="st0" d="M68.506,115.172H52.494c-2.478,0-4.494,2.016-4.494,4.494v16.012c0,2.478,2.016,4.494,4.494,4.494h16.012
				c2.478,0,4.494-2.016,4.494-4.494v-16.012C73,117.188,70.984,115.172,68.506,115.172z M70,135.678
				c0,0.824-0.67,1.494-1.494,1.494H52.494c-0.824,0-1.494-0.67-1.494-1.494v-16.012c0-0.824,0.67-1.494,1.494-1.494h16.012
				c0.824,0,1.494,0.67,1.494,1.494V135.678z"/>
		</g>
	</g>
	<g>
		<g>
			<path class="st1" d="M113.506,116.672H97.494c-1.654,0-2.994,1.341-2.994,2.994v16.012c0,1.654,1.34,2.994,2.994,2.994h16.012
				c1.654,0,2.994-1.341,2.994-2.994v-16.012C116.5,118.012,115.159,116.672,113.506,116.672z"/>
		</g>
	</g>
	<g>
		<g>
			<path class="st0" d="M113.506,115.172H97.494c-2.478,0-4.494,2.016-4.494,4.494v16.012c0,2.478,2.016,4.494,4.494,4.494h16.012
				c2.478,0,4.494-2.016,4.494-4.494v-16.012C118,117.188,115.984,115.172,113.506,115.172z M115,135.678
				c0,0.824-0.67,1.494-1.494,1.494H97.494c-0.824,0-1.494-0.67-1.494-1.494v-16.012c0-0.824,0.67-1.494,1.494-1.494h16.012
				c0.824,0,1.494,0.67,1.494,1.494V135.678z"/>
		</g>
	</g>
	<g>
		<g>
			<path class="st1" d="M158.506,116.672h-16.012c-1.654,0-2.994,1.341-2.994,2.994v16.012c0,1.654,1.34,2.994,2.994,2.994h16.012
				c1.654,0,2.994-1.341,2.994-2.994v-16.012C161.5,118.012,160.159,116.672,158.506,116.672z"/>
		</g>
	</g>
	<g>
		<g>
			<path class="st0" d="M158.506,115.172h-16.012c-2.479,0-4.494,2.016-4.494,4.494v16.012c0,2.478,2.016,4.494,4.494,4.494h16.012
				c2.479,0,4.494-2.016,4.494-4.494v-16.012C163,117.188,160.984,115.172,158.506,115.172z M160,135.678
				c0,0.824-0.67,1.494-1.494,1.494h-16.012c-0.824,0-1.494-0.67-1.494-1.494v-16.012c0-0.824,0.67-1.494,1.494-1.494h16.012
				c0.824,0,1.494,0.67,1.494,1.494V135.678z"/>
		</g>
	</g>
	<g>
		<g>
			<path class="st1" d="M203.506,116.672h-16.012c-1.654,0-2.994,1.341-2.994,2.994v16.012c0,1.654,1.34,2.994,2.994,2.994h16.012
				c1.654,0,2.994-1.341,2.994-2.994v-16.012C206.5,118.012,205.159,116.672,203.506,116.672z"/>
		</g>
	</g>
	<g>
		<g>
			<path class="st0" d="M203.506,115.172h-16.012c-2.479,0-4.494,2.016-4.494,4.494v16.012c0,2.478,2.016,4.494,4.494,4.494h16.012
				c2.479,0,4.494-2.016,4.494-4.494v-16.012C208,117.188,205.984,115.172,203.506,115.172z M205,135.678
				c0,0.824-0.67,1.494-1.494,1.494h-16.012c-0.824,0-1.494-0.67-1.494-1.494v-16.012c0-0.824,0.67-1.494,1.494-1.494h16.012
				c0.824,0,1.494,0.67,1.494,1.494V135.678z"/>
		</g>
	</g>
	<g>
		<g>
			<path class="st1" d="M68.506,152.672H52.494c-1.654,0-2.994,1.341-2.994,2.994v16.012c0,1.654,1.341,2.994,2.994,2.994h16.012
				c1.654,0,2.994-1.341,2.994-2.994v-16.012C71.5,154.012,70.159,152.672,68.506,152.672z"/>
		</g>
	</g>
	<g>
		<g>
			<path class="st0" d="M68.506,151.172H52.494c-2.478,0-4.494,2.016-4.494,4.494v16.012c0,2.478,2.016,4.494,4.494,4.494h16.012
				c2.478,0,4.494-2.016,4.494-4.494v-16.012C73,153.188,70.984,151.172,68.506,151.172z M70,171.678
				c0,0.824-0.67,1.494-1.494,1.494H52.494c-0.824,0-1.494-0.67-1.494-1.494v-16.012c0-0.824,0.67-1.494,1.494-1.494h16.012
				c0.824,0,1.494,0.67,1.494,1.494V171.678z"/>
		</g>
	</g>
	<g>
		<g>
			<path class="st1" d="M113.506,152.672H97.494c-1.654,0-2.994,1.341-2.994,2.994v16.012c0,1.654,1.34,2.994,2.994,2.994h16.012
				c1.654,0,2.994-1.341,2.994-2.994v-16.012C116.5,154.012,115.159,152.672,113.506,152.672z"/>
		</g>
	</g>
	<g>
		<g>
			<path class="st0" d="M113.506,151.172H97.494c-2.478,0-4.494,2.016-4.494,4.494v16.012c0,2.478,2.016,4.494,4.494,4.494h16.012
				c2.478,0,4.494-2.016,4.494-4.494v-16.012C118,153.188,115.984,151.172,113.506,151.172z M115,171.678
				c0,0.824-0.67,1.494-1.494,1.494H97.494c-0.824,0-1.494-0.67-1.494-1.494v-16.012c0-0.824,0.67-1.494,1.494-1.494h16.012
				c0.824,0,1.494,0.67,1.494,1.494V171.678z"/>
		</g>
	</g>
	<g>
		<g>
			<path class="st1" d="M158.506,152.672h-16.012c-1.654,0-2.994,1.341-2.994,2.994v16.012c0,1.654,1.34,2.994,2.994,2.994h16.012
				c1.654,0,2.994-1.341,2.994-2.994v-16.012C161.5,154.012,160.159,152.672,158.506,152.672z"/>
		</g>
	</g>
	<g>
		<g>
			<path class="st0" d="M158.506,151.172h-16.012c-2.479,0-4.494,2.016-4.494,4.494v16.012c0,2.478,2.016,4.494,4.494,4.494h16.012
				c2.479,0,4.494-2.016,4.494-4.494v-16.012C163,153.188,160.984,151.172,158.506,151.172z M160,171.678
				c0,0.824-0.67,1.494-1.494,1.494h-16.012c-0.824,0-1.494-0.67-1.494-1.494v-16.012c0-0.824,0.67-1.494,1.494-1.494h16.012
				c0.824,0,1.494,0.67,1.494,1.494V171.678z"/>
		</g>
	</g>
	<g>
		<g>
			<path class="st1" d="M203.506,152.672h-16.012c-1.654,0-2.994,1.341-2.994,2.994v16.012c0,1.654,1.34,2.994,2.994,2.994h16.012
				c1.654,0,2.994-1.341,2.994-2.994v-16.012C206.5,154.012,205.159,152.672,203.506,152.672z"/>
		</g>
	</g>
	<g>
		<g>
			<path class="st0" d="M203.506,151.172h-16.012c-2.479,0-4.494,2.016-4.494,4.494v16.012c0,2.478,2.016,4.494,4.494,4.494h16.012
				c2.479,0,4.494-2.016,4.494-4.494v-16.012C208,153.188,205.984,151.172,203.506,151.172z M205,171.678
				c0,0.824-0.67,1.494-1.494,1.494h-16.012c-0.824,0-1.494-0.67-1.494-1.494v-16.012c0-0.824,0.67-1.494,1.494-1.494h16.012
				c0.824,0,1.494,0.67,1.494,1.494V171.678z"/>
		</g>
	</g>
	<g>
		<g>
			<path class="st1" d="M68.506,188.672H52.494c-1.654,0-2.994,1.341-2.994,2.994v16.012c0,1.654,1.341,2.994,2.994,2.994h16.012
				c1.654,0,2.994-1.341,2.994-2.994v-16.012C71.5,190.012,70.159,188.672,68.506,188.672z"/>
		</g>
	</g>
	<g>
		<g>
			<path class="st0" d="M68.506,187.172H52.494c-2.478,0-4.494,2.016-4.494,4.494v16.012c0,2.478,2.016,4.494,4.494,4.494h16.012
				c2.478,0,4.494-2.016,4.494-4.494v-16.012C73,189.188,70.984,187.172,68.506,187.172z M70,207.678
				c0,0.824-0.67,1.494-1.494,1.494H52.494c-0.824,0-1.494-0.67-1.494-1.494v-16.012c0-0.824,0.67-1.494,1.494-1.494h16.012
				c0.824,0,1.494,0.67,1.494,1.494V207.678z"/>
		</g>
	</g>
	<g>
		<g>
			<path class="st1" d="M203.506,188.672h-16.012c-1.654,0-2.994,1.341-2.994,2.994v16.012c0,1.654,1.34,2.994,2.994,2.994h16.012
				c1.654,0,2.994-1.341,2.994-2.994v-16.012C206.5,190.012,205.159,188.672,203.506,188.672z"/>
		</g>
	</g>
	<g>
		<g>
			<path class="st0" d="M203.506,187.172h-16.012c-2.479,0-4.494,2.016-4.494,4.494v16.012c0,2.478,2.016,4.494,4.494,4.494h16.012
				c2.479,0,4.494-2.016,4.494-4.494v-16.012C208,189.188,205.984,187.172,203.506,187.172z M205,207.678
				c0,0.824-0.67,1.494-1.494,1.494h-16.012c-0.824,0-1.494-0.67-1.494-1.494v-16.012c0-0.824,0.67-1.494,1.494-1.494h16.012
				c0.824,0,1.494,0.67,1.494,1.494V207.678z"/>
		</g>
	</g>
	<g>
		<g>
			<rect x="16.5" y="230.452" class="st1" width="223" height="9.333"/>
		</g>
	</g>
	<g>
		<g>
			<path class="st0" d="M239.5,228.952h-223c-0.829,0-1.5,0.671-1.5,1.5v9.333c0,0.829,0.671,1.5,1.5,1.5h223
				c0.828,0,1.5-0.671,1.5-1.5v-9.333C241,229.624,240.328,228.952,239.5,228.952z M238,238.285H18v-6.333h220V238.285z"/>
		</g>
	</g>
	<g>
		<g>
			<rect x="223" y="231.956" class="st13" width="15" height="6.33"/>
		</g>
	</g>
	<g>
		<g>
			
				<ellipse transform="matrix(0.3827 -0.9239 0.9239 0.3827 30.7961 150.4764)" class="st3" cx="128" cy="52.193" rx="35.979" ry="35.978"/>
		</g>
	</g>
	<g>
		<g>
			<path class="st0" d="M128,14.715c-20.666,0-37.479,16.813-37.479,37.479S107.334,89.672,128,89.672
				c20.666,0,37.478-16.813,37.478-37.479S148.666,14.715,128,14.715z M128,86.672c-19.012,0-34.479-15.467-34.479-34.479
				S108.988,17.715,128,17.715c19.012,0,34.478,15.467,34.478,34.479S147.012,86.672,128,86.672z"/>
		</g>
	</g>
	<g>
		<g>
			<path class="st4" d="M131.431,48.15c-5.207-1.96-7.351-3.246-7.351-5.268c0-1.715,1.286-3.43,5.269-3.43
				c4.41,0,7.228,1.408,8.821,2.083l1.777-6.921c-2.022-0.98-4.779-1.839-8.883-2.022V27.2h-6.003v5.819
				c-6.555,1.287-10.353,5.513-10.353,10.905c0,5.943,4.472,9.006,11.026,11.21c4.533,1.532,6.494,3.002,6.494,5.329
				c0,2.451-2.389,3.799-5.881,3.799c-3.982,0-7.596-1.287-10.169-2.695l-1.838,7.167c2.328,1.347,6.31,2.45,10.414,2.634v5.819
				h6.003v-6.249c7.045-1.224,10.905-5.88,10.905-11.332C141.661,54.093,138.72,50.723,131.431,48.15z"/>
		</g>
	</g>
	<g>
		<g>
			<path class="st0" d="M131.959,46.747c-4.591-1.728-6.38-2.812-6.38-3.864c0-1.679,2.361-1.93,3.769-1.93
				c3.712,0,6.158,1.063,7.777,1.766l0.459,0.198c0.403,0.17,0.86,0.156,1.25-0.037c0.392-0.193,0.68-0.548,0.788-0.971l1.776-6.921
				c0.177-0.691-0.156-1.411-0.799-1.723c-2.319-1.125-4.96-1.809-8.036-2.077V27.2c0-0.829-0.672-1.5-1.5-1.5h-6.004
				c-0.829,0-1.5,0.671-1.5,1.5v4.624c-6.42,1.678-10.353,6.227-10.353,12.1c0,7.604,6.439,10.746,12.046,12.632
				c4.81,1.625,5.473,2.838,5.473,3.908c0,2.188-3.649,2.299-4.38,2.299c-4.23,0-7.736-1.573-9.449-2.511
				c-0.406-0.223-0.893-0.245-1.317-0.06c-0.425,0.185-0.741,0.555-0.856,1.003l-1.837,7.167c-0.167,0.651,0.12,1.334,0.702,1.671
				c2.388,1.382,5.993,2.392,9.665,2.735v4.42c0,0.829,0.671,1.5,1.5,1.5h6.003c0.828,0,1.5-0.671,1.5-1.5v-5.028
				c6.668-1.606,10.905-6.426,10.905-12.553C143.161,53.364,139.803,49.515,131.959,46.747z M130.499,69.46
				c-0.719,0.125-1.243,0.749-1.243,1.478v4.749h-3.003v-4.319c0-0.802-0.631-1.462-1.433-1.499
				c-3.148-0.141-6.431-0.875-8.731-1.922l1.081-4.216c2.194,0.977,5.43,2.032,9.175,2.032c4.484,0,7.38-2.08,7.38-5.299
				c0-3.702-3.611-5.432-7.515-6.75c-7.013-2.359-10.005-5.287-10.005-9.789c0-4.783,3.418-8.309,9.142-9.433
				c0.704-0.138,1.211-0.755,1.211-1.472V28.7h3.004v3.892c0,0.803,0.632,1.463,1.434,1.499c2.767,0.123,5.129,0.578,7.179,1.385
				l-1.026,3.998c-1.769-0.71-4.325-1.521-7.802-1.521c-4.99,0-6.769,2.547-6.769,4.93c0,3.278,3.607,4.897,8.352,6.683
				c7.66,2.704,9.229,5.969,9.229,10.041C140.161,64.648,136.459,68.425,130.499,69.46z"/>
		</g>
	</g>
	<g>
		<g>
			<rect x="214.53" y="101.342" class="st6" width="16" height="127.61"/>
		</g>
	</g>
	<g>
		<g>
			<polygon class="st14" points="201.21,57.512 185.21,57.512 213.16,98.342 229.16,98.342 			"/>
		</g>
	</g>
</g>
</svg>
