<?xml version="1.0" encoding="utf-8"?>
<!-- Generator: Adobe Illustrator 22.0.1, SVG Export Plug-In . SVG Version: 6.00 Build 0)  -->
<svg version="1.1" id="Layer_1" xmlns="http://www.w3.org/2000/svg" xmlns:xlink="http://www.w3.org/1999/xlink" x="0px" y="0px"
	 viewBox="0 0 256 256" style="enable-background:new 0 0 256 256;" xml:space="preserve">
<style type="text/css">
	.st0{fill:#3A312A;}
	.st1{fill:#8AC6DD;}
	.st2{fill:#F16C7A;}
	.st3{fill:#D7E057;}
	.st4{fill:#87796F;}
	.st5{fill:#FCE8CB;}
	.st6{fill:#DECAAD;}
	.st7{fill:#D6DF58;}
	.st8{fill:#FAE6CA;}
	.st9{fill:#DDC9AC;}
	.st10{fill:#D5DE58;}
	.st11{fill:#ED6E7A;}
	.st12{fill:#8AC5DC;}
	.st13{fill:#6CA8BF;}
	.st14{fill:#695B51;}
	.st15{fill:#F8E4C8;}
	.st16{fill:#EF6D7A;}
	.st17{fill-rule:evenodd;clip-rule:evenodd;fill:#F8E4C8;}
	.st18{fill:#89C4DB;}
	.st19{fill:#F59689;}
	.st20{fill:#D34E5C;}
	.st21{fill:#F7E3C7;}
	.st22{fill:#8AC3DA;}
	.st23{fill-rule:evenodd;clip-rule:evenodd;fill:#F7E3C7;}
	.st24{fill-rule:evenodd;clip-rule:evenodd;fill:#87796F;}
	.st25{fill:#B9C239;}
	.st26{fill:#D4DB56;}
	.st27{fill-rule:evenodd;clip-rule:evenodd;fill:#F16C7A;}
	.st28{fill-rule:evenodd;clip-rule:evenodd;fill:#F6E2C6;}
	.st29{fill:#F6E2C6;}
	.st30{fill-rule:evenodd;clip-rule:evenodd;fill:#FAE6CA;}
	.st31{fill:#B8C136;}
</style>
<g>
	<g>
		<g>
			<path class="st3" d="M48.045,26.294c-0.974,11.564-13.025,13.389-13.025,13.389c10.347,0.487,12.925,14.059,12.925,14.059
				c0.221-9.677,13.321-14.202,13.321-14.202C51.453,38.954,48.045,26.294,48.045,26.294z"/>
		</g>
	</g>
	<g>
		<g>
			<path class="st0" d="M61.356,38.044c-8.605-0.515-11.832-12.025-11.864-12.141c-0.19-0.702-0.848-1.159-1.583-1.102
				c-0.725,0.066-1.298,0.642-1.359,1.367c-0.86,10.215-11.314,11.964-11.754,12.033c-0.763,0.115-1.314,0.79-1.273,1.56
				c0.04,0.77,0.657,1.384,1.428,1.421c9.028,0.425,11.498,12.718,11.522,12.842c0.137,0.711,0.759,1.217,1.472,1.217
				c0.042,0,0.084-0.001,0.126-0.005c0.764-0.064,1.357-0.693,1.375-1.459C49.64,45.269,61.637,41,61.758,40.958
				c0.675-0.235,1.092-0.914,0.994-1.623C62.654,38.627,62.07,38.086,61.356,38.044z M47.79,48.389
				c-1.357-3.13-3.709-6.907-7.587-8.877c2.931-1.405,6.409-3.913,8.202-8.272c1.551,3.071,4.2,6.88,8.334,8.722
				C53.732,41.603,49.817,44.368,47.79,48.389z"/>
		</g>
	</g>
	<g>
		<g>
			<path class="st3" d="M26.346,43.275c-0.689,8.179-9.212,9.471-9.212,9.471c7.318,0.344,9.142,9.944,9.142,9.944
				c0.156-6.845,9.422-10.046,9.422-10.046C28.757,52.229,26.346,43.275,26.346,43.275z"/>
		</g>
	</g>
	<g>
		<g>
			<path class="st0" d="M35.788,51.147c-5.767-0.345-7.973-8.186-7.994-8.265c-0.19-0.702-0.852-1.166-1.582-1.102
				c-0.726,0.065-1.299,0.643-1.36,1.368c-0.579,6.871-7.646,8.067-7.942,8.114c-0.763,0.115-1.313,0.79-1.273,1.561
				c0.04,0.77,0.657,1.384,1.428,1.421c6.035,0.284,7.723,8.644,7.739,8.726c0.135,0.713,0.759,1.22,1.472,1.22
				c0.041,0,0.083-0.001,0.125-0.005c0.765-0.063,1.358-0.694,1.376-1.461c0.13-5.71,8.331-8.634,8.413-8.662
				c0.676-0.234,1.094-0.913,0.996-1.622C37.087,51.731,36.502,51.19,35.788,51.147z M26.203,57.942
				c-0.924-1.885-2.34-3.947-4.447-5.28c1.855-1.041,3.697-2.629,4.87-4.916c1.057,1.874,2.655,3.954,4.941,5.224
				C29.718,54.07,27.579,55.71,26.203,57.942z"/>
		</g>
	</g>
	<g>
		<g>
			<path class="st3" d="M26.346,16.617c-0.689,8.179-9.212,9.471-9.212,9.471c7.318,0.344,9.142,9.944,9.142,9.944
				c0.156-6.845,9.422-10.045,9.422-10.045C28.757,25.571,26.346,16.617,26.346,16.617z"/>
		</g>
	</g>
	<g>
		<g>
			<path class="st0" d="M35.788,24.489c-5.767-0.345-7.973-8.186-7.994-8.265c-0.19-0.702-0.852-1.167-1.582-1.102
				c-0.726,0.066-1.299,0.643-1.36,1.368c-0.579,6.871-7.646,8.067-7.942,8.114c-0.763,0.115-1.313,0.79-1.273,1.561
				c0.04,0.77,0.657,1.384,1.427,1.421c6.036,0.284,7.724,8.644,7.739,8.726c0.135,0.713,0.759,1.22,1.472,1.22
				c0.041,0,0.083-0.001,0.125-0.005c0.765-0.063,1.358-0.694,1.376-1.461c0.13-5.709,8.331-8.634,8.413-8.662
				c0.676-0.234,1.094-0.913,0.996-1.622C37.087,25.074,36.502,24.532,35.788,24.489z M26.203,31.284
				c-0.924-1.885-2.34-3.947-4.447-5.279c1.856-1.042,3.697-2.63,4.871-4.917c1.057,1.873,2.655,3.954,4.941,5.224
				C29.718,27.413,27.579,29.052,26.203,31.284z"/>
		</g>
	</g>
	<g>
		<g>
			<path class="st1" d="M129.7,22.142c-0.98-0.83-2.42-0.83-3.4,0l-98.8,83.8v47.139v14.821v71.59h201v-133.55L129.7,22.142z"/>
		</g>
	</g>
	<g>
		<g>
			<path class="st0" d="M229.471,104.798l-98.801-83.8c-1.547-1.311-3.793-1.309-5.34,0l-98.8,83.8
				c-0.336,0.285-0.53,0.704-0.53,1.144v47.14c0,0.829,0.671,1.5,1.5,1.5s1.5-0.671,1.5-1.5v-46.445l98.269-83.35
				c0.423-0.358,1.038-0.359,1.461,0L227,106.637v131.355H29v-70.09c0-0.829-0.671-1.5-1.5-1.5s-1.5,0.671-1.5,1.5v71.59
				c0,0.829,0.671,1.5,1.5,1.5h201c0.828,0,1.5-0.671,1.5-1.5v-133.55C230,105.502,229.807,105.083,229.471,104.798z"/>
		</g>
	</g>
	<g>
		<g>
			<path class="st2" d="M243.059,111.112L134.225,18.799c-3.607-3.054-8.842-3.056-12.453,0.004l-38.34,32.52l-10.003,8.485
				l-60.487,51.305c-2.948,2.501-3.31,6.919-0.809,9.866c2.502,2.949,6.919,3.31,9.867,0.81L128,31.877l106.001,89.911
				c1.316,1.116,2.925,1.662,4.525,1.662c1.984,0,3.957-0.84,5.341-2.472C246.369,118.031,246.006,113.613,243.059,111.112z"/>
		</g>
	</g>
	<g>
		<g>
			<path class="st0" d="M247.001,115.755c-0.186-2.263-1.241-4.318-2.972-5.787L135.194,17.654
				c-4.17-3.532-10.223-3.529-14.393,0.004l-38.34,32.521c-0.632,0.536-0.709,1.482-0.174,2.114c0.536,0.632,1.482,0.71,2.114,0.174
				l38.34-32.52c3.046-2.581,7.467-2.583,10.512-0.004l108.834,92.313c1.12,0.951,1.804,2.281,1.924,3.745
				c0.12,1.464-0.337,2.887-1.287,4.007c-1.048,1.234-2.578,1.942-4.198,1.942c-1.299,0-2.562-0.464-3.555-1.306L128.97,30.733
				c-0.56-0.475-1.381-0.475-1.94,0L21.029,120.644c-2.313,1.961-5.79,1.677-7.753-0.636c-0.95-1.12-1.407-2.543-1.287-4.007
				c0.12-1.464,0.803-2.794,1.923-3.744l60.487-51.305c0.632-0.536,0.71-1.483,0.174-2.114c-0.536-0.632-1.482-0.71-2.114-0.174
				l-60.487,51.305c-1.732,1.469-2.787,3.524-2.973,5.787c-0.185,2.263,0.521,4.463,1.99,6.193
				c3.031,3.573,8.406,4.015,11.981,0.983L128,33.844l105.031,89.088c1.534,1.301,3.486,2.018,5.495,2.018
				c2.503,0,4.866-1.094,6.485-3.001C246.48,120.218,247.188,118.018,247.001,115.755z"/>
		</g>
	</g>
	<g>
		<g>
			<circle class="st3" cx="128" cy="155.231" r="58.622"/>
		</g>
	</g>
	<g>
		<g>
			<path class="st0" d="M128,95.109c-33.151,0-60.122,26.971-60.122,60.122c0,33.151,26.971,60.122,60.122,60.122
				c33.151,0,60.122-26.971,60.122-60.122C188.122,122.08,161.151,95.109,128,95.109z M128,212.354
				c-31.497,0-57.122-25.625-57.122-57.122c0-31.497,25.625-57.122,57.122-57.122c31.497,0,57.122,25.625,57.122,57.122
				C185.122,186.729,159.497,212.354,128,212.354z"/>
		</g>
	</g>
	<g>
		<g>
			<path class="st4" d="M134.97,148.602c-8.538-3.213-12.054-5.323-12.054-8.638c0-2.811,2.109-5.625,8.639-5.625
				c7.231,0,11.852,2.309,14.463,3.415l2.913-11.349c-3.315-1.608-7.835-3.016-14.564-3.315v-8.84h-9.844v9.541
				c-10.747,2.109-16.975,9.04-16.975,17.88c0,9.744,7.332,14.767,18.08,18.381c7.433,2.511,10.647,4.923,10.647,8.738
				c0,4.019-3.918,6.228-9.642,6.228c-6.53,0-12.455-2.109-16.674-4.419l-3.013,11.751c3.817,2.209,10.345,4.017,17.074,4.319v9.542
				h9.844v-10.245c11.551-2.007,17.88-9.641,17.88-18.581C151.743,158.345,146.922,152.821,134.97,148.602z"/>
		</g>
	</g>
	<g>
		<g>
			<path class="st0" d="M135.498,147.198c-8.183-3.08-11.083-4.973-11.083-7.234c0-3.589,4.473-4.125,7.139-4.125
				c6.287,0,10.407,1.791,13.134,2.976l0.744,0.321c0.402,0.17,0.858,0.157,1.25-0.037c0.392-0.193,0.68-0.548,0.788-0.971
				l2.914-11.349c0.177-0.691-0.156-1.412-0.799-1.723c-3.915-1.898-8.414-3.009-13.719-3.382v-7.423c0-0.829-0.672-1.5-1.5-1.5
				h-9.844c-0.829,0-1.5,0.671-1.5,1.5v8.331c-10.505,2.484-16.975,9.71-16.975,19.09c0,11.857,10.208,16.811,19.099,19.802
				c7.99,2.7,9.628,4.878,9.628,7.317c0,4.387-6.232,4.728-8.143,4.728c-7.151,0-13.065-2.653-15.954-4.234
				c-0.407-0.222-0.893-0.245-1.317-0.06c-0.425,0.185-0.741,0.555-0.856,1.003l-3.013,11.75c-0.167,0.651,0.12,1.334,0.702,1.671
				c3.991,2.31,10.142,3.968,16.326,4.434v8.129c0,0.829,0.671,1.5,1.5,1.5h9.844c0.828,0,1.5-0.671,1.5-1.5v-9.009
				c10.906-2.349,17.879-10.018,17.879-19.817C153.243,157.625,147.928,151.585,135.498,147.198z M133.607,184.488
				c-0.719,0.125-1.243,0.748-1.243,1.478v8.746h-6.844v-8.042c0-0.802-0.631-1.462-1.433-1.498
				c-5.609-0.252-11.493-1.636-15.398-3.586l2.255-8.793c3.479,1.674,9.091,3.726,15.688,3.726c6.873,0,11.143-2.961,11.143-7.728
				c0-5.16-4.664-7.793-11.669-10.16c-11.956-4.022-17.057-9.094-17.057-16.959c0-8.337,5.893-14.471,15.764-16.408
				c0.704-0.138,1.211-0.755,1.211-1.472v-8.042h6.844v7.34c0,0.802,0.632,1.463,1.434,1.499c5,0.223,9.224,1.094,12.866,2.659
				l-2.166,8.435c-2.837-1.206-7.223-2.843-13.446-2.843c-9.408,0-10.139,5.453-10.139,7.125c0,4.37,4.2,6.72,13.055,10.052
				c11.203,3.954,15.772,8.986,15.772,17.369C150.243,176.152,143.869,182.705,133.607,184.488z"/>
		</g>
	</g>
	<g>
		<g>
			<path class="st13" d="M128,33.843l-8,6.79l87.121,73.89c2.461,2.087,3.879,5.151,3.879,8.377v115.093h16v-120.18L128,33.843z"/>
		</g>
	</g>
</g>
</svg>
