<?xml version="1.0" encoding="utf-8"?>
<!-- Generator: Adobe Illustrator 22.0.1, SVG Export Plug-In . SVG Version: 6.00 Build 0)  -->
<svg version="1.1" id="Layer_1" xmlns="http://www.w3.org/2000/svg" xmlns:xlink="http://www.w3.org/1999/xlink" x="0px" y="0px"
	 viewBox="0 0 256 256" style="enable-background:new 0 0 256 256;" xml:space="preserve">
<style type="text/css">
	.st0{fill:#3A312A;}
	.st1{fill:#8AC6DD;}
	.st2{fill:#F16C7A;}
	.st3{fill:#D7E057;}
	.st4{fill:#87796F;}
	.st5{fill:#FCE8CB;}
	.st6{fill:#DECAAD;}
	.st7{fill:#D6DF58;}
	.st8{fill:#FAE6CA;}
	.st9{fill:#DDC9AC;}
	.st10{fill:#D5DE58;}
	.st11{fill:#ED6E7A;}
	.st12{fill:#8AC5DC;}
	.st13{fill:#6CA8BF;}
	.st14{fill:#695B51;}
	.st15{fill:#F8E4C8;}
	.st16{fill:#EF6D7A;}
	.st17{fill-rule:evenodd;clip-rule:evenodd;fill:#F8E4C8;}
	.st18{fill:#89C4DB;}
	.st19{fill:#F59689;}
	.st20{fill:#D34E5C;}
	.st21{fill:#F7E3C7;}
	.st22{fill:#8AC3DA;}
	.st23{fill-rule:evenodd;clip-rule:evenodd;fill:#F7E3C7;}
	.st24{fill-rule:evenodd;clip-rule:evenodd;fill:#87796F;}
	.st25{fill:#B9C239;}
	.st26{fill:#D4DB56;}
	.st27{fill-rule:evenodd;clip-rule:evenodd;fill:#F16C7A;}
	.st28{fill-rule:evenodd;clip-rule:evenodd;fill:#F6E2C6;}
	.st29{fill:#F6E2C6;}
	.st30{fill-rule:evenodd;clip-rule:evenodd;fill:#FAE6CA;}
	.st31{fill:#B8C136;}
</style>
<g>
	<g>
		<g>
			<path class="st7" d="M47.939,26.195c-0.974,11.564-13.024,13.39-13.024,13.39C45.261,40.071,47.84,53.643,47.84,53.643
				c0.221-9.677,13.321-14.202,13.321-14.202C51.348,38.854,47.939,26.195,47.939,26.195z"/>
		</g>
	</g>
	<g>
		<g>
			<path class="st0" d="M61.25,37.943c-8.604-0.514-11.832-12.024-11.863-12.14c-0.191-0.703-0.863-1.162-1.583-1.102
				c-0.725,0.066-1.298,0.642-1.359,1.367c-0.86,10.215-11.313,11.963-11.754,12.032c-0.763,0.115-1.313,0.79-1.273,1.561
				c0.04,0.77,0.657,1.384,1.427,1.421c9.028,0.425,11.499,12.719,11.523,12.843c0.137,0.711,0.759,1.217,1.472,1.217
				c0.042,0,0.084-0.001,0.126-0.005c0.764-0.064,1.357-0.693,1.375-1.46c0.195-8.509,12.192-12.777,12.313-12.819
				c0.675-0.235,1.092-0.915,0.994-1.623C62.548,38.527,61.964,37.986,61.25,37.943z M47.685,48.29
				c-1.357-3.13-3.708-6.907-7.586-8.876c2.931-1.405,6.409-3.913,8.202-8.273c1.551,3.071,4.199,6.88,8.334,8.722
				C53.626,41.502,49.711,44.269,47.685,48.29z"/>
		</g>
	</g>
	<g>
		<g>
			<path class="st7" d="M26.241,43.175c-0.689,8.179-9.212,9.471-9.212,9.471c7.318,0.344,9.142,9.944,9.142,9.944
				c0.156-6.844,9.422-10.045,9.422-10.045C28.651,52.129,26.241,43.175,26.241,43.175z"/>
		</g>
	</g>
	<g>
		<g>
			<path class="st0" d="M35.682,51.047c-5.766-0.345-7.972-8.185-7.993-8.264c-0.19-0.702-0.857-1.164-1.582-1.102
				c-0.726,0.065-1.299,0.642-1.36,1.368c-0.579,6.871-7.646,8.066-7.942,8.113c-0.763,0.115-1.313,0.79-1.273,1.56
				c0.04,0.77,0.657,1.384,1.427,1.421c6.035,0.284,7.724,8.644,7.739,8.726c0.135,0.712,0.759,1.22,1.472,1.22
				c0.042,0,0.083-0.001,0.125-0.005c0.765-0.064,1.358-0.694,1.376-1.461c0.13-5.709,8.332-8.634,8.412-8.662
				c0.677-0.234,1.094-0.913,0.996-1.622C36.981,51.631,36.396,51.09,35.682,51.047z M26.098,57.842
				c-0.924-1.886-2.34-3.947-4.447-5.28c1.855-1.041,3.697-2.63,4.871-4.916c1.057,1.874,2.654,3.954,4.941,5.223
				C29.612,53.97,27.474,55.61,26.098,57.842z"/>
		</g>
	</g>
	<g>
		<g>
			<path class="st7" d="M26.203,16.518c-0.657,8.182-9.175,9.507-9.175,9.507c7.319,0.316,9.181,9.908,9.181,9.908
				c0.129-6.845,9.383-10.082,9.383-10.082C28.648,25.463,26.203,16.518,26.203,16.518z"/>
		</g>
	</g>
	<g>
		<g>
			<path class="st0" d="M35.675,24.354c-5.747-0.322-7.988-8.098-8.026-8.232c-0.192-0.702-0.861-1.163-1.586-1.097
				c-0.725,0.068-1.297,0.647-1.355,1.374c-0.552,6.873-7.615,8.096-7.911,8.144c-0.762,0.119-1.31,0.796-1.267,1.566
				c0.042,0.77,0.663,1.382,1.433,1.415c6.036,0.261,7.757,8.614,7.773,8.696c0.138,0.71,0.76,1.214,1.471,1.214
				c0.044,0,0.087-0.002,0.131-0.005c0.765-0.066,1.356-0.699,1.37-1.466c0.108-5.71,8.298-8.666,8.378-8.694
				c0.676-0.236,1.09-0.917,0.99-1.626C36.977,24.933,36.39,24.394,35.675,24.354z M26.117,31.186
				c-0.932-1.882-2.356-3.938-4.468-5.262c1.851-1.049,3.686-2.645,4.851-4.936c1.064,1.87,2.67,3.944,4.962,5.205
				C29.617,27.3,27.484,28.948,26.117,31.186z"/>
		</g>
	</g>
	<g>
		<g>
			<path class="st1" d="M222.701,77.039c-2.164-3.433-6.701-4.461-10.133-2.296c-3.432,2.164-4.46,6.701-2.296,10.133
				c9.164,14.535,14.007,31.343,14.007,48.607c0,50.347-40.96,91.307-91.307,91.307c-23.707,0-45.33-9.083-61.578-23.95
				l-9.083-9.596c-12.896-15.748-20.646-35.865-20.646-57.76c0-50.347,40.96-91.307,91.307-91.307
				c14.317,0,28.115,3.272,40.647,9.529l-3.582,0.846c-3.949,0.933-6.394,4.89-5.461,8.839c0.841,3.56,4.14,5.898,7.674,5.64
				c0.387-0.028,0.776-0.087,1.164-0.179l20.985-4.957c1.896-0.448,3.537-1.631,4.561-3.289c1.024-1.658,1.348-3.654,0.9-5.55
				l-4.957-20.986c-0.932-3.948-4.891-6.389-8.839-5.461c-3.949,0.933-6.394,4.89-5.461,8.838l0.889,3.765
				c-14.903-7.706-31.396-11.729-48.522-11.729c-58.448,0-106,47.552-106,106c0,58.448,47.552,106,106,106
				c58.448,0,106-47.552,106-106C238.973,113.441,233.346,93.923,222.701,77.039z"/>
		</g>
	</g>
	<g>
		<g>
			<path class="st0" d="M223.971,76.239c-1.261-1.999-3.224-3.388-5.528-3.911c-2.308-0.522-4.676-0.115-6.674,1.146
				c-4.126,2.602-5.366,8.075-2.765,12.201c9.012,14.295,13.775,30.827,13.775,47.807c0,49.52-40.287,89.807-89.807,89.807
				c-22.454,0-43.963-8.366-60.565-23.557c-0.611-0.56-1.56-0.518-2.119,0.094c-0.56,0.611-0.518,1.56,0.094,2.119
				c17.157,15.699,39.385,24.344,62.591,24.344c51.174,0,92.807-41.633,92.807-92.807c0-17.547-4.924-34.631-14.238-49.407
				c-1.719-2.727-0.899-6.344,1.828-8.064c1.319-0.833,2.887-1.103,4.41-0.756c1.522,0.345,2.82,1.263,3.653,2.584
				c10.493,16.645,16.04,35.886,16.04,55.643c0,57.622-46.879,104.5-104.5,104.5c-57.622,0-104.5-46.878-104.5-104.5
				c0-57.622,46.878-104.5,104.5-104.5c16.903,0,32.996,3.89,47.832,11.562c0.521,0.269,1.151,0.21,1.612-0.15
				c0.462-0.36,0.672-0.957,0.537-1.527l-0.889-3.765c-0.359-1.52-0.104-3.088,0.716-4.417c0.821-1.329,2.11-2.258,3.629-2.617
				c3.129-0.736,6.295,1.211,7.035,4.346l4.957,20.986c0.359,1.519,0.104,3.088-0.717,4.417c-0.808,1.309-2.131,2.263-3.629,2.617
				l-20.983,4.956c-0.31,0.073-0.622,0.121-0.931,0.143c-2.858,0.215-5.441-1.678-6.105-4.489c-0.741-3.137,1.209-6.292,4.346-7.034
				l3.582-0.846c0.614-0.145,1.072-0.66,1.146-1.287c0.072-0.627-0.255-1.233-0.82-1.515c-12.875-6.427-26.776-9.687-41.317-9.687
				c-51.174,0-92.807,41.633-92.807,92.807c0,21.336,7.453,42.187,20.985,58.711c0.524,0.641,1.469,0.734,2.111,0.21
				c0.641-0.525,0.735-1.47,0.211-2.111c-13.095-15.99-20.306-36.165-20.306-56.81c0-49.52,40.287-89.807,89.807-89.807
				c12.642,0,24.781,2.544,36.149,7.57c-4.409,1.357-7.08,5.935-6.005,10.488c1.005,4.252,4.894,7.112,9.243,6.792
				c0.465-0.034,0.936-0.106,1.4-0.215l20.985-4.957c2.267-0.536,4.268-1.979,5.492-3.96c1.242-2.011,1.627-4.385,1.084-6.684
				l-4.957-20.985c-1.12-4.743-5.896-7.695-10.643-6.577c-2.3,0.543-4.251,1.95-5.492,3.96c-1.242,2.01-1.627,4.384-1.084,6.683
				l0.153,0.65c-14.46-6.943-30.027-10.459-46.326-10.459c-59.276,0-107.5,48.224-107.5,107.5c0,59.276,48.224,107.5,107.5,107.5
				c59.275,0,107.5-48.224,107.5-107.5C240.473,113.158,234.767,93.364,223.971,76.239z"/>
		</g>
	</g>
	<g>
		<g>
			<path class="st3" d="M132.993,65.946c-12.496,0-24.199,3.368-34.279,9.222l-11.402,8.286
				c-13.93,12.517-22.697,30.667-22.697,50.87c0,37.764,30.614,68.378,68.378,68.378c37.764,0,68.378-30.614,68.378-68.378
				C201.371,96.56,170.757,65.946,132.993,65.946z"/>
		</g>
	</g>
	<g>
		<g>
			<path class="st0" d="M132.993,64.446c-12.301,0-24.415,3.259-35.033,9.425c-0.716,0.417-0.96,1.335-0.544,2.051
				c0.417,0.716,1.334,0.959,2.051,0.544c10.161-5.901,21.753-9.02,33.526-9.02c36.877,0,66.878,30.002,66.878,66.878
				c0,36.877-30.001,66.878-66.878,66.878c-36.876,0-66.878-30.001-66.878-66.878c0-18.942,8.091-37.077,22.199-49.754
				c0.616-0.554,0.667-1.502,0.113-2.118c-0.554-0.616-1.502-0.667-2.118-0.113c-14.74,13.246-23.194,32.193-23.194,51.985
				c0,38.531,31.347,69.878,69.878,69.878c38.531,0,69.878-31.347,69.878-69.878C202.871,95.794,171.524,64.446,132.993,64.446z"/>
		</g>
	</g>
	<g>
		<g>
			<path class="st4" d="M141.122,126.592c-9.959-3.748-14.06-6.208-14.06-10.075c0-3.279,2.46-6.561,10.076-6.561
				c8.434,0,13.824,2.694,16.87,3.984l3.398-13.238c-3.867-1.875-9.139-3.517-16.988-3.867V86.524h-11.482v11.129
				c-12.536,2.461-19.799,10.544-19.799,20.855c0,11.365,8.552,17.224,21.088,21.44c8.67,2.929,12.419,5.742,12.419,10.192
				c0,4.688-4.57,7.265-11.247,7.265c-7.616,0-14.527-2.46-19.448-5.154l-3.515,13.706c4.452,2.577,12.067,4.685,19.916,5.038
				v11.129h11.482v-11.95c13.473-2.341,20.855-11.246,20.855-21.673C160.688,137.957,155.063,131.513,141.122,126.592z"/>
		</g>
	</g>
	<g>
		<g>
			<path class="st0" d="M141.65,125.188c-9.785-3.683-13.088-5.871-13.088-8.671c0-3.263,3.046-5.06,8.576-5.06
				c7.386,0,12.414,2.185,15.419,3.491l0.866,0.373c0.402,0.17,0.858,0.157,1.25-0.037c0.392-0.193,0.68-0.548,0.788-0.971
				l3.398-13.238c0.177-0.691-0.156-1.412-0.799-1.723c-4.594-2.227-9.887-3.519-16.143-3.936v-8.892c0-0.829-0.672-1.5-1.5-1.5
				h-11.481c-0.829,0-1.5,0.671-1.5,1.5v9.916c-12.248,2.828-19.799,11.195-19.799,22.068c0,13.672,11.816,19.399,22.108,22.861
				c9.461,3.196,11.399,5.818,11.399,8.771c0,5.35-7.461,5.765-9.747,5.765c-8.396,0-15.338-3.114-18.729-4.97
				c-0.406-0.222-0.893-0.245-1.317-0.06c-0.425,0.185-0.741,0.555-0.856,1.003l-3.515,13.707c-0.167,0.651,0.12,1.334,0.702,1.671
				c4.676,2.706,11.913,4.64,19.167,5.155v9.714c0,0.829,0.671,1.5,1.5,1.5h11.482c0.828,0,1.5-0.671,1.5-1.5v-10.71
				c12.715-2.665,20.854-11.548,20.854-22.913C162.188,137.241,156.037,130.266,141.65,125.188z M139.576,168.696
				c-0.719,0.125-1.243,0.748-1.243,1.478v10.45h-8.481v-9.629c0-0.802-0.632-1.462-1.433-1.498
				c-6.66-0.299-13.656-1.962-18.24-4.299l2.756-10.748c4.01,1.964,10.641,4.456,18.464,4.456c7.862,0,12.747-3.358,12.747-8.765
				c0-5.87-5.372-8.887-13.44-11.613c-14.065-4.731-20.067-10.718-20.067-20.019c0-9.852,6.949-17.099,18.588-19.383
				c0.703-0.138,1.211-0.755,1.211-1.472v-9.629h8.481v8.811c0,0.802,0.632,1.463,1.434,1.498
				c5.953,0.265,10.971,1.316,15.291,3.206l-2.651,10.327c-3.28-1.408-8.445-3.411-15.854-3.411c-10.741,0-11.576,6.169-11.576,8.06
				c0,4.95,4.847,7.646,15.06,11.49c13.186,4.654,18.565,10.592,18.565,20.495C159.188,158.856,151.673,166.594,139.576,168.696z"/>
		</g>
	</g>
	<g>
		<g>
			<path class="st25" d="M132.993,67.446c-2.71,0-5.38,0.16-8,0.48c33.12,3.96,58.88,32.23,58.88,66.4
				c0,34.16-25.76,62.44-58.88,66.4c2.62,0.32,5.29,0.48,8,0.48c36.88,0,66.88-30.01,66.88-66.88
				C199.873,97.447,169.873,67.446,132.993,67.446z"/>
		</g>
	</g>
</g>
</svg>
