<?xml version="1.0" encoding="utf-8"?>
<!-- Generator: Adobe Illustrator 22.0.1, SVG Export Plug-In . SVG Version: 6.00 Build 0)  -->
<svg version="1.1" id="Layer_1" xmlns="http://www.w3.org/2000/svg" xmlns:xlink="http://www.w3.org/1999/xlink" x="0px" y="0px"
	 viewBox="0 0 256 256" style="enable-background:new 0 0 256 256;" xml:space="preserve">
<style type="text/css">
	.st0{fill:#3A312A;}
	.st1{fill:#8AC6DD;}
	.st2{fill:#F16C7A;}
	.st3{fill:#D7E057;}
	.st4{fill:#87796F;}
	.st5{fill:#FCE8CB;}
	.st6{fill:#DECAAD;}
	.st7{fill:#D6DF58;}
	.st8{fill:#FAE6CA;}
	.st9{fill:#DDC9AC;}
	.st10{fill:#D5DE58;}
	.st11{fill:#ED6E7A;}
	.st12{fill:#8AC5DC;}
	.st13{fill:#6CA8BF;}
	.st14{fill:#695B51;}
	.st15{fill:#F8E4C8;}
	.st16{fill:#EF6D7A;}
	.st17{fill-rule:evenodd;clip-rule:evenodd;fill:#F8E4C8;}
	.st18{fill:#89C4DB;}
	.st19{fill:#F59689;}
	.st20{fill:#D34E5C;}
	.st21{fill:#F7E3C7;}
	.st22{fill:#8AC3DA;}
	.st23{fill-rule:evenodd;clip-rule:evenodd;fill:#F7E3C7;}
	.st24{fill-rule:evenodd;clip-rule:evenodd;fill:#87796F;}
	.st25{fill:#B9C239;}
	.st26{fill:#D4DB56;}
	.st27{fill-rule:evenodd;clip-rule:evenodd;fill:#F16C7A;}
	.st28{fill-rule:evenodd;clip-rule:evenodd;fill:#F6E2C6;}
	.st29{fill:#F6E2C6;}
	.st30{fill-rule:evenodd;clip-rule:evenodd;fill:#FAE6CA;}
	.st31{fill:#B8C136;}
</style>
<g>
	<g>
		<g>
			<path class="st4" d="M234.933,215.981l-76.969-76.97c-2.537,3.623-5.425,7.07-8.653,10.298s-6.676,6.116-10.298,8.653
				l36.616,36.616l40.354,40.354c5.233,5.233,13.718,5.233,18.951,0C240.166,229.699,240.166,221.215,234.933,215.981z"/>
		</g>
	</g>
	<g>
		<g>
			<path class="st0" d="M235.993,214.921l-76.97-76.97c-0.313-0.314-0.74-0.474-1.191-0.434c-0.441,0.039-0.844,0.271-1.098,0.634
				c-2.502,3.573-5.357,6.97-8.485,10.099c-3.129,3.128-6.526,5.983-10.098,8.485c-0.363,0.254-0.596,0.656-0.634,1.098
				c-0.039,0.441,0.12,0.878,0.434,1.191l36.615,36.616c0.586,0.586,1.535,0.586,2.121,0c0.586-0.586,0.586-1.536,0-2.121
				l-35.366-35.367c3.185-2.343,6.223-4.955,9.049-7.781c2.826-2.826,5.438-5.864,7.781-9.05l75.721,75.721
				c2.248,2.248,3.485,5.236,3.485,8.415c0,3.179-1.237,6.167-3.485,8.415c-2.248,2.247-5.236,3.486-8.415,3.486
				s-6.167-1.238-8.415-3.486l-31.085-31.085c-0.586-0.586-1.535-0.586-2.121,0c-0.586,0.586-0.586,1.536,0,2.121l31.085,31.085
				c2.814,2.814,6.556,4.365,10.536,4.365s7.722-1.55,10.536-4.365c2.814-2.815,4.364-6.556,4.364-10.536
				C240.357,221.477,238.808,217.735,235.993,214.921z"/>
		</g>
	</g>
	<g>
		<g>
			<path class="st3" d="M171.962,130.84l-6.09-6.09c-3.762,8.924-9.292,17.289-16.563,24.56c-7.271,7.271-15.635,12.8-24.56,16.563
				l6.09,6.09c4.331,4.331,11.366,4.331,15.697,0l25.426-25.426C176.293,142.205,176.293,135.171,171.962,130.84z"/>
		</g>
	</g>
	<g>
		<g>
			<path class="st0" d="M173.022,129.779l-6.089-6.089c-0.354-0.353-0.858-0.505-1.349-0.412c-0.49,0.096-0.9,0.429-1.094,0.89
				c-3.793,8.995-9.258,17.098-16.242,24.082c-6.985,6.985-15.088,12.449-24.082,16.241c-0.46,0.194-0.793,0.604-0.889,1.094
				c-0.097,0.49,0.058,0.996,0.411,1.349l6.09,6.09c2.456,2.456,5.683,3.685,8.908,3.685c3.227,0,6.453-1.229,8.909-3.685
				l25.426-25.426C177.935,142.684,177.935,134.691,173.022,129.779z M170.901,145.476l-25.426,25.426
				c-1.812,1.811-4.222,2.809-6.788,2.809c-2.565,0-4.976-0.998-6.787-2.809l-4.537-4.537c8.544-3.889,16.275-9.263,23.007-15.994
				c6.731-6.73,12.104-14.461,15.995-23.007l4.536,4.537c1.812,1.812,2.809,4.222,2.809,6.788
				C173.71,141.253,172.713,143.664,170.901,145.476z"/>
		</g>
	</g>
	<g>
		<g>
			
				<ellipse transform="matrix(0.3469 -0.9379 0.9379 0.3469 -26.9344 150.4431)" class="st2" cx="94.563" cy="94.563" rx="77.42" ry="77.42"/>
		</g>
	</g>
	<g>
		<g>
			<path class="st0" d="M150.367,38.758c-14.906-14.906-34.725-23.116-55.805-23.116s-40.898,8.21-55.805,23.116
				c-30.771,30.771-30.771,80.838,0,111.609c14.906,14.906,34.725,23.116,55.805,23.116c21.079,0,40.899-8.21,55.805-23.115
				C181.139,119.597,181.139,69.529,150.367,38.758z M148.246,148.247c-14.34,14.339-33.404,22.236-53.684,22.236
				s-39.344-7.898-53.684-22.237c-29.601-29.601-29.601-77.766,0-107.367c14.34-14.339,33.404-22.237,53.684-22.237
				s39.344,7.898,53.684,22.237C177.848,70.481,177.848,118.645,148.246,148.247z"/>
		</g>
	</g>
	<g>
		<g>
			<path class="st1" d="M135.33,53.796c-20.907-20.907-53.868-22.387-76.498-4.467l-9.328,9.276
				c-18.109,22.636-16.685,55.749,4.291,76.725c22.515,22.515,59.019,22.515,81.534,0C157.845,112.815,157.845,76.31,135.33,53.796z
				"/>
		</g>
	</g>
	<g>
		<g>
			<path class="st0" d="M136.39,52.735C115.157,31.503,81.416,29.532,57.9,48.152c-0.649,0.514-0.759,1.458-0.244,2.107
				c0.514,0.65,1.456,0.759,2.107,0.245c22.32-17.674,54.35-15.803,74.505,4.352c10.606,10.606,16.447,24.708,16.447,39.706
				c0,15-5.841,29.101-16.446,39.706c-21.894,21.893-57.518,21.894-79.413,0c-20.259-20.258-22.056-52.383-4.182-74.727
				c0.518-0.647,0.413-1.591-0.233-2.108c-0.648-0.517-1.592-0.412-2.108,0.234c-18.831,23.539-16.938,57.382,4.402,78.722
				c11.533,11.533,26.678,17.299,41.827,17.298c15.146-0.001,30.298-5.768,41.828-17.298c11.173-11.172,17.325-26.027,17.325-41.828
				C153.716,78.762,147.563,63.907,136.39,52.735z"/>
		</g>
	</g>
	<g>
		<g>
			<path class="st3" d="M46.411,204.631c-0.922,10.875-12.333,12.592-12.333,12.592c9.797,0.458,12.238,13.222,12.238,13.222
				c0.209-9.101,12.613-13.356,12.613-13.356C49.638,216.536,46.411,204.631,46.411,204.631z"/>
		</g>
	</g>
	<g>
		<g>
			<path class="st0" d="M59.02,215.59c-8.083-0.48-11.125-11.224-11.161-11.354c-0.191-0.702-0.864-1.16-1.582-1.1
				c-0.725,0.066-1.299,0.642-1.36,1.368c-0.808,9.534-10.646,11.17-11.062,11.235c-0.763,0.115-1.314,0.789-1.274,1.56
				c0.04,0.771,0.657,1.385,1.428,1.421c8.485,0.397,10.813,11.891,10.835,12.005c0.137,0.712,0.76,1.218,1.473,1.218
				c0.041,0,0.083-0.001,0.125-0.005c0.765-0.064,1.357-0.693,1.376-1.46c0.183-7.937,11.488-11.934,11.603-11.973
				c0.677-0.234,1.095-0.913,0.997-1.622C60.318,216.175,59.734,215.633,59.02,215.59z M46.175,225.222
				c-1.28-2.885-3.458-6.306-6.993-8.158c2.719-1.325,5.887-3.641,7.578-7.59c1.464,2.833,3.915,6.281,7.688,8.019
				C51.65,219.031,48.088,221.57,46.175,225.222z"/>
		</g>
	</g>
	<g>
		<g>
			<path class="st3" d="M25.865,220.6c-0.652,7.692-8.723,8.906-8.723,8.906c6.929,0.324,8.656,9.352,8.656,9.352
				c0.148-6.437,8.921-9.447,8.921-9.447C28.148,229.02,25.865,220.6,25.865,220.6z"/>
		</g>
	</g>
	<g>
		<g>
			<path class="st0" d="M34.809,227.914c-5.375-0.319-7.455-7.562-7.496-7.708c-0.19-0.702-0.844-1.164-1.582-1.101
				c-0.725,0.065-1.299,0.642-1.36,1.367c-0.541,6.39-7.174,7.506-7.451,7.55c-0.763,0.115-1.314,0.79-1.274,1.56
				s0.657,1.385,1.428,1.421c5.651,0.264,7.238,8.06,7.253,8.135c0.137,0.712,0.76,1.218,1.473,1.218
				c0.041,0,0.083-0.002,0.125-0.005c0.765-0.063,1.358-0.693,1.376-1.46c0.121-5.304,7.832-8.036,7.907-8.062
				c0.678-0.232,1.097-0.912,1-1.622C36.109,228.499,35.523,227.956,34.809,227.914z M25.737,234.227
				c-0.862-1.713-2.156-3.56-4.05-4.794c1.689-0.967,3.354-2.412,4.446-4.458c0.985,1.704,2.444,3.566,4.502,4.746
				C28.941,230.739,27.018,232.227,25.737,234.227z"/>
		</g>
	</g>
	<g>
		<g>
			<path class="st3" d="M25.865,195.53c-0.652,7.692-8.723,8.906-8.723,8.906c6.929,0.324,8.656,9.352,8.656,9.352
				c0.148-6.437,8.921-9.447,8.921-9.447C28.148,203.951,25.865,195.53,25.865,195.53z"/>
		</g>
	</g>
	<g>
		<g>
			<path class="st0" d="M34.809,202.844c-5.402-0.321-7.476-7.635-7.496-7.709c-0.191-0.701-0.846-1.16-1.582-1.099
				c-0.725,0.065-1.299,0.642-1.36,1.367c-0.541,6.39-7.174,7.506-7.451,7.55c-0.763,0.115-1.313,0.79-1.274,1.561
				c0.04,0.771,0.657,1.385,1.428,1.421c5.651,0.264,7.238,8.06,7.253,8.135c0.137,0.712,0.76,1.218,1.473,1.218
				c0.041,0,0.083-0.002,0.125-0.005c0.765-0.063,1.358-0.693,1.376-1.46c0.121-5.304,7.832-8.036,7.907-8.062
				c0.678-0.232,1.097-0.912,1-1.622C36.109,203.429,35.524,202.887,34.809,202.844z M25.737,209.157
				c-0.862-1.712-2.157-3.56-4.05-4.794c1.689-0.967,3.354-2.412,4.446-4.458c0.985,1.703,2.445,3.566,4.503,4.746
				C28.941,205.67,27.017,207.157,25.737,209.157z"/>
		</g>
	</g>
	<g>
		<g>
			<path class="st13" d="M134.272,54.852c-10.61-10.6-24.71-16.44-39.71-16.44c-2.53,0-5.03,0.17-7.5,0.49
				c12.15,1.61,23.39,7.14,32.21,15.95c21.89,21.9,21.89,57.52,0,79.42c-9.04,9.04-20.42,14.35-32.21,15.92
				c2.49,0.33,4.99,0.5,7.5,0.5c14.38,0,28.76-5.47,39.71-16.42C156.162,112.372,156.162,76.752,134.272,54.852z"/>
		</g>
	</g>
	<g>
		<g>
			<path class="st4" d="M95.23,55.993c-10.42,0-18.897,8.478-18.897,18.897v14.583c0,2.383,1.931,4.315,4.315,4.315
				c2.383,0,4.315-1.932,4.315-4.315V74.891c0-5.662,4.606-10.268,10.268-10.268s10.268,4.606,10.268,10.268v14.583
				c0,2.383,1.932,4.315,4.315,4.315c2.383,0,4.314-1.932,4.314-4.315V74.891C114.127,64.471,105.65,55.993,95.23,55.993z"/>
		</g>
	</g>
	<g>
		<g>
			<path class="st0" d="M95.23,54.493c-11.248,0-20.398,9.15-20.398,20.397v14.583c0,3.207,2.608,5.815,5.815,5.815
				c3.206,0,5.814-2.608,5.814-5.815V74.891c0-4.835,3.934-8.768,8.769-8.768c4.834,0,8.768,3.933,8.768,8.768v14.583
				c0,3.207,2.608,5.815,5.814,5.815c3.207,0,5.815-2.608,5.815-5.815V74.891C115.628,63.644,106.478,54.493,95.23,54.493z
				 M112.628,89.474c0,1.552-1.263,2.815-2.815,2.815c-1.552,0-2.814-1.263-2.814-2.815V74.891c0-6.489-5.279-11.768-11.768-11.768
				c-6.489,0-11.769,5.279-11.769,11.768v14.583c0,1.552-1.263,2.815-2.814,2.815c-1.553,0-2.815-1.263-2.815-2.815V74.891
				c0-9.593,7.805-17.397,17.398-17.397c9.593,0,17.397,7.805,17.397,17.397V89.474z"/>
		</g>
	</g>
	<g>
		<g>
			<path class="st3" d="M110.44,88.071H80.02c-4.292,0-7.771,3.479-7.771,7.771v30.42c0,4.292,3.479,7.771,7.771,7.771h30.42
				c4.292,0,7.771-3.479,7.771-7.771v-30.42C118.211,91.551,114.732,88.071,110.44,88.071z"/>
		</g>
	</g>
	<g>
		<g>
			<path class="st0" d="M110.439,86.571H80.021c-5.112,0-9.271,4.159-9.271,9.272v30.419c0,5.112,4.159,9.271,9.271,9.271h30.419
				c5.112,0,9.271-4.159,9.271-9.271V95.843C119.711,90.731,115.552,86.571,110.439,86.571z M116.711,126.262
				c0,3.458-2.813,6.271-6.271,6.271H80.021c-3.458,0-6.271-2.813-6.271-6.271V95.843c0-3.458,2.813-6.272,6.271-6.272h30.419
				c3.458,0,6.271,2.814,6.271,6.272V126.262z"/>
		</g>
	</g>
	<g>
		<g>
			<path class="st4" d="M95.23,98.305c-3.873,0-7.013,3.139-7.013,7.013c0,2.793,1.645,5.184,4.007,6.312v9.216
				c0,1.66,1.346,3.005,3.005,3.005c1.66,0,3.005-1.346,3.005-3.005v-9.216c2.363-1.128,4.007-3.519,4.007-6.312
				C102.243,101.444,99.103,98.305,95.23,98.305z"/>
		</g>
	</g>
	<g>
		<g>
			<path class="st0" d="M95.229,96.805c-4.694,0-8.513,3.819-8.513,8.513c0,2.972,1.514,5.651,4.008,7.199v8.329
				c0,2.484,2.021,4.505,4.505,4.505s4.506-2.021,4.506-4.505v-8.329c2.494-1.548,4.008-4.227,4.008-7.199
				C103.743,100.624,99.924,96.805,95.229,96.805z M97.589,110.275c-0.521,0.249-0.854,0.775-0.854,1.354v9.216
				c0,0.83-0.676,1.505-1.506,1.505s-1.505-0.675-1.505-1.505v-9.216c0-0.578-0.332-1.104-0.854-1.354
				c-1.945-0.929-3.154-2.829-3.154-4.958c0-3.04,2.473-5.513,5.513-5.513s5.514,2.473,5.514,5.513
				C100.743,107.447,99.534,109.346,97.589,110.275z"/>
		</g>
	</g>
	<g>
		<g>
			<path class="st5" d="M175.588,226.357l-40.271-69.75c-3.208-5.556-11.227-5.556-14.435,0l-40.271,69.75
				c-3.208,5.556,0.802,12.501,7.218,12.501h80.541C174.786,238.858,178.796,231.913,175.588,226.357z"/>
		</g>
	</g>
	<g>
		<g>
			<path class="st0" d="M176.887,225.606l-40.271-69.75c-1.777-3.079-4.961-4.917-8.517-4.917s-6.739,1.838-8.517,4.917
				l-40.271,69.75c-1.777,3.079-1.777,6.756,0.001,9.835c1.777,3.079,4.961,4.917,8.516,4.917h80.541
				c3.556,0,6.739-1.838,8.517-4.917C178.665,232.362,178.665,228.685,176.887,225.606z M174.289,233.941
				c-1.235,2.14-3.448,3.417-5.919,3.417H87.829c-2.47,0-4.683-1.277-5.918-3.417c-1.235-2.14-1.235-4.695-0.001-6.835l40.271-69.75
				c1.235-2.14,3.448-3.417,5.919-3.417s4.684,1.277,5.919,3.417l40.271,69.75C175.524,229.246,175.524,231.801,174.289,233.941z"/>
		</g>
	</g>
	<g>
		<g>
			<path class="st4" d="M128.097,170.229c-6.987,0-9.866,6.495-9.866,12.584c0,3.512,0.899,11.504,2.211,17.613
				c0.771,3.594,3.982,6.139,7.657,6.139c3.675,0,6.885-2.544,7.657-6.137c1.314-6.11,2.213-14.103,2.213-17.616
				C137.969,176.725,135.089,170.229,128.097,170.229z"/>
		</g>
	</g>
	<g>
		<g>
			<path class="st0" d="M128.098,168.729c-7.852,0-11.366,7.073-11.366,14.083c0,3.611,0.901,11.677,2.243,17.929
				c0.911,4.244,4.748,7.324,9.124,7.324c4.374,0,8.212-3.079,9.124-7.322c1.344-6.25,2.246-14.318,2.246-17.931
				C139.469,175.802,135.953,168.729,128.098,168.729z M134.289,200.113c-0.616,2.87-3.221,4.953-6.19,4.953
				c-2.971,0-5.574-2.083-6.19-4.954c-1.283-5.975-2.177-13.913-2.177-17.299c0-5.113,2.191-11.083,8.366-11.083
				c6.179,0,8.371,5.971,8.371,11.083C136.469,186.201,135.573,194.139,134.289,200.113z"/>
		</g>
	</g>
	<g>
		<g>
			<path class="st4" d="M128.098,212.966c-5.016,0-9.128,4.111-9.128,9.127c0,5.016,4.112,9.128,9.128,9.128
				c5.016,0,9.127-4.111,9.127-9.128C137.226,217.077,133.114,212.966,128.098,212.966z"/>
		</g>
	</g>
	<g>
		<g>
			<path class="st0" d="M128.099,211.466c-5.86,0-10.628,4.767-10.628,10.627c0,5.86,4.768,10.627,10.628,10.627
				c5.859,0,10.627-4.768,10.627-10.627C138.726,216.233,133.958,211.466,128.099,211.466z M128.099,229.72
				c-4.206,0-7.628-3.422-7.628-7.627c0-4.206,3.422-7.627,7.628-7.627c4.205,0,7.627,3.421,7.627,7.627
				C135.726,226.298,132.304,229.72,128.099,229.72z"/>
		</g>
	</g>
</g>
</svg>
