<?xml version="1.0" encoding="utf-8"?>
<!-- Generator: Adobe Illustrator 22.0.1, SVG Export Plug-In . SVG Version: 6.00 Build 0)  -->
<svg version="1.1" id="Layer_1" xmlns="http://www.w3.org/2000/svg" xmlns:xlink="http://www.w3.org/1999/xlink" x="0px" y="0px"
	 viewBox="0 0 256 256" style="enable-background:new 0 0 256 256;" xml:space="preserve">
<style type="text/css">
	.st0{fill:#3A312A;}
	.st1{fill:#8AC6DD;}
	.st2{fill:#F16C7A;}
	.st3{fill:#D7E057;}
	.st4{fill:#87796F;}
	.st5{fill:#FCE8CB;}
	.st6{fill:#DECAAD;}
	.st7{fill:#D6DF58;}
	.st8{fill:#FAE6CA;}
	.st9{fill:#DDC9AC;}
	.st10{fill:#D5DE58;}
	.st11{fill:#ED6E7A;}
	.st12{fill:#8AC5DC;}
	.st13{fill:#6CA8BF;}
	.st14{fill:#695B51;}
	.st15{fill:#F8E4C8;}
	.st16{fill:#EF6D7A;}
	.st17{fill-rule:evenodd;clip-rule:evenodd;fill:#F8E4C8;}
	.st18{fill:#89C4DB;}
	.st19{fill:#F59689;}
	.st20{fill:#D34E5C;}
	.st21{fill:#F7E3C7;}
	.st22{fill:#8AC3DA;}
	.st23{fill-rule:evenodd;clip-rule:evenodd;fill:#F7E3C7;}
	.st24{fill-rule:evenodd;clip-rule:evenodd;fill:#87796F;}
	.st25{fill:#B9C239;}
	.st26{fill:#D4DB56;}
	.st27{fill-rule:evenodd;clip-rule:evenodd;fill:#F16C7A;}
	.st28{fill-rule:evenodd;clip-rule:evenodd;fill:#F6E2C6;}
	.st29{fill:#F6E2C6;}
	.st30{fill-rule:evenodd;clip-rule:evenodd;fill:#FAE6CA;}
	.st31{fill:#B8C136;}
</style>
<g>
	<g>
		<g>
			<path class="st3" d="M47.927,26.302c-0.974,11.564-13.024,13.39-13.024,13.39c10.347,0.487,12.925,14.059,12.925,14.059
				c0.221-9.677,13.321-14.202,13.321-14.202C51.336,38.961,47.927,26.302,47.927,26.302z"/>
		</g>
	</g>
	<g>
		<g>
			<path class="st0" d="M61.239,38.051c-8.605-0.514-11.832-12.024-11.864-12.14c-0.191-0.703-0.864-1.166-1.583-1.102
				c-0.725,0.066-1.298,0.642-1.359,1.367c-0.86,10.215-11.313,11.963-11.754,12.032c-0.763,0.115-1.313,0.79-1.273,1.561
				c0.04,0.77,0.657,1.384,1.427,1.421c9.028,0.425,11.499,12.719,11.523,12.843c0.137,0.711,0.759,1.217,1.472,1.217
				c0.042,0,0.084-0.001,0.126-0.005c0.764-0.064,1.357-0.693,1.375-1.459c0.195-8.509,12.192-12.777,12.313-12.819
				c0.675-0.235,1.092-0.915,0.994-1.623C62.537,38.635,61.953,38.094,61.239,38.051z M47.673,48.397
				c-1.357-3.13-3.709-6.907-7.587-8.876c2.931-1.405,6.409-3.913,8.202-8.273c1.551,3.071,4.2,6.88,8.335,8.722
				C53.615,41.61,49.699,44.376,47.673,48.397z"/>
		</g>
	</g>
	<g>
		<g>
			<path class="st3" d="M26.229,43.283c-0.689,8.179-9.212,9.47-9.212,9.47c7.318,0.344,9.142,9.944,9.142,9.944
				c0.156-6.844,9.422-10.045,9.422-10.045C28.639,52.237,26.229,43.283,26.229,43.283z"/>
		</g>
	</g>
	<g>
		<g>
			<path class="st0" d="M35.67,51.154c-5.766-0.345-7.972-8.185-7.994-8.264c-0.19-0.702-0.851-1.171-1.582-1.102
				c-0.726,0.065-1.299,0.642-1.36,1.368c-0.579,6.871-7.646,8.066-7.942,8.113c-0.763,0.115-1.313,0.79-1.273,1.561
				c0.04,0.77,0.657,1.384,1.427,1.421c6.036,0.284,7.724,8.644,7.739,8.726c0.135,0.713,0.759,1.22,1.472,1.22
				c0.042,0,0.083-0.001,0.125-0.005c0.765-0.063,1.358-0.694,1.376-1.461c0.13-5.709,8.332-8.634,8.413-8.662
				c0.677-0.234,1.094-0.913,0.996-1.622C36.969,51.739,36.385,51.197,35.67,51.154z M26.085,57.95
				c-0.924-1.886-2.34-3.947-4.447-5.28c1.856-1.042,3.697-2.63,4.871-4.917c1.057,1.874,2.654,3.955,4.941,5.224
				C29.601,54.078,27.461,55.718,26.085,57.95z"/>
		</g>
	</g>
	<g>
		<g>
			<path class="st3" d="M26.229,16.625c-0.689,8.179-9.212,9.471-9.212,9.471c7.318,0.344,9.142,9.944,9.142,9.944
				c0.156-6.845,9.422-10.045,9.422-10.045C28.639,25.579,26.229,16.625,26.229,16.625z"/>
		</g>
	</g>
	<g>
		<g>
			<path class="st0" d="M35.67,24.497c-5.767-0.345-7.973-8.186-7.994-8.265c-0.19-0.702-0.851-1.164-1.582-1.102
				c-0.726,0.065-1.299,0.642-1.36,1.368c-0.579,6.871-7.646,8.067-7.942,8.114c-0.763,0.115-1.313,0.79-1.273,1.561
				c0.04,0.77,0.657,1.384,1.428,1.421c6.035,0.284,7.723,8.644,7.739,8.726c0.135,0.713,0.759,1.22,1.472,1.22
				c0.042,0,0.083-0.001,0.125-0.005c0.765-0.063,1.358-0.694,1.376-1.461c0.13-5.709,8.332-8.634,8.413-8.662
				c0.676-0.234,1.094-0.913,0.996-1.622C36.969,25.082,36.385,24.54,35.67,24.497z M26.085,31.292
				c-0.924-1.885-2.34-3.947-4.447-5.28c1.856-1.041,3.697-2.63,4.871-4.916c1.057,1.874,2.655,3.954,4.941,5.224
				C29.601,27.42,27.461,29.06,26.085,31.292z"/>
		</g>
	</g>
	<g>
		<g>
			<path class="st5" d="M229.69,129.456h-9.19c-4.984-17.445-16.922-32.651-33.245-43.484c-0.525-6.523,3.133-12.26,8.583-14.817
				c1.57-0.737,2.623-2.256,2.623-3.99v-0.282c0-1.816-1.085-3.48-2.775-4.144c-2.475-0.972-5.167-1.512-7.988-1.512
				c-9.501,0-17.586,6.028-20.664,14.464c-11.92-4.471-25.146-6.964-39.073-6.964c-47.852,0-87.445,29.374-94.119,67.611
				c-9.132,5.979-14.564,15.751-17.532,26.672c-2.303,8.473,10.823,12.235,13.132,3.739c0.94-3.457,2.195-7.088,3.963-10.383
				c3.018,23.241,18.162,43.453,40.056,56.203v16.886c0,5.672,4.598,10.271,10.271,10.271h25.459
				c5.672,0,10.271-4.598,10.271-10.271v-2.932c2.801,0.206,5.634,0.322,8.5,0.322c2.865,0,5.7-0.107,8.5-0.314v2.924
				c0,5.672,4.598,10.271,10.271,10.271h25.459c5.672,0,10.271-4.598,10.271-10.271V212.57
				c18.853-10.979,32.705-27.487,38.114-46.703h9.116c5.672,0,10.271-4.598,10.271-10.271v-15.869
				C239.96,134.054,235.362,129.456,229.69,129.456z"/>
		</g>
	</g>
	<g>
		<g>
			<path class="st0" d="M229.69,127.956h-8.068c-5.085-16.74-16.723-31.884-32.911-42.814c-0.161-5.409,2.83-10.313,7.765-12.628
				c2.15-1.008,3.485-3.058,3.485-5.348v-0.282c0-2.438-1.498-4.665-3.727-5.54c-2.73-1.072-5.602-1.616-8.536-1.616
				c-9.328,0-17.791,5.589-21.513,14.055c-12.09-4.35-24.942-6.555-38.225-6.555c-23.312,0-45.821,7.015-63.382,19.752
				c-17.263,12.521-28.642,29.712-32.101,48.466c-8.331,5.672-14.256,14.81-17.615,27.171c-1.408,5.181,1.947,9.003,5.989,10.102
				c3.945,1.072,8.658-0.5,10.038-5.575c0.564-2.076,1.176-3.966,1.846-5.696c4.282,20.867,18.339,39.574,39.225,51.981v16.028
				c0,6.49,5.28,11.771,11.771,11.771h25.459c6.49,0,11.77-5.28,11.77-11.771v-1.328c4.818,0.292,9.382,0.283,14,0.007v1.321
				c0,6.49,5.28,11.771,11.771,11.771h6.698c0.829,0,1.5-0.671,1.5-1.5s-0.671-1.5-1.5-1.5h-6.698c-4.836,0-8.771-3.935-8.771-8.771
				v-2.924c0-0.417-0.174-0.815-0.479-1.099c-0.305-0.283-0.714-0.425-1.131-0.397c-5.503,0.405-10.979,0.418-16.78-0.007
				c-0.416-0.027-0.825,0.113-1.131,0.397c-0.306,0.284-0.479,0.682-0.479,1.099v2.932c0,4.836-3.935,8.771-8.77,8.771H83.731
				c-4.836,0-8.771-3.935-8.771-8.771v-16.886c0-0.534-0.284-1.027-0.745-1.296c-22.116-12.879-36.448-32.963-39.323-55.101
				c-0.083-0.646-0.575-1.164-1.216-1.282c-0.642-0.121-1.284,0.192-1.593,0.766c-1.61,3.001-2.947,6.501-4.088,10.698
				c-0.908,3.342-3.846,4.15-6.356,3.467c-2.523-0.686-4.815-2.987-3.881-6.419c3.233-11.899,8.921-20.583,16.906-25.811
				c0.347-0.227,0.585-0.588,0.656-0.997c3.182-18.228,14.198-34.986,31.021-47.188c17.053-12.369,38.937-19.181,61.621-19.181
				c13.427,0,26.396,2.311,38.546,6.869c0.374,0.141,0.79,0.125,1.154-0.042c0.363-0.167,0.645-0.473,0.782-0.849
				c2.941-8.062,10.679-13.479,19.255-13.479c2.558,0,5.06,0.474,7.439,1.408c1.091,0.428,1.823,1.533,1.823,2.748v0.282
				c0,1.114-0.674,2.123-1.76,2.632c-6.294,2.953-10,9.349-9.441,16.295c0.037,0.459,0.282,0.875,0.666,1.13
				c16.273,10.799,27.862,25.945,32.633,42.646c0.184,0.644,0.772,1.088,1.442,1.088h9.19c4.836,0,8.771,3.935,8.771,8.771v15.87
				c0,4.836-3.935,8.771-8.771,8.771h-9.115c-0.672,0-1.262,0.447-1.444,1.094c-5.214,18.524-18.505,34.794-37.425,45.813
				c-0.461,0.269-0.745,0.763-0.745,1.296v16.888c0,4.836-3.935,8.771-8.771,8.771h-5.031c-0.829,0-1.5,0.671-1.5,1.5
				s0.671,1.5,1.5,1.5h5.031c6.49,0,11.771-5.28,11.771-11.771v-16.03c18.832-11.186,32.18-27.482,37.741-46.061h7.989
				c6.49,0,11.771-5.28,11.771-11.771v-15.87C241.46,133.236,236.18,127.956,229.69,127.956z"/>
		</g>
	</g>
	<g>
		<g>
			
				<ellipse transform="matrix(0.9239 -0.3827 0.3827 0.9239 -10.2548 52.9455)" class="st3" cx="127.96" cy="52.25" rx="35.978" ry="35.979"/>
		</g>
	</g>
	<g>
		<g>
			<path class="st0" d="M127.96,14.771c-20.666,0-37.479,16.813-37.479,37.479s16.813,37.479,37.479,37.479
				s37.479-16.813,37.479-37.479S148.625,14.771,127.96,14.771z M127.96,86.729c-19.012,0-34.479-15.467-34.479-34.479
				s15.467-34.479,34.479-34.479s34.479,15.467,34.479,34.479S146.972,86.729,127.96,86.729z"/>
		</g>
	</g>
	<g>
		<g>
			<path class="st4" d="M131.391,48.207c-5.207-1.96-7.351-3.246-7.351-5.268c0-1.715,1.286-3.43,5.269-3.43
				c4.41,0,7.228,1.408,8.821,2.083l1.777-6.921c-2.022-0.98-4.779-1.839-8.883-2.022v-5.391h-6.003v5.819
				c-6.555,1.287-10.353,5.513-10.353,10.905c0,5.942,4.472,9.006,11.026,11.21c4.533,1.532,6.494,3.002,6.494,5.329
				c0,2.451-2.389,3.799-5.881,3.799c-3.982,0-7.596-1.287-10.169-2.695l-1.838,7.167c2.328,1.347,6.31,2.45,10.413,2.634v5.819
				h6.003v-6.249c7.045-1.224,10.905-5.88,10.905-11.332C141.621,54.149,138.68,50.78,131.391,48.207z"/>
		</g>
	</g>
	<g>
		<g>
			<path class="st0" d="M131.919,46.803c-4.591-1.728-6.379-2.812-6.379-3.864c0-1.679,2.361-1.93,3.769-1.93
				c3.712,0,6.158,1.063,7.776,1.766l0.46,0.198c0.403,0.169,0.859,0.157,1.25-0.037c0.392-0.193,0.679-0.548,0.788-0.971
				l1.777-6.921c0.177-0.691-0.157-1.412-0.799-1.723c-2.32-1.125-4.961-1.809-8.037-2.077v-3.986c0-0.829-0.671-1.5-1.5-1.5h-6.003
				c-0.829,0-1.5,0.671-1.5,1.5v4.623c-6.42,1.678-10.353,6.227-10.353,12.101c0,7.604,6.439,10.746,12.046,12.631
				c4.811,1.625,5.474,2.838,5.474,3.908c0,2.188-3.649,2.299-4.381,2.299c-4.229,0-7.735-1.573-9.449-2.511
				c-0.407-0.223-0.894-0.245-1.317-0.06c-0.425,0.185-0.741,0.555-0.856,1.003l-1.838,7.167c-0.167,0.651,0.12,1.334,0.702,1.671
				c2.388,1.382,5.993,2.392,9.665,2.735v4.42c0,0.829,0.671,1.5,1.5,1.5h6.003c0.829,0,1.5-0.671,1.5-1.5v-5.028
				c6.668-1.606,10.905-6.426,10.905-12.553C143.121,53.42,139.762,49.571,131.919,46.803z M130.459,69.517
				c-0.719,0.125-1.243,0.749-1.243,1.478v4.749h-3.003v-4.319c0-0.802-0.631-1.462-1.433-1.499
				c-3.148-0.141-6.431-0.875-8.73-1.922l1.081-4.216c2.194,0.977,5.431,2.032,9.175,2.032c4.484,0,7.381-2.08,7.381-5.299
				c0-3.702-3.611-5.432-7.516-6.75c-7.012-2.358-10.004-5.286-10.004-9.789c0-4.783,3.417-8.309,9.142-9.433
				c0.704-0.138,1.211-0.755,1.211-1.472v-4.319h3.003v3.891c0,0.803,0.632,1.463,1.433,1.499c2.767,0.123,5.13,0.578,7.18,1.385
				l-1.026,3.998c-1.77-0.71-4.325-1.521-7.802-1.521c-4.99,0-6.769,2.547-6.769,4.93c0,3.279,3.607,4.897,8.352,6.683
				c7.66,2.704,9.229,5.969,9.229,10.041C140.121,64.706,136.419,68.481,130.459,69.517z"/>
		</g>
	</g>
	<g>
		<g>
			<path class="st4" d="M152.46,93.729h-49c-4.418,0-8,3.582-8,8c0,4.418,3.582,8,8,8h49c4.418,0,8-3.582,8-8
				C160.46,97.31,156.878,93.729,152.46,93.729z"/>
		</g>
	</g>
	<g>
		<g>
			<path class="st0" d="M152.46,92.229h-15.648c-0.829,0-1.5,0.671-1.5,1.5s0.671,1.5,1.5,1.5h15.648c3.584,0,6.5,2.916,6.5,6.5
				s-2.916,6.5-6.5,6.5h-49c-3.584,0-6.5-2.916-6.5-6.5s2.916-6.5,6.5-6.5h19.649c0.829,0,1.5-0.671,1.5-1.5s-0.671-1.5-1.5-1.5
				H103.46c-5.238,0-9.5,4.262-9.5,9.5s4.262,9.5,9.5,9.5h49c5.238,0,9.5-4.262,9.5-9.5S157.698,92.229,152.46,92.229z"/>
		</g>
	</g>
	<g>
		<g>
			<path class="st0" d="M199.811,115.109c-3.267,0-5.915,2.649-5.915,5.915c0,3.267,2.648,5.916,5.915,5.916
				c3.267,0,5.915-2.648,5.915-5.916C205.727,117.758,203.078,115.109,199.811,115.109z"/>
		</g>
	</g>
	<g>
		<g>
			<path class="st19" d="M187.989,130.993c-5.627,0-10.19,3.41-10.19,7.617c0,4.207,4.562,7.618,10.19,7.618
				c5.628,0,10.19-3.41,10.19-7.618C198.179,134.404,193.617,130.993,187.989,130.993z"/>
		</g>
	</g>
	<g>
		<g>
			<path class="st25" d="M127.96,17.769c-2.75,0-5.43,0.33-8,0.94c8.76,2.09,16.23,7.53,20.98,14.88c0.19,0.18,0.33,0.4,0.41,0.65
				c0,0,0,0,0,0.01c3.23,5.24,5.09,11.41,5.09,18c0,16.25-11.31,29.92-26.48,33.54c2.57,0.61,5.25,0.94,8,0.94
				c19.01,0,34.48-15.47,34.48-34.48S146.97,17.769,127.96,17.769z"/>
		</g>
	</g>
</g>
</svg>
