<?xml version="1.0" encoding="utf-8"?>
<!-- Generator: Adobe Illustrator 22.0.1, SVG Export Plug-In . SVG Version: 6.00 Build 0)  -->
<svg version="1.1" id="Layer_1" xmlns="http://www.w3.org/2000/svg" xmlns:xlink="http://www.w3.org/1999/xlink" x="0px" y="0px"
	 viewBox="0 0 256 256" style="enable-background:new 0 0 256 256;" xml:space="preserve">
<style type="text/css">
	.st0{fill:#3A312A;}
	.st1{fill:#8AC6DD;}
	.st2{fill:#F16C7A;}
	.st3{fill:#D7E057;}
	.st4{fill:#87796F;}
	.st5{fill:#FCE8CB;}
	.st6{fill:#DECAAD;}
	.st7{fill:#D6DF58;}
	.st8{fill:#FAE6CA;}
	.st9{fill:#DDC9AC;}
	.st10{fill:#D5DE58;}
	.st11{fill:#ED6E7A;}
	.st12{fill:#8AC5DC;}
	.st13{fill:#6CA8BF;}
	.st14{fill:#695B51;}
	.st15{fill:#F8E4C8;}
	.st16{fill:#EF6D7A;}
	.st17{fill-rule:evenodd;clip-rule:evenodd;fill:#F8E4C8;}
	.st18{fill:#89C4DB;}
	.st19{fill:#F59689;}
	.st20{fill:#D34E5C;}
	.st21{fill:#F7E3C7;}
	.st22{fill:#8AC3DA;}
	.st23{fill-rule:evenodd;clip-rule:evenodd;fill:#F7E3C7;}
	.st24{fill-rule:evenodd;clip-rule:evenodd;fill:#87796F;}
	.st25{fill:#B9C239;}
	.st26{fill:#D4DB56;}
	.st27{fill-rule:evenodd;clip-rule:evenodd;fill:#F16C7A;}
	.st28{fill-rule:evenodd;clip-rule:evenodd;fill:#F6E2C6;}
	.st29{fill:#F6E2C6;}
	.st30{fill-rule:evenodd;clip-rule:evenodd;fill:#FAE6CA;}
	.st31{fill:#B8C136;}
</style>
<g>
	<g>
		<g>
			<path class="st4" d="M222.395,16.135H33.605c-9.447,0-17.105,7.658-17.105,17.106V163.53c0,9.447,7.658,17.105,17.105,17.105
				h188.789c9.447,0,17.105-7.658,17.105-17.105V33.241C239.5,23.794,231.842,16.135,222.395,16.135z"/>
		</g>
	</g>
	<g>
		<g>
			<path class="st0" d="M222.395,14.635H33.605C23.347,14.635,15,22.981,15,33.241V163.53c0,10.259,8.347,18.606,18.605,18.606
				h188.789c10.259,0,18.605-8.346,18.605-18.606V33.241C241,22.981,232.653,14.635,222.395,14.635z M238,163.53
				c0,8.605-7.001,15.606-15.605,15.606H33.605c-8.604,0-15.605-7.001-15.605-15.606V33.241c0-8.605,7.001-15.605,15.605-15.605
				h188.789c8.604,0,15.605,7,15.605,15.605V163.53z"/>
		</g>
	</g>
	<g>
		<g>
			<path class="st8" d="M214.97,28.64H41.03c-6.58,0-11.92,5.33-11.92,11.92v115.66c0,6.58,5.34,11.92,11.92,11.92h173.94
				c6.58,0,11.92-5.34,11.92-11.92V40.56C226.89,33.97,221.55,28.64,214.97,28.64z"/>
		</g>
	</g>
	<g>
		<g>
			<path class="st0" d="M214.97,27.14H86.333c-0.828,0-1.5,0.671-1.5,1.5c0,0.829,0.672,1.5,1.5,1.5H214.97
				c5.745,0,10.42,4.674,10.42,10.42v115.66c0,5.746-4.675,10.42-10.42,10.42H41.03c-5.745,0-10.42-4.674-10.42-10.42V40.56
				c0-5.746,4.675-10.42,10.42-10.42h32.638c0.828,0,1.5-0.671,1.5-1.5c0-0.829-0.672-1.5-1.5-1.5H41.03
				c-7.399,0-13.42,6.02-13.42,13.42v115.66c0,7.4,6.021,13.42,13.42,13.42H214.97c7.399,0,13.42-6.02,13.42-13.42V40.56
				C228.39,33.16,222.369,27.14,214.97,27.14z"/>
		</g>
	</g>
	<g>
		<g>
			<rect x="113.688" y="180.635" class="st4" width="28.625" height="35.593"/>
		</g>
	</g>
	<g>
		<g>
			<path class="st0" d="M142.313,179.135h-28.625c-0.828,0-1.5,0.671-1.5,1.5v35.593c0,0.829,0.672,1.5,1.5,1.5h28.625
				c0.828,0,1.5-0.671,1.5-1.5v-35.593C143.813,179.807,143.141,179.135,142.313,179.135z M140.813,214.728h-25.625v-32.593h25.625
				V214.728z"/>
		</g>
	</g>
	<g>
		<g>
			<path class="st4" d="M148.296,216.229h-40.593c-12.927,0-23.407,10.479-23.407,23.407h87.406
				C171.703,226.708,161.224,216.229,148.296,216.229z"/>
		</g>
	</g>
	<g>
		<g>
			<path class="st0" d="M148.297,214.728h-40.594c-13.733,0-24.906,11.173-24.906,24.907c0,0.829,0.672,1.5,1.5,1.5h37.584
				c0.828,0,1.5-0.671,1.5-1.5c0-0.829-0.672-1.5-1.5-1.5H85.848c0.773-11.382,10.28-20.407,21.855-20.407h40.594
				c11.575,0,21.082,9.024,21.855,20.407h-34.701c-0.828,0-1.5,0.671-1.5,1.5c0,0.829,0.672,1.5,1.5,1.5h36.252
				c0.828,0,1.5-0.671,1.5-1.5C173.203,225.902,162.03,214.728,148.297,214.728z"/>
		</g>
	</g>
	<g>
		<g>
			<path class="st9" d="M214.97,30.135h-15c5.74,0,10.42,4.67,10.42,10.42v115.66c0,5.75-4.68,10.42-10.42,10.42h15
				c5.74,0,10.42-4.67,10.42-10.42V40.555C225.39,34.805,220.71,30.135,214.97,30.135z"/>
		</g>
	</g>
	<g>
		<g>
			<path class="st10" d="M47.671,203.469c-0.974,11.564-13.025,13.389-13.025,13.389c10.346,0.487,12.925,14.059,12.925,14.059
				c0.221-9.677,13.321-14.202,13.321-14.202C51.079,216.129,47.671,203.469,47.671,203.469z"/>
		</g>
	</g>
	<g>
		<g>
			<path class="st0" d="M60.982,215.218c-8.604-0.514-11.832-12.024-11.863-12.141c-0.19-0.702-0.849-1.161-1.584-1.102
				c-0.725,0.066-1.298,0.642-1.359,1.367c-0.859,10.215-11.313,11.964-11.754,12.033c-0.763,0.115-1.313,0.79-1.273,1.56
				c0.04,0.77,0.657,1.384,1.428,1.421c9.028,0.425,11.499,12.718,11.522,12.842c0.138,0.711,0.76,1.217,1.473,1.217
				c0.042,0,0.084-0.002,0.126-0.005c0.765-0.064,1.357-0.693,1.375-1.459c0.193-8.508,12.19-12.777,12.312-12.819
				c0.676-0.235,1.092-0.914,0.994-1.623C62.279,215.802,61.696,215.261,60.982,215.218z M47.417,225.565
				c-1.357-3.13-3.709-6.908-7.588-8.877c2.931-1.405,6.409-3.913,8.202-8.273c1.551,3.071,4.2,6.88,8.334,8.722
				C53.358,218.777,49.443,221.543,47.417,225.565z"/>
		</g>
	</g>
	<g>
		<g>
			<path class="st10" d="M25.972,220.45c-0.689,8.179-9.212,9.471-9.212,9.471c7.318,0.344,9.142,9.944,9.142,9.944
				c0.156-6.845,9.422-10.045,9.422-10.045C28.383,229.404,25.972,220.45,25.972,220.45z"/>
		</g>
	</g>
	<g>
		<g>
			<path class="st0" d="M35.414,228.322c-5.767-0.345-7.972-8.186-7.993-8.265c-0.19-0.702-0.866-1.163-1.582-1.102
				c-0.726,0.065-1.3,0.642-1.361,1.368c-0.579,6.871-7.646,8.067-7.942,8.114c-0.763,0.115-1.313,0.79-1.273,1.56
				c0.04,0.77,0.657,1.384,1.428,1.421c6.035,0.284,7.724,8.644,7.739,8.726c0.136,0.712,0.759,1.22,1.473,1.22
				c0.041,0,0.083-0.001,0.125-0.005c0.765-0.063,1.358-0.694,1.376-1.461c0.13-5.709,8.331-8.634,8.412-8.662
				c0.676-0.234,1.093-0.913,0.996-1.622C36.713,228.906,36.128,228.365,35.414,228.322z M25.829,235.117
				c-0.924-1.886-2.34-3.947-4.447-5.28c1.856-1.041,3.697-2.63,4.871-4.917c1.057,1.874,2.654,3.955,4.941,5.224
				C29.345,231.245,27.205,232.884,25.829,235.117z"/>
		</g>
	</g>
	<g>
		<g>
			<path class="st10" d="M25.972,193.792c-0.689,8.179-9.212,9.471-9.212,9.471c7.318,0.345,9.142,9.944,9.142,9.944
				c0.156-6.845,9.422-10.045,9.422-10.045C28.383,202.747,25.972,193.792,25.972,193.792z"/>
		</g>
	</g>
	<g>
		<g>
			<path class="st0" d="M35.414,201.664c-5.767-0.345-7.972-8.185-7.993-8.264c-0.19-0.702-0.866-1.163-1.582-1.102
				c-0.726,0.065-1.3,0.642-1.361,1.368c-0.579,6.871-7.646,8.066-7.942,8.113c-0.763,0.115-1.313,0.79-1.273,1.56
				c0.04,0.77,0.657,1.384,1.428,1.421c6.035,0.284,7.724,8.645,7.739,8.726c0.136,0.713,0.759,1.22,1.473,1.22
				c0.041,0,0.083-0.001,0.125-0.005c0.765-0.063,1.358-0.694,1.376-1.461c0.13-5.71,8.331-8.634,8.412-8.662
				c0.676-0.234,1.093-0.913,0.996-1.622C36.713,202.248,36.128,201.707,35.414,201.664z M25.829,208.459
				c-0.924-1.885-2.34-3.947-4.447-5.28c1.856-1.041,3.697-2.63,4.871-4.917c1.057,1.873,2.654,3.955,4.941,5.224
				C29.345,204.588,27.205,206.227,25.829,208.459z"/>
		</g>
	</g>
	<g>
		<g>
			<path class="st0" d="M199.451,52.315c-0.561-0.611-1.509-0.651-2.119-0.093l-36.005,32.965l-33.131-18.2
				c-0.6-0.328-1.343-0.212-1.811,0.283l-33.91,35.796L58.76,82.004c-0.702-0.44-1.627-0.225-2.067,0.477
				c-0.438,0.703-0.225,1.628,0.477,2.067l34.755,21.712c0.245,0.153,0.52,0.228,0.794,0.228c0.401,0,0.798-0.161,1.09-0.468
				l33.958-35.846l33.058,18.16c0.565,0.309,1.262,0.226,1.735-0.208l36.798-33.691C199.969,53.875,200.011,52.926,199.451,52.315z"
				/>
		</g>
	</g>
	<g>
		<g>
			
				<ellipse transform="matrix(0.5257 -0.8507 0.8507 0.5257 -45.1282 129.0338)" class="st11" cx="93.154" cy="104.988" rx="9.81" ry="9.81"/>
		</g>
	</g>
	<g>
		<g>
			<path class="st0" d="M93.153,93.678c-6.236,0-11.31,5.073-11.31,11.31c0,6.236,5.073,11.31,11.31,11.31
				c6.236,0,11.311-5.074,11.311-11.31C104.464,98.751,99.39,93.678,93.153,93.678z M93.153,113.298c-4.582,0-8.31-3.728-8.31-8.31
				c0-4.582,3.728-8.31,8.31-8.31c4.582,0,8.311,3.728,8.311,8.31C101.464,109.57,97.735,113.298,93.153,113.298z"/>
		</g>
	</g>
	<g>
		<g>
			
				<ellipse transform="matrix(0.9732 -0.2298 0.2298 0.9732 -12.3059 31.1502)" class="st10" cx="127.614" cy="68.42" rx="9.81" ry="9.81"/>
		</g>
	</g>
	<g>
		<g>
			<path class="st0" d="M127.614,57.11c-6.236,0-11.31,5.074-11.31,11.31c0,6.236,5.073,11.31,11.31,11.31
				c6.236,0,11.31-5.074,11.31-11.31C138.924,62.184,133.851,57.11,127.614,57.11z M127.614,76.73c-4.582,0-8.31-3.728-8.31-8.31
				c0-4.582,3.728-8.31,8.31-8.31c4.582,0,8.31,3.728,8.31,8.31C135.924,73.002,132.196,76.73,127.614,76.73z"/>
		</g>
	</g>
	<g>
		<g>
			<path class="st12" d="M161.545,77.135c-5.418,0-9.81,4.392-9.81,9.81s4.392,9.81,9.81,9.81s9.81-4.392,9.81-9.81
				S166.963,77.135,161.545,77.135z"/>
		</g>
	</g>
	<g>
		<g>
			<path class="st0" d="M161.546,75.635c-6.236,0-11.311,5.074-11.311,11.31c0,6.236,5.074,11.31,11.311,11.31
				s11.31-5.074,11.31-11.31C172.855,80.708,167.782,75.635,161.546,75.635z M161.546,95.255c-4.582,0-8.311-3.728-8.311-8.31
				c0-4.582,3.729-8.31,8.311-8.31s8.31,3.728,8.31,8.31C169.855,91.527,166.128,95.255,161.546,95.255z"/>
		</g>
	</g>
	<g>
		<g>
			<path class="st4" d="M198.345,43.518c-5.418,0-9.81,4.392-9.81,9.81c0,5.418,4.392,9.81,9.81,9.81c5.418,0,9.81-4.392,9.81-9.81
				C208.155,47.91,203.763,43.518,198.345,43.518z"/>
		</g>
	</g>
	<g>
		<g>
			<path class="st0" d="M198.345,42.018c-6.236,0-11.31,5.074-11.31,11.31c0,6.236,5.073,11.31,11.31,11.31
				s11.311-5.074,11.311-11.31C209.655,47.092,204.581,42.018,198.345,42.018z M198.345,61.638c-4.582,0-8.31-3.728-8.31-8.31
				c0-4.582,3.728-8.31,8.31-8.31s8.311,3.728,8.311,8.31C206.655,57.91,202.927,61.638,198.345,61.638z"/>
		</g>
	</g>
	<g>
		<g>
			
				<ellipse transform="matrix(0.0985 -0.9951 0.9951 0.0985 -30.7057 132.8331)" class="st4" cx="57.965" cy="83.365" rx="9.81" ry="9.81"/>
		</g>
	</g>
	<g>
		<g>
			<path class="st0" d="M57.965,72.055c-6.236,0-11.31,5.074-11.31,11.31c0,6.236,5.073,11.31,11.31,11.31
				c6.236,0,11.311-5.074,11.311-11.31C69.275,77.128,64.201,72.055,57.965,72.055z M57.965,91.675c-4.582,0-8.31-3.728-8.31-8.31
				c0-4.582,3.727-8.31,8.31-8.31c4.582,0,8.311,3.728,8.311,8.31C66.275,87.947,62.547,91.675,57.965,91.675z"/>
		</g>
	</g>
	<g>
		<g>
			<rect x="48.155" y="117.073" class="st4" width="21.354" height="37.455"/>
		</g>
	</g>
	<g>
		<g>
			<path class="st0" d="M69.51,115.573H48.155c-0.828,0-1.5,0.671-1.5,1.5v37.455c0,0.829,0.672,1.5,1.5,1.5H69.51
				c0.828,0,1.5-0.671,1.5-1.5v-37.455C71.01,116.245,70.338,115.573,69.51,115.573z M68.01,153.028H49.655v-34.455H68.01V153.028z"
				/>
		</g>
	</g>
	<g>
		<g>
			<rect x="82.358" y="138.939" class="st11" width="21.354" height="15.589"/>
		</g>
	</g>
	<g>
		<g>
			<path class="st0" d="M103.713,137.439H82.358c-0.828,0-1.5,0.671-1.5,1.5v15.589c0,0.829,0.672,1.5,1.5,1.5h21.354
				c0.828,0,1.5-0.671,1.5-1.5v-15.589C105.213,138.11,104.541,137.439,103.713,137.439z M102.213,153.028H83.858v-12.589h18.354
				V153.028z"/>
		</g>
	</g>
	<g>
		<g>
			<rect x="116.561" y="101.981" class="st10" width="21.354" height="52.547"/>
		</g>
	</g>
	<g>
		<g>
			<path class="st0" d="M137.916,100.481h-21.354c-0.828,0-1.5,0.671-1.5,1.5v52.547c0,0.829,0.672,1.5,1.5,1.5h21.354
				c0.828,0,1.5-0.671,1.5-1.5v-52.547C139.416,101.152,138.744,100.481,137.916,100.481z M136.416,153.028h-18.354v-49.547h18.354
				V153.028z"/>
		</g>
	</g>
	<g>
		<g>
			<rect x="150.764" y="120.653" class="st12" width="21.354" height="33.875"/>
		</g>
	</g>
	<g>
		<g>
			<path class="st0" d="M172.119,119.153h-21.354c-0.828,0-1.5,0.671-1.5,1.5v33.875c0,0.829,0.672,1.5,1.5,1.5h21.354
				c0.828,0,1.5-0.671,1.5-1.5v-33.875C173.619,119.825,172.947,119.153,172.119,119.153z M170.619,153.028h-18.354v-30.875h18.354
				V153.028z"/>
		</g>
	</g>
	<g>
		<g>
			<rect x="184.967" y="87.142" class="st4" width="21.354" height="67.386"/>
		</g>
	</g>
	<g>
		<g>
			<path class="st0" d="M206.322,85.642h-21.354c-0.828,0-1.5,0.671-1.5,1.5v67.386c0,0.829,0.672,1.5,1.5,1.5h21.354
				c0.828,0,1.5-0.671,1.5-1.5V87.142C207.822,86.313,207.15,85.642,206.322,85.642z M204.822,153.028h-18.354V88.642h18.354
				V153.028z"/>
		</g>
	</g>
</g>
</svg>
