<?xml version="1.0" encoding="utf-8"?>
<!-- Generator: Adobe Illustrator 22.0.1, SVG Export Plug-In . SVG Version: 6.00 Build 0)  -->
<svg version="1.1" id="Layer_1" xmlns="http://www.w3.org/2000/svg" xmlns:xlink="http://www.w3.org/1999/xlink" x="0px" y="0px"
	 viewBox="0 0 256 256" style="enable-background:new 0 0 256 256;" xml:space="preserve">
<style type="text/css">
	.st0{fill:#3A312A;}
	.st1{fill:#8AC6DD;}
	.st2{fill:#F16C7A;}
	.st3{fill:#D7E057;}
	.st4{fill:#87796F;}
	.st5{fill:#FCE8CB;}
	.st6{fill:#DECAAD;}
	.st7{fill:#D6DF58;}
	.st8{fill:#FAE6CA;}
	.st9{fill:#DDC9AC;}
	.st10{fill:#D5DE58;}
	.st11{fill:#ED6E7A;}
	.st12{fill:#8AC5DC;}
	.st13{fill:#6CA8BF;}
	.st14{fill:#695B51;}
	.st15{fill:#F8E4C8;}
	.st16{fill:#EF6D7A;}
	.st17{fill-rule:evenodd;clip-rule:evenodd;fill:#F8E4C8;}
	.st18{fill:#89C4DB;}
	.st19{fill:#F59689;}
	.st20{fill:#D34E5C;}
	.st21{fill:#F7E3C7;}
	.st22{fill:#8AC3DA;}
	.st23{fill-rule:evenodd;clip-rule:evenodd;fill:#F7E3C7;}
	.st24{fill-rule:evenodd;clip-rule:evenodd;fill:#87796F;}
	.st25{fill:#B9C239;}
	.st26{fill:#D4DB56;}
	.st27{fill-rule:evenodd;clip-rule:evenodd;fill:#F16C7A;}
	.st28{fill-rule:evenodd;clip-rule:evenodd;fill:#F6E2C6;}
	.st29{fill:#F6E2C6;}
	.st30{fill-rule:evenodd;clip-rule:evenodd;fill:#FAE6CA;}
	.st31{fill:#B8C136;}
</style>
<g>
	<g>
		<g>
			
				<ellipse transform="matrix(0.7071 -0.7071 0.7071 0.7071 25.6932 160.2502)" class="st3" cx="206.286" cy="49.111" rx="32.839" ry="32.839"/>
		</g>
	</g>
	<g>
		<g>
			<path class="st0" d="M206.286,14.771c-18.935,0-34.339,15.405-34.339,34.339c0,18.935,15.405,34.339,34.339,34.339
				c18.935,0,34.339-15.404,34.339-34.339C240.625,30.176,225.22,14.771,206.286,14.771z M206.286,80.45
				c-17.281,0-31.339-14.059-31.339-31.339c0-17.281,14.059-31.339,31.339-31.339c17.281,0,31.339,14.059,31.339,31.339
				C237.625,66.391,223.566,80.45,206.286,80.45z"/>
		</g>
	</g>
	<g>
		<g>
			<path class="st4" d="M212.276,59.388c-3.23,0-5.327-1.533-6.294-4.598h7.45l1.063-4.475h-9.152v-1.303
				c0-0.623,0.016-1.098,0.049-1.426h8.654l1.063-4.475h-8.857c1.115-2.852,3.262-4.278,6.441-4.278
				c2.426,0,4.754,1.025,6.983,3.073l2.213-8.925c-3.213-1.672-6.385-2.508-9.515-2.508c-9.573,0-15.424,4.213-17.555,12.638h-2.68
				l-1.162,4.475h3.276c-0.033,0.295-0.049,0.771-0.049,1.426c0,0.623,0.016,1.057,0.049,1.303h-2.705l-1.186,4.475h4.456
				c0.623,3.294,2.336,6.278,5.138,8.95c2.803,2.672,7.13,4.008,12.982,4.008c3.622,0,6.712-0.876,9.269-2.631v-9.171
				C219.127,58.241,215.816,59.388,212.276,59.388z"/>
		</g>
	</g>
	<g>
		<g>
			<path class="st0" d="M222.881,54.605c-0.505-0.254-1.113-0.201-1.569,0.137c-2.842,2.117-5.798,3.146-9.037,3.146
				c-1.759,0-3.015-0.505-3.882-1.598h5.038c0.695,0,1.299-0.477,1.459-1.153l1.064-4.475c0.106-0.446,0.002-0.917-0.283-1.277
				c-0.211-0.267-0.503-0.451-0.828-0.529c0.324-0.204,0.568-0.53,0.662-0.923l1.063-4.475c0.106-0.446,0.002-0.917-0.283-1.277
				c-0.284-0.36-0.718-0.57-1.177-0.57h-6.151c0.911-0.865,2.136-1.278,3.735-1.278c2.055,0,4.007,0.876,5.968,2.678
				c0.39,0.358,0.94,0.483,1.447,0.332c0.507-0.153,0.896-0.562,1.024-1.076l2.213-8.925c0.167-0.672-0.149-1.372-0.764-1.691
				c-3.413-1.776-6.847-2.677-10.207-2.677c-9.868,0-16.152,4.25-18.695,12.637h-1.54c-0.683,0-1.28,0.462-1.452,1.123l-1.162,4.475
				c-0.117,0.449-0.019,0.928,0.265,1.295c0.231,0.298,0.564,0.497,0.93,0.56c-0.299,0.198-0.525,0.501-0.622,0.867l-1.186,4.475
				c-0.12,0.45-0.023,0.93,0.261,1.299c0.284,0.369,0.723,0.585,1.189,0.585h3.263c0.844,3.119,2.621,5.985,5.297,8.535
				c3.079,2.934,7.794,4.422,14.017,4.422c3.914,0,7.319-0.974,10.118-2.894c0.408-0.28,0.651-0.742,0.651-1.237v-9.171
				C223.708,55.378,223.389,54.86,222.881,54.605z M220.708,64.297c-2.169,1.294-4.777,1.95-7.769,1.95
				c-5.426,0-9.445-1.209-11.947-3.594c-2.558-2.438-4.139-5.177-4.699-8.142c-0.134-0.708-0.753-1.222-1.474-1.222h-2.507
				l0.391-1.475h1.551c0.433,0,0.845-0.187,1.129-0.513c0.285-0.326,0.415-0.759,0.357-1.188c-0.011-0.08-0.036-0.347-0.036-1.102
				c0-0.747,0.021-1.096,0.04-1.258c0.048-0.424-0.088-0.849-0.372-1.167c-0.285-0.318-0.691-0.501-1.119-0.501h-1.337l0.383-1.475
				h1.52c0.687,0,1.286-0.466,1.454-1.132c1.958-7.742,7.225-11.505,16.101-11.505c2.534,0,5.143,0.612,7.768,1.821l-1.362,5.494
				c-1.945-1.299-3.984-1.956-6.086-1.956c-3.791,0-6.501,1.809-7.838,5.232c-0.181,0.462-0.121,0.983,0.158,1.392
				c0.28,0.41,0.743,0.654,1.239,0.654h6.959l-0.35,1.475h-7.469c-0.77,0-1.415,0.583-1.492,1.349
				c-0.039,0.378-0.057,0.894-0.057,1.577v1.303c0,0.829,0.671,1.5,1.5,1.5h7.254l-0.351,1.475h-6.264
				c-0.478,0-0.927,0.228-1.21,0.613c-0.282,0.385-0.364,0.882-0.221,1.338c1.166,3.694,3.836,5.646,7.725,5.646
				c2.949,0,5.775-0.737,8.433-2.195V64.297z"/>
		</g>
	</g>
	<g>
		<g>
			
				<ellipse transform="matrix(0.9239 -0.3827 0.3827 0.9239 -26.8129 66.6442)" class="st3" cx="154.115" cy="100.721" rx="32.839" ry="32.839"/>
		</g>
	</g>
	<g>
		<g>
			<path class="st0" d="M154.115,66.382c-18.935,0-34.339,15.404-34.339,34.339c0,18.935,15.405,34.339,34.339,34.339
				c18.935,0,34.339-15.405,34.339-34.339C188.454,81.786,173.049,66.382,154.115,66.382z M154.115,132.06
				c-17.281,0-31.339-14.059-31.339-31.339c0-17.28,14.059-31.339,31.339-31.339c17.281,0,31.339,14.059,31.339,31.339
				C185.454,118.001,171.396,132.06,154.115,132.06z"/>
		</g>
	</g>
	<g>
		<g>
			<polygon class="st4" points="170.957,82.699 159.694,82.699 154.133,94.956 148.499,82.699 137.273,82.699 146.1,98.238 
				138.576,98.238 138.576,103.671 149.099,103.671 149.099,106.646 138.576,106.646 138.576,112.154 149.099,112.154 
				149.099,118.743 159.327,118.743 159.327,112.154 169.678,112.154 169.678,106.646 159.327,106.646 159.327,103.671 
				169.678,103.671 169.678,98.238 162.376,98.238 			"/>
		</g>
	</g>
	<g>
		<g>
			<path class="st0" d="M172.249,81.936c-0.27-0.457-0.761-0.738-1.292-0.738h-11.263c-0.588,0-1.123,0.344-1.366,0.88l-4.204,9.266
				l-4.262-9.273c-0.245-0.532-0.777-0.874-1.363-0.874h-11.226c-0.534,0-1.028,0.284-1.296,0.746
				c-0.269,0.461-0.271,1.031-0.008,1.495l7.554,13.298h-4.947c-0.829,0-1.5,0.671-1.5,1.5v5.434c0,0.763,0.569,1.393,1.306,1.487
				c-0.736,0.095-1.306,0.725-1.306,1.488v5.507c0,0.829,0.671,1.5,1.5,1.5h9.023v5.089c0,0.829,0.671,1.5,1.5,1.5h10.228
				c0.829,0,1.5-0.671,1.5-1.5v-5.089h8.851c0.829,0,1.5-0.671,1.5-1.5v-5.507c0-0.763-0.569-1.393-1.306-1.488
				c0.736-0.095,1.306-0.725,1.306-1.487v-5.434c0-0.829-0.671-1.5-1.5-1.5h-4.76l7.352-13.314
				C172.527,82.959,172.519,82.394,172.249,81.936z M161.063,97.513c-0.257,0.465-0.248,1.03,0.021,1.487
				c0.27,0.457,0.761,0.738,1.292,0.738h5.802v2.434h-8.851c-0.829,0-1.5,0.671-1.5,1.5v2.975c0,0.829,0.671,1.5,1.5,1.5h8.851
				v2.507h-8.851c-0.829,0-1.5,0.671-1.5,1.5v5.089h-7.228v-5.089c0-0.829-0.671-1.5-1.5-1.5h-9.023v-2.507h9.023
				c0.829,0,1.5-0.671,1.5-1.5v-2.975c0-0.829-0.671-1.5-1.5-1.5h-9.023v-2.434h6.024c0.534,0,1.028-0.284,1.296-0.746
				c0.269-0.461,0.271-1.031,0.008-1.495l-7.554-13.298h7.688l5.232,11.384c0.245,0.532,0.777,0.873,1.363,0.873h0.004
				c0.587-0.001,1.12-0.346,1.362-0.88l5.162-11.378h7.754L161.063,97.513z"/>
		</g>
	</g>
	<g>
		<g>
			
				<ellipse transform="matrix(0.9796 -0.2011 0.2011 0.9796 -19.2409 12.007)" class="st3" cx="49.486" cy="100.721" rx="32.839" ry="32.839"/>
		</g>
	</g>
	<g>
		<g>
			<path class="st0" d="M49.486,66.382c-18.934,0-34.339,15.404-34.339,34.339c0,18.935,15.405,34.339,34.339,34.339
				c18.935,0,34.339-15.405,34.339-34.339C83.826,81.786,68.421,66.382,49.486,66.382z M49.486,132.06
				c-17.281,0-31.339-14.059-31.339-31.339c0-17.28,14.059-31.339,31.339-31.339c17.281,0,31.339,14.059,31.339,31.339
				C80.826,118.001,66.767,132.06,49.486,132.06z"/>
		</g>
	</g>
	<g>
		<g>
			<path class="st4" d="M61.423,109.867c-1.082,0.492-1.955,0.815-2.619,0.971c-0.664,0.156-1.447,0.234-2.348,0.234
				c-1.098,0-2.565-0.213-4.401-0.639c-1.344-0.328-2.434-0.492-3.27-0.492c-0.656,0-1.443,0.107-2.36,0.32
				c0.803-0.918,1.377-1.803,1.721-2.655c0.426-1.114,0.68-2.368,0.762-3.762h6.589v-5.876h-7.45
				c-0.672-2.098-1.066-3.43-1.18-3.995c-0.115-0.565-0.172-1.151-0.172-1.758c0-1.147,0.295-2.032,0.885-2.655
				c0.59-0.623,1.36-0.934,2.311-0.934c0.787,0,1.488,0.287,2.102,0.86c0.615,0.574,1.159,1.738,1.635,3.491l9.392-1.475
				c-0.427-2.081-1.209-3.856-2.348-5.323c-1.139-1.467-2.532-2.516-4.18-3.147c-1.647-0.631-3.881-0.947-6.7-0.947
				c-3.016,0-5.413,0.369-7.192,1.106c-1.779,0.737-3.213,1.922-4.303,3.553c-1.09,1.631-1.635,3.471-1.635,5.52
				c0,0.771,0.049,1.418,0.148,1.942c0.082,0.344,0.434,1.598,1.057,3.762h-3.663v5.876h5.114c0.033,0.607,0.049,0.975,0.049,1.106
				c0,2.475-1.721,4.951-5.163,7.425l3.172,6.982c2.557-1.491,4.893-2.237,7.007-2.237c0.721,0,1.393,0.058,2.016,0.172
				c0.623,0.115,2.237,0.533,4.844,1.254c1.983,0.541,3.745,0.811,5.286,0.811c1.41,0,2.729-0.156,3.958-0.467
				c1.23-0.311,2.656-0.877,4.278-1.697L61.423,109.867z"/>
		</g>
	</g>
	<g>
		<g>
			<path class="st0" d="M66.132,116.571l-3.344-7.327c-0.344-0.753-1.233-1.085-1.985-0.743c-0.988,0.449-1.775,0.744-2.342,0.876
				c-0.547,0.128-1.221,0.194-2.004,0.194c-0.98,0-2.347-0.202-4.046-0.597c-1.171-0.286-2.161-0.455-3.001-0.512
				c0.049-0.108,0.095-0.215,0.139-0.323c0.328-0.859,0.567-1.796,0.714-2.797h5.235c0.829,0,1.5-0.671,1.5-1.5v-5.876
				c0-0.829-0.671-1.5-1.5-1.5h-6.352c-0.554-1.765-0.747-2.495-0.808-2.795c-0.094-0.463-0.142-0.954-0.142-1.458
				c0-0.745,0.16-1.292,0.474-1.624c0.206-0.217,0.53-0.466,1.222-0.466c0.407,0,0.74,0.141,1.078,0.457
				c0.183,0.171,0.668,0.785,1.211,2.789c0.201,0.739,0.925,1.206,1.681,1.089l9.392-1.475c0.405-0.064,0.766-0.29,1-0.627
				c0.234-0.337,0.319-0.755,0.237-1.156c-0.471-2.3-1.357-4.299-2.633-5.942c-1.305-1.679-2.929-2.899-4.828-3.627
				c-1.838-0.704-4.206-1.046-7.237-1.046c-3.244,0-5.785,0.399-7.766,1.221c-2.048,0.85-3.722,2.231-4.975,4.105
				c-1.253,1.875-1.888,4.012-1.888,6.353c0,0.872,0.057,1.598,0.188,2.288c0.041,0.174,0.145,0.571,0.526,1.917h-1.673
				c-0.829,0-1.5,0.671-1.5,1.5v5.876c0,0.829,0.671,1.5,1.5,1.5h3.643c-0.19,1.839-1.708,3.793-4.518,5.814
				c-0.581,0.418-0.786,1.187-0.49,1.838l3.172,6.982c0.175,0.386,0.506,0.68,0.911,0.809c0.149,0.047,0.302,0.071,0.455,0.071
				c0.263,0,0.524-0.069,0.756-0.204c2.313-1.349,4.417-2.033,6.251-2.033c0.626,0,1.213,0.049,1.743,0.147
				c0.398,0.073,1.539,0.346,4.722,1.227c2.103,0.573,4.014,0.864,5.681,0.864c1.527,0,2.982-0.172,4.327-0.513
				c1.331-0.337,2.874-0.947,4.586-1.812C66.162,118.169,66.466,117.304,66.132,116.571z M60.121,117.436
				c-1.104,0.279-2.312,0.421-3.59,0.421c-1.4,0-3.046-0.255-4.886-0.757c-2.671-0.739-4.297-1.159-4.973-1.284
				c-0.711-0.13-1.48-0.196-2.287-0.196c-1.953,0-4.068,0.557-6.305,1.657l-2.013-4.43c3.187-2.537,4.801-5.19,4.801-7.897
				c0-0.141-0.017-0.537-0.051-1.187c-0.043-0.796-0.701-1.419-1.498-1.419h-3.614v-2.876h2.163c0.471,0,0.915-0.221,1.198-0.598
				c0.284-0.376,0.373-0.864,0.243-1.317c-0.763-2.651-0.986-3.472-1.024-3.625c-0.081-0.431-0.122-0.991-0.122-1.665
				c0-1.761,0.452-3.294,1.382-4.686c0.93-1.392,2.118-2.374,3.63-3c1.587-0.658,3.814-0.992,6.617-0.992
				c2.621,0,4.695,0.285,6.163,0.847c1.4,0.537,2.555,1.409,3.532,2.666c0.706,0.909,1.262,1.975,1.66,3.179l-6.466,1.016
				c-0.472-1.358-1.012-2.295-1.664-2.905c-0.899-0.838-1.95-1.263-3.125-1.263c-1.354,0-2.53,0.485-3.4,1.403
				c-0.86,0.908-1.296,2.148-1.296,3.687c0,0.706,0.068,1.398,0.202,2.055c0.081,0.4,0.296,1.267,1.222,4.156
				c0.199,0.621,0.776,1.042,1.428,1.042h5.95v2.876h-5.089c-0.794,0-1.451,0.619-1.498,1.411c-0.073,1.234-0.297,2.35-0.656,3.289
				c-0.279,0.692-0.771,1.442-1.459,2.229c-0.429,0.49-0.492,1.201-0.158,1.759c0.334,0.559,0.992,0.839,1.626,0.69
				c0.804-0.186,1.484-0.281,2.021-0.281c0.711,0,1.692,0.151,2.931,0.453c3.59,0.834,5.729,0.805,7.43,0.405
				c0.442-0.104,0.944-0.263,1.517-0.483l2.126,4.659C61.801,116.915,60.907,117.237,60.121,117.436z"/>
		</g>
	</g>
	<g>
		<g>
			
				<ellipse transform="matrix(0.9925 -0.1222 0.1222 0.9925 -5.2388 12.7888)" class="st3" cx="101.657" cy="49.111" rx="32.839" ry="32.839"/>
		</g>
	</g>
	<g>
		<g>
			<path class="st0" d="M101.657,14.771c-18.934,0-34.339,15.405-34.339,34.339c0,18.935,15.405,34.339,34.339,34.339
				c18.935,0,34.339-15.404,34.339-34.339C135.997,30.176,120.592,14.771,101.657,14.771z M101.657,80.45
				c-17.281,0-31.339-14.059-31.339-31.339c0-17.281,14.059-31.339,31.339-31.339c17.281,0,31.339,14.059,31.339,31.339
				C132.997,66.391,118.938,80.45,101.657,80.45z"/>
		</g>
	</g>
	<g>
		<g>
			<path class="st4" d="M104.789,45.42c-4.753-1.789-6.71-2.963-6.71-4.808c0-1.565,1.174-3.131,4.809-3.131
				c4.025,0,6.597,1.286,8.051,1.901l1.622-6.318c-1.845-0.895-4.362-1.679-8.107-1.846v-4.921h-5.479v5.311
				c-5.983,1.174-9.449,5.032-9.449,9.953c0,5.424,4.082,8.22,10.064,10.232c4.138,1.398,5.927,2.74,5.927,4.864
				c0,2.237-2.181,3.467-5.368,3.467c-3.635,0-6.933-1.174-9.282-2.46l-1.677,6.541c2.125,1.23,5.759,2.236,9.505,2.404v5.312h5.48
				V66.22c6.43-1.117,9.953-5.367,9.953-10.343C114.126,50.844,111.442,47.769,104.789,45.42z"/>
		</g>
	</g>
	<g>
		<g>
			<path class="st0" d="M105.317,44.017c-4.076-1.534-5.738-2.52-5.738-3.405c0-1.419,2.073-1.631,3.309-1.631
				c3.361,0,5.578,0.964,7.045,1.602l0.42,0.181c0.402,0.17,0.859,0.157,1.25-0.037c0.392-0.193,0.679-0.548,0.788-0.971
				l1.622-6.318c0.178-0.691-0.156-1.412-0.798-1.723c-2.102-1.019-4.488-1.644-7.262-1.897v-3.519c0-0.829-0.671-1.5-1.5-1.5
				h-5.479c-0.829,0-1.5,0.671-1.5,1.5v4.119c-5.862,1.567-9.45,5.75-9.45,11.145c0,7.025,5.925,9.918,11.085,11.653
				c4.313,1.457,4.907,2.516,4.907,3.443c0,1.873-3.222,1.967-3.868,1.967c-3.832,0-7.009-1.426-8.562-2.276
				c-0.407-0.223-0.892-0.245-1.317-0.06c-0.425,0.185-0.741,0.555-0.856,1.003l-1.677,6.542c-0.167,0.651,0.12,1.334,0.702,1.671
				c2.169,1.255,5.428,2.176,8.756,2.502v3.915c0,0.829,0.671,1.5,1.5,1.5h5.479c0.829,0,1.5-0.671,1.5-1.5v-4.486
				c6.089-1.505,9.953-5.935,9.953-11.561C115.626,50.114,112.534,46.564,105.317,44.017z M103.916,64.742
				c-0.719,0.125-1.243,0.748-1.243,1.478v4.204h-2.479v-3.812c0-0.802-0.631-1.462-1.433-1.498
				c-2.813-0.127-5.743-0.773-7.821-1.698l0.921-3.593c2.011,0.879,4.925,1.804,8.286,1.804c4.172,0,6.868-1.95,6.868-4.967
				c0-3.461-3.339-5.066-6.949-6.286c-6.338-2.132-9.043-4.767-9.043-8.81c0-4.298,3.08-7.469,8.239-8.481
				c0.704-0.138,1.211-0.754,1.211-1.472v-3.811h2.479v3.421c0,0.803,0.632,1.463,1.434,1.499c2.462,0.109,4.57,0.508,6.403,1.212
				l-0.871,3.393c-1.619-0.638-3.924-1.342-7.031-1.342c-4.652,0-6.309,2.392-6.309,4.631c0,3.077,3.329,4.575,7.71,6.223
				c6.919,2.442,8.337,5.381,8.337,9.042C112.626,60.412,109.289,63.809,103.916,64.742z"/>
		</g>
	</g>
	<g>
		<g>
			<path class="st7" d="M48.32,202.477c-0.974,11.564-13.025,13.389-13.025,13.389c10.347,0.487,12.925,14.059,12.925,14.059
				c0.221-9.677,13.321-14.202,13.321-14.202C51.728,215.136,48.32,202.477,48.32,202.477z"/>
		</g>
	</g>
	<g>
		<g>
			<path class="st0" d="M61.631,214.226c-8.605-0.514-11.832-12.024-11.864-12.141c-0.191-0.703-0.86-1.165-1.583-1.102
				c-0.725,0.066-1.298,0.642-1.359,1.367c-0.86,10.215-11.314,11.964-11.754,12.033c-0.763,0.115-1.313,0.79-1.273,1.56
				c0.04,0.77,0.657,1.384,1.428,1.421c9.028,0.425,11.498,12.718,11.522,12.842c0.137,0.711,0.759,1.217,1.472,1.217
				c0.042,0,0.084-0.001,0.126-0.005c0.764-0.064,1.357-0.693,1.374-1.459c0.195-8.508,12.192-12.777,12.313-12.819
				c0.675-0.235,1.092-0.914,0.994-1.622C62.929,214.81,62.345,214.269,61.631,214.226z M48.065,224.572
				c-1.356-3.131-3.709-6.908-7.587-8.877c2.931-1.405,6.409-3.913,8.202-8.273c1.551,3.071,4.199,6.88,8.334,8.723
				C54.007,217.785,50.091,220.551,48.065,224.572z"/>
		</g>
	</g>
	<g>
		<g>
			<path class="st7" d="M26.621,219.457c-0.689,8.179-9.212,9.471-9.212,9.471c7.318,0.344,9.142,9.944,9.142,9.944
				c0.156-6.844,9.422-10.045,9.422-10.045C29.032,228.411,26.621,219.457,26.621,219.457z"/>
		</g>
	</g>
	<g>
		<g>
			<path class="st0" d="M36.062,227.329c-5.766-0.345-7.972-8.185-7.993-8.264c-0.19-0.702-0.855-1.167-1.582-1.102
				c-0.726,0.065-1.299,0.642-1.36,1.368c-0.579,6.87-7.646,8.066-7.942,8.113c-0.763,0.115-1.313,0.79-1.273,1.561
				c0.04,0.77,0.657,1.384,1.428,1.421c6.035,0.284,7.723,8.644,7.739,8.726c0.135,0.713,0.759,1.22,1.472,1.22
				c0.042,0,0.083-0.001,0.125-0.005c0.765-0.063,1.358-0.694,1.376-1.461c0.13-5.709,8.331-8.634,8.412-8.662
				c0.677-0.234,1.094-0.913,0.996-1.622C37.361,227.914,36.777,227.372,36.062,227.329z M26.478,234.125
				c-0.924-1.886-2.34-3.947-4.447-5.28c1.855-1.041,3.697-2.629,4.871-4.916c1.057,1.874,2.654,3.955,4.941,5.224
				C29.993,230.252,27.854,231.892,26.478,234.125z"/>
		</g>
	</g>
	<g>
		<g>
			<path class="st7" d="M26.621,192.8c-0.689,8.179-9.212,9.471-9.212,9.471c7.318,0.344,9.142,9.944,9.142,9.944
				c0.156-6.845,9.422-10.045,9.422-10.045C29.032,201.754,26.621,192.8,26.621,192.8z"/>
		</g>
	</g>
	<g>
		<g>
			<path class="st0" d="M36.063,200.672c-5.766-0.345-7.972-8.186-7.994-8.265c-0.19-0.702-0.855-1.167-1.582-1.102
				c-0.726,0.065-1.299,0.642-1.36,1.368c-0.579,6.871-7.646,8.067-7.942,8.114c-0.763,0.115-1.313,0.79-1.273,1.56
				c0.04,0.77,0.657,1.384,1.428,1.421c6.035,0.284,7.723,8.644,7.739,8.726c0.135,0.713,0.759,1.22,1.473,1.22
				c0.041,0,0.083-0.001,0.125-0.005c0.765-0.063,1.358-0.694,1.376-1.461c0.13-5.709,8.331-8.634,8.412-8.662
				c0.676-0.234,1.094-0.913,0.996-1.622C37.361,201.256,36.777,200.715,36.063,200.672z M26.478,207.467
				c-0.924-1.885-2.34-3.947-4.447-5.28c1.855-1.041,3.697-2.63,4.871-4.916c1.057,1.873,2.654,3.954,4.941,5.224
				C29.993,203.595,27.854,205.234,26.478,207.467z"/>
		</g>
	</g>
	<g>
		<g>
			<path class="st4" d="M128.353,212.729c-8.42,0-16.62-0.74-24.5-2.15v29.15h49v-29.15
				C144.973,211.989,136.773,212.729,128.353,212.729z"/>
		</g>
	</g>
	<g>
		<g>
			<path class="st0" d="M153.816,209.428c-0.34-0.285-0.788-0.404-1.227-0.326c-15.77,2.823-32.702,2.823-48.472,0
				c-0.436-0.078-0.887,0.041-1.227,0.326c-0.34,0.285-0.537,0.707-0.537,1.15v29.15c0,0.829,0.671,1.5,1.5,1.5h11.42
				c0.829,0,1.5-0.671,1.5-1.5c0-0.829-0.671-1.5-1.5-1.5h-9.92v-25.87c15.015,2.481,30.984,2.482,46,0v25.87h-22.377
				c-0.829,0-1.5,0.671-1.5,1.5c0,0.829,0.671,1.5,1.5,1.5h23.877c0.829,0,1.5-0.671,1.5-1.5v-29.15
				C154.353,210.135,154.156,209.713,153.816,209.428z"/>
		</g>
	</g>
	<g>
		<g>
			<path class="st4" d="M17.353,124.729c0,48.601,49.696,88,111,88s111-39.399,111-88H17.353z"/>
		</g>
	</g>
	<g>
		<g>
			<path class="st0" d="M239.353,123.228H128c-0.829,0-1.5,0.671-1.5,1.5c0,0.829,0.671,1.5,1.5,1.5h109.837
				c-1.017,47.007-49.739,85-109.484,85c-59.745,0-108.467-37.993-109.484-85h96.337c0.829,0,1.5-0.671,1.5-1.5
				c0-0.829-0.671-1.5-1.5-1.5H17.353c-0.829,0-1.5,0.671-1.5,1.5c0,49.351,50.467,89.5,112.5,89.5s112.5-40.149,112.5-89.5
				C240.853,123.9,240.182,123.228,239.353,123.228z"/>
		</g>
	</g>
	<g>
		<g>
			<path class="st14" d="M142.685,213.509c-3.4,0.34-6.85,0.57-10.33,0.66v24.06h19v-25.87
				C148.495,212.829,145.605,213.209,142.685,213.509z"/>
		</g>
	</g>
	<g>
		<g>
			<path class="st14" d="M218.835,126.229c-0.96,44.49-44.66,80.9-99.98,84.67c3.13,0.22,6.3,0.33,9.5,0.33
				c59.74,0,108.47-37.99,109.48-85H218.835z"/>
		</g>
	</g>
</g>
</svg>
