<?xml version="1.0" encoding="utf-8"?>
<!-- Generator: Adobe Illustrator 22.0.1, SVG Export Plug-In . SVG Version: 6.00 Build 0)  -->
<svg version="1.1" id="Layer_1" xmlns="http://www.w3.org/2000/svg" xmlns:xlink="http://www.w3.org/1999/xlink" x="0px" y="0px"
	 viewBox="0 0 256 256" style="enable-background:new 0 0 256 256;" xml:space="preserve">
<style type="text/css">
	.st0{fill:#3A312A;}
	.st1{fill:#8AC6DD;}
	.st2{fill:#F16C7A;}
	.st3{fill:#D7E057;}
	.st4{fill:#87796F;}
	.st5{fill:#FCE8CB;}
	.st6{fill:#DECAAD;}
	.st7{fill:#D6DF58;}
	.st8{fill:#FAE6CA;}
	.st9{fill:#DDC9AC;}
	.st10{fill:#D5DE58;}
	.st11{fill:#ED6E7A;}
	.st12{fill:#8AC5DC;}
	.st13{fill:#6CA8BF;}
	.st14{fill:#695B51;}
	.st15{fill:#F8E4C8;}
	.st16{fill:#EF6D7A;}
	.st17{fill-rule:evenodd;clip-rule:evenodd;fill:#F8E4C8;}
	.st18{fill:#89C4DB;}
	.st19{fill:#F59689;}
	.st20{fill:#D34E5C;}
	.st21{fill:#F7E3C7;}
	.st22{fill:#8AC3DA;}
	.st23{fill-rule:evenodd;clip-rule:evenodd;fill:#F7E3C7;}
	.st24{fill-rule:evenodd;clip-rule:evenodd;fill:#87796F;}
	.st25{fill:#B9C239;}
	.st26{fill:#D4DB56;}
	.st27{fill-rule:evenodd;clip-rule:evenodd;fill:#F16C7A;}
	.st28{fill-rule:evenodd;clip-rule:evenodd;fill:#F6E2C6;}
	.st29{fill:#F6E2C6;}
	.st30{fill-rule:evenodd;clip-rule:evenodd;fill:#FAE6CA;}
	.st31{fill:#B8C136;}
</style>
<g>
	<g>
		<g>
			<path class="st1" d="M129.093,20.336c-0.63-0.534-1.556-0.534-2.186,0L63.393,74.207v85.853h129.213V74.207L129.093,20.336z"/>
		</g>
	</g>
	<g>
		<g>
			<path class="st0" d="M192.606,111.714c0.828,0,1.5-0.671,1.5-1.5V74.207c0-0.44-0.193-0.859-0.529-1.144l-63.515-53.871
				c-1.195-1.013-2.93-1.012-4.125,0L62.423,73.063c-0.336,0.285-0.53,0.704-0.53,1.144v85.853c0,0.828,0.671,1.5,1.5,1.5h129.213
				c0.828,0,1.5-0.672,1.5-1.5v-35.653c0-0.829-0.672-1.5-1.5-1.5c-0.828,0-1.5,0.671-1.5,1.5v34.153H64.894V74.902l62.983-53.421
				c0.07-0.06,0.176-0.059,0.246,0l62.984,53.421v35.312C191.106,111.042,191.778,111.714,192.606,111.714z"/>
		</g>
	</g>
	<g>
		<g>
			<path class="st2" d="M201.965,77.531l-69.964-59.344c-2.319-1.963-5.684-1.964-8.005,0.002L99.349,39.095l-6.43,5.454
				L54.034,77.531c-1.895,1.608-2.128,4.448-0.52,6.342c1.608,1.896,4.448,2.128,6.343,0.521L128,26.594l68.143,57.799
				c0.846,0.718,1.88,1.069,2.909,1.069c1.276,0,2.543-0.54,3.434-1.589C204.093,81.979,203.86,79.138,201.965,77.531z"/>
		</g>
	</g>
	<g>
		<g>
			<path class="st0" d="M205.034,80.472c-0.131-1.597-0.876-3.048-2.098-4.085l-69.966-59.345c-2.88-2.439-7.063-2.438-9.945,0.003
				l-31.078,26.36L53.064,76.387c-2.523,2.14-2.834,5.934-0.694,8.456c2.14,2.522,5.934,2.835,8.458,0.694L128,28.561l67.173,56.977
				c1.083,0.918,2.461,1.424,3.879,1.424c1.768,0,3.437-0.772,4.577-2.118C204.666,83.622,205.165,82.069,205.034,80.472z
				 M201.341,82.903c-1.026,1.213-3.012,1.38-4.227,0.347L128.97,25.45c-0.28-0.237-0.625-0.356-0.97-0.356
				c-0.345,0-0.69,0.119-0.97,0.356L58.887,83.25c-1.262,1.07-3.159,0.915-4.229-0.347c-1.07-1.261-0.914-3.158,0.347-4.228
				l69.961-59.341c1.757-1.489,4.311-1.49,6.066-0.003l69.964,59.343c0.611,0.519,0.983,1.244,1.049,2.042
				C202.109,81.516,201.86,82.292,201.341,82.903z"/>
		</g>
	</g>
	<g>
		<g>
			<circle class="st3" cx="128" cy="105.893" r="37.685"/>
		</g>
	</g>
	<g>
		<g>
			<path class="st0" d="M128,66.708c-21.607,0-39.185,17.579-39.185,39.186s17.579,39.185,39.185,39.185
				c21.607,0,39.185-17.578,39.185-39.185S149.607,66.708,128,66.708z M128,142.078c-19.953,0-36.185-16.232-36.185-36.185
				S108.047,69.708,128,69.708c19.953,0,36.185,16.233,36.185,36.186S147.953,142.078,128,142.078z"/>
		</g>
	</g>
	<g>
		<g>
			<path class="st4" d="M132.48,101.631c-5.489-2.065-7.749-3.422-7.749-5.553c0-1.807,1.356-3.616,5.553-3.616
				c4.648,0,7.619,1.485,9.298,2.195l1.873-7.296c-2.131-1.033-5.037-1.938-9.363-2.131v-5.683h-6.328v6.134
				c-6.909,1.356-10.912,5.811-10.912,11.494c0,6.264,4.714,9.493,11.622,11.817c4.778,1.614,6.845,3.165,6.845,5.617
				c0,2.584-2.519,4.004-6.199,4.004c-4.198,0-8.007-1.356-10.719-2.841l-1.937,7.554c2.454,1.42,6.651,2.582,10.976,2.777v6.134
				h6.328v-6.586c7.426-1.29,11.494-6.198,11.494-11.945C143.263,107.895,140.164,104.343,132.48,101.631z"/>
		</g>
	</g>
	<g>
		<g>
			<path class="st0" d="M133.009,100.228c-4.877-1.836-6.777-2.999-6.777-4.149c0-1.841,2.54-2.116,4.054-2.116
				c3.93,0,6.517,1.125,8.229,1.869l0.483,0.208c0.402,0.169,0.859,0.157,1.25-0.037c0.392-0.193,0.68-0.548,0.788-0.971
				l1.873-7.296c0.177-0.691-0.157-1.412-0.799-1.723c-2.456-1.19-5.254-1.91-8.518-2.188v-4.276c0-0.829-0.672-1.5-1.5-1.5h-6.328
				c-0.829,0-1.5,0.671-1.5,1.5v4.937c-6.765,1.746-10.912,6.521-10.912,12.691c0,7.963,6.757,11.258,12.642,13.237
				c5.118,1.729,5.824,3.039,5.824,4.196c0,2.384-3.914,2.504-4.698,2.504c-4.478,0-8.187-1.665-9.999-2.657
				c-0.406-0.222-0.893-0.245-1.317-0.06s-0.741,0.555-0.856,1.003l-1.937,7.554c-0.167,0.651,0.12,1.334,0.702,1.671
				c2.524,1.46,6.344,2.525,10.228,2.879v4.733c0,0.828,0.671,1.5,1.5,1.5h6.328c0.828,0,1.5-0.672,1.5-1.5v-5.364
				c7.025-1.669,11.494-6.729,11.494-13.167C144.764,107.167,141.239,103.132,133.009,100.228z M131.513,124.173
				c-0.719,0.125-1.243,0.749-1.243,1.478v5.086h-3.328v-4.634c0-0.802-0.631-1.462-1.433-1.499
				c-3.356-0.151-6.857-0.939-9.294-2.062l1.18-4.603c2.306,1.037,5.741,2.174,9.726,2.174c4.677,0,7.698-2.161,7.698-5.504
				c0-3.851-3.779-5.658-7.866-7.039c-7.43-2.5-10.601-5.608-10.601-10.395c0-5.083,3.626-8.83,9.701-10.022
				c0.704-0.138,1.211-0.755,1.211-1.472v-4.634h3.328v4.183c0,0.802,0.632,1.463,1.434,1.499c2.955,0.132,5.476,0.622,7.66,1.492
				l-1.122,4.373c-1.863-0.754-4.573-1.632-8.279-1.632c-5.201,0-7.054,2.643-7.054,5.116c0,3.404,3.78,5.097,8.75,6.967
				c8.119,2.866,9.782,6.334,9.782,10.66C141.764,119.064,137.836,123.075,131.513,124.173z"/>
		</g>
	</g>
	<g>
		<g>
			<path class="st3" d="M47.967,26.134c-0.974,11.564-13.025,13.389-13.025,13.389c10.347,0.487,12.925,14.059,12.925,14.059
				c0.221-9.677,13.321-14.202,13.321-14.202C51.375,38.793,47.967,26.134,47.967,26.134z"/>
		</g>
	</g>
	<g>
		<g>
			<path class="st0" d="M61.279,37.882c-8.605-0.515-11.832-12.024-11.864-12.141c-0.191-0.703-0.86-1.164-1.583-1.102
				c-0.725,0.066-1.298,0.642-1.359,1.367c-0.86,10.215-11.314,11.964-11.755,12.033c-0.763,0.115-1.313,0.79-1.273,1.561
				c0.04,0.77,0.657,1.384,1.428,1.421C43.9,41.446,46.371,53.74,46.394,53.864c0.137,0.711,0.759,1.217,1.472,1.217
				c0.042,0,0.084-0.001,0.126-0.005c0.764-0.064,1.357-0.693,1.375-1.459c0.195-8.508,12.192-12.777,12.313-12.819
				c0.675-0.235,1.092-0.914,0.994-1.623C62.576,38.466,61.993,37.925,61.279,37.882z M47.712,48.229
				c-1.356-3.131-3.709-6.908-7.587-8.877c2.931-1.404,6.409-3.913,8.202-8.273c1.551,3.071,4.199,6.88,8.334,8.723
				C53.654,41.441,49.739,44.207,47.712,48.229z"/>
		</g>
	</g>
	<g>
		<g>
			<path class="st3" d="M26.268,43.114c-0.689,8.179-9.212,9.47-9.212,9.47c7.318,0.344,9.142,9.944,9.142,9.944
				c0.156-6.844,9.422-10.045,9.422-10.045C28.679,52.068,26.268,43.114,26.268,43.114z"/>
		</g>
	</g>
	<g>
		<g>
			<path class="st0" d="M35.71,50.986c-5.766-0.345-7.972-8.186-7.994-8.265c-0.19-0.702-0.854-1.165-1.582-1.102
				c-0.726,0.065-1.299,0.642-1.36,1.368c-0.579,6.871-7.646,8.067-7.942,8.114c-0.763,0.115-1.313,0.79-1.273,1.561
				c0.04,0.77,0.657,1.384,1.428,1.421c6.035,0.284,7.723,8.644,7.739,8.726c0.135,0.713,0.759,1.22,1.473,1.22
				c0.041,0,0.083-0.001,0.125-0.005c0.765-0.063,1.358-0.694,1.376-1.461c0.13-5.709,8.331-8.634,8.412-8.662
				c0.676-0.234,1.094-0.913,0.996-1.622C37.009,51.57,36.424,51.029,35.71,50.986z M26.125,57.781
				c-0.924-1.885-2.34-3.947-4.447-5.28c1.856-1.041,3.697-2.63,4.871-4.916c1.057,1.874,2.654,3.954,4.941,5.224
				C29.64,53.909,27.501,55.548,26.125,57.781z"/>
		</g>
	</g>
	<g>
		<g>
			<path class="st3" d="M26.268,16.456c-0.689,8.179-9.212,9.471-9.212,9.471c7.318,0.344,9.142,9.944,9.142,9.944
				c0.156-6.844,9.422-10.045,9.422-10.045C28.679,25.41,26.268,16.456,26.268,16.456z"/>
		</g>
	</g>
	<g>
		<g>
			<path class="st0" d="M35.71,24.329c-5.766-0.345-7.972-8.186-7.994-8.265c-0.19-0.702-0.854-1.166-1.582-1.102
				c-0.726,0.065-1.299,0.642-1.36,1.368c-0.579,6.871-7.646,8.067-7.942,8.114c-0.763,0.115-1.313,0.79-1.273,1.561
				c0.04,0.77,0.657,1.384,1.428,1.421c6.035,0.284,7.723,8.644,7.739,8.726c0.135,0.713,0.759,1.22,1.473,1.22
				c0.041,0,0.083-0.001,0.125-0.005c0.765-0.063,1.358-0.694,1.376-1.461c0.13-5.709,8.331-8.634,8.412-8.662
				c0.676-0.234,1.094-0.913,0.996-1.622C37.009,24.913,36.424,24.372,35.71,24.329z M26.125,31.124
				c-0.924-1.885-2.34-3.947-4.447-5.28c1.856-1.041,3.697-2.63,4.871-4.916c1.057,1.874,2.654,3.954,4.941,5.224
				C29.64,27.252,27.501,28.891,26.125,31.124z"/>
		</g>
	</g>
	<g>
		<g>
			<path class="st5" d="M232.084,155.595c-1.67-0.08-3.37,0.28-4.93,1.09l-33.56,17.48h-53.14c-11.58,0-22.92,3.27-32.72,9.44
				l-7.48,4.7c-2.86,1.8-6.18,2.76-9.57,2.76h-0.95v7.87c0.006,0,0.01-0.001,0.016-0.001v14.722c-0.006,0-0.01-0.001-0.016-0.001
				v9.02l71.25-2.19c6.11-0.4,11.99-2.45,17.02-5.95l59.22-45.53c1.94-1.35,2.57-3.24,2.62-5.06
				C239.954,159.595,236.434,155.785,232.084,155.595z"/>
		</g>
	</g>
	<g>
		<g>
			<path class="st0" d="M232.156,154.097c-1.959-0.104-3.929,0.34-5.696,1.258l-33.233,17.311h-52.772
				c-11.88,0-23.471,3.344-33.518,9.669l-7.481,4.701c-2.63,1.655-5.663,2.53-8.771,2.53h-0.95c-0.829,0-1.5,0.672-1.5,1.5v7.869
				c0,0.828,0.688,1.5,1.516,1.5s1.492-0.672,1.492-1.5c0-0.053-0.003-0.104-0.008-0.155v-6.222
				c3.481-0.098,6.864-1.124,9.817-2.982l7.482-4.701c9.569-6.024,20.606-9.209,31.921-9.209h53.14c0.241,0,0.478-0.059,0.693-0.17
				l33.557-17.479c1.295-0.672,2.725-1.003,4.175-0.922c3.519,0.153,6.415,3.274,6.326,6.811c-0.047,1.711-0.694,2.977-2.035,3.911
				l-59.162,45.488c-4.795,3.336-10.418,5.302-16.209,5.683l-69.705,2.142v-7.251c0.011-0.072,0.016-0.146,0.016-0.221
				c0-0.802-0.629-1.457-1.421-1.498c-0.032-0.002-0.065-0.003-0.095-0.003c-0.829,0-1.5,0.672-1.5,1.5v9.02
				c0,0.406,0.164,0.794,0.456,1.077c0.28,0.271,0.655,0.423,1.044,0.423c0.015,0,0.031,0,0.046-0.001l71.302-2.191
				c6.389-0.419,12.536-2.568,17.836-6.258l59.162-45.488c2.063-1.435,3.19-3.596,3.264-6.253
				C241.474,158.848,237.264,154.32,232.156,154.097z"/>
		</g>
	</g>
	<g>
		<g>
			<path class="st0" d="M195.092,174.943c-0.315-0.766-1.188-1.132-1.957-0.818c-0.767,0.314-1.133,1.19-0.818,1.957
				c1.16,2.828-0.496,6.243-2.731,8.154c-2.611,2.232-6.239,3.314-9.44,4.27c-7.231,2.158-13.786,3.487-20.727,4.896
				c-6.704,1.359-13.637,2.765-22.189,5.071c-0.8,0.216-1.273,1.039-1.058,1.839c0.181,0.669,0.786,1.109,1.447,1.109
				c0.129,0,0.261-0.017,0.392-0.052c8.461-2.281,15.346-3.678,22.004-5.028c7.01-1.421,13.63-2.764,20.988-4.96
				c3.486-1.04,7.439-2.22,10.532-4.865C194.496,183.984,196.872,179.283,195.092,174.943z"/>
		</g>
	</g>
	<g>
		<g>
			<rect x="16.154" y="175.146" class="st2" width="47.25" height="64.397"/>
		</g>
	</g>
	<g>
		<g>
			<path class="st0" d="M63.404,173.646H44.846c-0.829,0-1.5,0.672-1.5,1.5s0.671,1.5,1.5,1.5h17.058v61.397h-44.25v-61.397h12.999
				c0.829,0,1.5-0.672,1.5-1.5s-0.671-1.5-1.5-1.5H16.154c-0.829,0-1.5,0.672-1.5,1.5v64.397c0,0.828,0.671,1.5,1.5,1.5h47.25
				c0.829,0,1.5-0.672,1.5-1.5v-64.397C64.904,174.318,64.232,173.646,63.404,173.646z"/>
		</g>
	</g>
	<g>
		<g>
			<path class="st1" d="M81.746,175.146H63.404v64.397h18.342c4.413,0,7.991-3.578,7.991-7.991v-48.415
				C89.737,178.724,86.159,175.146,81.746,175.146z"/>
		</g>
	</g>
	<g>
		<g>
			<path class="st0" d="M89.737,200.435c0.829,0,1.5-0.672,1.5-1.5v-15.797c0-5.233-4.258-9.491-9.491-9.491H63.404
				c-0.829,0-1.5,0.672-1.5,1.5v64.397c0,0.828,0.671,1.5,1.5,1.5h18.342c5.233,0,9.491-4.258,9.491-9.491v-17.897
				c0-0.828-0.671-1.5-1.5-1.5c-0.829,0-1.5,0.672-1.5,1.5v17.897c0,3.579-2.912,6.491-6.491,6.491H64.904v-61.397h16.842
				c3.579,0,6.491,2.912,6.491,6.491v15.797C88.237,199.763,88.909,200.435,89.737,200.435z"/>
		</g>
	</g>
	<g>
		<g>
			
				<ellipse transform="matrix(0.0985 -0.9951 0.9951 0.0985 -156.0619 280.0976)" class="st4" cx="76.57" cy="226.188" rx="6.028" ry="6.028"/>
		</g>
	</g>
	<g>
		<g>
			<path class="st0" d="M76.57,218.66c-4.151,0-7.528,3.377-7.528,7.528c0,4.15,3.377,7.527,7.528,7.527
				c4.151,0,7.528-3.377,7.528-7.527C84.098,222.037,80.721,218.66,76.57,218.66z M76.57,230.716c-2.497,0-4.528-2.031-4.528-4.527
				c0-2.497,2.031-4.528,4.528-4.528c2.497,0,4.528,2.031,4.528,4.528C81.098,228.685,79.067,230.716,76.57,230.716z"/>
		</g>
	</g>
	<g>
		<g>
			<path class="st6" d="M232.024,157.095c-1.45-0.07-2.9,0.25-4.18,0.92l-4.22,2.2c0.69,1.08,1.08,2.35,1.05,3.69
				c-0.04,1.71-0.69,2.98-2.03,3.91l-59.17,45.49c-7.07,4.959-16.561,5.97-16.545,6.11l14.015-0.43c5.78-0.37,11.4-2.34,16.2-5.68
				l59.17-45.49c1.34-0.93,1.98-2.2,2.03-3.91C238.434,160.365,235.544,157.245,232.024,157.095z"/>
		</g>
	</g>
</g>
</svg>
