<?xml version="1.0" encoding="utf-8"?>
<!-- Generator: Adobe Illustrator 22.0.1, SVG Export Plug-In . SVG Version: 6.00 Build 0)  -->
<svg version="1.1" id="Layer_1" xmlns="http://www.w3.org/2000/svg" xmlns:xlink="http://www.w3.org/1999/xlink" x="0px" y="0px"
	 viewBox="0 0 256 256" style="enable-background:new 0 0 256 256;" xml:space="preserve">
<style type="text/css">
	.st0{fill:#3A312A;}
	.st1{fill:#8AC6DD;}
	.st2{fill:#F16C7A;}
	.st3{fill:#D7E057;}
	.st4{fill:#87796F;}
	.st5{fill:#FCE8CB;}
	.st6{fill:#DECAAD;}
	.st7{fill:#D6DF58;}
	.st8{fill:#FAE6CA;}
	.st9{fill:#DDC9AC;}
	.st10{fill:#D5DE58;}
	.st11{fill:#ED6E7A;}
	.st12{fill:#8AC5DC;}
	.st13{fill:#6CA8BF;}
	.st14{fill:#695B51;}
	.st15{fill:#F8E4C8;}
	.st16{fill:#EF6D7A;}
	.st17{fill-rule:evenodd;clip-rule:evenodd;fill:#F8E4C8;}
	.st18{fill:#89C4DB;}
	.st19{fill:#F59689;}
	.st20{fill:#D34E5C;}
	.st21{fill:#F7E3C7;}
	.st22{fill:#8AC3DA;}
	.st23{fill-rule:evenodd;clip-rule:evenodd;fill:#F7E3C7;}
	.st24{fill-rule:evenodd;clip-rule:evenodd;fill:#87796F;}
	.st25{fill:#B9C239;}
	.st26{fill:#D4DB56;}
	.st27{fill-rule:evenodd;clip-rule:evenodd;fill:#F16C7A;}
	.st28{fill-rule:evenodd;clip-rule:evenodd;fill:#F6E2C6;}
	.st29{fill:#F6E2C6;}
	.st30{fill-rule:evenodd;clip-rule:evenodd;fill:#FAE6CA;}
	.st31{fill:#B8C136;}
</style>
<g>
	<g>
		<g>
			<path class="st4" d="M222.395,16.135H33.605c-9.447,0-17.105,7.658-17.105,17.106V163.53c0,9.447,7.658,17.105,17.105,17.105
				h188.789c9.447,0,17.105-7.658,17.105-17.105V33.241C239.5,23.794,231.842,16.135,222.395,16.135z"/>
		</g>
	</g>
	<g>
		<g>
			<path class="st0" d="M222.395,14.635H33.605C23.347,14.635,15,22.981,15,33.241V163.53c0,10.259,8.347,18.606,18.605,18.606
				h188.789c10.259,0,18.605-8.346,18.605-18.606V33.241C241,22.981,232.653,14.635,222.395,14.635z M238,163.53
				c0,8.605-7.001,15.606-15.605,15.606H33.605c-8.604,0-15.605-7.001-15.605-15.606V33.241c0-8.605,7.001-15.605,15.605-15.605
				h188.789c8.604,0,15.605,7,15.605,15.605V163.53z"/>
		</g>
	</g>
	<g>
		<g>
			<path class="st5" d="M214.97,28.64H41.03c-6.58,0-11.92,5.33-11.92,11.92v115.66c0,6.58,5.34,11.92,11.92,11.92h173.94
				c6.58,0,11.92-5.34,11.92-11.92V40.56C226.89,33.97,221.55,28.64,214.97,28.64z"/>
		</g>
	</g>
	<g>
		<g>
			<path class="st0" d="M214.97,27.14H86.333c-0.828,0-1.5,0.671-1.5,1.5c0,0.829,0.672,1.5,1.5,1.5H214.97
				c5.745,0,10.42,4.674,10.42,10.42v115.66c0,5.746-4.675,10.42-10.42,10.42H41.03c-5.745,0-10.42-4.674-10.42-10.42V40.56
				c0-5.746,4.675-10.42,10.42-10.42h32.638c0.828,0,1.5-0.671,1.5-1.5c0-0.829-0.672-1.5-1.5-1.5H41.03
				c-7.399,0-13.42,6.02-13.42,13.42v115.66c0,7.4,6.021,13.42,13.42,13.42H214.97c7.399,0,13.42-6.02,13.42-13.42V40.56
				C228.39,33.16,222.369,27.14,214.97,27.14z"/>
		</g>
	</g>
	<g>
		<g>
			<rect x="113.688" y="180.635" class="st4" width="28.625" height="35.593"/>
		</g>
	</g>
	<g>
		<g>
			<path class="st0" d="M142.313,179.135h-28.625c-0.828,0-1.5,0.671-1.5,1.5v35.593c0,0.829,0.672,1.5,1.5,1.5h28.625
				c0.828,0,1.5-0.671,1.5-1.5v-35.593C143.813,179.807,143.141,179.135,142.313,179.135z M140.813,214.728h-25.625v-32.593h25.625
				V214.728z"/>
		</g>
	</g>
	<g>
		<g>
			<path class="st4" d="M148.296,216.229h-40.593c-12.927,0-23.407,10.479-23.407,23.407h87.406
				C171.703,226.708,161.224,216.229,148.296,216.229z"/>
		</g>
	</g>
	<g>
		<g>
			<path class="st0" d="M148.297,214.728h-40.594c-13.733,0-24.906,11.173-24.906,24.907c0,0.829,0.672,1.5,1.5,1.5h37.584
				c0.828,0,1.5-0.671,1.5-1.5c0-0.829-0.672-1.5-1.5-1.5H85.848c0.773-11.382,10.28-20.407,21.855-20.407h40.594
				c11.575,0,21.082,9.024,21.855,20.407h-34.701c-0.828,0-1.5,0.671-1.5,1.5c0,0.829,0.672,1.5,1.5,1.5h36.252
				c0.828,0,1.5-0.671,1.5-1.5C173.203,225.902,162.03,214.728,148.297,214.728z"/>
		</g>
	</g>
	<g>
		<g>
			<path class="st6" d="M214.97,30.135h-15c5.74,0,10.42,4.67,10.42,10.42v115.66c0,5.75-4.68,10.42-10.42,10.42h15
				c5.74,0,10.42-4.67,10.42-10.42V40.555C225.39,34.805,220.71,30.135,214.97,30.135z"/>
		</g>
	</g>
	<g>
		<g>
			<path class="st7" d="M47.671,203.469c-0.974,11.564-13.025,13.389-13.025,13.389c10.346,0.487,12.925,14.059,12.925,14.059
				c0.221-9.677,13.321-14.202,13.321-14.202C51.079,216.129,47.671,203.469,47.671,203.469z"/>
		</g>
	</g>
	<g>
		<g>
			<path class="st0" d="M60.982,215.218c-8.604-0.514-11.832-12.024-11.863-12.141c-0.19-0.702-0.849-1.161-1.584-1.102
				c-0.725,0.066-1.298,0.642-1.359,1.367c-0.859,10.215-11.313,11.964-11.754,12.033c-0.763,0.115-1.313,0.79-1.273,1.56
				c0.04,0.77,0.657,1.384,1.428,1.421c9.028,0.425,11.499,12.718,11.522,12.842c0.138,0.711,0.76,1.217,1.473,1.217
				c0.042,0,0.084-0.002,0.126-0.005c0.765-0.064,1.357-0.693,1.375-1.459c0.193-8.508,12.19-12.777,12.312-12.819
				c0.676-0.235,1.092-0.914,0.994-1.623C62.279,215.802,61.696,215.261,60.982,215.218z M47.417,225.565
				c-1.357-3.13-3.709-6.908-7.588-8.877c2.931-1.405,6.409-3.913,8.202-8.273c1.551,3.071,4.2,6.88,8.334,8.722
				C53.358,218.777,49.443,221.543,47.417,225.565z"/>
		</g>
	</g>
	<g>
		<g>
			<path class="st7" d="M25.972,220.45c-0.689,8.179-9.212,9.471-9.212,9.471c7.318,0.344,9.142,9.944,9.142,9.944
				c0.156-6.845,9.422-10.045,9.422-10.045C28.383,229.404,25.972,220.45,25.972,220.45z"/>
		</g>
	</g>
	<g>
		<g>
			<path class="st0" d="M35.414,228.322c-5.767-0.345-7.972-8.186-7.993-8.265c-0.19-0.703-0.866-1.163-1.582-1.102
				c-0.726,0.065-1.3,0.642-1.361,1.368c-0.579,6.871-7.646,8.067-7.942,8.114c-0.763,0.115-1.313,0.79-1.273,1.56
				c0.04,0.77,0.657,1.384,1.428,1.421c6.035,0.284,7.724,8.644,7.739,8.726c0.136,0.712,0.759,1.22,1.473,1.22
				c0.041,0,0.083-0.001,0.125-0.005c0.765-0.063,1.358-0.694,1.376-1.461c0.13-5.709,8.331-8.634,8.412-8.662
				c0.676-0.234,1.093-0.913,0.996-1.622C36.713,228.906,36.128,228.365,35.414,228.322z M25.829,235.117
				c-0.924-1.886-2.34-3.947-4.447-5.28c1.856-1.041,3.697-2.63,4.871-4.917c1.057,1.874,2.654,3.955,4.941,5.224
				C29.345,231.245,27.205,232.884,25.829,235.117z"/>
		</g>
	</g>
	<g>
		<g>
			<path class="st7" d="M25.972,193.792c-0.689,8.179-9.212,9.471-9.212,9.471c7.318,0.345,9.142,9.944,9.142,9.944
				c0.156-6.845,9.422-10.045,9.422-10.045C28.383,202.747,25.972,193.792,25.972,193.792z"/>
		</g>
	</g>
	<g>
		<g>
			<path class="st0" d="M35.414,201.664c-5.767-0.345-7.972-8.185-7.993-8.264c-0.19-0.702-0.866-1.162-1.582-1.102
				c-0.726,0.065-1.3,0.642-1.361,1.368c-0.579,6.871-7.646,8.066-7.942,8.113c-0.763,0.115-1.313,0.79-1.273,1.56
				c0.04,0.77,0.657,1.384,1.428,1.421c6.035,0.284,7.724,8.645,7.739,8.726c0.136,0.713,0.759,1.22,1.473,1.22
				c0.041,0,0.083-0.001,0.125-0.005c0.765-0.063,1.358-0.694,1.376-1.461c0.13-5.71,8.331-8.634,8.412-8.662
				c0.676-0.234,1.093-0.913,0.996-1.622C36.713,202.248,36.128,201.707,35.414,201.664z M25.829,208.459
				c-0.924-1.885-2.34-3.947-4.447-5.28c1.856-1.041,3.697-2.63,4.871-4.917c1.057,1.873,2.654,3.955,4.941,5.224
				C29.345,204.588,27.205,206.227,25.829,208.459z"/>
		</g>
	</g>
	<g>
		<g>
			<path class="st1" d="M177.975,67.899c-1.201-1.906-3.721-2.477-5.626-1.275c-1.906,1.202-2.476,3.72-1.275,5.626
				c5.088,8.07,7.777,17.402,7.777,26.988c0,27.954-22.742,50.696-50.696,50.696c-13.163,0-25.169-5.044-34.19-13.298l-5.043-5.328
				c-7.16-8.744-11.463-19.913-11.463-32.07c0-27.954,22.742-50.696,50.696-50.696c7.949,0,15.61,1.817,22.569,5.291l-1.989,0.47
				c-2.193,0.518-3.55,2.715-3.032,4.908c0.467,1.977,2.298,3.275,4.261,3.131c0.215-0.016,0.431-0.048,0.646-0.099l11.652-2.752
				c1.053-0.249,1.964-0.906,2.532-1.826c0.569-0.92,0.749-2.029,0.5-3.082l-2.752-11.652c-0.518-2.192-2.716-3.548-4.907-3.032
				c-2.193,0.518-3.55,2.715-3.032,4.907l0.494,2.091c-8.274-4.279-17.432-6.513-26.941-6.513
				c-32.452,0-58.854,26.402-58.854,58.854c0,32.452,26.402,58.854,58.854,58.854s58.854-26.402,58.854-58.854
				C187.009,88.111,183.885,77.274,177.975,67.899z"/>
		</g>
	</g>
	<g>
		<g>
			<path class="st0" d="M179.244,67.1c-0.795-1.261-2.033-2.137-3.487-2.466c-1.455-0.331-2.949-0.072-4.208,0.722
				c-1.261,0.795-2.137,2.033-2.466,3.486s-0.072,2.948,0.723,4.208c4.937,7.83,7.546,16.886,7.546,26.188
				c0,27.127-22.069,49.196-49.196,49.196c-12.282,0-24.049-4.57-33.139-12.869l-4.968-5.249
				c-7.151-8.753-11.09-19.788-11.09-31.079c0-27.127,22.069-49.196,49.196-49.196c6.427,0,12.615,1.2,18.447,3.572
				c-1.897,1.254-2.911,3.603-2.359,5.941c0.634,2.681,3.074,4.488,5.829,4.283c0.296-0.022,0.592-0.067,0.883-0.135l11.651-2.752
				c1.43-0.337,2.692-1.248,3.463-2.497c0.784-1.268,1.027-2.765,0.685-4.215l-2.752-11.652c-0.706-2.991-3.719-4.851-6.712-4.147
				c-1.451,0.343-2.681,1.229-3.465,2.497c-0.615,0.996-0.896,2.133-0.823,3.277c-7.788-3.538-16.132-5.33-24.847-5.33
				c-33.279,0-60.354,27.075-60.354,60.354c0,33.279,27.075,60.354,60.354,60.354s60.354-27.075,60.354-60.354
				C188.51,87.827,185.306,76.713,179.244,67.1z M128.155,156.592c-31.625,0-57.354-25.729-57.354-57.354
				c0-31.625,25.729-57.354,57.354-57.354c9.277,0,18.109,2.135,26.251,6.345c0.521,0.269,1.149,0.211,1.612-0.15
				c0.462-0.36,0.672-0.957,0.537-1.527l-0.493-2.092c-0.159-0.67-0.047-1.362,0.315-1.948c0.362-0.586,0.931-0.996,1.6-1.154
				c1.383-0.321,2.779,0.534,3.104,1.917l2.752,11.652c0.158,0.67,0.047,1.362-0.316,1.948c-0.356,0.578-0.94,0.999-1.601,1.154
				l-11.65,2.752c-0.138,0.032-0.274,0.053-0.412,0.063c-1.247,0.094-2.399-0.74-2.691-1.98c-0.327-1.384,0.533-2.776,1.917-3.103
				l1.988-0.469c0.614-0.145,1.072-0.66,1.146-1.287c0.072-0.627-0.255-1.233-0.82-1.515c-7.24-3.616-15.059-5.449-23.238-5.449
				c-28.781,0-52.196,23.415-52.196,52.196c0,12,4.191,23.727,11.803,33.021c0.023,0.028,0.046,0.055,0.07,0.081l5.043,5.328
				c0.025,0.026,0.051,0.051,0.077,0.075c9.649,8.829,22.151,13.691,35.203,13.691c28.781,0,52.196-23.415,52.196-52.196
				c0-9.869-2.77-19.478-8.009-27.788c-0.367-0.583-0.486-1.273-0.334-1.945s0.558-1.244,1.141-1.612
				c0.583-0.367,1.276-0.485,1.944-0.334c0.672,0.152,1.244,0.557,1.612,1.141c5.76,9.134,8.804,19.694,8.804,30.539
				C185.51,130.863,159.78,156.592,128.155,156.592z"/>
		</g>
	</g>
	<g>
		<g>
			<circle class="st3" cx="128.166" cy="99.706" r="37.965"/>
		</g>
	</g>
	<g>
		<g>
			<path class="st0" d="M128.166,60.24c-21.761,0-39.465,17.704-39.465,39.465c0,21.761,17.704,39.465,39.465,39.465
				c21.762,0,39.466-17.704,39.466-39.465C167.632,77.944,149.928,60.24,128.166,60.24z M128.166,136.171
				c-20.106,0-36.465-16.358-36.465-36.465c0-20.107,16.358-36.465,36.465-36.465c20.107,0,36.466,16.358,36.466,36.465
				C164.632,119.813,148.273,136.171,128.166,136.171z"/>
		</g>
	</g>
	<g>
		<g>
			<path class="st4" d="M132.68,95.412c-5.529-2.081-7.807-3.447-7.807-5.594c0-1.821,1.366-3.643,5.595-3.643
				c4.683,0,7.676,1.496,9.367,2.212l1.887-7.35c-2.147-1.041-5.074-1.953-9.432-2.147v-5.725h-6.375v6.179
				c-6.96,1.366-10.993,5.854-10.993,11.579c0,6.31,4.748,9.563,11.709,11.904c4.814,1.626,6.896,3.188,6.896,5.659
				c0,2.603-2.537,4.034-6.245,4.034c-4.229,0-8.066-1.366-10.798-2.862l-1.951,7.61c2.472,1.431,6.7,2.601,11.058,2.797v6.179
				h6.375v-6.635c7.481-1.3,11.579-6.244,11.579-12.034C143.543,101.723,140.42,98.145,132.68,95.412z"/>
		</g>
	</g>
	<g>
		<g>
			<path class="st0" d="M133.208,94.009c-4.918-1.851-6.834-3.026-6.834-4.19c0-1.864,2.565-2.143,4.095-2.143
				c3.963,0,6.57,1.134,8.296,1.884l0.485,0.209c0.402,0.169,0.858,0.156,1.25-0.037c0.392-0.194,0.68-0.549,0.788-0.972l1.887-7.35
				c0.177-0.691-0.156-1.412-0.799-1.723c-2.474-1.2-5.294-1.925-8.586-2.204v-4.318c0-0.829-0.672-1.5-1.5-1.5h-6.375
				c-0.828,0-1.5,0.671-1.5,1.5v4.982c-6.815,1.756-10.993,6.564-10.993,12.777c0,8.016,6.803,11.332,12.728,13.325
				c5.164,1.745,5.876,3.068,5.876,4.238c0,2.412-3.952,2.534-4.744,2.534c-4.513,0-8.252-1.678-10.079-2.678
				c-0.406-0.222-0.891-0.245-1.317-0.06c-0.425,0.185-0.74,0.555-0.856,1.003l-1.951,7.61c-0.167,0.651,0.12,1.334,0.702,1.671
				c2.543,1.472,6.395,2.545,10.309,2.9v4.778c0,0.829,0.672,1.5,1.5,1.5h6.375c0.828,0,1.5-0.671,1.5-1.5v-5.412
				c7.077-1.679,11.579-6.775,11.579-13.257C145.043,100.994,141.495,96.933,133.208,94.009z M131.707,118.133
				c-0.719,0.125-1.243,0.748-1.243,1.478v5.135h-3.375v-4.68c0-0.802-0.631-1.462-1.433-1.499
				c-3.386-0.152-6.919-0.948-9.376-2.082l1.195-4.66c2.322,1.046,5.787,2.195,9.806,2.195c4.704,0,7.744-2.172,7.744-5.534
				c0-3.872-3.805-5.691-7.917-7.081c-7.49-2.519-10.687-5.655-10.687-10.482c0-5.127,3.657-8.905,9.782-10.108
				c0.703-0.138,1.211-0.755,1.211-1.472v-4.679h3.375v4.225c0,0.803,0.632,1.463,1.434,1.499c2.983,0.133,5.525,0.627,7.73,1.507
				l-1.137,4.427c-1.876-0.76-4.608-1.647-8.348-1.647c-5.231,0-7.095,2.657-7.095,5.143c0,3.422,3.804,5.126,8.807,7.009
				c8.185,2.889,9.862,6.387,9.862,10.75C142.043,112.98,138.082,117.025,131.707,118.133z"/>
		</g>
	</g>
</g>
</svg>
