<?xml version="1.0" encoding="utf-8"?>
<!-- Generator: Adobe Illustrator 22.0.1, SVG Export Plug-In . SVG Version: 6.00 Build 0)  -->
<svg version="1.1" id="Layer_1" xmlns="http://www.w3.org/2000/svg" xmlns:xlink="http://www.w3.org/1999/xlink" x="0px" y="0px"
	 viewBox="0 0 256 256" style="enable-background:new 0 0 256 256;" xml:space="preserve">
<style type="text/css">
	.st0{fill:#3A312A;}
	.st1{fill:#8AC6DD;}
	.st2{fill:#F16C7A;}
	.st3{fill:#D7E057;}
	.st4{fill:#87796F;}
	.st5{fill:#FCE8CB;}
	.st6{fill:#DECAAD;}
	.st7{fill:#D6DF58;}
	.st8{fill:#FAE6CA;}
	.st9{fill:#DDC9AC;}
	.st10{fill:#D5DE58;}
	.st11{fill:#ED6E7A;}
	.st12{fill:#8AC5DC;}
	.st13{fill:#6CA8BF;}
	.st14{fill:#695B51;}
	.st15{fill:#F8E4C8;}
	.st16{fill:#EF6D7A;}
	.st17{fill-rule:evenodd;clip-rule:evenodd;fill:#F8E4C8;}
	.st18{fill:#89C4DB;}
	.st19{fill:#F59689;}
	.st20{fill:#D34E5C;}
	.st21{fill:#F7E3C7;}
	.st22{fill:#8AC3DA;}
	.st23{fill-rule:evenodd;clip-rule:evenodd;fill:#F7E3C7;}
	.st24{fill-rule:evenodd;clip-rule:evenodd;fill:#87796F;}
	.st25{fill:#B9C239;}
	.st26{fill:#D4DB56;}
	.st27{fill-rule:evenodd;clip-rule:evenodd;fill:#F16C7A;}
	.st28{fill-rule:evenodd;clip-rule:evenodd;fill:#F6E2C6;}
	.st29{fill:#F6E2C6;}
	.st30{fill-rule:evenodd;clip-rule:evenodd;fill:#FAE6CA;}
	.st31{fill:#B8C136;}
</style>
<g>
	<g>
		<g>
			<path class="st3" d="M48.045,26.294c-0.974,11.564-13.025,13.39-13.025,13.39c10.347,0.487,12.925,14.059,12.925,14.059
				c0.221-9.677,13.321-14.202,13.321-14.202C51.453,38.954,48.045,26.294,48.045,26.294z"/>
		</g>
	</g>
	<g>
		<g>
			<path class="st0" d="M61.356,38.043c-8.605-0.514-11.832-12.024-11.863-12.14c-0.19-0.702-0.848-1.159-1.583-1.102
				c-0.725,0.066-1.298,0.642-1.359,1.367c-0.86,10.215-11.313,11.963-11.754,12.032c-0.763,0.115-1.313,0.79-1.273,1.561
				c0.04,0.77,0.657,1.384,1.427,1.421c9.028,0.425,11.499,12.718,11.523,12.842c0.137,0.711,0.759,1.217,1.472,1.217
				c0.042,0,0.084-0.002,0.126-0.005c0.764-0.064,1.357-0.693,1.375-1.459C49.64,45.269,61.637,41,61.758,40.958
				c0.675-0.235,1.092-0.915,0.994-1.623C62.654,38.627,62.07,38.086,61.356,38.043z M47.79,48.389
				c-1.357-3.13-3.709-6.907-7.587-8.876c2.931-1.405,6.409-3.913,8.202-8.273c1.551,3.071,4.2,6.88,8.334,8.722
				C53.732,41.602,49.817,44.368,47.79,48.389z"/>
		</g>
	</g>
	<g>
		<g>
			<path class="st3" d="M26.346,43.275c-0.689,8.179-9.212,9.471-9.212,9.471c7.318,0.344,9.142,9.944,9.142,9.944
				c0.156-6.845,9.422-10.045,9.422-10.045C28.757,52.229,26.346,43.275,26.346,43.275z"/>
		</g>
	</g>
	<g>
		<g>
			<path class="st0" d="M35.788,51.146c-5.766-0.345-7.972-8.185-7.994-8.264c-0.19-0.702-0.855-1.168-1.582-1.102
				c-0.726,0.065-1.299,0.643-1.36,1.368c-0.579,6.871-7.647,8.067-7.942,8.114c-0.763,0.115-1.313,0.79-1.273,1.56
				c0.04,0.77,0.657,1.384,1.428,1.421c6.035,0.284,7.723,8.644,7.739,8.726c0.135,0.713,0.759,1.22,1.472,1.22
				c0.042,0,0.083-0.001,0.125-0.005c0.765-0.064,1.358-0.694,1.376-1.461c0.13-5.71,8.332-8.634,8.413-8.662
				c0.677-0.234,1.094-0.913,0.996-1.622C37.087,51.731,36.502,51.19,35.788,51.146z M26.203,57.942
				c-0.924-1.886-2.34-3.947-4.447-5.28c1.856-1.041,3.697-2.629,4.87-4.916c1.057,1.874,2.654,3.954,4.941,5.223
				C29.718,54.07,27.579,55.709,26.203,57.942z"/>
		</g>
	</g>
	<g>
		<g>
			<path class="st3" d="M26.346,16.617c-0.689,8.179-9.212,9.47-9.212,9.47c7.318,0.344,9.142,9.944,9.142,9.944
				c0.156-6.845,9.422-10.045,9.422-10.045C28.757,25.571,26.346,16.617,26.346,16.617z"/>
		</g>
	</g>
	<g>
		<g>
			<path class="st0" d="M35.788,24.489c-5.767-0.345-7.973-8.186-7.994-8.265c-0.19-0.702-0.855-1.169-1.582-1.102
				c-0.726,0.065-1.299,0.643-1.36,1.368c-0.579,6.871-7.647,8.067-7.942,8.114c-0.763,0.115-1.313,0.79-1.273,1.561
				c0.04,0.77,0.657,1.384,1.428,1.421c6.035,0.284,7.723,8.644,7.739,8.726c0.135,0.713,0.759,1.22,1.472,1.22
				c0.042,0,0.083-0.001,0.125-0.005c0.765-0.063,1.358-0.694,1.376-1.461c0.13-5.709,8.331-8.634,8.413-8.662
				c0.676-0.234,1.094-0.913,0.996-1.622C37.087,25.074,36.502,24.532,35.788,24.489z M26.203,31.284
				c-0.924-1.885-2.34-3.947-4.447-5.28c1.856-1.041,3.697-2.629,4.87-4.916c1.057,1.874,2.655,3.954,4.941,5.224
				C29.718,27.413,27.579,29.052,26.203,31.284z"/>
		</g>
	</g>
	<g>
		<g>
			<path class="st1" d="M129.7,22.142c-0.98-0.83-2.42-0.83-3.4,0l-98.8,83.8v133.55h201v-133.55L129.7,22.142z"/>
		</g>
	</g>
	<g>
		<g>
			<path class="st0" d="M229.47,104.798l-98.8-83.8c-1.547-1.311-3.792-1.31-5.34,0l-98.8,83.8c-0.336,0.285-0.53,0.704-0.53,1.144
				v47.14c0,0.829,0.671,1.5,1.5,1.5s1.5-0.671,1.5-1.5v-46.445l98.269-83.35c0.423-0.358,1.038-0.359,1.461,0L227,106.637v131.356
				H29v-70.09c0-0.829-0.671-1.5-1.5-1.5s-1.5,0.671-1.5,1.5v71.59c0,0.829,0.671,1.5,1.5,1.5h201c0.829,0,1.5-0.671,1.5-1.5
				v-133.55C230,105.502,229.806,105.083,229.47,104.798z"/>
		</g>
	</g>
	<g>
		<g>
			<path class="st2" d="M243.059,111.112L134.225,18.799c-3.607-3.054-8.842-3.056-12.453,0.004l-38.34,32.52l-10.003,8.485
				l-60.487,51.305c-2.948,2.501-3.31,6.919-0.809,9.866c2.501,2.949,6.919,3.31,9.867,0.81L128,31.877l106.001,89.911
				c1.316,1.116,2.925,1.662,4.525,1.662c1.984,0,3.957-0.84,5.341-2.472C246.369,118.031,246.006,113.613,243.059,111.112z"/>
		</g>
	</g>
	<g>
		<g>
			<path class="st0" d="M247.001,115.755c-0.186-2.263-1.241-4.318-2.973-5.787L135.194,17.653
				c-4.169-3.529-10.222-3.528-14.392,0.005l-38.34,32.52c-0.632,0.536-0.709,1.482-0.174,2.114c0.536,0.632,1.483,0.71,2.114,0.174
				l38.34-32.52c3.046-2.582,7.468-2.582,10.513-0.004l108.834,92.313c1.12,0.951,1.803,2.28,1.923,3.745
				c0.12,1.464-0.337,2.888-1.288,4.008c-1.047,1.234-2.577,1.942-4.197,1.942c-1.299,0-2.562-0.464-3.555-1.306L128.97,30.732
				c-0.56-0.475-1.381-0.475-1.94,0L21.029,120.644c-2.312,1.962-5.79,1.677-7.753-0.636c-0.95-1.12-1.407-2.543-1.287-4.007
				c0.12-1.464,0.803-2.794,1.923-3.744l60.487-51.305c0.632-0.536,0.71-1.482,0.174-2.114c-0.536-0.632-1.483-0.71-2.114-0.174
				l-60.487,51.305c-1.732,1.469-2.787,3.524-2.973,5.787c-0.185,2.263,0.521,4.463,1.99,6.193
				c3.032,3.573,8.406,4.015,11.981,0.983L128,33.843l105.031,89.088c1.535,1.301,3.486,2.018,5.496,2.018
				c2.503,0,4.867-1.094,6.485-3.001C246.48,120.218,247.187,118.018,247.001,115.755z"/>
		</g>
	</g>
	<g>
		<g>
			<path class="st0" d="M201.051,141.431c-0.559-0.611-1.508-0.653-2.119-0.094l-36.926,33.808l-33.983-18.667
				c-0.598-0.329-1.342-0.213-1.811,0.283l-34.78,36.713L56.85,171.868c-0.704-0.44-1.628-0.225-2.067,0.477
				c-0.439,0.703-0.226,1.628,0.477,2.067l35.623,22.255c0.246,0.153,0.521,0.228,0.794,0.228c0.401,0,0.798-0.161,1.089-0.468
				l34.827-36.763l33.91,18.628c0.563,0.309,1.261,0.225,1.735-0.208l37.719-34.534C201.569,142.99,201.61,142.042,201.051,141.431z
				"/>
		</g>
	</g>
	<g>
		<g>
			
				<ellipse transform="matrix(0.9925 -0.1222 0.1222 0.9925 -23.1837 12.7199)" class="st16" cx="92.123" cy="195.395" rx="10.055" ry="10.055"/>
		</g>
	</g>
	<g>
		<g>
			<path class="st0" d="M92.123,183.839c-6.371,0-11.555,5.184-11.555,11.555s5.184,11.555,11.555,11.555
				c6.372,0,11.555-5.184,11.555-11.555S98.495,183.839,92.123,183.839z M92.123,203.95c-4.717,0-8.555-3.838-8.555-8.555
				s3.838-8.555,8.555-8.555c4.717,0,8.555,3.838,8.555,8.555S96.841,203.95,92.123,203.95z"/>
		</g>
	</g>
	<g>
		<g>
			<path class="st7" d="M127.445,147.857c-5.553,0-10.055,4.502-10.055,10.055c0,5.554,4.502,10.055,10.055,10.055
				c5.553,0,10.055-4.502,10.055-10.055C137.501,152.359,132.999,147.857,127.445,147.857z"/>
		</g>
	</g>
	<g>
		<g>
			<path class="st0" d="M127.445,146.357c-6.372,0-11.555,5.184-11.555,11.555c0,6.372,5.184,11.555,11.555,11.555
				c6.372,0,11.555-5.184,11.555-11.555C139,151.541,133.817,146.357,127.445,146.357z M127.445,166.468
				c-4.717,0-8.555-3.838-8.555-8.555c0-4.717,3.838-8.555,8.555-8.555s8.555,3.838,8.555,8.555
				C136,162.63,132.163,166.468,127.445,166.468z"/>
		</g>
	</g>
	<g>
		<g>
			
				<ellipse transform="matrix(0.9732 -0.2298 0.2298 0.9732 -36.3037 42.0039)" class="st8" cx="162.225" cy="176.901" rx="10.055" ry="10.055"/>
		</g>
	</g>
	<g>
		<g>
			<path class="st0" d="M162.225,165.345c-6.372,0-11.555,5.184-11.555,11.555c0,6.372,5.184,11.556,11.555,11.556
				s11.555-5.184,11.555-11.556C173.78,170.529,168.597,165.345,162.225,165.345z M162.225,185.456
				c-4.717,0-8.555-3.838-8.555-8.556c0-4.717,3.838-8.555,8.555-8.555s8.555,3.838,8.555,8.555
				C170.78,181.618,166.942,185.456,162.225,185.456z"/>
		</g>
	</g>
	<g>
		<g>
			
				<ellipse transform="matrix(0.1222 -0.9925 0.9925 0.1222 34.139 323.4859)" class="st4" cx="199.945" cy="142.443" rx="10.055" ry="10.055"/>
		</g>
	</g>
	<g>
		<g>
			<path class="st0" d="M199.945,130.888c-6.372,0-11.555,5.184-11.555,11.555c0,6.372,5.184,11.555,11.555,11.555
				c6.372,0,11.555-5.184,11.555-11.555C211.5,136.072,206.316,130.888,199.945,130.888z M199.945,150.999
				c-4.717,0-8.555-3.838-8.555-8.555c0-4.717,3.838-8.555,8.555-8.555c4.717,0,8.555,3.838,8.555,8.555
				C208.5,147.161,204.662,150.999,199.945,150.999z"/>
		</g>
	</g>
	<g>
		<g>
			
				<ellipse transform="matrix(0.9732 -0.2298 0.2298 0.9732 -38.3009 17.513)" class="st4" cx="56.055" cy="173.231" rx="10.055" ry="10.055"/>
		</g>
	</g>
	<g>
		<g>
			<path class="st0" d="M56.055,161.676c-6.372,0-11.555,5.184-11.555,11.555c0,6.372,5.184,11.555,11.555,11.555
				c6.372,0,11.555-5.184,11.555-11.555C67.61,166.859,62.427,161.676,56.055,161.676z M56.055,181.786
				c-4.717,0-8.555-3.838-8.555-8.555c0-4.717,3.838-8.555,8.555-8.555c4.717,0,8.555,3.838,8.555,8.555
				C64.61,177.948,60.773,181.786,56.055,181.786z"/>
		</g>
	</g>
	<g>
		<g>
			<path class="st13" d="M128,33.843l-8,6.79l87.121,73.89c2.461,2.087,3.879,5.15,3.879,8.377v16.183c0.33,1.06,0.5,2.19,0.5,3.36
				c0,1.17-0.17,2.3-0.5,3.36v92.19h16v-120.18L128,33.843z"/>
		</g>
	</g>
</g>
</svg>
