<?xml version="1.0" encoding="utf-8"?>
<!-- Generator: Adobe Illustrator 22.0.1, SVG Export Plug-In . SVG Version: 6.00 Build 0)  -->
<svg version="1.1" id="Layer_1" xmlns="http://www.w3.org/2000/svg" xmlns:xlink="http://www.w3.org/1999/xlink" x="0px" y="0px"
	 viewBox="0 0 256 256" style="enable-background:new 0 0 256 256;" xml:space="preserve">
<style type="text/css">
	.st0{fill:#3A312A;}
	.st1{fill:#8AC6DD;}
	.st2{fill:#F16C7A;}
	.st3{fill:#D7E057;}
	.st4{fill:#87796F;}
	.st5{fill:#FCE8CB;}
	.st6{fill:#DECAAD;}
	.st7{fill:#D6DF58;}
	.st8{fill:#FAE6CA;}
	.st9{fill:#DDC9AC;}
	.st10{fill:#D5DE58;}
	.st11{fill:#ED6E7A;}
	.st12{fill:#8AC5DC;}
	.st13{fill:#6CA8BF;}
	.st14{fill:#695B51;}
	.st15{fill:#F8E4C8;}
	.st16{fill:#EF6D7A;}
	.st17{fill-rule:evenodd;clip-rule:evenodd;fill:#F8E4C8;}
	.st18{fill:#89C4DB;}
	.st19{fill:#F59689;}
	.st20{fill:#D34E5C;}
	.st21{fill:#F7E3C7;}
	.st22{fill:#8AC3DA;}
	.st23{fill-rule:evenodd;clip-rule:evenodd;fill:#F7E3C7;}
	.st24{fill-rule:evenodd;clip-rule:evenodd;fill:#87796F;}
	.st25{fill:#B9C239;}
	.st26{fill:#D4DB56;}
	.st27{fill-rule:evenodd;clip-rule:evenodd;fill:#F16C7A;}
	.st28{fill-rule:evenodd;clip-rule:evenodd;fill:#F6E2C6;}
	.st29{fill:#F6E2C6;}
	.st30{fill-rule:evenodd;clip-rule:evenodd;fill:#FAE6CA;}
	.st31{fill:#B8C136;}
</style>
<g>
	<g>
		<g>
			<rect x="139.557" y="162.153" class="st2" width="38.415" height="77.193"/>
		</g>
	</g>
	<g>
		<g>
			<path class="st0" d="M177.972,192.43c0.828,0,1.5-0.672,1.5-1.5v-28.776c0-0.828-0.672-1.5-1.5-1.5h-38.415
				c-0.828,0-1.5,0.672-1.5,1.5v77.192c0,0.828,0.672,1.5,1.5,1.5h38.415c0.828,0,1.5-0.672,1.5-1.5v-34.191
				c0-0.828-0.672-1.5-1.5-1.5s-1.5,0.672-1.5,1.5v32.691h-35.415v-74.192h35.415v27.276
				C176.472,191.758,177.144,192.43,177.972,192.43z"/>
		</g>
	</g>
	<g>
		<g>
			<path class="st3" d="M226.278,26.331c-0.974,11.564-13.024,13.389-13.024,13.389c10.347,0.487,12.925,14.059,12.925,14.059
				C226.4,44.103,239.5,39.578,239.5,39.578C229.686,38.99,226.278,26.331,226.278,26.331z"/>
		</g>
	</g>
	<g>
		<g>
			<path class="st0" d="M239.59,38.081c-8.604-0.516-11.832-12.025-11.863-12.142c-0.19-0.702-0.851-1.158-1.584-1.102
				c-0.725,0.066-1.298,0.642-1.359,1.367c-0.859,10.216-11.313,11.964-11.754,12.032c-0.763,0.116-1.314,0.791-1.273,1.561
				c0.04,0.771,0.657,1.385,1.428,1.421c9.027,0.426,11.498,12.719,11.521,12.843c0.138,0.712,0.76,1.218,1.473,1.218
				c0.042,0,0.084-0.002,0.126-0.005c0.765-0.064,1.357-0.693,1.375-1.46c0.193-8.509,12.191-12.777,12.313-12.819
				c0.676-0.234,1.092-0.914,0.994-1.622S240.304,38.124,239.59,38.081z M226.023,48.426c-1.356-3.13-3.708-6.907-7.586-8.876
				c2.931-1.404,6.408-3.913,8.201-8.273c1.551,3.071,4.2,6.881,8.334,8.723C231.965,41.639,228.05,44.404,226.023,48.426z"/>
		</g>
	</g>
	<g>
		<g>
			<path class="st3" d="M204.579,43.312c-0.689,8.179-9.212,9.47-9.212,9.47c7.318,0.344,9.142,9.944,9.142,9.944
				c0.156-6.844,9.422-10.045,9.422-10.045C206.99,52.266,204.579,43.312,204.579,43.312z"/>
		</g>
	</g>
	<g>
		<g>
			<path class="st0" d="M214.021,51.185c-5.767-0.346-7.973-8.187-7.995-8.266c-0.19-0.702-0.858-1.161-1.581-1.102
				c-0.726,0.065-1.3,0.643-1.361,1.368c-0.578,6.871-7.646,8.066-7.941,8.113c-0.763,0.116-1.313,0.791-1.273,1.561
				c0.04,0.771,0.657,1.385,1.428,1.421c6.035,0.284,7.723,8.645,7.738,8.727c0.136,0.712,0.759,1.22,1.473,1.22
				c0.041,0,0.083-0.002,0.124-0.005c0.766-0.063,1.359-0.693,1.377-1.461c0.13-5.709,8.332-8.633,8.412-8.661
				c0.677-0.233,1.094-0.913,0.997-1.622C215.32,51.769,214.735,51.228,214.021,51.185z M204.436,57.979
				c-0.924-1.886-2.34-3.947-4.447-5.279c1.855-1.041,3.697-2.63,4.87-4.917c1.058,1.874,2.655,3.955,4.942,5.225
				C207.951,54.106,205.813,55.747,204.436,57.979z"/>
		</g>
	</g>
	<g>
		<g>
			<path class="st3" d="M204.579,16.654c-0.689,8.179-9.212,9.471-9.212,9.471c7.318,0.344,9.142,9.944,9.142,9.944
				c0.156-6.845,9.422-10.045,9.422-10.045C206.99,25.608,204.579,16.654,204.579,16.654z"/>
		</g>
	</g>
	<g>
		<g>
			<path class="st0" d="M214.021,24.526c-5.767-0.345-7.973-8.186-7.995-8.265c-0.19-0.702-0.858-1.16-1.581-1.102
				c-0.726,0.065-1.3,0.643-1.361,1.368c-0.578,6.871-7.646,8.066-7.941,8.113c-0.763,0.116-1.313,0.791-1.273,1.561
				c0.04,0.771,0.657,1.385,1.428,1.421c6.035,0.284,7.723,8.645,7.738,8.727c0.136,0.712,0.759,1.22,1.473,1.22
				c0.041,0,0.083-0.002,0.124-0.005c0.766-0.063,1.359-0.693,1.377-1.461c0.13-5.709,8.332-8.634,8.413-8.662
				c0.676-0.233,1.093-0.913,0.996-1.622C215.32,25.11,214.735,24.568,214.021,24.526z M204.436,31.321
				c-0.924-1.886-2.34-3.947-4.447-5.279c1.855-1.041,3.697-2.63,4.87-4.917c1.058,1.874,2.655,3.954,4.941,5.224
				C207.951,27.449,205.813,29.089,204.436,31.321z"/>
		</g>
	</g>
	<g>
		<g>
			<rect x="16.5" y="212.718" class="st2" width="38.414" height="26.628"/>
		</g>
	</g>
	<g>
		<g>
			<path class="st0" d="M54.915,211.218H16.5c-0.829,0-1.5,0.672-1.5,1.5v26.628c0,0.828,0.671,1.5,1.5,1.5h38.415
				c0.829,0,1.5-0.672,1.5-1.5v-26.628C56.415,211.89,55.743,211.218,54.915,211.218z M53.415,237.846H18v-23.628h35.415V237.846z"
				/>
		</g>
	</g>
	<g>
		<g>
			<rect x="78.028" y="187.435" class="st1" width="38.415" height="51.91"/>
		</g>
	</g>
	<g>
		<g>
			<path class="st0" d="M116.443,185.936H78.028c-0.829,0-1.5,0.672-1.5,1.5v51.91c0,0.828,0.671,1.5,1.5,1.5h38.415
				c0.829,0,1.5-0.672,1.5-1.5v-51.91C117.943,186.607,117.271,185.936,116.443,185.936z M114.943,237.846H79.528v-48.91h35.415
				V237.846z"/>
		</g>
	</g>
	<g>
		<g>
			<rect x="201.085" y="136.871" class="st1" width="38.415" height="102.475"/>
		</g>
	</g>
	<g>
		<g>
			<path class="st0" d="M239.5,135.371h-38.415c-0.828,0-1.5,0.672-1.5,1.5v102.475c0,0.828,0.672,1.5,1.5,1.5H239.5
				c0.828,0,1.5-0.672,1.5-1.5V136.871C241,136.043,240.328,135.371,239.5,135.371z M238,237.846h-35.415v-99.475H238V237.846z"/>
		</g>
	</g>
	<g>
		<g>
			<rect x="222" y="138.372" class="st13" width="16" height="99.47"/>
		</g>
	</g>
	<g>
		<g>
			<path class="st7" d="M86.444,151.463H23.352c-3.784,0-6.852,3.068-6.852,6.852v0.87c0,3.784,3.068,6.852,6.852,6.852h63.091
				c3.784,0,6.852-3.068,6.852-6.852v-0.87C93.296,154.531,90.228,151.463,86.444,151.463z"/>
		</g>
	</g>
	<g>
		<g>
			<path class="st0" d="M86.443,149.963H23.352c-4.606,0-8.352,3.746-8.352,8.352v0.871c0,4.605,3.747,8.352,8.352,8.352H36.38
				c0.829,0,1.5-0.672,1.5-1.5s-0.671-1.5-1.5-1.5H23.352c-2.951,0-5.352-2.4-5.352-5.352v-0.871c0-2.951,2.401-5.352,5.352-5.352
				h63.091c2.951,0,5.353,2.4,5.353,5.352v0.871c0,2.951-2.401,5.352-5.353,5.352H50.12c-0.829,0-1.5,0.672-1.5,1.5
				s0.671,1.5,1.5,1.5h36.323c4.605,0,8.353-3.746,8.353-8.352v-0.871C94.796,153.709,91.049,149.963,86.443,149.963z"/>
		</g>
	</g>
	<g>
		<g>
			<path class="st7" d="M86.444,136.888H23.352c-3.784,0-6.852,3.068-6.852,6.852v0.87c0,3.784,3.068,6.852,6.852,6.852h63.092
				c3.784,0,6.852-3.068,6.852-6.852v-0.87C93.296,139.956,90.228,136.888,86.444,136.888z"/>
		</g>
	</g>
	<g>
		<g>
			<path class="st0" d="M86.443,135.389H23.352c-4.606,0-8.352,3.746-8.352,8.352v0.87c0,4.605,3.747,8.353,8.352,8.353h63.092
				c4.605,0,8.352-3.747,8.352-8.353v-0.87C94.796,139.135,91.049,135.389,86.443,135.389z M91.796,144.61
				c0,2.951-2.401,5.353-5.352,5.353H23.352c-2.951,0-5.352-2.401-5.352-5.353v-0.87c0-2.951,2.401-5.352,5.352-5.352h63.091
				c2.951,0,5.353,2.4,5.353,5.352V144.61z"/>
		</g>
	</g>
	<g>
		<g>
			<path class="st7" d="M86.444,122.314H23.352c-3.784,0-6.852,3.068-6.852,6.852v0.87c0,3.784,3.068,6.852,6.852,6.852h63.092
				c3.784,0,6.852-3.068,6.852-6.852v-0.87C93.296,125.382,90.228,122.314,86.444,122.314z"/>
		</g>
	</g>
	<g>
		<g>
			<path class="st0" d="M86.443,120.814H23.352c-4.606,0-8.352,3.746-8.352,8.352v0.87c0,4.605,3.747,8.353,8.352,8.353h63.091
				c4.605,0,8.353-3.747,8.353-8.353v-0.87C94.796,124.561,91.049,120.814,86.443,120.814z M91.796,130.036
				c0,2.951-2.401,5.353-5.353,5.353H23.352c-2.951,0-5.352-2.401-5.352-5.353v-0.87c0-2.951,2.401-5.352,5.352-5.352h63.091
				c2.951,0,5.353,2.4,5.353,5.352V130.036z"/>
		</g>
	</g>
	<g>
		<g>
			<path class="st7" d="M86.444,107.74H23.352c-3.784,0-6.852,3.068-6.852,6.852v0.87c0,3.784,3.068,6.852,6.852,6.852h63.091
				c3.784,0,6.852-3.068,6.852-6.852v-0.87C93.296,110.808,90.228,107.74,86.444,107.74z"/>
		</g>
	</g>
	<g>
		<g>
			<path class="st0" d="M86.443,106.239H23.352c-4.606,0-8.352,3.747-8.352,8.353v0.87c0,4.605,3.747,8.353,8.352,8.353h63.091
				c4.605,0,8.353-3.747,8.353-8.353v-0.87C94.796,109.986,91.049,106.239,86.443,106.239z M91.796,115.462
				c0,2.951-2.401,5.353-5.353,5.353H23.352c-2.951,0-5.352-2.401-5.352-5.353v-0.87c0-2.951,2.401-5.353,5.352-5.353h63.091
				c2.951,0,5.353,2.401,5.353,5.353V115.462z"/>
		</g>
	</g>
	<g>
		<g>
			<path class="st7" d="M86.444,93.165H23.352c-3.784,0-6.852,3.068-6.852,6.852v0.87c0,3.784,3.068,6.852,6.852,6.852h63.092
				c3.784,0,6.852-3.068,6.852-6.852v-0.87C93.296,96.233,90.228,93.165,86.444,93.165z"/>
		</g>
	</g>
	<g>
		<g>
			<path class="st0" d="M86.443,91.665H23.352c-4.606,0-8.352,3.747-8.352,8.353v0.87c0,4.605,3.747,8.352,8.352,8.352h63.092
				c4.605,0,8.352-3.746,8.352-8.352v-0.87C94.796,95.412,91.049,91.665,86.443,91.665z M91.796,100.888
				c0,2.951-2.401,5.352-5.352,5.352H23.352c-2.951,0-5.352-2.4-5.352-5.352v-0.87c0-2.951,2.401-5.353,5.352-5.353h63.091
				c2.951,0,5.353,2.401,5.353,5.353V100.888z"/>
		</g>
	</g>
	<g>
		<g>
			<path class="st7" d="M177.148,122.315h-63.091c-3.784,0-6.852,3.068-6.852,6.852v0.87c0,3.784,3.068,6.852,6.852,6.852h63.091
				c3.784,0,6.852-3.068,6.852-6.852v-0.87C184,125.383,180.932,122.315,177.148,122.315z"/>
		</g>
	</g>
	<g>
		<g>
			<path class="st0" d="M177.147,120.814h-63.091c-4.606,0-8.352,3.747-8.352,8.353v0.87c0,4.605,3.747,8.353,8.352,8.353h63.091
				c4.605,0,8.353-3.747,8.353-8.353v-0.87C185.5,124.562,181.753,120.814,177.147,120.814z M182.5,130.037
				c0,2.951-2.401,5.353-5.353,5.353h-63.091c-2.951,0-5.352-2.401-5.352-5.353v-0.87c0-2.951,2.401-5.353,5.352-5.353h63.091
				c2.951,0,5.353,2.401,5.353,5.353V130.037z"/>
		</g>
	</g>
	<g>
		<g>
			<path class="st7" d="M177.148,107.74h-63.091c-3.784,0-6.852,3.068-6.852,6.852v0.87c0,3.784,3.068,6.852,6.852,6.852h63.091
				c3.784,0,6.852-3.068,6.852-6.852v-0.87C184,110.808,180.932,107.74,177.148,107.74z"/>
		</g>
	</g>
	<g>
		<g>
			<path class="st0" d="M177.147,106.24h-63.091c-4.606,0-8.352,3.747-8.352,8.353v0.87c0,4.605,3.747,8.352,8.352,8.352h63.091
				c4.605,0,8.353-3.746,8.353-8.352v-0.87C185.5,109.987,181.753,106.24,177.147,106.24z M182.5,115.463
				c0,2.951-2.401,5.352-5.353,5.352h-63.091c-2.951,0-5.352-2.4-5.352-5.352v-0.87c0-2.951,2.401-5.353,5.352-5.353h63.091
				c2.951,0,5.353,2.401,5.353,5.353V115.463z"/>
		</g>
	</g>
	<g>
		<g>
			<path class="st7" d="M177.148,93.166h-63.091c-3.784,0-6.852,3.068-6.852,6.852v0.87c0,3.784,3.068,6.852,6.852,6.852h63.092
				c3.784,0,6.852-3.068,6.852-6.852v-0.87C184,96.234,180.932,93.166,177.148,93.166z"/>
		</g>
	</g>
	<g>
		<g>
			<path class="st0" d="M177.147,91.666h-63.091c-4.606,0-8.352,3.747-8.352,8.353v0.87c0,4.605,3.747,8.352,8.352,8.352h63.091
				c4.605,0,8.353-3.746,8.353-8.352v-0.87C185.5,95.413,181.753,91.666,177.147,91.666z M182.5,100.889
				c0,2.951-2.401,5.352-5.353,5.352h-63.091c-2.951,0-5.352-2.4-5.352-5.352v-0.87c0-2.951,2.401-5.353,5.352-5.353h63.091
				c2.951,0,5.353,2.401,5.353,5.353V100.889z"/>
		</g>
	</g>
	<g>
		<g>
			
				<ellipse transform="matrix(0.3827 -0.9239 0.9239 0.3827 39.1526 168.4156)" class="st7" cx="145.602" cy="54.91" rx="38.255" ry="38.255"/>
		</g>
	</g>
	<g>
		<g>
			<path class="st0" d="M145.602,15.154c-21.921,0-39.756,17.834-39.756,39.756c0,21.921,17.835,39.755,39.756,39.755
				c21.921,0,39.755-17.834,39.755-39.755C185.357,32.988,167.523,15.154,145.602,15.154z M145.602,91.665
				c-20.267,0-36.756-16.488-36.756-36.755c0-20.268,16.489-36.756,36.756-36.756c20.267,0,36.755,16.488,36.755,36.756
				C182.357,75.177,165.869,91.665,145.602,91.665z"/>
		</g>
	</g>
	<g>
		<g>
			<path class="st4" d="M150.15,50.584c-5.572-2.097-7.866-3.473-7.866-5.637c0-1.834,1.377-3.67,5.638-3.67
				c4.719,0,7.734,1.507,9.438,2.229l1.901-7.406c-2.164-1.049-5.113-1.968-9.504-2.164v-5.769h-6.424v6.227
				c-7.013,1.376-11.077,5.899-11.077,11.667c0,6.358,4.785,9.636,11.798,11.995c4.851,1.639,6.948,3.213,6.948,5.702
				c0,2.623-2.557,4.064-6.292,4.064c-4.261,0-8.128-1.376-10.881-2.884l-1.966,7.668c2.491,1.442,6.751,2.621,11.142,2.818v6.227
				h6.424v-6.686c7.538-1.31,11.668-6.292,11.668-12.125C161.097,56.942,157.95,53.337,150.15,50.584z"/>
		</g>
	</g>
	<g>
		<g>
			<path class="st0" d="M150.679,49.18c-4.962-1.867-6.895-3.054-6.895-4.232c0-1.889,2.593-2.171,4.138-2.171
				c3.994,0,6.624,1.143,8.363,1.898l0.49,0.211c0.402,0.172,0.859,0.157,1.25-0.036c0.392-0.194,0.68-0.549,0.788-0.972
				l1.901-7.406c0.177-0.691-0.157-1.412-0.799-1.723c-2.496-1.21-5.34-1.94-8.659-2.221v-4.361c0-0.828-0.672-1.5-1.5-1.5h-6.424
				c-0.828,0-1.5,0.672-1.5,1.5v5.028c-6.867,1.766-11.077,6.608-11.077,12.866c0,8.069,6.852,11.409,12.818,13.416
				c5.21,1.76,5.928,3.098,5.928,4.281c0,2.44-3.992,2.564-4.792,2.564c-4.55,0-8.318-1.691-10.161-2.699
				c-0.406-0.223-0.892-0.245-1.316-0.061c-0.426,0.185-0.741,0.555-0.856,1.003l-1.967,7.668c-0.167,0.651,0.12,1.334,0.701,1.671
				c2.564,1.485,6.448,2.565,10.394,2.922v4.825c0,0.828,0.672,1.5,1.5,1.5h6.424c0.828,0,1.5-0.672,1.5-1.5V76.19
				c7.131-1.688,11.668-6.82,11.668-13.35C162.597,56.214,159.023,52.125,150.679,49.18z M149.172,73.489
				c-0.719,0.125-1.243,0.748-1.243,1.478v5.186h-3.424v-4.727c0-0.803-0.632-1.463-1.433-1.498
				c-3.417-0.153-6.983-0.958-9.461-2.104l1.21-4.717c2.339,1.055,5.834,2.216,9.889,2.216c4.733,0,7.792-2.185,7.792-5.564
				c0-3.895-3.829-5.726-7.969-7.124c-7.555-2.541-10.777-5.703-10.777-10.573c0-5.172,3.688-8.984,9.866-10.196
				c0.703-0.138,1.211-0.755,1.211-1.472v-4.727h3.424v4.269c0,0.803,0.632,1.463,1.434,1.498c3.011,0.135,5.577,0.634,7.803,1.523
				l-1.151,4.483c-1.89-0.767-4.646-1.664-8.42-1.664c-5.263,0-7.138,2.671-7.138,5.171c0,3.441,3.83,5.156,8.867,7.051
				c8.254,2.914,9.945,6.441,9.945,10.843C159.597,68.292,155.602,72.372,149.172,73.489z"/>
		</g>
	</g>
	<g>
		<g>
			
				<ellipse transform="matrix(0.3827 -0.9239 0.9239 0.3827 -16.8407 84.6158)" class="st7" cx="54.898" cy="54.91" rx="38.255" ry="38.255"/>
		</g>
	</g>
	<g>
		<g>
			<path class="st0" d="M54.898,15.154c-21.921,0-39.755,17.834-39.755,39.756c0,21.921,17.834,39.755,39.755,39.755
				c21.921,0,39.755-17.834,39.755-39.755C94.653,32.988,76.819,15.154,54.898,15.154z M54.898,91.665
				c-20.267,0-36.755-16.488-36.755-36.755c0-20.268,16.488-36.756,36.755-36.756c20.267,0,36.755,16.488,36.755,36.756
				C91.653,75.177,75.165,91.665,54.898,91.665z"/>
		</g>
	</g>
	<g>
		<g>
			<path class="st4" d="M59.446,50.584c-5.572-2.097-7.866-3.473-7.866-5.637c0-1.834,1.377-3.67,5.638-3.67
				c4.719,0,7.734,1.507,9.438,2.229l1.901-7.406c-2.164-1.049-5.113-1.968-9.504-2.164v-5.769h-6.424v6.227
				c-7.013,1.376-11.077,5.899-11.077,11.667c0,6.358,4.785,9.636,11.798,11.995c4.851,1.639,6.948,3.213,6.948,5.702
				c0,2.623-2.557,4.064-6.293,4.064c-4.261,0-8.128-1.376-10.881-2.884l-1.966,7.668c2.491,1.442,6.751,2.621,11.142,2.818v6.227
				h6.424v-6.686c7.538-1.31,11.668-6.292,11.668-12.125C70.392,56.942,67.246,53.337,59.446,50.584z"/>
		</g>
	</g>
	<g>
		<g>
			<path class="st0" d="M59.975,49.18c-4.961-1.866-6.895-3.054-6.895-4.232c0-1.889,2.592-2.171,4.137-2.171
				c3.995,0,6.623,1.143,8.363,1.898l0.49,0.211c0.401,0.172,0.859,0.158,1.25-0.036c0.392-0.194,0.679-0.549,0.788-0.972
				l1.901-7.406c0.177-0.691-0.157-1.411-0.799-1.723c-2.495-1.21-5.339-1.94-8.659-2.221v-4.361c0-0.828-0.671-1.5-1.5-1.5h-6.424
				c-0.829,0-1.5,0.672-1.5,1.5v5.028c-6.867,1.766-11.077,6.608-11.077,12.866c0,8.069,6.851,11.409,12.818,13.416
				c5.21,1.76,5.928,3.098,5.928,4.281c0,2.44-3.992,2.564-4.793,2.564c-4.549,0-8.318-1.691-10.161-2.699
				c-0.406-0.224-0.893-0.244-1.317-0.061c-0.425,0.185-0.741,0.555-0.856,1.003l-1.966,7.668c-0.167,0.651,0.12,1.334,0.702,1.671
				c2.565,1.485,6.447,2.565,10.394,2.922v4.825c0,0.828,0.671,1.5,1.5,1.5h6.424c0.829,0,1.5-0.672,1.5-1.5V76.19
				c7.131-1.688,11.667-6.82,11.667-13.35C71.892,56.214,68.319,52.125,59.975,49.18z M58.468,73.489
				c-0.719,0.125-1.243,0.748-1.243,1.478v5.186h-3.424v-4.727c0-0.803-0.631-1.463-1.433-1.498
				c-3.416-0.153-6.983-0.958-9.46-2.104l1.209-4.717c2.339,1.055,5.834,2.216,9.888,2.216c4.734,0,7.793-2.185,7.793-5.564
				c0-3.895-3.83-5.726-7.97-7.124c-7.553-2.541-10.776-5.703-10.776-10.573c0-5.173,3.688-8.984,9.866-10.196
				c0.704-0.138,1.211-0.755,1.211-1.472v-4.727h3.424v4.269c0,0.803,0.632,1.463,1.433,1.498c3.012,0.135,5.578,0.634,7.802,1.523
				l-1.151,4.483c-1.89-0.767-4.646-1.664-8.42-1.664c-5.262,0-7.137,2.671-7.137,5.171c0,3.441,3.831,5.156,8.867,7.051
				c8.253,2.914,9.945,6.441,9.945,10.843C68.892,68.292,64.898,72.372,58.468,73.489z"/>
		</g>
	</g>
</g>
</svg>
