<?xml version="1.0" encoding="utf-8"?>
<!-- Generator: Adobe Illustrator 22.0.1, SVG Export Plug-In . SVG Version: 6.00 Build 0)  -->
<svg version="1.1" id="Layer_1" xmlns="http://www.w3.org/2000/svg" xmlns:xlink="http://www.w3.org/1999/xlink" x="0px" y="0px"
	 viewBox="0 0 256 256" style="enable-background:new 0 0 256 256;" xml:space="preserve">
<style type="text/css">
	.st0{fill:#3A312A;}
	.st1{fill:#8AC6DD;}
	.st2{fill:#F16C7A;}
	.st3{fill:#D7E057;}
	.st4{fill:#87796F;}
	.st5{fill:#FCE8CB;}
	.st6{fill:#DECAAD;}
	.st7{fill:#D6DF58;}
	.st8{fill:#FAE6CA;}
	.st9{fill:#DDC9AC;}
	.st10{fill:#D5DE58;}
	.st11{fill:#ED6E7A;}
	.st12{fill:#8AC5DC;}
	.st13{fill:#6CA8BF;}
	.st14{fill:#695B51;}
	.st15{fill:#F8E4C8;}
	.st16{fill:#EF6D7A;}
	.st17{fill-rule:evenodd;clip-rule:evenodd;fill:#F8E4C8;}
	.st18{fill:#89C4DB;}
	.st19{fill:#F59689;}
	.st20{fill:#D34E5C;}
	.st21{fill:#F7E3C7;}
	.st22{fill:#8AC3DA;}
	.st23{fill-rule:evenodd;clip-rule:evenodd;fill:#F7E3C7;}
	.st24{fill-rule:evenodd;clip-rule:evenodd;fill:#87796F;}
	.st25{fill:#B9C239;}
	.st26{fill:#D4DB56;}
	.st27{fill-rule:evenodd;clip-rule:evenodd;fill:#F16C7A;}
	.st28{fill-rule:evenodd;clip-rule:evenodd;fill:#F6E2C6;}
	.st29{fill:#F6E2C6;}
	.st30{fill-rule:evenodd;clip-rule:evenodd;fill:#FAE6CA;}
	.st31{fill:#B8C136;}
</style>
<g>
	<g>
		<g>
			<path class="st3" d="M47.607,25.939c-0.974,11.564-13.025,13.389-13.025,13.389c10.347,0.487,12.925,14.059,12.925,14.059
				c0.221-9.677,13.321-14.202,13.321-14.202C51.015,38.598,47.607,25.939,47.607,25.939z"/>
		</g>
	</g>
	<g>
		<g>
			<path class="st0" d="M60.918,37.688c-8.604-0.516-11.832-12.025-11.863-12.142c-0.19-0.702-0.847-1.163-1.584-1.102
				c-0.725,0.066-1.298,0.642-1.359,1.367c-0.859,10.215-11.313,11.964-11.754,12.032c-0.763,0.116-1.313,0.791-1.273,1.561
				c0.04,0.771,0.657,1.385,1.428,1.421c9.027,0.426,11.498,12.719,11.521,12.843c0.138,0.712,0.76,1.218,1.473,1.218
				c0.042,0,0.084-0.002,0.126-0.005c0.764-0.064,1.357-0.693,1.375-1.46c0.194-8.509,12.191-12.777,12.313-12.819
				c0.676-0.234,1.092-0.914,0.994-1.622S61.632,37.731,60.918,37.688z M47.352,48.034c-1.356-3.131-3.708-6.908-7.587-8.877
				c2.931-1.405,6.409-3.913,8.202-8.273c1.551,3.071,4.2,6.881,8.334,8.723C53.294,41.247,49.378,44.013,47.352,48.034z"/>
		</g>
	</g>
	<g>
		<g>
			<path class="st3" d="M25.908,42.919c-0.689,8.179-9.212,9.471-9.212,9.471c7.318,0.344,9.142,9.944,9.142,9.944
				c0.156-6.845,9.422-10.046,9.422-10.046C28.318,51.874,25.908,42.919,25.908,42.919z"/>
		</g>
	</g>
	<g>
		<g>
			<path class="st0" d="M35.35,50.792c-5.767-0.346-7.973-8.187-7.995-8.266c-0.189-0.702-0.87-1.157-1.581-1.102
				c-0.726,0.065-1.3,0.643-1.361,1.368c-0.578,6.871-7.646,8.066-7.941,8.113c-0.763,0.116-1.313,0.791-1.273,1.561
				c0.04,0.771,0.657,1.385,1.428,1.421c6.035,0.284,7.723,8.645,7.738,8.727c0.136,0.712,0.759,1.22,1.473,1.22
				c0.041,0,0.083-0.002,0.124-0.005c0.766-0.063,1.359-0.693,1.377-1.461c0.131-5.709,8.332-8.633,8.412-8.661
				c0.677-0.233,1.094-0.913,0.997-1.622C36.648,51.376,36.063,50.835,35.35,50.792z M25.765,57.586
				c-0.924-1.885-2.34-3.947-4.447-5.279c1.855-1.041,3.697-2.63,4.87-4.917c1.058,1.874,2.654,3.955,4.942,5.225
				C29.279,53.715,27.141,55.354,25.765,57.586z"/>
		</g>
	</g>
	<g>
		<g>
			<path class="st3" d="M25.908,16.262c-0.689,8.179-9.212,9.47-9.212,9.47c7.318,0.344,9.142,9.944,9.142,9.944
				c0.156-6.844,9.422-10.045,9.422-10.045C28.318,25.216,25.908,16.262,25.908,16.262z"/>
		</g>
	</g>
	<g>
		<g>
			<path class="st0" d="M35.35,24.134c-5.767-0.345-7.973-8.186-7.995-8.265c-0.189-0.702-0.87-1.164-1.581-1.102
				c-0.726,0.065-1.3,0.643-1.361,1.368c-0.578,6.87-7.646,8.066-7.941,8.113c-0.763,0.116-1.313,0.791-1.273,1.561
				c0.04,0.771,0.657,1.385,1.428,1.421c6.035,0.284,7.723,8.645,7.738,8.727c0.136,0.712,0.759,1.22,1.473,1.22
				c0.041,0,0.083-0.002,0.124-0.005c0.766-0.063,1.359-0.693,1.377-1.461c0.131-5.709,8.332-8.634,8.413-8.662
				c0.676-0.234,1.093-0.913,0.996-1.622C36.648,24.718,36.063,24.176,35.35,24.134z M25.765,30.929
				c-0.924-1.886-2.34-3.947-4.447-5.279c1.855-1.042,3.697-2.63,4.87-4.917c1.058,1.874,2.655,3.955,4.942,5.224
				C29.279,27.057,27.141,28.696,25.765,30.929z"/>
		</g>
	</g>
	<g>
		<g>
			<path class="st4" d="M184.708,227.405H71.666c-3.406,0-6.167,2.761-6.167,6.167s2.761,6.167,6.167,6.167h113.042
				c3.406,0,6.167-2.761,6.167-6.167S188.114,227.405,184.708,227.405z"/>
		</g>
	</g>
	<g>
		<g>
			<path class="st0" d="M184.708,225.904H71.666c-4.228,0-7.666,3.439-7.666,7.667s3.438,7.667,7.666,7.667h113.042
				c4.228,0,7.667-3.439,7.667-7.667S188.936,225.904,184.708,225.904z M184.708,238.238H71.666c-2.573,0-4.666-2.094-4.666-4.667
				s2.093-4.667,4.666-4.667h113.042c2.573,0,4.667,2.094,4.667,4.667S187.281,238.238,184.708,238.238z"/>
		</g>
	</g>
	<g>
		<g>
			<path class="st2" d="M157.48,107.269c15.262-13.812,23.969-33.436,23.969-54.02V28.863H74.925V52.76
				c0,20.868,8.948,40.734,24.576,54.563l14.388,12.732c4.594,4.065,4.634,11.221,0.086,15.337l-15.08,13.648
				c-15.262,13.813-23.969,33.436-23.969,54.021v24.385h106.524v-23.897c0-20.868-8.948-40.734-24.575-54.563l-14.388-12.732
				c-4.594-4.065-4.634-11.221-0.086-15.337L157.48,107.269z"/>
		</g>
	</g>
	<g>
		<g>
			<path class="st0" d="M158.486,108.381c15.547-14.069,24.463-34.165,24.463-55.133V28.863c0-0.828-0.672-1.5-1.5-1.5H74.925
				c-0.828,0-1.5,0.672-1.5,1.5v23.897c0,21.284,9.142,41.58,25.082,55.686l14.388,12.732c1.87,1.655,2.951,4.037,2.965,6.535
				c0.015,2.497-1.04,4.891-2.892,6.566l-15.08,13.648c-15.547,14.069-24.463,34.165-24.463,55.133v24.385
				c0,0.828,0.672,1.5,1.5,1.5h106.524c0.828,0,1.5-0.672,1.5-1.5v-23.897c0-21.283-9.142-41.58-25.081-55.686l-14.389-12.732
				c-1.87-1.655-2.951-4.037-2.965-6.535c-0.015-2.497,1.04-4.891,2.892-6.566L158.486,108.381z M137.515,128.612
				c0.019,3.351,1.468,6.545,3.977,8.765l14.389,12.732c15.297,13.537,24.069,33.015,24.069,53.439v22.397H76.425v-22.885
				c0-20.122,8.557-39.406,23.477-52.908l15.08-13.648c2.483-2.248,3.896-5.458,3.878-8.808c-0.019-3.351-1.468-6.545-3.977-8.765
				L100.495,106.2c-15.297-13.536-24.07-33.015-24.07-53.439V30.363h103.524v22.885c0,20.122-8.557,39.406-23.477,52.908
				l-15.08,13.648C138.909,122.053,137.496,125.263,137.515,128.612z"/>
		</g>
	</g>
	<g>
		<g>
			<path class="st5" d="M156.874,148.986l-14.388-12.732c-4.594-4.065-4.634-11.221-0.086-15.337l15.08-13.648
				c4.875-4.412,9.07-9.423,12.531-14.864H86.679c3.546,5.477,7.837,10.508,12.822,14.918l14.388,12.732
				c4.594,4.065,4.634,11.221,0.086,15.337l-15.08,13.648c-15.262,13.813-23.969,33.436-23.969,54.021v24.385h106.524v-23.897
				C181.449,182.681,172.501,162.815,156.874,148.986z"/>
		</g>
	</g>
	<g>
		<g>
			<path class="st0" d="M157.868,147.863l-14.389-12.732c-1.87-1.655-2.951-4.037-2.965-6.535c-0.015-2.497,1.04-4.891,2.892-6.566
				l15.08-13.648c4.909-4.443,9.213-9.547,12.79-15.172c0.294-0.462,0.313-1.047,0.049-1.526c-0.263-0.48-0.767-0.778-1.314-0.778
				h-27.499c-0.828,0-1.5,0.672-1.5,1.5s0.672,1.5,1.5,1.5h24.704c-3.107,4.492-6.712,8.604-10.743,12.252l-15.08,13.648
				c-2.483,2.248-3.896,5.458-3.878,8.808c0.019,3.351,1.468,6.545,3.977,8.765l14.389,12.732
				c15.297,13.537,24.069,33.015,24.069,53.439v22.397H76.425v-22.885c0-20.122,8.557-39.406,23.477-52.908l15.08-13.648
				c2.483-2.248,3.896-5.458,3.878-8.808c-0.019-3.351-1.468-6.545-3.977-8.765L100.495,106.2
				c-4.119-3.645-7.809-7.771-10.994-12.296h38.362c0.828,0,1.5-0.672,1.5-1.5s-0.672-1.5-1.5-1.5H86.679
				c-0.55,0-1.055,0.301-1.317,0.783s-0.24,1.07,0.059,1.532c3.668,5.667,8.071,10.79,13.087,15.227l14.388,12.732
				c1.87,1.655,2.951,4.037,2.965,6.535c0.015,2.497-1.04,4.891-2.892,6.566l-15.08,13.648
				c-15.547,14.069-24.463,34.165-24.463,55.133v24.385c0,0.828,0.672,1.5,1.5,1.5h106.524c0.828,0,1.5-0.672,1.5-1.5v-23.897
				C182.949,182.266,173.808,161.969,157.868,147.863z"/>
		</g>
	</g>
	<g>
		<g>
			<path class="st4" d="M184.708,16.571H71.666c-3.406,0-6.167,2.761-6.167,6.167c0,3.406,2.761,6.167,6.167,6.167h113.042
				c3.406,0,6.167-2.761,6.167-6.167C190.875,19.332,188.114,16.571,184.708,16.571z"/>
		</g>
	</g>
	<g>
		<g>
			<path class="st0" d="M184.708,15.071h-84.689c-0.828,0-1.5,0.672-1.5,1.5s0.672,1.5,1.5,1.5h84.689
				c2.573,0,4.667,2.094,4.667,4.667s-2.094,4.666-4.667,4.666H71.666c-2.573,0-4.666-2.093-4.666-4.666s2.093-4.667,4.666-4.667
				h13.69c0.828,0,1.5-0.672,1.5-1.5s-0.672-1.5-1.5-1.5h-13.69c-4.228,0-7.666,3.439-7.666,7.667s3.438,7.666,7.666,7.666h113.042
				c4.228,0,7.667-3.438,7.667-7.666S188.936,15.071,184.708,15.071z"/>
		</g>
	</g>
	<g>
		<g>
			<path class="st1" d="M64.893,176.681c-21.54-4.901-36.584-23.769-36.584-45.883c0-18.029,10.001-33.897,25.367-41.801
				l-1.015,2.769c-1.131,3.084,0.453,6.502,3.538,7.633c0.676,0.248,1.367,0.365,2.047,0.365c2.425,0,4.703-1.494,5.586-3.903
				l5.406-14.746c1.131-3.084-0.453-6.502-3.538-7.633l-14.746-5.406c-3.084-1.132-6.502,0.453-7.633,3.537
				c-1.127,3.074,0.443,6.478,3.507,7.62c-6.614,3.67-12.533,8.596-17.336,14.538c-0.048,0.06-0.093,0.122-0.141,0.181
				l-7.861,12.968c-3.31,7.476-5.079,15.618-5.079,23.877c0,13.442,4.645,26.591,13.081,37.026
				c8.306,10.275,19.941,17.541,32.761,20.458c0.444,0.101,0.888,0.149,1.326,0.149c2.715,0,5.167-1.871,5.795-4.63
				C70.103,180.598,68.097,177.41,64.893,176.681z"/>
		</g>
	</g>
	<g>
		<g>
			<path class="st0" d="M65.227,175.218c-20.854-4.743-35.417-23.01-35.417-44.42c0-15.844,8.012-30.271,21.147-38.526
				c-0.335,1.567-0.154,3.194,0.531,4.675c0.837,1.805,2.327,3.177,4.192,3.859c0.826,0.305,1.689,0.459,2.565,0.459
				c3.112,0,5.923-1.965,6.994-4.888l5.406-14.745c0.685-1.868,0.602-3.891-0.235-5.696s-2.326-3.177-4.194-3.861l-14.745-5.405
				c-1.869-0.684-3.892-0.603-5.697,0.234c-1.805,0.837-3.177,2.326-3.861,4.194c-1.073,2.927-0.179,6.114,2.007,8.094
				c-5.976,3.64-11.214,8.219-15.597,13.641l-0.142,0.182c-0.519,0.646-0.415,1.59,0.23,2.109c0.647,0.518,1.59,0.416,2.108-0.23
				l0.138-0.178c4.663-5.768,10.348-10.534,16.897-14.169c0.512-0.284,0.813-0.84,0.769-1.424s-0.424-1.089-0.972-1.293
				c-2.286-0.853-3.462-3.409-2.623-5.698c0.409-1.116,1.229-2.006,2.307-2.506c1.079-0.498,2.287-0.549,3.401-0.14l14.746,5.405
				c1.116,0.409,2.006,1.229,2.506,2.307s0.55,2.286,0.141,3.401l-5.406,14.746c-0.641,1.746-2.319,2.92-4.178,2.92
				c-0.521,0-1.035-0.092-1.531-0.274c-1.115-0.409-2.005-1.228-2.505-2.306s-0.55-2.287-0.141-3.402l1.016-2.769
				c0.213-0.58,0.048-1.231-0.415-1.641c-0.463-0.41-1.128-0.491-1.68-0.21C36.842,95.97,26.81,112.498,26.81,130.798
				c0,22.819,15.523,42.289,37.751,47.346c2.392,0.544,3.895,2.934,3.351,5.325c-0.464,2.039-2.245,3.463-4.332,3.463
				c-0.333,0-0.667-0.038-0.993-0.112c-12.495-2.843-23.833-9.924-31.928-19.938c-8.22-10.168-12.747-22.982-12.747-36.083
				c0-7.907,1.712-15.953,4.951-23.269c0.335-0.758-0.008-1.644-0.765-1.979c-0.757-0.334-1.645,0.007-1.979,0.765
				c-3.406,7.695-5.207,16.161-5.207,24.483c0,13.784,4.764,27.269,13.414,37.97c8.516,10.535,20.446,17.985,33.594,20.978
				c0.544,0.124,1.103,0.187,1.66,0.187c3.496,0,6.48-2.384,7.258-5.797C71.747,180.13,69.23,176.13,65.227,175.218z"/>
		</g>
	</g>
	<g>
		<g>
			<path class="st1" d="M226.508,88.318c-8.306-10.275-19.941-17.541-32.761-20.458c-3.206-0.729-6.392,1.277-7.121,4.481
				c-0.729,3.204,1.277,6.392,4.481,7.121c21.54,4.901,36.584,23.769,36.584,45.883c0,5.562-0.959,10.915-2.727,15.895
				l-7.294,13.213c-4.102,5.224-9.299,9.582-15.346,12.693l1.015-2.768c1.131-3.085-0.453-6.503-3.538-7.633
				c-3.084-1.133-6.502,0.453-7.633,3.537l-5.406,14.746c-0.543,1.482-0.475,3.118,0.188,4.55s1.868,2.541,3.35,3.084l14.746,5.406
				c0.676,0.248,1.367,0.365,2.047,0.365c2.424,0,4.703-1.494,5.586-3.903c1.127-3.074-0.443-6.478-3.507-7.62
				c6.614-3.67,12.533-8.596,17.336-14.537c8.435-10.435,13.081-23.585,13.081-37.027
				C239.588,111.903,234.943,98.753,226.508,88.318z"/>
		</g>
	</g>
	<g>
		<g>
			<path class="st0" d="M227.675,87.375c-8.518-10.536-20.449-17.986-33.595-20.978c-1.942-0.44-3.938-0.1-5.622,0.959
				c-1.684,1.06-2.854,2.712-3.295,4.651c-0.91,4.006,1.606,8.006,5.61,8.917c20.854,4.744,35.417,23.011,35.417,44.42
				c0,5.278-0.889,10.458-2.641,15.394c-0.276,0.781,0.132,1.639,0.912,1.916c0.779,0.275,1.638-0.132,1.916-0.912
				c1.866-5.26,2.813-10.776,2.813-16.397c0-22.818-15.523-42.288-37.751-47.346c-2.392-0.544-3.895-2.933-3.351-5.325
				c0.264-1.159,0.962-2.146,1.968-2.778c1.006-0.634,2.201-0.835,3.357-0.572c12.492,2.843,23.831,9.923,31.928,19.938
				c8.22,10.168,12.747,22.982,12.747,36.083c0,13.1-4.527,25.915-12.747,36.084c-4.663,5.768-10.348,10.534-16.897,14.169
				c-0.513,0.284-0.813,0.84-0.769,1.424s0.424,1.089,0.973,1.293c2.286,0.853,3.463,3.408,2.623,5.698
				c-0.641,1.746-2.319,2.919-4.178,2.919c-0.521,0-1.037-0.092-1.531-0.273l-14.747-5.406c-1.114-0.408-2.004-1.227-2.504-2.306
				s-0.55-2.287-0.142-3.402l5.406-14.746c0.409-1.116,1.229-2.006,2.307-2.506c1.077-0.5,2.285-0.549,3.401-0.14
				s2.006,1.229,2.506,2.307s0.55,2.286,0.141,3.401l-1.015,2.769c-0.213,0.581-0.048,1.231,0.415,1.641
				c0.464,0.411,1.129,0.492,1.68,0.21c6.182-3.18,11.511-7.587,15.839-13.1c0.512-0.652,0.398-1.595-0.253-2.106
				c-0.652-0.511-1.595-0.397-2.106,0.253c-3.242,4.13-7.081,7.597-11.447,10.344c0.335-1.566,0.154-3.192-0.531-4.673
				c-0.837-1.806-2.326-3.177-4.193-3.861c-1.868-0.687-3.892-0.602-5.697,0.234c-1.805,0.837-3.177,2.326-3.861,4.194
				l-5.406,14.746c-0.685,1.868-0.601,3.891,0.236,5.698c0.838,1.806,2.328,3.177,4.193,3.859l14.746,5.406
				c0.826,0.304,1.689,0.457,2.564,0.457c3.111,0,5.922-1.963,6.994-4.886c1.073-2.928,0.179-6.115-2.007-8.094
				c5.976-3.64,11.213-8.219,15.594-13.637c8.65-10.702,13.414-24.187,13.414-37.971S236.325,98.076,227.675,87.375z"/>
		</g>
	</g>
	<g>
		<g>
			<circle class="st3" cx="128" cy="201.545" r="38"/>
		</g>
	</g>
	<g>
		<g>
			<path class="st0" d="M128,162.045c-21.78,0-39.5,17.72-39.5,39.5s17.72,39.5,39.5,39.5s39.5-17.72,39.5-39.5
				S149.78,162.045,128,162.045z M128,238.045c-20.126,0-36.5-16.374-36.5-36.5s16.374-36.5,36.5-36.5s36.5,16.374,36.5,36.5
				S148.126,238.045,128,238.045z"/>
		</g>
	</g>
	<g>
		<g>
			<path class="st4" d="M132.518,197.248c-5.534-2.083-7.814-3.45-7.814-5.599c0-1.822,1.367-3.646,5.6-3.646
				c4.687,0,7.683,1.497,9.375,2.214l1.889-7.357c-2.149-1.042-5.079-1.955-9.441-2.149v-5.73h-6.381v6.185
				c-6.967,1.367-11.003,5.86-11.003,11.59c0,6.316,4.753,9.572,11.72,11.915c4.818,1.628,6.902,3.191,6.902,5.664
				c0,2.605-2.54,4.037-6.25,4.037c-4.233,0-8.073-1.367-10.808-2.864l-1.953,7.617c2.474,1.432,6.706,2.604,11.068,2.8v6.185h6.381
				v-6.641c7.488-1.301,11.59-6.25,11.59-12.045C143.391,203.564,140.265,199.982,132.518,197.248z"/>
		</g>
	</g>
	<g>
		<g>
			<path class="st0" d="M133.046,195.844c-4.924-1.853-6.842-3.029-6.842-4.195c0-1.867,2.568-2.146,4.1-2.146
				c3.966,0,6.576,1.134,8.304,1.884l0.487,0.21c0.403,0.173,0.86,0.156,1.25-0.036c0.392-0.194,0.68-0.549,0.788-0.972l1.889-7.356
				c0.177-0.691-0.157-1.411-0.799-1.723c-2.477-1.201-5.3-1.926-8.596-2.205v-4.324c0-0.828-0.672-1.5-1.5-1.5h-6.381
				c-0.828,0-1.5,0.672-1.5,1.5v4.987c-6.82,1.758-11.003,6.57-11.003,12.788c0,8.021,6.81,11.341,12.739,13.336
				c5.169,1.746,5.882,3.071,5.882,4.243c0,2.415-3.958,2.537-4.751,2.537c-4.518,0-8.259-1.679-10.087-2.68
				c-0.405-0.223-0.894-0.245-1.317-0.061c-0.426,0.185-0.741,0.555-0.856,1.003l-1.953,7.617c-0.167,0.651,0.12,1.335,0.702,1.671
				c2.546,1.474,6.4,2.547,10.318,2.902v4.784c0,0.828,0.672,1.5,1.5,1.5h6.381c0.828,0,1.5-0.672,1.5-1.5v-5.419
				c7.084-1.679,11.59-6.778,11.59-13.267C144.891,202.835,141.34,198.771,133.046,195.844z M131.544,219.99
				c-0.719,0.124-1.243,0.748-1.243,1.478v5.142h-3.381v-4.686c0-0.803-0.632-1.463-1.433-1.498
				c-3.389-0.152-6.927-0.949-9.386-2.085l1.197-4.666c2.323,1.048,5.791,2.197,9.814,2.197c4.709,0,7.751-2.174,7.751-5.537
				c0-3.875-3.807-5.695-7.923-7.086c-7.499-2.522-10.698-5.661-10.698-10.493c0-5.132,3.66-8.915,9.792-10.119
				c0.703-0.138,1.211-0.755,1.211-1.472v-4.685h3.381v4.23c0,0.803,0.632,1.463,1.434,1.498c2.987,0.134,5.532,0.629,7.739,1.509
				l-1.139,4.435c-1.878-0.761-4.613-1.649-8.357-1.649c-5.234,0-7.1,2.658-7.1,5.146c0,3.425,3.808,5.13,8.814,7.014
				c8.193,2.892,9.872,6.394,9.872,10.762C141.891,214.833,137.926,218.881,131.544,219.99z"/>
		</g>
	</g>
	<g>
		<g>
			<path class="st14" d="M184.71,228.9h-2.92c-0.11,0.03-0.22,0.05-0.34,0.05h-12.06c2.25,0.33,3.99,2.28,3.99,4.62
				c0,2.57-2.1,4.67-4.67,4.67h16c2.57,0,4.67-2.1,4.67-4.67S187.28,228.9,184.71,228.9z"/>
		</g>
	</g>
	<g>
		<g>
			<path class="st20" d="M163.95,30.4v22.85c0,13.41-3.82,26.45-10.78,37.65h16c6.96-11.2,10.78-24.24,10.78-37.65V30.4H163.95z"/>
		</g>
	</g>
	<g>
		<g>
			<path class="st6" d="M155.88,150.11l-14.39-12.73c-2.51-2.22-3.96-5.42-3.98-8.77c-0.01-3.35,1.4-6.56,3.88-8.81l15.08-13.64
				c4.03-3.65,7.64-7.76,10.75-12.26h-16c-3.11,4.5-6.72,8.61-10.75,12.26l-15.08,13.64c-2.48,2.25-3.89,5.46-3.88,8.81
				c0.02,3.35,1.47,6.55,3.98,8.77l14.39,12.73c8.33,7.37,14.73,16.51,18.82,26.6c5.5,6.79,8.8,15.43,8.8,24.83
				c0,5.83-1.27,11.37-3.55,16.35v8.06h16v-22.4C179.95,183.12,171.18,163.65,155.88,150.11z"/>
		</g>
	</g>
	<g>
		<g>
			<path class="st14" d="M184.71,18.07h-16c2.57,0,4.67,2.1,4.67,4.67s-2.1,4.66-4.67,4.66h16c2.57,0,4.67-2.09,4.67-4.66
				S187.28,18.07,184.71,18.07z"/>
		</g>
	</g>
</g>
</svg>
