<?xml version="1.0" encoding="utf-8"?>
<!-- Generator: Adobe Illustrator 22.0.1, SVG Export Plug-In . SVG Version: 6.00 Build 0)  -->
<svg version="1.1" id="Layer_1" xmlns="http://www.w3.org/2000/svg" xmlns:xlink="http://www.w3.org/1999/xlink" x="0px" y="0px"
	 viewBox="0 0 256 256" style="enable-background:new 0 0 256 256;" xml:space="preserve">
<style type="text/css">
	.st0{fill:#3A312A;}
	.st1{fill:#8AC6DD;}
	.st2{fill:#F16C7A;}
	.st3{fill:#D7E057;}
	.st4{fill:#87796F;}
	.st5{fill:#FCE8CB;}
	.st6{fill:#DECAAD;}
	.st7{fill:#D6DF58;}
	.st8{fill:#FAE6CA;}
	.st9{fill:#DDC9AC;}
	.st10{fill:#D5DE58;}
	.st11{fill:#ED6E7A;}
	.st12{fill:#8AC5DC;}
	.st13{fill:#6CA8BF;}
	.st14{fill:#695B51;}
	.st15{fill:#F8E4C8;}
	.st16{fill:#EF6D7A;}
	.st17{fill-rule:evenodd;clip-rule:evenodd;fill:#F8E4C8;}
	.st18{fill:#89C4DB;}
	.st19{fill:#F59689;}
	.st20{fill:#D34E5C;}
	.st21{fill:#F7E3C7;}
	.st22{fill:#8AC3DA;}
	.st23{fill-rule:evenodd;clip-rule:evenodd;fill:#F7E3C7;}
	.st24{fill-rule:evenodd;clip-rule:evenodd;fill:#87796F;}
	.st25{fill:#B9C239;}
	.st26{fill:#D4DB56;}
	.st27{fill-rule:evenodd;clip-rule:evenodd;fill:#F16C7A;}
	.st28{fill-rule:evenodd;clip-rule:evenodd;fill:#F6E2C6;}
	.st29{fill:#F6E2C6;}
	.st30{fill-rule:evenodd;clip-rule:evenodd;fill:#FAE6CA;}
	.st31{fill:#B8C136;}
</style>
<g>
	<g>
		<g>
			<path class="st1" d="M122.678,45.957c-1.89,1.57-3.57,3.33-5.02,5.26c3.34,3.64,5.4,7.87,6.35,12.33
				c1.98-0.32,4.01-0.53,6.09-0.62c0.59-2.78,1.48-5.67,2.72-8.56c3.27-7.62,9.02-13.17,14.04-16.09
				C138.098,37.997,129.618,40.207,122.678,45.957z"/>
		</g>
	</g>
	<g>
		<g>
			<path class="st0" d="M148.313,37.91c-0.164-0.649-0.737-1.111-1.406-1.132c-9.774-0.316-18.473,2.462-25.187,8.025
				c-1.975,1.642-3.744,3.496-5.26,5.513c-0.434,0.578-0.394,1.383,0.094,1.915c3.035,3.308,5.05,7.22,5.988,11.628
				c0.149,0.702,0.769,1.188,1.465,1.188c0.08,0,0.16-0.006,0.241-0.019c1.941-0.314,3.932-0.517,5.915-0.603
				c0.684-0.029,1.261-0.518,1.402-1.187c0.6-2.823,1.485-5.608,2.633-8.281c2.714-6.326,7.729-12.078,13.415-15.384
				C148.191,39.238,148.477,38.559,148.313,37.91z M131.44,53.776c-1.071,2.496-1.929,5.086-2.556,7.715
				c-1.251,0.081-2.5,0.205-3.735,0.372c-1.049-3.971-2.907-7.56-5.542-10.699c1.199-1.464,2.551-2.824,4.028-4.051
				c5.09-4.217,11.227-6.636,18.294-7.22C137.481,43.537,133.715,48.473,131.44,53.776z"/>
		</g>
	</g>
	<g>
		<g>
			<path class="st1" d="M222.218,161.527c-4.32-19.17-8.63-38.34-12.95-57.51c-3.54-15.7-7.47-32.47-18.48-44.77
				c-7.65-8.55-19.73-16.04-32.39-19.28c2.46,5.4,3.27,15.47-0.82,25.01c-0.55,1.28-1.14,2.51-1.77,3.69
				c15.08,7.79,26.07,22.75,28.02,40.55c0.28,2.54,0.36,5.06,0.28,7.53c0.01-0.11,0.02-0.23,0.02-0.35l26.56,123.16h29.11
				C233.938,213.547,228.078,187.537,222.218,161.527z"/>
		</g>
	</g>
	<g>
		<g>
			<path class="st0" d="M241.261,239.228l-30.529-135.541c-3.448-15.293-7.356-32.626-18.825-45.44
				c-8.177-9.139-20.563-16.516-33.136-19.733c-0.556-0.143-1.151,0.048-1.522,0.49c-0.37,0.443-0.454,1.059-0.215,1.585
				c2.324,5.102,3.055,14.726-0.833,23.796c-0.531,1.235-1.107,2.438-1.715,3.575c-0.189,0.354-0.229,0.769-0.109,1.152
				c0.12,0.383,0.388,0.703,0.744,0.887c15.201,7.853,25.376,22.575,27.217,39.382c0.262,2.367,0.353,4.829,0.272,7.316
				c-0.011,0.313,0.076,0.607,0.233,0.854l26.38,122.321c0.148,0.69,0.759,1.184,1.466,1.184h29.109
				c0.456,0,0.887-0.207,1.172-0.563C241.254,240.138,241.361,239.672,241.261,239.228z M211.899,238.057l-26.276-121.841
				c0.055-2.433-0.048-4.84-0.304-7.163c-1.897-17.317-12.138-32.542-27.502-41.015c0.397-0.804,0.778-1.63,1.14-2.471
				c3.614-8.431,3.536-17.384,1.838-23.369c11.047,3.389,21.68,10.005,28.876,18.048c10.949,12.233,14.767,29.163,18.135,44.099
				l30.116,133.71H211.899z"/>
		</g>
	</g>
	<g>
		<g>
			<path class="st5" d="M184.128,116.397c-0.69,26.63-21.59,48.82-48.69,50.58c-5.67,0.38-11.19-0.18-16.41-1.52l-23.11,74.1h114.77
				L184.128,116.397z"/>
		</g>
	</g>
	<g>
		<g>
			<path class="st0" d="M212.154,239.241l-26.561-123.16c-0.159-0.742-0.855-1.247-1.605-1.177c-0.756,0.071-1.34,0.696-1.359,1.455
				c-0.682,26.298-21.011,47.416-47.291,49.123c-5.364,0.359-10.724-0.138-15.936-1.476c-0.773-0.199-1.566,0.243-1.805,1.006
				l-23.11,74.1c-0.143,0.456-0.06,0.951,0.224,1.335c0.282,0.384,0.731,0.611,1.208,0.611h50.259c0.828,0,1.5-0.671,1.5-1.5
				s-0.672-1.5-1.5-1.5h-48.22l22.085-70.811c5.084,1.164,10.289,1.576,15.494,1.228c13.427-0.872,25.94-6.705,35.235-16.424
				c7.073-7.397,11.824-16.549,13.815-26.408l24.243,112.415h-48.91c-0.828,0-1.5,0.671-1.5,1.5s0.672,1.5,1.5,1.5h50.769
				c0.453,0,0.883-0.205,1.167-0.558C212.141,240.146,212.25,239.684,212.154,239.241z"/>
		</g>
	</g>
	<g>
		<g>
			<path class="st5" d="M183.832,109.22c-1.959-17.804-12.944-32.762-28.02-40.556c0.628-1.178,1.221-2.407,1.769-3.685
				c5.561-12.97,2.061-26.917-2.31-28.792c-4.138-1.774-16.887,5.206-22.448,18.176c-1.242,2.896-2.136,5.782-2.729,8.561
				C117,63.444,105.933,69.047,95.829,77.19c-11.888,9.581-23.815,19.007-35.804,28.475c-3.138,2.478-6.275,4.956-9.413,7.434
				l-11.059,8.733l-7.737,6.11c-1.587,1.253-3.174,2.507-4.761,3.76c-7.796,6.156-10.387,16.836-6.279,25.881
				s13.856,14.121,23.621,12.3l51.841-9.662c4.54-0.846,9.217-0.183,13.384,1.808c7.783,3.719,16.597,5.555,25.816,4.953
				C164.941,165.055,187.101,138.93,183.832,109.22z"/>
		</g>
	</g>
	<g>
		<g>
			<path class="st0" d="M185.323,109.056c-1.904-17.317-12.146-32.544-27.502-41.019c0.402-0.813,0.783-1.638,1.139-2.466
				c3.506-8.178,3.182-15.634,2.677-19.35c-0.796-5.853-3.009-10.225-5.775-11.411c-2.676-1.149-7.336,0.274-12.153,3.717
				c-3.084,2.204-8.778,7.116-12.265,15.247c-1.075,2.511-1.936,5.1-2.562,7.711c-11.637,0.729-22.771,5.493-33.995,14.538
				c-12.3,9.914-24.78,19.77-35.792,28.465l-9.413,7.434c-0.65,0.514-0.761,1.457-0.247,2.107c0.513,0.65,1.456,0.761,2.106,0.248
				l9.413-7.434c11.017-8.7,23.504-18.561,35.815-28.484c11.229-9.049,21.837-13.477,33.384-13.935
				c0.685-0.027,1.265-0.516,1.407-1.186c0.599-2.803,1.486-5.59,2.641-8.282c3.198-7.46,8.422-11.966,11.251-13.988
				c4.18-2.987,7.873-3.98,9.228-3.401c1.452,0.623,3.287,3.935,3.984,9.059c0.463,3.409,0.76,10.25-2.462,17.763
				c-0.518,1.208-1.094,2.409-1.713,3.571c-0.189,0.354-0.229,0.769-0.109,1.151c0.12,0.383,0.388,0.703,0.744,0.887
				c15.193,7.855,25.368,22.579,27.217,39.387c1.53,13.9-2.562,27.438-11.521,38.118c-8.965,10.688-21.565,17.074-35.48,17.983
				c-8.635,0.566-17.306-1.098-25.071-4.81c-4.526-2.163-9.475-2.831-14.305-1.929l-51.842,9.662
				c-9.109,1.699-18.148-3.009-21.981-11.446c-3.832-8.438-1.43-18.341,5.843-24.083l12.498-9.87
				c0.65-0.514,0.761-1.457,0.247-2.107c-0.513-0.65-1.455-0.761-2.106-0.248l-12.498,9.87c-8.357,6.6-11.119,17.981-6.715,27.679
				c3.804,8.374,12.068,13.55,20.995,13.55c1.41,0,2.838-0.129,4.266-0.396l51.842-9.662c4.207-0.783,8.514-0.201,12.463,1.687
				c8.228,3.932,17.414,5.694,26.56,5.096c14.74-0.962,28.088-7.728,37.584-19.048C182.608,138.117,186.943,123.778,185.323,109.056
				z"/>
		</g>
	</g>
	<g>
		<g>
			<path class="st4" d="M122,104.368c-3.552,0-6.431,2.879-6.431,6.431s2.879,6.43,6.431,6.43s6.43-2.879,6.43-6.43
				S125.551,104.368,122,104.368z"/>
		</g>
	</g>
	<g>
		<g>
			<path class="st0" d="M122,102.868c-4.373,0-7.931,3.558-7.931,7.931s3.558,7.931,7.931,7.931s7.931-3.558,7.931-7.931
				S126.373,102.868,122,102.868z M122,115.729c-2.719,0-4.931-2.212-4.931-4.931s2.212-4.931,4.931-4.931
				c2.719,0,4.931,2.212,4.931,4.931S124.719,115.729,122,115.729z"/>
		</g>
	</g>
	<g>
		<g>
			<path class="st2" d="M111.076,45.863c-12.4-7.496-28.375-4.15-38.81,5.166c-27.7,24.732-52.433,24.68-52.433,27.7
				c0,8.541,20.253,18.718,26.226,21.508c17.903,8.36,40.931,8.37,58.901-0.074c9.213-4.329,15.77-12.657,18.398-21.784
				C126.758,66.571,123.582,53.424,111.076,45.863z"/>
		</g>
	</g>
	<g>
		<g>
			<path class="st0" d="M111.852,44.58c-12.154-7.348-28.841-5.154-40.585,5.331C52.068,67.052,34.07,72.199,25.421,74.672
				c-4.867,1.392-7.088,2.027-7.088,4.057c0,3.071,2.639,11.448,27.091,22.867c9.114,4.257,19.554,6.384,29.996,6.384
				c10.506,0,21.015-2.153,30.177-6.459c9.167-4.307,16.345-12.803,19.202-22.727C128.791,64.931,123.83,51.821,111.852,44.58z
				 M121.916,77.964c-2.621,9.105-9.199,16.896-17.595,20.842c-17.497,8.22-40.117,8.25-57.628,0.072
				c-11.434-5.339-24.741-13.631-25.34-19.728c0.765-0.414,2.858-1.013,4.893-1.594c8.863-2.535,27.308-7.81,47.018-25.408
				c10.771-9.616,26.002-11.672,37.034-5.001C123.167,54.926,124.737,68.167,121.916,77.964z"/>
		</g>
	</g>
	<g>
		<g>
			<path class="st4" d="M89.571,53.849L53.815,16.965c-1.997-2.06-5.403,0.011-4.493,2.732l16.294,48.718
				c2.926,8.749,13.219,12.516,21.102,7.723h0C94.6,71.345,95.992,60.473,89.571,53.849z"/>
		</g>
	</g>
	<g>
		<g>
			<path class="st0" d="M90.647,52.805L54.892,15.921c-1.395-1.438-3.481-1.705-5.192-0.665c-1.712,1.041-2.435,3.017-1.8,4.917
				L64.193,68.89c1.54,4.605,5.039,8.204,9.599,9.873c1.783,0.653,3.633,0.976,5.473,0.976c2.865,0,5.706-0.783,8.232-2.319
				c4.149-2.523,6.883-6.732,7.499-11.549C95.612,61.054,94.027,56.292,90.647,52.805z M92.02,65.49
				c-0.5,3.906-2.717,7.32-6.082,9.366c-3.366,2.045-7.417,2.443-11.115,1.09c-3.698-1.354-6.535-4.272-7.784-8.007L50.745,19.221
				c-0.281-0.84,0.321-1.286,0.513-1.402c0.104-0.063,0.35-0.189,0.652-0.189c0.253,0,0.546,0.089,0.827,0.379l35.756,36.884
				C91.234,57.721,92.52,61.583,92.02,65.49z"/>
		</g>
	</g>
	<g>
		<g>
			<path class="st0" d="M65.16,26.677c-0.76-0.333-1.644,0.016-1.975,0.773l-7.05,16.126c-0.332,0.759,0.014,1.644,0.773,1.976
				c0.195,0.085,0.399,0.126,0.6,0.126c0.578,0,1.129-0.336,1.375-0.899l7.05-16.127C66.266,27.893,65.92,27.009,65.16,26.677z"/>
		</g>
	</g>
	<g>
		<g>
			<path class="st0" d="M73.727,35.516c-0.76-0.333-1.643,0.015-1.975,0.773L61.524,59.686c-0.332,0.759,0.014,1.644,0.773,1.976
				c0.195,0.085,0.399,0.126,0.6,0.126c0.578,0,1.129-0.336,1.375-0.899l10.229-23.397C74.833,36.732,74.487,35.848,73.727,35.516z"
				/>
		</g>
	</g>
	<g>
		<g>
			<path class="st0" d="M82.299,44.353c-0.759-0.333-1.643,0.015-1.975,0.773l-12.45,28.47c-0.332,0.759,0.014,1.644,0.773,1.976
				c0.195,0.085,0.399,0.126,0.6,0.126c0.578,0,1.129-0.336,1.375-0.899l12.45-28.47C83.404,45.569,83.059,44.685,82.299,44.353z"/>
		</g>
	</g>
	<g>
		<g>
			<path class="st0" d="M90.959,53.236c-0.734-0.381-1.64-0.094-2.023,0.641c-0.015,0.029-0.05,0.099-0.062,0.129l-10.32,23.61
				c-0.332,0.759,0.015,1.643,0.773,1.975c0.195,0.085,0.399,0.126,0.6,0.126c0.578,0,1.129-0.336,1.375-0.9l10.299-23.56
				C91.981,54.522,91.694,53.617,90.959,53.236z"/>
		</g>
	</g>
	<g>
		<g>
			<path class="st7" d="M47.114,203.475c-0.974,11.564-13.024,13.389-13.024,13.389c10.347,0.487,12.925,14.059,12.925,14.059
				c0.221-9.677,13.321-14.202,13.321-14.202C50.522,216.135,47.114,203.475,47.114,203.475z"/>
		</g>
	</g>
	<g>
		<g>
			<path class="st0" d="M60.426,215.224c-8.604-0.514-11.833-12.024-11.864-12.14c-0.191-0.702-0.851-1.168-1.584-1.101
				c-0.725,0.066-1.298,0.642-1.359,1.367c-0.859,10.215-11.313,11.963-11.754,12.032c-0.763,0.115-1.313,0.79-1.273,1.561
				c0.04,0.77,0.657,1.384,1.428,1.421c9.028,0.425,11.499,12.718,11.522,12.842c0.138,0.711,0.76,1.217,1.473,1.217
				c0.042,0,0.084-0.001,0.126-0.005c0.765-0.064,1.357-0.693,1.375-1.459c0.193-8.508,12.191-12.777,12.313-12.819
				c0.676-0.235,1.092-0.914,0.994-1.623C61.723,215.808,61.14,215.267,60.426,215.224z M46.859,225.57
				c-1.357-3.131-3.709-6.908-7.587-8.877c2.931-1.404,6.408-3.913,8.201-8.272c1.552,3.071,4.2,6.88,8.335,8.722
				C52.801,218.783,48.886,221.548,46.859,225.57z"/>
		</g>
	</g>
	<g>
		<g>
			<path class="st7" d="M25.415,220.456c-0.689,8.179-9.212,9.47-9.212,9.47c7.318,0.344,9.142,9.944,9.142,9.944
				c0.156-6.844,9.422-10.045,9.422-10.045C27.826,229.41,25.415,220.456,25.415,220.456z"/>
		</g>
	</g>
	<g>
		<g>
			<path class="st0" d="M34.856,228.328c-5.766-0.345-7.972-8.185-7.994-8.264c-0.189-0.702-0.86-1.163-1.581-1.102
				c-0.726,0.065-1.3,0.643-1.361,1.368c-0.578,6.87-7.646,8.066-7.941,8.113c-0.763,0.115-1.313,0.79-1.273,1.561
				c0.04,0.77,0.657,1.384,1.428,1.421c6.034,0.284,7.723,8.644,7.738,8.726c0.136,0.712,0.759,1.22,1.473,1.22
				c0.041,0,0.083-0.001,0.125-0.005c0.765-0.063,1.358-0.694,1.376-1.461c0.13-5.709,8.331-8.634,8.412-8.662
				c0.676-0.234,1.093-0.913,0.996-1.622C36.155,228.912,35.57,228.371,34.856,228.328z M25.271,235.123
				c-0.924-1.886-2.34-3.947-4.446-5.28c1.855-1.042,3.697-2.63,4.87-4.917c1.058,1.874,2.654,3.955,4.941,5.224
				C28.787,231.251,26.647,232.891,25.271,235.123z"/>
		</g>
	</g>
	<g>
		<g>
			<path class="st7" d="M25.377,193.799c-0.657,8.182-9.175,9.507-9.175,9.507c7.319,0.316,9.181,9.909,9.181,9.909
				c0.129-6.845,9.383-10.082,9.383-10.082C27.823,202.743,25.377,193.799,25.377,193.799z"/>
		</g>
	</g>
	<g>
		<g>
			<path class="st0" d="M34.85,201.634c-5.768-0.323-8.005-8.155-8.026-8.234c-0.193-0.702-0.872-1.168-1.586-1.095
				c-0.726,0.068-1.297,0.647-1.356,1.374c-0.552,6.873-7.614,8.097-7.91,8.145c-0.762,0.118-1.31,0.795-1.268,1.565
				c0.043,0.77,0.663,1.382,1.434,1.415c6.036,0.261,7.757,8.614,7.772,8.696c0.138,0.71,0.76,1.214,1.472,1.214
				c0.043,0,0.087-0.002,0.131-0.005c0.764-0.066,1.355-0.699,1.37-1.466c0.107-5.71,8.298-8.667,8.378-8.695
				c0.676-0.236,1.09-0.917,0.99-1.626C36.15,202.213,35.563,201.674,34.85,201.634z M25.291,208.466
				c-0.931-1.882-2.356-3.938-4.467-5.262c1.851-1.048,3.687-2.645,4.851-4.936c1.064,1.87,2.67,3.944,4.962,5.205
				C28.791,204.581,26.658,206.229,25.291,208.466z"/>
		</g>
	</g>
	<g>
		<g>
			<path class="st13" d="M207.798,104.347c-3.36-14.94-7.17-31.86-18.13-44.1c-6.8-7.61-17.46-14.47-28.85-17.99
				c0.35,1.22,0.63,2.55,0.82,3.96c0.14,1.08,0.28,2.48,0.3,4.12c4.54,2.97,8.55,6.36,11.73,9.91
				c10.96,12.24,14.77,29.16,18.13,44.1l30.12,133.71h16L207.798,104.347z"/>
		</g>
	</g>
</g>
</svg>
