<?xml version="1.0" encoding="utf-8"?>
<!-- Generator: Adobe Illustrator 22.0.1, SVG Export Plug-In . SVG Version: 6.00 Build 0)  -->
<svg version="1.1" id="Layer_1" xmlns="http://www.w3.org/2000/svg" xmlns:xlink="http://www.w3.org/1999/xlink" x="0px" y="0px"
	 viewBox="0 0 256 256" style="enable-background:new 0 0 256 256;" xml:space="preserve">
<style type="text/css">
	.st0{fill:#3A312A;}
	.st1{fill:#8AC6DD;}
	.st2{fill:#F16C7A;}
	.st3{fill:#D7E057;}
	.st4{fill:#87796F;}
	.st5{fill:#FCE8CB;}
	.st6{fill:#DECAAD;}
	.st7{fill:#D6DF58;}
	.st8{fill:#FAE6CA;}
	.st9{fill:#DDC9AC;}
	.st10{fill:#D5DE58;}
	.st11{fill:#ED6E7A;}
	.st12{fill:#8AC5DC;}
	.st13{fill:#6CA8BF;}
	.st14{fill:#695B51;}
	.st15{fill:#F8E4C8;}
	.st16{fill:#EF6D7A;}
	.st17{fill-rule:evenodd;clip-rule:evenodd;fill:#F8E4C8;}
	.st18{fill:#89C4DB;}
	.st19{fill:#F59689;}
	.st20{fill:#D34E5C;}
	.st21{fill:#F7E3C7;}
	.st22{fill:#8AC3DA;}
	.st23{fill-rule:evenodd;clip-rule:evenodd;fill:#F7E3C7;}
	.st24{fill-rule:evenodd;clip-rule:evenodd;fill:#87796F;}
	.st25{fill:#B9C239;}
	.st26{fill:#D4DB56;}
	.st27{fill-rule:evenodd;clip-rule:evenodd;fill:#F16C7A;}
	.st28{fill-rule:evenodd;clip-rule:evenodd;fill:#F6E2C6;}
	.st29{fill:#F6E2C6;}
	.st30{fill-rule:evenodd;clip-rule:evenodd;fill:#FAE6CA;}
	.st31{fill:#B8C136;}
</style>
<g>
	<g>
		<g>
			<path class="st0" d="M239.375,226.625h-209.5v-210.5c0-0.829-0.671-1.5-1.5-1.5s-1.5,0.671-1.5,1.5v212
				c0,0.829,0.671,1.5,1.5,1.5h211c0.829,0,1.5-0.671,1.5-1.5S240.204,226.625,239.375,226.625z"/>
		</g>
	</g>
	<g>
		<g>
			<path class="st0" d="M28.375,226.625c-0.829,0-1.5,0.671-1.5,1.5v11.75c0,0.829,0.671,1.5,1.5,1.5s1.5-0.671,1.5-1.5v-11.75
				C29.875,227.296,29.204,226.625,28.375,226.625z"/>
		</g>
	</g>
	<g>
		<g>
			<path class="st0" d="M61.845,226.625c-0.829,0-1.5,0.671-1.5,1.5v11.75c0,0.829,0.671,1.5,1.5,1.5c0.829,0,1.5-0.671,1.5-1.5
				v-11.75C63.345,227.296,62.674,226.625,61.845,226.625z"/>
		</g>
	</g>
	<g>
		<g>
			<path class="st0" d="M95.305,226.625c-0.829,0-1.5,0.671-1.5,1.5v11.75c0,0.829,0.671,1.5,1.5,1.5s1.5-0.671,1.5-1.5v-11.75
				C96.805,227.296,96.134,226.625,95.305,226.625z"/>
		</g>
	</g>
	<g>
		<g>
			<path class="st0" d="M128.775,226.625c-0.829,0-1.5,0.671-1.5,1.5v11.75c0,0.829,0.671,1.5,1.5,1.5s1.5-0.671,1.5-1.5v-11.75
				C130.275,227.296,129.604,226.625,128.775,226.625z"/>
		</g>
	</g>
	<g>
		<g>
			<path class="st0" d="M162.235,226.625c-0.829,0-1.5,0.671-1.5,1.5v11.75c0,0.829,0.671,1.5,1.5,1.5c0.829,0,1.5-0.671,1.5-1.5
				v-11.75C163.735,227.296,163.063,226.625,162.235,226.625z"/>
		</g>
	</g>
	<g>
		<g>
			<path class="st0" d="M195.705,226.625c-0.829,0-1.5,0.671-1.5,1.5v11.75c0,0.829,0.671,1.5,1.5,1.5s1.5-0.671,1.5-1.5v-11.75
				C197.205,227.296,196.534,226.625,195.705,226.625z"/>
		</g>
	</g>
	<g>
		<g>
			<path class="st0" d="M229.165,226.625c-0.829,0-1.5,0.671-1.5,1.5v11.75c0,0.829,0.671,1.5,1.5,1.5c0.829,0,1.5-0.671,1.5-1.5
				v-11.75C230.665,227.296,229.994,226.625,229.165,226.625z"/>
		</g>
	</g>
	<g>
		<g>
			<path class="st0" d="M28.375,226.625h-11.75c-0.829,0-1.5,0.671-1.5,1.5s0.671,1.5,1.5,1.5h11.75c0.829,0,1.5-0.671,1.5-1.5
				S29.204,226.625,28.375,226.625z"/>
		</g>
	</g>
	<g>
		<g>
			<path class="st0" d="M28.375,193.155h-11.75c-0.829,0-1.5,0.671-1.5,1.5s0.671,1.5,1.5,1.5h11.75c0.829,0,1.5-0.671,1.5-1.5
				S29.204,193.155,28.375,193.155z"/>
		</g>
	</g>
	<g>
		<g>
			<path class="st0" d="M28.375,159.695h-11.75c-0.829,0-1.5,0.671-1.5,1.5s0.671,1.5,1.5,1.5h11.75c0.829,0,1.5-0.671,1.5-1.5
				S29.204,159.695,28.375,159.695z"/>
		</g>
	</g>
	<g>
		<g>
			<path class="st0" d="M28.375,126.225h-11.75c-0.829,0-1.5,0.671-1.5,1.5s0.671,1.5,1.5,1.5h11.75c0.829,0,1.5-0.671,1.5-1.5
				S29.204,126.225,28.375,126.225z"/>
		</g>
	</g>
	<g>
		<g>
			<path class="st0" d="M28.375,92.765h-11.75c-0.829,0-1.5,0.671-1.5,1.5s0.671,1.5,1.5,1.5h11.75c0.829,0,1.5-0.671,1.5-1.5
				S29.204,92.765,28.375,92.765z"/>
		</g>
	</g>
	<g>
		<g>
			<path class="st0" d="M28.375,59.295h-11.75c-0.829,0-1.5,0.671-1.5,1.5s0.671,1.5,1.5,1.5h11.75c0.829,0,1.5-0.671,1.5-1.5
				S29.204,59.295,28.375,59.295z"/>
		</g>
	</g>
	<g>
		<g>
			<path class="st0" d="M28.375,25.835h-11.75c-0.829,0-1.5,0.671-1.5,1.5s0.671,1.5,1.5,1.5h11.75c0.829,0,1.5-0.671,1.5-1.5
				S29.204,25.835,28.375,25.835z"/>
		</g>
	</g>
	<g>
		<g>
			<path class="st0" d="M217.284,145.984c-0.285-0.778-1.148-1.175-1.924-0.893l-48.569,17.787l-44.947-20.74
				c-0.572-0.266-1.249-0.142-1.693,0.305l-36.103,36.383l-55.285-14.776c-0.799-0.214-1.622,0.261-1.836,1.062
				c-0.214,0.8,0.262,1.623,1.062,1.836l56.125,15C84.241,181.983,84.371,182,84.5,182c0.394,0,0.779-0.156,1.065-0.443
				l35.975-36.255l44.556,20.56c0.359,0.167,0.773,0.183,1.144,0.047l49.15-18C217.169,147.624,217.568,146.762,217.284,145.984z"/>
		</g>
	</g>
	<g>
		<g>
			<path class="st7" d="M78.469,26.22c-0.974,11.564-13.025,13.389-13.025,13.389C75.792,40.096,78.37,53.669,78.37,53.669
				c0.221-9.677,13.321-14.202,13.321-14.202C81.878,38.879,78.469,26.22,78.469,26.22z"/>
		</g>
	</g>
	<g>
		<g>
			<path class="st0" d="M91.781,37.969c-8.606-0.515-11.833-12.024-11.864-12.141c-0.191-0.703-0.864-1.168-1.583-1.102
				c-0.725,0.066-1.298,0.642-1.359,1.367c-0.86,10.215-11.314,11.964-11.754,12.033c-0.763,0.115-1.313,0.79-1.273,1.561
				c0.04,0.77,0.657,1.384,1.428,1.421c9.028,0.425,11.498,12.718,11.522,12.842c0.137,0.711,0.759,1.217,1.472,1.217
				c0.042,0,0.084-0.001,0.126-0.005c0.764-0.064,1.357-0.693,1.374-1.459c0.195-8.508,12.192-12.777,12.313-12.819
				c0.675-0.235,1.092-0.914,0.994-1.623C93.079,38.553,92.495,38.012,91.781,37.969z M78.215,48.315
				c-1.356-3.131-3.709-6.908-7.587-8.877c2.931-1.405,6.409-3.913,8.202-8.272c1.551,3.071,4.2,6.88,8.334,8.722
				C84.157,41.528,80.242,44.293,78.215,48.315z"/>
		</g>
	</g>
	<g>
		<g>
			<path class="st7" d="M56.771,43.2c-0.689,8.179-9.213,9.47-9.213,9.47c7.318,0.344,9.142,9.944,9.142,9.944
				c0.156-6.844,9.422-10.045,9.422-10.045C59.181,52.155,56.771,43.2,56.771,43.2z"/>
		</g>
	</g>
	<g>
		<g>
			<path class="st0" d="M66.212,51.072c-5.767-0.345-7.973-8.186-7.994-8.265c-0.19-0.702-0.854-1.168-1.582-1.102
				c-0.726,0.065-1.299,0.643-1.36,1.368c-0.579,6.871-7.646,8.067-7.942,8.114c-0.763,0.115-1.313,0.79-1.273,1.561
				c0.04,0.77,0.657,1.384,1.428,1.421c6.035,0.284,7.723,8.644,7.739,8.726c0.135,0.713,0.759,1.22,1.472,1.22
				c0.042,0,0.083-0.001,0.125-0.005c0.765-0.063,1.358-0.694,1.376-1.461c0.13-5.709,8.332-8.634,8.413-8.662
				c0.676-0.234,1.094-0.913,0.996-1.622C67.511,51.657,66.927,51.115,66.212,51.072z M56.627,57.867
				c-0.924-1.885-2.34-3.947-4.447-5.28c1.855-1.041,3.697-2.629,4.87-4.916c1.057,1.874,2.655,3.954,4.941,5.224
				C60.143,53.996,58.003,55.635,56.627,57.867z"/>
		</g>
	</g>
	<g>
		<g>
			<path class="st7" d="M56.771,16.543c-0.689,8.179-9.213,9.471-9.213,9.471c7.318,0.344,9.142,9.944,9.142,9.944
				c0.156-6.845,9.422-10.045,9.422-10.045C59.181,25.497,56.771,16.543,56.771,16.543z"/>
		</g>
	</g>
	<g>
		<g>
			<path class="st0" d="M66.212,24.415c-5.767-0.345-7.973-8.186-7.994-8.265c-0.19-0.702-0.854-1.169-1.582-1.102
				c-0.726,0.065-1.299,0.643-1.36,1.368c-0.579,6.871-7.646,8.067-7.942,8.114c-0.763,0.115-1.313,0.79-1.273,1.561
				c0.04,0.77,0.657,1.384,1.428,1.421c6.035,0.284,7.723,8.644,7.739,8.726c0.135,0.713,0.759,1.22,1.472,1.22
				c0.042,0,0.083-0.001,0.125-0.005c0.765-0.063,1.358-0.694,1.376-1.461c0.13-5.709,8.332-8.634,8.413-8.662
				c0.676-0.234,1.094-0.913,0.996-1.622C67.511,25,66.927,24.458,66.212,24.415z M56.627,31.21c-0.924-1.885-2.34-3.947-4.447-5.28
				c1.855-1.041,3.697-2.629,4.87-4.916c1.057,1.874,2.655,3.954,4.941,5.224C60.143,27.338,58.003,28.978,56.627,31.21z"/>
		</g>
	</g>
	<g>
		<g>
			<path class="st0" d="M217.647,91.706c-0.437-0.703-1.362-0.917-2.066-0.479l-44.646,27.856l-11.234,2.283
				c-0.812,0.165-1.336,0.957-1.171,1.769c0.144,0.711,0.77,1.202,1.468,1.202c0.099,0,0.199-0.01,0.3-0.031l11.5-2.337
				c0.175-0.036,0.343-0.102,0.495-0.197l44.875-28C217.872,93.334,218.086,92.409,217.647,91.706z"/>
		</g>
	</g>
	<g>
		<g>
			<path class="st0" d="M147.47,125.383c-0.164-0.812-0.953-1.336-1.768-1.171l-28.376,5.766l-58.748-7.966
				c-0.473-0.066-0.948,0.101-1.28,0.443l-30,31.001c-0.576,0.595-0.56,1.545,0.035,2.121c0.291,0.282,0.667,0.422,1.043,0.422
				c0.392,0,0.784-0.153,1.078-0.457l29.472-30.456l58.248,7.898c0.167,0.023,0.336,0.017,0.5-0.017l28.625-5.817
				C147.11,126.987,147.635,126.195,147.47,125.383z"/>
		</g>
	</g>
	<g>
		<g>
			<path class="st0" d="M217.469,38.474c-0.566-0.603-1.515-0.635-2.12-0.067l-33.64,31.559L117.18,87H101
				c-0.829,0-1.5,0.671-1.5,1.5s0.671,1.5,1.5,1.5h16.375c0.129,0,0.258-0.017,0.383-0.05l65.083-17.182
				c0.241-0.063,0.462-0.186,0.644-0.356l33.917-31.818C218.005,40.027,218.036,39.078,217.469,38.474z"/>
		</g>
	</g>
	<g>
		<g>
			<path class="st0" d="M86,87H58.375c-0.404,0-0.791,0.163-1.073,0.452l-30,30.734c-0.579,0.593-0.567,1.542,0.025,2.121
				c0.292,0.285,0.67,0.427,1.048,0.427c0.39,0,0.779-0.151,1.073-0.452L59.007,90H86c0.829,0,1.5-0.671,1.5-1.5S86.829,87,86,87z"
				/>
		</g>
	</g>
	<g>
		<g>
			<path class="st0" d="M217.766,199.938c-0.31-0.768-1.185-1.142-1.953-0.829L169.575,217.8l-51.33-36.523
				c-0.331-0.236-0.745-0.327-1.144-0.252l-59,11c-0.322,0.06-0.615,0.224-0.835,0.466l-30,33c-0.557,0.613-0.512,1.562,0.101,2.119
				c0.287,0.261,0.648,0.39,1.008,0.39c0.408,0,0.815-0.166,1.11-0.491l29.661-32.626l57.878-10.791l51.482,36.631
				c0.418,0.297,0.958,0.36,1.432,0.168l47-18.999C217.705,201.58,218.076,200.706,217.766,199.938z"/>
		</g>
	</g>
	<g>
		<g>
			
				<ellipse transform="matrix(0.9239 -0.3827 0.3827 0.9239 -19.1618 89.743)" class="st3" cx="216.004" cy="93.038" rx="23.371" ry="23.371"/>
		</g>
	</g>
	<g>
		<g>
			<path class="st0" d="M216.003,68.167c-13.714,0-24.871,11.157-24.871,24.872c0,13.714,11.157,24.871,24.871,24.871
				c13.714,0,24.872-11.157,24.872-24.871C240.875,79.324,229.718,68.167,216.003,68.167z M216.003,114.909
				c-12.06,0-21.871-9.812-21.871-21.871c0-12.06,9.812-21.872,21.871-21.872c12.06,0,21.872,9.812,21.872,21.872
				C237.875,105.098,228.063,114.909,216.003,114.909z"/>
		</g>
	</g>
	<g>
		<g>
			<path class="st0" d="M219.267,100.352c-2.298,0-3.791-1.091-4.479-3.272h5.302l0.757-3.185h-6.513v-0.927
				c0-0.443,0.011-0.781,0.035-1.015h6.159l0.757-3.185h-6.304c0.793-2.03,2.321-3.045,4.584-3.045c1.727,0,3.383,0.729,4.97,2.187
				l1.575-6.352c-2.287-1.19-4.544-1.785-6.772-1.785c-6.813,0-10.977,2.998-12.494,8.994h-1.907l-0.827,3.185h2.332
				c-0.024,0.21-0.035,0.549-0.035,1.015c0,0.444,0.011,0.752,0.035,0.927h-1.925l-0.844,3.185h3.172
				c0.443,2.345,1.662,4.468,3.657,6.37c1.995,1.901,5.075,2.852,9.239,2.852c2.578,0,4.777-0.624,6.597-1.872v-6.527
				C224.143,99.536,221.786,100.352,219.267,100.352z"/>
		</g>
	</g>
	<g>
		<g>
			
				<ellipse transform="matrix(0.9239 -0.3827 0.3827 0.9239 -59.7262 97.8117)" class="st3" cx="216.004" cy="199.038" rx="23.371" ry="23.371"/>
		</g>
	</g>
	<g>
		<g>
			<path class="st0" d="M216.003,174.167c-13.714,0-24.871,11.157-24.871,24.871c0,13.714,11.157,24.872,24.871,24.872
				c13.714,0,24.872-11.157,24.872-24.872C240.875,185.324,229.718,174.167,216.003,174.167z M216.003,220.909
				c-12.06,0-21.871-9.812-21.871-21.872c0-12.06,9.812-21.871,21.871-21.871c12.06,0,21.872,9.812,21.872,21.871
				C237.875,211.098,228.063,220.909,216.003,220.909z"/>
		</g>
	</g>
	<g>
		<g>
			<polygon class="st0" points="227.99,186.212 219.974,186.212 216.016,194.935 212.007,186.212 204.017,186.212 210.299,197.271 
				204.945,197.271 204.945,201.138 212.434,201.138 212.434,203.255 204.945,203.255 204.945,207.175 212.434,207.175 
				212.434,211.864 219.713,211.864 219.713,207.175 227.08,207.175 227.08,203.255 219.713,203.255 219.713,201.138 
				227.08,201.138 227.08,197.271 221.883,197.271 			"/>
		</g>
	</g>
	<g>
		<g>
			
				<ellipse transform="matrix(0.9732 -0.2298 0.2298 0.9732 -3.4205 50.6985)" class="st3" cx="216.004" cy="40.038" rx="23.371" ry="23.371"/>
		</g>
	</g>
	<g>
		<g>
			<path class="st0" d="M216.003,15.167c-13.714,0-24.871,11.157-24.871,24.872c0,13.714,11.157,24.871,24.871,24.871
				c13.714,0,24.872-11.157,24.872-24.871C240.875,26.324,229.718,15.167,216.003,15.167z M216.003,61.909
				c-12.06,0-21.871-9.812-21.871-21.871c0-12.06,9.812-21.872,21.871-21.872c12.06,0,21.872,9.812,21.872,21.872
				C237.875,52.098,228.063,61.909,216.003,61.909z"/>
		</g>
	</g>
	<g>
		<g>
			<path class="st0" d="M224.499,46.547c-0.77,0.35-1.391,0.58-1.864,0.691c-0.472,0.111-1.03,0.166-1.671,0.166
				c-0.782,0-1.826-0.151-3.132-0.455c-0.957-0.233-1.732-0.35-2.327-0.35c-0.467,0-1.027,0.076-1.68,0.228
				c0.572-0.653,0.98-1.283,1.225-1.89c0.303-0.793,0.484-1.686,0.543-2.677h4.689v-4.182h-5.302
				c-0.478-1.493-0.759-2.441-0.84-2.844c-0.082-0.402-0.123-0.82-0.123-1.251c0-0.816,0.21-1.446,0.63-1.89
				c0.42-0.443,0.968-0.665,1.645-0.665c0.56,0,1.059,0.204,1.496,0.612c0.438,0.409,0.825,1.237,1.164,2.485l6.684-1.05
				c-0.304-1.481-0.86-2.744-1.671-3.789c-0.811-1.044-1.802-1.79-2.975-2.24c-1.172-0.449-2.762-0.674-4.768-0.674
				c-2.146,0-3.852,0.262-5.118,0.788c-1.266,0.525-2.287,1.368-3.062,2.528c-0.776,1.161-1.164,2.47-1.164,3.928
				c0,0.548,0.035,1.009,0.105,1.382c0.058,0.245,0.309,1.137,0.752,2.677h-2.607v4.182h3.64c0.023,0.432,0.035,0.694,0.035,0.787
				c0,1.762-1.225,3.523-3.675,5.285l2.257,4.969c1.82-1.061,3.482-1.592,4.987-1.592c0.513,0,0.991,0.041,1.435,0.122
				c0.443,0.082,1.592,0.379,3.447,0.893c1.411,0.385,2.665,0.577,3.762,0.577c1.003,0,1.942-0.111,2.817-0.333
				c0.875-0.221,1.89-0.624,3.045-1.207L224.499,46.547z"/>
		</g>
	</g>
	<g>
		<g>
			
				<ellipse transform="matrix(0.9732 -0.2298 0.2298 0.9732 -27.7743 53.5341)" class="st3" cx="216.004" cy="146.038" rx="23.371" ry="23.371"/>
		</g>
	</g>
	<g>
		<g>
			<path class="st0" d="M216.003,121.167c-13.714,0-24.871,11.157-24.871,24.872c0,13.714,11.157,24.871,24.871,24.871
				c13.714,0,24.872-11.157,24.872-24.871C240.875,132.324,229.718,121.167,216.003,121.167z M216.003,167.909
				c-12.06,0-21.871-9.812-21.871-21.871c0-12.06,9.812-21.872,21.871-21.872c12.06,0,21.872,9.812,21.872,21.872
				C237.875,158.098,228.063,167.909,216.003,167.909z"/>
		</g>
	</g>
	<g>
		<g>
			<path class="st0" d="M218.232,143.411c-3.383-1.273-4.776-2.109-4.776-3.422c0-1.114,0.836-2.228,3.422-2.228
				c2.865,0,4.695,0.915,5.73,1.353l1.154-4.496c-1.313-0.637-3.104-1.195-5.77-1.313v-3.502h-3.9v3.78
				c-4.258,0.836-6.725,3.581-6.725,7.083c0,3.86,2.905,5.85,7.163,7.282c2.945,0.995,4.218,1.95,4.218,3.462
				c0,1.592-1.552,2.468-3.82,2.468c-2.587,0-4.934-0.836-6.606-1.751l-1.194,4.655c1.512,0.875,4.099,1.591,6.764,1.711v3.78h3.9
				v-4.059c4.576-0.795,7.083-3.82,7.083-7.361C224.878,147.272,222.967,145.083,218.232,143.411z"/>
		</g>
	</g>
	<g>
		<g>
			<path class="st25" d="M216,71.17c-2.82,0-5.52,0.54-8,1.52c3.77,1.48,7.04,3.99,9.45,7.17c0.61-0.06,1.24-0.09,1.89-0.09
				c2.22,0,4.48,0.6,6.77,1.79l-1.58,6.35c-1.24-1.15-2.54-1.85-3.88-2.08c0.8,2.26,1.23,4.68,1.23,7.21s-0.43,4.96-1.23,7.22
				c2-0.24,3.9-1.02,5.69-2.36v6.53c-1.82,1.25-4.02,1.87-6.6,1.87c-0.8,0-1.56-0.04-2.28-0.11c-2.4,3.2-5.67,5.71-9.46,7.2
				c2.48,0.98,5.18,1.52,8,1.52c12.06,0,21.88-9.81,21.88-21.87C237.88,80.98,228.06,71.17,216,71.17z"/>
		</g>
	</g>
	<g>
		<g>
			<path class="st25" d="M216,177.17c-2.82,0-5.52,0.54-8,1.52c4.68,1.84,8.58,5.26,11.03,9.59l0.94-2.07h8.02l-6.11,11.06h5.2v3.87
				h-5.3c-0.07,0.72-0.17,1.43-0.32,2.12h5.62v3.91h-7.37v4.69h-2.01c-2.42,3.35-5.79,5.99-9.7,7.53c2.48,0.98,5.18,1.52,8,1.52
				c12.06,0,21.88-9.81,21.88-21.87C237.88,186.98,228.06,177.17,216,177.17z"/>
		</g>
	</g>
	<g>
		<g>
			<path class="st25" d="M216,18.17c-2.82,0-5.52,0.54-8,1.52c3.75,1.47,7,3.96,9.39,7.11c1.47,0.07,2.67,0.29,3.6,0.65
				c1.17,0.45,2.16,1.19,2.98,2.24c0.81,1.04,1.36,2.3,1.67,3.79l-4.56,0.72c0.52,1.86,0.8,3.82,0.8,5.84
				c0,2.58-0.45,5.05-1.28,7.35c0.12,0.01,0.24,0.01,0.36,0.01c0.65,0,1.2-0.05,1.68-0.16c0.47-0.11,1.09-0.34,1.86-0.69l2.38,5.21
				c-1.16,0.59-2.17,0.99-3.05,1.21c-0.87,0.22-1.81,0.33-2.81,0.33c-0.98,0-2.07-0.15-3.3-0.46c-2.43,3.36-5.8,6.01-9.72,7.55
				c2.48,0.98,5.18,1.52,8,1.52c12.06,0,21.88-9.81,21.88-21.87C237.88,27.98,228.06,18.17,216,18.17z"/>
		</g>
	</g>
	<g>
		<g>
			<path class="st25" d="M216,124.17c-2.82,0-5.52,0.54-8,1.52c2.46,0.96,4.7,2.36,6.63,4.11h3.36v3.5
				c2.67,0.12,4.46,0.68,5.77,1.32l-1.15,4.49c-0.52-0.21-1.23-0.55-2.16-0.83c0.82,2.14,1.31,4.45,1.41,6.86
				c2.11,1.44,3.02,3.25,3.02,5.71c0,3.43-2.35,6.38-6.66,7.27c-0.14,0.04-0.28,0.07-0.43,0.09v4.06h-3.15
				c-1.93,1.75-4.18,3.16-6.64,4.12c2.48,0.98,5.18,1.52,8,1.52c12.06,0,21.88-9.81,21.88-21.87
				C237.88,133.98,228.06,124.17,216,124.17z"/>
		</g>
	</g>
	<g>
		<g>
			<path class="st25" d="M219.71,207.17v1.36c0.21-0.44,0.41-0.9,0.6-1.36H219.71z"/>
		</g>
	</g>
	<g>
		<g>
			<path class="st25" d="M217.79,158.21v0.53c0.15-0.2,0.3-0.41,0.43-0.62C218.08,158.16,217.94,158.19,217.79,158.21z"/>
		</g>
	</g>
</g>
</svg>
