<?xml version="1.0" encoding="utf-8"?>
<!-- Generator: Adobe Illustrator 22.0.1, SVG Export Plug-In . SVG Version: 6.00 Build 0)  -->
<svg version="1.1" id="Layer_1" xmlns="http://www.w3.org/2000/svg" xmlns:xlink="http://www.w3.org/1999/xlink" x="0px" y="0px"
	 viewBox="0 0 256 256" style="enable-background:new 0 0 256 256;" xml:space="preserve">
<style type="text/css">
	.st0{fill:#3A312A;}
	.st1{fill:#8AC6DD;}
	.st2{fill:#F16C7A;}
	.st3{fill:#D7E057;}
	.st4{fill:#87796F;}
	.st5{fill:#FCE8CB;}
	.st6{fill:#DECAAD;}
	.st7{fill:#D6DF58;}
	.st8{fill:#FAE6CA;}
	.st9{fill:#DDC9AC;}
	.st10{fill:#D5DE58;}
	.st11{fill:#ED6E7A;}
	.st12{fill:#8AC5DC;}
	.st13{fill:#6CA8BF;}
	.st14{fill:#695B51;}
	.st15{fill:#F8E4C8;}
	.st16{fill:#EF6D7A;}
	.st17{fill-rule:evenodd;clip-rule:evenodd;fill:#F8E4C8;}
	.st18{fill:#89C4DB;}
	.st19{fill:#F59689;}
	.st20{fill:#D34E5C;}
	.st21{fill:#F7E3C7;}
	.st22{fill:#8AC3DA;}
	.st23{fill-rule:evenodd;clip-rule:evenodd;fill:#F7E3C7;}
	.st24{fill-rule:evenodd;clip-rule:evenodd;fill:#87796F;}
	.st25{fill:#B9C239;}
	.st26{fill:#D4DB56;}
	.st27{fill-rule:evenodd;clip-rule:evenodd;fill:#F16C7A;}
	.st28{fill-rule:evenodd;clip-rule:evenodd;fill:#F6E2C6;}
	.st29{fill:#F6E2C6;}
	.st30{fill-rule:evenodd;clip-rule:evenodd;fill:#FAE6CA;}
	.st31{fill:#B8C136;}
</style>
<g>
	<g>
		<g>
			<path class="st4" d="M222.394,16.135H33.605c-9.447,0-17.105,7.658-17.105,17.106V163.53c0,9.447,7.658,17.105,17.105,17.105
				h188.789c9.447,0,17.106-7.658,17.106-17.105V33.241C239.5,23.794,231.842,16.135,222.394,16.135z"/>
		</g>
	</g>
	<g>
		<g>
			<path class="st0" d="M222.394,14.635H33.605C23.346,14.635,15,22.981,15,33.241V163.53c0,10.259,8.346,18.606,18.605,18.606
				h188.789c10.259,0,18.606-8.346,18.606-18.606V33.241C241,22.981,232.653,14.635,222.394,14.635z M238,163.53
				c0,8.605-7.001,15.606-15.606,15.606H33.605C25,179.135,18,172.135,18,163.53V33.241c0-8.605,7-15.605,15.605-15.605h188.789
				c8.605,0,15.606,7,15.606,15.605V163.53z"/>
		</g>
	</g>
	<g>
		<g>
			<path class="st5" d="M214.97,28.64H41.03c-6.58,0-11.92,5.33-11.92,11.92v115.66c0,6.58,5.34,11.92,11.92,11.92h173.94
				c6.58,0,11.92-5.34,11.92-11.92V40.56C226.89,33.97,221.55,28.64,214.97,28.64z"/>
		</g>
	</g>
	<g>
		<g>
			<path class="st0" d="M214.97,27.14H86.333c-0.829,0-1.5,0.671-1.5,1.5c0,0.829,0.671,1.5,1.5,1.5H214.97
				c5.745,0,10.42,4.674,10.42,10.42v115.66c0,5.746-4.675,10.42-10.42,10.42H41.03c-5.746,0-10.42-4.674-10.42-10.42V40.56
				c0-5.746,4.674-10.42,10.42-10.42h32.638c0.829,0,1.5-0.671,1.5-1.5c0-0.829-0.671-1.5-1.5-1.5H41.03
				c-7.4,0-13.42,6.02-13.42,13.42v115.66c0,7.4,6.02,13.42,13.42,13.42h173.94c7.399,0,13.42-6.02,13.42-13.42V40.56
				C228.39,33.16,222.369,27.14,214.97,27.14z"/>
		</g>
	</g>
	<g>
		<g>
			<rect x="113.688" y="180.635" class="st4" width="28.625" height="35.593"/>
		</g>
	</g>
	<g>
		<g>
			<path class="st0" d="M142.313,179.135h-28.625c-0.829,0-1.5,0.671-1.5,1.5v35.593c0,0.829,0.671,1.5,1.5,1.5h28.625
				c0.828,0,1.5-0.671,1.5-1.5v-35.593C143.813,179.807,143.141,179.135,142.313,179.135z M140.813,214.728h-25.625v-32.593h25.625
				V214.728z"/>
		</g>
	</g>
	<g>
		<g>
			<path class="st4" d="M148.296,216.229h-40.593c-12.927,0-23.407,10.479-23.407,23.407h87.406
				C171.703,226.708,161.224,216.229,148.296,216.229z"/>
		</g>
	</g>
	<g>
		<g>
			<path class="st0" d="M148.296,214.728h-40.592c-13.733,0-24.907,11.173-24.907,24.907c0,0.829,0.671,1.5,1.5,1.5h37.584
				c0.829,0,1.5-0.671,1.5-1.5c0-0.829-0.671-1.5-1.5-1.5H85.848c0.773-11.382,10.281-20.407,21.856-20.407h40.592
				c11.575,0,21.083,9.024,21.856,20.407h-34.701c-0.828,0-1.5,0.671-1.5,1.5c0,0.829,0.672,1.5,1.5,1.5h36.252
				c0.828,0,1.5-0.671,1.5-1.5C173.203,225.902,162.03,214.728,148.296,214.728z"/>
		</g>
	</g>
	<g>
		<g>
			<path class="st6" d="M214.97,30.135h-15c5.74,0,10.42,4.67,10.42,10.42v115.66c0,5.75-4.68,10.42-10.42,10.42h15
				c5.74,0,10.42-4.67,10.42-10.42V40.555C225.39,34.805,220.71,30.135,214.97,30.135z"/>
		</g>
	</g>
	<g>
		<g>
			<path class="st7" d="M47.671,203.469c-0.974,11.564-13.025,13.389-13.025,13.389c10.346,0.487,12.925,14.059,12.925,14.059
				c0.221-9.677,13.321-14.202,13.321-14.202C51.079,216.129,47.671,203.469,47.671,203.469z"/>
		</g>
	</g>
	<g>
		<g>
			<path class="st0" d="M60.982,215.218c-8.604-0.514-11.831-12.024-11.863-12.141c-0.19-0.702-0.848-1.161-1.583-1.102
				c-0.725,0.066-1.298,0.642-1.359,1.367c-0.86,10.215-11.314,11.964-11.755,12.033c-0.763,0.115-1.313,0.79-1.273,1.56
				c0.04,0.77,0.657,1.384,1.427,1.421c9.028,0.425,11.499,12.718,11.523,12.842c0.137,0.711,0.759,1.217,1.472,1.217
				c0.042,0,0.084-0.002,0.126-0.005c0.764-0.064,1.357-0.693,1.375-1.459c0.195-8.508,12.192-12.777,12.313-12.819
				c0.675-0.235,1.092-0.914,0.994-1.623C62.28,215.802,61.696,215.261,60.982,215.218z M47.417,225.565
				c-1.356-3.13-3.709-6.907-7.587-8.877c2.931-1.405,6.409-3.914,8.202-8.273c1.551,3.071,4.199,6.88,8.334,8.723
				C53.358,218.777,49.443,221.543,47.417,225.565z"/>
		</g>
	</g>
	<g>
		<g>
			<path class="st7" d="M25.972,220.45c-0.689,8.179-9.212,9.471-9.212,9.471c7.318,0.344,9.142,9.944,9.142,9.944
				c0.156-6.845,9.422-10.045,9.422-10.045C28.383,229.404,25.972,220.45,25.972,220.45z"/>
		</g>
	</g>
	<g>
		<g>
			<path class="st0" d="M35.414,228.322c-5.767-0.345-7.973-8.186-7.994-8.265c-0.19-0.702-0.856-1.17-1.582-1.102
				c-0.726,0.065-1.299,0.643-1.36,1.368c-0.579,6.871-7.646,8.067-7.942,8.114c-0.763,0.115-1.313,0.79-1.273,1.56
				c0.04,0.77,0.657,1.384,1.427,1.421c6.036,0.284,7.724,8.644,7.739,8.726c0.135,0.713,0.759,1.22,1.472,1.22
				c0.042,0,0.083-0.001,0.125-0.005c0.765-0.063,1.358-0.693,1.376-1.461c0.131-5.709,8.332-8.634,8.413-8.662
				c0.676-0.234,1.094-0.913,0.996-1.622C36.713,228.906,36.128,228.365,35.414,228.322z M25.829,235.117
				c-0.924-1.886-2.34-3.947-4.447-5.28c1.856-1.042,3.697-2.63,4.871-4.917c1.057,1.873,2.655,3.954,4.941,5.224
				C29.344,231.245,27.205,232.885,25.829,235.117z"/>
		</g>
	</g>
	<g>
		<g>
			<path class="st7" d="M25.972,193.792c-0.689,8.179-9.212,9.471-9.212,9.471c7.318,0.345,9.142,9.944,9.142,9.944
				c0.156-6.845,9.422-10.045,9.422-10.045C28.383,202.747,25.972,193.792,25.972,193.792z"/>
		</g>
	</g>
	<g>
		<g>
			<path class="st0" d="M35.414,201.664c-5.766-0.345-7.972-8.185-7.994-8.264c-0.19-0.702-0.856-1.164-1.582-1.102
				c-0.726,0.065-1.299,0.643-1.36,1.368c-0.579,6.871-7.646,8.066-7.942,8.113c-0.763,0.115-1.313,0.79-1.273,1.56
				c0.04,0.77,0.657,1.384,1.427,1.421c6.036,0.284,7.723,8.645,7.739,8.726c0.135,0.713,0.759,1.22,1.473,1.22
				c0.041,0,0.083-0.001,0.125-0.005c0.765-0.063,1.358-0.693,1.376-1.461c0.131-5.71,8.332-8.634,8.413-8.662
				c0.677-0.234,1.094-0.913,0.996-1.622C36.713,202.248,36.128,201.707,35.414,201.664z M25.829,208.459
				c-0.924-1.885-2.34-3.947-4.447-5.28c1.856-1.041,3.697-2.629,4.87-4.916c1.057,1.874,2.655,3.954,4.941,5.223
				C29.344,204.588,27.206,206.227,25.829,208.459z"/>
		</g>
	</g>
	<g>
		<g>
			<path class="st0" d="M199.451,71.315c-0.56-0.612-1.508-0.652-2.119-0.094l-36.006,32.965l-33.13-18.2
				c-0.597-0.329-1.342-0.213-1.811,0.283l-33.911,35.796L58.76,101.004c-0.703-0.44-1.628-0.225-2.067,0.477
				c-0.439,0.703-0.226,1.628,0.477,2.067l34.754,21.712c0.246,0.153,0.521,0.228,0.795,0.228c0.401,0,0.798-0.161,1.089-0.468
				l33.958-35.846l33.057,18.16c0.565,0.309,1.262,0.226,1.735-0.208l36.799-33.691C199.969,72.875,200.011,71.926,199.451,71.315z"
				/>
		</g>
	</g>
	<g>
		<g>
			
				<ellipse transform="matrix(0.5257 -0.8507 0.8507 0.5257 -61.2905 138.0449)" class="st16" cx="93.154" cy="123.988" rx="9.81" ry="9.81"/>
		</g>
	</g>
	<g>
		<g>
			<path class="st0" d="M93.154,112.678c-6.236,0-11.31,5.073-11.31,11.31c0,6.236,5.074,11.31,11.31,11.31
				c6.236,0,11.31-5.074,11.31-11.31C104.463,117.751,99.39,112.678,93.154,112.678z M93.154,132.298c-4.582,0-8.31-3.728-8.31-8.31
				c0-4.582,3.728-8.31,8.31-8.31c4.582,0,8.31,3.728,8.31,8.31C101.463,128.57,97.736,132.298,93.154,132.298z"/>
		</g>
	</g>
	<g>
		<g>
			
				<ellipse transform="matrix(0.9951 -0.0985 0.0985 0.9951 -7.9932 13.0004)" class="st7" cx="127.614" cy="87.42" rx="9.81" ry="9.81"/>
		</g>
	</g>
	<g>
		<g>
			<path class="st0" d="M127.614,76.11c-6.236,0-11.31,5.074-11.31,11.31c0,6.236,5.074,11.31,11.31,11.31
				c6.236,0,11.31-5.074,11.31-11.31C138.924,81.184,133.851,76.11,127.614,76.11z M127.614,95.73c-4.582,0-8.31-3.728-8.31-8.31
				c0-4.582,3.728-8.31,8.31-8.31c4.582,0,8.31,3.728,8.31,8.31C135.924,92.002,132.196,95.73,127.614,95.73z"/>
		</g>
	</g>
	<g>
		<g>
			
				<ellipse transform="matrix(0.3827 -0.9239 0.9239 0.3827 1.8443 214.65)" class="st1" cx="161.546" cy="105.945" rx="9.81" ry="9.81"/>
		</g>
	</g>
	<g>
		<g>
			<path class="st0" d="M161.546,94.635c-6.236,0-11.31,5.074-11.31,11.31c0,6.236,5.074,11.31,11.31,11.31
				c6.236,0,11.31-5.074,11.31-11.31C172.855,99.708,167.782,94.635,161.546,94.635z M161.546,114.255
				c-4.582,0-8.31-3.728-8.31-8.31c0-4.582,3.728-8.31,8.31-8.31c4.582,0,8.31,3.728,8.31,8.31
				C169.855,110.527,166.128,114.255,161.546,114.255z"/>
		</g>
	</g>
	<g>
		<g>
			
				<ellipse transform="matrix(0.7071 -0.7071 0.7071 0.7071 6.9503 161.4356)" class="st4" cx="198.345" cy="72.328" rx="9.81" ry="9.81"/>
		</g>
	</g>
	<g>
		<g>
			<path class="st0" d="M198.345,61.018c-6.236,0-11.31,5.074-11.31,11.31c0,6.236,5.073,11.31,11.31,11.31
				c6.236,0,11.311-5.074,11.311-11.31C209.655,66.092,204.581,61.018,198.345,61.018z M198.345,80.638
				c-4.582,0-8.31-3.728-8.31-8.31c0-4.582,3.728-8.31,8.31-8.31c4.582,0,8.311,3.728,8.311,8.31
				C206.655,76.91,202.927,80.638,198.345,80.638z"/>
		</g>
	</g>
	<g>
		<g>
			
				<ellipse transform="matrix(0.0985 -0.9951 0.9951 0.0985 -49.6132 149.9609)" class="st4" cx="57.965" cy="102.365" rx="9.81" ry="9.81"/>
		</g>
	</g>
	<g>
		<g>
			<path class="st0" d="M57.965,91.055c-6.236,0-11.31,5.074-11.31,11.31c0,6.236,5.073,11.31,11.31,11.31
				c6.236,0,11.31-5.074,11.31-11.31C69.275,96.128,64.201,91.055,57.965,91.055z M57.965,110.675c-4.582,0-8.31-3.728-8.31-8.31
				c0-4.582,3.728-8.31,8.31-8.31c4.582,0,8.31,3.728,8.31,8.31C66.275,106.947,62.547,110.675,57.965,110.675z"/>
		</g>
	</g>
</g>
</svg>
