<svg width="34" height="34" viewBox="0 0 34 34" fill="none" xmlns="http://www.w3.org/2000/svg">
<path d="M23.7925 0.333374H29.4358C31.7729 0.333374 33.6667 2.24313 33.6667 4.59998V10.2909C33.6667 12.6478 31.7729 14.5575 29.4358 14.5575H23.7925C21.4554 14.5575 19.5616 12.6478 19.5616 10.2909V4.59998C19.5616 2.24313 21.4554 0.333374 23.7925 0.333374Z" fill="#FFDC60"/>
<path d="M4.56422 19.4425H10.2075C12.5446 19.4425 14.4384 21.3523 14.4384 23.7091V29.4C14.4384 31.7553 12.5446 33.6667 10.2075 33.6667H4.56422C2.2271 33.6667 0.333344 31.7553 0.333344 29.4V23.7091C0.333344 21.3523 2.2271 19.4425 4.56422 19.4425Z" fill="#FFDC60"/>
<path fill-rule="evenodd" clip-rule="evenodd" d="M10.2075 0.333374H4.56422C2.2271 0.333374 0.333344 2.24313 0.333344 4.59998V10.2909C0.333344 12.6478 2.2271 14.5575 4.56422 14.5575H10.2075C12.5446 14.5575 14.4384 12.6478 14.4384 10.2909V4.59998C14.4384 2.24313 12.5446 0.333374 10.2075 0.333374ZM29.4358 19.4426H23.7925C21.4554 19.4426 19.5617 21.3523 19.5617 23.7092V29.4001C19.5617 31.7554 21.4554 33.6667 23.7925 33.6667H29.4358C31.7729 33.6667 33.6667 31.7554 33.6667 29.4001V23.7092C33.6667 21.3523 31.7729 19.4426 29.4358 19.4426Z" fill="#9374FF"/>
</svg>
