<svg width="251" height="216" viewBox="0 0 251 216" fill="none" xmlns="http://www.w3.org/2000/svg">
<g filter="url(#filter0_d_374_4456)">
<rect x="43" y="42" width="170" height="128" rx="6" fill="white"/>
</g>
<rect x="104" y="151" width="16" height="6" rx="3" fill="#B4B6C4"/>
<rect x="136" y="151" width="16" height="6" rx="3" fill="#B4B6C4"/>
<rect x="168" y="151" width="16" height="6" rx="3" fill="#B4B6C4"/>
<rect x="72" y="151" width="16" height="6" rx="3" fill="#B4B6C4"/>
<rect x="72" y="105" width="16" height="36" fill="#9374FF"/>
<rect x="136" y="101" width="16" height="40" fill="#9374FF"/>
<rect x="168" y="81" width="16" height="60" fill="#FFDC60"/>
<rect x="104" y="88" width="16" height="53" fill="#FFDC60"/>
<path d="M176.64 85.4665C176.269 85.7756 175.731 85.7756 175.36 85.4665L168.244 79.5364C166.807 78.3389 167.653 76 169.524 76L182.476 76C184.346 76 185.193 78.3389 183.756 79.5364L176.64 85.4665Z" fill="#9374FF"/>
<rect x="141" y="48" width="70" height="34" rx="4" fill="#9374FF"/>
<rect opacity="0.4" x="149" y="72" width="28" height="3" rx="1.5" fill="white"/>
<path d="M154.152 56.256C153.891 57.1893 153.433 58.2907 152.78 59.56C152.127 60.82 151.534 61.7627 151.002 62.388H154.222V59.602C154.539 58.9767 154.791 58.3373 154.978 57.684H155.594V62.388H156.812V63.634H155.594V66H154.222V63.634H149.7V62.374C150.969 60.47 151.963 58.4307 152.682 56.256H154.152ZM161.995 56.256C162.583 56.256 163.12 56.396 163.605 56.676C164.1 56.956 164.492 57.3433 164.781 57.838C165.071 58.3327 165.215 58.888 165.215 59.504V62.906C165.215 63.5127 165.075 64.0633 164.795 64.558C164.515 65.0433 164.128 65.4307 163.633 65.72C163.148 66 162.602 66.14 161.995 66.14H161.813C161.197 66.14 160.642 66 160.147 65.72C159.662 65.4307 159.284 65.0387 159.013 64.544C158.743 64.0493 158.607 63.5033 158.607 62.906V59.504C158.607 58.8787 158.747 58.3187 159.027 57.824C159.317 57.3293 159.704 56.9467 160.189 56.676C160.675 56.396 161.216 56.256 161.813 56.256H161.995ZM161.911 57.502C161.37 57.502 160.913 57.684 160.539 58.048C160.166 58.4027 159.979 58.8507 159.979 59.392V63.004C159.979 63.5453 160.166 63.998 160.539 64.362C160.913 64.7167 161.37 64.894 161.911 64.894C162.471 64.894 162.933 64.712 163.297 64.348C163.661 63.984 163.843 63.536 163.843 63.004V59.392C163.843 58.86 163.661 58.412 163.297 58.048C162.933 57.684 162.471 57.502 161.911 57.502ZM174.529 56.396L168.705 66H167.725L173.577 56.396H174.529ZM168.439 56.41C168.933 56.41 169.339 56.5733 169.657 56.9C169.974 57.2173 170.133 57.6187 170.133 58.104V59.602C170.133 60.0873 169.969 60.4933 169.643 60.82C169.325 61.1373 168.924 61.296 168.439 61.296H168.341C167.855 61.296 167.449 61.1373 167.123 60.82C166.805 60.4933 166.647 60.0873 166.647 59.602V58.104C166.647 57.6187 166.805 57.2173 167.123 56.9C167.44 56.5733 167.846 56.41 168.341 56.41H168.439ZM168.397 57.18C168.135 57.18 167.925 57.2593 167.767 57.418C167.617 57.5673 167.543 57.7633 167.543 58.006V59.7C167.543 59.9427 167.617 60.1433 167.767 60.302C167.925 60.4513 168.135 60.526 168.397 60.526C168.658 60.526 168.863 60.4513 169.013 60.302C169.162 60.1433 169.237 59.9427 169.237 59.7V58.006C169.237 57.7633 169.162 57.5673 169.013 57.418C168.863 57.2593 168.658 57.18 168.397 57.18ZM173.899 61.128C174.384 61.128 174.785 61.2913 175.103 61.618C175.429 61.9353 175.593 62.3367 175.593 62.822V64.32C175.593 64.8053 175.434 65.2113 175.117 65.538C174.799 65.8553 174.393 66.014 173.899 66.014H173.801C173.306 66.014 172.9 65.8553 172.583 65.538C172.265 65.2113 172.107 64.8053 172.107 64.32V62.822C172.107 62.3367 172.265 61.9353 172.583 61.618C172.909 61.2913 173.315 61.128 173.801 61.128H173.899ZM173.857 61.898C173.595 61.898 173.385 61.9773 173.227 62.136C173.077 62.2853 173.003 62.4813 173.003 62.724V64.418C173.003 64.6607 173.077 64.8613 173.227 65.02C173.385 65.1693 173.595 65.244 173.857 65.244C174.118 65.244 174.323 65.1693 174.473 65.02C174.622 64.8613 174.697 64.6607 174.697 64.418V62.724C174.697 62.4813 174.622 62.2853 174.473 62.136C174.323 61.9773 174.118 61.898 173.857 61.898Z" fill="white"/>
<circle cx="196" cy="64" r="7" fill="white"/>
<path d="M196.513 62.2429C196.249 61.9607 195.751 61.9607 195.487 62.2429L192.867 65.0406C192.518 65.4133 192.825 65.9688 193.38 65.9687L198.62 65.9687C199.175 65.9687 199.482 65.4133 199.133 65.0406L196.513 62.2429Z" fill="#38E7B2"/>
<g filter="url(#filter1_d_374_4456)">
<rect x="27" y="14" width="58" height="58" rx="6" fill="white"/>
<path d="M21 55.5976C21 55.5976 28.2663 44.528 35.8966 43.0687C43.5268 41.6093 43.0345 52.2244 47.3172 49.815C51.6 47.4056 53.5852 34.5944 58.7379 31.9854C64.4483 29.0942 66.7599 43.4727 73.1379 38.7318C80.9172 32.9492 93 33.913 93 33.913" stroke="#FFD43D" stroke-width="2" stroke-linecap="round" stroke-linejoin="round"/>
<rect x="34" y="21" width="12" height="12" rx="2" fill="#9374FF"/>
<rect opacity="0.4" x="61" y="58" width="16" height="6" rx="3" fill="#B4B6C4"/>
</g>
<defs>
<filter id="filter0_d_374_4456" x="5" y="12" width="246" height="204" filterUnits="userSpaceOnUse" color-interpolation-filters="sRGB">
<feFlood flood-opacity="0" result="BackgroundImageFix"/>
<feColorMatrix in="SourceAlpha" type="matrix" values="0 0 0 0 0 0 0 0 0 0 0 0 0 0 0 0 0 0 127 0" result="hardAlpha"/>
<feMorphology radius="2" operator="erode" in="SourceAlpha" result="effect1_dropShadow_374_4456"/>
<feOffset dy="8"/>
<feGaussianBlur stdDeviation="20"/>
<feColorMatrix type="matrix" values="0 0 0 0 0.0235294 0 0 0 0 0.0470588 0 0 0 0 0.231373 0 0 0 0.08 0"/>
<feBlend mode="normal" in2="BackgroundImageFix" result="effect1_dropShadow_374_4456"/>
<feBlend mode="normal" in="SourceGraphic" in2="effect1_dropShadow_374_4456" result="shape"/>
</filter>
<filter id="filter1_d_374_4456" x="-0.00012207" y="0" width="114" height="98" filterUnits="userSpaceOnUse" color-interpolation-filters="sRGB">
<feFlood flood-opacity="0" result="BackgroundImageFix"/>
<feColorMatrix in="SourceAlpha" type="matrix" values="0 0 0 0 0 0 0 0 0 0 0 0 0 0 0 0 0 0 127 0" result="hardAlpha"/>
<feOffset dy="6"/>
<feGaussianBlur stdDeviation="10"/>
<feColorMatrix type="matrix" values="0 0 0 0 0.11 0 0 0 0 0.14137 0 0 0 0 0.4125 0 0 0 0.05 0"/>
<feBlend mode="normal" in2="BackgroundImageFix" result="effect1_dropShadow_374_4456"/>
<feBlend mode="normal" in="SourceGraphic" in2="effect1_dropShadow_374_4456" result="shape"/>
</filter>
</defs>
</svg>
